<?xml version="1.0" encoding="utf-8"?>
<!-- Generator: Adobe Illustrator 22.0.1, SVG Export Plug-In . SVG Version: 6.00 Build 0)  -->
<svg version="1.1" id="Слой_1" xmlns="http://www.w3.org/2000/svg" xmlns:xlink="http://www.w3.org/1999/xlink" x="0px" y="0px"
	 viewBox="0 0 29.4 29.4" style="enable-background:new 0 0 29.4 29.4;" xml:space="preserve">
<style type="text/css">
	.st0{fill:#A5622A;}
	.st1{fill:url(#Ellipse_13_1_);}
	.st2{fill:url(#Ellipse_9_1_);}
	.st3{fill:url(#Ellipse_25_1_);}
	.st4{opacity:0.8;}
	.st5{fill:none;}
	.st6{fill:none;stroke:#FAFAF9;stroke-width:2;stroke-linecap:round;stroke-dasharray:2,1000;}
	.st7{opacity:0.797;}
	.st8{fill:none;stroke:#FAFAF9;stroke-linecap:round;stroke-dasharray:1,1000;}
</style>
<g id="Group_287" transform="translate(8.465 8.464)">
	<g transform="translate(-8.46 -8.46)">
		<ellipse id="Ellipse_8-2" class="st0" cx="14.7" cy="14.7" rx="14.7" ry="14.7"/>
	</g>
	
		<radialGradient id="Ellipse_13_1_" cx="-914.8854" cy="552.9064" r="0.448" gradientTransform="matrix(22.2107 16.8425 13.8594 -18.2513 12673.2939 25514.4707)" gradientUnits="userSpaceOnUse">
		<stop  offset="0" style="stop-color:#FFFFFF"/>
		<stop  offset="1" style="stop-color:#9DA1A7;stop-opacity:0"/>
	</radialGradient>
	<ellipse id="Ellipse_13" class="st1" cx="6" cy="6.2" rx="13.9" ry="13.9"/>
	
		<radialGradient id="Ellipse_9_1_" cx="-955.9196" cy="507.4543" r="0.51" gradientTransform="matrix(10.7387 -24.1194 -24.4571 -10.889 22673.123 -17530.4883)" gradientUnits="userSpaceOnUse">
		<stop  offset="0" style="stop-color:#91959C"/>
		<stop  offset="1" style="stop-color:#703C16"/>
	</radialGradient>
	<ellipse id="Ellipse_9" class="st2" cx="6" cy="6.2" rx="13.2" ry="13.2"/>
	
		<linearGradient id="Ellipse_25_1_" gradientUnits="userSpaceOnUse" x1="-911.0895" y1="474.5464" x2="-910.8826" y2="473.5824" gradientTransform="matrix(14.0887 -6.2727 -4.7409 -10.6483 15083.1719 -665.8163)">
		<stop  offset="0" style="stop-color:#FFFFFF;stop-opacity:0.647"/>
		<stop  offset="0.609" style="stop-color:#FFFFFF;stop-opacity:0.22"/>
		<stop  offset="1" style="stop-color:#FFFFFF;stop-opacity:0"/>
	</linearGradient>
	<path id="Ellipse_25" class="st3" d="M-1.1-4.6C2.7-6.3,7-5.3,8.3-2.4S7.5,4.3,3.6,6.1s-8.1,0.8-9.4-2.2S-5-2.9-1.1-4.6z"/>
	<g id="Ellipse_12" transform="rotate(-51 24.812 8.816)" class="st4">
		<ellipse transform="matrix(-0.6293 -0.7771 0.7771 -0.6293 29.0986 2.0698)" class="st5" cx="15" cy="-5.9" rx="13.2" ry="13.2"/>
		<ellipse transform="matrix(-0.6293 -0.7771 0.7771 -0.6293 29.0986 2.0698)" class="st6" cx="15" cy="-5.9" rx="12.2" ry="12.2"/>
	</g>
	<g id="Ellipse_24" transform="rotate(-50 26.784 3.698)" class="st7">
		
			<ellipse transform="matrix(-0.6428 -0.766 0.766 -0.6428 25.9586 -6.0393)" class="st5" cx="11.6" cy="-9.1" rx="10.1" ry="10.1"/>
		<ellipse transform="matrix(-0.6428 -0.766 0.766 -0.6428 25.9586 -6.0393)" class="st8" cx="11.6" cy="-9.1" rx="9.6" ry="9.6"/>
	</g>
</g>
</svg>
