<?xml version="1.0" encoding="utf-8"?>
<!-- Generator: Adobe Illustrator 22.0.1, SVG Export Plug-In . SVG Version: 6.00 Build 0)  -->
<svg version="1.1" id="Слой_1" xmlns="http://www.w3.org/2000/svg" xmlns:xlink="http://www.w3.org/1999/xlink" x="0px" y="0px"
	 viewBox="0 0 29.5 29.6" style="enable-background:new 0 0 29.5 29.6;" xml:space="preserve">
<style type="text/css">
	.st0{fill:#F9B034;}
	.st1{fill:url(#Ellipse_13_1_);}
	.st2{fill:url(#Ellipse_9_1_);}
	.st3{fill:url(#Ellipse_25_1_);}
	.st4{opacity:0.8;}
	.st5{fill:none;}
	.st6{fill:none;stroke:#FAFAF9;stroke-width:2;stroke-linecap:round;stroke-dasharray:2,1000;}
	.st7{opacity:0.797;}
	.st8{fill:none;stroke:#FAFAF9;stroke-linecap:round;stroke-dasharray:1,1000;}
	.st9{display:none;}
	.st10{display:inline;}
	.st11{fill:#A5622B;}
	.st12{fill:#2E1A1A;}
</style>
<g id="Group_3522" transform="translate(8.465 8.464)">
	<g id="Group_294">
		<g transform="translate(-8.46 -8.46)">
			<ellipse id="Ellipse_8-2" class="st0" cx="14.7" cy="14.7" rx="14.7" ry="14.7"/>
		</g>
		
			<radialGradient id="Ellipse_13_1_" cx="-914.9063" cy="552.9689" r="0.448" gradientTransform="matrix(22.2107 16.8425 13.8594 -18.2513 12672.8691 25516.0254)" gradientUnits="userSpaceOnUse">
			<stop  offset="0" style="stop-color:#FFFFFF"/>
			<stop  offset="1" style="stop-color:#9DA1A7;stop-opacity:0"/>
		</radialGradient>
		<ellipse id="Ellipse_13" class="st1" cx="5.9" cy="6.3" rx="13.9" ry="13.9"/>
		
			<radialGradient id="Ellipse_9_1_" cx="-955.9404" cy="507.5168" r="0.51" gradientTransform="matrix(10.7387 -24.1194 -24.4571 -10.889 22674.8535 -17530.248)" gradientUnits="userSpaceOnUse">
			<stop  offset="0" style="stop-color:#91959C"/>
			<stop  offset="1" style="stop-color:#FFA100"/>
		</radialGradient>
		<ellipse id="Ellipse_9" class="st2" cx="5.9" cy="6.3" rx="13.2" ry="13.2"/>
		
			<linearGradient id="Ellipse_25_1_" gradientUnits="userSpaceOnUse" x1="-911.1104" y1="474.6089" x2="-910.9034" y2="473.6449" gradientTransform="matrix(14.0887 -6.2727 -4.7409 -10.6483 15083.7402 -665.219)">
			<stop  offset="0" style="stop-color:#FFFFFF;stop-opacity:0.647"/>
			<stop  offset="0.609" style="stop-color:#FFFFFF;stop-opacity:0.22"/>
			<stop  offset="1" style="stop-color:#FFFFFF;stop-opacity:0"/>
		</linearGradient>
		<path id="Ellipse_25" class="st3" d="M-1.2-4.5c3.9-1.7,8.1-0.8,9.4,2.2S7.5,4.4,3.6,6.1s-8.1,0.8-9.4-2.2S-5.1-2.8-1.2-4.5z"/>
		<g id="Ellipse_12" transform="rotate(-51 24.812 8.816)" class="st4">
			
				<ellipse transform="matrix(-0.6293 -0.7771 0.7771 -0.6293 28.9801 2.0596)" class="st5" cx="15" cy="-5.9" rx="13.2" ry="13.2"/>
			
				<ellipse transform="matrix(-0.6293 -0.7771 0.7771 -0.6293 28.9801 2.0596)" class="st6" cx="15" cy="-5.9" rx="12.2" ry="12.2"/>
		</g>
		<g id="Ellipse_24" transform="rotate(-50 26.784 3.698)" class="st7">
			<ellipse transform="matrix(-0.6428 -0.766 0.766 -0.6428 25.8394 -6.0465)" class="st5" cx="11.5" cy="-9" rx="10.1" ry="10.1"/>
			<ellipse transform="matrix(-0.6428 -0.766 0.766 -0.6428 25.8394 -6.0465)" class="st8" cx="11.5" cy="-9" rx="9.6" ry="9.6"/>
		</g>
	</g>
	<g id="Group_295" transform="translate(11.261 11.87)" class="st9">
		<g id="Group_2" class="st10">
			<path id="Path_11" class="st11" d="M-13.2-4.9c0,4.4,3.6,8,8,8s8-3.6,8-8c0-1.6-0.5-3.1-1.4-4.5C1.3-9.2,1.3-9.1,1.2-8.9
				C3.4-5.4,2.4-0.8-1.2,1.5c-3.5,2.2-8.2,1.2-10.4-2.3s-1.2-8.2,2.3-10.4c2.1-1.3,4.7-1.5,6.9-0.6c0-0.1,0.1-0.3,0.1-0.4
				c-4.1-1.7-8.7,0.3-10.4,4.3C-13-7-13.2-5.9-13.2-4.9L-13.2-4.9z"/>
			<path id="Path_12" class="st11" d="M1.5-10c0,0.1,0,0.3-0.1,0.4C4.1-6,3.2-0.8-0.5,1.8c-3.7,2.6-8.8,1.8-11.4-1.9
				C-14.5-3.9-13.7-9-10-11.6c2.3-1.6,5.3-2,7.9-0.9c0.1-0.1,0.1-0.2,0.2-0.2c-4.3-1.8-9.3,0.2-11.2,4.5C-14.9-3.9-12.9,1.1-8.6,3
				c4.3,1.8,9.3-0.2,11.2-4.5C3.8-4.4,3.4-7.6,1.5-10L1.5-10z"/>
		</g>
		<g id="Group_3" transform="translate(2.034 3.019)" class="st10">
			<path id="Path_13" class="st11" d="M-1.7-6.5C-1.8-6.3-2-6.2-2.2-6.1C-2.3-6-2.4-6-2.5-5.9c0-0.1-0.1-0.2-0.2-0.3
				c-0.1-0.2-0.3-0.4-0.4-0.5c-0.7-0.5-1.5-0.8-2.4-0.9c0.7-0.1,1.4-0.5,1.9-0.9c0.1-0.1,0.2-0.2,0.2-0.2l-0.1,0
				C-4-9.1-4.6-9.2-5.2-9.3c-0.1,0.3-0.2,0.6-0.4,0.8C-6.1-8-6.7-7.9-7.2-7.9h-1.1v-3.3c0-0.2,0-0.3,0.2-0.4
				c0.3-0.1,0.5-0.1,0.8-0.1c0.6-0.1,1.3,0.1,1.8,0.4c0.2,0.2,0.4,0.4,0.4,0.7c0,0.1,0,0.2,0.1,0.4c-0.1,0-0.2,0-0.4,0
				c-0.3,0-0.6,0-1,0c-0.5,0-1,0-1.5,0.1v0.7c0.4-0.1,0.8-0.1,1.2-0.1c0.1,0,0.2,0,0.3,0c0.1,0,0.2,0,0.3,0c0.2,0,0.4,0,0.6,0
				c0.1,0,0.2,0,0.4,0c0.6,0.1,1.2,0.2,1.8,0.4l0.2,0.1C-3-9.1-2.9-9.1-2.8-9C-2.6-9-2.4-8.9-2.3-8.7H-1l0-0.1l-0.2-1.4h-0.6
				l-0.7,0.5l-0.1,0l-0.4-0.1c0-0.1,0-0.1,0-0.2s0-0.1,0-0.2c0-0.6-0.3-1.1-0.8-1.5c-0.6-0.5-1.4-0.7-2.2-0.7h0v-1h-0.9v1h-1v-1
				h-0.9v1h-3.1v0.6h0.8c0.2,0,0.3,0,0.5,0.1c0.1,0.1,0.2,0.2,0.1,0.3v5.2c-0.1-0.1-0.3-0.2-0.4-0.3c-0.3-0.3-0.5-0.6-0.5-1v0
				c0-0.4,0.2-0.7,0.5-1v-1.3c-0.2,0-0.3,0.1-0.5,0.1c-1.6,0.5-2.4,1.3-2.4,2.1v0c0,0.8,0.7,1.5,2.1,2c0.3,0.1,0.5,0.2,0.8,0.3
				c0.1,0,0.2,0.1,0.4,0.1c0.7,0.2,1.4,0.3,2.1,0.4c0.1,0,0.2,0,0.4,0c0.5,0,0.9,0,1.4,0c0.5,0,1,0,1.5-0.1c0.1,0,0.3,0,0.4,0
				C-4-4.8-3.3-4.9-2.6-5.2c0.1,0,0.2-0.1,0.2-0.1c0.1,0,0.2-0.1,0.4-0.2c0.5-0.2,0.9-0.6,1.2-1L-1.7-6.5z M-5-5.3c-0.3,0-0.7,0-1,0
				c-0.2,0-0.3,0-0.5,0c-0.1,0-0.2,0-0.4,0c-0.4,0-0.7,0-1.1-0.1c-0.1,0-0.2,0-0.4-0.1v-1.9h1.5c0.6,0,1.2,0.2,1.7,0.5
				c0.3,0.3,0.5,0.6,0.5,1c0,0.1,0,0.2,0,0.4C-4.8-5.4-4.9-5.4-5-5.3L-5-5.3z"/>
			<path id="Path_14" class="st11" d="M-4.8-4.3C-4.8-4.1-5-3.8-5.2-3.7c-0.4,0.4-0.9,0.5-1.5,0.5h-1.3c-0.1,0-0.2,0-0.3-0.1
				c-0.1-0.1-0.1-0.3-0.1-0.4v-0.6c-0.7-0.1-1.4-0.2-2.1-0.3v0.9c0,0.2-0.1,0.3-0.2,0.5c-0.1,0.1-0.2,0.1-0.4,0.1h-0.9v0.6h3.1v0.8
				h0.9v-0.8h1.1v0.8H-6v-0.8c0.6,0,1.2-0.1,1.8-0.3C-3.7-3-3.2-3.3-2.9-3.6C-2.6-4-2.4-4.4-2.4-4.8l-0.1,0C-3.2-4.6-4-4.4-4.8-4.3
				L-4.8-4.3z"/>
		</g>
		<g id="Group_4" transform="translate(11.725 .554)" class="st10">
			<path id="Path_15" class="st12" d="M-12.5-13.4c0.4,0.1,0.7,0.4,0.8,0.8c-0.2,0-0.3,0-0.5,0.1c0,0,0,0,0,0
				c-0.1,0-0.1,0.1-0.2,0.1c0-0.1,0-0.1,0-0.2C-12.2-12.8-12.3-13.2-12.5-13.4L-12.5-13.4z M-12.7-10.2c-0.6,0-1-0.7-1-1.6
				c0-0.3,0.1-0.6,0.2-0.9c0-0.1,0.1-0.2,0.2-0.3c0,0,0.1-0.1,0.1-0.1c0.4-0.4,0.7-0.2,0.7,0.3c0,0.1,0,0.1,0,0.2
				c-0.2,0.6-0.3,1.1-0.3,1.7C-13-10.6-12.9-10.4-12.7-10.2L-12.7-10.2z"/>
			<path id="Path_16" class="st12" d="M-11.5-12.5c0.4,0.1,0.7,0.5,0.8,0.9c0.1,0.2,0.1,0.4,0.1,0.7c0,0.4-0.1,0.8-0.3,1.2
				c-0.3,0.5-0.8,0.5-0.8-0.1c0-0.6,0.1-1.1,0.3-1.7C-11.2-11.9-11.3-12.2-11.5-12.5L-11.5-12.5z M-11.6-9.3c-0.6,0-1-0.7-1-1.6
				c0-0.3,0.1-0.6,0.2-0.9c0-0.1,0.1-0.2,0.2-0.3c0,0,0.1-0.1,0.1-0.1c0.4-0.4,0.7-0.2,0.7,0.3c0,0.1,0,0.1,0,0.2
				c-0.2,0.6-0.3,1.1-0.3,1.7C-11.9-9.7-11.8-9.4-11.6-9.3L-11.6-9.3z"/>
		</g>
	</g>
</g>
</svg>
