<svg xmlns="http://www.w3.org/2000/svg" width="1069.467" height="1178.33" viewBox="0 0 1069.467 1178.33">
    <defs>
        <style>
            .cls-1{fill:#f8d496;stroke:rgba(249,176,52,.32)}.cls-1,.cls-2{stroke-width:3px}.cls-2,.cls-3{fill:#a5622a}.cls-2{stroke:rgba(249,176,52,.33)}.cls-4{fill:#f9b034}.cls-5{fill:#703c16}.cls-6{opacity:.1}.cls-7{fill:#7d4516}.cls-8{fill:#a58a73}.cls-9{fill:#251918}.cls-10{fill:#371f18}.cls-11{fill:#f2f2f2}.cls-12{fill:#2d191a}.cls-13{fill:#fff}.cls-14{opacity:.2}.cls-15{fill:#1d1300}.cls-16{fill:#70783e}.cls-17{fill:#c3522a}.cls-18{fill:#a3320a}.cls-19{filter:url(#Path_37)}.cls-20{filter:url(#Path_178)}.cls-21{filter:url(#Path_32)}
        </style>
        <filter id="Path_32" width="1069.467" height="1178.33" x="0" y="0" filterUnits="userSpaceOnUse">
            <feOffset dx="-3" dy="3"/>
            <feGaussianBlur result="blur" stdDeviation="3"/>
            <feFlood flood-opacity=".224"/>
            <feComposite in2="blur" operator="in"/>
            <feComposite in="SourceGraphic"/>
        </filter>
        <filter id="Path_178" width="1009.568" height="659.97" x="26.637" y="353.116" filterUnits="userSpaceOnUse">
            <feOffset dy="3"/>
            <feGaussianBlur result="blur-2" stdDeviation="3"/>
            <feFlood flood-opacity=".396"/>
            <feComposite in2="blur-2" operator="in"/>
            <feComposite in="SourceGraphic"/>
        </filter>
        <filter id="Path_37" width="241.455" height="301.678" x="543.932" y="470.597" filterUnits="userSpaceOnUse">
            <feOffset dy="3"/>
            <feGaussianBlur result="blur-3" stdDeviation="8.5"/>
            <feFlood flood-opacity=".463"/>
            <feComposite in2="blur-3" operator="in"/>
            <feComposite in="SourceGraphic"/>
        </filter>
    </defs>
    <g id="Group_3210" data-name="Group 3210" transform="translate(-887.486 46.581)">
        <g class="cls-21" transform="translate(887.49 -46.58)">
            <path id="Path_32-2" d="M1231.749 110.074s24.777 102.732-66.959 297.113-277.111 252-324.861 474.148S944.061 1267.4 944.061 1267.4h935.032V110.074z" class="cls-1" data-name="Path 32" transform="translate(-817.13 -102.57)"/>
        </g>
        <g class="cls-20" transform="translate(887.49 -46.58)">
            <path id="Path_178-2" d="M3716.332 1141.282c-57.018-106.94-112.979-71.516-317.836 95.027s-293.314-94.648-481.486 74.393-207.666 422.953 109.258 353.366 397.854 154.2 600.3 0 146.782-415.846 89.764-522.786z" class="cls-2" data-name="Path 178" transform="translate(-2743.49 -719.94)"/>
        </g>
        <g id="Group_9" data-name="Group 9" transform="translate(1182.814 294.603)">
            <g class="cls-19" transform="translate(-295.33 -341.18)">
                <path id="Path_37-2" d="M665.282 274.837l-1.6 11.7-9.865 72.221-16.15 118.276-4.044 29.611a9.433 9.433 0 0 1-9.348 8.159H516.546a9.435 9.435 0 0 1-9.348-8.135l-4.114-29.635-16.428-118.271-10.039-72.273L475 274.861a9.432 9.432 0 0 1 9.342-10.735h171.592a9.438 9.438 0 0 1 9.348 10.712z" class="cls-3" data-name="Path 37" transform="translate(94.52 228.97)"/>
            </g>
            <path id="Rectangle_557" d="M0 0h131v8H0z" class="cls-4" data-name="Rectangle 557" transform="translate(306.186 347.397)"/>
            <rect id="Rectangle_2" width="168.279" height="31.335" class="cls-5" data-name="Rectangle 2" rx="15.667" transform="translate(285.468 120.579)"/>
            <path id="Path_38" d="M662.779 235.646v7.091a9.435 9.435 0 0 1-9.435 9.435H503.935a9.435 9.435 0 0 1-9.435-9.435v-7.074a886.083 886.083 0 0 0 168.279-.017z" class="cls-6" data-name="Path 38" transform="translate(-209.032 -100.258)"/>
            <path id="Path_39" d="M664.748 270.219l-.009-.021a9.432 9.432 0 0 0-.952-1.849 10.33 10.33 0 0 0-.485-.662 9.487 9.487 0 0 0-1.2-1.254 9.055 9.055 0 0 0-.646-.516 10.026 10.026 0 0 0-.823-.533q-.29-.168-.593-.316c-.1-.047-.194-.09-.292-.134q-.289-.128-.589-.237c-.08-.029-.159-.061-.241-.089q-.415-.138-.846-.238c-.07-.016-.143-.028-.214-.043q-.353-.073-.716-.119a9.436 9.436 0 0 0-1.204-.083H484.35a9.461 9.461 0 0 0-9.343 10.733l.273 1.962 1.341 9.669 10.038 72.273 13.177 94.869 7.366 53.036a9.435 9.435 0 0 0 9.345 8.137h5.112a9.421 9.421 0 0 1-.531-2.044l-4.962-35.726h121.5l16.155-118.272H499.74l-9.877-71.116a997.112 997.112 0 0 0 173.826-1.1l1.6-11.7a9.362 9.362 0 0 0-.541-4.627z" class="cls-6" data-name="Path 39" transform="translate(-200.814 -112.212)"/>
            <path id="Path_40" d="M662.657 268.46a998.651 998.651 0 0 1-216.722 0 9.435 9.435 0 0 1-9.435-9.435V246.56a9.435 9.435 0 0 1 9.435-9.435 887.966 887.966 0 0 0 216.722 0 9.435 9.435 0 0 1 9.435 9.435v12.466a9.435 9.435 0 0 1-9.435 9.434z" class="cls-7" data-name="Path 40" transform="translate(-184.688 -100.879)"/>
            <path id="Subtraction_5" d="M-2686.612-325.931h-145.06a5.474 5.474 0 0 1-3.552-1.31 5.477 5.477 0 0 1-1.851-3.3l-15.672-98.73a5.462 5.462 0 0 1 1.243-4.41 5.459 5.459 0 0 1 4.16-1.919h177.444a5.46 5.46 0 0 1 4.179 1.94 5.457 5.457 0 0 1 1.215 4.443l-16.717 98.731a5.456 5.456 0 0 1-5.389 4.555zm-88.044-21.01a.066.066 0 0 0-.072.073v.507a.066.066 0 0 0 .072.073h.323v2.682a.7.7 0 0 1-.363.634l-.152.105a.07.07 0 0 0-.026.1l.257.469a.07.07 0 0 0 .057.038.085.085 0 0 0 .049-.018l.165-.113a1.329 1.329 0 0 0 .744-1.213v-3.262a.066.066 0 0 0-.071-.073zm5.248 0a.068.068 0 0 0-.058.024.066.066 0 0 0 0 .062l.877 2.129a1.911 1.911 0 0 1 .126 1.483l-.349.83a.066.066 0 0 0 0 .062.067.067 0 0 0 .058.024h.606a.079.079 0 0 0 .08-.059l1.813-4.469a.067.067 0 0 0 0-.062.067.067 0 0 0-.058-.024h-.613a.1.1 0 0 0-.085.053l-.515 1.245a6.464 6.464 0 0 0-.282.956c-.009.034-.031.055-.057.055a.053.053 0 0 1-.049-.049 5.829 5.829 0 0 0-.271-.962l-.52-1.245a.1.1 0 0 0-.086-.053zm30.735 2.32a.423.423 0 0 0-.455.475.427.427 0 0 0 .455.474.43.43 0 0 0 .462-.474.431.431 0 0 0-.462-.474zm-9.1-1.062c-.75 0-1.2.38-1.2 1.016s.416 1 1.14 1a1.165 1.165 0 0 0 .9-.349c.044-.041.074-.059.1-.059s.047.022.067.071l.053.205a.082.082 0 0 0 .086.059h.33a.066.066 0 0 0 .072-.073v-1.931c0-.788-.537-1.259-1.437-1.259a2.48 2.48 0 0 0-.718.1l-.251.073a.077.077 0 0 0-.049.034.072.072 0 0 0 0 .058l.146.489a.067.067 0 0 0 .065.056.094.094 0 0 0 .026 0l.237-.073a1.806 1.806 0 0 1 .515-.066c.487 0 .744.214.744.62v.039zm-2.941-1.325a1.473 1.473 0 0 0-1.529 1.669 1.484 1.484 0 0 0 1.556 1.668 2.809 2.809 0 0 0 .671-.086l.3-.08a.069.069 0 0 0 .053-.092l-.132-.495a.068.068 0 0 0-.066-.056.1.1 0 0 0-.026 0l-.29.072a1.747 1.747 0 0 1-.521.068.7.7 0 0 1-.751-.568l1.035-.158c.652-.1.969-.391.969-.9 0-.649-.476-1.041-1.273-1.041zm-5.135 0c-.925 0-1.477.621-1.477 1.661s.531 1.675 1.384 1.675a1.2 1.2 0 0 0 .917-.409.122.122 0 0 1 .08-.049c.023 0 .041.017.052.049l.072.277a.07.07 0 0 0 .08.059h.329a.066.066 0 0 0 .073-.073v-4.582a.066.066 0 0 0-.073-.072h-.588a.066.066 0 0 0-.073.072v1.589l-.191-.086a1.306 1.306 0 0 0-.589-.11zm-7.364 1.325c-.751 0-1.2.38-1.2 1.016s.416 1 1.14 1a1.166 1.166 0 0 0 .9-.349c.043-.041.073-.059.1-.059s.047.022.068.071l.052.205a.083.083 0 0 0 .087.059h.329a.066.066 0 0 0 .073-.073v-1.931c0-.788-.537-1.259-1.437-1.259a2.45 2.45 0 0 0-.718.1l-.25.073a.077.077 0 0 0-.05.034.073.073 0 0 0 0 .058l.144.489a.069.069 0 0 0 .067.056.1.1 0 0 0 .027 0l.238-.073a1.79 1.79 0 0 1 .513-.066c.488 0 .745.214.745.62v.039zm-8.136-1.325a1.481 1.481 0 0 0-1.523 1.661 1.488 1.488 0 0 0 1.523 1.675 1.485 1.485 0 0 0 1.516-1.675 1.478 1.478 0 0 0-1.52-1.66zm-8.841 0a1.473 1.473 0 0 0-1.53 1.669 1.484 1.484 0 0 0 1.556 1.668 2.809 2.809 0 0 0 .671-.086l.3-.08a.077.077 0 0 0 .049-.033.076.076 0 0 0 0-.058l-.132-.495a.067.067 0 0 0-.066-.056.1.1 0 0 0-.027 0l-.291.072a1.732 1.732 0 0 1-.519.068.7.7 0 0 1-.752-.568l1.035-.158c.652-.1.969-.391.969-.9.005-.65-.473-1.042-1.267-1.042zm38.9.659c.353 0 .572.255.572.666v1.866a.066.066 0 0 0 .073.073h.587a.066.066 0 0 0 .072-.073v-1.944a1.127 1.127 0 0 0-1.206-1.246 1.184 1.184 0 0 0-.91.4c-.04.035-.066.05-.088.05s-.044-.018-.064-.058l-.059-.263a.07.07 0 0 0-.079-.066h-.33a.066.066 0 0 0-.071.073v3.051a.066.066 0 0 0 .071.073h.588a.067.067 0 0 0 .073-.073v-1.535c0-.63.281-.993.772-.993zm-4.029-.592a.066.066 0 0 0-.072.073v3.051a.066.066 0 0 0 .072.073h.588a.067.067 0 0 0 .073-.073v-.784c0-1.191.309-1.714 1.034-1.748a.067.067 0 0 0 .073-.073v-.513a.067.067 0 0 0-.073-.073 1.224 1.224 0 0 0-1.042.521c-.027.029-.048.042-.066.042s-.042-.019-.066-.062l-.1-.376a.082.082 0 0 0-.086-.058zm-14.009.592c.359 0 .573.249.573.666v1.866a.066.066 0 0 0 .072.073h.587a.066.066 0 0 0 .073-.073v-1.944a1.127 1.127 0 0 0-1.206-1.246 1.186 1.186 0 0 0-.911.4c-.039.035-.065.05-.088.05s-.044-.018-.064-.058l-.059-.263a.07.07 0 0 0-.079-.066h-.329a.066.066 0 0 0-.073.073v3.051a.066.066 0 0 0 .073.073h.586a.066.066 0 0 0 .073-.073v-1.535c0-.63.283-.993.773-.993zm-17.365 0c.354 0 .573.255.573.666v1.866a.066.066 0 0 0 .072.073h.587a.066.066 0 0 0 .072-.073v-1.944a1.127 1.127 0 0 0-1.205-1.246 1.186 1.186 0 0 0-.911.4c-.04.035-.066.05-.088.05s-.044-.018-.064-.058l-.059-.263a.07.07 0 0 0-.079-.066h-.33a.066.066 0 0 0-.073.073v3.051a.066.066 0 0 0 .073.073h.587a.066.066 0 0 0 .073-.073v-1.535c.001-.63.282-.993.772-.993zm37.677-2.011a.067.067 0 0 0-.073.073v1.582c0 .262.032.591.062.909v.006c.024.245.048.5.057.714a.066.066 0 0 0 .072.072h.389a.067.067 0 0 0 .073-.072c.011-.2.034-.439.057-.666.034-.339.068-.687.068-.963v-1.582a.066.066 0 0 0-.073-.073zm-35.026-.164a.4.4 0 0 0-.437.442.4.4 0 0 0 .437.447.4.4 0 0 0 .434-.447.4.4 0 0 0-.434-.44zm7.1-18.428a6.013 6.013 0 0 0-4.56 1.655 6.737 6.737 0 0 0-1.57 4.793 6.783 6.783 0 0 0 1.578 4.831 5.988 5.988 0 0 0 4.535 1.66 5.993 5.993 0 0 0 4.557-1.651 6.809 6.809 0 0 0 1.556-4.823 6.816 6.816 0 0 0-1.547-4.822 5.982 5.982 0 0 0-4.553-1.642zm-11.459.017a6.416 6.416 0 0 0-3.245.8 5.282 5.282 0 0 0-2.115 2.273 7.642 7.642 0 0 0-.735 3.43 6.837 6.837 0 0 0 1.518 4.772 5.653 5.653 0 0 0 4.363 1.651 8.739 8.739 0 0 0 3.559-.7v-2.871a16.258 16.258 0 0 1-1.573.559 5.668 5.668 0 0 1-1.615.231 2.446 2.446 0 0 1-2.069-.907 4.481 4.481 0 0 1-.69-2.72 4.816 4.816 0 0 1 .678-2.738 2.174 2.174 0 0 1 1.891-.994 4.908 4.908 0 0 1 1.5.223 11.862 11.862 0 0 1 1.392.551l1.04-2.674a9 9 0 0 0-3.898-.885zm60.977 3.9h.077l4.59 8.854h4.453v-12.569h-3.026v5.683c0 .763.041 1.79.121 3.052h-.052l-4.573-8.734h-4.436v12.569h3.009v-5.665c0-.734-.053-1.777-.163-3.188zm-12.509-3.714v12.569h7.463v-2.768h-4.066v-2.372h3.765v-2.725h-3.765v-1.977h4.066v-2.725zm-9.662 0v12.569h7.462v-2.768h-4.066v-2.372h3.765v-2.725h-3.765v-1.977h4.066v-2.725zm-9.491 0v12.569h3.345v-4.72h3.765v-2.725h-3.765v-2.4h4.083v-2.725zm-9.49 0v12.569h3.344v-4.72h3.766v-2.725h-3.766v-2.4h4.083v-2.725zm-36.777 0v2.777h3.069v9.792h3.4v-9.792h3.061v-2.777zm-5.21 0v12.569h3.413v-12.569zm-11.863 0v12.569h4.891a5.65 5.65 0 0 0 3.5-.985 3.223 3.223 0 0 0 1.286-2.695 3.129 3.129 0 0 0-.525-1.875 2.94 2.94 0 0 0-1.694-1.031v-.086a2.423 2.423 0 0 0 1.426-.962 3 3 0 0 0 .543-1.805 2.591 2.591 0 0 0-1.243-2.369 7.489 7.489 0 0 0-3.8-.76zm110.336-6.481v2.386h.794v-3.139h-1.274l-.489 1.911-.491-1.911h-1.275v3.139h.794v-2.394l.611 2.394h.719zm-6.112-.753v.775h.99v2.364h.969v-2.364h.989v-.775zm-52.998-46.787a23.182 23.182 0 0 0-23.156 23.156 23.182 23.182 0 0 0 23.156 23.156 23.182 23.182 0 0 0 23.156-23.156 23.018 23.018 0 0 0-1.258-7.528 23.1 23.1 0 0 0-3.49-6.5 6.968 6.968 0 0 1-.165 1.045 22.222 22.222 0 0 1 4.162 12.981 22.43 22.43 0 0 1-22.4 22.4 22.43 22.43 0 0 1-22.4-22.4 22.43 22.43 0 0 1 22.4-22.4 22.218 22.218 0 0 1 8.561 1.7 4.584 4.584 0 0 1 .47-.621 22.961 22.961 0 0 0-9.036-1.833zm0 1.458a21.723 21.723 0 0 0-21.7 21.7 21.723 21.723 0 0 0 21.7 21.7 21.723 21.723 0 0 0 21.7-21.7 21.561 21.561 0 0 0-3.717-12.131 5.14 5.14 0 0 1-.583 1.087 20.532 20.532 0 0 1 3.22 11.044A20.641 20.641 0 0 1-2761.2-377a20.641 20.641 0 0 1-20.618-20.618 20.641 20.641 0 0 1 20.618-20.618 20.436 20.436 0 0 1 7.886 1.571 6.02 6.02 0 0 1 .347-1.024 21.519 21.519 0 0 0-8.233-1.623zm-1.742 36.394h2.873v2.216h2.4v-2.229a15.561 15.561 0 0 0 4.968-.913 8.116 8.116 0 0 0 3.42-2.124 6.044 6.044 0 0 0 1.335-3.224h-.014l-.235.079a29.492 29.492 0 0 1-6.187 1.28 4.416 4.416 0 0 1-1.128 1.824 5.6 5.6 0 0 1-4.019 1.4h-3.484a1.088 1.088 0 0 1-.888-.4 1.8 1.8 0 0 1-.327-1.161v-1.622a37.824 37.824 0 0 1-5.752-.93v2.479a1.907 1.907 0 0 1-.436 1.252 1.2 1.2 0 0 1-.961.381h-2.468v1.688h8.5v2.216h2.4v-2.215zm-8.042-19.666c-.439.127-.862.259-1.257.392a14.259 14.259 0 0 0-4.885 2.562 4.508 4.508 0 0 0-1.684 3.3v.095a4.192 4.192 0 0 0 1.424 3.055 12.53 12.53 0 0 0 4.273 2.451 29.042 29.042 0 0 0 3.13.981 36.633 36.633 0 0 0 5.752.958c.3.027.628.053 1 .08 1.248.087 2.573.13 3.938.13a47.366 47.366 0 0 0 5.151-.27 28.067 28.067 0 0 0 5.628-1.2c.2-.066.4-.138.6-.212.352-.132.681-.27.977-.41a6.624 6.624 0 0 0 3.192-2.776l-2.292-.23a4.091 4.091 0 0 1-1.334 1.106 8.842 8.842 0 0 1-.91.428 5.493 5.493 0 0 0-.439-.9 6.075 6.075 0 0 0-1.12-1.353c-1.281-1.169-3.476-2.018-6.522-2.525a11.947 11.947 0 0 0 5.2-2.537 6.245 6.245 0 0 0 .613-.669l-.2-.068-.145-.05a20.089 20.089 0 0 0-4.69-.974 4.4 4.4 0 0 1-1.157 2.315c-.89.865-2.392 1.3-4.463 1.3h-3.03v-9a1.255 1.255 0 0 1 .463-1.123 4.775 4.775 0 0 1 2.186-.309c2.395 0 4.043.372 4.9 1.105a3.613 3.613 0 0 1 1.11 1.984 6.773 6.773 0 0 1 .151 1.018 47.67 47.67 0 0 0-3.711-.146c-1.4 0-2.777.052-4.1.154v1.788a26.722 26.722 0 0 1 3.347-.207c.286 0 .582.005.879.015a28.636 28.636 0 0 1 3.568.108 20.952 20.952 0 0 1 4.875 1.022c.223.077.434.148.573.194.317.107.645.219.951.337a4.977 4.977 0 0 1 1.447.8h3.328l-.039-.306-.414-3.888h-1.551l-1.913 1.473-.162-.045h-.007l-.122-.034c-.364-.1-.684-.185-.981-.259a6.126 6.126 0 0 0 .002-1.031 5.627 5.627 0 0 0-2.156-3.985 9.119 9.119 0 0 0-5.969-1.8h-.1v-2.786h-2.4v2.786h-2.873v-2.786h-2.4v2.786h-8.5v1.688h2.086a2.457 2.457 0 0 1 1.371.29.9.9 0 0 1 .408.762v14.175a7.2 7.2 0 0 1-1-.8 3.88 3.88 0 0 1-1.317-2.7v-.045-.047a3.754 3.754 0 0 1 1.319-2.723v-3.434zm23.68-13.838a1.561 1.561 0 0 0-1.05.575 3.116 3.116 0 0 0-.24.287 4.215 4.215 0 0 0-.446.756 6.047 6.047 0 0 0-.5 2.451 5.7 5.7 0 0 0 .829 3.068 2.565 2.565 0 0 0 2.007 1.317 2.145 2.145 0 0 1-.661-1.859 12.9 12.9 0 0 1 .487-3.134c.124-.506.251-1.029.351-1.593a3.732 3.732 0 0 0 .058-.523 1.536 1.536 0 0 0-.321-1.124.705.705 0 0 0-.51-.221zm1.018-.286a2.391 2.391 0 0 1 .459 2.38c-.088.423-.193.844-.295 1.252v.011a11.822 11.822 0 0 0-.506 3.369c.031.834.358 1.353.853 1.353.419 0 .875-.359 1.252-.985a5.957 5.957 0 0 0 .8-3.2 6.178 6.178 0 0 0-.31-1.8 3.244 3.244 0 0 0-2.247-2.379zm-3.834-2.276a1.553 1.553 0 0 0-1.05.565 2.948 2.948 0 0 0-.243.284 4.235 4.235 0 0 0-.455.753 6.073 6.073 0 0 0-.522 2.45 5.71 5.71 0 0 0 .8 3.081 2.57 2.57 0 0 0 2 1.34 2.151 2.151 0 0 1-.643-1.869 12.942 12.942 0 0 1 .52-3.13c.13-.511.264-1.036.369-1.6a3.8 3.8 0 0 0 .063-.523 1.534 1.534 0 0 0-.312-1.132.707.707 0 0 0-.529-.219zm1.03-.276a2.393 2.393 0 0 1 .435 2.389c-.034.158-.07.31-.114.49a2.887 2.887 0 0 1 .49-.4 1.019 1.019 0 0 1 .117-.07 1.788 1.788 0 0 1 .872-.244 1.4 1.4 0 0 1 .361.047 3.175 3.175 0 0 0-2.161-2.217zm1.335 74.943c-.309 0-.494-.155-.494-.416 0-.239.173-.376.474-.376h.823v.047c-.001.488-.279.745-.805.745zm-15.44 0c-.31 0-.495-.155-.495-.416 0-.239.173-.376.475-.376h.823v.047c-.002.488-.279.745-.808.745zm7.371-.019c-.488 0-.779-.378-.779-1.01a1.087 1.087 0 0 1 .26-.793.737.737 0 0 1 .539-.209 1.282 1.282 0 0 1 .54.113l.2.092v.837c-.004.599-.295.97-.762.97zm-15.527 0c-.5 0-.8-.378-.8-1.01s.3-1 .8-1 .791.384.791 1-.298 1.01-.793 1.01zm19.837-1.136c.051-.573.322-.875.785-.875.362 0 .562.143.562.4 0 .17-.12.276-.357.317l-.988.157zm-29.475 0c.049-.573.32-.875.783-.875.362 0 .562.143.562.4 0 .17-.12.276-.356.317l-.987.157zm-26.85-11.335h-1.194v-2.64h1.126a1.972 1.972 0 0 1 1.234.335 1.161 1.161 0 0 1 .426.964c-.003.891-.538 1.342-1.594 1.342zm40.878-.034c-1.683 0-2.536-1.227-2.536-3.646 0-2.441.859-3.679 2.553-3.679a2.165 2.165 0 0 1 1.887.9 4.91 4.91 0 0 1 .632 2.781 4.88 4.88 0 0 1-.623 2.76 2.192 2.192 0 0 1-1.915.885zm-41.05-5.09h-1.022v-2.252h.954c1.061 0 1.6.356 1.6 1.057a1.055 1.055 0 0 1-.4.894 1.858 1.858 0 0 1-1.134.301zm50.135-28.564c-.436 0-.873-.007-1.3-.021-.346.013-.684.02-1.006.02a26.326 26.326 0 0 1-3.046-.173 21.861 21.861 0 0 1-1-.14v-5.118h4.083a6.33 6.33 0 0 1 4.535 1.5 5.028 5.028 0 0 1 1.417 2.741 7.785 7.785 0 0 1 .123.994c-.348.04-.684.071-1 .1-.876.062-1.821.097-2.807.097z" class="cls-5" data-name="Subtraction 5" transform="translate(3127.903 686.453)"/>
            <path id="Path_44" d="M286.152 604.07v16.323l8.382 9.706s3.529-1.323 3.529-10.147l1.323-12.794z" class="cls-8" data-name="Path 44" transform="translate(-61.583 -522.896)"/>
            <path id="Path_45" d="M278.019 615.133s-13.676-9.265-14.118-12.353-19.853-17.206-16.765-8.382 12.794 12.794 12.794 12.794 7.5 20.294 14.118 19.853 6.618-8.824 3.971-11.912z" class="cls-8" data-name="Path 45" transform="translate(-45.068 -517.635)"/>
            <path id="Path_46" d="M207.634 771.64l1.324 7.941-7.059-1.765v-6.176z" class="cls-8" data-name="Path 46" transform="translate(33.258 -574.877)"/>
            <path id="Path_47" d="M300.18 808.547s-8.158-4.833-8.491-2.637-3.862 10.578-5.627 11.461-3.971 10.588 0 10.147c3.075-.342 14.355-6.241 19.285-8.884a2.694 2.694 0 0 0 1.158-3.52 5.562 5.562 0 0 1-.59-1.713c.001-.883-5.735-4.854-5.735-4.854z" class="cls-9" data-name="Path 47" transform="translate(-60.612 -607.373)"/>
            <path id="Path_48" d="M297.632 651.424s-32.206 15-29.118 26.471 14.559 60 14.559 60 12.794 3.088 13.676 0-8.382-51.176-7.5-52.941 17.206-13.235 17.206-13.235l33.53-14.119-14.118-13.235z" class="cls-10" data-name="Path 48" transform="translate(-54.092 -539.808)"/>
            <path id="Path_49" d="M171.657 776.2l-3.971 10.147 7.059 3.088 4.412-7.942z" class="cls-8" data-name="Path 49" transform="translate(47.618 -576.792)"/>
            <path id="Path_50" d="M317.532 522.4s3.971 5.294.882 7.941-.882 12.353-.882 12.353l3.971 11.029 15.882-3.088v-18.09l-.882-8.823s-7.941-7.5-8.823-13.235-10.148 11.913-10.148 11.913z" class="cls-8" data-name="Path 50" transform="translate(-74.434 -483.134)"/>
            <path id="Path_51" d="M317.532 522.4s3.971 5.294.882 7.941-.882 12.353-.882 12.353l3.971 11.029 15.882-3.088v-18.09l-.882-8.823s-7.941-7.5-8.823-13.235-10.148 11.913-10.148 11.913z" class="cls-6" data-name="Path 51" transform="translate(-74.434 -483.134)"/>
            <path id="Path_52" d="M325.089 650.448s-20.735 22.941-20.735 23.823-11.029 18.97-11.029 18.97l-21.619 48.089s8.382 11.471 11.912 10.588 28.676-52.059 28.676-52.059 4.412-11.47 16.324-14.117 21.176-11.912 16.765-22.5-20.294-12.794-20.294-12.794z" class="cls-10" data-name="Path 52" transform="translate(-55.52 -542.361)"/>
            <circle id="Ellipse_22" cx="14.118" cy="14.118" r="14.118" class="cls-8" data-name="Ellipse 22" transform="translate(228.981 14.116)"/>
            <path id="Path_53" d="M316.93 550.456s1.765 10.147 3.529 11.029 3.088 3.971 7.059-.441 7.5-13.235 7.5-13.235l13.676 16.765 1.324 46.323s-15.441-3.971-20.294 0-15.441 3.529-15.441 3.529l2.206-8.824-1.765-15 .441-13.676.441-9.706z" class="cls-11" data-name="Path 53" transform="translate(-73.39 -499.281)"/>
            <path id="Path_54" d="M308.591 539.574s-5.966 3.014-6.407 4.779-8.382 5.294-8.382 5.294-3.088 3.088-3.088 4.853 10.586 22.058 10.586 22.058 2.206 13.676 1.324 16.323 1.765 12.794 1.765 12.794l-5.294 6.176h4.853s5.294-2.647 5.294-3.971-.882-10.588-1.323-14.559-.441-18.088.441-22.941.441-17.647.441-20.735-.21-10.071-.21-10.071z" class="cls-7" data-name="Path 54" transform="translate(-63.498 -495.825)"/>
            <path id="Path_55" d="M339.818 528.029s1.985.448 7.721 2.213 14.559 4.412 17.647 7.941a54.678 54.678 0 0 1 5.735 8.383l-1.765 31.764s3.529 6.618 3.088 10.147-3.971 3.971-1.324 11.471 7.941 14.118 3.088 15-17.647-2.206-23.382-.441-12.353-6.618-12.353-6.618 8.824.882 7.5-2.647-15.882-43.235-12.794-52.059 6.839-25.154 6.839-25.154z" class="cls-7" data-name="Path 55" transform="translate(-81.058 -490.979)"/>
            <path id="Path_56" d="M289.5 561.494l-2.206 1.765s-6.176 22.059-4.412 24.265 15.882 7.059 16.765 3.971-10.147-30.001-10.147-30.001z" class="cls-7" data-name="Path 56" transform="translate(-60.077 -505.025)"/>
            <path id="Path_57" d="M397.783 588.1s6.618 18.971 6.618 24.265-.882 36.176-.882 36.176-.441 13.235-9.706 7.941 0-8.823 0-8.823-.441-34.853-3.971-39.706-4.853-11.912-4.853-11.912z" class="cls-8" data-name="Path 57" transform="translate(-103.068 -516.194)"/>
            <path id="Path_58" d="M271.126 823.2s-6.618-3.529-7.941-.882-8.382 17.206-7.5 18.971 5.735 8.823 11.471 7.059 6.176-11.029 6.176-11.029l.441-10.588z" class="cls-9" data-name="Path 58" transform="translate(-48.763 -614.088)"/>
            <path id="Path_59" d="M298.047 493.98c.972.458 2.126.731 2.737 1.616a13.61 13.61 0 0 1 .828 2.231 3.155 3.155 0 0 0 4.059 1.484 3.5 3.5 0 0 1 1.427-2.168 2.079 2.079 0 0 1 2.468.136c.909.867.587 2.379 1.012 3.561a7.514 7.514 0 0 0 1.617 2.217 22.815 22.815 0 0 0 2.9 3.327c1.163.906 2.926 1.3 4.082.383a3.486 3.486 0 0 0 .937-3.408c-.236-1.217-.821-2.338-1.151-3.533-1.072-3.883.637-8.029.108-12.022-.678-5.117-5.027-9.159-9.881-10.913a11.56 11.56 0 0 0-6.379-.676c-2.22.5-4.117 1.909-6.243 2.717-2.274.864-4.746 1.015-7.126 1.521s-4.828 1.483-6.209 3.485c-.963 1.4-1.294 3.132-2.092 4.629a8.3 8.3 0 0 1-4.206 3.768l2.515-.143a7.414 7.414 0 0 1-2 2.925 5.379 5.379 0 0 0 3.482-.46 3.785 3.785 0 0 1-1.3 2.714c1.936-.058 3.977-.148 5.612-1.184.8-.508 1.454-1.215 2.208-1.791a16.341 16.341 0 0 1 5.544-2.367c1.02-.293 2.249-.7 3.172-.044.764.546.885 1.527 1.879 1.995z" class="cls-10" data-name="Path 59" transform="translate(-57.713 -469.157)"/>
            <path id="Path_60" d="M381.207 550.85l6.618 5.294 8.823 20.294s-12.353 9.706-15.441 8.382-8.382-24.706-8.382-24.706z" class="cls-7" data-name="Path 60" transform="translate(-97.962 -500.558)"/>
            <path id="Path_61" d="M264.369 585.635l-.111.811-.683 5-1.119 8.195-.28 2.052a.654.654 0 0 1-.648.565h-7.464a.654.654 0 0 1-.648-.564l-.285-2.053-1.138-8.195-.7-5.008-.112-.806a.654.654 0 0 1 .647-.744h11.889a.654.654 0 0 1 .648.742z" class="cls-3" data-name="Path 61" transform="translate(-46.904 -514.846)"/>
            <rect id="Rectangle_3" width="11.66" height="2.171" class="cls-12" data-name="Rectangle 3" rx="1.086" transform="translate(205.063 67.875)"/>
            <path id="Path_62" d="M264.187 585.193a69.185 69.185 0 0 1-15.016 0 .654.654 0 0 1-.654-.654v-.864a.654.654 0 0 1 .654-.654 61.526 61.526 0 0 0 15.016 0 .654.654 0 0 1 .654.654v.864a.654.654 0 0 1-.654.654z" class="cls-7" data-name="Path 62" transform="translate(-45.787 -514.061)"/>
            <path id="Path_63" d="M262.813 604.305h-10.051a.379.379 0 0 1-.374-.32l-1.086-6.841a.379.379 0 0 1 .374-.438h12.295a.379.379 0 0 1 .374.442l-1.158 6.841a.379.379 0 0 1-.374.316z" class="cls-5" data-name="Path 63" transform="translate(-46.954 -519.805)"/>
        </g>
        <path id="Path_394" d="M38.376 3.12s6.656.416 26-.728c0 0 1.56-26.936 5.616-74.88 0 0-9.048 0-20.072-.52 0 0 .416 12.584 0 56.68-1.248-8.944-3.432-25.792-6.032-50.648 0 0-6.136-.52-16.328-.312 0 0-.936 4.888-6.24 42.848-.208-11.44-.52-27.976-.52-46.592 0 0-9.672.312-20.28.416 0 0 2.808 23.4 5.928 67.7 0 0 4.992-.312 23.816.728 0 0 1.144-9.984 4.992-38.48.936 10.612 1.976 25.276 3.12 43.788zm53.456-2.08c11.856 0 20.28-6.552 21.84-18.408-9.048-.312-18.72-.416-18.72-.416-.208 4.472-1.352 5.928-3.016 5.928-2.184 0-3.224-2.5-3.536-9.464 15.08-.208 24.96-.208 24.96-.208 1.248-17.68-3.64-31.2-21.632-31.2-16.12 0-22.256 11.96-22.256 26.52 0 15.08 4.784 27.248 22.36 27.248zm-.208-41.808c1.872 0 2.912 3.224 2.808 10.3-2.08.1-3.848.1-6.032.1.208-8.32 1.144-10.4 3.224-10.4zM135.2-1.872s-.416-17.056 0-68.12c0 0-6.344 0-18.408-.52 0 0 .416 20.8.1 68.328.008 0 6.348-.104 18.308.312zm25.376 3.12c11.856 0 21.84-5.72 21.424-23.92-14.664.52-18.72.312-18.72.312.416 7.176-.728 9.36-2.6 9.36-2.288 0-3.016-3.744-3.016-12.376 0-10.816.728-14.352 2.808-14.352s3.12 3.328 2.912 10.4c0 0 5.3-.1 18.512.416 1.144-12.48-6.032-23.92-20.592-23.92-15.184 0-22.984 9.88-22.984 26.832 0 17.16 6.552 27.248 22.256 27.248zm46.592-52.832c-13.1 0-22.568 9.048-22.568 26.416 0 15.184 7.592 26.416 22.256 26.416 14.56 0 22.568-11.232 22.568-25.584 0-18.824-8.84-27.248-22.256-27.248zm-.208 12.168c2.08 0 3.12 2.7 3.12 15.184 0 10.608-1.144 13.416-3.12 13.416s-3.016-3.12-3.016-14.144c0-12.168 1.248-14.456 3.016-14.456zm25.9 37.648c8.736-.1 18.512 0 18.512 0s-.416-16.848-.312-29.432c0-2.808.52-4.992 2.392-4.992 1.768 0 2.392 1.872 2.392 4.472.1 13-.312 29.328-.312 29.328 9.88-.1 18.72-.1 18.72-.1s-.208-15.184 0-29.328c0-2.7.624-4.68 2.392-4.68 1.56 0 2.08 1.456 2.08 4.16.208 15.288.312 34.008.312 34.008 12.064-.1 18.3 0 18.3 0s.1-21.216-.208-39.312c-.208-8.84-3.64-14.456-11.44-14.456a14.449 14.449 0 0 0-13.416 8.216c-1.352-4.68-4.784-8.632-11.232-8.632-6.24 0-11.024 3.848-13.728 8.944.1-4.472.208-8.008.208-8.008-8.528.1-14.976-.1-14.976-.1.312 29.008.312 49.912.312 49.912zm89.44 3.12c12.48 0 20.592-8.112 21.84-17.992-10.3-.312-18.616-1.144-18.616-1.144-.208 4.16-1.248 6.448-3.12 6.448-2.184 0-3.224-1.976-3.536-9.568 15.7-.312 24.96-.312 24.96-.312 1.352-19.24-4.784-30.16-21.632-30.16-15.6 0-22.256 11.232-22.256 25.9-.004 18.508 8.42 26.828 22.36 26.828zm-.208-41.392c2.08 0 2.912 2.184 2.808 9.88-2.184.1-4.16.208-6.032.208.204-8.528 1.14-10.088 3.22-10.088zM139.048 90.368h4.68c0 5.72 0 11.44.1 17.68.1 12.272 6.656 16.952 16.744 16.952a46.561 46.561 0 0 0 10.088-1.352s-.416-5.72-.936-16.64a17.448 17.448 0 0 1-3.016.312c-3.12 0-4.784-1.456-4.888-4.576-.1-3.848-.208-8.112-.208-12.376l8.008.1s-.1-2.392.1-15.6h-8c.1-8.112.208-14.144.208-14.144s-4.784.208-17.888 0c0 0-.1 5.512-.208 13.936-1.56 0-3.224 0-4.992-.1 0 0 .208 3.328.208 15.808zm55.224 35.464c13.936 0 22.36-7.176 22.36-26.832 0-16.224-6.448-26.832-22.048-26.832-14.56 0-22.36 9.672-22.36 26 0 16.532 5.408 27.664 22.048 27.664zm.208-11.856c-2.08 0-2.912-1.768-2.912-15.6 0-11.544.728-13.832 2.912-13.832 1.976 0 2.808 2.288 2.808 14.56 0 13.104-1.04 14.872-2.808 14.872zm43.68-22.568c3.12-.1 4.68 0 4.68 0 0 5.824 0 11.752.1 18.2.1 15.808 11.232 19.136 26.312 15.6 0 0-.416-4.992-.936-15.912-4.576.832-7.28-.832-7.384-4.264-.1-4.264-.208-8.944-.208-13.624l7.488.1s-.1-1.872.1-15.08h-7.488c.1-7.9.208-13.728.208-13.728s-4.784.208-17.888 0c0 0-.208 5.3-.208 13.52-1.56 0-3.224 0-4.992-.1.008 0 .216 2.808.216 15.288zm34.216 31.512c12.792-.208 18.512-.1 18.512-.1s-.1-15.08.1-30.576c0-2.7.728-3.432 2.288-3.432 1.456 0 2.184.832 2.184 3.432.208 16.432 0 34.528 0 34.528 12.064 0 18.408.208 18.408.208s.208-21.944-.312-38.584c-.312-9.568-4.16-16.12-11.648-16.12-5.616 0-9.464 2.808-12.064 7.176 0-14.248.416-24.752.416-24.752-12.376.208-17.68.1-17.68.1.42 38.168-.204 68.12-.204 68.12zm66.456 3.12c11.856 0 20.28-6.552 21.84-18.408-9.048-.312-18.72-.416-18.72-.416-.208 4.472-1.352 5.928-3.016 5.928-2.184 0-3.224-2.5-3.536-9.464 15.08-.208 24.96-.208 24.96-.208 1.248-17.68-3.64-31.2-21.632-31.2-16.12 0-22.256 11.96-22.256 26.52 0 15.08 4.784 27.248 22.36 27.248zm-.208-41.808c1.872 0 2.912 3.224 2.808 10.3-2.08.1-3.848.1-6.032.1.208-8.32 1.144-10.4 3.224-10.4zm64.168 42.328c10.608 0 19.76-4.576 19.76-16.328 0-7.7-4.264-12.376-15.912-15.912-4.992-1.56-7.072-3.536-7.072-6.032a2.8 2.8 0 0 1 2.912-3.016c2.5 0 3.224 2.808 3.016 7.072 9.36-.1 16.64.416 16.64.416.416-12.792-6.344-21.112-19.448-21.112-12.9 0-20.176 6.968-20.176 16.224 0 8.32 3.952 13.208 15.288 16.536 6.24 1.872 7.592 3.536 7.592 5.72 0 2.288-1.248 3.328-2.6 3.328-2.912 0-3.432-2.6-3.328-7.072-11.648-.728-17.472-.728-17.472-.728-.208 14.872 7.696 20.904 20.8 20.904zm49.708 21.216s2.5-14.144 16.536-75.3c0 0-11.96-.312-20.384-.832 0 0-.312 11.336-2.7 35.048 0 0-1.872-10.712-3.848-32.032 0 0-7.8.832-20.072.832 0 0 5.824 19.968 14.872 55.016 0 0-.728 4.888-2.5 15.08.004.004 3.436.312 18.096 2.188zm36.3-21.32c10.608 0 19.76-4.784 19.76-16.536 0-7.384-3.64-11.336-15.808-15.08-5.3-1.664-7.176-3.328-7.176-5.824a2.645 2.645 0 0 1 2.912-2.808c2.5 0 3.224 2.392 3.016 6.656 9.568-.624 16.64-.624 16.64-.624.416-10.816-5.824-19.656-19.448-19.656-12.9 0-20.176 6.864-20.176 16.12 0 8.632 4.784 12.792 15.184 15.7 5.928 1.664 7.7 3.224 7.7 5.616 0 2.288-1.248 3.328-2.6 3.328-2.912 0-3.432-2.392-3.328-6.864-10.92.416-17.472.312-17.472.312-.212 14.356 8.524 19.66 20.796 19.66zm21.008-36.088h4.68c0 5.72 0 11.44.1 17.68.112 12.272 6.66 16.952 16.748 16.952a46.561 46.561 0 0 0 10.088-1.352s-.416-5.72-.936-16.64a17.448 17.448 0 0 1-3.016.312c-3.12 0-4.784-1.456-4.888-4.576-.1-3.848-.208-8.112-.208-12.376l8.008.1s-.1-2.392.1-15.6h-8.004c.1-8.112.208-14.144.208-14.144s-4.784.208-17.888 0c0 0-.1 5.512-.208 13.936-1.56 0-3.224 0-4.992-.1 0 0 .208 3.328.208 15.808zm55.536 35.672c11.856 0 20.28-6.552 21.84-18.408-9.048-.312-18.72-.416-18.72-.416-.208 4.472-1.352 5.928-3.016 5.928-2.184 0-3.224-2.5-3.536-9.464 15.08-.208 24.96-.208 24.96-.208 1.248-17.68-3.64-31.2-21.632-31.2-16.12 0-22.256 11.96-22.256 26.52 0 15.08 4.784 27.248 22.36 27.248zm-.208-41.808c1.872 0 2.912 3.224 2.808 10.3-2.08.1-3.848.1-6.032.1.208-8.32 1.144-10.4 3.224-10.4zm25.48 39c8.736-.1 18.512 0 18.512 0s-.416-16.848-.312-29.432c0-2.808.52-4.992 2.392-4.992 1.768 0 2.392 1.872 2.392 4.472.1 13-.312 29.328-.312 29.328 9.88-.1 18.72-.1 18.72-.1s-.208-15.184 0-29.328c0-2.7.624-4.68 2.392-4.68 1.56 0 2.08 1.456 2.08 4.16.208 15.288.312 34.008.312 34.008 12.064-.1 18.3 0 18.3 0s.1-21.216-.208-39.312c-.208-8.84-3.64-14.456-11.44-14.456a14.449 14.449 0 0 0-13.416 8.216c-1.352-4.68-4.784-8.632-11.232-8.632-6.24 0-11.024 3.848-13.728 8.944.1-4.472.208-8.008.208-8.008-8.528.1-14.976-.1-14.976-.1.316 29.008.316 49.912.316 49.912z" class="cls-13" data-name="Path 394" transform="translate(1056 701)"/>
        <g id="Group_227" class="cls-14" data-name="Group 227" transform="rotate(153 826.606 648.684)">
            <g id="Group_175" data-name="Group 175" transform="translate(42.603)">
                <path id="Path_191" d="M46.732 0a1.422 1.422 0 0 0-.86.29 116.471 116.471 0 0 0-22.184 163.023 1.421 1.421 0 1 0 2.261-1.722A113.623 113.623 0 0 1 47.592 2.553 1.421 1.421 0 0 0 46.732 0z" class="cls-15" data-name="Path 191"/>
            </g>
            <g id="Group_178" data-name="Group 178" transform="translate(48.815 53.829)">
                <g id="Group_176" data-name="Group 176">
                    <path id="Path_192" d="M9.7 3.335L0 0l3.333 9.7a48.136 48.136 0 0 0 31.024 30.246l8.168 2.58-2.578-8.168A48.142 48.142 0 0 0 9.7 3.335z" class="cls-16" data-name="Path 192" transform="translate(1.422 1.419)"/>
                    <path id="Path_193" d="M1.419 0A1.42 1.42 0 0 0 .077 1.881l3.334 9.7A49.764 49.764 0 0 0 35.35 42.722l8.17 2.578a1.422 1.422 0 0 0 1.78-1.782l-2.58-8.168A49.758 49.758 0 0 0 11.581 3.41L1.883.077A1.415 1.415 0 0 0 1.419 0zM41.77 41.768l-5.563-1.756A46.909 46.909 0 0 1 6.1 10.657L3.71 3.71l6.948 2.39a46.9 46.9 0 0 1 29.354 30.106zM11.119 4.755z" class="cls-15" data-name="Path 193"/>
                </g>
                <g id="Group_177" data-name="Group 177" transform="translate(9.071 9.071)">
                    <path id="Path_194" d="M.946 0a.948.948 0 0 0-.669 1.618l24.3 24.3a.947.947 0 0 0 1.34-1.339L1.615.278A.942.942 0 0 0 .946 0z" class="cls-15" data-name="Path 194"/>
                </g>
            </g>
            <g id="Group_181" data-name="Group 181" transform="translate(59.735 157.046)">
                <g id="Group_179" data-name="Group 179">
                    <path id="Path_195" d="M7.221 5.506L3.379 0 1.4 6.416a31.517 31.517 0 0 0 4.732 27.97L9.459 38.9l1.787-5.315A31.518 31.518 0 0 0 7.221 5.506z" class="cls-16" data-name="Path 195" transform="translate(1.409 1.42)"/>
                    <path id="Path_196" d="M4.788 0a1.425 1.425 0 0 0-1.357 1L1.453 7.419A33.061 33.061 0 0 0 6.4 36.649l3.325 4.516a1.422 1.422 0 0 0 2.492-.39L14 35.461A33.065 33.065 0 0 0 9.8 6.115L5.954.609A1.424 1.424 0 0 0 4.788 0zm5.605 37.28l-1.706-2.317A30.215 30.215 0 0 1 4.168 8.256l1.12-3.635 2.177 3.12a30.209 30.209 0 0 1 3.843 26.814z" class="cls-15" data-name="Path 196"/>
                </g>
                <g id="Group_180" data-name="Group 180" transform="translate(6.164 15.341)">
                    <path id="Path_197" d="M.948 0A1.122 1.122 0 0 0 .8.01a.947.947 0 0 0-.788 1.083l2.38 15.228a.947.947 0 1 0 1.871-.293L1.883.8A.946.946 0 0 0 .948 0z" class="cls-15" data-name="Path 197"/>
                </g>
            </g>
            <g id="Group_184" data-name="Group 184" transform="translate(59.908 150.489)">
                <g id="Group_182" data-name="Group 182">
                    <path id="Path_198" d="M8.231.3L0 1.324l5.871 5.862a38.939 38.939 0 0 0 33.3 10.948l6.848-1.034-4.778-5.018A38.935 38.935 0 0 0 8.231.3z" class="cls-16" data-name="Path 198" transform="translate(1.422 1.418)"/>
                    <path id="Path_199" d="M14.413 0a39.861 39.861 0 0 0-4.934.307L1.246 1.332a1.42 1.42 0 0 0-.828 2.416L6.289 9.61A40.512 40.512 0 0 0 40.8 20.957l6.853-1.029a1.422 1.422 0 0 0 .818-2.386l-4.779-5.017A40.542 40.542 0 0 0 14.413 0zM4.485 3.792l5.343-.665a37.676 37.676 0 0 1 31.808 11.357l2.893 3.039-4.15.623A37.669 37.669 0 0 1 8.3 7.6z" class="cls-15" data-name="Path 199"/>
                </g>
                <g id="Group_183" data-name="Group 183" transform="translate(22.053 9.195)">
                    <path id="Path_200" d="M.947 0A.947.947 0 0 0 .64 1.844l14.021 4.807a.947.947 0 1 0 .613-1.793L1.254.051A.954.954 0 0 0 .947 0z" class="cls-15" data-name="Path 200"/>
                </g>
            </g>
            <g id="Group_187" data-name="Group 187" transform="translate(0 89.552)">
                <g id="Group_185" data-name="Group 185">
                    <path id="Path_201" d="M3.335 32.828L0 42.526l9.7-3.335A48.132 48.132 0 0 0 39.946 8.168L42.526 0l-8.169 2.579A48.13 48.13 0 0 0 3.335 32.828z" class="cls-16" data-name="Path 201" transform="translate(1.422 1.421)"/>
                    <path id="Path_202" d="M43.946 0a1.434 1.434 0 0 0-.429.067L35.35 2.645A49.753 49.753 0 0 0 3.413 33.787l-3.337 9.7a1.422 1.422 0 0 0 1.805 1.806l9.7-3.335a49.762 49.762 0 0 0 31.143-31.941L45.3 1.85A1.423 1.423 0 0 0 43.946 0zM3.71 41.657l2.39-6.946A46.9 46.9 0 0 1 36.208 5.356L41.769 3.6l-1.757 5.56a46.9 46.9 0 0 1-29.355 30.109z" class="cls-15" data-name="Path 202"/>
                </g>
                <g id="Group_186" data-name="Group 186" transform="translate(9.072 10.102)">
                    <path id="Path_203" d="M25.247 0a.951.951 0 0 0-.67.278l-24.3 24.3a.947.947 0 1 0 1.34 1.34l24.3-24.3A.947.947 0 0 0 25.247 0z" class="cls-15" data-name="Path 203"/>
                </g>
            </g>
            <g id="Group_189" data-name="Group 189" transform="translate(44.457 98.804)">
                <path id="Path_204" d="M13.813 6.9a6.908 6.908 0 1 0-6.9 6.9 6.937 6.937 0 0 0 6.9-6.9z" class="cls-17" data-name="Path 204" transform="translate(.948 .948)"/>
                <g id="Group_188" data-name="Group 188">
                    <path id="Path_205" d="M7.857 0a7.846 7.846 0 1 0 7.373 5.15A7.863 7.863 0 0 0 7.857 0zm0 13.806a5.98 5.98 0 0 1-4.909-2.573A5.9 5.9 0 0 1 1.893 7.85a5.96 5.96 0 1 1 5.964 5.956z" class="cls-15" data-name="Path 205"/>
                </g>
            </g>
            <g id="Group_191" data-name="Group 191" transform="translate(45.382 103.332)">
                <path id="Path_206" d="M18.461 8.64A9.232 9.232 0 0 0 12.467 0 6.908 6.908 0 0 1 .3 6.3 9.427 9.427 0 0 0 0 8.64a9.23 9.23 0 1 0 18.461 0z" class="cls-18" data-name="Path 206" transform="translate(.949 .946)"/>
                <g id="Group_190" data-name="Group 190">
                    <path id="Path_207" d="M13.416 0a.946.946 0 0 0-.889 1.271 5.961 5.961 0 0 1-10.5 5.434.947.947 0 0 0-1.695.306A10.318 10.318 0 0 0 0 9.588 10.179 10.179 0 1 0 13.75.061.953.953 0 0 0 13.416 0zM6.933 11.173a7.858 7.858 0 0 0 7.85-7.85c0-.212-.009-.422-.026-.634A8.284 8.284 0 1 1 1.9 9.588v-.239a7.861 7.861 0 0 0 5.033 1.824z" class="cls-15" data-name="Path 207"/>
                </g>
            </g>
            <g id="Group_193" data-name="Group 193" transform="translate(32.624 113.052)">
                <ellipse id="Ellipse_84" cx="6.38" cy="6.38" class="cls-17" data-name="Ellipse 84" rx="6.38" ry="6.38" transform="translate(.948 .947)"/>
                <g id="Group_192" data-name="Group 192">
                    <path id="Path_208" d="M7.328 0a7.327 7.327 0 1 0 7.325 7.326A7.336 7.336 0 0 0 7.328 0zm0 12.759a5.432 5.432 0 1 1 5.431-5.433 5.44 5.44 0 0 1-5.431 5.433z" class="cls-15" data-name="Path 208"/>
                </g>
            </g>
            <g id="Group_195" data-name="Group 195" transform="translate(29.711 75.051)">
                <path id="Path_209" d="M0 6.812a6.811 6.811 0 1 1 6.81 6.81A6.811 6.811 0 0 1 0 6.812z" class="cls-17" data-name="Path 209" transform="translate(.948 .945)"/>
                <g id="Group_194" data-name="Group 194">
                    <path id="Path_210" d="M7.759 0a7.758 7.758 0 1 0 7.757 7.756A7.766 7.766 0 0 0 7.759 0zm0 13.62a5.863 5.863 0 1 1 5.863-5.864 5.872 5.872 0 0 1-5.863 5.864z" class="cls-15" data-name="Path 210"/>
                </g>
            </g>
            <g id="Group_197" data-name="Group 197" transform="translate(53.668 39.844)">
                <path id="Path_211" d="M0 6.81a6.811 6.811 0 1 1 6.81 6.811A6.809 6.809 0 0 1 0 6.81z" class="cls-17" data-name="Path 211" transform="translate(.947 .947)"/>
                <g id="Group_196" data-name="Group 196">
                    <path id="Path_212" d="M7.757 0a7.758 7.758 0 1 0 7.758 7.758A7.766 7.766 0 0 0 7.757 0zm0 13.622a5.864 5.864 0 1 1 5.864-5.864 5.871 5.871 0 0 1-5.864 5.864z" class="cls-15" data-name="Path 212"/>
                </g>
            </g>
            <g id="Group_199" data-name="Group 199" transform="translate(52.157 152.813)">
                <ellipse id="Ellipse_85" cx="4.783" cy="4.783" class="cls-17" data-name="Ellipse 85" rx="4.783" ry="4.783" transform="translate(.947 .946)"/>
                <g id="Group_198" data-name="Group 198">
                    <path id="Path_213" d="M5.729 0a5.73 5.73 0 1 0 5.731 5.729A5.737 5.737 0 0 0 5.729 0zm0 9.565a3.835 3.835 0 1 1 3.837-3.836 3.838 3.838 0 0 1-3.837 3.836z" class="cls-15" data-name="Path 213"/>
                </g>
            </g>
            <g id="Group_201" data-name="Group 201" transform="translate(58.271 141.691)">
                <ellipse id="Ellipse_86" cx="4.783" cy="4.783" class="cls-17" data-name="Ellipse 86" rx="4.783" ry="4.783" transform="translate(.948 .947)"/>
                <g id="Group_200" data-name="Group 200">
                    <path id="Path_214" d="M5.731 0a5.731 5.731 0 1 0 5.729 5.73A5.737 5.737 0 0 0 5.731 0zm0 9.567A3.837 3.837 0 1 1 9.566 5.73a3.839 3.839 0 0 1-3.835 3.837z" class="cls-15" data-name="Path 214"/>
                </g>
            </g>
        </g>
    </g>
</svg>
