<svg xmlns="http://www.w3.org/2000/svg" width="819" height="978" viewBox="0 0 819 978">
    <defs>
        <style>
            .cls-1{fill:#f9b034;opacity:.997}.cls-2{clip-path:url(#clip-path)}.cls-3{fill:#ffbf53}
        </style>
        <clipPath id="clip-path">
            <path id="Path_5819" d="M33.608 0H819s-71.468 246.935-71.468 491.435S819 978 819 978H32.608C10.733 978 0 962.121 0 945V32C0 14.879 11.733 0 33.608 0z" class="cls-1" data-name="Path 5819" transform="translate(25 102)"/>
        </clipPath>
    </defs>
    <g id="Group_3593" data-name="Group 3593" transform="translate(-25 -102)">
        <path id="Path_4461" d="M33.608 0H819s-71.468 246.935-71.468 491.435S819 978 819 978H32.608C10.733 978 0 962.121 0 945V32C0 14.879 11.733 0 33.608 0z" class="cls-1" data-name="Path 4461" transform="translate(25 102)"/>
        <g id="Mask_Group_19" class="cls-2" data-name="Mask Group 19">
            <g id="Group_3530" data-name="Group 3530" transform="translate(599 877.99)">
                <path id="Path_5151" d="M941.47 1636.513l-.825-.943c-2.578-2.944-5.441-4.339-8.637-4.325-5.268.022-9.324 4.091-9.493 4.265l-.986 1 1 1.02c.453.455 4.577 4.421 9.863 4.244a11.352 11.352 0 0 0 8.251-4.32zm-9.171 2.4a10.814 10.814 0 0 1-6.558-2.4 11.025 11.025 0 0 1 6.278-2.405 3.249 3.249 0 1 1 .28 4.807z" class="cls-3" data-name="Path 5151" transform="translate(-845.309 -1430.466)"/>
                <path id="Path_5152" d="M874.336 1691.137l-7.646-8.585a96.714 96.714 0 0 0-3.848-4.083c-22.307-22.307-39.4-14.871-42.436-11.835l-.38.38-.947 14.215 2.63-2.4c14.506-13.245 42.825 5.671 43.111 5.863zm-38.259-25.007a29.405 29.405 0 0 1 5.836 1.461l-.139 4.282a37.8 37.8 0 0 0-5.753-.638zm8.663 2.614a42.337 42.337 0 0 1 4.424 2.363l.319 2.826a56.082 56.082 0 0 0-4.864-1.448zm-11.523-2.839l-.06 5.374a25.382 25.382 0 0 0-3.236.435l-1.58-5.387a22.047 22.047 0 0 1 4.876-.421zm-10.415 2.5a14.991 14.991 0 0 1 2.78-1.313l1.568 5.338a20.27 20.27 0 0 0-4.766 2.257zm29.689 6.656l-.213-1.894a63.178 63.178 0 0 1 5.012 4 79.813 79.813 0 0 0-4.798-2.104z" class="cls-3" data-name="Path 5152" transform="translate(-815.559 -1439.679)"/>
                <path id="Path_5153" d="M861.291 1653.291c5.97-.817 9.306-3.849 9.812-4.556l.1-.138-.975-9.821-.69.88c-10.629 13.54-37.419 1.456-37.688 1.333l-3.287-1.509 2.817 2.267c13.72 11.047 23.84 12.376 29.911 11.544zm-.123-.89c-.212.029-.439.049-.66.072l-.93-5.982a21.044 21.044 0 0 0 3.887-1.174l2.754 5.689a19.1 19.1 0 0 1-5.05 1.394zm8.38-11.36l.723 7.294a11.526 11.526 0 0 1-3.244 2.276l-2.743-5.665a16.516 16.516 0 0 0 5.264-3.905zm-18.163 5.927l.652 4.865a36.651 36.651 0 0 1-5.559-1.826l-1.089-3.828a47.711 47.711 0 0 0 5.996.789zm-6.989-.99l1.017 3.568a58.226 58.226 0 0 1-10.843-6.47 68.414 68.414 0 0 0 9.83 2.903zm8.573 6.053l-.671-5.016a31.405 31.405 0 0 0 6.4-.353l.914 5.885a25.377 25.377 0 0 1-6.642-.516z" class="cls-3" data-name="Path 5153" transform="translate(-818.313 -1432.652)"/>
                <path id="Path_5154" d="M866.1 1582.878l7.663-8.6-9.535 6.465c-.285.192-28.591 19.12-43.111 5.863l-2.631-2.4.949 14.214.38.38c.832.831 5.469 3.889 12.983 3.672 7.419-.219 19.221-3.791 33.302-19.594zm-14.411 9.373l.211-1.884c1.7-.68 3.313-1.392 4.786-2.1a62.99 62.99 0 0 1-5.001 3.983zm-16.259 1.942a38.13 38.13 0 0 0 5.754-.638l.139 4.313a29.316 29.316 0 0 1-5.836 1.491zm8.6-1.248c1.662-.412 3.291-.9 4.863-1.447l-.317 2.821a42.845 42.845 0 0 1-4.426 2.381zm-11.462 1.206l.06 5.446a21.579 21.579 0 0 1-4.9-.425l1.6-5.458a25.655 25.655 0 0 0 3.234.437zm-10.773-3.413a20.359 20.359 0 0 0 4.767 2.26l-1.586 5.4a13.642 13.642 0 0 1-2.76-1.338z" class="cls-3" data-name="Path 5154" transform="translate(-815.386 -1413.922)"/>
                <path id="Path_5155" d="M867.716 1629.9a15.282 15.282 0 0 1 1.227 1.383l.691.879.974-9.82-.1-.138a3.409 3.409 0 0 0-.349-.4c-.55-.55-13.764-13.231-39.374 7.386l-2.816 2.265 3.286-1.506c.251-.111 25.157-11.349 36.461-.049zm-8.733-5.447l.93-5.988a19.111 19.111 0 0 1 5.7 1.489l-2.753 5.684a21.215 21.215 0 0 0-3.877-1.183zm10.695-1.846l-.724 7.293c-.2-.218-.4-.431-.6-.636a16.625 16.625 0 0 0-4.667-3.263l2.744-5.664a12.706 12.706 0 0 1 3.093 2.106c.06.063.111.118.154.166zm-18.232-3.518l-.656 4.894a47.6 47.6 0 0 0-6 .785l1.1-3.867a35.838 35.838 0 0 1 5.556-1.81zm-6.622 2.284l-1.024 3.593a68.469 68.469 0 0 0-9.83 2.9 58.433 58.433 0 0 1 10.854-6.491zm6.878 2.559l.679-5.058a25.194 25.194 0 0 1 6.636-.491l-.917 5.908a31.388 31.388 0 0 0-6.4-.357z" class="cls-3" data-name="Path 5155" transform="translate(-818.141 -1426.46)"/>
                <path id="Path_5156" d="M1108.884 1804.273c.015-3.2-1.379-6.064-4.328-8.639l-.943-.824-.941.826a11.363 11.363 0 0 0-4.321 8.25c-.175 5.286 3.791 9.41 4.245 9.862l1.02 1 1-.985c.178-.163 4.244-4.224 4.268-9.49zm-7.67-.293a8.057 8.057 0 0 1 2.4-5.284 7.981 7.981 0 0 1 2.406 5.546 11.055 11.055 0 0 1-2.408 6.292 10.828 10.828 0 0 1-2.398-6.553z" class="cls-3" data-name="Path 5156" transform="translate(-896.655 -1477.963)"/>
                <path id="Path_5157" d="M1054.449 1858.987a98.077 98.077 0 0 0-4.086-3.849l-8.583-7.644 6.447 9.516c.192.285 19.106 28.6 5.863 43.11l-2.4 2.63 14.213-.947.382-.382c3.033-3.033 10.469-20.127-11.836-42.434zm10.874 20.929a29.348 29.348 0 0 1 1.463 5.834l-5.106.057a37.648 37.648 0 0 0-.638-5.754zm-4.89-2.707a55.371 55.371 0 0 0-1.449-4.863l2.824.318a42.237 42.237 0 0 1 2.362 4.425zm6.577 11.4a22.043 22.043 0 0 1-.421 4.874l-5.387-1.58a25.943 25.943 0 0 0 .436-3.236zm-7.264-19.063l-1.894-.214c-.681-1.7-1.4-3.321-2.11-4.8a62.649 62.649 0 0 1 4.004 5.018zm-1.521 29.894a20.3 20.3 0 0 0 2.259-4.766l5.336 1.569a15.046 15.046 0 0 1-1.313 2.779z" class="cls-3" data-name="Path 5157" transform="translate(-880.228 -1493.261)"/>
                <path id="Path_5158" d="M1098.762 1857.456l.879-.692-9.82-.974-.138.1c-.705.506-3.741 3.842-4.558 9.813-.83 6.071.5 16.186 11.545 29.911l2.266 2.817-1.508-3.285c-.122-.272-12.206-27.063 1.334-37.69zm-6.525 24.146l-3.825-1.089a36.472 36.472 0 0 1-1.829-5.559l4.865.652a47.817 47.817 0 0 0 .79 5.994zm-2.156-24.882l7.295.724a16.491 16.491 0 0 0-3.9 5.263l-5.666-2.743a11.537 11.537 0 0 1 2.272-3.244zm-2.669 4.052l5.686 2.753a21.061 21.061 0 0 0-1.173 3.886l-5.982-.928c.023-.223.045-.449.072-.662a18.988 18.988 0 0 1 1.398-5.049zm-1.543 6.609l5.886.914a31.172 31.172 0 0 0-.353 6.4l-5.017-.673a25.444 25.444 0 0 1-.515-6.641zm3 14.2l3.569 1.018a68.313 68.313 0 0 0 2.9 9.825 58.2 58.2 0 0 1-6.467-10.847z" class="cls-3" data-name="Path 5158" transform="translate(-892.757 -1495.67)"/>
                <path id="Path_5159" d="M1080.023 1655.793a136.447 136.447 0 0 0-20.411-35.029 96.407 96.407 0 0 0 32.081 6.165l1.407-.012.011-1.405a96.426 96.426 0 0 0-5.805-31.12 137.551 137.551 0 0 0 34.3 19.816c22.524 9.165 59.114 17.435 105.519 4.779l-.755-2.762c-87.206 23.783-140.491-26.8-141.019-27.313l-.2.2a70.322 70.322 0 0 0-7.557-13 58.153 58.153 0 0 0 25.957 5.988c.191 0 .379-.013.571-.015-.212 3.927 2.582 7.478 4.633 9.532.351.348.673.651.961.906a6.659 6.659 0 0 0 9.539 8.92c3.161 1.7 14.192 7.241 22.206 6.544a6.649 6.649 0 0 0 13.089 1.55 28.369 28.369 0 0 0 15.358.877 6.65 6.65 0 0 0 12.849.929 32.146 32.146 0 0 0 22.655-1.739 6.588 6.588 0 0 0 .749.918 6.71 6.71 0 1 0-1.843-3.566c-9.242 4.577-18.488 2.335-21.243 1.481a6.611 6.611 0 0 0-1.883-3.986 6.688 6.688 0 0 0-9.448 0 6.6 6.6 0 0 0-1.682 2.94c-6.626 1.973-13.244-.06-15.385-.85a6.647 6.647 0 0 0-12.6-1.512c-6.66 1.146-17.119-3.846-20.868-5.793a6.661 6.661 0 0 0-9.512-8.789c-1.635-1.465-5.063-4.994-4.695-8.468a70.825 70.825 0 0 0 20.775-4.608 42.465 42.465 0 0 0 7.9 11.047 31.614 31.614 0 0 0 18.325 9.353c9.036 1.193 16.825-2.189 20.838-9.049a16.527 16.527 0 0 0-.944-18.535c-3.784-5.048-9.829-6.984-16.17-5.187-6.734 1.91-11.826 7.535-12.385 13.676a11.53 11.53 0 0 0 8.1 12.493 10.142 10.142 0 0 0 12.132-4.936c2.85-5.29 1.1-9.241-1.5-11.167-2.843-2.116-6.741-2.1-8.872.03l2.024 2.022c1.113-1.112 3.466-1 5.14.246 2.155 1.6 2.4 4.337.688 7.513a7.283 7.283 0 0 1-8.789 3.551 8.625 8.625 0 0 1-6.072-9.492c.453-4.989 4.7-9.588 10.315-11.182 2.475-.7 8.7-1.714 13.1 4.148a13.7 13.7 0 0 1 .765 15.372c-3.41 5.833-10.137 8.693-17.989 7.657-14.488-1.913-22.053-14.923-23.928-18.627a100.82 100.82 0 0 0 30.224-20.033l.935-1.07-1-1a103.545 103.545 0 0 0-30.434-19.988c2.1-4.05 9.621-16.467 23.783-18.338 7.854-1.035 14.582 1.828 17.992 7.658a13.7 13.7 0 0 1-.766 15.373c-4.388 5.854-10.621 4.851-13.095 4.149-5.62-1.594-9.861-6.193-10.316-11.18a8.628 8.628 0 0 1 6.072-9.492 7.28 7.28 0 0 1 8.788 3.553c1.711 3.175 1.46 5.914-.689 7.513-1.673 1.244-4.025 1.355-5.137.243l-2.023 2.026c2.131 2.13 6.026 2.143 8.868.028 2.595-1.931 4.349-5.875 1.5-11.169a10.141 10.141 0 0 0-12.132-4.935 11.53 11.53 0 0 0-8.1 12.493c.558 6.143 5.649 11.766 12.384 13.677 6.338 1.8 12.383-.14 16.169-5.186a16.522 16.522 0 0 0 .944-18.534c-4.008-6.858-11.8-10.243-20.836-9.052-15.937 2.105-23.966 15.863-26.086 20.111a70.224 70.224 0 0 0-20.95-4.6c-.178-3.414 3.125-6.775 4.723-8.194a6.66 6.66 0 0 0 9.515-8.785c3.747-1.949 14.2-6.943 20.867-5.795a6.619 6.619 0 0 0 1.319 1.929 6.677 6.677 0 0 0 11.277-3.438c2.144-.792 8.758-2.823 15.386-.851a6.616 6.616 0 0 0 1.681 2.94 6.69 6.69 0 0 0 9.449 0 6.6 6.6 0 0 0 1.883-3.994c2.749-.857 11.969-3.111 21.245 1.485a6.914 6.914 0 1 0 1.093-2.649 32.127 32.127 0 0 0-22.652-1.737 6.6 6.6 0 0 0-1.568-2.555 6.674 6.674 0 0 0-11.282 3.483 28.4 28.4 0 0 0-15.359.878 6.606 6.606 0 0 0-1.7-3.011 6.662 6.662 0 0 0-11.384 4.561c-8.015-.7-19.048 4.846-22.207 6.545a6.658 6.658 0 0 0-9.538 8.919c-1.933 1.729-5.683 5.684-5.594 10.177-.8-.007-1.592-.009-2.4.019a58.62 58.62 0 0 0-26.165 7.2 67.878 67.878 0 0 0 9.146-14.449l.645.66c.526-.514 53.738-51.115 141.019-27.312l.753-2.762c-46.4-12.656-82.994-4.387-105.518 4.778a136.3 136.3 0 0 0-35.053 20.431 98.967 98.967 0 0 0 6.976-33.7l-.011-1.406-1.406-.014a99.054 99.054 0 0 0-32.563 6.52 137.765 137.765 0 0 0 19.711-34.174c9.166-22.525 17.435-59.115 4.778-105.518l-2.76.753c23.781 87.207-26.8 140.491-27.315 141.021l.234.226a68.661 68.661 0 0 0-13.325 8.22 58.4 58.4 0 0 0 6.505-24.824c.027-.8.023-1.6.018-2.4 4.494.089 8.448-3.66 10.177-5.593a6.659 6.659 0 0 0 8.921-9.539c1.7-3.16 7.24-14.192 6.544-22.206a6.649 6.649 0 0 0 1.549-13.089 28.4 28.4 0 0 0 .878-15.359 6.673 6.673 0 0 0 3.482-11.281 6.566 6.566 0 0 0-2.555-1.568 32.128 32.128 0 0 0-1.738-22.653 6.683 6.683 0 1 0-2.649 1.094c4.578 9.242 2.336 18.488 1.482 21.244a6.6 6.6 0 0 0-3.988 1.884 6.687 6.687 0 0 0 0 9.448 6.608 6.608 0 0 0 2.942 1.682c1.969 6.627-.06 13.241-.851 15.386a6.621 6.621 0 0 0-3.439 1.829 6.624 6.624 0 0 0 1.928 10.765c1.147 6.66-3.847 17.119-5.795 20.869a6.661 6.661 0 0 0-8.788 9.511c-1.426 1.59-4.8 4.887-8.188 4.723a70.149 70.149 0 0 0-4.6-20.944c4.246-2.12 18.007-10.149 20.111-26.088 1.194-9.035-2.189-16.824-9.05-20.836a16.522 16.522 0 0 0-18.536.945c-5.045 3.784-6.984 9.83-5.185 16.169 1.911 6.732 7.535 11.824 13.676 12.383a11.528 11.528 0 0 0 12.493-8.1 10.146 10.146 0 0 0-4.936-12.134c-5.292-2.848-9.237-1.093-11.167 1.5-2.117 2.844-2.1 6.74.028 8.872l2.025-2.025c-1.112-1.111-1-3.466.244-5.138 1.6-2.148 4.336-2.4 7.513-.687a7.28 7.28 0 0 1 3.552 8.788 8.627 8.627 0 0 1-9.493 6.072c-4.987-.454-9.587-4.695-11.181-10.315-.7-2.474-1.7-8.706 4.15-13.1a13.7 13.7 0 0 1 15.373-.764c5.829 3.409 8.7 10.136 7.658 17.989-1.867 14.13-14.29 21.675-18.342 23.781a103.693 103.693 0 0 0-20.052-30.5l-1-.987-1 .987a100.794 100.794 0 0 0-20.031 30.225c-3.7-1.866-16.711-9.4-18.629-23.93-1.037-7.855 1.825-14.579 7.657-17.991a13.707 13.707 0 0 1 15.373.764c5.854 4.39 4.852 10.622 4.149 13.1-1.594 5.619-6.192 9.86-11.182 10.315a8.625 8.625 0 0 1-9.492-6.073 7.281 7.281 0 0 1 3.553-8.788c3.175-1.709 5.916-1.47 7.513.688 1.244 1.673 1.356 4.027.244 5.139l2.024 2.024c2.131-2.131 2.144-6.029.029-8.871-1.931-2.6-5.876-4.349-11.169-1.5a10.143 10.143 0 0 0-4.935 12.133 11.528 11.528 0 0 0 12.493 8.1c6.142-.558 11.767-5.651 13.677-12.384 1.8-6.34-.138-12.382-5.186-16.169a16.522 16.522 0 0 0-18.535-.945c-6.861 4.013-10.244 11.8-9.051 20.838a31.6 31.6 0 0 0 9.354 18.324 42.415 42.415 0 0 0 11.05 7.906 70.718 70.718 0 0 0-4.608 20.777c-3.512.385-7.019-3.05-8.475-4.694a6.659 6.659 0 0 0-8.784-9.514c-1.949-3.748-6.943-14.2-5.8-20.869a6.618 6.618 0 0 0 1.93-1.319 6.677 6.677 0 0 0-3.443-11.278c-.793-2.137-2.828-8.734-.848-15.384a6.638 6.638 0 0 0-1.05-13.013c-.859-2.748-3.112-11.969 1.484-21.242a6.958 6.958 0 1 0-2.648-1.095 32.134 32.134 0 0 0-1.737 22.653 6.6 6.6 0 0 0-2.555 1.567 6.673 6.673 0 0 0 3.482 11.282 28.391 28.391 0 0 0 .879 15.36 6.583 6.583 0 0 0-3.012 1.7 6.664 6.664 0 0 0 4.561 11.385c-.695 8.016 4.847 19.045 6.545 22.207a6.659 6.659 0 0 0 8.919 9.539c.257.286.558.61.907.958 2.053 2.054 5.609 4.848 9.536 4.635 0 .19-.015.377-.017.566a58.119 58.119 0 0 0 5.7 25.36 68.63 68.63 0 0 0-13.431-8.162c-6.792-7.721-48.408-59.294-26.4-140.009l-2.762-.754c-12.655 46.4-4.387 82.994 4.779 105.519a139.474 139.474 0 0 0 18.652 32.835 96.347 96.347 0 0 0-31.592-5.975l-1.406.011-.012 1.407a96.461 96.461 0 0 0 6.345 32.539 138.558 138.558 0 0 0-33.573-19.232c-22.524-9.165-59.115-17.432-105.518-4.779l.754 2.762c85.708-23.376 138.646 25.081 140.942 27.24a67.516 67.516 0 0 0 8.292 13.1 58.223 58.223 0 0 0-26.424-6.208c-.191 0-.38.013-.571.016.249-4.6-3.617-8.679-5.589-10.442a6.658 6.658 0 0 0-9.537-8.92c-3.161-1.7-14.192-7.239-22.208-6.544a6.649 6.649 0 0 0-13.087-1.55 28.4 28.4 0 0 0-15.36-.877 6.649 6.649 0 0 0-12.848-.929 32.144 32.144 0 0 0-22.654 1.739 6.551 6.551 0 0 0-.749-.918 6.712 6.712 0 1 0 1.844 3.567c9.242-4.579 18.488-2.335 21.242-1.482a6.607 6.607 0 0 0 1.883 3.987 6.687 6.687 0 0 0 9.448 0 6.6 6.6 0 0 0 1.682-2.941c6.626-1.972 13.242.061 15.386.85a6.644 6.644 0 0 0 12.595 1.51c6.66-1.145 17.119 3.848 20.868 5.8a6.661 6.661 0 0 0 9.51 8.789c1.635 1.466 5.067 4.995 4.7 8.469a70.813 70.813 0 0 0-20.775 4.607c-1.881-3.864-9.909-18.247-26.232-20.4-9.035-1.193-16.825 2.188-20.836 9.05a16.525 16.525 0 0 0 .944 18.537 15.779 15.779 0 0 0 1.448 1.672 14.6 14.6 0 0 0 14.722 3.514c6.734-1.911 11.827-7.535 12.384-13.675a11.53 11.53 0 0 0-8.1-12.495 10.145 10.145 0 0 0-12.134 4.935c-2.851 5.293-1.1 9.241 1.5 11.169 2.843 2.116 6.74 2.1 8.871-.029L884 1532.5c-1.112 1.113-3.465 1-5.138-.243-2.15-1.6-2.4-4.337-.687-7.513a7.28 7.28 0 0 1 8.787-3.553 8.627 8.627 0 0 1 6.073 9.492c-.454 4.99-4.694 9.588-10.314 11.183-2.476.7-8.7 1.7-13.1-4.151a13.7 13.7 0 0 1-.764-15.372c3.41-5.833 10.135-8.7 17.99-7.658 14.488 1.913 22.052 14.928 23.928 18.629a100.8 100.8 0 0 0-30.226 20.032l-.985 1 1.053 1.07a103.588 103.588 0 0 0 30.433 19.989c-2.1 4.049-9.62 16.467-23.782 18.338-7.853 1.035-14.579-1.824-17.99-7.658a13.705 13.705 0 0 1 .764-15.373c4.391-5.853 10.623-4.852 13.1-4.149 5.62 1.6 9.861 6.192 10.314 11.181a8.623 8.623 0 0 1-6.072 9.492 7.275 7.275 0 0 1-8.788-3.551c-1.71-3.177-1.46-5.915.687-7.513 1.673-1.245 4.027-1.356 5.138-.244l2.024-2.025c-2.131-2.13-6.027-2.145-8.871-.027-2.594 1.927-4.349 5.875-1.5 11.167a10.149 10.149 0 0 0 12.134 4.934 11.527 11.527 0 0 0 8.1-12.492c-.556-6.146-5.651-11.767-12.384-13.677-6.34-1.8-12.384.14-16.17 5.187a16.522 16.522 0 0 0-.945 18.535 18.237 18.237 0 0 0 2.844 3.694c4.337 4.336 10.768 6.308 17.993 5.356 15.936-2.105 23.967-15.862 26.087-20.11a70.229 70.229 0 0 0 20.948 4.595c.178 3.415-3.125 6.777-4.721 8.194a6.66 6.66 0 0 0-9.515 8.784c-3.747 1.949-14.2 6.944-20.87 5.8a6.606 6.606 0 0 0-1.318-1.929 6.676 6.676 0 0 0-11.276 3.44c-2.144.791-8.759 2.821-15.386.85a6.621 6.621 0 0 0-1.681-2.941 6.69 6.69 0 0 0-9.448 0 6.621 6.621 0 0 0-1.884 3.991c-2.748.859-11.97 3.114-21.243-1.484a6.947 6.947 0 1 0-1.093 2.648 32.138 32.138 0 0 0 22.652 1.738 6.609 6.609 0 0 0 1.568 2.553 6.672 6.672 0 0 0 11.281-3.48 28.407 28.407 0 0 0 15.36-.879 6.592 6.592 0 0 0 1.7 3.012 6.664 6.664 0 0 0 11.393-4.562c8.015.7 19.046-4.846 22.207-6.544a6.659 6.659 0 0 0 9.537-8.921c1.934-1.727 5.682-5.681 5.594-10.177.8.008 1.593.011 2.4-.017a58.381 58.381 0 0 0 24.531-6.359A67.56 67.56 0 0 0 956.03 1588c-4.243 3.905-56.689 49.971-140.736 27.048l-.753 2.761c46.4 12.657 82.994 4.387 105.519-4.778a138.955 138.955 0 0 0 33.33-19.038 99.018 99.018 0 0 0-6.629 32.841l.012 1.407 1.406.012a98.967 98.967 0 0 0 33.962-7.083 137.725 137.725 0 0 0-19.738 34.2c-9.165 22.526-17.435 59.119-4.779 105.521l2.762-.752c-23.783-87.208 26.8-140.493 27.313-141.02l-.327-.32a66.716 66.716 0 0 0 13.951-9.181 58.565 58.565 0 0 0-7.036 25.876c-.027.8-.025 1.6-.02 2.4-4.492-.091-8.448 3.66-10.176 5.592a6.659 6.659 0 0 0-8.921 9.538c-1.7 3.162-7.24 14.193-6.543 22.207a6.649 6.649 0 0 0-1.551 13.088 28.4 28.4 0 0 0-.878 15.36 6.65 6.65 0 0 0-.927 12.849 32.132 32.132 0 0 0 1.738 22.651 6.892 6.892 0 0 0-.919.751 6.717 6.717 0 1 0 3.568-1.842c-4.579-9.244-2.337-18.489-1.483-21.245a6.605 6.605 0 0 0 3.991-1.883 6.688 6.688 0 0 0 0-9.447 6.6 6.6 0 0 0-2.941-1.682c-1.971-6.628.06-13.243.852-15.386a6.675 6.675 0 0 0 3.438-11.276 6.55 6.55 0 0 0-1.929-1.317c-1.145-6.66 3.848-17.12 5.795-20.87a6.661 6.661 0 0 0 8.789-9.51c1.426-1.591 4.807-4.887 8.19-4.722a70.192 70.192 0 0 0 4.6 20.945c-4.248 2.118-18.006 10.148-20.111 26.087-.954 7.227 1.019 13.654 5.356 17.993a18.3 18.3 0 0 0 3.695 2.844 16.525 16.525 0 0 0 18.535-.947c5.046-3.784 6.985-9.829 5.186-16.169-1.91-6.734-7.537-11.826-13.677-12.384a11.53 11.53 0 0 0-12.492 8.1 10.144 10.144 0 0 0 4.935 12.135c5.293 2.85 9.239 1.094 11.168-1.5 2.115-2.844 2.1-6.739-.029-8.872L999.5 1691c1.112 1.112 1 3.465-.243 5.137-1.6 2.149-4.339 2.4-7.515.688a7.282 7.282 0 0 1-3.551-8.789 8.621 8.621 0 0 1 9.491-6.072c4.989.452 9.587 4.695 11.182 10.315.7 2.474 1.7 8.705-4.15 13.095a13.7 13.7 0 0 1-15.372.765c-5.832-3.41-8.694-10.135-7.657-17.989 1.865-14.13 14.287-21.674 18.339-23.779a103.572 103.572 0 0 0 19.986 30.429l1.071 1.053 1-.984a100.819 100.819 0 0 0 20.033-30.227c3.7 1.866 16.71 9.4 18.628 23.929 1.036 7.856-1.824 14.58-7.658 17.992a13.7 13.7 0 0 1-15.371-.763c-5.85-4.391-4.853-10.623-4.15-13.1 1.595-5.62 6.191-9.861 11.182-10.315a8.625 8.625 0 0 1 9.491 6.073 7.28 7.28 0 0 1-3.551 8.787c-3.176 1.711-5.911 1.464-7.513-.686-1.246-1.673-1.358-4.028-.244-5.138l-2.025-2.026c-2.13 2.133-2.145 6.028-.028 8.872 1.926 2.593 5.876 4.349 11.168 1.5a10.147 10.147 0 0 0 4.936-12.134 11.533 11.533 0 0 0-12.493-8.1c-6.143.556-11.767 5.648-13.677 12.382a14.593 14.593 0 0 0 3.513 14.722 15.645 15.645 0 0 0 1.673 1.447 16.524 16.524 0 0 0 18.535.946c6.86-4.014 10.244-11.8 9.05-20.836-2.155-16.325-16.537-24.352-20.4-26.233a70.777 70.777 0 0 0 4.608-20.775c3.51-.385 7.019 3.051 8.475 4.693a6.661 6.661 0 0 0 8.784 9.515c1.95 3.747 6.945 14.2 5.795 20.867a6.577 6.577 0 0 0-1.929 1.319 6.677 6.677 0 0 0 3.442 11.277c.794 2.137 2.829 8.735.849 15.384a6.617 6.617 0 0 0-2.941 1.683 6.687 6.687 0 0 0 0 9.448 6.6 6.6 0 0 0 3.99 1.882c.86 2.749 3.113 11.968-1.484 21.243a6.985 6.985 0 1 0 2.648 1.095 32.139 32.139 0 0 0 1.74-22.652 6.661 6.661 0 0 0-.929-12.85 28.4 28.4 0 0 0-.877-15.36 6.586 6.586 0 0 0 3.012-1.7 6.664 6.664 0 0 0-4.562-11.385c.7-8.015-4.847-19.046-6.545-22.206a6.659 6.659 0 0 0-8.92-9.538c-1.764-1.97-5.839-5.838-10.442-5.589 0-.191.016-.382.017-.571a58.315 58.315 0 0 0-6.474-26.978 69.563 69.563 0 0 0 13.868 8.21l-.576.561c.514.526 51.118 53.738 27.314 141.019l2.761.754c12.653-46.398 4.385-82.989-4.781-105.514zm133.567-52.7a3.818 3.818 0 1 1-5.4 0 3.823 3.823 0 0 1 5.4.007zm-34.417 3.374a3.818 3.818 0 1 1-5.4 0 3.823 3.823 0 0 1 5.4.003zm-28.344-1.349a3.817 3.817 0 1 1-5.4 0 3.823 3.823 0 0 1 5.4.002zm-32.73-11.809a3.817 3.817 0 1 1-5.4 0 3.82 3.82 0 0 1 5.401.002zm95.069-91.012a3.818 3.818 0 1 1-5.4 0 3.822 3.822 0 0 1 5.4.003zm-34.417-3.373a3.819 3.819 0 1 1-5.4 0 3.822 3.822 0 0 1 5.4.002zm-28.343 1.348a3.819 3.819 0 1 1-5.4 0 3.826 3.826 0 0 1 5.4.002zm-38.13 11.813a3.818 3.818 0 1 1 0 5.4 3.822 3.822 0 0 1 0-5.398zm-44.545-144.426a3.817 3.817 0 1 1 5.4 0 3.821 3.821 0 0 1-5.4.002zm3.373 29.018a3.817 3.817 0 1 1 0 5.4 3.822 3.822 0 0 1 0-5.398zm-1.351 28.344a3.818 3.818 0 1 1 0 5.4 3.826 3.826 0 0 1 0-5.398zm-11.809 32.732a3.817 3.817 0 1 1 0 5.4 3.819 3.819 0 0 1 0-5.398zm-91.011-95.914a3.818 3.818 0 1 1 0 5.4 3.822 3.822 0 0 1 0-5.399zm-3.372 39.815a3.817 3.817 0 1 1 5.4 0 3.82 3.82 0 0 1-5.401.001zm1.348 28.346a3.818 3.818 0 1 1 5.4 0 3.822 3.822 0 0 1-5.4 0zm11.81 32.73a3.818 3.818 0 1 1 5.4 0 3.821 3.821 0 0 1-5.399 0zm-149.066 43.789a3.818 3.818 0 1 1 5.4 0 3.824 3.824 0 0 1-5.399 0zm34.416-3.375a3.818 3.818 0 1 1 5.4 0 3.822 3.822 0 0 1-5.399 0zm28.346 1.35a3.817 3.817 0 1 1 5.4 0 3.821 3.821 0 0 1-5.399.001zm32.729 11.81a3.817 3.817 0 1 1 5.4 0 3.824 3.824 0 0 1-5.398-.004zm-95.07 91.011a3.818 3.818 0 1 1 5.4 0 3.822 3.822 0 0 1-5.398.001zm34.418 3.374a3.817 3.817 0 1 1 5.4 0 3.824 3.824 0 0 1-5.394.001zm28.344-1.351a3.818 3.818 0 1 1 5.4 0 3.821 3.821 0 0 1-5.398.001zm38.128-11.809a3.818 3.818 0 1 1 0-5.4 3.821 3.821 0 0 1 .002 5.4zm44.546 144.426a3.817 3.817 0 1 1-5.4 0 3.82 3.82 0 0 1 5.402 0zm-3.372-29.02a3.817 3.817 0 1 1 0-5.4 3.82 3.82 0 0 1 .002 5.4zm1.348-28.345a3.818 3.818 0 1 1 0-5.4 3.821 3.821 0 0 1 .002 5.4zm11.809-32.729a3.817 3.817 0 1 1 0-5.4 3.819 3.819 0 0 1 .003 5.4zm91.013 95.914a3.819 3.819 0 1 1 0-5.4 3.825 3.825 0 0 1 .003 5.4zm3.373-39.816a3.818 3.818 0 1 1-5.4 0 3.825 3.825 0 0 1 5.402 0zm-1.352-28.344a3.817 3.817 0 1 1-5.4 0 3.818 3.818 0 0 1 5.402 0zm-11.809-32.73a3.817 3.817 0 1 1-5.4 0 3.82 3.82 0 0 1 5.402-.001zm-58.239 24.049a84.63 84.63 0 0 1-5.867-13.645c11.566-2.222 15.61-13.16 17.025-20.49a221.123 221.123 0 0 0 2.2 6.273v1.064c-.112 4.402-1.408 19.478-13.356 26.798zm-74.947-115.148c.434.006.8.007 1.021 0 .768.283 3.036 1.112 6.272 2.2-7.327 1.414-18.266 5.458-20.488 17.025a84.873 84.873 0 0 1-13.646-5.867c7.334-11.958 22.494-13.244 26.843-13.358zm103.624-117.1a84.776 84.776 0 0 1 5.867 13.646c-11.567 2.221-15.609 13.16-17.025 20.488a229.239 229.239 0 0 0-2.2-6.273c.006-.243.008-.617 0-1.111.125-4.468 1.455-19.461 13.36-26.754zm75 115.147a24.743 24.743 0 0 0-1.07 0 227.37 227.37 0 0 0-6.272-2.2c7.328-1.413 18.267-5.458 20.488-17.024a84.263 84.263 0 0 1 13.644 5.869c-7.306 11.907-22.38 13.222-26.792 13.35zm-8.32 25.362c-8.641-1.573-14.608-4.6-17.244-8.755a9.13 9.13 0 0 1-1.49-5.768c4.681-1.138 9.228-2.442 13.2-3.664 2.5.042 21.626.871 24.237 15.764a62.606 62.606 0 0 1-16.814 2.465c-.637 0-1.263-.028-1.891-.046zm-65.533 22.835a75.509 75.509 0 0 0-2.524-3.36v-.009l-.111-.134a85.871 85.871 0 0 0-2.339-2.786 56.033 56.033 0 0 1-8.353-20.26 21.323 21.323 0 0 0 7.675-2.859c18.52 25.765 46.65 38.3 46.65 38.3s-12.68-28.439-38.735-46.956a21.171 21.171 0 0 0 2.148-7.591 57.308 57.308 0 0 1 18.807 6.929q.525.492 1.052.968c.15.137.3.267.451.4q1.443 1.292 2.908 2.487c.1.08.2.175.3.255l.438.353h.01a75.576 75.576 0 0 0 5.963 4.313c17.428 18.081 19.523 45.4 19.77 51.957-6.647-.246-34.582-2.364-52.669-20.455-.502-.503-.963-1.036-1.443-1.557zm-15.025 36.545c-2.679-7.74-8.523-25.815-9.565-38.972.229-.28.463-.556.7-.833.438-.518.873-1.038 1.33-1.553.29-.326.6-.65.891-.974.49-.537.975-1.073 1.484-1.6.322-.334.663-.664.992-1 .5-.507 1-1.016 1.52-1.519.647-.623 1.319-1.241 1.994-1.857.222-.2.431-.407.656-.609.137.123.263.249.4.37q1.173 1.063 2.291 2.137c.52.5 1.015 1.009 1.516 1.515.34.344.688.685 1.019 1.032a88.051 88.051 0 0 1 1.569 1.692c.271.3.545.595.81.894.612.912 1.257 1.8 1.923 2.675-1.124 13.115-6.877 30.927-9.531 38.597zm-35.3-84.22c-.2.224-.407.435-.61.657a102.07 102.07 0 0 1-1.856 1.992c-.5.522-1.012 1.018-1.52 1.521-.333.33-.663.669-1 .991-.53.511-1.067 1-1.6 1.484-.325.3-.648.6-.975.892-.516.458-1.037.892-1.555 1.33l-.831.7c-13.154-1.042-31.233-6.887-38.972-9.566 7.741-2.678 25.817-8.52 38.972-9.562l.37.3q.9.744 1.786 1.527l.717.636q.9.812 1.789 1.659c.252.241.505.481.756.728.46.448.917.908 1.372 1.371a102.945 102.945 0 0 1 3.1 3.275zm-1.31-62.276l.223-.216a62.072 62.072 0 0 1 17.736 12.17c.362.362.688.75 1.037 1.12q1.918 2.941 4.2 5.8v.013l.353.437c.09.11.192.22.283.33q.936 1.148 1.929 2.279a57.175 57.175 0 0 1 7.19 19.272 21.113 21.113 0 0 0-7.591 2.146c-18.517-26.055-46.959-38.736-46.959-38.736s12.54 28.13 38.3 46.651a21.359 21.359 0 0 0-2.859 7.678 54.273 54.273 0 0 1-28.1-14.768c-18.069-18.069-20.2-46.023-20.45-52.671a96.029 96.029 0 0 1 34.171 7.927c.291.312.479.507.535.563zm35.695-21.029c2.679 7.739 8.525 25.813 9.566 38.97a48.21 48.21 0 0 1-.7.832c-.44.521-.873 1.04-1.331 1.556-.289.326-.594.649-.891.974-.489.535-.974 1.07-1.484 1.6-.322.336-.663.667-.992 1-.5.508-1 1.019-1.52 1.521-.647.622-1.319 1.241-1.993 1.855-.222.2-.432.409-.657.61-.111-.1-.211-.2-.323-.3a101.092 101.092 0 0 1-2.39-2.23c-.432-.42-.843-.844-1.264-1.264-.438-.44-.878-.876-1.3-1.318-.447-.467-.877-.94-1.309-1.412-.333-.365-.668-.729-.991-1.095-.609-1-1.252-1.977-1.922-2.932 1.165-13.108 6.863-30.747 9.499-38.371zm-20.164 83.2l.829.147.138-1.559a18.386 18.386 0 0 1 18.153-16.776l1.663-.017-.006-.053.182.017a18.383 18.383 0 0 1 16.775 18.151v.513a18.4 18.4 0 0 1-16.777 18.151l-.675.06-1.266-.011a18.4 18.4 0 0 1-18.153-16.778l-.14-1.559-.727.131.001-.422zm61.043 6.714c-.643-.6-1.292-1.2-1.922-1.832a100.754 100.754 0 0 1-3.657-3.863c.2-.223.41-.433.611-.656.616-.676 1.234-1.346 1.856-1.993.5-.521 1.012-1.017 1.521-1.52.331-.33.661-.669 1-.991.53-.51 1.065-.994 1.6-1.484.326-.3.649-.6.975-.891.515-.459 1.037-.895 1.556-1.332.276-.233.553-.468.83-.7 13.155 1.042 31.232 6.887 38.972 9.566-7.524 2.6-24.8 8.183-37.844 9.451a55.112 55.112 0 0 0-5.5-3.759zm41.578-2.059c3.235-1.087 5.5-1.912 6.266-2.2.237 0 .595.006 1.066 0 4.406.125 19.48 1.438 26.791 13.344a84.974 84.974 0 0 1-13.641 5.874c-2.227-11.563-13.157-15.607-20.484-17.023zm-6.531-9.377c-3.964-1.221-8.509-2.524-13.187-3.663a9.133 9.133 0 0 1 1.49-5.769c2.641-4.163 8.616-7.191 17.276-8.761a62.226 62.226 0 0 1 18.667 2.436c-2.62 14.892-21.779 15.712-24.248 15.753zm-14.168-10.88a12.2 12.2 0 0 0-1.912 6.542c-3.84-.865-7.7-1.585-11.336-2.029a62.256 62.256 0 0 1 17.885-9.253 16.469 16.469 0 0 0-4.638 4.735zM1056 1550.517c-.223.231-.452.45-.676.685-.012.015-.026.027-.039.041q-1.414 1.491-2.8 3.078l-.825.944.825.941c.268.307.543.6.813.9a61.88 61.88 0 0 0-8.343-2.7 59.849 59.849 0 0 0 11.045-3.889zm-39.2-29.761c.366.339.746.673 1.118 1.01.438.4.867.8 1.314 1.189l.941.825.945-.825c.932-.818 1.833-1.642 2.716-2.47a61.185 61.185 0 0 0-3.71 11.647 63.006 63.006 0 0 0-3.334-11.376zm13.455-25.338a12.2 12.2 0 0 0 6.541-1.91 16.494 16.494 0 0 0 4.739-4.64 62.119 62.119 0 0 1-9.251 17.886c-.452-3.634-1.174-7.495-2.039-11.335zm13.855-21.657c-1.569 8.66-4.6 14.634-8.761 17.275a9.136 9.136 0 0 1-5.769 1.49c-1.139-4.678-2.442-9.224-3.664-13.186.042-2.469.862-21.629 15.759-24.247a62.084 62.084 0 0 1 2.425 18.668zm-25.374-7.219c-.283.768-1.11 3.033-2.2 6.268-1.416-7.327-5.459-18.258-17.016-20.482a84.921 84.921 0 0 1 5.872-13.642c11.9 7.306 13.22 22.379 13.342 26.788-.015.474-.013.832-.008 1.068zm-4.3 12.788c-1.222 3.966-2.524 8.511-3.662 13.19a9.217 9.217 0 0 1-5.7-1.44c-4.191-2.618-7.234-8.58-8.816-17.25-.019-.643-.05-1.283-.048-1.93a62.662 62.662 0 0 1 2.464-16.809c14.88 2.609 15.71 21.744 15.753 24.239zm-13.542 12.049a15.085 15.085 0 0 0 2.662 2.13 12.2 12.2 0 0 0 6.54 1.908c-.81 3.611-1.493 7.235-1.941 10.675q-1.2-1.469-2.512-2.86a60.281 60.281 0 0 1-6.838-14.407 18.753 18.753 0 0 0 2.08 2.555zm-39.651 52.892a12.2 12.2 0 0 0-1.909-6.538 16.457 16.457 0 0 0-4.639-4.742 62.248 62.248 0 0 1 17.873 9.254c-3.642.444-7.498 1.163-11.334 2.026zm-21.612-13.844c8.635 1.573 14.6 4.6 17.231 8.753a9.129 9.129 0 0 1 1.489 5.768c-4.68 1.138-9.229 2.441-13.193 3.665-2.5-.043-21.63-.875-24.24-15.765a62.7 62.7 0 0 1 16.809-2.463c.627-.003 1.261.023 1.895.042zm-16.386 12.94c4.425 4.427 10.659 6.431 15.392 7.345a218.553 218.553 0 0 0-6.27 2.2c-.238 0-.6-.008-1.077 0-4.422-.124-19.472-1.446-26.778-13.343a84.914 84.914 0 0 1 13.643-5.874 18.249 18.249 0 0 0 5.081 9.672zm21.919 16.724c3.963 1.223 8.51 2.526 13.187 3.662a9.136 9.136 0 0 1-1.489 5.771c-2.642 4.163-8.617 7.191-17.276 8.761a62.154 62.154 0 0 1-18.668-2.435c2.609-14.897 21.769-15.718 24.236-15.759zm14.17 10.88a12.213 12.213 0 0 0 1.91-6.54c3.84.864 7.7 1.583 11.336 2.027a62.194 62.194 0 0 1-17.886 9.253 16.482 16.482 0 0 0 4.631-4.74zm26.1-12.045c.167-.175.338-.338.506-.515l.039-.039q1.414-1.495 2.8-3.08l.825-.944-.825-.943c-.384-.438-.779-.852-1.166-1.28-.615-.679-1.228-1.364-1.849-2.016a62.766 62.766 0 0 0 13.24 3.948c-.005.263-.006.529 0 .794a62.028 62.028 0 0 0-13.584 4.075zm38.36 29.336a63.329 63.329 0 0 0-.382-.35c-.46-.416-.9-.841-1.374-1.252l-.943-.825-.943.825q-1.589 1.39-3.08 2.807c-.014.011-.026.026-.04.039-.557.528-1.087 1.064-1.625 1.6a61.19 61.19 0 0 0 4.674-14.626 62.013 62.013 0 0 0 3.699 11.782zM1011 1614.2a12.182 12.182 0 0 0-6.541 1.909 16.446 16.446 0 0 0-4.738 4.638 62.173 62.173 0 0 1 9.25-17.885c.444 3.638 1.165 7.493 2.029 11.338zm-13.854 21.656c1.57-8.66 4.6-14.634 8.762-17.275a9.113 9.113 0 0 1 5.768-1.488c1.14 4.678 2.443 9.221 3.665 13.184-.042 2.469-.862 21.63-15.759 24.246a62.147 62.147 0 0 1-2.436-18.669zm25.374 7.219c.283-.766 1.109-3.035 2.2-6.271.913 4.734 2.918 10.966 7.344 15.393a18.27 18.27 0 0 0 9.671 5.09 84.852 84.852 0 0 1-5.873 13.643c-11.9-7.3-13.219-22.368-13.343-26.784.009-.478.006-.837.002-1.073zm4.3-12.79c1.222-3.963 2.525-8.509 3.664-13.187a9.225 9.225 0 0 1 5.7 1.438c4.19 2.613 7.234 8.58 8.815 17.251.02.642.051 1.282.048 1.929a62.656 62.656 0 0 1-2.464 16.807c-14.893-2.613-15.721-21.744-15.765-24.24zm10.881-14.176a12.187 12.187 0 0 0-6.539-1.909c.847-3.767 1.556-7.548 2-11.122.3.342.6.683.911 1.021a61.382 61.382 0 0 1 8.367 16.647 16.447 16.447 0 0 0-4.74-4.639zm34.09-46.767a57.205 57.205 0 0 0-2.215-2.085c3.37-.447 6.912-1.119 10.437-1.911a12.2 12.2 0 0 0 1.912 6.54 14.927 14.927 0 0 0 2.128 2.662 18.735 18.735 0 0 0 2.56 2.1 60.484 60.484 0 0 1-14.34-6.795c-.164-.173-.317-.347-.484-.513zm67.459-.684c-4.83-7.98-12.558-11.684-19.057-13.39 6.5-1.709 14.236-5.416 19.063-13.407a103.081 103.081 0 0 1 18.347 13.405 103.854 103.854 0 0 1-18.355 13.39zm-49.033-83.861c-.357 9.215-4.4 59.232-49.7 67.659a21.117 21.117 0 0 0-2.148-7.592c26.056-18.52 38.738-46.956 38.738-46.956s-28.131 12.539-46.653 38.3a21.35 21.35 0 0 0-7.673-2.857c9.029-44.185 58.296-48.197 67.434-48.557zm-56.642-48.619c-7.992 4.829-11.7 12.561-13.409 19.061-1.705-6.5-5.409-14.226-13.39-19.054a103.575 103.575 0 0 1 13.393-18.353 102.893 102.893 0 0 1 13.405 18.344zm-131.568 104.776a27.17 27.17 0 0 0 4.025 5.168 32.854 32.854 0 0 0 15.025 8.227c-6.5 1.707-14.235 5.416-19.066 13.41a102.949 102.949 0 0 1-18.345-13.405 103.492 103.492 0 0 1 18.361-13.4zm47.65 84.4c.355-9.14 4.328-58.407 48.555-67.436a21.378 21.378 0 0 0 2.86 7.675c-25.762 18.518-38.3 46.651-38.3 46.651s28.441-12.68 46.956-38.737a21.161 21.161 0 0 0 7.591 2.149c-8.419 45.257-58.446 49.332-67.662 49.696zm58.016 48.087c7.992-4.831 11.7-12.564 13.408-19.064a32.846 32.846 0 0 0 8.229 15.024 27.2 27.2 0 0 0 5.166 4.026 103.624 103.624 0 0 1-13.4 18.36 102.9 102.9 0 0 1-13.403-18.347z" class="cls-3" data-name="Path 5159" transform="translate(-814.119 -1348.303)"/>
                <path id="Path_5160" d="M1152.161 1857.6l6.445-9.516-8.584 7.644c-15.8 14.076-19.376 25.879-19.59 33.3-.217 7.514 2.841 12.153 3.671 12.982l.38.379 14.215.949-2.4-2.63c-13.245-14.498 5.669-42.82 5.863-43.108zm-12.976 34.9l-5.458 1.6a21.629 21.629 0 0 1-.424-4.9l5.447.061a26.143 26.143 0 0 0 .435 3.239zm.159-11.85a37.887 37.887 0 0 0-.637 5.751l-5.166-.056a29.561 29.561 0 0 1 1.49-5.836zm-3.145-2.967a42.55 42.55 0 0 1 2.383-4.424l2.821-.318a56.75 56.75 0 0 0-1.449 4.862zm6.332-7.751l-1.883.212a63.544 63.544 0 0 1 3.986-5 79.657 79.657 0 0 0-2.102 4.788zm-6.69 29.688a13.614 13.614 0 0 1-1.336-2.76l5.4-1.586a20.337 20.337 0 0 0 2.259 4.766z" class="cls-3" data-name="Path 5160" transform="translate(-905.969 -1493.434)"/>
                <path id="Path_5161" d="M1116.61 1856.833a3.455 3.455 0 0 0-.4-.35l-.137-.1-9.82.976.88.689a15.588 15.588 0 0 1 1.382 1.226c11.306 11.3.065 36.213-.05 36.463l-1.508 3.285 2.265-2.815c20.617-25.607 7.937-38.825 7.388-39.374zm.907 24.265l-3.866 1.1a48.041 48.041 0 0 0 .783-6l4.894-.658a35.805 35.805 0 0 1-1.81 5.56zm2.435-14.019l-5.989.93a21.128 21.128 0 0 0-1.184-3.879l5.684-2.752a19.113 19.113 0 0 1 1.49 5.7zm-11.435-9.041l7.294-.723c.047.044.1.094.162.155a12.636 12.636 0 0 1 2.107 3.093l-5.666 2.744a16.578 16.578 0 0 0-3.261-4.666 14.508 14.508 0 0 0-.634-.604zm5.607 10.856l5.907-.917a25.16 25.16 0 0 1-.492 6.633l-5.056.68a31.41 31.41 0 0 0-.357-6.397zm-.676 14.3l3.595-1.023a58.449 58.449 0 0 1-6.492 10.854 68.412 68.412 0 0 0 2.899-9.834z" class="cls-3" data-name="Path 5161" transform="translate(-898.951 -1495.843)"/>
                <path id="Path_5162" d="M1097.059 1466.192a10.885 10.885 0 0 0 3.514 7.879q.38.381.814.759l.942.825.943-.825a11.353 11.353 0 0 0 4.319-8.25c.177-5.282-3.787-9.405-4.26-9.879l-1-.986-1 .986c-.18.168-4.247 4.224-4.272 9.491zm7.67.293a8.045 8.045 0 0 1-2.4 5.284 7.991 7.991 0 0 1-2.4-5.547 11.08 11.08 0 0 1 2.407-6.293 10.824 10.824 0 0 1 2.393 6.556z" class="cls-3" data-name="Path 5162" transform="translate(-896.281 -1379.494)"/>
                <path id="Path_5163" d="M1144.283 1397.026a97.367 97.367 0 0 0 4.083 3.848l8.584 7.645-6.446-9.516c-.193-.285-19.108-28.605-5.863-43.11l2.4-2.631-14.213.948-.38.381c-3.035 3.035-10.471 20.128 11.835 42.435zm-10.874-20.93a29.188 29.188 0 0 1-1.463-5.835l5.106-.057a37.745 37.745 0 0 0 .639 5.755zm4.891 2.709c.413 1.661.9 3.289 1.447 4.862l-2.824-.317a42.069 42.069 0 0 1-2.364-4.425zm-6.579-11.4a22 22 0 0 1 .421-4.877l5.387 1.583a25.353 25.353 0 0 0-.435 3.234zm7.262 19.061l1.9.214c.68 1.7 1.4 3.321 2.108 4.8a62.9 62.9 0 0 1-4.007-5.017zm1.524-29.9a20.279 20.279 0 0 0-2.261 4.766l-5.336-1.568a15.109 15.109 0 0 1 1.311-2.78z" class="cls-3" data-name="Path 5163" transform="translate(-905.495 -1349.743)"/>
                <path id="Path_5164" d="M1105.471 1403.721l-.879.691 9.82.975.137-.1c.707-.505 3.74-3.842 4.558-9.812.833-6.071-.5-16.189-11.544-29.912l-2.267-2.816 1.508 3.285c.123.268 12.208 27.06-1.333 37.689zm6.526-24.147l3.824 1.089a36.369 36.369 0 0 1 1.829 5.56l-4.864-.653a48.257 48.257 0 0 0-.786-5.996zm2.155 24.884l-7.3-.724a16.484 16.484 0 0 0 3.906-5.264l5.664 2.743a11.605 11.605 0 0 1-2.271 3.245zm2.669-4.053l-5.686-2.753a21.075 21.075 0 0 0 1.175-3.886l5.981.93c-.024.221-.044.447-.071.659a19.075 19.075 0 0 1-1.4 5.045zm1.542-6.61l-5.884-.915a31.127 31.127 0 0 0 .35-6.4l5.018.672a25.459 25.459 0 0 1 .515 6.642zm-3-14.2l-3.568-1.014a68.4 68.4 0 0 0-2.9-9.828 58.214 58.214 0 0 1 6.467 10.847z" class="cls-3" data-name="Path 5164" transform="translate(-898.468 -1352.498)"/>
                <path id="Path_5165" d="M1046.563 1398.41l-6.446 9.516 8.583-7.646c15.8-14.075 19.376-25.878 19.59-33.3.217-7.515-2.841-12.151-3.671-12.983l-.381-.38-14.214-.948 2.4 2.632c13.246 14.499-5.668 42.824-5.861 43.109zm12.974-34.9l5.458-1.6a21.517 21.517 0 0 1 .424 4.9l-5.445-.059a25.7 25.7 0 0 0-.438-3.237zm-.158 11.85a37.985 37.985 0 0 0 .637-5.753l5.166.057a29.448 29.448 0 0 1-1.491 5.836zm3.144 2.967a43.08 43.08 0 0 1-2.381 4.424l-2.822.318a56.663 56.663 0 0 0 1.448-4.863zm-6.332 7.751l1.883-.212a63.617 63.617 0 0 1-3.987 5 75.915 75.915 0 0 0 2.104-4.784zm6.69-29.687a13.657 13.657 0 0 1 1.337 2.759l-5.4 1.586a20.325 20.325 0 0 0-2.259-4.766z" class="cls-3" data-name="Path 5165" transform="translate(-879.746 -1349.571)"/>
                <path id="Path_5166" d="M1087.626 1404.344a3.5 3.5 0 0 0 .4.35l.139.1 9.82-.973-.88-.69a16.225 16.225 0 0 1-1.384-1.226c-11.3-11.3-.063-36.213.052-36.464l1.507-3.285-2.266 2.816c-20.62 25.608-7.938 38.821-7.388 39.372zm-.909-24.265l3.866-1.1a47.5 47.5 0 0 0-.783 6l-4.895.656a35.687 35.687 0 0 1 1.812-5.557zm-2.436 14.02l5.989-.93a21.053 21.053 0 0 0 1.185 3.88l-5.684 2.753a19.052 19.052 0 0 1-1.49-5.702zm11.435 9.041l-7.293.723c-.048-.043-.1-.095-.163-.155a12.716 12.716 0 0 1-2.107-3.093l5.664-2.743a16.658 16.658 0 0 0 3.262 4.667c.207.204.421.404.637.6zm-5.607-10.857l-5.908.918a25.143 25.143 0 0 1 .49-6.636l5.058-.679a31.206 31.206 0 0 0 .36 6.397zm.673-14.3l-3.592 1.023a58.49 58.49 0 0 1 6.492-10.854 68.474 68.474 0 0 0-2.899 9.833z" class="cls-3" data-name="Path 5166" transform="translate(-892.275 -1352.325)"/>
                <path id="Path_5167" d="M1260.624 1637.8l.825.942q.377.434.76.816a10.893 10.893 0 0 0 7.879 3.512c5.266-.024 9.323-4.092 9.492-4.264l.987-1.021-1-1c-.454-.452-4.577-4.419-9.864-4.243a11.361 11.361 0 0 0-8.25 4.321zm9.171-2.4a10.8 10.8 0 0 1 6.554 2.4 11.06 11.06 0 0 1-6.289 2.409 3.245 3.245 0 1 1-.265-4.807z" class="cls-3" data-name="Path 5167" transform="translate(-943.778 -1430.839)"/>
                <path id="Path_5168" d="M1313.307 1575.962l7.646 8.585a97.378 97.378 0 0 0 3.849 4.084c22.307 22.307 39.4 14.871 42.436 11.835l.382-.38.945-14.213-2.63 2.4c-14.507 13.244-42.826-5.672-43.109-5.862zm38.26 25.006a29.4 29.4 0 0 1-5.837-1.462l.14-4.282a37.639 37.639 0 0 0 5.753.64zm-8.666-2.613a42.533 42.533 0 0 1-4.423-2.363l-.318-2.826c1.572.546 3.2 1.036 4.863 1.45zm11.526 2.839l.059-5.373a25.674 25.674 0 0 0 3.235-.435l1.581 5.388a22.039 22.039 0 0 1-4.875.421zm10.414-2.5a15.109 15.109 0 0 1-2.779 1.312l-1.569-5.337a20.289 20.289 0 0 0 4.768-2.26zm-29.691-6.657l.216 1.894a62.749 62.749 0 0 1-5.015-4 79.132 79.132 0 0 0 4.799 2.105z" class="cls-3" data-name="Path 5168" transform="translate(-959.077 -1414.412)"/>
                <path id="Path_5169" d="M1331.518 1619.31c-5.972.817-9.309 3.852-9.814 4.559l-.1.138.974 9.821.69-.883c10.629-13.54 37.42-1.454 37.689-1.332l3.286 1.508-2.816-2.267c-13.727-11.047-23.84-12.375-29.909-11.544zm.121.89c.213-.029.438-.049.659-.072l.929 5.982a21.093 21.093 0 0 0-3.886 1.174l-2.753-5.687a18.912 18.912 0 0 1 5.051-1.397zm-8.378 11.36l-.727-7.294a11.567 11.567 0 0 1 3.246-2.274l2.743 5.664a16.483 16.483 0 0 0-5.262 3.905zm18.161-5.929l-.652-4.865a36.891 36.891 0 0 1 5.559 1.828l1.089 3.828a47.662 47.662 0 0 0-5.996-.79zm6.989.991l-1.016-3.567a58.179 58.179 0 0 1 10.844 6.468 68.585 68.585 0 0 0-9.829-2.9zm-8.573-6.052l.67 5.017a31.126 31.126 0 0 0-6.4.353l-.915-5.886a25.374 25.374 0 0 1 6.644.517z" class="cls-3" data-name="Path 5169" transform="translate(-961.486 -1426.941)"/>
                <path id="Path_5170" d="M1321.542 1684.207l-7.662 8.6 9.534-6.465c.284-.194 28.59-19.12 43.108-5.863l2.632 2.4-.949-14.216-.38-.379c-.83-.829-5.467-3.888-12.979-3.671-7.425.218-19.228 3.787-33.304 19.594zm14.41-9.372l-.211 1.882a79.68 79.68 0 0 0-4.786 2.1 63.24 63.24 0 0 1 4.996-3.982zm16.259-1.944a37.862 37.862 0 0 0-5.754.638l-.138-4.313a29.384 29.384 0 0 1 5.835-1.489zm-8.6 1.249c-1.662.413-3.291.9-4.864 1.447l.316-2.82a42.9 42.9 0 0 1 4.426-2.382zm11.462-1.207l-.059-5.445a21.619 21.619 0 0 1 4.9.424l-1.605 5.458a25.91 25.91 0 0 0-3.234-.437zm10.773 3.412a20.339 20.339 0 0 0-4.766-2.258l1.587-5.4a13.7 13.7 0 0 1 2.759 1.338z" class="cls-3" data-name="Path 5170" transform="translate(-959.243 -1440.153)"/>
                <path id="Path_5171" d="M1325.091 1642.7a15.345 15.345 0 0 1-1.222-1.381l-.693-.881-.974 9.819.1.139a3.234 3.234 0 0 0 .35.4c.553.552 13.765 13.232 39.374-7.384l2.816-2.268-3.287 1.51c-.255.112-25.155 11.355-36.464.046zm8.733 5.445l-.928 5.991a19.145 19.145 0 0 1-5.7-1.49l2.752-5.684a21.189 21.189 0 0 0 3.876 1.186zm-10.693 1.855l.723-7.293c.2.219.4.43.6.633a16.641 16.641 0 0 0 4.666 3.262l-2.744 5.665a12.744 12.744 0 0 1-3.092-2.106c-.061-.061-.112-.118-.153-.161zm18.232 3.516l.655-4.894a48.212 48.212 0 0 0 6-.784l-1.1 3.868a35.534 35.534 0 0 1-5.555 1.807zm6.62-2.282l1.024-3.595a68.361 68.361 0 0 0 9.83-2.9 58.407 58.407 0 0 1-10.853 6.491zm-6.88-2.561l-.677 5.059a25.212 25.212 0 0 1-6.637.49l.918-5.91a31.1 31.1 0 0 0 6.393.357z" class="cls-3" data-name="Path 5171" transform="translate(-961.658 -1433.136)"/>
                <path id="Path_5172" d="M1229.46 1781.723c-5.469-9.71-13.5-16.113-22.45-12.679-10.805 4.145-8.54 19.181-2.208 26.141s15.094 12.559 23.548 5.618c0-.003 8.173-6.541 1.11-19.08zm-18.882.2c-2.086-7.239-6.238-10.207-6.238-10.207 5.869 1.055 8.174 4.449 11.826 14.775s11.371 13.319 11.371 13.319c-11.986.883-14.874-10.652-16.959-17.892z" class="cls-3" data-name="Path 5172" transform="translate(-926.022 -1470.208)"/>
                <path id="Path_5173" d="M1300.69 1785.571c11.262.185 23.339-2.869 24.208-15.94 0 0 1-12.493-15.737-16.615-12.961-3.192-25.133-1.435-29.476 9.19-5.243 12.829 9.738 23.183 21.005 23.365zm-20.865-18.847c5.733-4.257 10.585-3.485 22.589 1.8s20.948 1 20.948 1c-9.051 11.183-21.486 4.243-29.516.129s-14.021-2.929-14.021-2.929z" class="cls-3" data-name="Path 5173" transform="translate(-949 -1465.41)"/>
                <path id="Path_5174" d="M1252.209 1857.177c4.158-7.263 3.82-16.321-.831-22.028a13.681 13.681 0 0 0-17.245-3.891 12.033 12.033 0 0 0-6.187 14.22c1.962 6.818 6.681 8.707 10.441 8.2 4.116-.557 7.37-3.742 7.409-7.251l-2.863-.031c-.025 2.051-2.28 4.087-4.929 4.445-1.6.216-5.522.051-7.306-6.154a9.133 9.133 0 0 1 4.763-10.891 10.878 10.878 0 0 1 13.7 3.16c3.916 4.811 4.149 12.539.565 18.8-3.346 5.841-8.882 8.635-15.193 7.66a16.931 16.931 0 0 1-13.955-12.917c-2.017-8.077 1.431-16.385 9.226-22.224 16.639-12.458 37.9-3.805 38.234-3.672.421.132 10.4 3.2 16.839-1.668 3.553-2.686 5.262-7.172 5.085-13.335l-2.863.08c.152 5.181-1.177 8.868-3.943 10.964-5.244 3.972-14.147 1.264-14.136 1.272-.929-.389-22.964-9.387-40.931 4.07-8.75 6.552-12.594 15.975-10.288 25.207a20.413 20.413 0 0 0 5.333 9.544 19.636 19.636 0 0 0 10.965 5.511c7.428 1.142 14.201-2.248 18.11-9.071z" class="cls-3" data-name="Path 5174" transform="translate(-931.151 -1482.257)"/>
                <path id="Path_5175" d="M1256.214 1771.771c-2.891.085-4.925-.623-6.063-2.114-2.178-2.864-.691-7.857-.7-7.864.24-.572 5.711-14.015-2.522-24.983-4.058-5.405-9.9-7.773-15.64-6.333a12.347 12.347 0 0 0-9.4 10.2 10.662 10.662 0 0 0 3.028 9.36 12.728 12.728 0 0 0 2.672 2.024c4.538 2.594 10.21 2.362 13.791-.56a8.735 8.735 0 0 0 2.457-11.007 7.73 7.73 0 0 0-9.156-3.966c-4.421 1.276-5.634 4.384-5.3 6.867.374 2.73 2.523 4.888 4.895 4.911l.028-2.863c-.931-.01-1.907-1.146-2.085-2.436-.233-1.705.953-3.064 3.253-3.728a4.88 4.88 0 0 1 5.825 2.546 5.86 5.86 0 0 1-1.729 7.459c-2.687 2.189-7.029 2.312-10.56.294a8.135 8.135 0 0 1-4.294-8.467 9.534 9.534 0 0 1 7.267-7.86c4.584-1.148 9.312.82 12.656 5.274 7.235 9.645 2.22 22.039 2.124 22.284-.084.264-1.988 6.494 1.094 10.565 1.728 2.27 4.562 3.369 8.437 3.254z" class="cls-3" data-name="Path 5175" transform="translate(-932.491 -1459.162)"/>
                <path id="Path_5176" d="M948.035 1501.534c-12.537-7.061-19.079 1.111-19.079 1.111-6.942 8.454-1.343 17.215 5.616 23.545s22 8.6 26.144-2.2c3.432-8.956-2.971-16.985-12.681-22.456zm10.013 25.12s-2.967-4.149-10.206-6.236-18.776-4.975-17.888-16.958c0 0 3 7.716 13.319 11.37s13.721 5.956 14.775 11.824z" class="cls-3" data-name="Path 5176" transform="translate(-846.543 -1391.965)"/>
                <path id="Path_5177" d="M977.511 1416.328c-4.121-16.731-16.613-15.736-16.613-15.736-13.073.87-16.127 12.946-15.941 24.208s10.535 26.248 23.365 21c10.623-4.339 12.378-16.511 9.189-29.472zm-16.638 15.317c-4.113-8.03-11.054-20.463.129-29.515 0 0-4.273 8.945 1 20.949s6.053 16.855 1.8 22.589c-.002 0 1.188-5.994-2.929-14.023z" class="cls-3" data-name="Path 5177" transform="translate(-852.11 -1363.484)"/>
                <path id="Path_5178" d="M869.978 1496.837c9.232 2.307 18.656-1.539 25.208-10.287 13.457-17.968 4.458-40 4.112-40.807-.028-.089-2.75-9.011 1.227-14.261 2.1-2.766 5.785-4.094 10.965-3.944l.083-2.86c-6.165-.179-10.651 1.533-13.336 5.085-4.866 6.436-1.8 16.416-1.624 16.961.089.212 8.741 21.473-3.718 38.11-5.837 7.794-14.145 11.243-22.222 9.225a16.93 16.93 0 0 1-12.918-13.954c-.974-6.309 1.818-11.846 7.66-15.193 6.257-3.584 13.987-3.351 18.8.565a10.887 10.887 0 0 1 3.161 13.7 9.128 9.128 0 0 1-10.89 4.763c-6.2-1.789-6.371-5.705-6.154-7.308.358-2.647 2.394-4.9 4.444-4.927l-.032-2.864c-3.509.04-6.692 3.294-7.25 7.407-.509 3.761 1.377 8.478 8.2 10.442a12.029 12.029 0 0 0 14.219-6.186 13.7 13.7 0 0 0-3.889-17.246c-5.708-4.648-14.766-4.987-22.029-.827-6.823 3.908-10.213 10.679-9.066 18.111a19.633 19.633 0 0 0 5.51 10.966 20.4 20.4 0 0 0 9.539 5.329z" class="cls-3" data-name="Path 5178" transform="translate(-825.904 -1370.478)"/>
                <path id="Path_5179" d="M985.517 1508.412a12.35 12.35 0 0 0 10.2-9.4c1.438-5.739-.934-11.585-6.333-15.642-10.971-8.234-24.417-2.758-24.858-2.567-.051.017-5.1 1.544-7.987-.65-1.489-1.133-2.2-3.173-2.114-6.063l-2.862-.086c-.115 3.874.973 6.709 3.254 8.436 4.072 3.081 10.3 1.179 10.689 1.05.124-.052 12.484-5.091 22.159 2.168 4.454 3.346 6.424 8.074 5.275 12.655a9.535 9.535 0 0 1-7.86 7.269 8.14 8.14 0 0 1-8.467-4.293c-2.019-3.532-1.9-7.875.294-10.559a5.858 5.858 0 0 1 7.463-1.73 4.882 4.882 0 0 1 2.546 5.825c-.666 2.3-2.026 3.486-3.731 3.254-1.289-.177-2.426-1.154-2.436-2.086l-2.862.028c.022 2.373 2.178 4.522 4.911 4.895 2.482.338 5.59-.874 6.868-5.3a7.729 7.729 0 0 0-3.968-9.157 8.734 8.734 0 0 0-11.006 2.456c-2.923 3.584-3.154 9.253-.561 13.791a12.652 12.652 0 0 0 2.026 2.673 10.667 10.667 0 0 0 9.36 3.033z" class="cls-3" data-name="Path 5179" transform="translate(-854.029 -1384.805)"/>
                <path id="Path_5180" d="M948.036 1768.224c9.71-5.471 16.114-13.5 12.682-22.452-4.148-10.8-19.182-8.539-26.144-2.2s-12.559 15.092-5.617 23.545c0-.004 6.543 8.168 19.079 1.107zm-.195-18.886c7.241-2.086 10.207-6.236 10.207-6.236-1.053 5.87-4.449 8.173-14.774 11.824s-13.321 11.37-13.321 11.37c-.887-11.981 10.647-14.868 17.889-16.957z" class="cls-3" data-name="Path 5180" transform="translate(-846.544 -1461.536)"/>
                <path id="Path_5181" d="M968.324 1818.45c-12.83-5.245-23.182 9.736-23.364 21s2.867 23.339 15.939 24.209c0 0 12.493 1 16.614-15.736 3.192-12.956 1.435-25.129-9.189-29.473zm-7.448 14.16c4.116-8.029 2.93-14.021 2.93-14.021 4.256 5.731 3.484 10.584-1.8 22.588s-1 20.948-1 20.948c-11.185-9.051-4.245-21.486-.13-29.515z" class="cls-3" data-name="Path 5181" transform="translate(-852.111 -1484.514)"/>
                <path id="Path_5182" d="M900.528 1821.917c-3.969-5.237-1.267-14.129-1.273-14.135.39-.932 9.391-22.966-4.067-40.933-6.552-8.751-15.974-12.594-25.208-10.288a19.751 19.751 0 0 0-15.052 16.3 16.946 16.946 0 0 0 4.818 14.891 20.118 20.118 0 0 0 4.249 3.221c7.263 4.16 16.321 3.818 22.029-.829a13.689 13.689 0 0 0 3.889-17.244 12.028 12.028 0 0 0-14.218-6.187c-6.822 1.962-8.709 6.68-8.2 10.44.556 4.115 3.74 7.37 7.249 7.41l.032-2.863c-2.05-.025-4.087-2.282-4.446-4.931-.216-1.6-.051-5.518 6.154-7.306a9.129 9.129 0 0 1 10.89 4.762 10.888 10.888 0 0 1-3.161 13.7c-4.809 3.917-12.539 4.15-18.8.566-5.839-3.344-8.634-8.882-7.661-15.194a16.932 16.932 0 0 1 12.918-13.955c8.076-2.017 16.383 1.428 22.222 9.226 12.459 16.636 3.808 37.9 3.673 38.233-.131.421-3.2 10.4 1.668 16.838 2.681 3.552 7.173 5.263 13.337 5.086l-.082-2.863c-5.175.149-8.867-1.187-10.96-3.945z" class="cls-3" data-name="Path 5182" transform="translate(-825.905 -1466.665)"/>
                <path id="Path_5183" d="M989.387 1785.7c5.406-4.057 7.773-9.9 6.333-15.641a12.353 12.353 0 0 0-10.2-9.4 10.9 10.9 0 0 0-11.386 5.7c-2.593 4.536-2.362 10.207.56 13.79a8.743 8.743 0 0 0 11.006 2.451 7.729 7.729 0 0 0 3.968-9.157c-1.278-4.419-4.388-5.634-6.869-5.3-2.731.372-4.888 2.523-4.911 4.893l2.863.029c.01-.935 1.147-1.909 2.436-2.085 1.706-.236 3.065.95 3.732 3.253a4.884 4.884 0 0 1-2.548 5.825 5.861 5.861 0 0 1-7.458-1.731c-2.193-2.686-2.313-7.028-.3-10.559a8.136 8.136 0 0 1 8.468-4.293 9.526 9.526 0 0 1 7.858 7.268c1.15 4.582-.822 9.313-5.275 12.654-9.641 7.235-22.036 2.219-22.282 2.124-.263-.083-6.493-1.988-10.565 1.1-2.275 1.723-3.369 4.561-3.254 8.437l2.861-.086c-.086-2.891.625-4.931 2.115-6.063 2.868-2.182 7.873-.687 7.863-.7.576.248 14.017 5.719 24.985-2.509z" class="cls-3" data-name="Path 5183" transform="translate(-854.03 -1468.005)"/>
                <path id="Path_5184" d="M1228.35 1467.72c-8.452-6.944-17.214-1.342-23.545 5.616s-8.6 22 2.205 26.142c8.951 3.434 16.981-2.969 22.451-12.68 7.062-12.537-1.111-19.078-1.111-19.078zm-24.01 29.091s4.153-2.968 6.236-10.207 4.977-18.776 16.961-17.89c0 0-7.717 3-11.371 13.32s-5.955 13.723-11.826 14.778z" class="cls-3" data-name="Path 5184" transform="translate(-926.023 -1382.057)"/>
                <path id="Path_5185" d="M1279.688 1507.085c4.342 10.625 16.516 12.383 29.476 9.192 16.732-4.123 15.737-16.615 15.737-16.615-.871-13.073-12.946-16.126-24.209-15.941s-26.247 10.536-21.004 23.364zm14.16-7.447c8.029-4.116 20.464-11.054 29.516.129 0 0-8.945-4.273-20.949 1s-16.855 6.052-22.588 1.8c0 .001 5.992 1.187 14.021-2.929z" class="cls-3" data-name="Path 5185" transform="translate(-949.001 -1387.625)"/>
                <path id="Path_5186" d="M1224.627 1430.958a32.167 32.167 0 0 0 3.461 2.992c17.968 13.456 40 4.457 40.807 4.112.089-.026 9.01-2.75 14.261 1.229 2.761 2.1 4.094 5.782 3.945 10.963l2.86.082c.181-6.162-1.529-10.652-5.085-13.335-6.436-4.866-16.418-1.8-16.963-1.624-.213.089-21.438 8.766-38.109-3.718-7.792-5.834-11.242-14.146-9.224-22.222a16.925 16.925 0 0 1 13.952-12.917c6.312-.974 11.849 1.819 15.194 7.659 3.585 6.258 3.352 13.987-.564 18.8a10.89 10.89 0 0 1-13.7 3.161 9.136 9.136 0 0 1-4.763-10.89c1.789-6.2 5.7-6.37 7.306-6.154 2.649.357 4.908 2.394 4.93 4.446l2.862-.031c-.04-3.51-3.293-6.7-7.41-7.252-3.76-.508-8.477 1.377-10.439 8.2a12.03 12.03 0 0 0 6.187 14.22 13.7 13.7 0 0 0 17.246-3.891c4.646-5.707 4.986-14.765.828-22.028-3.906-6.823-10.679-10.213-18.114-9.068a19.749 19.749 0 0 0-16.293 15.054c-1.976 7.902.561 15.954 6.825 22.212z" class="cls-3" data-name="Path 5186" transform="translate(-931.152 -1361.418)"/>
                <path id="Path_5187" d="M1234.282 1516.651c-2.37.024-4.521 2.179-4.892 4.91-.34 2.483.873 5.591 5.3 6.868a7.725 7.725 0 0 0 9.156-3.967 8.739 8.739 0 0 0-2.457-11.008c-3.583-2.921-9.252-3.152-13.789-.559a10.9 10.9 0 0 0-5.7 11.388 12.282 12.282 0 0 0 3.448 6.872 12.777 12.777 0 0 0 5.953 3.329c5.737 1.44 11.584-.929 15.641-6.335 8.233-10.972 2.758-24.415 2.566-24.856-.015-.052-1.542-5.1.651-7.987 1.132-1.49 3.172-2.2 6.063-2.115l.086-2.862c-3.874-.115-6.712.979-8.434 3.254-3.086 4.07-1.18 10.3-1.053 10.688.051.125 5.092 12.486-2.168 22.16-3.342 4.453-8.073 6.426-12.656 5.275a9.533 9.533 0 0 1-7.267-7.859 8.139 8.139 0 0 1 4.293-8.468c3.531-2.017 7.875-1.9 10.56.294a5.847 5.847 0 0 1 1.731 7.46 4.884 4.884 0 0 1-5.826 2.545c-2.3-.666-3.488-2.027-3.253-3.73.176-1.289 1.149-2.426 2.084-2.435z" class="cls-3" data-name="Path 5187" transform="translate(-932.491 -1389.543)"/>
            </g>
        </g>
    </g>
</svg>
