<svg xmlns="http://www.w3.org/2000/svg" width="1069.467" height="1178.33" viewBox="0 0 1069.467 1178.33">
    <defs>
        <style>
            .cls-1,.cls-6{fill:#f8d496}.cls-1{stroke:rgba(249,176,52,.32)}.cls-1,.cls-2{stroke-width:3px}.cls-14,.cls-2{fill:#a5622a}.cls-2{stroke:rgba(249,176,52,.33)}.cls-3{fill:#fff}.cls-12,.cls-4{fill:#f9b034}.cls-18,.cls-20,.cls-4{opacity:.1}.cls-5{fill:#7d4516}.cls-7{fill:#fa5959}.cls-7,.cls-8,.cls-9{opacity:.8}.cls-8{fill:#fed253}.cls-9{fill:#8ccf4d}.cls-10{fill:#a58a73}.cls-10,.cls-13{opacity:.05}.cls-11{fill:#703c16}.cls-15{fill:url(#linear-gradient)}.cls-16{fill:#fbbebe}.cls-17{fill:#2d191a}.cls-19{fill:#371f18}.cls-21{filter:url(#Path_178)}.cls-22{filter:url(#Path_32)}
        </style>
        <filter id="Path_32" width="1069.467" height="1178.33" x="0" y="0" filterUnits="userSpaceOnUse">
            <feOffset dx="-3" dy="3"/>
            <feGaussianBlur result="blur" stdDeviation="3"/>
            <feFlood flood-opacity=".224"/>
            <feComposite in2="blur" operator="in"/>
            <feComposite in="SourceGraphic"/>
        </filter>
        <filter id="Path_178" width="1013.824" height="654.659" x="26.637" y="358.426" filterUnits="userSpaceOnUse">
            <feOffset dy="3"/>
            <feGaussianBlur result="blur-2" stdDeviation="3"/>
            <feFlood flood-opacity=".396"/>
            <feComposite in2="blur-2" operator="in"/>
            <feComposite in="SourceGraphic"/>
        </filter>
        <linearGradient id="linear-gradient" x2="1" y1=".5" y2=".5" gradientUnits="objectBoundingBox">
            <stop offset="0" stop-color="gray" stop-opacity=".251"/>
            <stop offset=".54" stop-color="gray" stop-opacity=".122"/>
            <stop offset="1" stop-color="gray" stop-opacity=".102"/>
        </linearGradient>
    </defs>
    <g id="Group_3214" data-name="Group 3214" transform="translate(-887.486 46.581)">
        <g class="cls-22" transform="translate(887.49 -46.58)">
            <path id="Path_32-2" d="M1231.749 110.074s24.777 102.732-66.959 297.113-277.111 252-324.861 474.148S944.061 1267.4 944.061 1267.4h935.032V110.074z" class="cls-1" data-name="Path 32" transform="translate(-817.13 -102.57)"/>
        </g>
        <g class="cls-21" transform="translate(887.49 -46.58)">
            <path id="Path_178-2" d="M3723.876 1142.5c-57.018-106.94-309.3-57.577-514.155 108.965s-104.54-109.8-292.711 59.239-207.666 422.953 109.258 353.366 397.854 154.2 600.3 0 154.326-414.632 97.308-521.57z" class="cls-2" data-name="Path 178" transform="translate(-2743.49 -719.94)"/>
        </g>
        <path id="Path_396" d="M2.08-.624c11.128-.312 19.24-.1 19.24-.1-.208-5.408-.312-10.088-.416-14.768C36.816-15.7 45.968-26.416 45.968-43.68c0-19.76-9.36-29.016-32.032-29.016-3.432 0-7.28.312-11.44.728C2.6-28.288 2.08-.624 2.08-.624zm18.512-55.224c4.056-.312 6.24 3.432 6.24 12.792 0 9.672-1.976 12.376-6.24 12.9-.208-17.06 0-25.692 0-25.692zM60.944 1.56c5.824 0 11.128-1.768 13.624-7.488-.1 4.16-.416 7.28-.416 7.28 9.568-.1 13.624-.208 13.624-.208s.312-16.64 0-32.136c-.312-13.1-6.032-21.32-19.76-21.32-14.456 0-20.8 8.736-20.592 19.864 10.5.208 17.16-.1 17.16-.1.208-4.784.936-7.072 2.7-7.072 1.56 0 2.392 1.664 2.5 7.384v1.456c-14.768-.312-23.816 5.616-23.816 18.2 0 9.044 6.448 14.14 14.976 14.14zm9.672-22.26c0 7.7-1.456 9.568-3.744 9.568s-3.12-1.872-3.12-4.264c0-3.328 1.56-6.656 6.76-7.384 0 .004.104.94.104 2.08zM110.76 1.56c10.608 0 19.76-4.576 19.76-16.328 0-7.7-4.264-12.376-15.912-15.912-4.992-1.56-7.072-3.536-7.072-6.032a2.8 2.8 0 0 1 2.912-3.016c2.5 0 3.224 2.808 3.016 7.072 9.36-.1 16.64.416 16.64.416.416-12.792-6.344-21.112-19.448-21.112-12.9 0-20.176 6.968-20.176 16.224 0 8.32 3.952 13.208 15.288 16.536 6.24 1.872 7.592 3.536 7.592 5.72 0 2.288-1.248 3.328-2.6 3.328-2.912 0-3.432-2.6-3.328-7.072-11.648-.728-17.472-.728-17.472-.728-.208 14.872 7.696 20.904 20.8 20.904zm41.6-.1c10.608 0 19.76-4.784 19.76-16.536 0-7.384-3.64-11.336-15.808-15.08-5.3-1.664-7.176-3.328-7.176-5.824a2.645 2.645 0 0 1 2.912-2.808c2.5 0 3.224 2.392 3.016 6.656 9.568-.624 16.64-.624 16.64-.624.416-10.816-5.824-19.656-19.448-19.656-12.9 0-20.176 6.864-20.176 16.12 0 8.632 4.784 12.792 15.184 15.7 5.928 1.664 7.7 3.224 7.7 5.616 0 2.288-1.248 3.328-2.6 3.328-2.912 0-3.432-2.392-3.328-6.864-10.92.416-17.472.312-17.472.312-.212 14.352 8.524 19.656 20.796 19.656zm57.3-.624S216.632.52 233.9.728c0 0 1.768-17.68 6.968-54.288 0 0-6.552.1-19.24-.312 0 0 .312 8.008-1.144 39.416 0 0-.832-3.848-5.1-37.752 0 0-4.368-.312-18.1 0 0 0-.728 10.088-4.264 35.36 0 0-.936-8.84-1.768-34.112 0 0-10.192.208-18.616.312 0 0 2.7 16.432 6.968 48.88 0 0 7.28-.312 23.92.416 0 0 .416-9.464 2.808-29.64.004 0 1.876 13.208 3.332 31.824zm53.248 0c13.936 0 22.36-7.176 22.36-26.832 0-16.224-6.448-26.832-22.048-26.832-14.56 0-22.36 9.672-22.36 26 .004 16.528 5.412 27.66 22.052 27.66zm.208-11.856c-2.08 0-2.912-1.768-2.912-15.6 0-11.544.728-13.832 2.912-13.832 1.976 0 2.808 2.288 2.808 14.56.004 13.1-1.036 14.868-2.804 14.868zM288.6.416c13.728-.208 18.408-.1 18.408-.1s-.312-13.1-.1-21.632c.208-7.592 2.7-12.168 10.5-13.416.208-13.728.728-18.72.728-18.72-5.928-.1-12.272 4.264-14.976 10.4.1-5.3.416-9.152.416-9.152-12.48.312-15.184.1-15.184.1.416 26.004.208 52.52.208 52.52zm74.152 1.352c-.208-40.144.312-73.008.312-73.008-15.6.416-19.344.1-19.344.1a1151.28 1151.28 0 0 1 1.144 24.128c-2.288-3.432-5.616-5.72-9.88-5.72-11.336 0-16.328 10.5-16.328 25.272 0 20.18 7.072 27.98 17.68 27.98a12.39 12.39 0 0 0 11.96-7.8c-.1 5.408-.208 8.944-.208 8.944 9.36 0 14.664.104 14.664.104zm-21.216-13.1c-1.872 0-2.912-4.056-2.912-14.04 0-11.648.832-14.664 2.6-14.664 2.288 0 3.12 4.576 3.12 13.624 0 13.312-1.352 15.076-2.808 15.076zM239.408 125.416c13.728-.208 18.408-.1 18.408-.1s-.312-13.1-.1-21.632c.208-7.592 2.7-12.168 10.5-13.416.208-13.728.728-18.72.728-18.72-5.928-.1-12.272 4.264-14.976 10.4.1-5.3.416-9.152.416-9.152-12.48.312-15.184.1-15.184.1.416 26.004.208 52.52.208 52.52zm52.416.624c11.856 0 20.28-6.552 21.84-18.408-9.048-.312-18.72-.416-18.72-.416-.208 4.472-1.352 5.928-3.016 5.928-2.184 0-3.224-2.5-3.536-9.464 15.08-.208 24.96-.208 24.96-.208 1.248-17.68-3.64-31.2-21.632-31.2-16.12 0-22.256 11.96-22.256 26.52 0 15.08 4.784 27.248 22.36 27.248zm-.208-41.808c1.872 0 2.912 3.224 2.808 10.3-2.08.1-3.848.1-6.032.1.208-8.32 1.144-10.4 3.224-10.4zm46.8 42.432c13.936 0 21.84-7.8 21.424-24.544-12.9.728-18.72.936-18.72.936.416 7.176-.728 9.672-2.6 9.672-2.288 0-3.432-3.536-3.432-12.168 0-10.816 1.144-14.144 3.224-14.144s3.12 3.536 2.912 9.568c0 0 5.3-.312 18.616-.624.416-14.248-7.488-21.736-20.7-21.736-16.536 0-23.4 10.192-23.4 26.312.004 19.656 8.74 26.728 22.676 26.728zm46.072-.832c13.936 0 22.36-7.176 22.36-26.832 0-16.224-6.448-26.832-22.048-26.832-14.56 0-22.36 9.672-22.36 26 0 16.532 5.408 27.664 22.048 27.664zm.208-11.856c-2.08 0-2.912-1.768-2.912-15.6 0-11.544.728-13.832 2.912-13.832 1.976 0 2.808 2.288 2.808 14.56-.004 13.104-1.04 14.872-2.804 14.872zm57.824 9.88s1.768-14.456 7.488-51.9c0 0-6.656.1-17.992-.624 0 0-.52 10.712-3.848 40.56 0 0-.936-9.256-2.5-36.712 0 0-8.216.52-18.824.52 0 0 3.12 17.784 7.8 48.776.004.004 10.508.004 27.876-.62zm29.328 2.5c12.48 0 20.592-8.112 21.84-17.992-10.3-.312-18.616-1.144-18.616-1.144-.208 4.16-1.248 6.448-3.12 6.448-2.184 0-3.224-1.976-3.536-9.568 15.7-.312 24.96-.312 24.96-.312 1.352-19.24-4.784-30.16-21.632-30.16-15.6 0-22.256 11.232-22.256 25.9 0 18.504 8.424 26.824 22.36 26.824zm-.208-41.396c2.08 0 2.912 2.184 2.808 9.88-2.184.1-4.16.208-6.032.208.208-8.528 1.144-10.088 3.224-10.088zm25.376 40.456c13.728-.208 18.408-.1 18.408-.1s-.312-13.1-.1-21.632c.208-7.592 2.7-12.168 10.5-13.416.208-13.728.728-18.72.728-18.72-5.928-.1-12.272 4.264-14.976 10.4.1-5.3.416-9.152.416-9.152-12.48.312-15.184.1-15.184.1.416 26.004.208 52.52.208 52.52zm61.048 22.36s2.5-14.144 16.536-75.3c0 0-11.96-.312-20.384-.832 0 0-.312 11.336-2.7 35.048 0 0-1.872-10.712-3.848-32.032 0 0-7.8.832-20.072.832 0 0 5.824 19.968 14.872 55.016 0 0-.728 4.888-2.5 15.08 0 .004 3.432.312 18.096 2.188z" class="cls-3" data-name="Path 396" transform="translate(1027 711)"/>
        <g id="Group_431" data-name="Group 431" transform="translate(1438.159 475.548)">
            <path id="Path_321" d="M239.742 84.484c-25.252.034-49.558-7.125-72.807-15.077s-46.318-16.857-71.1-20.631c-15.938-2.426-34.062-2.2-46.521 6.6-11.993 8.472-15.465 22.5-17.141 35.451-1.26 9.746-1.841 19.975 2.878 28.89 3.277 6.189 8.885 11.29 12.837 17.188 13.8 20.519 5.5 46.73-7.908 67.726-6.287 9.851-13.651 19.293-18.4 29.708s-6.7 22.225-1.855 32.5c4.8 10.189 15.654 17.583 27.3 22.634 23.647 10.276 51.179 12.479 77.972 13.327 59.307 1.882 118.73-1.956 177.993-5.794 21.931-1.419 32.4 1.775 53.881-2.336 11.925-2.28 22.664-9.518 31.119-16.936 10.733-9.418 12.928-24.8 5.118-35.849-13.1-18.539-34.534-22.806-43.925-42.866-5.179-11.043-.713-23.708 5.865-34.353 14.107-22.84 38.39-43.3 38.8-68.844.28-17.543-12.347-34.657-31.208-42.281-19.769-7.986-46.724-5.932-60.574 8.952-14.249 15.343-40.028 21.968-62.324 21.991z" class="cls-4" data-name="Path 321" transform="translate(-16.91 -47.46)"/>
            <path id="Path_358" d="M414.365 132.69H89.762a2.892 2.892 0 0 0-2.892 2.892v8.425h330.386v-8.425a2.892 2.892 0 0 0-2.891-2.892z" class="cls-5" data-name="Path 358" transform="translate(-63.236 -103.902)"/>
            <path id="Path_359" d="M86.87 166.19v189.6a5.831 5.831 0 0 0 5.831 5.831h318.724a5.831 5.831 0 0 0 5.831-5.831v-189.6z" class="cls-6" data-name="Path 359" transform="translate(-63.236 -126.085)"/>
            <circle id="Ellipse_89" cx="1.351" cy="1.351" r="1.351" class="cls-7" data-name="Ellipse 89" transform="translate(27.515 33.011)"/>
            <circle id="Ellipse_90" cx="1.351" cy="1.351" r="1.351" class="cls-8" data-name="Ellipse 90" transform="translate(31.231 33.011)"/>
            <circle id="Ellipse_91" cx="1.351" cy="1.351" r="1.351" class="cls-9" data-name="Ellipse 91" transform="translate(34.947 33.011)"/>
            <path id="Rectangle_559" d="M0 0h265.525v116.757H0z" class="cls-10" data-name="Rectangle 559" transform="translate(54.345 71.718)"/>
            <path id="Rectangle_560" d="M0 0h261.471v114.183H0z" class="cls-11" data-name="Rectangle 560" transform="translate(56.372 72.603)"/>
            <path id="Path_360" d="M343.792 349.38a26.012 26.012 0 1 0 26.008 26.012 26.012 26.012 0 0 0-26.008-26.012zm4.665 26.637v12.317h-9.2v-12.317a7.618 7.618 0 1 1 9.2 0z" class="cls-12" data-name="Path 360" transform="translate(-216.141 -247.39)"/>
            <path id="Path_361" d="M343.792 349.38a26.012 26.012 0 1 0 26.008 26.012 26.012 26.012 0 0 0-26.008-26.012zm4.665 26.637v12.317h-9.2v-12.317a7.618 7.618 0 1 1 9.2 0z" class="cls-13" data-name="Path 361" transform="translate(-216.141 -247.39)"/>
            <path id="Path_362" d="M329.224 327.38a33.444 33.444 0 1 0 33.444 33.444 33.444 33.444 0 0 0-33.444-33.444zm6 34.248v15.834H323.4v-15.834a9.8 9.8 0 1 1 11.824 0z" class="cls-14" data-name="Path 362" transform="translate(-201.573 -232.822)"/>
            <rect id="Rectangle_561" width="108.102" height="11.486" class="cls-3" data-name="Rectangle 561" rx="5.743" transform="translate(174.946 123.614)"/>
            <rect id="Rectangle_562" width="23.309" height="11.486" class="cls-14" data-name="Rectangle 562" rx="5.743" transform="translate(259.738 144.559)"/>
            <path id="Path_363" d="M556.678 425.245h-1.956l1.74-1.736a.172.172 0 0 0 0-.24.169.169 0 0 0-.24 0l-1.74 1.74v-1.959a.169.169 0 0 0-.169-.169.172.172 0 0 0-.169.169v1.959l-1.736-1.75a.169.169 0 0 0-.24 0 .172.172 0 0 0 0 .24l1.74 1.736h-1.959a.172.172 0 0 0-.169.169.169.169 0 0 0 .169.169h1.959l-1.74 1.74a.172.172 0 0 0 0 .24.176.176 0 0 0 .24 0l1.736-1.74v1.956a.169.169 0 1 0 .338 0v-1.956l1.74 1.74a.176.176 0 0 0 .24 0 .172.172 0 0 0 0-.24l-1.74-1.74h1.956a.164.164 0 1 0 0-.328z" class="cls-12" data-name="Path 363" transform="translate(-371.091 -296.06)"/>
            <path id="Path_364" d="M577.678 425.245h-1.956l1.74-1.736a.172.172 0 0 0 0-.24.169.169 0 0 0-.24 0l-1.74 1.74v-1.959a.169.169 0 0 0-.169-.169.172.172 0 0 0-.169.169v1.959l-1.736-1.75a.169.169 0 0 0-.24 0 .172.172 0 0 0 0 .24l1.74 1.736h-1.959a.172.172 0 0 0-.169.169.169.169 0 0 0 .169.169h1.959l-1.74 1.74a.172.172 0 0 0 0 .24.176.176 0 0 0 .24 0l1.736-1.74v1.956a.169.169 0 0 0 .338 0v-1.956l1.74 1.74a.176.176 0 0 0 .24 0 .172.172 0 0 0 0-.24l-1.74-1.74h1.956a.164.164 0 1 0 0-.328z" class="cls-12" data-name="Path 364" transform="translate(-384.997 -296.06)"/>
            <path id="Path_365" d="M598.678 425.245h-1.956l1.74-1.736a.172.172 0 0 0 0-.24.169.169 0 0 0-.24 0l-1.74 1.74v-1.959a.169.169 0 0 0-.169-.169.172.172 0 0 0-.169.169v1.959l-1.736-1.75a.169.169 0 0 0-.24 0 .172.172 0 0 0 0 .24l1.74 1.736h-1.959a.172.172 0 0 0-.169.169.169.169 0 0 0 .169.169h1.959l-1.74 1.74a.172.172 0 0 0 0 .24.176.176 0 0 0 .24 0l1.736-1.74v1.956a.169.169 0 0 0 .338 0v-1.956l1.74 1.74a.176.176 0 0 0 .24 0 .172.172 0 0 0 0-.24l-1.74-1.74h1.956a.164.164 0 1 0 0-.328z" class="cls-12" data-name="Path 365" transform="translate(-398.903 -296.06)"/>
            <path id="Path_366" d="M619.678 425.245h-1.956l1.74-1.736a.172.172 0 0 0 0-.24.169.169 0 0 0-.24 0l-1.74 1.74v-1.959a.169.169 0 0 0-.169-.169.172.172 0 0 0-.169.169v1.959l-1.736-1.75a.169.169 0 0 0-.24 0 .172.172 0 0 0 0 .24l1.74 1.736h-1.959a.172.172 0 0 0-.169.169.169.169 0 0 0 .169.169h1.959l-1.74 1.74a.172.172 0 0 0 0 .24.176.176 0 0 0 .24 0l1.736-1.74v1.956a.169.169 0 1 0 .338 0v-1.956l1.74 1.74a.176.176 0 0 0 .24 0 .172.172 0 0 0 0-.24l-1.74-1.74h1.956a.164.164 0 1 0 0-.328z" class="cls-12" data-name="Path 366" transform="translate(-412.809 -296.06)"/>
            <path id="Path_367" d="M640.678 425.245h-1.956l1.74-1.736a.172.172 0 0 0 0-.24.169.169 0 0 0-.24 0l-1.74 1.74v-1.959a.169.169 0 0 0-.169-.169.172.172 0 0 0-.169.169v1.959l-1.736-1.75a.169.169 0 0 0-.24 0 .172.172 0 0 0 0 .24l1.74 1.736h-1.959a.172.172 0 0 0-.169.169.169.169 0 0 0 .169.169h1.959l-1.74 1.74a.172.172 0 0 0 0 .24.176.176 0 0 0 .24 0l1.736-1.74v1.956a.169.169 0 1 0 .338 0v-1.956l1.74 1.74a.176.176 0 0 0 .24 0 .172.172 0 0 0 0-.24l-1.74-1.74h1.956a.164.164 0 1 0 0-.328z" class="cls-12" data-name="Path 367" transform="translate(-426.714 -296.06)"/>
            <path id="Path_368" d="M661.678 425.245h-1.956l1.74-1.736a.172.172 0 0 0 0-.24.169.169 0 0 0-.24 0l-1.74 1.74v-1.959a.169.169 0 0 0-.169-.169.172.172 0 0 0-.169.169v1.959l-1.736-1.75a.169.169 0 0 0-.24 0 .172.172 0 0 0 0 .24l1.74 1.736h-1.959a.172.172 0 0 0-.169.169.169.169 0 0 0 .169.169h1.959l-1.74 1.74a.172.172 0 0 0 0 .24.176.176 0 0 0 .24 0l1.736-1.74v1.956a.169.169 0 0 0 .338 0v-1.956l1.74 1.74a.176.176 0 0 0 .24 0 .172.172 0 0 0 0-.24l-1.74-1.74h1.956a.164.164 0 1 0 0-.328z" class="cls-12" data-name="Path 368" transform="translate(-440.62 -296.06)"/>
            <path id="Path_369" d="M682.678 425.245h-1.956l1.74-1.736a.172.172 0 0 0 0-.24.169.169 0 0 0-.24 0l-1.74 1.74v-1.959a.169.169 0 0 0-.169-.169.172.172 0 0 0-.169.169v1.959l-1.736-1.75a.169.169 0 0 0-.24 0 .172.172 0 0 0 0 .24l1.74 1.736h-1.959a.172.172 0 0 0-.169.169.169.169 0 0 0 .169.169h1.959l-1.74 1.74a.172.172 0 0 0 0 .24.176.176 0 0 0 .24 0l1.736-1.74v1.956a.169.169 0 1 0 .338 0v-1.956l1.74 1.74a.176.176 0 0 0 .24 0 .172.172 0 0 0 0-.24l-1.74-1.74h1.956a.164.164 0 1 0 0-.328z" class="cls-12" data-name="Path 369" transform="translate(-454.526 -296.06)"/>
            <path id="Path_370" d="M703.678 425.245h-1.956l1.74-1.736a.172.172 0 0 0 0-.24.169.169 0 0 0-.24 0l-1.74 1.74v-1.959a.169.169 0 0 0-.169-.169.172.172 0 0 0-.169.169v1.959l-1.736-1.75a.169.169 0 0 0-.24 0 .172.172 0 0 0 0 .24l1.74 1.736h-1.959a.172.172 0 0 0-.169.169.169.169 0 0 0 .169.169h1.959l-1.74 1.74a.172.172 0 0 0 0 .24.176.176 0 0 0 .24 0l1.736-1.74v1.956a.169.169 0 1 0 .338 0v-1.956l1.74 1.74a.176.176 0 0 0 .24 0 .172.172 0 0 0 0-.24l-1.74-1.74h1.956a.164.164 0 1 0 0-.328z" class="cls-12" data-name="Path 370" transform="translate(-468.432 -296.06)"/>
            <path id="Path_371" d="M724.678 425.245h-1.956l1.74-1.736a.172.172 0 0 0 0-.24.169.169 0 0 0-.24 0l-1.74 1.74v-1.959a.169.169 0 0 0-.169-.169.172.172 0 0 0-.169.169v1.959l-1.736-1.75a.169.169 0 0 0-.24 0 .172.172 0 0 0 0 .24l1.74 1.736h-1.959a.172.172 0 0 0-.169.169.169.169 0 0 0 .169.169h1.959l-1.74 1.74a.172.172 0 0 0 0 .24.176.176 0 0 0 .24 0l1.736-1.74v1.956a.169.169 0 0 0 .338 0v-1.956l1.74 1.74a.176.176 0 0 0 .24 0 .172.172 0 0 0 0-.24l-1.74-1.74h1.956a.164.164 0 1 0 0-.328z" class="cls-12" data-name="Path 371" transform="translate(-482.338 -296.06)"/>
            <path id="Path_372" d="M745.678 425.245h-1.956l1.74-1.736a.172.172 0 0 0 0-.24.169.169 0 0 0-.24 0l-1.74 1.74v-1.959a.169.169 0 0 0-.169-.169.172.172 0 0 0-.169.169v1.959l-1.736-1.75a.169.169 0 0 0-.24 0 .172.172 0 0 0 0 .24l1.74 1.736h-1.959a.172.172 0 0 0-.169.169.169.169 0 0 0 .169.169h1.959l-1.74 1.74a.172.172 0 0 0 0 .24.176.176 0 0 0 .24 0l1.736-1.74v1.956a.169.169 0 1 0 .338 0v-1.956l1.74 1.74a.176.176 0 0 0 .24 0 .172.172 0 0 0 0-.24l-1.74-1.74h1.956a.164.164 0 1 0 0-.328z" class="cls-12" data-name="Path 372" transform="translate(-496.244 -296.06)"/>
            <path id="Path_373" d="M766.678 425.245h-1.956l1.74-1.736a.172.172 0 0 0 0-.24.169.169 0 0 0-.24 0l-1.74 1.74v-1.959a.169.169 0 0 0-.169-.169.172.172 0 0 0-.169.169v1.959l-1.736-1.75a.169.169 0 0 0-.24 0 .172.172 0 0 0 0 .24l1.74 1.736h-1.959a.172.172 0 0 0-.169.169.169.169 0 0 0 .169.169h1.959l-1.74 1.74a.172.172 0 0 0 0 .24.176.176 0 0 0 .24 0l1.736-1.74v1.956a.169.169 0 0 0 .338 0v-1.956l1.74 1.74a.176.176 0 0 0 .24 0 .172.172 0 0 0 0-.24l-1.74-1.74h1.956a.164.164 0 1 0 0-.328z" class="cls-12" data-name="Path 373" transform="translate(-510.149 -296.06)"/>
            <path id="Path_374" d="M836.734 495.79a6.053 6.053 0 0 0-.152-1.213c-.3-1.142-.99-2.523-2.118-2.868a17.779 17.779 0 0 1-3.358-1.419c-.2-3.621.628-7.327-.277-10.837a27.578 27.578 0 0 1-1.044-3.827c-.186-1.635.26-3.378-.392-4.885a4.821 4.821 0 0 0-2.855-2.466 15.214 15.214 0 0 0-3.807-.676c-1.622-.132-6.871-.753-8.7.7a1.91 1.91 0 0 0-.338.338 1.35 1.35 0 0 0-.108.176l-.017.027a1.372 1.372 0 0 0-.091.22 1.715 1.715 0 0 0-.057.253v.608c.024.3.068.608.068.909a1.957 1.957 0 0 1-.041.446 3.12 3.12 0 0 1-.561 1.094l-.061.088c-.037.054-.074.1-.108.159s-.061.095-.088.142-.054.078-.078.122a1.644 1.644 0 0 0-.088.172c0 .034-.037.064-.051.1a1.666 1.666 0 0 0-.1.284 1.885 1.885 0 0 0-.02.9 3.346 3.346 0 0 0 .463 1.064c.084.138.176.274.27.409l.236.321a7.288 7.288 0 0 0-.071.946 6.989 6.989 0 0 0 2.668 5.492 20.7 20.7 0 0 1-.043 4.288 27.587 27.587 0 0 1-.219 1.64 3.429 3.429 0 0 1-1.476-.112 6.967 6.967 0 0 0-.676-.26c-.983-.247-1.986.733-2.959.436a.4.4 0 0 1-.044.135 1.324 1.324 0 0 0-.676-.2 2.464 2.464 0 0 1-1.466-.841l-1.287-1.213a1.421 1.421 0 0 1-.223-.25 1.751 1.751 0 0 1-.155-.416 4.788 4.788 0 0 0-1.247-1.787.844.844 0 0 0-.368-.267.566.566 0 0 0-.169 0 1.475 1.475 0 0 0-.112-.135 3.163 3.163 0 0 0-.28-.284c-.615-.568-.676-1.054-1.209-1.689a16.246 16.246 0 0 1-1.263-1.909c-.044-.355-.1-.72-.179-1.088a14 14 0 0 0-.74-2.466l-.676-1.5-.078.078c-.49-.73-1.013-1.128-1.483-1.034-.787.162-1.176 1.689-1.051 3.686l.27 2.027a.625.625 0 0 0 .037.152 3.742 3.742 0 0 0-.074.73c0 .284.264.493.4.747a2.112 2.112 0 0 1 .338 1.152c-.017.145-.061.284-.068.426a1.638 1.638 0 0 0 .318.878l1.689 2.838.338.595.02.027a1.442 1.442 0 0 0 .453.52 6.189 6.189 0 0 0 .557 2.051c.057.128.122.25.189.372a11.951 11.951 0 0 0 1.594 2.071l.8.9c.794.885 1.588 1.774 2.449 2.591a3.281 3.281 0 0 0 1.094.767 1.24 1.24 0 0 0 1.23-.179v1.257a.706.706 0 0 1 .534 1.111 27.86 27.86 0 0 1-2.5 5.29 11.256 11.256 0 0 1 2.094 1.6 9.411 9.411 0 0 1 1.091 1.476c.03.25.054.5.068.743.25 4.027-1.307 8.023-2.7 11.861a9.241 9.241 0 0 0-.807 3.358 6.594 6.594 0 0 0-.757.544 5.012 5.012 0 0 1 .139 2.142 3.8 3.8 0 0 1-.28 1.351 9.5 9.5 0 0 1-.486.868 12.891 12.891 0 0 0-1.243 5.142c-.1 1.064.307 2.365-.176 3.317a13.57 13.57 0 0 0-1.689 5.2 5.206 5.206 0 0 1-.155 1.213c-.1.338-.291.625-.385.956a4.092 4.092 0 0 0-.068 1.351 12.932 12.932 0 0 1-.709 4.767 6.481 6.481 0 0 0-.557 3.736 5.266 5.266 0 0 0-1.429 3.138 4.954 4.954 0 0 1-.108.9 4.361 4.361 0 0 1-.405.861 7.54 7.54 0 0 0-.919 4.054 11.276 11.276 0 0 0-1.821 4.756c-.3 1.686-.432 3.4-.818 5.067-.513 2.2-1.442 4.429-1.625 6.685a4.709 4.709 0 0 0-1.777 3.334 14.84 14.84 0 0 1-.78 3.807c-.277.615-.676 1.166-.939 1.794a8.234 8.234 0 0 0-.405 1.544 6.023 6.023 0 0 0-.1 2.534 3.821 3.821 0 0 1-.99.753c.054-.209.1-.419.135-.632-.872.79-2.453.513-3.148 1.463a1.426 1.426 0 0 0 .338 1.956 2.7 2.7 0 0 0 .7.3 11.174 11.174 0 0 0 5.162.8 1.54 1.54 0 0 0 .584-.186 1.881 1.881 0 0 0 .544-.628c.26-.412.52-.824.777-1.236a16.054 16.054 0 0 0 1.9.443c.064.54.112 1.081.135 1.622.338.068.791.088.949-.226a.82.82 0 0 0 .057-.375c0-.24.034-.557.054-.882h.068a6.418 6.418 0 0 0 2.99-.6c-.361-2.993.831-5.919 1.865-8.75 1.091-2.98 2.027-6.013 2.969-9.047.676-2.135 1.422-4.2 2.084-6.341q1.25-4.054 2.51-8.108a86.631 86.631 0 0 1 1.152-3.547 55.265 55.265 0 0 1 3.132-6.969c.338-.638.676-1.27.953-1.932.338-.807.578-1.652.848-2.486a38.5 38.5 0 0 1 2.121-4.993c.024-.044.041-.084.064-.125.274 1.118.547 2.253.73 3.378a12.836 12.836 0 0 1 .057 4.175 13.769 13.769 0 0 0-.432 2.831c.051 1.321.757 2.52 1.1 3.794a14.438 14.438 0 0 1 .378 2.905c.095 1.52.919 3.226.338 4.635-1.807 4.463-.932 9.5-1.963 14.188-.53 2.405-2.155 4.665-2.027 7.125q.135 2.618.459 5.223a4.972 4.972 0 0 0 .422 1.584 5.821 5.821 0 0 0 .463.757c-.149.057-.274.209-.382.53a2.084 2.084 0 0 0 .75 2.365 3.282 3.282 0 0 0 .976.338 5.144 5.144 0 0 0 1.412.2 3.288 3.288 0 0 0 .443-.054 16.1 16.1 0 0 0 1.6.574 3.463 3.463 0 0 0 .044.416.517.517 0 0 0 .176.382.528.528 0 0 0 .27.047h1.832v-.459a1.51 1.51 0 0 0 1.166-.378 1.8 1.8 0 0 0 .338-.7q.75-2.544 1.49-5.091a16.276 16.276 0 0 0 .726-5.81c-.652-6.226.78-12.472.314-18.715a44.836 44.836 0 0 1 .574-11.229c.152-.838.338-1.689.405-2.523.149-1.574-.034-3.165.078-4.729.037-.547.111-1.091.179-1.635a78.525 78.525 0 0 0 .726-10.185 32.1 32.1 0 0 0-.209-3.378 1.929 1.929 0 0 0 .922-.541 2.3 2.3 0 0 0 .22-1.442 10.457 10.457 0 0 1 .909-3.452 41.009 41.009 0 0 0 1.277-4.75 16.58 16.58 0 0 0 .568-3.969q0-.2-.02-.405a1.047 1.047 0 0 0 .311-.338 1.963 1.963 0 0 0 .162-.625c.122-.861.247-1.726.368-2.591q.135-.929.267-1.855l1.074-7.5c.091-.652.186-1.3.277-1.949l.28-1.939c.03-.23.064-.459.088-.676.819-1.406.032-3.248-.056-4.816zm-8.962 28.066a6.175 6.175 0 0 1-.676-2.936h-.037a1.507 1.507 0 0 0-.044-.953c-.1-.247-.287-.456-.4-.7a2.575 2.575 0 0 1-.182-.946 25.785 25.785 0 0 1 .483-6.128l.135-.713a1.76 1.76 0 0 0 .385-.3 2.741 2.741 0 0 0 .436-.676c.382-.767.73-1.547 1.051-2.341.1-.257.257-.554.517-.618-.054 1.976.149 3.993-.655 5.777a3.656 3.656 0 0 0-.338.912c-.074.5.135 1.013.061 1.513-.037.26-.149.5-.193.757a.74.74 0 0 0 .2.716.59.59 0 0 0 .145.074c-.02.135-.037.274-.051.405-.027.277-.041.537-.057.7a21.786 21.786 0 0 0-.091 2.486c0 .9.034 1.79.02 2.7a1.834 1.834 0 0 1-.128.767 1.331 1.331 0 0 1-.257.338 8.779 8.779 0 0 0-.324-.834z" class="cls-15" data-name="Path 374" transform="translate(-525.82 -325.51)"/>
            <ellipse id="Ellipse_92" cx="1.905" cy="5.395" class="cls-16" data-name="Ellipse 92" rx="1.905" ry="5.395" transform="rotate(-11.6 869.116 -1261.317)"/>
            <path id="Path_375" d="M878.194 837.092a2.045 2.045 0 0 0 .75 2.341 3.336 3.336 0 0 0 .97.338 5.115 5.115 0 0 0 1.409.193c.584-.027 1.145-.257 1.73-.338a.271.271 0 0 1 .2.027.287.287 0 0 1 .074.236 8.935 8.935 0 0 0 .074.993.51.51 0 0 0 .176.382.528.528 0 0 0 .27.047h1.831a17.858 17.858 0 0 0-.524-4.777 1.067 1.067 0 0 0-.135-.338 1.118 1.118 0 0 0-.584-.338 3.265 3.265 0 0 0-1.415-.247 4.146 4.146 0 0 0-1.588.777 2.419 2.419 0 0 1-1.8.436c-.614-.161-1.124-.671-1.438.268z" class="cls-17" data-name="Path 375" transform="translate(-587.167 -569.361)"/>
            <path id="Path_376" d="M794.375 834.249a5.066 5.066 0 0 1-1.848 1.257l-.311.149a.216.216 0 0 0-.1.084.183.183 0 0 0 .034.152 2.186 2.186 0 0 0 2.48.9 1.314 1.314 0 0 0 .544-.284 1.783 1.783 0 0 0 .419-1.088 2.227 2.227 0 0 0-.051-1.247c-.475-1.055-.647-.572-1.167.077z" class="cls-16" data-name="Path 376" transform="translate(-530.231 -568.001)"/>
            <path id="Path_377" d="M797.34 838.793a.82.82 0 0 1-.057.375c-.159.311-.6.294-.946.226a22.736 22.736 0 0 0-.415-3.412c-.655-.03-1.128.591-1.48 1.149l-.905 1.436a1.873 1.873 0 0 1-.54.628 1.6 1.6 0 0 1-.584.186 11.077 11.077 0 0 1-5.145-.8 2.729 2.729 0 0 1-.7-.3 1.429 1.429 0 0 1-.338-1.953c.7-.946 2.27-.676 3.142-1.459a7.864 7.864 0 0 1-.446 1.611c1.165-.176 1.949-1.243 2.888-1.956a1.778 1.778 0 0 1 .824-.392 1.814 1.814 0 0 1 .676.071 7.927 7.927 0 0 1 2.973 1.463 3.206 3.206 0 0 1 1.064 1.108 8.2 8.2 0 0 1-.011 2.019z" class="cls-17" data-name="Path 377" transform="translate(-526.176 -568.383)"/>
            <circle id="Ellipse_93" cx="6.979" cy="6.979" r="6.979" class="cls-16" data-name="Ellipse 93" transform="translate(287.423 144.991)"/>
            <path id="Path_378" d="M914.9 615a16.552 16.552 0 0 1-.564 3.949 40.77 40.77 0 0 1-1.277 4.729 10.409 10.409 0 0 0-.9 3.446 2.291 2.291 0 0 1-.223 1.439 2.1 2.1 0 0 1-.986.564 1.233 1.233 0 0 0-.831.74 5.221 5.221 0 0 1-.7-1.547q-.909-2.784-1.689-5.6a.726.726 0 0 1 .047-.676.838.838 0 0 1 .294-.166 3.04 3.04 0 0 0 .936-.6 1.371 1.371 0 0 0 .311-.4 1.822 1.822 0 0 0 .132-.763c0-.9 0-1.787-.024-2.682a22.4 22.4 0 0 1 .095-2.476c0-.162.03-.422.057-.7.051-.53.152-1.145.439-1.351.429-.287 1.713.1 2.2.166.838.115 1.689.25 2.507.409A6.7 6.7 0 0 1 914.9 615z" class="cls-12" data-name="Path 378" transform="translate(-606.753 -421.821)"/>
            <path id="Path_379" d="M830.688 506.755c-.27.541-.919.8-1.419 1.142l-1.713 1.176a1.142 1.142 0 0 1-.848.29 1.115 1.115 0 0 1-.632-.591.115.115 0 0 0 0-.027l-.355-.595-1.689-2.831a1.61 1.61 0 0 1-.314-.872c0-.145.051-.28.064-.426a2.044 2.044 0 0 0-.338-1.149c-.135-.253-.405-.463-.4-.747a2.7 2.7 0 0 1 .189-1.091 2.209 2.209 0 0 1 .74-.79c.159-.115.321-.223.49-.338a.967.967 0 0 1 .294-.135c.28-.057.557.176.841.186 1.22.818 1.689 2.365 2.648 3.479.541.635.595 1.122 1.206 1.689.1.088.193.182.284.28a1.962 1.962 0 0 1 .3.439c.119.293.791.634.652.911z" class="cls-12" data-name="Path 379" transform="translate(-550.718 -346.971)"/>
            <path id="Path_380" d="M874.963 507.932a6.289 6.289 0 0 1 .75 3.4 2.124 2.124 0 0 1-.294.9 2.893 2.893 0 0 1-2.4.926 1.412 1.412 0 0 0-1.041.338.946.946 0 0 0 .064 1.155 2.609 2.609 0 0 0 1.034.676 9.153 9.153 0 0 0 4.449.986c.709-.068 1.4-.274 2.1-.378a22.1 22.1 0 0 1 2.317-.128c.919-.034 1.834-.125 2.75-.216l2.425-.24a.54.54 0 0 0 .362-.132c.179-.209-.051-.517-.274-.676-1.287-.953-2.925-1.608-3.659-3.04a17.9 17.9 0 0 1-.693-2.209 18.562 18.562 0 0 1-.8-2.132 14.105 14.105 0 0 1-.112-1.966 2.639 2.639 0 0 0-.676-1.8 2.817 2.817 0 0 0-1.838-.591 5.949 5.949 0 0 0-4.479 1.453c-.307.307-.571.676-.888.953s-.75.358-.541.723.622.591.845.912a7.77 7.77 0 0 1 .591 1.088z" class="cls-16" data-name="Path 380" transform="translate(-583.014 -348.979)"/>
            <path id="Path_381" d="M874.386 530.068a38.378 38.378 0 0 1-2.067 7.611 28.647 28.647 0 0 0-1.216 3.412c-.26 1.047-.209 2.169-.449 3.219a87.105 87.105 0 0 0-.834 3.936 25.8 25.8 0 0 0-.48 6.114 2.555 2.555 0 0 0 .182.943c.111.243.291.453.4.7a1.689 1.689 0 0 1-.095 1.351 3.912 3.912 0 0 1-.7 1.054c-3.148.939-6.516.632-9.8.831-3.023.182-6.081.8-9.06.287-.338-1.351.226-2.767.709-4.084 1.4-3.827 2.953-7.814 2.7-11.824a12.24 12.24 0 0 0-.159-1.4 18.5 18.5 0 0 1 .9-8.537 14.652 14.652 0 0 0 .385-5.331 9.734 9.734 0 0 1-.024-1.747 3.07 3.07 0 0 1 .635-1.632c0-.024.03-.047.047-.071a.463.463 0 0 1 .253 0 .216.216 0 0 0 .169 0l.037-.024a.084.084 0 0 1 .1 0c.078.047.122.209.291.24a6.729 6.729 0 0 0 .753.071 4.044 4.044 0 0 1 .9.128H858a2.639 2.639 0 0 0 1.311-.112 3.484 3.484 0 0 0 .8-.311c.074-.081.541-.155.635-.213.307-.186.24-1.057.3-1.416a3.9 3.9 0 0 1 .253-1.047 1.784 1.784 0 0 1 1.446-.841 7.7 7.7 0 0 1 1.733.155c1.26.179 2.55.149 3.787.439a2.821 2.821 0 0 0 1.872.081c.155.037.179.172.179.338a2.161 2.161 0 0 1-.095.463c-.216.932.517 1.79 1.193 2.466a3.822 3.822 0 0 0 1 .794c.338.156.676.22 1.013.389a1.845 1.845 0 0 1 .676.618 2.581 2.581 0 0 1 .385.983 5.879 5.879 0 0 1-.102 1.967z" class="cls-12" data-name="Path 381" transform="translate(-568.677 -361.288)"/>
            <path id="Path_382" d="M880.617 536.9a38.381 38.381 0 0 1-2.067 7.611 28.662 28.662 0 0 0-1.216 3.412c-.26 1.047-.209 2.169-.449 3.219a87.105 87.105 0 0 0-.834 3.936 2.524 2.524 0 0 1-.22.112 5.186 5.186 0 0 1-1.324.426 8.107 8.107 0 0 1-2.473-.081l-4.821-.645c-1.926-.26-3.976-.574-5.405-1.878a11.533 11.533 0 0 1-1.885-2.574 12.239 12.239 0 0 0-.159-1.4 18.5 18.5 0 0 1 .9-8.537 14.65 14.65 0 0 0 .385-5.331 9.735 9.735 0 0 1-.024-1.747 3.071 3.071 0 0 1 .635-1.632 2.4 2.4 0 0 1 .3-.068 1.5 1.5 0 0 1 .206-.027h.1a1.474 1.474 0 0 1 .338.041 6.114 6.114 0 0 1 .676.26h.041a2.588 2.588 0 0 0 .9.128c.446 0 .905-.071 1.351-.1a2.493 2.493 0 0 1 1.6.287 9.6 9.6 0 0 1 .892.814 3.83 3.83 0 0 0 1.125.611 11.955 11.955 0 0 0 8.993-.189 1.76 1.76 0 0 1 .9-.23 1.689 1.689 0 0 1 .649.277c.2.118.4.233.608.338a2.581 2.581 0 0 1 .385.983 5.879 5.879 0 0 1-.107 1.984z" class="cls-18" data-name="Path 382" transform="translate(-574.909 -368.119)"/>
            <path id="Path_383" d="M877.841 533.392a18.023 18.023 0 0 1-3.851-1.689 1.726 1.726 0 0 0-.649-.277 1.814 1.814 0 0 0-.905.23 11.949 11.949 0 0 1-8.989.189 3.907 3.907 0 0 1-1.125-.611 10.1 10.1 0 0 0-.892-.814c-1.111-.72-2.648.125-3.892-.338a6.88 6.88 0 0 0-.676-.26c-.983-.247-1.983.733-2.949.436a16.438 16.438 0 0 0-.794 3.013 32.854 32.854 0 0 0-.22 3.554c0 .713-.034 1.426 0 2.138a.7.7 0 0 1 .534 1.108 27.7 27.7 0 0 1-2.493 5.273 11.453 11.453 0 0 1 2.088 1.594c1.182 1.25 1.763 3 3.04 4.159 1.439 1.3 3.49 1.618 5.405 1.875l4.821.645a8.237 8.237 0 0 0 2.476.084 5.209 5.209 0 0 0 1.321-.429 2.364 2.364 0 0 0 .736-.487 2.7 2.7 0 0 0 .436-.676c.382-.763.73-1.544 1.051-2.334.112-.28.28-.608.584-.632 1.79-1.615 3.479-3.27 5.27-4.885a11.682 11.682 0 0 0 1.922-2.027c.888-1.314.081-3.176 0-4.763a6.012 6.012 0 0 0-.152-1.206c-.29-1.151-.973-2.529-2.097-2.87z" class="cls-6" data-name="Path 383" transform="translate(-569.189 -366.848)"/>
            <path id="Path_384" d="M836.626 517.7c-.27.54-.919.8-1.419 1.142l-1.713 1.176a1.142 1.142 0 0 1-.848.291 1.115 1.115 0 0 1-.632-.591v-.243a2.266 2.266 0 0 1 .108-.807 2.516 2.516 0 0 1 .757-.973 6.2 6.2 0 0 1 2.219-1.351.76.76 0 0 1 .405-.04.531.531 0 0 1 .149.064 1.959 1.959 0 0 1 .3.439c.14.271.813.613.674.893z" class="cls-18" data-name="Path 384" transform="translate(-556.656 -357.913)"/>
            <path id="Path_385" d="M841.48 521.686a2.461 2.461 0 0 1-1.463-.838l-1.28-1.189a1.2 1.2 0 0 1-.223-.25 1.76 1.76 0 0 1-.155-.416 4.767 4.767 0 0 0-1.243-1.784.811.811 0 0 0-.368-.263.741.741 0 0 0-.409.041 6.178 6.178 0 0 0-2.219 1.351 2.523 2.523 0 0 0-.757.973 2.244 2.244 0 0 0-.108.807 6.2 6.2 0 0 0 .588 2.581c.057.125.122.25.189.372a11.7 11.7 0 0 0 1.588 2.064l.8.9c.791.885 1.581 1.77 2.439 2.584a3.222 3.222 0 0 0 1.094.763 1.223 1.223 0 0 0 1.257-.2 1.818 1.818 0 0 0 .358-.642 12.637 12.637 0 0 0 1.044-4.213 15.952 15.952 0 0 0-.074-1.747c-.047-.617-.483-.857-1.058-.894z" class="cls-6" data-name="Path 385" transform="translate(-557.477 -358.341)"/>
            <path id="Path_386" d="M838.721 640.486a78.063 78.063 0 0 1-.721 10.158c-.068.544-.142 1.088-.179 1.632-.111 1.578.071 3.162-.078 4.729-.078.848-.253 1.689-.4 2.517a44.751 44.751 0 0 0-.574 11.2c.466 6.226-.963 12.455-.314 18.664a15.094 15.094 0 0 1-.2 3.611 15.3 15.3 0 0 1-.524 2.182q-.74 2.537-1.486 5.067a1.757 1.757 0 0 1-.338.7 1.6 1.6 0 0 1-1.267.375 14.613 14.613 0 0 1-5.554-1.723 1.937 1.937 0 0 1-.557-.338c-.368-.382-.338-.983-.5-1.486a14.149 14.149 0 0 0-.851-1.493 4.877 4.877 0 0 1-.368-1.537q-.338-2.594-.459-5.209c-.128-2.453 1.493-4.709 2.027-7.094 1.013-4.689.155-9.716 1.956-14.165.568-1.405-.257-3.108-.338-4.621a14.651 14.651 0 0 0-.378-2.9c-.338-1.27-1.051-2.466-1.1-3.784a13.9 13.9 0 0 1 .429-2.821 12.677 12.677 0 0 0-.057-4.165c-.179-1.135-.453-2.27-.726-3.378l-.061.125a38.182 38.182 0 0 0-2.118 4.983c-.27.828-.507 1.672-.845 2.476-.277.676-.618 1.294-.953 1.929a55.392 55.392 0 0 0-3.125 6.942c-.419 1.169-.787 2.365-1.152 3.537l-2.5 8.108c-.676 2.132-1.415 4.192-2.078 6.321-.936 3.04-1.871 6.054-2.959 9.026-1.013 2.821-2.219 5.743-1.858 8.722a6.418 6.418 0 0 1-2.983.6 17.467 17.467 0 0 1-5.067-1.23 3.94 3.94 0 0 1-1.75-1.04c-.75-.916-.564-2.257-.338-3.422a8.266 8.266 0 0 1 .405-1.541c.257-.622.676-1.172.939-1.787a14.991 14.991 0 0 0 .774-3.794 4.681 4.681 0 0 1 1.77-3.328c.186-2.25 1.111-4.469 1.622-6.669.385-1.665.513-3.378.818-5.067a11.131 11.131 0 0 1 1.814-4.746 7.523 7.523 0 0 1 .919-4.054 4.436 4.436 0 0 0 .4-.861 4.955 4.955 0 0 0 .108-.892 5.273 5.273 0 0 1 1.426-3.132 6.354 6.354 0 0 1 .554-3.716 12.91 12.91 0 0 0 .709-4.753 4.169 4.169 0 0 1 .064-1.351c.095-.338.28-.625.388-.949a5.4 5.4 0 0 0 .152-1.213 14.026 14.026 0 0 1 1.689-5.182c.486-.953.074-2.246.176-3.307a12.783 12.783 0 0 1 1.243-5.125c.162-.291.338-.568.483-.868a3.758 3.758 0 0 0 .28-1.351 4.977 4.977 0 0 0-.138-2.135c1.807-1.5 4.273-1.926 6.625-2.027a41.3 41.3 0 0 0 7.03-.388c.676-.152 1.351-.362 2.064-.463a13.354 13.354 0 0 1 4.858.5 5.787 5.787 0 0 0 .676 2.929 31.439 31.439 0 0 1 2.5 12.067z" class="cls-19" data-name="Path 386" transform="translate(-534.246 -429.846)"/>
            <path id="Path_387" d="M885.509 673.29l-3.882 8.729c-.179-1.135-.453-2.27-.726-3.378l-.061.125v-.182l2.115-4.652z" class="cls-18" data-name="Path 387" transform="translate(-588.989 -461.877)"/>
            <path id="Path_388" d="M918.6 615a1.459 1.459 0 0 1-.77.287 3.746 3.746 0 0 1-1.263-.172l-3.04-.76a1.491 1.491 0 0 1-.277-.1c.051-.53.152-1.145.439-1.351.429-.287 1.713.1 2.2.166.838.115 1.689.25 2.507.409A6.694 6.694 0 0 1 918.6 615z" class="cls-18" data-name="Path 388" transform="translate(-610.45 -421.821)"/>
            <path id="Path_389" d="M920.554 557.7c.064.28.155.557.209.841a6.418 6.418 0 0 1-.071 2.091l-.277 1.932-.277 1.942-1.071 7.476-.263 1.851-.372 2.584a1.859 1.859 0 0 1-.162.622 1.294 1.294 0 0 1-1.057.625 3.831 3.831 0 0 1-1.263-.172l-3.04-.763a.953.953 0 0 1-.372-.152.733.733 0 0 1-.2-.713c.044-.257.155-.5.193-.753.074-.5-.135-1.013-.061-1.51a3.759 3.759 0 0 1 .338-.909c1.013-2.24.426-4.854.77-7.287a11.047 11.047 0 0 1 2.344-5.216 14.977 14.977 0 0 1 2.588-2.54 5.209 5.209 0 0 1 1.456-1.013c.615-.136.487.634.588 1.064z" class="cls-6" data-name="Path 389" transform="translate(-609.832 -384.619)"/>
            <path id="Path_390" d="M862.412 470.309c-.223.709.125 1.49-.034 2.213-.172.8-.922 1.351-1.135 2.152-.338 1.22.7 2.331 1.453 3.344 2.8 3.763 2.436 8.972 1.476 13.563a70.036 70.036 0 0 1-3.192 10.81 8.284 8.284 0 0 1-1.72 3.017 8.892 8.892 0 0 1 4.763-.463c1.973.547 3.675 2.463 5.675 2.027 1.2-.267 2.047-1.334 3.128-1.926 2.027-1.091 4.469-.405 6.729-.054a2.641 2.641 0 0 0 1.47-.074 2.442 2.442 0 0 0 .892-.821 8.33 8.33 0 0 0 1.736-4.493 5.763 5.763 0 0 0-1.653-4.435 9.491 9.491 0 0 1-1.422-1.351 4.2 4.2 0 0 1-.557-2.047c-.267-3.716.638-7.51-.294-11.1a27.4 27.4 0 0 1-1.037-3.817c-.186-1.632.257-3.378-.392-4.871a4.777 4.777 0 0 0-2.848-2.459 15.6 15.6 0 0 0-3.8-.676c-1.85-.161-8.465-.955-9.238 1.461z" class="cls-19" data-name="Path 390" transform="translate(-574.699 -326.331)"/>
            <g id="Group_430" class="cls-20" data-name="Group 430" transform="translate(284.561 143.204)">
                <path id="Path_391" d="M867.575 501.425a69.892 69.892 0 0 1-3.176 10.766c.233-.463.429-.949.615-1.432a69.666 69.666 0 0 0 3.192-10.81c.963-4.594 1.331-9.8-1.473-13.563-.676-.9-1.544-1.872-1.513-2.926a3.6 3.6 0 0 0-.574 1.061c-.338 1.22.7 2.331 1.453 3.344 2.801 3.76 2.436 8.969 1.476 13.56z" data-name="Path 391" transform="translate(-862.664 -479.379)"/>
                <path id="Path_392" d="M868.436 474.025a3.285 3.285 0 0 0 .595-1.138 5.782 5.782 0 0 0-.041-1.507 1.625 1.625 0 0 0-.561.774 6.678 6.678 0 0 0 .007 1.871z" data-name="Path 392" transform="translate(-865.277 -471.38)"/>
                <path id="Path_393" d="M882.553 566.966a2.434 2.434 0 0 1-.892.818 2.581 2.581 0 0 1-1.47.074c-2.26-.338-4.729-1.034-6.729.057-1.084.588-1.926 1.655-3.132 1.926-2 .446-3.7-1.469-5.672-2.027a7.919 7.919 0 0 0-4.28.338 5.9 5.9 0 0 1-1.118 1.615 8.891 8.891 0 0 1 4.763-.463c1.973.547 3.675 2.463 5.675 2.027 1.2-.267 2.047-1.334 3.128-1.926 2.027-1.091 4.469-.405 6.729-.054a2.641 2.641 0 0 0 1.469-.074 2.442 2.442 0 0 0 .892-.821 9.082 9.082 0 0 0 1.4-2.676 9.829 9.829 0 0 1-.763 1.186z" data-name="Path 393" transform="translate(-859.26 -533.89)"/>
            </g>
        </g>
    </g>
</svg>
