<svg xmlns="http://www.w3.org/2000/svg" width="819" height="978" viewBox="0 0 819 978">
    <defs>
        <style>
            .cls-1{fill:#f9b034;opacity:.997}.cls-2{fill:#f6d738}.cls-3{fill:#f3cc30}.cls-4{fill:#edbd31}.cls-5{fill:#f7db5e}.cls-6{fill:#a5622b}
        </style>
    </defs>
    <g id="Group_3567" data-name="Group 3567" transform="translate(-25 -102)">
        <path id="Path_4461" d="M33.608 0H819s-71.468 246.935-71.468 491.435S819 978 819 978H32.608C10.733 978 0 962.121 0 945V32C0 14.879 11.733 0 33.608 0z" class="cls-1" data-name="Path 4461" transform="translate(25 102)"/>
        <g id="Group_3244" data-name="Group 3244" transform="rotate(-107 252.944 269.516)">
            <g id="Group_644" data-name="Group 644">
                <ellipse id="Ellipse_116" cx="28.476" cy="28.475" class="cls-2" data-name="Ellipse 116" rx="28.476" ry="28.475"/>
            </g>
            <g id="Group_645" data-name="Group 645" transform="translate(4.309 4.309)">
                <ellipse id="Ellipse_117" cx="24.167" cy="24.167" class="cls-3" data-name="Ellipse 117" rx="24.167" ry="24.167"/>
            </g>
            <g id="Group_646" data-name="Group 646" transform="translate(8.111 7.849)">
                <path id="Path_2321" d="M33.008 0a24.171 24.171 0 0 1-20.364 37.184A24.053 24.053 0 0 1 0 33.615 24.169 24.169 0 1 0 33.008 0z" class="cls-4" data-name="Path 2321"/>
            </g>
            <g id="Group_647" data-name="Group 647" transform="translate(6.954 6.982)">
                <path id="Path_2322" d="M1.588 23.7a21.333 21.333 0 0 1 38.243-13A21.334 21.334 0 1 0 4.423 34.337 21.235 21.235 0 0 1 1.588 23.7z" class="cls-5" data-name="Path 2322"/>
            </g>
            <g id="Group_649" data-name="Group 649" transform="translate(16.213 18.619)">
                <path id="Path_13" d="M23.375 13.442a2.935 2.935 0 0 1-.951.788 6.456 6.456 0 0 1-.648.3 3.862 3.862 0 0 0-.313-.645 4.331 4.331 0 0 0-.8-.965 9.191 9.191 0 0 0-4.651-1.8 8.473 8.473 0 0 0 3.706-1.81 4.247 4.247 0 0 0 .437-.476l-.245-.084a14.259 14.259 0 0 0-3.344-.695 3.132 3.132 0 0 1-.825 1.651 4.477 4.477 0 0 1-3.183.93H10.4V4.223a.892.892 0 0 1 .33-.8 3.4 3.4 0 0 1 1.556-.223 5.584 5.584 0 0 1 3.493.788 2.569 2.569 0 0 1 .792 1.415 4.807 4.807 0 0 1 .107.726q-.356-.029-.721-.05-.928-.053-1.922-.054-1.517 0-2.923.11v1.277a18.953 18.953 0 0 1 2.388-.147q.316 0 .627.011c.21-.007.423-.011.641-.011q.608 0 1.189.034.362.021.712.054a14.9 14.9 0 0 1 3.476.728c.141.049.276.095.409.139.239.08.466.157.678.24a3.551 3.551 0 0 1 1.032.574h2.374l-.028-.219-.3-2.772h-1.103l-1.363 1.05-.207-.057q-.354-.1-.7-.185a4.28 4.28 0 0 0 .001-.736A4 4 0 0 0 19.4 3.273a6.474 6.474 0 0 0-4.256-1.286h-.069V0h-1.712v1.987h-2.047V0H9.6v1.987H3.541v1.2h1.487a1.739 1.739 0 0 1 .977.207.638.638 0 0 1 .295.546v10.107a5.055 5.055 0 0 1-.715-.57 2.777 2.777 0 0 1-.939-1.924v-.065a2.688 2.688 0 0 1 .94-1.941V7.1q-.456.132-.9.28Q.06 8.944 0 11.554v.068q0 2.393 4.062 3.926.737.278 1.519.505.352.1.715.194a26.34 26.34 0 0 0 4.1.683 40.314 40.314 0 0 0 3.523.15c1.048 0 2.022-.041 2.936-.121q.375-.033.736-.074a20.068 20.068 0 0 0 4.013-.855c.149-.049.293-.1.431-.152q.374-.14.7-.292a4.732 4.732 0 0 0 2.276-1.979zm-6.445 2.2c-.629.049-1.293.075-2 .075q-.478 0-.926-.015-.355.014-.717.014a18.7 18.7 0 0 1-2.172-.123 15.583 15.583 0 0 1-.715-.1v-3.648h2.911a4.493 4.493 0 0 1 3.234 1.067 3.568 3.568 0 0 1 1.011 1.954 5.483 5.483 0 0 1 .088.709q-.351.039-.714.068z" class="cls-6" data-name="Path 13"/>
                <path id="Path_14" d="M13.877.974a3.138 3.138 0 0 1-.8 1.3 3.975 3.975 0 0 1-2.866 1H7.724a.775.775 0 0 1-.634-.285 1.279 1.279 0 0 1-.233-.828V1a27.074 27.074 0 0 1-4.1-.663v1.77A1.358 1.358 0 0 1 2.445 3a.855.855 0 0 1-.686.271H0v1.2h6.062v1.58h1.713V4.474h2.048v1.58h1.713v-1.59a11.06 11.06 0 0 0 3.542-.65A5.75 5.75 0 0 0 17.517 2.3a4.294 4.294 0 0 0 .952-2.3l-.181.061a21.16 21.16 0 0 1-4.411.913z" class="cls-6" data-name="Path 14" transform="translate(3.541 16.647)"/>
            </g>
        </g>
        <g id="Group_3561" data-name="Group 3561" transform="rotate(-37 762.122 -765.458)">
            <g id="Group_644-2" data-name="Group 644">
                <ellipse id="Ellipse_116-2" cx="28.475" cy="28.475" class="cls-2" data-name="Ellipse 116" rx="28.475" ry="28.475"/>
            </g>
            <g id="Group_645-2" data-name="Group 645" transform="translate(4.309 4.309)">
                <ellipse id="Ellipse_117-2" cx="24.167" cy="24.167" class="cls-3" data-name="Ellipse 117" rx="24.167" ry="24.167"/>
            </g>
            <g id="Group_646-2" data-name="Group 646" transform="translate(8.111 7.849)">
                <path id="Path_2321-2" d="M33.008 0a24.171 24.171 0 0 1-20.364 37.184A24.052 24.052 0 0 1 0 33.615 24.169 24.169 0 1 0 33.008 0z" class="cls-4" data-name="Path 2321"/>
            </g>
            <g id="Group_647-2" data-name="Group 647" transform="translate(6.954 6.982)">
                <path id="Path_2322-2" d="M1.588 23.7a21.333 21.333 0 0 1 38.243-13A21.334 21.334 0 1 0 4.423 34.337 21.235 21.235 0 0 1 1.588 23.7z" class="cls-5" data-name="Path 2322"/>
            </g>
            <g id="Group_649-2" data-name="Group 649" transform="translate(16.213 18.619)">
                <path id="Path_13-2" d="M23.375 13.442a2.935 2.935 0 0 1-.951.788 6.456 6.456 0 0 1-.648.3 3.862 3.862 0 0 0-.313-.645 4.331 4.331 0 0 0-.8-.965 9.191 9.191 0 0 0-4.651-1.8 8.473 8.473 0 0 0 3.706-1.81 4.247 4.247 0 0 0 .437-.476l-.245-.084a14.259 14.259 0 0 0-3.344-.695 3.132 3.132 0 0 1-.825 1.651 4.477 4.477 0 0 1-3.183.93H10.4V4.223a.892.892 0 0 1 .33-.8 3.4 3.4 0 0 1 1.556-.223 5.584 5.584 0 0 1 3.493.788 2.569 2.569 0 0 1 .792 1.415 4.807 4.807 0 0 1 .107.726q-.356-.029-.721-.05-.928-.053-1.922-.054-1.517 0-2.923.11v1.277a18.952 18.952 0 0 1 2.388-.147q.316 0 .627.011c.21-.007.423-.011.641-.011q.608 0 1.189.034.362.021.712.054a14.9 14.9 0 0 1 3.476.728c.141.049.276.095.409.139.239.08.466.157.678.24a3.551 3.551 0 0 1 1.032.574h2.374l-.028-.219-.3-2.772h-1.103l-1.363 1.05-.207-.057q-.354-.1-.7-.185a4.28 4.28 0 0 0 .001-.736A4 4 0 0 0 19.4 3.273a6.474 6.474 0 0 0-4.256-1.286h-.069V0h-1.712v1.987h-2.047V0H9.6v1.987H3.541v1.2h1.487a1.739 1.739 0 0 1 .977.207.638.638 0 0 1 .295.546v10.107a5.055 5.055 0 0 1-.715-.57 2.777 2.777 0 0 1-.939-1.924v-.065a2.688 2.688 0 0 1 .94-1.941V7.1q-.456.132-.9.28Q.06 8.944 0 11.554v.068q0 2.393 4.062 3.926.737.278 1.519.505.352.1.715.194a26.34 26.34 0 0 0 4.1.683 40.314 40.314 0 0 0 3.523.15c1.048 0 2.022-.041 2.936-.121q.375-.033.736-.074a20.068 20.068 0 0 0 4.013-.855c.149-.049.293-.1.431-.152q.374-.14.7-.292a4.732 4.732 0 0 0 2.276-1.979zm-6.445 2.2c-.629.049-1.293.075-2 .075q-.478 0-.926-.015-.355.014-.717.014a18.7 18.7 0 0 1-2.172-.123 15.583 15.583 0 0 1-.715-.1v-3.648h2.911a4.493 4.493 0 0 1 3.234 1.067 3.568 3.568 0 0 1 1.011 1.954 5.482 5.482 0 0 1 .088.709q-.351.039-.714.068z" class="cls-6" data-name="Path 13"/>
                <path id="Path_14-2" d="M13.877.974a3.138 3.138 0 0 1-.8 1.3 3.975 3.975 0 0 1-2.866 1H7.724a.775.775 0 0 1-.634-.285 1.279 1.279 0 0 1-.233-.828V1a27.074 27.074 0 0 1-4.1-.663v1.77A1.358 1.358 0 0 1 2.445 3a.855.855 0 0 1-.686.271H0v1.2h6.062v1.58h1.713V4.474h2.048v1.58h1.713v-1.59a11.06 11.06 0 0 0 3.542-.65A5.75 5.75 0 0 0 17.517 2.3a4.294 4.294 0 0 0 .952-2.3l-.181.061a21.16 21.16 0 0 1-4.411.913z" class="cls-6" data-name="Path 14" transform="translate(3.541 16.647)"/>
            </g>
        </g>
        <g id="Group_3496" data-name="Group 3496" transform="rotate(-90 241.492 151.492)">
            <g id="Group_644-3" data-name="Group 644">
                <ellipse id="Ellipse_116-3" cx="16.921" cy="16.921" class="cls-2" data-name="Ellipse 116" rx="16.921" ry="16.921"/>
            </g>
            <g id="Group_645-3" data-name="Group 645" transform="translate(2.56 2.56)">
                <ellipse id="Ellipse_117-3" cx="14.361" cy="14.361" class="cls-3" data-name="Ellipse 117" rx="14.361" ry="14.361"/>
            </g>
            <g id="Group_646-3" data-name="Group 646" transform="translate(4.82 4.664)">
                <path id="Path_2321-3" d="M19.615 0a14.363 14.363 0 0 1-12.1 22.1A14.293 14.293 0 0 1 0 19.975 14.362 14.362 0 1 0 19.615 0z" class="cls-4" data-name="Path 2321"/>
            </g>
            <g id="Group_647-3" data-name="Group 647" transform="translate(4.133 4.149)">
                <path id="Path_2322-3" d="M.944 14.086a12.677 12.677 0 0 1 22.725-7.727A12.678 12.678 0 1 0 2.628 20.4a12.619 12.619 0 0 1-1.684-6.314z" class="cls-5" data-name="Path 2322"/>
            </g>
            <g id="Group_649-3" data-name="Group 649" transform="translate(9.635 11.064)">
                <path id="Path_13-3" d="M13.89 7.988a1.744 1.744 0 0 1-.565.468 3.837 3.837 0 0 1-.385.181 2.3 2.3 0 0 0-.186-.383 2.574 2.574 0 0 0-.475-.574 5.462 5.462 0 0 0-2.764-1.069 5.035 5.035 0 0 0 2.2-1.076 2.524 2.524 0 0 0 .259-.283l-.146-.05a8.473 8.473 0 0 0-1.984-.412 1.861 1.861 0 0 1-.49.981 2.661 2.661 0 0 1-1.891.552H6.179V2.509a.53.53 0 0 1 .2-.476A2.018 2.018 0 0 1 7.3 1.9a3.318 3.318 0 0 1 2.076.468 1.527 1.527 0 0 1 .471.841 2.856 2.856 0 0 1 .064.431q-.211-.017-.428-.03-.551-.032-1.142-.032-.9 0-1.737.065V4.4a11.263 11.263 0 0 1 1.418-.088q.188 0 .373.007c.125 0 .252-.007.381-.007q.361 0 .706.02.215.012.423.032a8.855 8.855 0 0 1 2.065.436l.243.083c.142.048.277.093.4.142a2.11 2.11 0 0 1 .613.341h1.414l-.017-.13-.175-1.646h-.657l-.81.625-.123-.034q-.21-.058-.416-.11c.006-.074.01-.149.01-.225s0-.143-.009-.212a2.376 2.376 0 0 0-.913-1.689A3.847 3.847 0 0 0 9 1.181h-.041V0H7.941v1.181H6.724V0H5.706v1.181H2.1V1.9h.884a1.033 1.033 0 0 1 .58.123.379.379 0 0 1 .173.323v6.002a3 3 0 0 1-.425-.338 1.65 1.65 0 0 1-.558-1.144v-.039a1.6 1.6 0 0 1 .559-1.154V4.218q-.271.078-.533.166Q.036 5.315 0 6.866V6.9q0 1.428 2.414 2.339.438.165.9.3.209.061.425.115a15.652 15.652 0 0 0 2.437.406 23.843 23.843 0 0 0 2.093.089c.623 0 1.2-.024 1.745-.072q.223-.019.438-.044a11.925 11.925 0 0 0 2.384-.508c.089-.029.174-.06.256-.09q.222-.083.414-.174a2.812 2.812 0 0 0 1.352-1.176zM10.06 9.3c-.374.029-.768.045-1.19.045q-.284 0-.55-.009-.211.008-.426.009A11.112 11.112 0 0 1 6.6 9.266a10.881 10.881 0 0 1-.425-.059V7.039h1.73a2.67 2.67 0 0 1 1.922.634 2.12 2.12 0 0 1 .6 1.161 3.258 3.258 0 0 1 .052.421q-.203.024-.419.045z" class="cls-6" data-name="Path 13"/>
                <path id="Path_14-3" d="M8.247.579a1.865 1.865 0 0 1-.478.773 2.362 2.362 0 0 1-1.7.592H4.59a.461.461 0 0 1-.377-.169.76.76 0 0 1-.138-.492V.6A16.088 16.088 0 0 1 1.638.2v1.05a.807.807 0 0 1-.184.531.508.508 0 0 1-.407.161H0v.715h3.6V3.6h1.02v-.941h1.217V3.6h1.018v-.947a6.572 6.572 0 0 0 2.1-.386 3.417 3.417 0 0 0 1.449-.9A2.552 2.552 0 0 0 10.975 0l-.107.036a12.574 12.574 0 0 1-2.621.543z" class="cls-6" data-name="Path 14" transform="translate(2.104 9.892)"/>
            </g>
        </g>
        <g id="Group_3564" data-name="Group 3564" transform="rotate(-90 147.992 40.991)">
            <g id="Group_644-4" data-name="Group 644">
                <ellipse id="Ellipse_116-4" cx="16.921" cy="16.921" class="cls-2" data-name="Ellipse 116" rx="16.921" ry="16.921"/>
            </g>
            <g id="Group_645-4" data-name="Group 645" transform="translate(2.56 2.56)">
                <ellipse id="Ellipse_117-4" cx="14.361" cy="14.361" class="cls-3" data-name="Ellipse 117" rx="14.361" ry="14.361"/>
            </g>
            <g id="Group_646-4" data-name="Group 646" transform="translate(4.82 4.664)">
                <path id="Path_2321-4" d="M19.615 0a14.363 14.363 0 0 1-12.1 22.1A14.293 14.293 0 0 1 0 19.975 14.362 14.362 0 1 0 19.615 0z" class="cls-4" data-name="Path 2321"/>
            </g>
            <g id="Group_647-4" data-name="Group 647" transform="translate(4.133 4.149)">
                <path id="Path_2322-4" d="M.944 14.086a12.677 12.677 0 0 1 22.725-7.727A12.678 12.678 0 1 0 2.628 20.4a12.619 12.619 0 0 1-1.684-6.314z" class="cls-5" data-name="Path 2322"/>
            </g>
            <g id="Group_649-4" data-name="Group 649" transform="translate(9.635 11.064)">
                <path id="Path_13-4" d="M13.89 7.988a1.744 1.744 0 0 1-.565.468 3.837 3.837 0 0 1-.385.181 2.3 2.3 0 0 0-.186-.383 2.574 2.574 0 0 0-.475-.574 5.462 5.462 0 0 0-2.764-1.069 5.035 5.035 0 0 0 2.2-1.076 2.524 2.524 0 0 0 .259-.283l-.146-.05a8.473 8.473 0 0 0-1.984-.412 1.861 1.861 0 0 1-.49.981 2.661 2.661 0 0 1-1.891.552H6.179V2.509a.53.53 0 0 1 .2-.476A2.018 2.018 0 0 1 7.3 1.9a3.318 3.318 0 0 1 2.076.468 1.527 1.527 0 0 1 .471.841 2.856 2.856 0 0 1 .064.431q-.211-.017-.428-.03-.551-.032-1.142-.032-.9 0-1.737.065V4.4a11.263 11.263 0 0 1 1.418-.088q.188 0 .373.007c.125 0 .252-.007.381-.007q.361 0 .706.02.215.012.423.032a8.855 8.855 0 0 1 2.065.436l.243.083c.142.048.277.093.4.142a2.11 2.11 0 0 1 .613.341h1.414l-.017-.13-.175-1.646h-.657l-.81.625-.123-.034q-.21-.058-.416-.11c.006-.074.01-.149.01-.225s0-.143-.009-.212a2.376 2.376 0 0 0-.913-1.689A3.847 3.847 0 0 0 9 1.181h-.041V0H7.941v1.181H6.724V0H5.706v1.181H2.1V1.9h.884a1.033 1.033 0 0 1 .58.123.379.379 0 0 1 .173.323v6.002a3 3 0 0 1-.425-.338 1.65 1.65 0 0 1-.558-1.144v-.039a1.6 1.6 0 0 1 .559-1.154V4.218q-.271.078-.533.166Q.036 5.315 0 6.866V6.9q0 1.428 2.414 2.339.438.165.9.3.209.061.425.115a15.652 15.652 0 0 0 2.437.406 23.843 23.843 0 0 0 2.093.089c.623 0 1.2-.024 1.745-.072q.223-.019.438-.044a11.925 11.925 0 0 0 2.384-.508c.089-.029.174-.06.256-.09q.222-.083.414-.174a2.812 2.812 0 0 0 1.352-1.176zM10.06 9.3c-.374.029-.768.045-1.19.045q-.284 0-.55-.009-.211.008-.426.009A11.112 11.112 0 0 1 6.6 9.266a10.881 10.881 0 0 1-.425-.059V7.039h1.73a2.67 2.67 0 0 1 1.922.634 2.12 2.12 0 0 1 .6 1.161 3.258 3.258 0 0 1 .052.421q-.203.024-.419.045z" class="cls-6" data-name="Path 13"/>
                <path id="Path_14-4" d="M8.247.579a1.865 1.865 0 0 1-.478.773 2.362 2.362 0 0 1-1.7.592H4.59a.461.461 0 0 1-.377-.169.76.76 0 0 1-.138-.492V.6A16.088 16.088 0 0 1 1.638.2v1.05a.807.807 0 0 1-.184.531.508.508 0 0 1-.407.161H0v.715h3.6V3.6h1.02v-.941h1.217V3.6h1.018v-.947a6.572 6.572 0 0 0 2.1-.386 3.417 3.417 0 0 0 1.449-.9A2.552 2.552 0 0 0 10.975 0l-.107.036a12.574 12.574 0 0 1-2.621.543z" class="cls-6" data-name="Path 14" transform="translate(2.104 9.892)"/>
            </g>
        </g>
        <g id="Group_3502" data-name="Group 3502" transform="rotate(-32 1184.107 -922.886)">
            <g id="Group_644-5" data-name="Group 644">
                <ellipse id="Ellipse_116-5" cx="16.921" cy="16.921" class="cls-2" data-name="Ellipse 116" rx="16.921" ry="16.921"/>
            </g>
            <g id="Group_645-5" data-name="Group 645" transform="translate(2.56 2.56)">
                <ellipse id="Ellipse_117-5" cx="14.361" cy="14.361" class="cls-3" data-name="Ellipse 117" rx="14.361" ry="14.361"/>
            </g>
            <g id="Group_646-5" data-name="Group 646" transform="translate(4.82 4.664)">
                <path id="Path_2321-5" d="M19.615 0a14.363 14.363 0 0 1-12.1 22.1A14.293 14.293 0 0 1 0 19.975 14.362 14.362 0 1 0 19.615 0z" class="cls-4" data-name="Path 2321"/>
            </g>
            <g id="Group_647-5" data-name="Group 647" transform="translate(4.132 4.149)">
                <path id="Path_2322-5" d="M.944 14.086a12.677 12.677 0 0 1 22.725-7.727A12.678 12.678 0 1 0 2.628 20.4a12.619 12.619 0 0 1-1.684-6.314z" class="cls-5" data-name="Path 2322"/>
            </g>
            <g id="Group_649-5" data-name="Group 649" transform="translate(9.635 11.064)">
                <path id="Path_13-5" d="M13.89 7.988a1.744 1.744 0 0 1-.565.468 3.837 3.837 0 0 1-.385.181 2.3 2.3 0 0 0-.186-.383 2.574 2.574 0 0 0-.475-.574 5.462 5.462 0 0 0-2.764-1.069 5.035 5.035 0 0 0 2.2-1.076 2.524 2.524 0 0 0 .259-.283l-.146-.05a8.473 8.473 0 0 0-1.984-.412 1.861 1.861 0 0 1-.49.981 2.661 2.661 0 0 1-1.891.552H6.179V2.509a.53.53 0 0 1 .2-.476A2.018 2.018 0 0 1 7.3 1.9a3.318 3.318 0 0 1 2.076.468 1.527 1.527 0 0 1 .471.841 2.856 2.856 0 0 1 .064.431q-.211-.017-.428-.03-.551-.032-1.142-.032-.9 0-1.737.065V4.4a11.263 11.263 0 0 1 1.418-.088q.188 0 .373.007c.125 0 .252-.007.381-.007q.361 0 .706.02.215.012.423.032a8.855 8.855 0 0 1 2.065.436l.243.083c.142.048.277.093.4.142a2.11 2.11 0 0 1 .613.341h1.414l-.017-.13-.175-1.646h-.657l-.81.625-.123-.034q-.21-.058-.416-.11c.006-.074.01-.149.01-.225s0-.143-.009-.212a2.376 2.376 0 0 0-.913-1.689A3.847 3.847 0 0 0 9 1.181h-.041V0H7.941v1.181H6.724V0H5.706v1.181H2.1V1.9h.884a1.033 1.033 0 0 1 .58.123.379.379 0 0 1 .173.323v6.002a3 3 0 0 1-.425-.338 1.65 1.65 0 0 1-.558-1.144v-.039a1.6 1.6 0 0 1 .559-1.154V4.218q-.271.078-.533.166Q.036 5.315 0 6.866V6.9q0 1.428 2.414 2.339.438.165.9.3.209.061.425.115a15.652 15.652 0 0 0 2.437.406 23.843 23.843 0 0 0 2.093.089c.623 0 1.2-.024 1.745-.072q.223-.019.438-.044a11.926 11.926 0 0 0 2.384-.508c.089-.029.174-.06.256-.09q.222-.083.414-.174a2.812 2.812 0 0 0 1.352-1.176zM10.06 9.3c-.374.029-.768.045-1.19.045q-.284 0-.55-.009-.211.008-.426.009A11.112 11.112 0 0 1 6.6 9.266a10.881 10.881 0 0 1-.425-.059V7.039h1.73a2.67 2.67 0 0 1 1.922.634 2.12 2.12 0 0 1 .6 1.161 3.258 3.258 0 0 1 .052.421q-.203.024-.419.045z" class="cls-6" data-name="Path 13"/>
                <path id="Path_14-5" d="M8.247.579a1.865 1.865 0 0 1-.478.773 2.362 2.362 0 0 1-1.7.592H4.59a.461.461 0 0 1-.377-.169.76.76 0 0 1-.138-.492V.6A16.088 16.088 0 0 1 1.638.2v1.05a.807.807 0 0 1-.184.531.508.508 0 0 1-.407.161H0v.715h3.6V3.6h1.02v-.941h1.217V3.6h1.018v-.947a6.572 6.572 0 0 0 2.1-.386 3.417 3.417 0 0 0 1.449-.9A2.552 2.552 0 0 0 10.975 0l-.107.036a12.574 12.574 0 0 1-2.621.543z" class="cls-6" data-name="Path 14" transform="translate(2.104 9.892)"/>
            </g>
        </g>
        <g id="Group_3497" data-name="Group 3497" transform="rotate(-133 220.015 339.103)">
            <g id="Group_644-6" data-name="Group 644">
                <ellipse id="Ellipse_116-6" cx="28.832" cy="28.832" class="cls-2" data-name="Ellipse 116" rx="28.832" ry="28.832"/>
            </g>
            <g id="Group_645-6" data-name="Group 645" transform="translate(4.363 4.363)">
                <ellipse id="Ellipse_117-6" cx="24.469" cy="24.469" class="cls-3" data-name="Ellipse 117" rx="24.469" ry="24.469"/>
            </g>
            <g id="Group_646-6" data-name="Group 646" transform="translate(8.212 7.948)">
                <path id="Path_2321-6" d="M33.422 0A24.473 24.473 0 0 1 12.8 37.65 24.354 24.354 0 0 1 0 34.036 24.471 24.471 0 1 0 33.422 0z" class="cls-4" data-name="Path 2321"/>
            </g>
            <g id="Group_647-6" data-name="Group 647" transform="translate(7.041 7.069)">
                <path id="Path_2322-6" d="M1.608 24A21.6 21.6 0 0 1 40.33 10.835 21.6 21.6 0 1 0 4.478 34.767 21.5 21.5 0 0 1 1.608 24z" class="cls-5" data-name="Path 2322"/>
            </g>
            <g id="Group_649-6" data-name="Group 649" transform="translate(16.416 18.852)">
                <path id="Path_13-6" d="M23.668 13.61a2.972 2.972 0 0 1-.963.8 6.538 6.538 0 0 1-.657.309 3.911 3.911 0 0 0-.317-.653 4.385 4.385 0 0 0-.809-.977 9.306 9.306 0 0 0-4.709-1.822 8.58 8.58 0 0 0 3.753-1.833 4.3 4.3 0 0 0 .442-.482l-.249-.085a14.437 14.437 0 0 0-3.385-.7 3.171 3.171 0 0 1-.836 1.672 4.533 4.533 0 0 1-3.223.941h-2.187v-6.5a.9.9 0 0 1 .334-.811 3.439 3.439 0 0 1 1.578-.222 5.654 5.654 0 0 1 3.537.8 2.6 2.6 0 0 1 .8 1.433 4.867 4.867 0 0 1 .109.735q-.36-.03-.73-.051-.938-.064-1.945-.064-1.536 0-2.96.111v1.294a19.19 19.19 0 0 1 2.416-.149q.32 0 .635.011c.213-.007.429-.011.649-.011q.616 0 1.2.034.366.021.721.054a15.088 15.088 0 0 1 3.52.738c.142.05.28.1.414.141.242.081.471.159.687.243a3.6 3.6 0 0 1 1.045.581h2.4l-.028-.221-.3-2.807H23.5l-1.383 1.063a9.461 9.461 0 0 0-.21-.057q-.358-.1-.708-.187a4.395 4.395 0 0 0 .001-.745 4.049 4.049 0 0 0-1.556-2.878 6.555 6.555 0 0 0-4.31-1.3h-.069V0h-1.734v2.012h-2.074V0H9.723v2.012H3.585V3.23h1.506a1.761 1.761 0 0 1 .989.21.646.646 0 0 1 .295.55v10.233a5.118 5.118 0 0 1-.724-.577A2.812 2.812 0 0 1 4.7 11.7v-.066a2.721 2.721 0 0 1 .952-1.966V7.187q-.462.134-.908.283Q.061 9.056 0 11.7v.069q0 2.423 4.113 3.975.746.282 1.538.512.356.1.724.2a26.669 26.669 0 0 0 4.153.691 40.706 40.706 0 0 0 3.567.152c1.061 0 2.047-.041 2.973-.123q.379-.033.745-.075a20.32 20.32 0 0 0 4.063-.866c.151-.05.3-.1.437-.154q.379-.142.706-.3a4.792 4.792 0 0 0 2.3-2zm-6.526 2.228c-.636.05-1.309.076-2.027.076q-.484 0-.938-.015-.36.014-.726.015a18.934 18.934 0 0 1-2.2-.125 19.447 19.447 0 0 1-.724-.1v-3.7h2.947a4.549 4.549 0 0 1 3.275 1.081 3.613 3.613 0 0 1 1.023 1.978 5.551 5.551 0 0 1 .089.718q-.351.044-.719.073z" class="cls-6" data-name="Path 13"/>
                <path id="Path_14-6" d="M14.051.986a3.177 3.177 0 0 1-.814 1.314 4.024 4.024 0 0 1-2.9 1.009H7.82a.785.785 0 0 1-.642-.288 1.3 1.3 0 0 1-.236-.838V1.014A27.413 27.413 0 0 1 2.79.343v1.79a1.375 1.375 0 0 1-.314.9.866.866 0 0 1-.694.275H0V4.53h6.138v1.6h1.734v-1.6h2.074v1.6h1.735V4.52a11.2 11.2 0 0 0 3.586-.658 5.821 5.821 0 0 0 2.469-1.534A4.348 4.348 0 0 0 18.7 0l-.183.062a21.425 21.425 0 0 1-4.466.924z" class="cls-6" data-name="Path 14" transform="translate(3.585 16.855)"/>
            </g>
        </g>
        <g id="Group_3562" data-name="Group 3562" transform="rotate(-133 187.487 102.949)">
            <g id="Group_644-7" data-name="Group 644">
                <ellipse id="Ellipse_116-7" cx="28.832" cy="28.832" class="cls-2" data-name="Ellipse 116" rx="28.832" ry="28.832"/>
            </g>
            <g id="Group_645-7" data-name="Group 645" transform="translate(4.363 4.363)">
                <ellipse id="Ellipse_117-7" cx="24.469" cy="24.469" class="cls-3" data-name="Ellipse 117" rx="24.469" ry="24.469"/>
            </g>
            <g id="Group_646-7" data-name="Group 646" transform="translate(8.212 7.948)">
                <path id="Path_2321-7" d="M33.422 0A24.473 24.473 0 0 1 12.8 37.65 24.354 24.354 0 0 1 0 34.036 24.471 24.471 0 1 0 33.422 0z" class="cls-4" data-name="Path 2321"/>
            </g>
            <g id="Group_647-7" data-name="Group 647" transform="translate(7.041 7.069)">
                <path id="Path_2322-7" d="M1.608 24A21.6 21.6 0 0 1 40.33 10.835 21.6 21.6 0 1 0 4.478 34.767 21.5 21.5 0 0 1 1.608 24z" class="cls-5" data-name="Path 2322"/>
            </g>
            <g id="Group_649-7" data-name="Group 649" transform="translate(16.416 18.852)">
                <path id="Path_13-7" d="M23.668 13.61a2.972 2.972 0 0 1-.963.8 6.538 6.538 0 0 1-.657.309 3.911 3.911 0 0 0-.317-.653 4.385 4.385 0 0 0-.809-.977 9.306 9.306 0 0 0-4.709-1.822 8.58 8.58 0 0 0 3.753-1.833 4.3 4.3 0 0 0 .442-.482l-.249-.085a14.437 14.437 0 0 0-3.385-.7 3.171 3.171 0 0 1-.836 1.672 4.533 4.533 0 0 1-3.223.941h-2.187v-6.5a.9.9 0 0 1 .334-.811 3.439 3.439 0 0 1 1.578-.222 5.654 5.654 0 0 1 3.537.8 2.6 2.6 0 0 1 .8 1.433 4.867 4.867 0 0 1 .109.735q-.36-.03-.73-.051-.938-.064-1.945-.064-1.536 0-2.96.111v1.294a19.19 19.19 0 0 1 2.416-.149q.32 0 .635.011c.213-.007.429-.011.649-.011q.616 0 1.2.034.366.021.721.054a15.088 15.088 0 0 1 3.52.738c.142.05.28.1.414.141.242.081.471.159.687.243a3.6 3.6 0 0 1 1.045.581h2.4l-.028-.221-.3-2.807H23.5l-1.383 1.063a9.461 9.461 0 0 0-.21-.057q-.358-.1-.708-.187a4.395 4.395 0 0 0 .001-.745 4.049 4.049 0 0 0-1.556-2.878 6.555 6.555 0 0 0-4.31-1.3h-.069V0h-1.734v2.012h-2.074V0H9.723v2.012H3.585V3.23h1.506a1.761 1.761 0 0 1 .989.21.646.646 0 0 1 .295.55v10.233a5.118 5.118 0 0 1-.724-.577A2.812 2.812 0 0 1 4.7 11.7v-.066a2.721 2.721 0 0 1 .952-1.966V7.187q-.462.134-.908.283Q.061 9.056 0 11.7v.069q0 2.423 4.113 3.975.746.282 1.538.512.356.1.724.2a26.669 26.669 0 0 0 4.153.691 40.706 40.706 0 0 0 3.567.152c1.061 0 2.047-.041 2.973-.123q.379-.033.745-.075a20.32 20.32 0 0 0 4.063-.866c.151-.05.3-.1.437-.154q.379-.142.706-.3a4.792 4.792 0 0 0 2.3-2zm-6.526 2.228c-.636.05-1.309.076-2.027.076q-.484 0-.938-.015-.36.014-.726.015a18.934 18.934 0 0 1-2.2-.125 19.447 19.447 0 0 1-.724-.1v-3.7h2.947a4.549 4.549 0 0 1 3.275 1.081 3.613 3.613 0 0 1 1.023 1.978 5.551 5.551 0 0 1 .089.718q-.351.044-.719.073z" class="cls-6" data-name="Path 13"/>
                <path id="Path_14-7" d="M14.051.986a3.177 3.177 0 0 1-.814 1.314 4.024 4.024 0 0 1-2.9 1.009H7.82a.785.785 0 0 1-.642-.288 1.3 1.3 0 0 1-.236-.838V1.014A27.413 27.413 0 0 1 2.79.343v1.79a1.375 1.375 0 0 1-.314.9.866.866 0 0 1-.694.275H0V4.53h6.138v1.6h1.734v-1.6h2.074v1.6h1.735V4.52a11.2 11.2 0 0 0 3.586-.658 5.821 5.821 0 0 0 2.469-1.534A4.348 4.348 0 0 0 18.7 0l-.183.062a21.425 21.425 0 0 1-4.466.924z" class="cls-6" data-name="Path 14" transform="translate(3.585 16.855)"/>
            </g>
        </g>
        <g id="Group_3500" data-name="Group 3500" transform="rotate(-90 302.358 -89.068)">
            <g id="Group_644-8" data-name="Group 644">
                <ellipse id="Ellipse_116-8" cx="28.832" cy="28.832" class="cls-2" data-name="Ellipse 116" rx="28.832" ry="28.832"/>
            </g>
            <g id="Group_645-8" data-name="Group 645" transform="translate(4.363 4.363)">
                <ellipse id="Ellipse_117-8" cx="24.469" cy="24.469" class="cls-3" data-name="Ellipse 117" rx="24.469" ry="24.469"/>
            </g>
            <g id="Group_646-8" data-name="Group 646" transform="translate(8.212 7.947)">
                <path id="Path_2321-8" d="M33.422 0A24.473 24.473 0 0 1 12.8 37.65 24.354 24.354 0 0 1 0 34.036 24.471 24.471 0 1 0 33.422 0z" class="cls-4" data-name="Path 2321"/>
            </g>
            <g id="Group_647-8" data-name="Group 647" transform="translate(7.041 7.069)">
                <path id="Path_2322-8" d="M1.608 24A21.6 21.6 0 0 1 40.33 10.835 21.6 21.6 0 1 0 4.478 34.767 21.5 21.5 0 0 1 1.608 24z" class="cls-5" data-name="Path 2322"/>
            </g>
            <g id="Group_649-8" data-name="Group 649" transform="translate(16.416 18.852)">
                <path id="Path_13-8" d="M23.668 13.61a2.972 2.972 0 0 1-.963.8 6.537 6.537 0 0 1-.657.309 3.911 3.911 0 0 0-.317-.653 4.385 4.385 0 0 0-.809-.977 9.306 9.306 0 0 0-4.709-1.822 8.58 8.58 0 0 0 3.753-1.833 4.3 4.3 0 0 0 .442-.482l-.249-.085a14.437 14.437 0 0 0-3.385-.7 3.171 3.171 0 0 1-.836 1.672 4.533 4.533 0 0 1-3.223.941h-2.187v-6.5a.9.9 0 0 1 .334-.811 3.439 3.439 0 0 1 1.578-.222 5.654 5.654 0 0 1 3.537.8 2.6 2.6 0 0 1 .8 1.433 4.867 4.867 0 0 1 .109.735q-.36-.03-.73-.051-.938-.064-1.945-.064-1.536 0-2.96.111v1.294a19.19 19.19 0 0 1 2.416-.149q.32 0 .635.011c.213-.007.429-.011.649-.011q.616 0 1.2.034.366.021.721.054a15.088 15.088 0 0 1 3.52.738c.142.05.28.1.414.141.242.081.471.159.687.243a3.6 3.6 0 0 1 1.045.581h2.4l-.028-.221-.3-2.807H23.5l-1.383 1.063a9.461 9.461 0 0 0-.21-.057q-.358-.1-.708-.187a4.395 4.395 0 0 0 .001-.745 4.049 4.049 0 0 0-1.556-2.878 6.555 6.555 0 0 0-4.31-1.3h-.069V0h-1.734v2.012h-2.074V0H9.723v2.012H3.585V3.23h1.506a1.761 1.761 0 0 1 .989.21.646.646 0 0 1 .295.55v10.233a5.118 5.118 0 0 1-.724-.577A2.812 2.812 0 0 1 4.7 11.7v-.066a2.721 2.721 0 0 1 .952-1.966V7.187q-.462.134-.908.283Q.061 9.056 0 11.7v.069q0 2.423 4.113 3.975.746.282 1.538.512.356.1.724.2a26.669 26.669 0 0 0 4.153.691 40.706 40.706 0 0 0 3.567.152c1.061 0 2.047-.041 2.973-.123q.379-.033.745-.075a20.32 20.32 0 0 0 4.063-.866c.151-.05.3-.1.437-.154q.379-.142.706-.3a4.792 4.792 0 0 0 2.3-2zm-6.526 2.228c-.636.05-1.309.076-2.027.076q-.484 0-.938-.015-.36.014-.726.015a18.934 18.934 0 0 1-2.2-.125 19.447 19.447 0 0 1-.724-.1v-3.7h2.947a4.549 4.549 0 0 1 3.275 1.081 3.613 3.613 0 0 1 1.023 1.978 5.552 5.552 0 0 1 .089.718q-.351.044-.719.073z" class="cls-6" data-name="Path 13"/>
                <path id="Path_14-8" d="M14.051.986a3.177 3.177 0 0 1-.814 1.314 4.024 4.024 0 0 1-2.9 1.009H7.82a.785.785 0 0 1-.642-.288 1.3 1.3 0 0 1-.236-.838V1.014A27.413 27.413 0 0 1 2.79.343v1.79a1.375 1.375 0 0 1-.314.9.866.866 0 0 1-.694.275H0V4.53h6.138v1.6h1.734v-1.6h2.074v1.6h1.735V4.52a11.2 11.2 0 0 0 3.586-.658 5.822 5.822 0 0 0 2.469-1.534A4.348 4.348 0 0 0 18.7 0l-.183.062a21.425 21.425 0 0 1-4.466.924z" class="cls-6" data-name="Path 14" transform="translate(3.585 16.855)"/>
            </g>
        </g>
        <g id="Group_3563" data-name="Group 3563" transform="rotate(-90 660.859 -19.568)">
            <g id="Group_644-9" data-name="Group 644">
                <ellipse id="Ellipse_116-9" cx="28.832" cy="28.832" class="cls-2" data-name="Ellipse 116" rx="28.832" ry="28.832"/>
            </g>
            <g id="Group_645-9" data-name="Group 645" transform="translate(4.363 4.363)">
                <ellipse id="Ellipse_117-9" cx="24.469" cy="24.469" class="cls-3" data-name="Ellipse 117" rx="24.469" ry="24.469"/>
            </g>
            <g id="Group_646-9" data-name="Group 646" transform="translate(8.212 7.947)">
                <path id="Path_2321-9" d="M33.422 0A24.473 24.473 0 0 1 12.8 37.65 24.354 24.354 0 0 1 0 34.036 24.471 24.471 0 1 0 33.422 0z" class="cls-4" data-name="Path 2321"/>
            </g>
            <g id="Group_647-9" data-name="Group 647" transform="translate(7.041 7.069)">
                <path id="Path_2322-9" d="M1.608 24A21.6 21.6 0 0 1 40.33 10.835 21.6 21.6 0 1 0 4.478 34.767 21.5 21.5 0 0 1 1.608 24z" class="cls-5" data-name="Path 2322"/>
            </g>
            <g id="Group_649-9" data-name="Group 649" transform="translate(16.416 18.852)">
                <path id="Path_13-9" d="M23.668 13.61a2.972 2.972 0 0 1-.963.8 6.537 6.537 0 0 1-.657.309 3.911 3.911 0 0 0-.317-.653 4.385 4.385 0 0 0-.809-.977 9.306 9.306 0 0 0-4.709-1.822 8.58 8.58 0 0 0 3.753-1.833 4.3 4.3 0 0 0 .442-.482l-.249-.085a14.437 14.437 0 0 0-3.385-.7 3.171 3.171 0 0 1-.836 1.672 4.533 4.533 0 0 1-3.223.941h-2.187v-6.5a.9.9 0 0 1 .334-.811 3.439 3.439 0 0 1 1.578-.222 5.654 5.654 0 0 1 3.537.8 2.6 2.6 0 0 1 .8 1.433 4.867 4.867 0 0 1 .109.735q-.36-.03-.73-.051-.938-.064-1.945-.064-1.536 0-2.96.111v1.294a19.19 19.19 0 0 1 2.416-.149q.32 0 .635.011c.213-.007.429-.011.649-.011q.616 0 1.2.034.366.021.721.054a15.088 15.088 0 0 1 3.52.738c.142.05.28.1.414.141.242.081.471.159.687.243a3.6 3.6 0 0 1 1.045.581h2.4l-.028-.221-.3-2.807H23.5l-1.383 1.063a9.461 9.461 0 0 0-.21-.057q-.358-.1-.708-.187a4.395 4.395 0 0 0 .001-.745 4.049 4.049 0 0 0-1.556-2.878 6.555 6.555 0 0 0-4.31-1.3h-.069V0h-1.734v2.012h-2.074V0H9.723v2.012H3.585V3.23h1.506a1.761 1.761 0 0 1 .989.21.646.646 0 0 1 .295.55v10.233a5.118 5.118 0 0 1-.724-.577A2.812 2.812 0 0 1 4.7 11.7v-.066a2.721 2.721 0 0 1 .952-1.966V7.187q-.462.134-.908.283Q.061 9.056 0 11.7v.069q0 2.423 4.113 3.975.746.282 1.538.512.356.1.724.2a26.669 26.669 0 0 0 4.153.691 40.706 40.706 0 0 0 3.567.152c1.061 0 2.047-.041 2.973-.123q.379-.033.745-.075a20.32 20.32 0 0 0 4.063-.866c.151-.05.3-.1.437-.154q.379-.142.706-.3a4.792 4.792 0 0 0 2.3-2zm-6.526 2.228c-.636.05-1.309.076-2.027.076q-.484 0-.938-.015-.36.014-.726.015a18.934 18.934 0 0 1-2.2-.125 19.447 19.447 0 0 1-.724-.1v-3.7h2.947a4.549 4.549 0 0 1 3.275 1.081 3.613 3.613 0 0 1 1.023 1.978 5.552 5.552 0 0 1 .089.718q-.351.044-.719.073z" class="cls-6" data-name="Path 13"/>
                <path id="Path_14-9" d="M14.051.986a3.177 3.177 0 0 1-.814 1.314 4.024 4.024 0 0 1-2.9 1.009H7.82a.785.785 0 0 1-.642-.288 1.3 1.3 0 0 1-.236-.838V1.014A27.413 27.413 0 0 1 2.79.343v1.79a1.375 1.375 0 0 1-.314.9.866.866 0 0 1-.694.275H0V4.53h6.138v1.6h1.734v-1.6h2.074v1.6h1.735V4.52a11.2 11.2 0 0 0 3.586-.658 5.822 5.822 0 0 0 2.469-1.534A4.348 4.348 0 0 0 18.7 0l-.183.062a21.425 21.425 0 0 1-4.466.924z" class="cls-6" data-name="Path 14" transform="translate(3.585 16.855)"/>
            </g>
        </g>
        <g id="Group_3498" data-name="Group 3498" transform="rotate(-80 539.322 382.054)">
            <g id="Group_644-10" data-name="Group 644">
                <ellipse id="Ellipse_116-10" cx="18.053" cy="18.053" class="cls-2" data-name="Ellipse 116" rx="18.053" ry="18.053"/>
            </g>
            <g id="Group_645-10" data-name="Group 645" transform="translate(2.732 2.732)">
                <ellipse id="Ellipse_117-10" cx="15.321" cy="15.321" class="cls-3" data-name="Ellipse 117" rx="15.321" ry="15.321"/>
            </g>
            <g id="Group_646-10" data-name="Group 646" transform="translate(5.142 4.976)">
                <path id="Path_2321-10" d="M20.926 0a15.323 15.323 0 0 1-12.91 23.573A15.249 15.249 0 0 1 0 21.311 15.322 15.322 0 1 0 20.926 0z" class="cls-4" data-name="Path 2321"/>
            </g>
            <g id="Group_647-10" data-name="Group 647" transform="translate(4.409 4.426)">
                <path id="Path_2322-10" d="M1.007 15.028a13.524 13.524 0 0 1 24.245-8.244A13.525 13.525 0 1 0 2.8 21.769a13.462 13.462 0 0 1-1.793-6.741z" class="cls-5" data-name="Path 2322"/>
            </g>
            <g id="Group_649-10" data-name="Group 649" transform="translate(10.279 11.804)">
                <path id="Path_13-10" d="M14.819 8.522a1.861 1.861 0 0 1-.6.5 4.093 4.093 0 0 1-.411.193 2.449 2.449 0 0 0-.2-.409 2.746 2.746 0 0 0-.507-.612 5.827 5.827 0 0 0-2.949-1.141A5.372 5.372 0 0 0 12.5 5.906a2.692 2.692 0 0 0 .277-.3l-.156-.053A9.039 9.039 0 0 0 10.5 5.11a1.986 1.986 0 0 1-.523 1.047 2.838 2.838 0 0 1-2.018.589H6.592V2.677A.565.565 0 0 1 6.8 2.17a2.153 2.153 0 0 1 .988-.139A3.54 3.54 0 0 1 10 2.53a1.629 1.629 0 0 1 .5.9 3.047 3.047 0 0 1 .068.46q-.226-.019-.457-.032-.583-.036-1.211-.037-.962 0-1.853.069v.81a12.015 12.015 0 0 1 1.513-.093q.2 0 .4.007c.133 0 .268-.007.407-.007q.386 0 .754.021.229.013.451.034a9.447 9.447 0 0 1 2.2.462l.259.088c.152.051.3.1.43.152a2.251 2.251 0 0 1 .654.364h1.5l-.015-.14-.186-1.758h-.7l-.865.666-.132-.036q-.224-.062-.443-.117c.007-.079.011-.159.011-.24s0-.152-.01-.226a2.535 2.535 0 0 0-.974-1.8A4.1 4.1 0 0 0 9.6 1.26h-.042V0H8.472v1.26h-1.3V0H6.088v1.26H2.245v.763h.943a1.1 1.1 0 0 1 .619.131.4.4 0 0 1 .185.344v6.408a3.2 3.2 0 0 1-.453-.361 1.761 1.761 0 0 1-.6-1.22v-.041a1.7 1.7 0 0 1 .6-1.231V4.5q-.289.084-.568.177Q.038 5.67 0 7.325v.04q0 1.52 2.575 2.492.467.176.963.32.223.065.453.123a16.7 16.7 0 0 0 2.6.433 25.758 25.758 0 0 0 2.233.095c.664 0 1.282-.026 1.862-.077q.237-.021.467-.047a12.723 12.723 0 0 0 2.544-.542c.095-.031.186-.064.274-.1q.237-.089.442-.185a3 3 0 0 0 1.443-1.255zm-4.086 1.4c-.4.031-.82.048-1.269.048q-.3 0-.587-.01-.225.009-.455.009a11.855 11.855 0 0 1-1.377-.078c-.154-.018-.3-.039-.453-.063V7.509h1.845a2.848 2.848 0 0 1 2.05.677 2.262 2.262 0 0 1 .641 1.239 3.476 3.476 0 0 1 .056.449q-.22.026-.451.043z" class="cls-6" data-name="Path 13"/>
                <path id="Path_14-10" d="M8.8.617a1.989 1.989 0 0 1-.51.825 2.52 2.52 0 0 1-1.817.632H4.9a.492.492 0 0 1-.4-.181.811.811 0 0 1-.148-.525V.635a17.164 17.164 0 0 1-2.6-.42v1.12a.861.861 0 0 1-.2.566.542.542 0 0 1-.435.172H0v.763h3.843v1h1.086v-1h1.3v1h1.085V2.83a7.012 7.012 0 0 0 2.245-.412 3.645 3.645 0 0 0 1.546-.961A2.722 2.722 0 0 0 11.709 0l-.115.039A13.415 13.415 0 0 1 8.8.617z" class="cls-6" data-name="Path 14" transform="translate(2.245 10.553)"/>
            </g>
        </g>
        <g id="Group_3565" data-name="Group 3565" transform="rotate(-80 447.043 -306.664)">
            <g id="Group_644-11" data-name="Group 644">
                <ellipse id="Ellipse_116-11" cx="18.053" cy="18.053" class="cls-2" data-name="Ellipse 116" rx="18.053" ry="18.053"/>
            </g>
            <g id="Group_645-11" data-name="Group 645" transform="translate(2.732 2.732)">
                <ellipse id="Ellipse_117-11" cx="15.321" cy="15.321" class="cls-3" data-name="Ellipse 117" rx="15.321" ry="15.321"/>
            </g>
            <g id="Group_646-11" data-name="Group 646" transform="translate(5.142 4.976)">
                <path id="Path_2321-11" d="M20.926 0a15.323 15.323 0 0 1-12.91 23.573A15.249 15.249 0 0 1 0 21.311 15.322 15.322 0 1 0 20.926 0z" class="cls-4" data-name="Path 2321"/>
            </g>
            <g id="Group_647-11" data-name="Group 647" transform="translate(4.409 4.426)">
                <path id="Path_2322-11" d="M1.007 15.028a13.524 13.524 0 0 1 24.245-8.244A13.525 13.525 0 1 0 2.8 21.769a13.462 13.462 0 0 1-1.793-6.741z" class="cls-5" data-name="Path 2322"/>
            </g>
            <g id="Group_649-11" data-name="Group 649" transform="translate(10.279 11.804)">
                <path id="Path_13-11" d="M14.819 8.522a1.861 1.861 0 0 1-.6.5 4.093 4.093 0 0 1-.411.193 2.449 2.449 0 0 0-.2-.409 2.746 2.746 0 0 0-.507-.612 5.827 5.827 0 0 0-2.949-1.141A5.372 5.372 0 0 0 12.5 5.906a2.692 2.692 0 0 0 .277-.3l-.156-.053A9.039 9.039 0 0 0 10.5 5.11a1.986 1.986 0 0 1-.523 1.047 2.838 2.838 0 0 1-2.018.589H6.592V2.677A.565.565 0 0 1 6.8 2.17a2.153 2.153 0 0 1 .988-.139A3.54 3.54 0 0 1 10 2.53a1.629 1.629 0 0 1 .5.9 3.047 3.047 0 0 1 .068.46q-.226-.019-.457-.032-.583-.036-1.211-.037-.962 0-1.853.069v.81a12.015 12.015 0 0 1 1.513-.093q.2 0 .4.007c.133 0 .268-.007.407-.007q.386 0 .754.021.229.013.451.034a9.447 9.447 0 0 1 2.2.462l.259.088c.152.051.3.1.43.152a2.251 2.251 0 0 1 .654.364h1.5l-.015-.14-.186-1.758h-.7l-.865.666-.132-.036q-.224-.062-.443-.117c.007-.079.011-.159.011-.24s0-.152-.01-.226a2.535 2.535 0 0 0-.974-1.8A4.1 4.1 0 0 0 9.6 1.26h-.042V0H8.472v1.26h-1.3V0H6.088v1.26H2.245v.763h.943a1.1 1.1 0 0 1 .619.131.4.4 0 0 1 .185.344v6.408a3.2 3.2 0 0 1-.453-.361 1.761 1.761 0 0 1-.6-1.22v-.041a1.7 1.7 0 0 1 .6-1.231V4.5q-.289.084-.568.177Q.038 5.67 0 7.325v.04q0 1.52 2.575 2.492.467.176.963.32.223.065.453.123a16.7 16.7 0 0 0 2.6.433 25.758 25.758 0 0 0 2.233.095c.664 0 1.282-.026 1.862-.077q.237-.021.467-.047a12.723 12.723 0 0 0 2.544-.542c.095-.031.186-.064.274-.1q.237-.089.442-.185a3 3 0 0 0 1.443-1.255zm-4.086 1.4c-.4.031-.82.048-1.269.048q-.3 0-.587-.01-.225.009-.455.009a11.855 11.855 0 0 1-1.377-.078c-.154-.018-.3-.039-.453-.063V7.509h1.845a2.848 2.848 0 0 1 2.05.677 2.262 2.262 0 0 1 .641 1.239 3.476 3.476 0 0 1 .056.449q-.22.026-.451.043z" class="cls-6" data-name="Path 13"/>
                <path id="Path_14-11" d="M8.8.617a1.989 1.989 0 0 1-.51.825 2.52 2.52 0 0 1-1.817.632H4.9a.492.492 0 0 1-.4-.181.811.811 0 0 1-.148-.525V.635a17.164 17.164 0 0 1-2.6-.42v1.12a.861.861 0 0 1-.2.566.542.542 0 0 1-.435.172H0v.763h3.843v1h1.086v-1h1.3v1h1.085V2.83a7.012 7.012 0 0 0 2.245-.412 3.645 3.645 0 0 0 1.546-.961A2.722 2.722 0 0 0 11.709 0l-.115.039A13.415 13.415 0 0 1 8.8.617z" class="cls-6" data-name="Path 14" transform="translate(2.245 10.553)"/>
            </g>
        </g>
        <g id="Group_3499" data-name="Group 3499" transform="rotate(-40 1356.885 -503.561)">
            <g id="Group_644-12" data-name="Group 644">
                <ellipse id="Ellipse_116-12" cx="18.053" cy="18.053" class="cls-2" data-name="Ellipse 116" rx="18.053" ry="18.053"/>
            </g>
            <g id="Group_645-12" data-name="Group 645" transform="translate(2.732 2.732)">
                <ellipse id="Ellipse_117-12" cx="15.321" cy="15.321" class="cls-3" data-name="Ellipse 117" rx="15.321" ry="15.321"/>
            </g>
            <g id="Group_646-12" data-name="Group 646" transform="translate(5.142 4.976)">
                <path id="Path_2321-12" d="M20.926 0a15.324 15.324 0 0 1-12.91 23.573A15.249 15.249 0 0 1 0 21.311 15.322 15.322 0 1 0 20.926 0z" class="cls-4" data-name="Path 2321"/>
            </g>
            <g id="Group_647-12" data-name="Group 647" transform="translate(4.409 4.426)">
                <path id="Path_2322-12" d="M1.007 15.028a13.524 13.524 0 0 1 24.245-8.244A13.525 13.525 0 1 0 2.8 21.769a13.462 13.462 0 0 1-1.793-6.741z" class="cls-5" data-name="Path 2322"/>
            </g>
            <g id="Group_649-12" data-name="Group 649" transform="translate(10.279 11.804)">
                <path id="Path_13-12" d="M14.819 8.522a1.861 1.861 0 0 1-.6.5 4.093 4.093 0 0 1-.411.193 2.449 2.449 0 0 0-.2-.409 2.746 2.746 0 0 0-.507-.612 5.827 5.827 0 0 0-2.948-1.141A5.372 5.372 0 0 0 12.5 5.906a2.692 2.692 0 0 0 .277-.3l-.156-.053A9.039 9.039 0 0 0 10.5 5.11a1.986 1.986 0 0 1-.523 1.047 2.838 2.838 0 0 1-2.018.589H6.592V2.677A.565.565 0 0 1 6.8 2.17a2.153 2.153 0 0 1 .988-.139A3.54 3.54 0 0 1 10 2.53a1.629 1.629 0 0 1 .5.9 3.048 3.048 0 0 1 .068.46q-.225-.019-.457-.032-.583-.036-1.211-.037-.962 0-1.853.069v.81a12.016 12.016 0 0 1 1.513-.093q.2 0 .4.007c.133 0 .268-.007.407-.007q.386 0 .754.021.229.013.451.034a9.447 9.447 0 0 1 2.2.462l.259.088c.152.051.3.1.43.152a2.251 2.251 0 0 1 .654.364h1.5l-.015-.14-.186-1.758h-.7l-.865.666-.132-.036q-.224-.062-.443-.117c.007-.079.011-.159.011-.24s0-.152-.01-.226a2.535 2.535 0 0 0-.974-1.8A4.1 4.1 0 0 0 9.6 1.26h-.042V0H8.472v1.26h-1.3V0H6.088v1.26H2.245v.763h.943a1.1 1.1 0 0 1 .619.131.4.4 0 0 1 .185.344v6.408a3.2 3.2 0 0 1-.453-.361 1.761 1.761 0 0 1-.6-1.22v-.041a1.7 1.7 0 0 1 .6-1.231V4.5q-.289.084-.568.177Q.038 5.67 0 7.325v.04q0 1.52 2.575 2.492.467.176.963.32.223.065.453.123a16.7 16.7 0 0 0 2.6.433 25.758 25.758 0 0 0 2.233.095c.664 0 1.282-.026 1.862-.077q.237-.021.467-.047a12.723 12.723 0 0 0 2.544-.542c.095-.031.186-.064.274-.1q.237-.089.442-.185a3 3 0 0 0 1.443-1.255zm-4.086 1.4c-.4.031-.82.048-1.269.048q-.3 0-.587-.01-.225.009-.455.009a11.855 11.855 0 0 1-1.377-.078c-.154-.018-.3-.039-.453-.063V7.509h1.845a2.848 2.848 0 0 1 2.05.677 2.262 2.262 0 0 1 .641 1.239 3.476 3.476 0 0 1 .056.449q-.221.026-.451.043z" class="cls-6" data-name="Path 13"/>
                <path id="Path_14-12" d="M8.8.617a1.989 1.989 0 0 1-.51.825 2.52 2.52 0 0 1-1.817.632H4.9a.492.492 0 0 1-.4-.181.811.811 0 0 1-.148-.525V.635a17.164 17.164 0 0 1-2.6-.42v1.12a.861.861 0 0 1-.2.566.542.542 0 0 1-.435.172H0v.763h3.843v1h1.086v-1h1.3v1h1.085V2.83a7.012 7.012 0 0 0 2.245-.412 3.645 3.645 0 0 0 1.546-.961A2.722 2.722 0 0 0 11.709 0l-.115.039A13.415 13.415 0 0 1 8.8.617z" class="cls-6" data-name="Path 14" transform="translate(2.245 10.553)"/>
            </g>
        </g>
        <g id="Group_3566" data-name="Group 3566" transform="rotate(-40 667.649 -455.787)">
            <g id="Group_644-13" data-name="Group 644">
                <ellipse id="Ellipse_116-13" cx="18.053" cy="18.053" class="cls-2" data-name="Ellipse 116" rx="18.053" ry="18.053"/>
            </g>
            <g id="Group_645-13" data-name="Group 645" transform="translate(2.732 2.732)">
                <ellipse id="Ellipse_117-13" cx="15.321" cy="15.321" class="cls-3" data-name="Ellipse 117" rx="15.321" ry="15.321"/>
            </g>
            <g id="Group_646-13" data-name="Group 646" transform="translate(5.142 4.976)">
                <path id="Path_2321-13" d="M20.926 0a15.324 15.324 0 0 1-12.91 23.573A15.249 15.249 0 0 1 0 21.311 15.322 15.322 0 1 0 20.926 0z" class="cls-4" data-name="Path 2321"/>
            </g>
            <g id="Group_647-13" data-name="Group 647" transform="translate(4.409 4.426)">
                <path id="Path_2322-13" d="M1.007 15.028a13.524 13.524 0 0 1 24.245-8.244A13.525 13.525 0 1 0 2.8 21.769a13.462 13.462 0 0 1-1.793-6.741z" class="cls-5" data-name="Path 2322"/>
            </g>
            <g id="Group_649-13" data-name="Group 649" transform="translate(10.279 11.804)">
                <path id="Path_13-13" d="M14.819 8.522a1.861 1.861 0 0 1-.6.5 4.093 4.093 0 0 1-.411.193 2.449 2.449 0 0 0-.2-.409 2.746 2.746 0 0 0-.507-.612 5.827 5.827 0 0 0-2.948-1.141A5.372 5.372 0 0 0 12.5 5.906a2.692 2.692 0 0 0 .277-.3l-.156-.053A9.039 9.039 0 0 0 10.5 5.11a1.986 1.986 0 0 1-.523 1.047 2.838 2.838 0 0 1-2.018.589H6.592V2.677A.565.565 0 0 1 6.8 2.17a2.153 2.153 0 0 1 .988-.139A3.54 3.54 0 0 1 10 2.53a1.629 1.629 0 0 1 .5.9 3.048 3.048 0 0 1 .068.46q-.225-.019-.457-.032-.583-.036-1.211-.037-.962 0-1.853.069v.81a12.016 12.016 0 0 1 1.513-.093q.2 0 .4.007c.133 0 .268-.007.407-.007q.386 0 .754.021.229.013.451.034a9.447 9.447 0 0 1 2.2.462l.259.088c.152.051.3.1.43.152a2.251 2.251 0 0 1 .654.364h1.5l-.015-.14-.186-1.758h-.7l-.865.666-.132-.036q-.224-.062-.443-.117c.007-.079.011-.159.011-.24s0-.152-.01-.226a2.535 2.535 0 0 0-.974-1.8A4.1 4.1 0 0 0 9.6 1.26h-.042V0H8.472v1.26h-1.3V0H6.088v1.26H2.245v.763h.943a1.1 1.1 0 0 1 .619.131.4.4 0 0 1 .185.344v6.408a3.2 3.2 0 0 1-.453-.361 1.761 1.761 0 0 1-.6-1.22v-.041a1.7 1.7 0 0 1 .6-1.231V4.5q-.289.084-.568.177Q.038 5.67 0 7.325v.04q0 1.52 2.575 2.492.467.176.963.32.223.065.453.123a16.7 16.7 0 0 0 2.6.433 25.758 25.758 0 0 0 2.233.095c.664 0 1.282-.026 1.862-.077q.237-.021.467-.047a12.723 12.723 0 0 0 2.544-.542c.095-.031.186-.064.274-.1q.237-.089.442-.185a3 3 0 0 0 1.443-1.255zm-4.086 1.4c-.4.031-.82.048-1.269.048q-.3 0-.587-.01-.225.009-.455.009a11.855 11.855 0 0 1-1.377-.078c-.154-.018-.3-.039-.453-.063V7.509h1.845a2.848 2.848 0 0 1 2.05.677 2.262 2.262 0 0 1 .641 1.239 3.476 3.476 0 0 1 .056.449q-.221.026-.451.043z" class="cls-6" data-name="Path 13"/>
                <path id="Path_14-13" d="M8.8.617a1.989 1.989 0 0 1-.51.825 2.52 2.52 0 0 1-1.817.632H4.9a.492.492 0 0 1-.4-.181.811.811 0 0 1-.148-.525V.635a17.164 17.164 0 0 1-2.6-.42v1.12a.861.861 0 0 1-.2.566.542.542 0 0 1-.435.172H0v.763h3.843v1h1.086v-1h1.3v1h1.085V2.83a7.012 7.012 0 0 0 2.245-.412 3.645 3.645 0 0 0 1.546-.961A2.722 2.722 0 0 0 11.709 0l-.115.039A13.415 13.415 0 0 1 8.8.617z" class="cls-6" data-name="Path 14" transform="translate(2.245 10.553)"/>
            </g>
        </g>
    </g>
</svg>
