<svg xmlns="http://www.w3.org/2000/svg" width="242.047" height="42.097" viewBox="0 0 242.047 42.097">
    <defs>
        <style>
            .cls-1{fill:#f8d496}
        </style>
    </defs>
    <g id="Group_3162" data-name="Group 3162" transform="translate(-202.146 -451.012)">
        <g id="Group_3160" data-name="Group 3160" transform="translate(202.146 464.945)">
            <path id="Path_1" d="M233.837 291.626h9.544q5.577 0 8.28 1.656a5.614 5.614 0 0 1 2.7 5.156 6.517 6.517 0 0 1-1.179 3.93 5.254 5.254 0 0 1-3.107 2.1v.187a6.363 6.363 0 0 1 3.686 2.246 6.775 6.775 0 0 1 1.142 4.079 6.988 6.988 0 0 1-2.8 5.867 12.25 12.25 0 0 1-7.626 2.143h-10.64zm7.392 10.5h2.227a4.019 4.019 0 0 0 2.46-.655 2.283 2.283 0 0 0 .87-1.946q0-2.3-3.48-2.3h-2.078zm0 5.408v5.745h2.6q3.461 0 3.462-2.919a2.513 2.513 0 0 0-.926-2.1 4.269 4.269 0 0 0-2.686-.73z" class="cls-1" data-name="Path 1" transform="translate(-233.837 -291.196)"/>
            <path id="Path_2" d="M259.217 318.986v-27.36h7.43v27.36z" class="cls-1" data-name="Path 2" transform="translate(-233.393 -291.196)"/>
            <path id="Path_3" d="M284.435 318.986h-7.391v-21.315h-6.681v-6.045H291.1v6.045h-6.663z" class="cls-1" data-name="Path 3" transform="translate(-233.197 -291.196)"/>
            <path id="Path_4" d="M306.785 297.3a4.716 4.716 0 0 0-4.118 2.161 10.445 10.445 0 0 0-1.478 5.961q0 7.9 6.007 7.9a12.311 12.311 0 0 0 3.519-.506 35.238 35.238 0 0 0 3.424-1.216v6.251a18.951 18.951 0 0 1-7.748 1.515q-6.193 0-9.5-3.592t-3.3-10.387a16.574 16.574 0 0 1 1.6-7.466 11.451 11.451 0 0 1 4.6-4.95 13.9 13.9 0 0 1 7.065-1.731 19.464 19.464 0 0 1 8.478 1.928l-2.265 5.819a25.47 25.47 0 0 0-3.031-1.2 10.588 10.588 0 0 0-3.253-.487z" class="cls-1" data-name="Path 4" transform="translate(-232.791 -291.202)"/>
            <path id="Path_5" d="M344.645 305.276q0 6.9-3.387 10.5t-9.919 3.592q-6.438 0-9.871-3.611t-3.434-10.517q0-6.83 3.415-10.433t9.928-3.6q6.531 0 9.9 3.574t3.368 10.495zm-18.826 0q0 7.935 5.52 7.935a4.748 4.748 0 0 0 4.164-1.927q1.357-1.928 1.357-6.007 0-4.1-1.376-6.054a4.693 4.693 0 0 0-4.108-1.956q-5.558-.001-5.557 8.009z" class="cls-1" data-name="Path 5" transform="translate(-232.363 -291.203)"/>
            <path id="Path_6" d="M356.321 318.986h-7.279v-27.36h16.168v5.932h-8.889v5.222h8.2v5.932h-8.2z" class="cls-1" data-name="Path 6" transform="translate(-231.82 -291.196)"/>
            <path id="Path_7" d="M376.625 318.986h-7.279v-27.36h16.168v5.932h-8.889v5.222h8.2v5.932h-8.2z" class="cls-1" data-name="Path 7" transform="translate(-231.464 -291.196)"/>
            <path id="Path_8" d="M405.893 318.986H389.65v-27.36h16.244v5.932h-8.851v4.305h8.2v5.937h-8.2v5.165h8.851z" class="cls-1" data-name="Path 8" transform="translate(-231.108 -291.196)"/>
            <path id="Path_9" d="M426.565 318.986h-16.243v-27.36h16.244v5.932h-8.851v4.305h8.2v5.937h-8.2v5.165h8.851z" class="cls-1" data-name="Path 9" transform="translate(-230.746 -291.196)"/>
            <path id="Path_10" d="M457.043 318.986h-9.694l-9.993-19.275h-.168q.354 4.547.355 6.942v12.332h-6.55v-27.36h9.656l9.956 19.013h.112q-.262-4.136-.262-6.643v-12.37h6.587z" class="cls-1" data-name="Path 10" transform="translate(-230.384 -291.196)"/>
        </g>
        <g id="Group_3161" data-name="Group 3161" transform="translate(429.156 451.012)">
            <path id="Path_30" d="M456.94 277.51h6.418v1.69h-2.153v5.146h-2.111V279.2h-2.154z" class="cls-1" data-name="Path 30" transform="translate(-456.94 -277.51)"/>
            <path id="Path_31" d="M464.165 277.51h2.776l1.071 4.157 1.062-4.157h2.776v6.834h-1.73v-5.211l-1.332 5.211h-1.565l-1.33-5.211v5.211h-1.729z" class="cls-1" data-name="Path 31" transform="translate(-456.813 -277.51)"/>
        </g>
    </g>
</svg>
