<svg xmlns="http://www.w3.org/2000/svg" width="398.756" height="69.352" viewBox="0 0 398.756 69.352">
    <defs>
        <style>
            .cls-1{fill:#fff}
        </style>
    </defs>
    <g id="Group_3162" data-name="Group 3162" transform="translate(-202.146 -451.012)">
        <g id="Group_3160" data-name="Group 3160" transform="translate(202.146 473.965)">
            <path id="Path_1" d="M233.837 291.626h15.724q9.188 0 13.641 2.729t4.456 8.494a10.736 10.736 0 0 1-1.943 6.474 8.655 8.655 0 0 1-5.118 3.453v.309a10.483 10.483 0 0 1 6.073 3.7 11.162 11.162 0 0 1 1.881 6.72 11.512 11.512 0 0 1-4.608 9.665q-4.609 3.53-12.564 3.53h-17.542zm12.178 17.3h3.669a6.622 6.622 0 0 0 4.053-1.079 3.76 3.76 0 0 0 1.433-3.205q0-3.794-5.733-3.792h-3.423zm0 8.909v9.465h4.285q5.7 0 5.7-4.809a4.14 4.14 0 0 0-1.525-3.453 7.032 7.032 0 0 0-4.425-1.2z" class="cls-1" data-name="Path 1" transform="translate(-233.837 -290.917)"/>
            <path id="Path_2" d="M259.217 336.7v-45.074h12.24V336.7z" class="cls-1" data-name="Path 2" transform="translate(-216.673 -290.917)"/>
            <path id="Path_3" d="M293.546 336.7h-12.177v-35.115h-11.006v-9.959h34.159v9.959h-10.976z" class="cls-1" data-name="Path 3" transform="translate(-209.135 -290.917)"/>
            <path id="Path_4" d="M315.327 301.229a7.769 7.769 0 0 0-6.784 3.56q-2.434 3.561-2.436 9.82 0 13.01 9.9 13.01a20.282 20.282 0 0 0 5.8-.833 58.056 58.056 0 0 0 5.641-2v10.3a31.22 31.22 0 0 1-12.764 2.5q-10.2 0-15.646-5.917t-5.441-17.111a27.305 27.305 0 0 1 2.637-12.3 18.865 18.865 0 0 1 7.583-8.155 22.906 22.906 0 0 1 11.639-2.851 32.067 32.067 0 0 1 13.967 3.177L325.685 304a41.96 41.96 0 0 0-4.993-1.973 17.444 17.444 0 0 0-5.365-.798z" class="cls-1" data-name="Path 4" transform="translate(-193.426 -291.178)"/>
            <path id="Path_5" d="M361.874 314.388q0 11.375-5.581 17.3t-16.34 5.917q-10.606 0-16.262-5.949t-5.657-17.326q0-11.252 5.625-17.187t16.355-5.936q10.759 0 16.309 5.889t5.551 17.292zm-31.015 0q0 13.073 9.094 13.072 4.624 0 6.859-3.175t2.236-9.9q0-6.751-2.266-9.974a7.731 7.731 0 0 0-6.767-3.222q-9.157.003-9.156 13.199z" class="cls-1" data-name="Path 5" transform="translate(-176.896 -291.203)"/>
            <path id="Path_6" d="M361.034 336.7h-11.992v-45.074h26.636v9.774h-14.644v8.6h13.5v9.773h-13.5z" class="cls-1" data-name="Path 6" transform="translate(-155.926 -290.917)"/>
            <path id="Path_7" d="M381.338 336.7h-11.992v-45.074h26.636v9.774h-14.644v8.6h13.5v9.773h-13.5z" class="cls-1" data-name="Path 7" transform="translate(-142.194 -290.917)"/>
            <path id="Path_8" d="M416.41 336.7h-26.76v-45.074h26.76v9.774h-14.582v7.093h13.5v9.773h-13.5v8.509h14.582z" class="cls-1" data-name="Path 8" transform="translate(-128.463 -290.917)"/>
            <path id="Path_9" d="M437.082 336.7h-26.76v-45.074h26.76v9.774H422.5v7.093H436v9.773h-13.5v8.509h14.582z" class="cls-1" data-name="Path 9" transform="translate(-114.483 -290.917)"/>
            <path id="Path_10" d="M473.909 336.7h-15.97l-16.463-31.754h-.276q.583 7.49.585 11.437V336.7h-10.79v-45.074H446.9l16.4 31.323h.184q-.432-6.814-.432-10.945v-20.378h10.852z" class="cls-1" data-name="Path 10" transform="translate(-100.503 -290.917)"/>
        </g>
        <g id="Group_3161" data-name="Group 3161" transform="translate(576.131 451.012)">
            <path id="Path_30" d="M456.94 277.51h10.574v2.781h-3.547v8.477h-3.478v-8.477h-3.549z" class="cls-1" data-name="Path 30" transform="translate(-456.94 -277.51)"/>
            <path id="Path_31" d="M464.165 277.51h4.573l1.765 6.849 1.75-6.849h4.573v11.258h-2.85v-8.584l-2.194 8.584H469.2l-2.191-8.584v8.584h-2.848z" class="cls-1" data-name="Path 31" transform="translate(-452.054 -277.51)"/>
        </g>
    </g>
</svg>
