<svg xmlns="http://www.w3.org/2000/svg" width="513.11" height="67.625" viewBox="0 0 513.11 67.625">
    <defs>
        <style>
            .cls-1{fill:#fff}
        </style>
    </defs>
    <path id="Path_5816" d="M27.235-29.445a1.678 1.678 0 0 1-.91 1.625q-1.625 1.3-1.755 1.43l-7.735 9.035L25.35-9.36a4.277 4.277 0 0 1 1.625 2.86 2.785 2.785 0 0 1-.195.975 3.06 3.06 0 0 1-3.055 2.145 4.588 4.588 0 0 1-1.82-.39Q21-4.16 20.9-4.778t-.165-1.332a1.344 1.344 0 0 0-.39-.78L14.1-12.545q-2.535-2.145-2.535-4.29 0-2.08 2.762-5.167t5.557-6.143a15.478 15.478 0 0 0 1.04-1.82 2.668 2.668 0 0 1 1.3-1.43 3.88 3.88 0 0 1 1.235-.195 4.827 4.827 0 0 1 2.47.683 2.327 2.327 0 0 1 1.306 1.462zm-10.725 0a1.69 1.69 0 0 1-.845 1.625 17.294 17.294 0 0 0-1.755 1.43l-7.8 9.035 8.515 7.995a4.235 4.235 0 0 1 1.69 2.86 2.785 2.785 0 0 1-.195.975 3.06 3.06 0 0 1-3.055 2.145 4.588 4.588 0 0 1-1.82-.39q-.91-.39-1.007-1.008t-.163-1.332a1.344 1.344 0 0 0-.39-.78l-6.24-5.655q-2.6-2.145-2.6-4.29 0-2.08 2.763-5.167t5.622-6.143a12.817 12.817 0 0 0 .975-1.82A2.605 2.605 0 0 1 11.57-31.4a3.518 3.518 0 0 1 1.23-.19 4.889 4.889 0 0 1 2.438.683q1.207.682 1.272 1.462zM39.65-44.4q-1.69.065-2.73 6.37a84.462 84.462 0 0 0-.975 13.715A65.122 65.122 0 0 0 36.92-11.9q1.04 5.6 2.99 5.53 1.69-.065 3.055-3.835a14.74 14.74 0 0 0 1.17-5.46 3.411 3.411 0 0 1 1.56-3.12 5.521 5.521 0 0 1 3.445-1.04 6.325 6.325 0 0 1 3.413.91 2.9 2.9 0 0 1 1.527 2.405 3.73 3.73 0 0 1-.715 1.95 12.136 12.136 0 0 0-.975 1.76 32.672 32.672 0 0 1-4.03 8.84q-3.445 5.2-7.15 5.33-7.21.255-11.18-7.415-3.38-6.63-3.38-20.28 0-10.92 2.8-18.07 3.38-8.515 9.88-8.71a9.2 9.2 0 0 1 8.51 4.485 28.756 28.756 0 0 1 3.7 9.36 23.1 23.1 0 0 1 1.235 3.835q.13 3.575-4.03 3.575a9.331 9.331 0 0 1-4.615-1.235q-2.21-1.235-2.275-2.73a19.379 19.379 0 0 1 .845-2.6q-.515-6.11-3.05-5.985zm34.58-2.8a8.663 8.663 0 0 1-1.1-3.055q0-3.185 4.745-3.185A8.754 8.754 0 0 1 83-51.935q1.95 1.365 1.95 2.86a14.473 14.473 0 0 1-1.625 4.03v40.04A8.2 8.2 0 0 1 84.5-1.17q0 2.21-3.9 2.21a11.7 11.7 0 0 1-4.972-1.2Q73.06-1.365 73.06-2.4a7.05 7.05 0 0 1 1.17-3.25V-24.5q-3.77 8.58-10.79 8.58-5.785 0-8.125-8.515-1.95-7.215-1.95-23.01a3.2 3.2 0 0 0-.52-1.43 3.2 3.2 0 0 1-.52-1.43q0-1.105 1.95-2.015a9.866 9.866 0 0 1 4.225-.91q4.745 0 4.745 3.7a14.921 14.921 0 0 1-.423 1.53 8.06 8.06 0 0 0-.422 2.11q0 20.02 2.8 20.02 3.38 0 6.435-8.58a39.988 39.988 0 0 0 2.595-12.74zm50.18 24.635a4.912 4.912 0 0 1 3.315 2.307 7.277 7.277 0 0 1 1.235 4q0 3.38-4.42 3.38-.455 0-1.56-.065-.845-.057-1.17-.057 1.56 5.265 2.34 7.54 2.15 2.34 2.145 3.96 0 1.755-3.25 2.6a11.569 11.569 0 0 1-3.055.39q-3.77 0-4.16-1.5a13.133 13.133 0 0 1-.65-3.7q-1.04-2.86-2.73-8.45L97.825-9.88q-.65 2.08-1.755 6.18a7.877 7.877 0 0 1-.033 3.862 2.059 2.059 0 0 1-2.177 1.463 7.032 7.032 0 0 1-2.275-.455 11.578 11.578 0 0 1-4.355-2.633Q85.15-3.38 85.475-4.42a7.152 7.152 0 0 1 2.145-2.73q1.95-7.8 6.24-21 4.03-12.22 7.15-20.085a5.963 5.963 0 0 1-.13-3.25 3.029 3.029 0 0 1 2.86-1.69 12.986 12.986 0 0 1 1.528.13 12.986 12.986 0 0 0 1.527.13 15.225 15.225 0 0 1 4.42.715q2.275.78 2.6 1.885a14.366 14.366 0 0 1-.585 4.29q2.08 10.01 6.175 24.9 3.12-1.82 5.005-1.43zm-23.985 4.105l9.685-1.82q-2.08-7.67-3.965-15.47-2.275 6.435-5.72 17.29zm41.34-25.94q-1.69.065-2.73 6.37a84.461 84.461 0 0 0-.975 13.715 65.121 65.121 0 0 0 .975 12.415q1.04 5.59 2.99 5.525 1.69-.065 3.055-3.835a14.74 14.74 0 0 0 1.17-5.46 3.411 3.411 0 0 1 1.56-3.12 5.521 5.521 0 0 1 3.445-1.04 6.325 6.325 0 0 1 3.413.91 2.9 2.9 0 0 1 1.527 2.405 3.73 3.73 0 0 1-.715 1.95 12.134 12.134 0 0 0-.975 1.755 32.672 32.672 0 0 1-4.03 8.84q-3.445 5.2-7.15 5.33-7.215.26-11.18-7.41-3.38-6.63-3.38-20.28 0-10.92 2.795-18.07 3.38-8.515 9.88-8.71a9.2 9.2 0 0 1 8.515 4.485 28.756 28.756 0 0 1 3.705 9.36 23.1 23.1 0 0 1 1.235 3.835q.13 3.575-4.03 3.575a9.331 9.331 0 0 1-4.615-1.235q-2.21-1.235-2.275-2.73a19.378 19.378 0 0 1 .845-2.6q-.52-6.105-3.055-5.98zm33.995.195V-3.51a8.119 8.119 0 0 1 1.17 3.77q0 2.21-3.9 2.21a11.961 11.961 0 0 1-4.973-1.17Q165.49.13 165.49-.975a7.02 7.02 0 0 1 1.17-3.185v-38.48l-5.2.91a6.655 6.655 0 0 1-3.12 1.82q-3.12.455-3.9-4.225-.065-.65-.065-1.235 0-4.095 3.835-4.745.585-.065 3.25-.065l18.98-2.73a7.52 7.52 0 0 1 3.055-1.95q1.69-.26 3.38 2.145a9.82 9.82 0 0 1 1.885 4.225 3.849 3.849 0 0 1-.617 2.925 2.9 2.9 0 0 1-1.983 1.365 20.54 20.54 0 0 1-3.965-.845zm44.4 38.35a2.669 2.669 0 0 0 1.332 1.4 3.277 3.277 0 0 1 1.4 1.3 2.954 2.954 0 0 1 .26 1.138q0 1.885-2.275 3.282a9.153 9.153 0 0 1-4.875 1.4 5.387 5.387 0 0 1-2.86-.715 3.613 3.613 0 0 1-1.82-3.185v-1.69a6.346 6.346 0 0 0-.13-1.365L206.5-30.94l-7.93 25.09a3.139 3.139 0 0 0 .39 1.82 4.436 4.436 0 0 1 .52 1.69 2.454 2.454 0 0 1-.13.78 3.776 3.776 0 0 1-2.433 2.145 11.888 11.888 0 0 1-4.387.78q-5.53 0-5.53-2.925a2.694 2.694 0 0 1 1.268-2.08q1.268-.975 1.333-1.43l11.96-37.05a2.843 2.843 0 0 0-.13-1.43 5.885 5.885 0 0 1-.325-1.43q0-2.34 2.86-4.908t5.265-2.567a3.661 3.661 0 0 1 2.762 1.2 4.4 4.4 0 0 1 1.137 3.153 14.15 14.15 0 0 1-.162 1.82 14.008 14.008 0 0 0-.163 1.625 2.416 2.416 0 0 0 .065.585zM230.425 2.4a3.313 3.313 0 0 1-1.17.195 8.12 8.12 0 0 1-4.225-1.3q-2.145-1.3-2.145-2.34a6.785 6.785 0 0 1 1.235-3.185l-.65-42.185a6.892 6.892 0 0 1-1.1-3.055q0-3.185 4.745-3.185a8.945 8.945 0 0 1 5.135 1.5q1.95 1.365 1.95 2.86a14.474 14.474 0 0 1-1.625 4.03l.65 27.56q7.6-17.94 14.69-31.98a4.277 4.277 0 0 1-.26-1.3q0-3.12 4.55-3.12a10.377 10.377 0 0 1 4.972 1.235q2.307 1.235 2.307 3.055a14.474 14.474 0 0 1-1.625 4.03v39.39a8.469 8.469 0 0 1 1.1 3.77q0 2.21-3.9 2.21a12.051 12.051 0 0 1-4.94-1.17q-2.6-1.17-2.6-2.275a6.785 6.785 0 0 1 1.235-3.185V-32.63Q244.14-20.865 234.13-1.17q-.325.845-.65 1.625a4.742 4.742 0 0 1-3.055 1.945zM270.4-19.37l.585 12.025a60.98 60.98 0 0 0 6.24-5.3 14.861 14.861 0 0 0 4.94-8.743q0-3.055-3.12-3.055-4.29.003-8.645 5.073zM264.68 0q-3.64-1.885-3.64-2.665a6.81 6.81 0 0 1 1.235-3.25l-1.3-40.69a6.531 6.531 0 0 1-1.1-2.99q0-3.185 4.745-3.185a13.63 13.63 0 0 1 3.672.39 7.947 7.947 0 0 0 1.853.39q.26-.13 3.022-1.007a20.935 20.935 0 0 1 6.338-.877q8.125 0 9.945 4.745a10.734 10.734 0 0 1 .715 3.835q0 7.735-8.58 14.69a19.378 19.378 0 0 1 3.445-.39q5.265 0 5.915 7.54.195 6.5-8.158 16.25T270.075 2.925A7.569 7.569 0 0 1 264.68 0zm4.745-42.965l.715 14.365q10.855-9.62 10.855-14.04 0-3.055-3.445-3.055a12.766 12.766 0 0 0-3.867.585 18.17 18.17 0 0 0-4.258 2.145zm63.31-1.495l.975 39.39a8.555 8.555 0 0 1 1.1 3.835q0 2.21-3.9 2.21a11.7 11.7 0 0 1-4.973-1.2q-2.568-1.2-2.568-2.243a6.81 6.81 0 0 1 1.235-3.25l-.969-40.882a6.531 6.531 0 0 1-1.105-2.99q0-3.185 4.745-3.185a8.617 8.617 0 0 1 5 1.43q2.08 1.43 2.08 2.925a14.993 14.993 0 0 1-1.62 3.96zM308.49-25.35a9.285 9.285 0 0 0-3.965.877 11.816 11.816 0 0 0-3.185 2.112l.715 13a14.487 14.487 0 0 0 2.632-1.69 27.257 27.257 0 0 0 3.38-3.055 24.437 24.437 0 0 0 2.893-3.7 6.744 6.744 0 0 0 1.235-3.51 4.672 4.672 0 0 0-.812-3.153 3.846 3.846 0 0 0-2.893-.881zm-5.655-22.62a3.923 3.923 0 0 1-.715 2.437q-.715.943-1.43 1.853l.585 13.065a15.734 15.734 0 0 1 2.112-.91 21.676 21.676 0 0 1 2.568-.747q1.3-.292 2.5-.488a12.855 12.855 0 0 1 1.982-.195 12.878 12.878 0 0 1 7.995 2.275q2.99 2.275 2.99 7.735a14.474 14.474 0 0 1-.812 4.712 25.6 25.6 0 0 1-2.145 4.648 34.66 34.66 0 0 1-3.052 4.385 52.246 52.246 0 0 1-3.543 3.933 40.929 40.929 0 0 1-3.64 3.25q-1.82 1.43-3.315 2.4a3.777 3.777 0 0 1-1.723 1.95 4.392 4.392 0 0 1-1.853.52 6.471 6.471 0 0 1-2.86-.78A17.234 17.234 0 0 1 295.62.292a14.273 14.273 0 0 1-2.177-2.047 2.994 2.994 0 0 1-.878-1.625 4.268 4.268 0 0 1 .26-1.4 9.28 9.28 0 0 1 .91-1.787l-1.495-39q-.39-.91-.618-1.592t-.422-1.365a4.183 4.183 0 0 1-.2-1.073 2.249 2.249 0 0 1 1.105-2.047 5.952 5.952 0 0 1 3.12-.683 11.08 11.08 0 0 1 2.633.325 10.509 10.509 0 0 1 2.438.91 6.672 6.672 0 0 1 1.82 1.365 2.531 2.531 0 0 1 .719 1.757zM351-8.71a3.373 3.373 0 0 1 2.275-.78 6.785 6.785 0 0 1 4.355 1.79 4.935 4.935 0 0 1 2.145 3.673q0 1.82-2.21 2.73a6.376 6.376 0 0 1-2.015.195 13.936 13.936 0 0 0-2.99.39q-8.71 2.34-9.555 2.34-1.625 0-4.323-2.08t-2.7-3.575a5.067 5.067 0 0 0 .2-.878 10.144 10.144 0 0 0 .13-1.723v-41.6a2.273 2.273 0 0 0-.163-.65 2.273 2.273 0 0 1-.163-.65q0-2.535 4.1-2.535 2.8 0 3.64 1.1l7.8-1.17q.585-.325 1.235-.65a5.157 5.157 0 0 1 2.21-.65 5.018 5.018 0 0 1 3.835 2.08 6.065 6.065 0 0 1 1.56 3.9 2.46 2.46 0 0 1-.65 1.82 5.811 5.811 0 0 1-3.575 1.56q-1.5.13-2.99.195-2.73.26-7.735 1.235v15.73a13.589 13.589 0 0 0 2.6-.845 6.108 6.108 0 0 1 2.015-.39 7.807 7.807 0 0 1 4.55 1.69q2.34 1.69 2.34 3.575a2.944 2.944 0 0 1-.2 1.04 4 4 0 0 1-3.575 2.6l-4.1.13q-.975.195-3.64.715V-7.54Q348.01-8 351-8.71zm36.66-.715l12.285-.975-2.145-32.825-1.105-.39q-5.59 21.515-9.035 34.19zm26.39 5.46L413.4 6.7a8.555 8.555 0 0 1 1.1 3.835q0 2.21-3.9 2.21a11.783 11.783 0 0 1-4.94-1.2q-2.6-1.2-2.6-2.242a6.81 6.81 0 0 1 1.235-3.25l.65-8.255L382.4 0v6.5a8.555 8.555 0 0 1 1.1 3.835q0 2.21-3.9 2.21a10.922 10.922 0 0 1-5.395-1.2q-2.145-1.2-2.145-2.243a6.81 6.81 0 0 1 1.24-3.252v-9.1a6.531 6.531 0 0 1-1.105-2.99q0-3.185 3.9-3.185a3.3 3.3 0 0 1 1.95.65Q382.98-24.96 387.6-46.54a6.531 6.531 0 0 1-1.1-2.99q0-3.185 4.745-3.185a9.634 9.634 0 0 1 3.835.78l3.25 1.235a5.952 5.952 0 0 1 3.315-.78 8.945 8.945 0 0 1 5.135 1.495q1.95 1.365 1.95 2.86a14.993 14.993 0 0 1-1.63 3.965l1.95 31.33a7.3 7.3 0 0 1 2.145-.455 4 4 0 0 1 3.38 1.43 4.746 4.746 0 0 1 1.105 2.925 14.993 14.993 0 0 1-1.63 3.965zM439.01-22.3l-13 1.95v15.93a8.556 8.556 0 0 1 1.105 3.835q0 2.21-3.9 2.21a11.7 11.7 0 0 1-4.973-1.2q-2.567-1.2-2.567-2.243a6.81 6.81 0 0 1 1.235-3.25v-14.1a5.18 5.18 0 0 1-.812-1.333 4.733 4.733 0 0 1-.357-1.917 7.416 7.416 0 0 1 .39-2.633q.39-1.007.78-1.917V-46.6a6.531 6.531 0 0 1-1.111-3q0-3.185 4.745-3.185a8.617 8.617 0 0 1 5 1.43q2.08 1.43 2.08 2.925A14.993 14.993 0 0 1 426-44.465v15.795l13-1.95v-16.25a9.6 9.6 0 0 1-.975-3.7 1.688 1.688 0 0 1 .52-1.43 3.6 3.6 0 0 1 1.755-.78h2.34a9.552 9.552 0 0 1 4.42.78q2.665 1.17 2.665 3.575a14.993 14.993 0 0 1-1.625 3.965v12.61a6.841 6.841 0 0 1 1.17 1.2 3.1 3.1 0 0 1 .52 1.918 9.4 9.4 0 0 1-.52 3.282 7.491 7.491 0 0 1-1.17 2.177V-7.02a11.858 11.858 0 0 1 1.17 3.835q0 2.21-3.9 2.21a11.7 11.7 0 0 1-4.973-1.2q-2.568-1.2-2.568-2.243a7.05 7.05 0 0 1 1.17-3.25zm19.76 24.7a3.313 3.313 0 0 1-1.17.195 8.12 8.12 0 0 1-4.225-1.3Q451.23 0 451.23-1.04a6.785 6.785 0 0 1 1.235-3.185l-.65-42.185a6.892 6.892 0 0 1-1.1-3.055q0-3.185 4.745-3.185a8.945 8.945 0 0 1 5.135 1.5q1.95 1.365 1.95 2.86a14.473 14.473 0 0 1-1.625 4.03l.65 27.56q7.605-17.94 14.69-31.98a4.278 4.278 0 0 1-.26-1.3q0-3.12 4.55-3.12a10.377 10.377 0 0 1 4.973 1.235q2.307 1.235 2.307 3.055a14.473 14.473 0 0 1-1.625 4.03v39.39a8.469 8.469 0 0 1 1.105 3.77q0 2.21-3.9 2.21a12.051 12.051 0 0 1-4.94-1.17q-2.6-1.17-2.6-2.275a6.785 6.785 0 0 1 1.23-3.19V-32.63q-4.615 11.765-14.625 31.46-.325.845-.65 1.625A4.742 4.742 0 0 1 458.77 2.4zm52.65-25.93q2.535 2.145 2.535 4.29 0 2.08-2.763 5.167t-5.557 6.143a15.482 15.482 0 0 0-1.04 1.82 2.469 2.469 0 0 1-1.2 1.365 3.729 3.729 0 0 1-1.332.26 4.827 4.827 0 0 1-2.47-.683 2.327 2.327 0 0 1-1.3-1.463 1.69 1.69 0 0 1 .845-1.625q1.69-1.3 1.82-1.43l7.735-9.035-8.515-8a4.277 4.277 0 0 1-1.625-2.86 2.785 2.785 0 0 1 .2-.975 2.991 2.991 0 0 1 3.055-2.145 4.588 4.588 0 0 1 1.82.39q.91.39 1.008 1.007t.162 1.333a.984.984 0 0 0 .39.78zm-10.725 0q2.6 2.145 2.6 4.29 0 2.08-2.762 5.167T494.91-7.93a12.819 12.819 0 0 0-.975 1.82 2.605 2.605 0 0 1-1.365 1.43 3.518 3.518 0 0 1-1.235.2 4.889 4.889 0 0 1-2.437-.683q-1.2-.683-1.268-1.463a1.69 1.69 0 0 1 .845-1.625 17.293 17.293 0 0 0 1.755-1.43l7.8-9.035-8.515-8a4.235 4.235 0 0 1-1.69-2.86 2.785 2.785 0 0 1 .2-.975 3.06 3.06 0 0 1 3.055-2.145 4.511 4.511 0 0 1 1.853.39 1.537 1.537 0 0 1 1.008 1.007 6.465 6.465 0 0 1 .13 1.333 1.344 1.344 0 0 0 .39.78z" class="cls-1" data-name="Path 5816" transform="translate(-.845 54.885)"/>
</svg>
