<svg xmlns="http://www.w3.org/2000/svg" width="965.475" height="468.697" viewBox="0 0 965.475 468.697">
    <defs>
        <style>
            .cls-1{mix-blend-mode:lighten}.cls-1,.cls-2,.cls-4,.cls-5,.cls-6,.cls-7{isolation:isolate}.cls-2,.cls-5,.cls-7{mix-blend-mode:color-dodge}.cls-3,.cls-4,.cls-5,.cls-6,.cls-7{fill:none;stroke:#1fd9f0;stroke-miterlimit:10}.cls-3,.cls-4,.cls-5{stroke-width:1.358px}.cls-4,.cls-5{stroke-dasharray:2.581 3.441}.cls-4,.cls-6{mix-blend-mode:screen}.cls-6,.cls-7{stroke-width:8.15px}
        </style>
    </defs>
    <g id="Group_2" class="cls-1" data-name="Group 2" transform="translate(-488.521 -2.191)">
        <g id="Group_1" class="cls-2" data-name="Group 1" transform="translate(633.773 166.021)">
            <path id="Path_1" d="M634.51 237.806h191.315c29.069-2.2 35.552-29.672 56.294-43.958 5.185-3.3 9.074-1.1 12.964 1.1 5.834 7.144 8.75 16.76 12.92 25.121a52.341 52.341 0 0 0 2.684 4.808c1.041 5.28 8.417 8.45 14.6 6.816a11.43 11.43 0 0 0 3.5-1.579c22.038-18.682 22.038-71.432 47.966-61.541 8.1 3.091 12.913 10.045 16.824 18.446.782 1.68 1.528 3.418 2.258 5.15 3.189 7.029 6.9 21.768 15.672 25.453a11 11 0 0 0 4.826.841c12.275.662 16.164-15.823 25.239-11.427a26 26 0 0 1 9.813 7.652 35.831 35.831 0 0 1 3.373 5.085c4.962 9.242 7.555 18.034 10.148 26.825 2.592 5.5 9.074 5.5 12.964 2.2 15.557-14.286 12.964-43.958 33.705-45.057 20.742 0 19.446 32.968 45.911 34.065H1285.935" class="cls-3" data-name="Path 1" transform="translate(-634.51 -167.347)"/>
            <path id="Path_2" d="M634.919 239.7h182.194q1 .005 1.991.014c1.606.017 3.212.214 4.805.086 26.083-2.082 33.228-18.7 50.917-31.794 1.523-1.128 3.1-2.25 4.746-3.335 5.086-2.856 8.826-3.073 12.627-1.058q.765.405 1.518.826c7.229 7.442 10.374 18.194 14.851 27.621a59.715 59.715 0 0 0 2.883 5.422 5.983 5.983 0 0 0 1.922 2.7 10.036 10.036 0 0 0 3.078 1.679 14.415 14.415 0 0 0 9.372-.049 10.573 10.573 0 0 0 3.337-1.83c5.076-4.354 8.5-10.869 11.707-17.652q1.046-2.222 2.039-4.5c3.451-7.948 7.286-16.431 11.087-22.236 6.55-10 12.826-16.87 24.211-11.855 6.422 2.829 10.845 7.906 14.68 13.724.986 1.5 1.918 3.006 2.824 4.517.931 1.552 1.814 3.082 2.694 4.53 3.638 5.987 7.533 17.436 15.678 19.371a12.612 12.612 0 0 0 4.442.15c7.21-.86 11.4-7.319 15.776-11.171a11.2 11.2 0 0 1 3.715-2.33 6.56 6.56 0 0 1 4.409.168 33.544 33.544 0 0 1 3.947 1.674 18.817 18.817 0 0 1 6.2 5.079 29.838 29.838 0 0 1 3.3 5.212c3.963 7.885 6.149 15.931 8.5 23.233.4 1.395.708 2.823 1.21 4.187 2.074 5.645 8.492 6.172 12.2 3.729a21.645 21.645 0 0 0 3.069-2.485 38.981 38.981 0 0 0 9.789-14.284c4.9-12.036 8.6-24.094 20.436-25.812 15.529-2.253 18.36 15.65 33.1 22.331a36.53 36.53 0 0 0 12.109 3.609c.551.048 1.1.073 1.649.106l3.708.2q.972.045 1.946.083c2.181.076 4.37.129 6.57.135h116.189" class="cls-3" data-name="Path 2" transform="translate(-634.56 -169.12)"/>
            <path id="Path_3" d="M635.329 241.576H809.37c1.963 0 3.934 0 5.916.011q.988.008 1.968.028c1.594.033 3.172.241 4.74.172 25.5-1.127 32.077-11.936 50.235-23.267 1.56-.974 3.152-2 4.8-3.033 5.588-2.8 9.5-4.612 13.645-2.46.567.295 1.13.589 1.683.9 8.623 7.741 12 19.629 16.781 30.122a67.457 67.457 0 0 0 3.08 6.035 5.184 5.184 0 0 0 2.047 1.943 10.191 10.191 0 0 0 3.033 1.037 15.244 15.244 0 0 0 9.065-1.131 11.524 11.524 0 0 0 3.168-2.082c4.875-4.705 8.065-11.387 11.159-18.257a204.049 204.049 0 0 0 2-4.588c3.34-7.926 7.968-16.335 12.418-20.855 7.369-7.487 13.617-12.738 24.541-7.251 6.355 3.193 10.845 8.381 15 13.832 1.107 1.452 2.159 2.858 3.186 4.206a89.806 89.806 0 0 0 3.13 3.91c4.2 4.906 8.135 12.5 15.683 13.289a11.472 11.472 0 0 0 4.058-.542c6.526-1.745 10.472-8.416 14.668-12.463a11.985 11.985 0 0 1 3.6-2.557 6.7 6.7 0 0 1 4.3-.219 39.174 39.174 0 0 1 4.016 1.2 14.457 14.457 0 0 1 6.458 4.65 25.9 25.9 0 0 1 3.229 5.341c3.729 7.949 5.6 16.541 8.053 23.7.4 1.437.713 2.905 1.212 4.316a8.7 8.7 0 0 0 11.441 5.26 17.194 17.194 0 0 0 3.014-1.623c4.126-2.793 7.809-4.823 10.511-11.262 5.01-11.941 8.528-24.114 19.36-27.218 14.13-4.049 17.461 9.327 32.349 14.007 3.107.977 7.325 3.074 12.167 3.807.55.083 1.1.147 1.642.209 1.223.142 2.46.28 3.712.4q.974.092 1.959.165c2.175.159 4.387.259 6.643.272 1.644.009 3.277 0 4.9 0h112.825" class="cls-3" data-name="Path 3" transform="translate(-634.61 -170.874)"/>
            <path id="Path_4" d="M635.739 243.422h171.876c1.938 0 3.886 0 5.844.016.651.007 1.3.022 1.944.041 1.582.05 3.136.181 4.675.258 24.876 1.239 30.927-5.173 49.553-14.74 1.6-.819 3.206-1.745 4.85-2.731 6.09-2.736 10.169-6.152 14.663-3.861.623.318 1.242.633 1.846.966 10.017 8.04 13.62 21.064 18.713 32.623 1.013 2.3 2.085 4.537 3.278 6.649a5.206 5.206 0 0 0 2.172 1.182 11.566 11.566 0 0 0 2.988.394 16.654 16.654 0 0 0 8.76-2.211 12.961 12.961 0 0 0 3-2.334c4.667-5.059 7.626-11.9 10.609-18.863.659-1.549 1.33-3.1 1.972-4.672 3.231-7.905 8.506-16.192 13.748-19.473 7.939-4.968 14.4-8.586 24.871-2.647 6.286 3.567 10.864 8.85 15.315 13.939a113.38 113.38 0 0 0 3.547 3.895 37.7 37.7 0 0 0 3.566 3.289c4.773 3.825 8.587 8.815 15.689 7.208a19.248 19.248 0 0 0 3.674-1.232c5.859-2.625 9.549-9.506 13.561-13.755a12.98 12.98 0 0 1 3.475-2.785 7.029 7.029 0 0 1 4.183-.607c1.369.179 2.72.419 4.085.734a11.776 11.776 0 0 1 6.72 4.221 23.488 23.488 0 0 1 3.157 5.468c3.463 8.028 5.045 17.154 7.608 24.163.4 1.479.72 2.988 1.217 4.444a9.865 9.865 0 0 0 10.68 6.792 14.3 14.3 0 0 0 2.958-.761c4.12-1.62 8.373-1.616 11.232-8.24 5.114-11.85 8.467-24.129 18.284-28.624 12.746-5.837 16.49 3.069 31.594 5.684 2.993.518 7.389 2.956 12.225 4.005a40.1 40.1 0 0 0 1.635.314c1.214.211 2.452.417 3.718.6.65.091 1.307.177 1.971.249a66.994 66.994 0 0 0 6.717.406c1.666.014 3.321 0 4.962 0h114.292" class="cls-3" data-name="Path 4" transform="translate(-634.66 -172.598)"/>
            <path id="Path_5" d="M636.148 245.206h169.713c1.914 0 3.838-.005 5.771.021.646.009 1.287.029 1.922.055 1.569.067 3.1.221 4.609.344 24.242 1.981 29.777 1.591 48.871-6.215a41.651 41.651 0 0 0 4.9-2.428c6.591-2.677 10.84-7.693 15.68-5.263.681.342 1.356.678 2.011 1.036 11.411 8.338 15.243 22.5 20.644 35.122 1.073 2.507 2.208 4.952 3.475 7.263a7.133 7.133 0 0 0 2.3.422 15.523 15.523 0 0 0 2.944-.248 18.765 18.765 0 0 0 8.452-3.292 14.97 14.97 0 0 0 2.832-2.586c4.452-5.413 7.186-12.423 10.06-19.469.64-1.583 1.306-3.163 1.937-4.757 3.124-7.885 8.889-16.127 15.08-18.092 8.255-2.621 15.182-4.414 25.2 1.959 6.214 3.952 10.9 9.309 15.635 14.045q2.042 2.042 3.908 3.582a22.1 22.1 0 0 0 4 2.67c5.366 2.729 9.049 4.622 15.7 1.126a34.074 34.074 0 0 0 3.288-1.924c5.208-3.507 8.625-10.6 12.454-15.047a14.151 14.151 0 0 1 3.355-3.012 8.536 8.536 0 0 1 4.07-.994 25.823 25.823 0 0 1 4.155.263 10.016 10.016 0 0 1 6.98 3.792 21.489 21.489 0 0 1 3.086 5.6c3.215 8.1 4.492 17.765 7.163 24.627.393 1.522.727 3.07 1.22 4.574a12.005 12.005 0 0 0 9.919 8.323 13.164 13.164 0 0 0 2.9.1c4.047-.446 8.934 1.59 11.951-5.218 5.213-11.76 8.422-24.143 17.209-30.031 11.379-7.625 15.565-4.345 30.839-2.64 2.852.318 7.453 2.839 12.282 4.2.547.155 1.091.292 1.628.418 1.2.281 2.443.556 3.721.8.651.121 1.312.235 1.984.332a51.1 51.1 0 0 0 6.79.543c1.689.018 3.366 0 5.029 0h115.757" class="cls-3" data-name="Path 5" transform="translate(-634.71 -174.26)"/>
            <path id="Path_6" d="M636.558 246.489h167.548c1.89 0 3.79-.007 5.7.026.64.011 1.273.036 1.9.069 1.557.084 3.066.259 4.544.43 23.613 2.72 28.627 8.355 48.19 2.312a27.238 27.238 0 0 0 4.953-2.125c7.094-2.618 11.513-9.235 16.7-6.665.738.366 1.469.722 2.176 1.106 12.8 8.638 16.866 23.934 22.574 37.624 1.132 2.714 2.33 5.365 3.673 7.877a15 15 0 0 0 2.423-.339 24.775 24.775 0 0 0 2.9-.89 21.586 21.586 0 0 0 8.146-4.374 17.7 17.7 0 0 0 2.663-2.837c4.232-5.764 6.747-12.941 9.511-20.074.622-1.617 1.282-3.223 1.9-4.842 3.017-7.864 9.559-14.443 16.41-16.711 8.072-2.671 15.951-.224 25.531 6.564 6.135 4.347 10.948 9.758 15.953 14.153a37.122 37.122 0 0 0 4.27 3.271 15.794 15.794 0 0 0 4.438 2.05c5.967 1.61 9.565.522 15.7-4.956.864-.772 1.852-1.6 2.9-2.614 4.574-4.4 7.7-11.685 11.348-16.34a15.485 15.485 0 0 1 3.235-3.238 8.371 8.371 0 0 1 3.958-1.381c1.362-.147 2.759-.13 4.224-.208a8.347 8.347 0 0 1 7.242 3.362 19.928 19.928 0 0 1 3.013 5.724c2.977 8.16 3.94 18.377 6.718 25.093.39 1.563.737 3.151 1.225 4.7a15.689 15.689 0 0 0 9.158 9.854 13.876 13.876 0 0 0 2.847.963c3.913.671 9.495 4.8 12.673-2.2 5.308-11.672 8.388-24.164 16.133-31.438 10.03-9.422 14.47-9.093 30.083-10.963 2.747-.329 7.519 2.722 12.34 4.4.545.19 1.087.365 1.62.522 1.195.352 2.436.693 3.725.994.653.151 1.318.293 2 .414a41.633 41.633 0 0 0 6.864.678c1.711.022 3.41 0 5.1 0h117.223" class="cls-3" data-name="Path 6" transform="translate(-634.76 -175.42)"/>
            <path id="Path_7" d="M636.968 247.075h165.383c1.866 0 3.741-.009 5.626.031.634.014 1.259.044 1.876.084 1.545.1 3.032.3 4.48.515 22.993 3.457 27.465 15.062 47.507 10.839a20.187 20.187 0 0 0 5-1.823c7.6-2.559 12.186-10.776 17.715-8.066.8.39 1.583.766 2.34 1.176 14.2 8.936 18.489 25.368 24.505 40.123 1.193 2.924 2.453 5.78 3.871 8.491.758-.308 1.626-.655 2.547-1.1s1.867-.963 2.855-1.533a25 25 0 0 0 7.84-5.454 21.578 21.578 0 0 0 2.5-3.09c4.006-6.114 6.307-13.459 8.963-20.68.6-1.652 1.259-3.282 1.87-4.927 2.912-7.844 9.6-16.587 17.741-15.329a51.465 51.465 0 0 1 25.861 11.168c6.048 4.751 11.007 10.194 16.271 14.259a28.554 28.554 0 0 0 4.63 2.96 12.96 12.96 0 0 0 4.874 1.43c6.561.471 10.169-3.543 15.707-11.037.754-1.021 1.62-2.1 2.519-3.305 3.948-5.31 6.775-12.773 10.241-17.631a16.989 16.989 0 0 1 3.115-3.466 9.511 9.511 0 0 1 3.845-1.769 31.7 31.7 0 0 1 4.293-.677 8.005 8.005 0 0 1 7.5 2.934 18.633 18.633 0 0 1 2.941 5.851c2.743 8.223 3.387 18.989 6.273 25.558.386 1.6.746 3.233 1.228 4.83a21.812 21.812 0 0 0 8.4 11.386 16.38 16.38 0 0 0 2.792 1.826c3.772 1.708 10.051 8 13.394.826 5.4-11.586 8.364-24.2 15.057-32.845 8.694-11.233 13.531-14.971 29.328-19.287 2.636-.72 7.586 2.605 12.4 4.6.543.225 1.082.437 1.613.626 1.186.421 2.428.83 3.73 1.192.654.181 1.324.35 2.009.5a35.412 35.412 0 0 0 6.937.814c1.733.026 3.454 0 5.161 0h118.69" class="cls-3" data-name="Path 7" transform="translate(-634.81 -175.884)"/>
            <path id="Path_8" d="M637.377 247.241H800.6c1.843 0 3.693-.009 5.553.037.628.016 1.246.052 1.853.1a40.771 40.771 0 0 1 4.414.6c22.383 4.189 26.318 21.8 46.826 19.366a16.038 16.038 0 0 0 5.056-1.521c8.1-2.5 12.858-12.318 18.733-9.468.852.413 1.7.811 2.5 1.246 15.594 9.234 20.112 26.8 26.436 42.624 1.252 3.131 2.575 6.195 4.068 9.1.842-.575 1.748-1.183 2.674-1.858s1.86-1.409 2.809-2.175a28.859 28.859 0 0 0 7.534-6.535 26.89 26.89 0 0 0 2.326-3.342c3.775-6.461 5.868-13.977 8.414-21.286.583-1.685 1.237-3.341 1.836-5.012 2.807-7.824 10.115-17.021 19.071-13.948 9.293 3.189 17.453 8.193 26.191 15.773 5.954 5.165 11.073 10.619 16.59 14.366a24.076 24.076 0 0 0 4.992 2.648 11.782 11.782 0 0 0 5.31.81c7.14-.683 10.839-7.622 15.712-17.119.653-1.273 1.386-2.591 2.135-4 3.323-6.238 5.848-13.861 9.134-18.924a18.7 18.7 0 0 1 3-3.693 11.045 11.045 0 0 1 3.733-2.156 26.766 26.766 0 0 1 4.362-1.148c3.563-.646 6 .337 7.764 2.5a17.582 17.582 0 0 1 2.869 5.979c2.517 8.283 2.834 19.6 5.828 26.023.383 1.646.758 3.314 1.233 4.96a31.753 31.753 0 0 0 7.635 12.917 20.607 20.607 0 0 0 2.736 2.688c3.667 2.7 10.607 11.2 14.115 3.847 5.485-11.5 8.342-24.243 13.981-34.251 7.36-13.065 12.689-20.78 28.573-27.611 2.542-1.1 7.655 2.488 12.455 4.8.543.261 1.079.51 1.606.73 1.176.491 2.421.967 3.735 1.391.655.211 1.328.407 2.021.58a30.913 30.913 0 0 0 7.01.949c1.756.031 3.5 0 5.228 0H1288.8" class="cls-3" data-name="Path 8" transform="translate(-634.86 -175.929)"/>
            <path id="Path_9" d="M637.787 247.265h161.055c1.818 0 3.646-.011 5.481.042.622.018 1.231.059 1.829.111a32.511 32.511 0 0 1 4.349.688c21.78 4.922 25.174 28.534 46.144 27.893a13.362 13.362 0 0 0 5.108-1.218c8.6-2.441 13.531-13.861 19.751-10.87.909.437 1.809.855 2.669 1.316 16.988 9.534 21.737 28.238 28.368 45.125 1.311 3.34 2.7 6.608 4.265 9.718.926-.843 1.866-1.711 2.8-2.62s1.853-1.854 2.764-2.816a32.987 32.987 0 0 0 7.228-7.616 35.6 35.6 0 0 0 2.159-3.594c3.541-6.806 5.429-14.495 7.864-21.892.564-1.719 1.215-3.4 1.8-5.1 2.7-7.807 10.741-17.469 20.4-12.567 9.913 5.03 18.184 12.415 26.521 20.377 5.848 5.586 11.142 11.03 16.908 14.474a21.441 21.441 0 0 0 5.353 2.336 11.474 11.474 0 0 0 5.746.191c7.7-1.841 11.545-11.731 15.719-23.2.557-1.53 1.153-3.09 1.75-4.687 2.7-7.173 4.922-14.947 8.027-20.216a20.608 20.608 0 0 1 2.875-3.921 13.084 13.084 0 0 1 3.621-2.542 23.249 23.249 0 0 1 4.431-1.618c3.742-.986 6.249-.1 8.026 2.076a16.723 16.723 0 0 1 2.8 6.107c2.3 8.342 2.282 20.212 5.383 26.488.38 1.689.771 3.4 1.237 5.088a47.473 47.473 0 0 0 6.874 14.448 25.928 25.928 0 0 0 2.681 3.551c3.6 3.677 11.16 14.4 14.836 6.869 5.57-11.417 8.33-24.3 12.9-35.658 6.042-14.9 11.995-26.487 27.817-35.935 2.474-1.477 7.73 2.364 12.514 5 .543.3 1.074.582 1.6.834 1.166.561 2.413 1.1 3.739 1.589.657.239 1.334.464 2.034.664a27.858 27.858 0 0 0 7.083 1.084c1.778.034 3.543 0 5.294 0h121.621" class="cls-3" data-name="Path 9" transform="translate(-634.91 -175.831)"/>
            <path id="Path_10" d="M638.2 247.281h158.888c1.793 0 3.6 0 5.407.048 26.922 1.052 28.218 36.218 51.553 37.317a11.391 11.391 0 0 0 5.16-.916c9.1-2.381 14.286-15.569 20.767-12.271 24.632 10.989 27.224 38.463 37.6 59.343q1.514-1.664 2.924-3.38c.94-1.143 1.846-2.3 2.719-3.459 10.32-9.473 12.414-22.769 16.227-35.039a88.881 88.881 0 0 1 1.769-5.181c2.288-7.888 11.362-17.779 21.734-11.185 18.149 12.088 29.817 31.87 44.077 39.562 25.927 13.188 25.927-35.166 35.905-54.573a29.259 29.259 0 0 1 2.755-4.149 17.945 17.945 0 0 1 3.508-2.929 19.976 19.976 0 0 1 4.5-2.088c15.557-5.5 10.371 24.177 15.949 34.834.376 1.73.784 3.477 1.24 5.217a67.673 67.673 0 0 0 8.739 20.392c3.889 4.4 11.667 17.583 15.557 9.89 12.964-26.375 10.37-61.542 38.891-81.323 2.593-2.2 9.075 3.3 14.163 6.134a34.838 34.838 0 0 0 5.79 2.534 27.087 27.087 0 0 0 7.156 1.22H1289.627" class="cls-3" data-name="Path 10" transform="translate(-634.961 -175.724)"/>
        </g>
        <path id="Path_11" d="M638.2 247.65h63.693c11.8-.916 20.29 4.4 28.262 10.486 1.6 1.222 3.174 2.475 4.764 3.734q1.243 1.435 2.505 2.668t2.547 2.28q2.393 1.342 4.9 2.49a20.753 20.753 0 0 0 10.653 2.887c29.817 0 66.115-29.672 91.7-7.013a33.388 33.388 0 0 1 3.389 3.745c9.393 12.04 12.691 31.764 28.8 41.428a48.407 48.407 0 0 0 4.45 2.5 17.652 17.652 0 0 0 6.182 1.916c16.143-3.6 17.168-20.036 26.726-27.77a17.127 17.127 0 0 1 4.694-2.714c1.289 3.292-.007 9.886 7.771 5.49 2.593-1.1 5.186-3.3 7.778-5.494 1.3 0 5.184-1.1 6.477-.017 14.265 5.511 14.265 26.391 29.822 25.293 18.15-1.1 12.964-28.573 31.113-29.672 19.445 0 24.631 19.782 31.978 32.281a164.846 164.846 0 0 0 2.4 4.661 72.667 72.667 0 0 0 5.807 9.215c6.483 6.594 14.261 0 18.15-4.4 16.853-15.385 12.964-38.463 23.335-57.145 1.3-3.3 6.482-6.594 12.748-5.781a13.752 13.752 0 0 1 9.291 4.682c9.075 8.792 11.667 25.276 27.224 27.474 1.3-37.364 36.3-39.562 71.976-40.869 1.819-.5 3.648-.955 5.492-1.35s3.705-.734 5.578-1.006h83.534" class="cls-4" data-name="Path 11" transform="translate(-1.188 -10.988)"/>
        <path id="Path_12" d="M1303.666 237.517h-63.694c-11.8.916-20.289-4.4-28.262-10.487-1.6-1.222-3.174-2.474-4.764-3.733q-1.243-1.437-2.505-2.669t-2.547-2.28q-2.393-1.342-4.9-2.49a20.751 20.751 0 0 0-10.653-2.886c-29.817 0-66.115 29.672-91.7 7.012a33.306 33.306 0 0 1-3.389-3.745c-9.393-12.04-12.691-31.764-28.8-41.428a48.805 48.805 0 0 0-4.45-2.5 17.647 17.647 0 0 0-6.182-1.916c-16.143 3.6-17.168 20.036-26.725 27.77a17.122 17.122 0 0 1-4.695 2.714c-1.29-3.292.007-9.886-7.771-5.49-2.593 1.1-5.185 3.3-7.778 5.494-1.3 0-5.184 1.1-6.476.017-14.275-5.51-14.275-26.39-29.828-25.292-18.15 1.1-12.964 28.573-31.113 29.672-19.445 0-24.631-19.781-31.978-32.28a160.946 160.946 0 0 0-2.4-4.661 72.683 72.683 0 0 0-5.807-9.216c-6.482-6.593-14.26 0-18.15 4.4-16.853 15.386-12.964 38.464-23.335 57.146-1.3 3.3-6.482 6.594-12.748 5.78a13.751 13.751 0 0 1-9.291-4.682c-9.074-8.791-11.667-25.275-27.224-27.473-1.3 37.364-36.3 39.562-71.976 40.869-1.819.5-3.647.955-5.492 1.349s-3.7.734-5.579 1.007h-83.535" class="cls-5" data-name="Path 12" transform="translate(-1.398)"/>
        <path id="Path_13" d="M1303.666 237.517h-63.694c-11.8.916-20.289-4.4-28.262-10.487-1.6-1.222-3.174-2.474-4.764-3.733q-1.243-1.437-2.505-2.669t-2.547-2.28q-2.393-1.342-4.9-2.49a20.751 20.751 0 0 0-10.653-2.886c-29.817 0-66.115 29.672-91.7 7.012a33.306 33.306 0 0 1-3.389-3.745c-9.393-12.04-12.691-31.764-28.8-41.428a48.805 48.805 0 0 0-4.45-2.5 17.647 17.647 0 0 0-6.182-1.916c-16.143 3.6-17.168 20.036-26.725 27.77a17.122 17.122 0 0 1-4.695 2.714c-1.29-3.292.007-9.886-7.771-5.49-2.593 1.1-5.185 3.3-7.778 5.494-1.3 0-5.184 1.1-6.476.017-14.275-5.51-14.275-26.39-29.828-25.292-18.15 1.1-12.964 28.573-31.113 29.672-19.445 0-24.631-19.781-31.978-32.28a160.946 160.946 0 0 0-2.4-4.661 72.683 72.683 0 0 0-5.807-9.216c-6.482-6.593-14.26 0-18.15 4.4-16.853 15.386-12.964 38.464-23.335 57.146-1.3 3.3-6.482 6.594-12.748 5.78a13.751 13.751 0 0 1-9.291-4.682c-9.074-8.791-11.667-25.275-27.224-27.473-1.3 37.364-36.3 39.562-71.976 40.869-1.819.5-3.647.955-5.492 1.349s-3.7.734-5.579 1.007h-83.535" class="cls-6" data-name="Path 13" transform="translate(-1.398)"/>
        <path id="Path_14" d="M641.889 246.4h63.694c11.8-.916 20.29 4.4 28.262 10.486 1.6 1.223 3.175 2.475 4.764 3.734q1.243 1.437 2.505 2.669t2.547 2.28q2.392 1.342 4.9 2.49a20.753 20.753 0 0 0 10.653 2.886c29.817 0 66.115-29.672 91.7-7.012a33.309 33.309 0 0 1 3.389 3.744c9.393 12.041 12.691 31.765 28.8 41.429a48.7 48.7 0 0 0 4.451 2.5 17.64 17.64 0 0 0 6.182 1.916c16.143-3.6 17.168-20.036 26.726-27.77a17.142 17.142 0 0 1 4.694-2.715c1.29 3.293-.007 9.887 7.771 5.491 2.593-1.1 5.186-3.3 7.778-5.494 1.3 0 5.184-1.1 6.477-.017 14.265 5.511 14.265 26.391 29.822 25.292 18.15-1.1 12.964-28.573 31.113-29.671 19.446 0 24.632 19.781 31.978 32.28a163.5 163.5 0 0 0 2.4 4.661 72.59 72.59 0 0 0 5.808 9.216c6.482 6.593 14.26 0 18.149-4.4 16.853-15.386 12.964-38.464 23.335-57.146 1.3-3.3 6.482-6.594 12.748-5.78a13.75 13.75 0 0 1 9.291 4.682c9.075 8.791 11.667 25.275 27.224 27.473 1.3-37.364 36.3-39.562 71.976-40.869 1.819-.5 3.648-.955 5.493-1.349s3.7-.734 5.578-1.007h83.534" class="cls-7" data-name="Path 14" transform="translate(-1.639 -10.837)"/>
        <path id="Path_15" d="M634.51 242.3h82.09q1.924-.005 3.883-.007a17.323 17.323 0 0 0 3.653.434 21.9 21.9 0 0 0 3.768-.287c11.616-1.238 23.284-11.129 33.655-8.931a58.074 58.074 0 0 0 12.67 2.264 50.687 50.687 0 0 0 6.108.06 25.208 25.208 0 0 0 5.658-1.077c14.456-4.545 18.345-21.029 33.9-21.029 5.185 0 7.778 8.792 15.557 7.692 3.89-1.1 7.778-5.494 10.371-5.494 8.488 2.617 16.287 7.18 23.91 12.154q2.287 1.493 4.557 3.022a49.038 49.038 0 0 0 25.975 9.936 45.083 45.083 0 0 0 5.63.077c4.747-2.111 9.932.087 15.118-3.21 12.1-8.334 25.082-15.545 38.688-20.327 1.944-.683 3.9-1.32 5.84-1.922 15.106-6.324 31.959-11.818 48.812-6.324 18.149 6.594 36.3 13.188 55.1 13.449a20.2 20.2 0 0 0 4.549-1.1c6.089-2.176 12.26-6.75 18.668-8.746q2.965-1.135 5.944-2.087c21.859-6.962 44.992-5.654 64.117 11.827 1.6 1 3.18 2.006 4.755 3.019 4.71 3.014 9.373 6.093 14.1 8.918 6.482 4.4 14.26 4.4 20.436 5.623q2.332.368 4.668.7 4.67.674 9.332 1.276c1.594.061 3.189.077 4.771.091h74.874" class="cls-4" data-name="Path 15" transform="translate(-.738 -6.092)"/>
        <path id="Path_16" d="M1299.35 245.08h-82.087a19.038 19.038 0 0 0-6.53.339 16.251 16.251 0 0 0-5.127 2.227c-10.609 10.693-18.388 22.782-33.944 27.178q-3.078.825-6.177 1.415t-6.186.935c-9.375-.625-18.924 3.732-27.426 7.01-1.7.655-3.359 1.268-4.965 1.789-4.509.939-8.4 3.137-12.287 2.039-16.853-9.891-33.706-4.4-51.855-5.5-23.335 0-29.817-21.979-40.688-36.315q-1.685-1.98-3.455-3.911a136.333 136.333 0 0 0-12.769-12.239q-1.72-1.446-3.5-2.844c-13.48-15.023-40.7-7.331-43.3 10.253-2.592 14.286-1.3 30.771-12.964 40.661-9.075 8.792-27.224 7.693-38.692 2a44.149 44.149 0 0 1-4.537-2.91c-10.408-7.535-19.861-19.874-31.961-24.363-10.371-3.3-14.26 5.5-15.881 13.462a14.517 14.517 0 0 1-1.458 4.224 7.92 7.92 0 0 1-3.4 3.194c-18.149 6.593-36.3 6.593-52.7-2.494a201.684 201.684 0 0 0-6.01-2.264 117.331 117.331 0 0 0-19.07-5.133 25.661 25.661 0 0 1-4.9-1.588c-7.766-3.364-13.851-9.815-23.351-11.884q-2.832-1.162-5.751-2.106a66.974 66.974 0 0 0-25.307-3.171q-2.86-.005-5.639 0H638.2" class="cls-4" data-name="Path 16" transform="translate(-1.188 -7.574)"/>
        <path id="Path_17" d="M1296.757 241.679h-76.8c-1.74 0-7.716-19.506-9.5-19.505a18.987 18.987 0 0 0-6.529.339 16.257 16.257 0 0 0-5.128 2.227c-10.609 10.693-18.388 22.782-33.943 27.178q-3.08.825-6.178 1.416t-6.186.934c-9.375-.625-18.923 3.732-27.425 7.01a96.899 96.899 0 0 1-4.966 1.789c-4.509.939-8.4 3.137-12.287 2.039-16.852-9.891-33.706-4.4-51.855-5.5-23.334 0-29.816-21.979-40.688-36.315q-1.684-1.98-3.454-3.911a136.262 136.262 0 0 0-12.77-12.239q-1.72-1.446-3.5-2.844c-13.48-15.023-40.7-7.331-43.3 10.253-2.593 14.286-1.3 30.771-12.964 40.661-9.074 8.792-27.224 7.693-38.692 2a43.983 43.983 0 0 1-4.537-2.909c-10.408-7.541-19.862-19.882-31.96-24.369-10.371-3.3-14.26 5.5-15.881 13.463a14.531 14.531 0 0 1-1.459 4.224 7.911 7.911 0 0 1-3.4 3.194c-18.15 6.594-36.3 6.594-52.7-2.493a201.684 201.684 0 0 0-6.01-2.264 117.37 117.37 0 0 0-19.07-5.133 25.633 25.633 0 0 1-4.9-1.588c-7.766-3.364-16.768 9.692-26.269 7.622q-2.832-1.161-5.75-2.106a66.97 66.97 0 0 0-25.307-3.17q-2.859-.007-5.639-.005h-69.23" class="cls-5" data-name="Path 17" transform="translate(0 -4.815)"/>
    </g>
</svg>
