<svg xmlns="http://www.w3.org/2000/svg" width="242.117" height="60.876" viewBox="0 0 242.117 60.876">
    <defs>
        <style>
            .cls-1,.cls-3{fill:#2e1a1a}.cls-2{fill:#a5622b}.cls-3{fill-rule:evenodd}
        </style>
    </defs>
    <g id="Group_8" data-name="Group 8" transform="translate(-134.551 -262.656)">
        <g id="Group_1" data-name="Group 1" transform="translate(205.848 283.155)">
            <path id="Path_1" d="M233.837 291.626h6.736a11.454 11.454 0 0 1 5.844 1.169 3.962 3.962 0 0 1 1.909 3.639 4.6 4.6 0 0 1-.832 2.773 3.708 3.708 0 0 1-2.192 1.479v.132a4.491 4.491 0 0 1 2.6 1.585 4.782 4.782 0 0 1 .806 2.879 4.932 4.932 0 0 1-1.974 4.141 8.645 8.645 0 0 1-5.382 1.512h-7.515zm5.217 7.409h1.572a2.837 2.837 0 0 0 1.736-.462 1.611 1.611 0 0 0 .614-1.373q0-1.625-2.456-1.624h-1.466zm0 3.817v4.054h1.836q2.443 0 2.443-2.06a1.774 1.774 0 0 0-.653-1.479 3.013 3.013 0 0 0-1.9-.515z" class="cls-1" data-name="Path 1" transform="translate(-233.837 -291.322)"/>
            <path id="Path_2" d="M259.217 310.935v-19.309h5.243v19.309z" class="cls-1" data-name="Path 2" transform="translate(-240.992 -291.322)"/>
            <path id="Path_3" d="M280.294 310.935h-5.216v-15.043h-4.715v-4.266H285v4.266h-4.7z" class="cls-1" data-name="Path 3" transform="translate(-244.134 -291.322)"/>
            <path id="Path_4" d="M302.9 295.519a3.328 3.328 0 0 0-2.9 1.525 7.371 7.371 0 0 0-1.043 4.207q0 5.573 4.24 5.573a8.688 8.688 0 0 0 2.483-.357 24.871 24.871 0 0 0 2.416-.858v4.411a13.374 13.374 0 0 1-5.468 1.069 8.651 8.651 0 0 1-6.7-2.535q-2.331-2.537-2.331-7.33a11.7 11.7 0 0 1 1.13-5.269 8.081 8.081 0 0 1 3.249-3.494 9.813 9.813 0 0 1 4.986-1.221 13.737 13.737 0 0 1 5.983 1.361l-1.6 4.107a17.973 17.973 0 0 0-2.139-.845 7.472 7.472 0 0 0-2.306-.344z" class="cls-1" data-name="Path 4" transform="translate(-250.682 -291.213)"/>
            <path id="Path_5" d="M336.814 301.135q0 4.873-2.391 7.409t-7 2.535q-4.543 0-6.966-2.549t-2.424-7.422q0-4.82 2.41-7.363t7.006-2.543q4.609 0 6.986 2.523t2.379 7.41zm-13.286 0q0 5.6 3.9 5.6a3.351 3.351 0 0 0 2.938-1.36 9.874 9.874 0 0 0-.013-8.512 3.312 3.312 0 0 0-2.9-1.38q-3.926-.001-3.925 5.652z" class="cls-1" data-name="Path 5" transform="translate(-257.573 -291.203)"/>
            <path id="Path_6" d="M354.179 310.935h-5.137v-19.309h11.41v4.186h-6.273v3.688h5.785v4.186h-5.785z" class="cls-1" data-name="Path 6" transform="translate(-266.314 -291.322)"/>
            <path id="Path_7" d="M374.483 310.935h-5.137v-19.309h11.41v4.186h-6.273v3.688h5.784v4.186h-5.784z" class="cls-1" data-name="Path 7" transform="translate(-272.038 -291.322)"/>
            <path id="Path_8" d="M401.114 310.935H389.65v-19.309h11.464v4.186h-6.247v3.038h5.784v4.186h-5.784v3.645h6.247z" class="cls-1" data-name="Path 8" transform="translate(-277.762 -291.322)"/>
            <path id="Path_9" d="M421.786 310.935h-11.464v-19.309h11.464v4.186h-6.247v3.038h5.784v4.186h-5.784v3.645h6.247z" class="cls-1" data-name="Path 9" transform="translate(-283.589 -291.322)"/>
            <path id="Path_10" d="M449.378 310.935h-6.841l-7.052-13.6h-.118q.25 3.209.251 4.9v8.7h-4.622v-19.309h6.815l7.027 13.418h.079q-.185-2.919-.185-4.688v-8.73h4.649z" class="cls-1" data-name="Path 10" transform="translate(-289.417 -291.322)"/>
        </g>
        <g id="Group_5" data-name="Group 5" transform="translate(134.551 262.656)">
            <g id="Group_2" data-name="Group 2">
                <path id="Path_11" d="M137.221 293.846a28.521 28.521 0 1 0 52.157-15.946 6.778 6.778 0 0 1-.768 1.43 27.078 27.078 0 1 1-12.5-10.521 7.8 7.8 0 0 1 .457-1.345 28.509 28.509 0 0 0-39.344 26.382z" class="cls-2" data-name="Path 11" transform="translate(-135.304 -263.408)"/>
                <path id="Path_12" d="M189.186 274.657a9.274 9.274 0 0 1-.217 1.374 29.408 29.408 0 1 1-12.727-10.148 6.045 6.045 0 0 1 .616-.816 30.523 30.523 0 1 0 12.327 9.591z" class="cls-2" data-name="Path 12" transform="translate(-134.551 -262.656)"/>
            </g>
            <g id="Group_3" data-name="Group 3" transform="translate(7.289 10.821)">
                <path id="Path_13" d="M187.791 302.5a5.393 5.393 0 0 1-1.754 1.453 11.643 11.643 0 0 1-1.195.561 7.211 7.211 0 0 0-.578-1.188 7.977 7.977 0 0 0-1.473-1.779q-2.54-2.315-8.573-3.318a15.636 15.636 0 0 0 6.833-3.336 7.909 7.909 0 0 0 .8-.879l-.452-.154a26.276 26.276 0 0 0-6.163-1.28 5.776 5.776 0 0 1-1.522 3.043q-1.765 1.714-5.867 1.714h-3.983v-11.828a1.644 1.644 0 0 1 .608-1.476 6.256 6.256 0 0 1 2.874-.4q4.746 0 6.439 1.452a4.728 4.728 0 0 1 1.46 2.608 8.937 8.937 0 0 1 .2 1.338q-.655-.054-1.329-.093-1.709-.1-3.543-.1-2.8 0-5.389.2v2.351a34.95 34.95 0 0 1 4.4-.272q.583 0 1.156.021c.388-.013.781-.021 1.182-.021q1.121 0 2.192.062.666.038 1.313.1a27.415 27.415 0 0 1 6.408 1.343c.259.09.51.174.753.256.442.149.859.29 1.252.442a6.542 6.542 0 0 1 1.9 1.058h4.375l-.051-.4-.544-5.111h-2.038l-2.515 1.937-.382-.1q-.652-.18-1.289-.341c.02-.228.032-.461.032-.7s-.012-.442-.029-.658a7.371 7.371 0 0 0-2.834-5.239q-2.862-2.372-7.846-2.371h-.126v-3.662h-3.158v3.662h-3.775v-3.662h-3.16v3.662h-11.172v2.205h2.743a3.206 3.206 0 0 1 1.8.382 1.176 1.176 0 0 1 .537 1v18.638a9.292 9.292 0 0 1-1.318-1.05 5.121 5.121 0 0 1-1.731-3.547v-.12a4.955 4.955 0 0 1 1.733-3.58v-4.515c-.561.163-1.113.333-1.653.516q-8.526 2.886-8.633 7.7v.126q0 4.412 7.488 7.237 1.358.513 2.8.931.648.189 1.318.358a48.492 48.492 0 0 0 7.559 1.259q.649.059 1.318.106c1.637.114 3.358.172 5.175.172 1.932 0 3.728-.075 5.413-.223.46-.041.914-.085 1.358-.137a37.032 37.032 0 0 0 7.4-1.577c.275-.091.539-.185.795-.28q.689-.258 1.285-.539a8.728 8.728 0 0 0 4.2-3.648zm-11.881 4.057a47.074 47.074 0 0 1-3.69.139q-.882 0-1.708-.028-.654.026-1.322.027a34.587 34.587 0 0 1-4-.227q-.672-.079-1.318-.183v-6.728h5.366a8.288 8.288 0 0 1 5.962 1.967 6.578 6.578 0 0 1 1.863 3.6 10.314 10.314 0 0 1 .162 1.306q-.645.078-1.315.131z" class="cls-2" data-name="Path 13" transform="translate(-144.701 -277.725)"/>
                <path id="Path_14" d="M179.373 322.253a5.8 5.8 0 0 1-1.484 2.4 7.326 7.326 0 0 1-5.282 1.836h-4.579a1.428 1.428 0 0 1-1.169-.525 2.359 2.359 0 0 1-.429-1.526v-2.131a49.915 49.915 0 0 1-7.559-1.223v3.259a2.5 2.5 0 0 1-.572 1.646 1.574 1.574 0 0 1-1.265.5h-3.244v2.218h11.175v2.913h3.158v-2.913h3.777v2.913h3.158v-2.931a20.368 20.368 0 0 0 6.53-1.2 10.6 10.6 0 0 0 4.5-2.793 7.919 7.919 0 0 0 1.755-4.238c-.109.038-.22.076-.332.113a38.985 38.985 0 0 1-8.138 1.682z" class="cls-2" data-name="Path 14" transform="translate(-147.263 -289.772)"/>
            </g>
            <g id="Group_4" data-name="Group 4" transform="translate(42.019 1.986)">
                <path id="Path_15" d="M197.4 265.421a4.173 4.173 0 0 1 2.84 2.914 2.17 2.17 0 0 0-1.621.259 1.442 1.442 0 0 0-.155.092 3.847 3.847 0 0 0-.643.52c.052-.213.1-.427.15-.643.249-1.14.312-2.369-.571-3.141zm-.664 11.5c-2.07-.093-3.706-2.668-3.673-5.811a7.957 7.957 0 0 1 .686-3.22 5.6 5.6 0 0 1 .6-.99 4.191 4.191 0 0 1 .319-.374c1.312-1.356 2.56-.761 2.477 1.039a5.04 5.04 0 0 1-.083.688c-.4 2.163-1.127 3.878-1.168 6.212a2.823 2.823 0 0 0 .845 2.457z" class="cls-3" data-name="Path 15" transform="translate(-193.065 -265.421)"/>
                <path id="Path_16" d="M202.562 270.092a4.291 4.291 0 0 1 2.955 3.128 8.2 8.2 0 0 1 .406 2.365 7.83 7.83 0 0 1-1.045 4.209c-1.131 1.877-2.689 1.711-2.768-.485-.078-2.138.631-4.043 1.056-6.087.237-1.14.287-2.368-.6-3.13zm-.542 11.488c-2.067-.072-3.728-2.625-3.728-5.763a7.953 7.953 0 0 1 .651-3.221 5.561 5.561 0 0 1 .587-1 4 4 0 0 1 .314-.376c1.3-1.369 2.548-.787 2.484 1.01a4.963 4.963 0 0 1-.076.688c-.381 2.164-1.084 3.884-1.1 6.214a2.821 2.821 0 0 0 .869 2.444z" class="cls-3" data-name="Path 16" transform="translate(-194.539 -266.738)"/>
            </g>
        </g>
        <g id="Group_6" data-name="Group 6" transform="translate(205.828 309.041)">
            <path id="Path_17" d="M236.738 334.3a3.648 3.648 0 0 1-.883.112 2.2 2.2 0 0 1-.035-4.385c1.04 0 1.672.52 1.672 1.378 0 .666-.408 1.048-1.274 1.178l-1.36.208a.918.918 0 0 0 .987.745 2.355 2.355 0 0 0 .684-.087l.381-.1a.091.091 0 0 1 .122.07l.173.65a.089.089 0 0 1-.069.121zm-.667-2.462c.3-.051.468-.19.468-.416 0-.347-.269-.529-.738-.529-.571 0-.962.357-1.03 1.153z" class="cls-2" data-name="Path 17" transform="translate(-233.81 -328.033)"/>
            <path id="Path_18" d="M240.976 330.546c.052.1.1.1.2.009a1.549 1.549 0 0 1 1.2-.529 1.485 1.485 0 0 1 1.586 1.639v2.555a.086.086 0 0 1-.095.1h-.772a.086.086 0 0 1-.095-.1v-2.452c0-.545-.286-.875-.753-.875-.642 0-1.015.469-1.015 1.309v2.019a.086.086 0 0 1-.095.1h-.771a.087.087 0 0 1-.1-.1v-4.011a.087.087 0 0 1 .1-.1h.433a.092.092 0 0 1 .1.086z" class="cls-2" data-name="Path 18" transform="translate(-235.63 -328.033)"/>
            <path id="Path_19" d="M248.015 333.715a1.758 1.758 0 0 1-.979 1.595l-.217.148a.086.086 0 0 1-.139-.027l-.338-.615a.09.09 0 0 1 .034-.13l.2-.139a.919.919 0 0 0 .477-.832v-3.526h-.425a.087.087 0 0 1-.095-.1v-.667a.086.086 0 0 1 .095-.1h1.291a.087.087 0 0 1 .1.1zm-.009-5.883a.572.572 0 1 1-.572-.581.529.529 0 0 1 .572.581z" class="cls-2" data-name="Path 19" transform="translate(-237.339 -327.251)"/>
            <path id="Path_20" d="M254 332.209a2 2 0 1 1-1.993-2.183 1.954 1.954 0 0 1 1.993 2.183zm-3.042 0c0 .832.391 1.327 1.049 1.327.641 0 1.04-.495 1.04-1.327s-.4-1.317-1.04-1.317c-.659 0-1.05.495-1.05 1.317z" class="cls-2" data-name="Path 20" transform="translate(-238.376 -328.033)"/>
            <path id="Path_21" d="M258.078 336.135a.1.1 0 0 1-.1.078h-.8a.076.076 0 0 1-.078-.114l.46-1.091a2.5 2.5 0 0 0-.164-1.949l-1.152-2.8c-.027-.07.009-.113.078-.113h.806a.124.124 0 0 1 .113.07l.684 1.637a7.54 7.54 0 0 1 .355 1.265c.018.087.113.087.139-.009a8.368 8.368 0 0 1 .372-1.256l.677-1.637a.125.125 0 0 1 .113-.07h.8c.07 0 .1.043.078.113z" class="cls-2" data-name="Path 21" transform="translate(-240.131 -328.067)"/>
            <path id="Path_22" d="M266.269 330.156a3.244 3.244 0 0 1 .944-.13c1.17 0 1.89.607 1.89 1.655v2.538a.087.087 0 0 1-.1.1h-.434a.107.107 0 0 1-.113-.078l-.069-.269c-.052-.122-.1-.122-.217-.017a1.525 1.525 0 0 1-1.186.459c-.962 0-1.5-.495-1.5-1.308s.554-1.335 1.577-1.335h1.083v-.052c0-.528-.337-.814-.979-.814a2.383 2.383 0 0 0-.676.085l-.312.1a.091.091 0 0 1-.121-.07l-.19-.642a.089.089 0 0 1 .069-.121zm.8 2.365c-.424 0-.624.2-.624.493 0 .338.234.546.65.546.684 0 1.057-.338 1.057-.979v-.061z" class="cls-2" data-name="Path 22" transform="translate(-242.741 -328.033)"/>
            <path id="Path_23" d="M272.764 330.546c.052.1.1.1.2.009a1.549 1.549 0 0 1 1.2-.529 1.485 1.485 0 0 1 1.586 1.639v2.555a.087.087 0 0 1-.1.1h-.771a.087.087 0 0 1-.095-.1v-2.452c0-.545-.286-.875-.754-.875-.642 0-1.014.469-1.014 1.309v2.019a.086.086 0 0 1-.095.1h-.772a.086.086 0 0 1-.095-.1v-4.011a.086.086 0 0 1 .095-.1h.434a.091.091 0 0 1 .1.086z" class="cls-2" data-name="Path 23" transform="translate(-244.591 -328.033)"/>
            <path id="Path_24" d="M282.387 333.465a.087.087 0 0 1-.1.1h-.432c-.061 0-.1-.026-.1-.078l-.1-.365c-.027-.077-.086-.1-.174 0a1.582 1.582 0 0 1-1.2.538c-1.134 0-1.819-.85-1.819-2.2a1.912 1.912 0 0 1 1.941-2.183 1.738 1.738 0 0 1 .771.146l.251.114v-2.088a.087.087 0 0 1 .1-.1h.771a.087.087 0 0 1 .1.1zm-1.213-3.179a1.679 1.679 0 0 0-.71-.149c-.66 0-1.058.5-1.049 1.317s.381 1.327 1.023 1.327 1-.546 1-1.274v-1.1z" class="cls-2" data-name="Path 24" transform="translate(-246.398 -327.278)"/>
            <path id="Path_25" d="M290.694 334.3a3.644 3.644 0 0 1-.883.112 2.2 2.2 0 0 1-.035-4.385c1.04 0 1.672.52 1.672 1.378 0 .666-.408 1.048-1.275 1.178l-1.36.208a.919.919 0 0 0 .989.745 2.355 2.355 0 0 0 .684-.087l.381-.1a.09.09 0 0 1 .121.07l.174.65a.09.09 0 0 1-.07.121zm-.666-2.462c.3-.051.468-.19.468-.416 0-.347-.269-.529-.738-.529-.572 0-.962.357-1.032 1.153z" class="cls-2" data-name="Path 25" transform="translate(-249.021 -328.033)"/>
            <path id="Path_26" d="M294.533 330.156a3.243 3.243 0 0 1 .944-.13c1.17 0 1.889.607 1.889 1.655v2.538a.087.087 0 0 1-.1.1h-.434a.107.107 0 0 1-.113-.078l-.069-.269c-.052-.122-.1-.122-.216-.017a1.528 1.528 0 0 1-1.187.459c-.962 0-1.5-.495-1.5-1.308s.554-1.335 1.576-1.335h1.083v-.052c0-.528-.338-.814-.979-.814a2.38 2.38 0 0 0-.676.085l-.311.1a.091.091 0 0 1-.122-.07l-.191-.642a.09.09 0 0 1 .069-.121zm.8 2.365c-.424 0-.624.2-.624.493 0 .338.234.546.651.546.684 0 1.056-.338 1.056-.979v-.061z" class="cls-2" data-name="Path 26" transform="translate(-250.709 -328.033)"/>
            <path id="Path_27" d="M302.736 330.8a.087.087 0 0 1-.1.1c-.944.043-1.36.7-1.36 2.3v1.03a.087.087 0 0 1-.1.1h-.772a.086.086 0 0 1-.095-.1v-4.011a.086.086 0 0 1 .095-.1h.434a.1.1 0 0 1 .112.078l.139.494c.053.1.1.112.174.026a1.612 1.612 0 0 1 1.369-.684.087.087 0 0 1 .1.1z" class="cls-2" data-name="Path 27" transform="translate(-252.559 -328.033)"/>
            <path id="Path_28" d="M305.781 330.546c.053.1.1.1.2.009a1.55 1.55 0 0 1 1.2-.529 1.485 1.485 0 0 1 1.586 1.639v2.555a.086.086 0 0 1-.094.1h-.773a.088.088 0 0 1-.1-.1v-2.452c0-.545-.285-.875-.753-.875-.642 0-1.013.469-1.013 1.309v2.019a.088.088 0 0 1-.1.1h-.772a.086.086 0 0 1-.094-.1v-4.011a.086.086 0 0 1 .094-.1h.434a.091.091 0 0 1 .1.086z" class="cls-2" data-name="Path 28" transform="translate(-253.899 -328.033)"/>
            <path id="Path_29" d="M312.986 333.09a.566.566 0 0 1-.607.623.624.624 0 0 1 0-1.247.566.566 0 0 1 .607.624zm-.131-3.362c0 .615-.13 1.5-.164 2.141a.087.087 0 0 1-.1.094h-.51a.086.086 0 0 1-.1-.094c-.027-.642-.157-1.525-.157-2.141v-2.08a.088.088 0 0 1 .1-.1h.832a.087.087 0 0 1 .1.1z" class="cls-2" data-name="Path 29" transform="translate(-255.791 -327.336)"/>
        </g>
        <g id="Group_7" data-name="Group 7" transform="translate(366.056 273.323)">
            <path id="Path_30" d="M456.94 277.51h4.53v1.19h-1.52v3.631h-1.49V278.7h-1.52z" class="cls-2" data-name="Path 30" transform="translate(-456.94 -277.51)"/>
            <path id="Path_31" d="M464.165 277.51h1.959l.756 2.934.75-2.934h1.959v4.823h-1.221v-3.677l-.94 3.677h-1.1l-.939-3.677v3.677h-1.22z" class="cls-2" data-name="Path 31" transform="translate(-458.977 -277.51)"/>
        </g>
    </g>
</svg>
