<svg xmlns="http://www.w3.org/2000/svg" width="22.54" height="27.644" viewBox="0 0 22.54 27.644">
    <defs>
        <style>
            .cls-1{fill:#79520f}
        </style>
    </defs>
    <g id="icons8-apple-logo-50" transform="translate(-3.73 -.356)">
        <path id="Path_5188" d="M25.565 9.785a6.245 6.245 0 0 0-3.051 5.305 6.246 6.246 0 0 0 3.756 5.55 14.905 14.905 0 0 1-1.947 3.94C23.2 26.283 21.962 28 20.076 28c-1.794 0-2.438-1.135-4.508-1.135-2.223 0-2.852 1.135-4.554 1.135-1.886 0-3.22-1.809-4.4-3.5a17.23 17.23 0 0 1-2.882-9A9.487 9.487 0 0 1 4.9 10.536a6.93 6.93 0 0 1 5.734-3.5c1.809-.061 3.419 1.242 4.523 1.242 1.058 0 3.036-1.242 5.274-1.242a6.149 6.149 0 0 1 5.137 2.745zM15 6.688a5.46 5.46 0 0 1 1.4-4.247A5.885 5.885 0 0 1 20.566.356a6 6 0 0 1-1.533 4.339A4.711 4.711 0 0 1 15 6.688z" class="cls-1" data-name="Path 5188"/>
    </g>
</svg>
