<svg xmlns="http://www.w3.org/2000/svg" width="24" height="24" viewBox="0 0 24 24">
    <defs>
        <style>
            .cls-1{fill:#79520f}
        </style>
    </defs>
    <g id="icons8-instagram-50" transform="translate(-3 -3)">
        <path id="Path_5190" d="M10 3a7.008 7.008 0 0 0-7 7v10a7.008 7.008 0 0 0 7 7h10a7.008 7.008 0 0 0 7-7V10a7.008 7.008 0 0 0-7-7H10zm12 4a1 1 0 1 1-1 1 1 1 0 0 1 1-1zm-7 2a6 6 0 1 1-6 6 6.006 6.006 0 0 1 6-6zm0 2a4 4 0 1 0 4 4 4 4 0 0 0-4-4z" class="cls-1" data-name="Path 5190"/>
    </g>
</svg>
