<svg xmlns="http://www.w3.org/2000/svg" width="19.999" height="23.55" viewBox="0 0 19.999 23.55">
    <defs>
        <style>
            .cls-1{fill:#79520f}
        </style>
    </defs>
    <g id="icons8-google-play-50" transform="translate(-6 -3.21)">
        <path id="Path_5189" d="M7.623 3.21L18 13.587l2.678-2.678c-3.66-2.22-8.56-5.2-10.764-6.537l-1.476-.894a1.833 1.833 0 0 0-.815-.266zM6.039 4.454A2.007 2.007 0 0 0 6 4.806v20.5a1.556 1.556 0 0 0 .03.248L16.585 15 6.039 4.453zm16.4 7.524L19.415 15l2.97 2.97c1.575-.953 2.665-1.616 2.786-1.689a1.574 1.574 0 0 0 .829-1.36 1.515 1.515 0 0 0-.824-1.292c-.115-.066-1.19-.715-2.736-1.652zM18 16.414L7.654 26.76a1.683 1.683 0 0 0 .594-.211l12.377-7.51z" class="cls-1" data-name="Path 5189"/>
    </g>
</svg>
