<svg xmlns="http://www.w3.org/2000/svg" width="345" height="153" viewBox="0 0 345 153">
    <defs>
        <style>
            .cls-1,.cls-2,.cls-3{fill:#f8d496}.cls-1,.cls-2{font-size:19px;font-family:MyanmarMN-Bold,Myanmar MN;font-weight:700}.cls-2{font-size:35px;letter-spacing:-.05em}.cls-4,.cls-6{fill:none}.cls-4{stroke:#f8d496}.cls-5{stroke:none}
        </style>
    </defs>
    <g id="Group_3325" data-name="Group 3325" transform="translate(-858 -3276)">
        <text id="Download_on_the" class="cls-1" data-name="Download on the" transform="translate(987 3341)">
            <tspan x="0" y="0">Download on the</tspan>
        </text>
        <text id="App_Store" class="cls-2" data-name="App Store" transform="translate(1065 3375)">
            <tspan x="-78.33" y="0">App Store</tspan>
        </text>
        <g id="apple-seeklogo.com" transform="translate(918.751 3324.831)">
            <path id="Path_4510" d="M37.088 28.974a12.055 12.055 0 0 0 7.32 11.035 29.845 29.845 0 0 1-3.774 7.757C38.36 51.088 36 54.4 32.284 54.467c-3.652.067-4.826-2.166-9-2.166s-5.478 2.1-8.935 2.233c-3.587.136-6.319-3.593-8.611-6.9C1.054 40.86-2.525 28.5 2.281 20.153a13.351 13.351 0 0 1 11.285-6.835c3.523-.067 6.848 2.37 9 2.37s6.193-2.931 10.44-2.5a12.74 12.74 0 0 1 9.975 5.41c-.258.16-5.956 3.477-5.894 10.377M30.225 8.708A12.012 12.012 0 0 0 33.061 0a12.225 12.225 0 0 0-8.034 4.133c-1.765 2.04-3.31 5.306-2.893 8.436 3.06.237 6.186-1.555 8.09-3.862" class="cls-3" data-name="Path 4510"/>
        </g>
        <g id="Rectangle_1062" class="cls-4" data-name="Rectangle 1062" transform="translate(858 3276)">
            <rect width="345" height="153" class="cls-5" rx="26"/>
            <rect width="344" height="152" x=".5" y=".5" class="cls-6" rx="25.5"/>
        </g>
    </g>
</svg>
