<?xml version="1.0" encoding="utf-8"?>
<!-- Generator: Adobe Illustrator 22.0.1, SVG Export Plug-In . SVG Version: 6.00 Build 0)  -->
<svg version="1.1" id="Слой_1" xmlns="http://www.w3.org/2000/svg" xmlns:xlink="http://www.w3.org/1999/xlink" x="0px" y="0px"
	 viewBox="0 0 23.9 21.7" style="enable-background:new 0 0 23.9 21.7;" xml:space="preserve">
<style type="text/css">
	.st0{fill:#F7F4F2;}
</style>
<g id="Group_230">
	<path id="Path_13" class="st0" d="M18.9,12.2c-0.2,0.2-0.4,0.4-0.6,0.5c-0.1,0.1-0.3,0.1-0.4,0.2c-0.1-0.1-0.1-0.3-0.2-0.4
		c-0.1-0.2-0.3-0.4-0.5-0.6c-0.9-0.7-1.9-1.1-3-1.2c0.9-0.2,1.7-0.6,2.4-1.2c0.1-0.1,0.2-0.2,0.3-0.3l-0.2-0.1
		c-0.7-0.2-1.4-0.4-2.2-0.4c-0.1,0.4-0.3,0.8-0.5,1.1c-0.6,0.5-1.3,0.7-2.1,0.6h-1.4V6.2c0-0.2,0.1-0.4,0.2-0.5
		c0.3-0.1,0.7-0.2,1-0.1c0.8-0.1,1.6,0.1,2.3,0.5c0.3,0.2,0.4,0.6,0.5,0.9c0,0.2,0.1,0.3,0.1,0.5c-0.2,0-0.3,0-0.5,0
		c-0.4,0-0.8,0-1.2,0c-0.7,0-1.3,0-1.9,0.1v0.8c0.5-0.1,1-0.1,1.5-0.1c0.1,0,0.3,0,0.4,0c0.1,0,0.3,0,0.4,0c0.3,0,0.5,0,0.8,0
		c0.2,0,0.3,0,0.5,0c0.8,0.1,1.5,0.2,2.2,0.5l0.3,0.1c0.2,0.1,0.3,0.1,0.4,0.2c0.2,0.1,0.5,0.2,0.7,0.4h1.5l0-0.1l-0.2-1.8h-0.7
		L18,8.1l-0.1,0c-0.2,0-0.3-0.1-0.5-0.1c0-0.2,0-0.3,0-0.5c-0.1-0.7-0.4-1.4-1-1.8c-0.8-0.6-1.8-0.9-2.7-0.8h0V3.5h-1.1v1.3h-1.3
		V3.5h-1.1v1.3H6.2v0.8h1c0.2,0,0.4,0,0.6,0.1c0.1,0.1,0.2,0.2,0.2,0.4v6.5c-0.2-0.1-0.3-0.2-0.5-0.4c-0.4-0.3-0.6-0.8-0.6-1.2v0
		c0-0.5,0.2-0.9,0.6-1.3V8.1C7.3,8.1,7.1,8.2,6.9,8.3c-2,0.7-3,1.6-3,2.7v0c0,1,0.9,1.9,2.6,2.5c0.3,0.1,0.6,0.2,1,0.3
		c0.2,0,0.3,0.1,0.5,0.1c0.9,0.2,1.8,0.4,2.6,0.4c0.2,0,0.3,0,0.5,0c0.6,0,1.2,0.1,1.8,0.1c0.7,0,1.3,0,1.9-0.1c0.2,0,0.3,0,0.5,0
		c0.9-0.1,1.7-0.3,2.6-0.6c0.1,0,0.2-0.1,0.3-0.1c0.2-0.1,0.3-0.1,0.4-0.2c0.6-0.3,1.1-0.7,1.5-1.3L18.9,12.2z M14.8,13.6
		c-0.4,0-0.8,0-1.3,0c-0.2,0-0.4,0-0.6,0c-0.2,0-0.3,0-0.5,0c-0.5,0-0.9,0-1.4-0.1c-0.2,0-0.3,0-0.5-0.1v-2.4h1.9
		c0.8-0.1,1.5,0.2,2.1,0.7c0.3,0.3,0.6,0.8,0.7,1.3c0,0.2,0,0.3,0.1,0.5C15.1,13.6,14.9,13.6,14.8,13.6L14.8,13.6z"/>
	<path id="Path_14" class="st0" d="M15.1,14.9c-0.1,0.3-0.3,0.6-0.5,0.8c-0.5,0.5-1.2,0.7-1.8,0.6h-1.6c-0.2,0-0.3-0.1-0.4-0.2
		c-0.1-0.2-0.2-0.3-0.1-0.5v-0.7c-0.9-0.1-1.8-0.2-2.6-0.4v1.1c0,0.2-0.1,0.4-0.2,0.6c-0.1,0.1-0.3,0.2-0.4,0.2H6.2v0.8h3.9v1h1.1
		v-1h1.3v1h1.1v-1c0.8,0,1.6-0.2,2.3-0.4c0.6-0.2,1.1-0.5,1.6-1c0.3-0.4,0.6-0.9,0.6-1.5l-0.1,0C17,14.6,16.1,14.8,15.1,14.9
		L15.1,14.9z"/>
</g>
</svg>
