<svg xmlns="http://www.w3.org/2000/svg" width="58.534" height="58.534" viewBox="0 0 58.534 58.534">
    <defs>
        <style>
            .cls-1{opacity:.5}.cls-2,.cls-3{fill:#fff}.cls-3{fill-rule:evenodd}
        </style>
    </defs>
    <g id="Group_3190" class="cls-1" data-name="Group 3190">
        <g id="Group_2" data-name="Group 2">
            <path id="Path_11" d="M137.221 292.749a27.424 27.424 0 1 0 50.151-15.333 6.521 6.521 0 0 1-.739 1.375 26.036 26.036 0 1 1-12.022-10.116 7.5 7.5 0 0 1 .44-1.293 27.412 27.412 0 0 0-37.83 25.367z" class="cls-2" data-name="Path 11" transform="translate(-135.377 -263.482)"/>
            <path id="Path_12" d="M187.085 274.2a8.919 8.919 0 0 1-.209 1.321 28.277 28.277 0 1 1-12.237-9.758 5.812 5.812 0 0 1 .592-.785 29.349 29.349 0 1 0 11.853 9.222z" class="cls-2" data-name="Path 12" transform="translate(-134.551 -262.656)"/>
        </g>
        <g id="Group_3" data-name="Group 3" transform="translate(7.008 10.405)">
            <path id="Path_13" d="M186.133 301.55a5.186 5.186 0 0 1-1.686 1.4 11.194 11.194 0 0 1-1.149.54 6.937 6.937 0 0 0-.556-1.143 7.668 7.668 0 0 0-1.416-1.71q-2.442-2.226-8.244-3.19a15.035 15.035 0 0 0 6.57-3.207 7.6 7.6 0 0 0 .773-.845l-.435-.148a25.263 25.263 0 0 0-5.926-1.231 5.554 5.554 0 0 1-1.463 2.926q-1.7 1.648-5.641 1.648h-3.83v-11.38a1.581 1.581 0 0 1 .585-1.419 6.016 6.016 0 0 1 2.763-.389q4.563 0 6.191 1.4a4.546 4.546 0 0 1 1.4 2.508 8.6 8.6 0 0 1 .19 1.286q-.63-.052-1.278-.089-1.644-.093-3.407-.1-2.689 0-5.181.195v2.261a33.593 33.593 0 0 1 4.23-.262q.56 0 1.112.02c.373-.012.751-.02 1.137-.02q1.078 0 2.107.059.64.036 1.262.1a26.363 26.363 0 0 1 6.161 1.291c.249.086.49.167.724.246.425.143.826.279 1.2.425a6.292 6.292 0 0 1 1.828 1.017h4.207l-.049-.388-.523-4.914h-1.96l-2.418 1.863-.367-.1q-.627-.173-1.239-.328a7.49 7.49 0 0 0 .002-1.304 7.088 7.088 0 0 0-2.725-5.037 11.474 11.474 0 0 0-7.544-2.28h-.122v-3.521h-3.037v3.521h-3.63v-3.521h-3.037v3.521h-10.735v2.132h2.638a3.083 3.083 0 0 1 1.731.367 1.13 1.13 0 0 1 .516.963v17.915a8.937 8.937 0 0 1-1.267-1.01 4.924 4.924 0 0 1-1.664-3.411v-.115a4.764 4.764 0 0 1 1.667-3.442v-4.341c-.539.157-1.07.32-1.589.5q-8.2 2.775-8.3 7.4v.121q0 4.242 7.2 6.959 1.306.493 2.694.9.624.181 1.267.344a46.626 46.626 0 0 0 7.269 1.21q.624.057 1.267.1c1.574.11 3.229.165 4.976.165 1.857 0 3.584-.073 5.2-.215.443-.039.879-.082 1.306-.132a35.6 35.6 0 0 0 7.112-1.524c.264-.088.519-.177.764-.269q.663-.249 1.236-.519a8.392 8.392 0 0 0 4.034-3.508zm-11.424 3.9a45.037 45.037 0 0 1-3.548.133q-.848 0-1.643-.027-.629.025-1.271.026a33.262 33.262 0 0 1-3.85-.218q-.646-.076-1.267-.176v-6.47h5.16a7.969 7.969 0 0 1 5.733 1.892 6.325 6.325 0 0 1 1.791 3.463 9.908 9.908 0 0 1 .156 1.256q-.616.071-1.26.122z" class="cls-2" data-name="Path 13" transform="translate(-144.701 -277.725)"/>
            <path id="Path_14" d="M178.389 322.184a5.574 5.574 0 0 1-1.426 2.306 7.044 7.044 0 0 1-5.079 1.766h-4.4a1.373 1.373 0 0 1-1.124-.5 2.269 2.269 0 0 1-.413-1.467v-2.049a47.988 47.988 0 0 1-7.269-1.176v3.133a2.4 2.4 0 0 1-.55 1.583 1.514 1.514 0 0 1-1.216.481h-3.122v2.133h10.745v2.8h3.037v-2.8h3.63v2.8h3.037v-2.819a19.584 19.584 0 0 0 6.278-1.152 10.189 10.189 0 0 0 4.322-2.685 7.615 7.615 0 0 0 1.688-4.075c-.1.037-.212.073-.32.108a37.488 37.488 0 0 1-7.818 1.613z" class="cls-2" data-name="Path 14" transform="translate(-147.514 -290.952)"/>
        </g>
        <g id="Group_4" data-name="Group 4" transform="translate(40.403 1.909)">
            <path id="Path_15" d="M197.236 265.421a4.013 4.013 0 0 1 2.731 2.8 2.087 2.087 0 0 0-1.558.249 1.38 1.38 0 0 0-.149.088 3.7 3.7 0 0 0-.619.5c.05-.205.1-.411.144-.619.24-1.1.3-2.278-.549-3.02zm-.639 11.057c-1.99-.09-3.564-2.565-3.532-5.588a7.651 7.651 0 0 1 .659-3.1 5.379 5.379 0 0 1 .574-.952 4.03 4.03 0 0 1 .307-.36c1.262-1.3 2.462-.732 2.381 1a4.848 4.848 0 0 1-.079.661c-.389 2.08-1.084 3.729-1.123 5.973a2.715 2.715 0 0 0 .812 2.362z" class="cls-3" data-name="Path 15" transform="translate(-193.065 -265.421)"/>
            <path id="Path_16" d="M202.4 270.092a4.126 4.126 0 0 1 2.841 3.008 7.879 7.879 0 0 1 .39 2.274 7.528 7.528 0 0 1-1 4.048c-1.088 1.8-2.585 1.645-2.662-.466-.075-2.056.607-3.887 1.015-5.853a2.973 2.973 0 0 0-.58-3.01zm-.521 11.046c-1.987-.069-3.584-2.524-3.584-5.542a7.646 7.646 0 0 1 .626-3.1 5.345 5.345 0 0 1 .564-.957 3.847 3.847 0 0 1 .3-.362c1.246-1.316 2.45-.757 2.388.971a4.774 4.774 0 0 1-.073.661c-.367 2.08-1.043 3.734-1.058 5.975a2.713 2.713 0 0 0 .835 2.35z" class="cls-3" data-name="Path 16" transform="translate(-194.683 -266.867)"/>
        </g>
    </g>
</svg>
