<svg xmlns="http://www.w3.org/2000/svg" width="64.415" height="42.818" viewBox="0 0 64.415 42.818">
    <defs>
        <style>
            .cls-1{opacity:.508}.cls-2{fill:#6d4d42}.cls-3{fill:#1d1300}.cls-4{fill:#4f332f}.cls-5{fill:#5d4038}
        </style>
    </defs>
    <g id="Group_172" class="cls-1" data-name="Group 172" transform="translate(-1161.237 -1473.834)">
        <g id="Group_163" data-name="Group 163" transform="rotate(72 -412.916 1558.463)">
            <g id="Group_161" data-name="Group 161">
                <ellipse id="Ellipse_80" cx="11.914" cy="7.302" class="cls-2" data-name="Ellipse 80" rx="11.914" ry="7.302" transform="rotate(-45 20.339 8.425)"/>
                <g id="Group_160" data-name="Group 160" transform="translate(3.371 3.386)">
                    <path id="Path_172" d="M5.712 20.418a5.7 5.7 0 0 1-4.155-1.558C.093 17.4-.358 15.113.286 12.429A16.662 16.662 0 0 1 4.818 4.8C9.593.029 15.9-1.435 18.876 1.542s1.513 9.282-3.261 14.057a16.672 16.672 0 0 1-7.626 4.533 9.753 9.753 0 0 1-2.277.286zM14.705.645c-2.867 0-6.44 1.65-9.417 4.627C.772 9.788-.691 15.673 2.027 18.391c1.295 1.295 3.356 1.684 5.806 1.1a16.005 16.005 0 0 0 7.312-4.356A16 16 0 0 0 19.5 7.818c.588-2.449.2-4.511-1.1-5.806A5.083 5.083 0 0 0 14.705.645z" class="cls-3" data-name="Path 172"/>
                </g>
            </g>
            <g id="Group_162" data-name="Group 162" transform="translate(5.142 7.005)">
                <path id="Path_173" d="M.332 15.679a.332.332 0 0 1-.215-.585 9.267 9.267 0 0 0 3.2-5.162 9.941 9.941 0 0 1 3.4-5.476 8.687 8.687 0 0 1 5.77-2.267 8.03 8.03 0 0 0 5.391-2.11.332.332 0 1 1 .43.506 8.689 8.689 0 0 1-5.77 2.267 8.029 8.029 0 0 0-5.392 2.111 9.265 9.265 0 0 0-3.2 5.162A9.939 9.939 0 0 1 .547 15.6a.332.332 0 0 1-.215.079z" class="cls-3" data-name="Path 173"/>
            </g>
        </g>
        <g id="Group_167" data-name="Group 167" transform="translate(1161.237 1503.892)">
            <g id="Group_165" data-name="Group 165" transform="translate(.017)">
                <ellipse id="Ellipse_81" cx="9.867" cy="6.048" class="cls-4" data-name="Ellipse 81" rx="9.867" ry="6.048" transform="translate(.332 .332)"/>
                <g id="Group_164" data-name="Group 164">
                    <path id="Path_174" d="M1252.4 1625.49c-5.624 0-10.2-2.862-10.2-6.379s4.575-6.38 10.2-6.38 10.2 2.862 10.2 6.38-4.572 6.379-10.2 6.379zm0-12.1c-5.258 0-9.535 2.564-9.535 5.716s4.277 5.715 9.535 5.715 9.535-2.564 9.535-5.715-4.273-5.712-9.535-5.712z" class="cls-3" data-name="Path 174" transform="translate(-1242.205 -1612.73)"/>
                </g>
            </g>
            <g id="Group_166" data-name="Group 166" transform="translate(0 4.028)">
                <path id="Path_175" d="M1261.654 1635.6h-.028a7.241 7.241 0 0 1-4.739-2.064 6.6 6.6 0 0 0-4.362-1.909 7.633 7.633 0 0 0-4.863 1.144 8.273 8.273 0 0 1-5.231 1.221.332.332 0 0 1 .055-.662 7.626 7.626 0 0 0 4.864-1.144 8.266 8.266 0 0 1 5.23-1.221 7.238 7.238 0 0 1 4.739 2.065 6.6 6.6 0 0 0 4.363 1.908.332.332 0 0 1-.027.663z" class="cls-3" data-name="Path 175" transform="translate(-1242.126 -1630.927)"/>
            </g>
        </g>
        <g id="Group_171" data-name="Group 171" transform="rotate(64.02 -576.824 1715.731)">
            <g id="Group_169" data-name="Group 169">
                <ellipse id="Ellipse_82" cx="7.302" cy="11.914" class="cls-5" data-name="Ellipse 82" rx="7.302" ry="11.914" transform="rotate(-45 12.466 5.163)"/>
                <g id="Group_168" data-name="Group 168" transform="translate(3.386 3.386)">
                    <path id="Path_176" d="M14.705 20.418a9.753 9.753 0 0 1-2.276-.287A16.67 16.67 0 0 1 4.8 15.6C.029 10.825-1.434 4.519 1.542 1.542S10.825.029 15.6 4.8c4.775 4.775 6.238 11.081 3.261 14.057a5.7 5.7 0 0 1-4.156 1.561zM5.713.645a5.082 5.082 0 0 0-3.7 1.366C-.706 4.729.757 10.614 5.273 15.13s10.4 5.978 13.118 3.261 1.254-8.6-3.262-13.118C12.153 2.3 8.58.645 5.713.645z" class="cls-3" data-name="Path 176"/>
                </g>
            </g>
            <g id="Group_170" data-name="Group 170" transform="translate(7.005 3.609)">
                <path id="Path_177" d="M15.347 18.425a.332.332 0 0 1-.254-.117 9.266 9.266 0 0 0-5.162-3.2 9.939 9.939 0 0 1-5.475-3.4A8.688 8.688 0 0 1 2.19 5.939 8.036 8.036 0 0 0 .079.547a.332.332 0 1 1 .506-.43 8.68 8.68 0 0 1 2.266 5.769 8.035 8.035 0 0 0 2.111 5.393 9.267 9.267 0 0 0 5.162 3.2 9.937 9.937 0 0 1 5.476 3.4.332.332 0 0 1-.253.547z" class="cls-3" data-name="Path 177"/>
            </g>
        </g>
    </g>
</svg>
