<svg xmlns="http://www.w3.org/2000/svg" xmlns:xlink="http://www.w3.org/1999/xlink" width="787.845" height="678.198" viewBox="0 0 787.845 678.198">
    <defs>
        <style>
            .cls-1{fill:#00620c}.cls-2{fill:#004e07}.cls-2,.cls-27,.cls-5{opacity:.4}.cls-3{fill:#007f20}.cls-4{fill:#00984e}.cls-5{fill:#008449}.cls-6{fill:#08b562}.cls-7{fill:url(#radial-gradient)}.cls-8{fill:url(#linear-gradient)}.cls-9{fill:url(#linear-gradient-2)}.cls-10{fill:url(#linear-gradient-3)}.cls-11{fill:#f5f5f5}.cls-11,.cls-14,.cls-17,.cls-18,.cls-23{opacity:.6}.cls-12{fill:url(#linear-gradient-4)}.cls-13{fill:url(#linear-gradient-5)}.cls-14{fill:url(#linear-gradient-7)}.cls-15{fill:url(#linear-gradient-8)}.cls-16{fill:url(#linear-gradient-9)}.cls-17{fill:url(#linear-gradient-10)}.cls-18,.cls-20{fill:#663700}.cls-19{fill:url(#linear-gradient-13)}.cls-21{fill:#a7600c}.cls-22{fill:#7e4300}.cls-23,.cls-27{fill:#aa710a}.cls-24{fill:#412106}.cls-25{fill:#fff;opacity:.3}.cls-26{fill:url(#linear-gradient-14)}.cls-28{fill:url(#linear-gradient-15)}.cls-29{fill:#6f4935}.cls-30{fill:#f9b034;stroke:#f9b034;stroke-linecap:square;stroke-width:7px;font-size:99.887px}.cls-30,.cls-31{font-family:BankGothicBT-Light,BankGothic Lt BT}.cls-30,.cls-31,.cls-32{font-weight:300}.cls-31{fill:#f8d496;font-size:28.251px}.cls-32{fill:#b7a991;font-size:11.67px;font-family:OpenSans-Light,Open Sans}.cls-33{fill:#f6d738}.cls-34{fill:#f3cc30}.cls-35{fill:#edbd31}.cls-36{fill:#f7db5e}.cls-37{fill:#a5622b}
        </style>
        <radialGradient id="radial-gradient" cx="-2310.702" cy="-20676.864" r="2054.162" gradientTransform="matrix(.171 0 0 .029 -2108.306 -21556.579)" gradientUnits="userSpaceOnUse">
            <stop offset="0"/>
            <stop offset="1" stop-color="#fff" stop-opacity="0"/>
        </radialGradient>
        <linearGradient id="linear-gradient" x1=".107" x2="1.064" y1="-.199" y2="-.199" gradientUnits="objectBoundingBox">
            <stop offset="0" stop-color="#c8c8c8"/>
            <stop offset=".337" stop-color="#b9babb"/>
            <stop offset=".974" stop-color="#949699"/>
            <stop offset="1" stop-color="#939598"/>
        </linearGradient>
        <linearGradient id="linear-gradient-2" x2="1" y1=".5" y2=".5" gradientUnits="objectBoundingBox">
            <stop offset="0" stop-color="#fff"/>
            <stop offset="1" stop-color="#f1f2f2"/>
        </linearGradient>
        <linearGradient id="linear-gradient-3" x1="-.002" x2=".998" y1=".496" y2=".496" xlink:href="#linear-gradient-2"/>
        <linearGradient id="linear-gradient-4" x1=".269" x2="1.225" y1="-7.123" y2="-7.123" gradientUnits="objectBoundingBox">
            <stop offset="0" stop-color="#bcbec0"/>
            <stop offset="1" stop-color="#f1f2f2"/>
        </linearGradient>
        <linearGradient id="linear-gradient-5" x1=".881" x2=".18" y1=".029" y2="1.169" gradientUnits="objectBoundingBox">
            <stop offset="0" stop-color="#fff"/>
            <stop offset=".569" stop-color="#edeeee"/>
            <stop offset="1" stop-color="#e6e7e8"/>
        </linearGradient>
        <linearGradient id="linear-gradient-7" x1="-.307" x2="1.335" y1=".91" y2=".198" gradientUnits="objectBoundingBox">
            <stop offset="0" stop-color="#f1f2f2"/>
            <stop offset="1" stop-color="#f1f2f2"/>
        </linearGradient>
        <linearGradient id="linear-gradient-8" x2="1" y1=".5" y2=".5" xlink:href="#linear-gradient-2"/>
        <linearGradient id="linear-gradient-9" x2="1" y1=".5" y2=".5" gradientUnits="objectBoundingBox">
            <stop offset="0" stop-color="#fff"/>
            <stop offset=".625" stop-color="#f0f1f1"/>
            <stop offset="1" stop-color="#e6e7e8"/>
        </linearGradient>
        <linearGradient id="linear-gradient-10" x2="1" y1=".5" y2=".5" xlink:href="#linear-gradient-7"/>
        <linearGradient id="linear-gradient-13" x2="1" y1=".5" y2=".5" xlink:href="#linear-gradient"/>
        <linearGradient id="linear-gradient-14" x1=".054" x2=".922" y1=".145" y2=".654" gradientUnits="objectBoundingBox">
            <stop offset="0" stop-color="#663700"/>
            <stop offset="1" stop-color="#420"/>
        </linearGradient>
        <linearGradient id="linear-gradient-15" x1="-20.81" x2="-19.829" y1="-20.327" y2="-19.95" xlink:href="#linear-gradient-14"/>
    </defs>
    <g id="Group_3168" data-name="Group 3168" transform="translate(-1004.485 -251.725)">
        <g id="Objects" transform="translate(770 -731)">
            <g id="Group_40" data-name="Group 40">
                <g id="Group_33" data-name="Group 33">
                    <g id="Group_20" data-name="Group 20">
                        <g id="Group_9" data-name="Group 9">
                            <path id="Path_143" d="M703.624 1507.435c-3.885.846-120.25-173.147 158.936-189.12 0 0-24.177 39.482-24.572 67.718-.346 25.551-31.178 98.973-134.364 121.402z" class="cls-1" data-name="Path 143"/>
                            <path id="Path_144" d="M862.56 1318.315c-255.909 14.643-171.946 174.636-160.5 187.853.984.833 1.564 1.267 1.564 1.267-32.188-156.07 158.936-189.12 158.936-189.12z" class="cls-2" data-name="Path 144"/>
                            <path id="Path_145" d="M807.6 1420.709c-16.693 51.719-61.825 69.373-103.977 86.726 103.186-22.429 134.018-95.851 134.364-121.4.4-28.236 24.572-67.718 24.572-67.718S827.2 1359.9 807.6 1420.709z" class="cls-3" data-name="Path 145"/>
                        </g>
                        <g id="Group_10" data-name="Group 10">
                            <path id="Path_146" d="M684.188 1485.1c-2.458-1.923 47.564-150.469 248.337 1.019 0 0-54.156 6.3-77.472 22.9-20.74 14.775-97.889 33.274-170.865-23.919z" class="cls-4" data-name="Path 146"/>
                            <path id="Path_147" d="M932.525 1486.121c-187.918-141.786-245.574-16.133-248.305-2.609-.043 1.018-.032 1.59-.032 1.59 84.427-99.542 248.337 1.019 248.337 1.019z" class="cls-5" data-name="Path 147"/>
                            <path id="Path_148" d="M805.6 1506.981c-49.224 16.952-87.952-4.277-121.414-21.879 72.976 57.191 150.125 38.692 170.865 23.916 23.316-16.6 77.472-22.9 77.472-22.9s-64.799-.557-126.923 20.863z" class="cls-6" data-name="Path 148"/>
                        </g>
                        <path id="Path_149" d="M937.551 1600.767c0 33.223-157.385 60.156-351.532 60.156s-351.534-26.933-351.534-60.156 157.386-60.158 351.534-60.158 351.532 26.935 351.532 60.158z" class="cls-7" data-name="Path 149"/>
                        <g id="Group_19" data-name="Group 19">
                            <g id="Group_13" data-name="Group 13">
                                <g id="Group_12" data-name="Group 12">
                                    <path id="Path_150" d="M806.081 1544.651c-.206 36.429-99.625 65.4-222.05 64.7s-221.512-30.8-221.3-67.225 99.625-65.4 222.054-64.707 221.503 30.8 221.296 67.232z" class="cls-8" data-name="Path 150"/>
                                    <path id="Path_151" d="M812.478 1535.4c0 32.016-102.121 57.973-228.091 57.973s-228.1-25.957-228.1-57.972 102.124-57.975 228.1-57.975 228.091 25.951 228.091 57.974z" class="cls-9" data-name="Path 151"/>
                                    <g id="Group_11" data-name="Group 11">
                                        <path id="Path_152" d="M812.478 1532.745c.02 30.624-102.085 55.511-228.057 55.581S356.31 1563.627 356.29 1533s102.089-55.509 228.064-55.582 228.106 24.701 228.124 55.327z" class="cls-10" data-name="Path 152"/>
                                        <path id="Path_153" d="M812.478 1532.874c0-30.626-102.121-55.453-228.091-55.453q-10.947 0-21.642.25l-.017.005S750.372 1496 725.88 1538.24s-179.4 38.893-235.74 45.144a866.015 866.015 0 0 0 94.249 4.942c125.968 0 228.089-24.826 228.089-55.452z" class="cls-11" data-name="Path 153"/>
                                    </g>
                                    <path id="Path_154" d="M496.026 1490.964s-84.052 13.271-99.092 34.507 17.7 38.044 17.7 38.044-46.007-5.311-41.585-36.276 122.977-36.275 122.977-36.275z" class="cls-11" data-name="Path 154"/>
                                </g>
                                <path id="Path_155" d="M671.8 1533.729c0 11.087-38.483 20.079-85.95 20.08s-85.951-8.989-85.951-20.078 38.484-20.079 85.951-20.079 85.95 8.987 85.95 20.077z" class="cls-12" data-name="Path 155"/>
                            </g>
                            <g id="Group_18" data-name="Group 18">
                                <g id="Group_15" data-name="Group 15">
                                    <path id="Path_156" d="M741.993 1355.99s13.819 5.238 27.793 3.031 52.958-2.206 44.867 48.545-54.731 89.323-146.888 83.276c0 0 7.488-22.82 22.39-27.672 0 0 82.21 3.849 101.7-42.364s-22.816-54.556-59.217-24.7c-.003-.006 2.892-27.701 9.355-40.116z" class="cls-13" data-name="Path 156"/>
                                    <path id="Path_157" d="M760.006 1370.5c-14.393 1.439-19.395-3.223-21.135-6.639-4.279 13.555-6.236 32.24-6.236 32.24 36.4-29.853 78.7-21.51 59.217 24.7s-101.7 42.364-101.7 42.364a23.54 23.54 0 0 0-8.281 4.955c61.989 4.944 105.53-11.931 116.928-54.595s-16.728-45.225-38.793-43.025z" class="cls-9" data-name="Path 157"/>
                                    <g id="Group_14" data-name="Group 14">
                                        <path id="Path_158" d="M803.088 1439.842c-33.187 54.564-131.65 42.495-131.65 42.495l-3.673 8.505c71.246 4.676 115.265-17.329 135.323-51z" class="cls-14" data-name="Path 158"/>
                                        <path id="Path_159" d="M803.536 1439.109c.2-.342.39-.69.584-1.035-.196.344-.383.696-.584 1.035z" class="cls-15" data-name="Path 159"/>
                                    </g>
                                </g>
                                <g id="Group_17" data-name="Group 17">
                                    <path id="Path_160" d="M741.1 1334.013c-8.089-56.636-164.023-54.062-164.023-54.062s-155.935-2.574-164.024 54.062 30.159 104.446 60.314 140.486 30.893 46.338 31.628 55.164 33.1 20.373 72.082 19.638c38.981.735 71.348-10.811 72.082-19.638s1.472-19.124 31.626-55.164 68.407-83.85 60.315-140.486z" class="cls-16" data-name="Path 160"/>
                                    <path id="Path_161" d="M741.1 1334.013c-8.089-56.636-164.023-54.062-164.023-54.062s-118.492-1.95-154.246 35.07a59.306 59.306 0 0 0-9.416 17.055s32.586 52.343 114.9 57.918c135.7 9.194 107.182 55.569 105.916 62.152-9.438 49.116-72.223 92.113-132.467 63.526a40.3 40.3 0 0 1 3.236 13.991c.734 8.827 33.1 20.373 72.082 19.638 38.981.735 71.348-10.811 72.082-19.638s1.472-19.124 31.626-55.164 68.402-83.85 60.31-140.486z" class="cls-17" data-name="Path 161"/>
                                    <path id="Path_162" d="M658.5 1338.507c-24.37 27.511-113.717 29.791-113.955 29.8a512.313 512.313 0 0 0 32.31 1.014c78.188 0 142.535-17.222 150.813-39.348-.235-.147-32.09-27.288-126.222-30.884 3.746.559 80.868 12.536 57.054 39.418z" class="cls-18" data-name="Path 162"/>
                                    <path id="Path_163" d="M497.782 1371.8s18.764 18.19 95.259 13.778 100.03 7.354 88.263 42.659-50.16 146.91-179.541 87.431a40.3 40.3 0 0 1 3.237 13.995c.734 8.827 33.1 20.373 72.082 19.638 38.981.735 71.348-10.811 72.082-19.638s1.472-19.124 31.626-55.164 68.4-83.85 60.315-140.486c-3.75-26.258-39.283-39.784-76.319-46.743-91.542 27.421-203.619 66.56-167.004 84.53z" class="cls-17" data-name="Path 163"/>
                                    <g id="Group_16" data-name="Group 16">
                                        <path id="Path_164" d="M741.1 1327.01c0 28.222-73.532 51.1-164.244 51.1s-164.245-22.879-164.245-51.1 73.532-51.1 164.245-51.1 164.244 22.877 164.244 51.1z" class="cls-9" data-name="Path 164"/>
                                        <path id="Path_165" d="M728.6 1325.131c0 24.4-67.932 44.187-151.738 44.187s-151.738-19.783-151.738-44.187 67.932-44.189 151.738-44.189 151.738 19.784 151.738 44.189z" class="cls-19" data-name="Path 165"/>
                                        <path id="Path_166" d="M426.933 1331.963c11.281 21.16 74.1 37.355 149.926 37.355 78.188 0 142.535-17.222 150.813-39.348-.254-.16-40.647-31.994-146.916-31.263-82.374.567-120.093 13.559-153.823 33.256z" class="cls-20" data-name="Path 166"/>
                                        <path id="Path_167" d="M585.686 1307.615s-136.8 11.371-124.589 35.471c.003 0-42.652-30.14 124.589-35.471z" class="cls-21" data-name="Path 167"/>
                                    </g>
                                </g>
                            </g>
                        </g>
                    </g>
                    <g id="Group_32" data-name="Group 32">
                        <g id="Group_23" data-name="Group 23">
                            <g id="Group_22" data-name="Group 22">
                                <path id="Path_168" d="M620.03 1220.539s10.139-20.356-15.227-38.624c-19.649-14.148-41.326-19.44-55.834-4.5-17.516 18.041.679 45.61 19.517 53.551s41.219 10.977 51.544-10.427z" class="cls-22" data-name="Path 168"/>
                                <g id="Group_21" data-name="Group 21">
                                    <path id="Path_169" d="M557.707 1224.21h.007c-10.952-18.644 6.4-16.3 1.245-39.209-4.066-18.066 27.106-13.412 27.106-13.412-13.762-5.155-27.125-4.444-37.1 5.825-14.065 14.492-5.094 35.117 8.742 46.796z" class="cls-23" data-name="Path 169"/>
                                    <path id="Path_170" d="M617.517 1219.318s-17.951 1.13-34.577-15.877c-16.624-17.022-24.269-21.609-36.8-18.33 0 0 10.892 2.063 21.614 14.427s26.946 32.469 49.763 19.78z" class="cls-24" data-name="Path 170"/>
                                </g>
                            </g>
                            <path id="Path_171" d="M618.4 1215.335s2.012-14.318-7.275-23.573c-8.783-8.752-19.931-16.893-37.757-19.938 0 0 42.72 18.908 45.032 43.511z" class="cls-25" data-name="Path 171"/>
                        </g>
                        <g id="Group_27" data-name="Group 27">
                            <path id="Path_172" d="M656.647 1137.783s-.613 15.255-23.322 19.381c-19.094 3.47-28.864-7.521-24.848-19.772s24.048-9.162 24.048-9.162 26.98-3.441 24.122 9.553z" class="cls-26" data-name="Path 172"/>
                            <g id="Group_26" data-name="Group 26">
                                <g id="Group_25" data-name="Group 25">
                                    <path id="Path_173" d="M654.459 1127.889s8.613 9.346-5.14 18.132c-10.652 6.8-23.569 9.512-34.3 2.734-12.948-8.185-4.714-21.211 6.135-25.117s24.458-5.579 33.305 4.251z" class="cls-22" data-name="Path 173"/>
                                    <g id="Group_24" data-name="Group 24">
                                        <path id="Path_174" d="M615.2 1126.9h.007c-4.727 8.792 5.827 7.5 5.193 18.213-.5 8.446 18.408 5.924 18.408 5.924-8 2.554-16.408 2.377-23.783-2.282-10.405-6.574-7.136-16.266.175-21.855z" class="cls-27" data-name="Path 174"/>
                                        <path id="Path_175" d="M653.029 1128.484s-11.314-.318-19.761 7.782-12.7 10.324-20.877 8.943a22.538 22.538 0 0 0 11.848-6.955c5.293-5.872 13.141-15.403 28.79-9.77z" class="cls-24" data-name="Path 175"/>
                                    </g>
                                </g>
                                <path id="Path_176" d="M654.03 1130.328s2.866 6.632-1.88 11.041c-4.485 4.17-10.518 8.084-21.289 9.7 0 .002 24.5-9.279 23.169-20.741z" class="cls-25" data-name="Path 176"/>
                            </g>
                        </g>
                        <g id="Group_31" data-name="Group 31">
                            <path id="Path_177" d="M629.384 1050.84s5.006 9.619-7.533 20.176c-10.545 8.878-20.448 5.552-22.3-3.416s11.589-14.134 11.589-14.134 15.418-11.645 18.244-2.626z" class="cls-28" data-name="Path 177"/>
                            <g id="Group_30" data-name="Group 30">
                                <g id="Group_29" data-name="Group 29">
                                    <path id="Path_178" d="M624.545 1045.512s8.606 2.721 3.227 12.992c-4.164 7.953-11.17 14.181-20.171 13.788-10.872-.473-10.4-11.408-5.085-17.645s13.104-12.07 22.029-9.135z" class="cls-22" data-name="Path 178"/>
                                    <g id="Group_28" data-name="Group 28">
                                        <path id="Path_179" d="M599.994 1058.762c.19 7.086 6.241 2.565 9.63 9.391 2.674 5.382 13.433-2.846 13.433-2.846-4.028 4.4-9.27 7.257-15.459 6.986-8.73-.381-10.137-7.508-7.604-13.531z" class="cls-23" data-name="Path 179"/>
                                        <path id="Path_180" d="M623.871 1046.387a21.3 21.3 0 0 0-9.432 11.768c-2.346 7.978-4.182 10.845-9.715 12.882a16.017 16.017 0 0 0 4.851-8.469c1.191-5.486 2.663-14.133 14.296-16.181z" class="cls-24" data-name="Path 180"/>
                                    </g>
                                </g>
                                <path id="Path_181" d="M625.14 1047.168s4.107 3.077 2.738 7.469c-1.294 4.153-3.63 8.7-9.7 13.494.003 0 11.828-14.367 6.962-20.963z" class="cls-25" data-name="Path 181"/>
                            </g>
                        </g>
                        <path id="Path_182" d="M634.456 984.958c-.656-1.069-1.748-2.361-3.07-2.223a19.926 19.926 0 0 1-2.792.277c-1.175-.009-1.177.286-2.062.72s-2.939.421-3.54 2.474-1.049 3.225.411 4.409 2.479 2.953 3.063 3.4a10.33 10.33 0 0 0 3.808 1.641c1.321.155 3.959.907 4.557-.705a27.315 27.315 0 0 0 1.358-5.719c.311-2.205-1.068-3.188-1.733-4.274z" class="cls-29" data-name="Path 182"/>
                    </g>
                </g>
                <g id="Group_39" data-name="Group 39">
                    <g id="Group_36" data-name="Group 36">
                        <g id="Group_34" data-name="Group 34">
                            <text id="BFF" class="cls-30" transform="translate(818.593 1159.55)">
                                <tspan x="-101.911" y="0">BFF</tspan>
                            </text>
                        </g>
                        <g id="Group_35" data-name="Group 35" transform="translate(-6)">
                            <text id="coin_system" class="cls-31" data-name="coin system" transform="translate(937.816 1192.964)">
                                <tspan x="-89.34" y="0">coin system</tspan>
                            </text>
                        </g>
                    </g>
                    <g id="Group_38" data-name="Group 38" transform="translate(-6)">
                        <g id="Group_37" data-name="Group 37">
                            <text id="Запатентованная_система_созданная_для_управления_вашими_сбережениями_и_инвестициями_а_так_же_для_вашего_комфортного_использования_кофеен_по_всему_миру_подключенных_к_системе_BITCOFFEEN" class="cls-32" data-name="Запатентованная система, созданная для управления вашими сбережениями и инвестициями, а так же для вашего комфортного использования кофеен по всему миру, подключенных к системе BITCOFFEEN" transform="translate(730.33 1216.512)">
                                <tspan x="0" y="12">Запатентованная система, созданная для управления </tspan><tspan x="0" y="26.004">вашими сбережениями и инвестициями, а так же для </tspan><tspan x="0" y="40.009">вашего комфортного использования кофеен по </tspan><tspan x="0" y="54.013">всему миру, подключенных к системе </tspan><tspan y="54.013">BITCOFFEEN</tspan>
                            </text>
                        </g>
                    </g>
                </g>
            </g>
        </g>
        <g id="Group_650" data-name="Group 650" transform="rotate(-30 1231.425 -1538.839)">
            <g id="Group_644" data-name="Group 644" transform="translate(243.5 243.5)">
                <circle id="Ellipse_116" cx="18.648" cy="18.648" r="18.648" class="cls-33" data-name="Ellipse 116"/>
            </g>
            <g id="Group_645" data-name="Group 645" transform="translate(246.322 246.322)">
                <circle id="Ellipse_117" cx="15.826" cy="15.826" r="15.826" class="cls-34" data-name="Ellipse 117"/>
            </g>
            <g id="Group_646" data-name="Group 646" transform="translate(248.812 248.64)">
                <path id="Path_2321" d="M355.551 331.017a15.828 15.828 0 0 1-21.616 22.014 15.827 15.827 0 1 0 21.616-22.014z" class="cls-35" data-name="Path 2321" transform="translate(-333.935 -331.017)"/>
            </g>
            <g id="Group_647" data-name="Group 647" transform="translate(248.054 248.072)">
                <path id="Path_2322" d="M322.079 336.872a13.97 13.97 0 0 1 25.045-8.516 13.971 13.971 0 1 0-23.188 15.479 13.906 13.906 0 0 1-1.857-6.963z" class="cls-36" data-name="Path 2322" transform="translate(-321.039 -321.348)"/>
            </g>
            <g id="Group_649" data-name="Group 649" transform="translate(254.118 255.693)">
                <path id="Path_13" d="M282.838 574.607a1.92 1.92 0 0 1-.623.516 4.213 4.213 0 0 1-.425.2 2.535 2.535 0 0 0-.205-.422 2.833 2.833 0 0 0-.523-.632 6.018 6.018 0 0 0-3.046-1.179 5.552 5.552 0 0 0 2.427-1.185 2.8 2.8 0 0 0 .286-.312l-.161-.055a9.336 9.336 0 0 0-2.19-.455 2.051 2.051 0 0 1-.541 1.081 2.932 2.932 0 0 1-2.084.609h-1.415v-4.2a.584.584 0 0 1 .216-.524 2.223 2.223 0 0 1 1.021-.144 3.657 3.657 0 0 1 2.288.516 1.682 1.682 0 0 1 .518.927 3.149 3.149 0 0 1 .07.475q-.233-.019-.472-.033-.607-.035-1.259-.035-.994 0-1.914.072v.835a12.407 12.407 0 0 1 1.563-.1q.207 0 .411.007c.138 0 .277-.007.42-.007q.4 0 .779.022.237.014.466.035a9.757 9.757 0 0 1 2.276.477l.268.091c.157.053.3.1.444.157a2.326 2.326 0 0 1 .676.376h1.554l-.018-.143-.193-1.816h-.724l-.893.688-.136-.037q-.232-.064-.458-.121c.007-.081.011-.164.011-.248s0-.157-.01-.234a2.619 2.619 0 0 0-1.006-1.861 4.24 4.24 0 0 0-2.787-.842h-.049v-1.3h-1.122v1.3h-1.338v-1.3h-1.122v1.3h-3.97v.788h.974a1.139 1.139 0 0 1 .64.136.418.418 0 0 1 .191.356V575a3.316 3.316 0 0 1-.468-.373 1.819 1.819 0 0 1-.615-1.26v-.043a1.76 1.76 0 0 1 .616-1.271v-1.6q-.3.086-.587.183-3.029 1.026-3.067 2.735v.041q0 1.567 2.66 2.571.483.182.995.331.23.067.468.127a17.237 17.237 0 0 0 2.686.447q.23.021.468.038c.581.041 1.193.061 1.839.061.686 0 1.324-.027 1.923-.079q.245-.021.482-.049a13.144 13.144 0 0 0 2.628-.56c.1-.032.192-.066.283-.1q.245-.092.457-.191a3.1 3.1 0 0 0 1.491-1.3zm-4.221 1.441c-.412.032-.847.049-1.311.049q-.313 0-.607-.01-.233.009-.47.009a12.246 12.246 0 0 1-1.422-.081 10.995 10.995 0 0 1-.468-.065v-2.39h1.906a2.943 2.943 0 0 1 2.118.7 2.337 2.337 0 0 1 .662 1.28 3.59 3.59 0 0 1 .058.464q-.228.025-.466.044z" class="cls-37" data-name="Path 13" transform="translate(-267.53 -565.804)"/>
                <path id="Path_14" d="M286.4 612.425a2.056 2.056 0 0 1-.527.852 2.6 2.6 0 0 1-1.877.652h-1.627a.508.508 0 0 1-.415-.186.838.838 0 0 1-.152-.542v-.757a17.747 17.747 0 0 1-2.686-.434v1.158a.889.889 0 0 1-.2.585.56.56 0 0 1-.449.178h-1.157v.788h3.97v1.035h1.12v-1.035h1.341v1.035h1.122v-1.044a7.244 7.244 0 0 0 2.32-.426 3.765 3.765 0 0 0 1.6-.992 2.813 2.813 0 0 0 .624-1.505l-.118.04a13.865 13.865 0 0 1-2.889.598z" class="cls-37" data-name="Path 14" transform="translate(-274.991 -600.886)"/>
            </g>
        </g>
        <g id="Group_3165" data-name="Group 3165" transform="rotate(-30 1424.939 -1648.987)">
            <g id="Group_644-2" data-name="Group 644" transform="translate(243.5 243.5)">
                <circle id="Ellipse_116-2" cx="18.648" cy="18.648" r="18.648" class="cls-33" data-name="Ellipse 116"/>
            </g>
            <g id="Group_645-2" data-name="Group 645" transform="translate(246.322 246.322)">
                <circle id="Ellipse_117-2" cx="15.826" cy="15.826" r="15.826" class="cls-34" data-name="Ellipse 117"/>
            </g>
            <g id="Group_646-2" data-name="Group 646" transform="translate(248.812 248.64)">
                <path id="Path_2321-2" d="M355.551 331.017a15.828 15.828 0 0 1-21.616 22.014 15.827 15.827 0 1 0 21.616-22.014z" class="cls-35" data-name="Path 2321" transform="translate(-333.935 -331.017)"/>
            </g>
            <g id="Group_647-2" data-name="Group 647" transform="translate(248.054 248.072)">
                <path id="Path_2322-2" d="M322.079 336.872a13.97 13.97 0 0 1 25.045-8.516 13.971 13.971 0 1 0-23.188 15.479 13.906 13.906 0 0 1-1.857-6.963z" class="cls-36" data-name="Path 2322" transform="translate(-321.039 -321.348)"/>
            </g>
            <g id="Group_649-2" data-name="Group 649" transform="translate(254.118 255.693)">
                <path id="Path_13-2" d="M282.838 574.607a1.92 1.92 0 0 1-.623.516 4.213 4.213 0 0 1-.425.2 2.535 2.535 0 0 0-.205-.422 2.833 2.833 0 0 0-.523-.632 6.018 6.018 0 0 0-3.046-1.179 5.552 5.552 0 0 0 2.427-1.185 2.8 2.8 0 0 0 .286-.312l-.161-.055a9.336 9.336 0 0 0-2.19-.455 2.051 2.051 0 0 1-.541 1.081 2.932 2.932 0 0 1-2.084.609h-1.415v-4.2a.584.584 0 0 1 .216-.524 2.223 2.223 0 0 1 1.021-.144 3.657 3.657 0 0 1 2.288.516 1.682 1.682 0 0 1 .518.927 3.149 3.149 0 0 1 .07.475q-.233-.019-.472-.033-.607-.035-1.259-.035-.994 0-1.914.072v.835a12.407 12.407 0 0 1 1.563-.1q.207 0 .411.007c.138 0 .277-.007.42-.007q.4 0 .779.022.237.014.466.035a9.757 9.757 0 0 1 2.276.477l.268.091c.157.053.3.1.444.157a2.326 2.326 0 0 1 .676.376h1.554l-.018-.143-.193-1.816h-.724l-.893.688-.136-.037q-.232-.064-.458-.121c.007-.081.011-.164.011-.248s0-.157-.01-.234a2.619 2.619 0 0 0-1.006-1.861 4.24 4.24 0 0 0-2.787-.842h-.049v-1.3h-1.122v1.3h-1.338v-1.3h-1.122v1.3h-3.97v.788h.974a1.139 1.139 0 0 1 .64.136.418.418 0 0 1 .191.356V575a3.316 3.316 0 0 1-.468-.373 1.819 1.819 0 0 1-.615-1.26v-.043a1.76 1.76 0 0 1 .616-1.271v-1.6q-.3.086-.587.183-3.029 1.026-3.067 2.735v.041q0 1.567 2.66 2.571.483.182.995.331.23.067.468.127a17.237 17.237 0 0 0 2.686.447q.23.021.468.038c.581.041 1.193.061 1.839.061.686 0 1.324-.027 1.923-.079q.245-.021.482-.049a13.144 13.144 0 0 0 2.628-.56c.1-.032.192-.066.283-.1q.245-.092.457-.191a3.1 3.1 0 0 0 1.491-1.3zm-4.221 1.441c-.412.032-.847.049-1.311.049q-.313 0-.607-.01-.233.009-.47.009a12.246 12.246 0 0 1-1.422-.081 10.995 10.995 0 0 1-.468-.065v-2.39h1.906a2.943 2.943 0 0 1 2.118.7 2.337 2.337 0 0 1 .662 1.28 3.59 3.59 0 0 1 .058.464q-.228.025-.466.044z" class="cls-37" data-name="Path 13" transform="translate(-267.53 -565.804)"/>
                <path id="Path_14-2" d="M286.4 612.425a2.056 2.056 0 0 1-.527.852 2.6 2.6 0 0 1-1.877.652h-1.627a.508.508 0 0 1-.415-.186.838.838 0 0 1-.152-.542v-.757a17.747 17.747 0 0 1-2.686-.434v1.158a.889.889 0 0 1-.2.585.56.56 0 0 1-.449.178h-1.157v.788h3.97v1.035h1.12v-1.035h1.341v1.035h1.122v-1.044a7.244 7.244 0 0 0 2.32-.426 3.765 3.765 0 0 0 1.6-.992 2.813 2.813 0 0 0 .624-1.505l-.118.04a13.865 13.865 0 0 1-2.889.598z" class="cls-37" data-name="Path 14" transform="translate(-274.991 -600.886)"/>
            </g>
        </g>
        <g id="Group_3166" data-name="Group 3166" transform="rotate(14 -538.222 5235.349)">
            <g id="Group_644-3" data-name="Group 644" transform="translate(243.5 243.5)">
                <circle id="Ellipse_116-3" cx="18.648" cy="18.648" r="18.648" class="cls-33" data-name="Ellipse 116"/>
            </g>
            <g id="Group_645-3" data-name="Group 645" transform="translate(246.322 246.322)">
                <circle id="Ellipse_117-3" cx="15.826" cy="15.826" r="15.826" class="cls-34" data-name="Ellipse 117"/>
            </g>
            <g id="Group_646-3" data-name="Group 646" transform="translate(248.812 248.64)">
                <path id="Path_2321-3" d="M355.551 331.017a15.828 15.828 0 0 1-21.616 22.014 15.827 15.827 0 1 0 21.616-22.014z" class="cls-35" data-name="Path 2321" transform="translate(-333.935 -331.017)"/>
            </g>
            <g id="Group_647-3" data-name="Group 647" transform="translate(248.054 248.072)">
                <path id="Path_2322-3" d="M322.079 336.872a13.97 13.97 0 0 1 25.045-8.516 13.971 13.971 0 1 0-23.188 15.479 13.906 13.906 0 0 1-1.857-6.963z" class="cls-36" data-name="Path 2322" transform="translate(-321.039 -321.348)"/>
            </g>
            <g id="Group_649-3" data-name="Group 649" transform="translate(254.118 255.693)">
                <path id="Path_13-3" d="M282.838 574.607a1.92 1.92 0 0 1-.623.516 4.213 4.213 0 0 1-.425.2 2.535 2.535 0 0 0-.205-.422 2.833 2.833 0 0 0-.523-.632 6.018 6.018 0 0 0-3.046-1.179 5.552 5.552 0 0 0 2.427-1.185 2.8 2.8 0 0 0 .286-.312l-.161-.055a9.336 9.336 0 0 0-2.19-.455 2.051 2.051 0 0 1-.541 1.081 2.932 2.932 0 0 1-2.084.609h-1.415v-4.2a.584.584 0 0 1 .216-.524 2.223 2.223 0 0 1 1.021-.144 3.657 3.657 0 0 1 2.288.516 1.682 1.682 0 0 1 .518.927 3.149 3.149 0 0 1 .07.475q-.233-.019-.472-.033-.607-.035-1.259-.035-.994 0-1.914.072v.835a12.407 12.407 0 0 1 1.563-.1q.207 0 .411.007c.138 0 .277-.007.42-.007q.4 0 .779.022.237.014.466.035a9.757 9.757 0 0 1 2.276.477l.268.091c.157.053.3.1.444.157a2.326 2.326 0 0 1 .676.376h1.554l-.018-.143-.193-1.816h-.724l-.893.688-.136-.037q-.232-.064-.458-.121c.007-.081.011-.164.011-.248s0-.157-.01-.234a2.619 2.619 0 0 0-1.006-1.861 4.24 4.24 0 0 0-2.787-.842h-.049v-1.3h-1.122v1.3h-1.338v-1.3h-1.122v1.3h-3.97v.788h.974a1.139 1.139 0 0 1 .64.136.418.418 0 0 1 .191.356V575a3.316 3.316 0 0 1-.468-.373 1.819 1.819 0 0 1-.615-1.26v-.043a1.76 1.76 0 0 1 .616-1.271v-1.6q-.3.086-.587.183-3.029 1.026-3.067 2.735v.041q0 1.567 2.66 2.571.483.182.995.331.23.067.468.127a17.237 17.237 0 0 0 2.686.447q.23.021.468.038c.581.041 1.193.061 1.839.061.686 0 1.324-.027 1.923-.079q.245-.021.482-.049a13.144 13.144 0 0 0 2.628-.56c.1-.032.192-.066.283-.1q.245-.092.457-.191a3.1 3.1 0 0 0 1.491-1.3zm-4.221 1.441c-.412.032-.847.049-1.311.049q-.313 0-.607-.01-.233.009-.47.009a12.246 12.246 0 0 1-1.422-.081 10.995 10.995 0 0 1-.468-.065v-2.39h1.906a2.943 2.943 0 0 1 2.118.7 2.337 2.337 0 0 1 .662 1.28 3.59 3.59 0 0 1 .058.464q-.228.025-.466.044z" class="cls-37" data-name="Path 13" transform="translate(-267.53 -565.804)"/>
                <path id="Path_14-3" d="M286.4 612.425a2.056 2.056 0 0 1-.527.852 2.6 2.6 0 0 1-1.877.652h-1.627a.508.508 0 0 1-.415-.186.838.838 0 0 1-.152-.542v-.757a17.747 17.747 0 0 1-2.686-.434v1.158a.889.889 0 0 1-.2.585.56.56 0 0 1-.449.178h-1.157v.788h3.97v1.035h1.12v-1.035h1.341v1.035h1.122v-1.044a7.244 7.244 0 0 0 2.32-.426 3.765 3.765 0 0 0 1.6-.992 2.813 2.813 0 0 0 .624-1.505l-.118.04a13.865 13.865 0 0 1-2.889.598z" class="cls-37" data-name="Path 14" transform="translate(-274.991 -600.886)"/>
            </g>
        </g>
        <g id="Group_648" data-name="Group 648" transform="rotate(38 549.125 2034.614)">
            <g id="Group_644-4" data-name="Group 644" transform="translate(243.5 243.5)">
                <circle id="Ellipse_116-4" cx="10.422" cy="10.422" r="10.422" class="cls-33" data-name="Ellipse 116"/>
            </g>
            <g id="Group_645-4" data-name="Group 645" transform="translate(245.077 245.077)">
                <circle id="Ellipse_117-4" cx="8.845" cy="8.845" r="8.845" class="cls-34" data-name="Ellipse 117"/>
            </g>
            <g id="Group_646-4" data-name="Group 646" transform="translate(246.469 246.373)">
                <path id="Path_2321-4" d="M346.016 331.017a8.846 8.846 0 0 1-12.081 12.3 8.846 8.846 0 1 0 12.081-12.3z" class="cls-35" data-name="Path 2321" transform="translate(-333.935 -331.017)"/>
            </g>
            <g id="Group_647-4" data-name="Group 647" transform="translate(246.045 246.055)">
                <path id="Path_2322-4" d="M321.62 330.024a7.808 7.808 0 0 1 14-4.76 7.808 7.808 0 1 0-12.96 8.651 7.772 7.772 0 0 1-1.04-3.891z" class="cls-36" data-name="Path 2322" transform="translate(-321.039 -321.348)"/>
            </g>
            <g id="Group_649-4" data-name="Group 649" transform="translate(249.434 250.314)">
                <path id="Path_13-4" d="M276.085 570.724a1.074 1.074 0 0 1-.348.289 2.361 2.361 0 0 1-.237.112 1.413 1.413 0 0 0-.115-.236 1.584 1.584 0 0 0-.292-.353 3.364 3.364 0 0 0-1.7-.659 3.1 3.1 0 0 0 1.357-.662 1.558 1.558 0 0 0 .16-.174l-.09-.031a5.217 5.217 0 0 0-1.224-.254 1.146 1.146 0 0 1-.3.6 1.639 1.639 0 0 1-1.165.34h-.791v-2.346a.326.326 0 0 1 .121-.293 1.243 1.243 0 0 1 .571-.08 2.044 2.044 0 0 1 1.278.288.94.94 0 0 1 .29.518 1.76 1.76 0 0 1 .039.266q-.13-.011-.264-.018-.339-.02-.7-.02-.555 0-1.07.04v.467a6.941 6.941 0 0 1 .873-.054H272.942q.223 0 .435.012.132.008.261.02a5.454 5.454 0 0 1 1.272.267l.15.051c.088.029.17.057.248.088a1.3 1.3 0 0 1 .378.21h.869l-.01-.08-.108-1.015h-.4l-.5.385-.076-.021q-.129-.036-.256-.068c0-.045.006-.092.006-.139s0-.088-.006-.131a1.463 1.463 0 0 0-.562-1.04 2.369 2.369 0 0 0-1.558-.471h-.025v-.732h-.627v.727h-.75v-.727h-.627v.727h-2.219v.44h.545a.636.636 0 0 1 .357.076.233.233 0 0 1 .107.2v3.7a1.852 1.852 0 0 1-.262-.208 1.016 1.016 0 0 1-.344-.7v-.024a.984.984 0 0 1 .344-.711v-.9q-.167.048-.328.1-1.693.573-1.714 1.528v.023q0 .876 1.487 1.437.27.1.556.185.129.037.262.071a9.634 9.634 0 0 0 1.5.25l.262.021a14.58 14.58 0 0 0 2.103-.01q.137-.012.269-.027a7.344 7.344 0 0 0 1.469-.313 4.11 4.11 0 0 0 .158-.056q.137-.051.255-.107a1.732 1.732 0 0 0 .833-.724zm-2.359.806c-.23.018-.473.027-.733.027q-.175 0-.339-.006-.13.005-.263.005a6.845 6.845 0 0 1-.795-.045 6.897 6.897 0 0 1-.262-.036v-1.336h1.066a1.644 1.644 0 0 1 1.184.391 1.306 1.306 0 0 1 .37.715 2 2 0 0 1 .032.259q-.127.015-.26.025z" class="cls-37" data-name="Path 13" transform="translate(-267.53 -565.804)"/>
                <path id="Path_14-4" d="M282.389 612.143a1.149 1.149 0 0 1-.294.476 1.455 1.455 0 0 1-1.049.365h-.909a.284.284 0 0 1-.232-.1.468.468 0 0 1-.085-.3v-.423a9.915 9.915 0 0 1-1.5-.243v.647a.5.5 0 0 1-.114.327.313.313 0 0 1-.251.1h-.644v.44h2.219V614h.627v-.578h.75V614h.627v-.582a4.049 4.049 0 0 0 1.3-.238 2.1 2.1 0 0 0 .892-.555 1.572 1.572 0 0 0 .348-.841l-.066.022a7.746 7.746 0 0 1-1.619.337z" class="cls-37" data-name="Path 14" transform="translate(-276.014 -605.695)"/>
            </g>
        </g>
        <g id="Group_3163" data-name="Group 3163" transform="rotate(25.97 575.118 2739.295)">
            <g id="Group_644-5" data-name="Group 644" transform="translate(243.5 243.5)">
                <circle id="Ellipse_116-5" cx="7.578" cy="7.578" r="7.578" class="cls-33" data-name="Ellipse 116"/>
            </g>
            <g id="Group_645-5" data-name="Group 645" transform="translate(244.647 244.647)">
                <circle id="Ellipse_117-5" cx="6.432" cy="6.432" r="6.432" class="cls-34" data-name="Ellipse 117"/>
            </g>
            <g id="Group_646-5" data-name="Group 646" transform="translate(245.659 245.589)">
                <path id="Path_2321-5" d="M342.72 331.017a6.433 6.433 0 0 1-8.785 8.946 6.432 6.432 0 1 0 8.785-8.946z" class="cls-35" data-name="Path 2321" transform="translate(-333.935 -331.017)"/>
            </g>
            <g id="Group_647-5" data-name="Group 647" transform="translate(245.351 245.358)">
                <path id="Path_2322-5" d="M321.462 327.657a5.677 5.677 0 0 1 10.178-3.457 5.678 5.678 0 1 0-9.424 6.291 5.651 5.651 0 0 1-.754-2.834z" class="cls-36" data-name="Path 2322" transform="translate(-321.039 -321.348)"/>
            </g>
            <g id="Group_649-5" data-name="Group 649" transform="translate(247.815 248.455)">
                <path id="Path_13-5" d="M273.751 569.381a.781.781 0 0 1-.253.21 1.728 1.728 0 0 1-.173.081 1.031 1.031 0 0 0-.083-.172 1.152 1.152 0 0 0-.213-.257 2.446 2.446 0 0 0-1.238-.479 2.255 2.255 0 0 0 .986-.482 1.128 1.128 0 0 0 .116-.127l-.065-.022a3.8 3.8 0 0 0-.89-.185.834.834 0 0 1-.22.439 1.192 1.192 0 0 1-.847.247h-.571v-1.708a.237.237 0 0 1 .088-.213.9.9 0 0 1 .415-.058 1.486 1.486 0 0 1 .93.21.684.684 0 0 1 .211.377 1.278 1.278 0 0 1 .029.193l-.192-.013q-.247-.014-.512-.014-.4 0-.778.029v.339a5.047 5.047 0 0 1 .635-.039h.338q.162 0 .316.009.1.005.19.014a3.968 3.968 0 0 1 .925.194l.109.037c.064.021.124.042.181.064a.944.944 0 0 1 .275.153h.632l-.007-.058-.079-.738h-.294l-.363.28-.055-.015-.186-.049v-.1-.1a1.064 1.064 0 0 0-.409-.756 1.723 1.723 0 0 0-1.133-.342h-.018v-.53h-.456v.529h-.545v-.529h-.456v.529h-1.613v.32h.4a.463.463 0 0 1 .26.055.17.17 0 0 1 .077.145v2.69a1.347 1.347 0 0 1-.19-.152.739.739 0 0 1-.25-.512v-.017a.715.715 0 0 1 .25-.517v-.652q-.121.035-.239.074-1.231.417-1.246 1.111v.017q0 .637 1.081 1.045.2.074.4.135.094.027.19.052a7.008 7.008 0 0 0 1.091.182l.19.015c.236.016.485.025.747.025.279 0 .538-.011.781-.032l.2-.02a5.345 5.345 0 0 0 1.068-.228l.115-.041q.1-.037.186-.078a1.259 1.259 0 0 0 .606-.527zm-1.715.586a6.86 6.86 0 0 1-.533.02h-.438a4.973 4.973 0 0 1-.578-.033 5.133 5.133 0 0 1-.19-.026v-.971h.775a1.2 1.2 0 0 1 .861.284.949.949 0 0 1 .269.52 1.455 1.455 0 0 1 .023.189l-.189.017z" class="cls-37" data-name="Path 13" transform="translate(-267.53 -565.804)"/>
                <path id="Path_14-5" d="M281 612.046a.836.836 0 0 1-.214.346 1.058 1.058 0 0 1-.763.265h-.661a.206.206 0 0 1-.169-.076.34.34 0 0 1-.062-.22v-.308a7.212 7.212 0 0 1-1.091-.176v.47a.361.361 0 0 1-.083.238.228.228 0 0 1-.182.072h-.468v.32h1.613v.421h.456v-.421h.545v.421h.456v-.423a2.944 2.944 0 0 0 .943-.173 1.531 1.531 0 0 0 .649-.4 1.143 1.143 0 0 0 .253-.612l-.048.016a5.634 5.634 0 0 1-1.174.24z" class="cls-37" data-name="Path 14" transform="translate(-276.368 -607.357)"/>
            </g>
        </g>
        <g id="Group_3164" data-name="Group 3164" transform="translate(1140.528 28.528)">
            <g id="Group_644-6" data-name="Group 644" transform="translate(243.5 243.5)">
                <circle id="Ellipse_116-6" cx="2.472" cy="2.472" r="2.472" class="cls-33" data-name="Ellipse 116"/>
            </g>
            <g id="Group_645-6" data-name="Group 645" transform="translate(243.874 243.874)">
                <circle id="Ellipse_117-6" cx="2.098" cy="2.098" r="2.098" class="cls-34" data-name="Ellipse 117"/>
            </g>
            <g id="Group_646-6" data-name="Group 646" transform="translate(244.204 244.181)">
                <path id="Path_2321-6" d="M336.8 331.017a2.1 2.1 0 0 1-2.865 2.918 2.1 2.1 0 1 0 2.865-2.918z" class="cls-35" data-name="Path 2321" transform="translate(-333.935 -331.017)"/>
            </g>
            <g id="Group_647-6" data-name="Group 647" transform="translate(244.104 244.106)">
                <path id="Path_2322-6" d="M321.177 323.406a1.852 1.852 0 0 1 3.32-1.129 1.852 1.852 0 1 0-3.074 2.052 1.843 1.843 0 0 1-.246-.923z" class="cls-36" data-name="Path 2322" transform="translate(-321.039 -321.348)"/>
            </g>
            <g id="Group_649-6" data-name="Group 649" transform="translate(244.907 245.116)">
                <path id="Path_13-6" d="M269.559 566.971a.255.255 0 0 1-.083.068.583.583 0 0 1-.056.026.337.337 0 0 0-.027-.056.377.377 0 0 0-.069-.084.8.8 0 0 0-.4-.156.735.735 0 0 0 .322-.157.369.369 0 0 0 .038-.041l-.021-.007a1.238 1.238 0 0 0-.29-.06.272.272 0 0 1-.072.143.389.389 0 0 1-.276.081h-.187v-.557a.077.077 0 0 1 .029-.07.3.3 0 0 1 .135-.019.485.485 0 0 1 .3.068.223.223 0 0 1 .069.123.415.415 0 0 1 .009.063h-.23q-.132 0-.254.01v.111a1.65 1.65 0 0 1 .207-.013h.272a1.3 1.3 0 0 1 .3.063l.035.012.059.021a.308.308 0 0 1 .09.05h.206v-.019l-.026-.241h-.1l-.118.091h-.018l-.061-.016v-.033-.031a.347.347 0 0 0-.133-.247.562.562 0 0 0-.369-.112h-.006v-.182h-.149v.172h-.178v-.172h-.149v.172h-.526v.1h.129a.151.151 0 0 1 .085.018.055.055 0 0 1 .025.047v.877a.439.439 0 0 1-.062-.049.241.241 0 0 1-.081-.167v-.006a.233.233 0 0 1 .082-.169v-.213l-.078.024q-.4.136-.407.362v.005q0 .208.353.341.064.024.132.044l.062.017a2.288 2.288 0 0 0 .356.059l.062.005c.077.005.158.008.244.008s.175 0 .255-.011l.064-.006a1.743 1.743 0 0 0 .348-.074l.037-.013.061-.025a.411.411 0 0 0 .2-.172zm-.56.191c-.055 0-.112.007-.174.007h-.143a1.624 1.624 0 0 1-.189-.011l-.062-.009v-.317h.253a.39.39 0 0 1 .281.093.31.31 0 0 1 .088.17.473.473 0 0 1 .008.062z" class="cls-37" data-name="Path 13" transform="translate(-267.53 -565.804)"/>
                <path id="Path_14-6" d="M278.515 611.872a.272.272 0 0 1-.07.113.345.345 0 0 1-.249.086h-.216a.067.067 0 0 1-.055-.025.111.111 0 0 1-.02-.072v-.1a2.347 2.347 0 0 1-.356-.058v.153a.118.118 0 0 1-.027.078.074.074 0 0 1-.06.024h-.153v.1h.526v.137h.149v-.137h.178v.137h.149v-.138a.958.958 0 0 0 .307-.056.5.5 0 0 0 .212-.132.373.373 0 0 0 .083-.2l-.016.005a1.84 1.84 0 0 1-.382.085z" class="cls-37" data-name="Path 14" transform="translate(-277.003 -610.342)"/>
            </g>
        </g>
        <path id="Path_4459" d="M8392.053 969.941s21.055 5.757 38.779 5.757a96.073 96.073 0 0 0 32.12-5.757v17.722h-64.458z" class="cls-20" data-name="Path 4459" transform="translate(-7057 -380)"/>
        <path id="Path_4460" d="M8392.053 969.941s21.055 5.757 38.779 5.757a96.073 96.073 0 0 0 32.12-5.757l-26.752 17.723h-37.705z" class="cls-20" data-name="Path 4460" transform="translate(-6989 -364)"/>
    </g>
</svg>
