<svg xmlns="http://www.w3.org/2000/svg" width="297.374" height="420.436" viewBox="0 0 297.374 420.436">
    <defs>
        <style>
            .cls-1,.cls-6,.cls-9{fill:none}.cls-2{fill:#2d191a;opacity:.532}.cls-10,.cls-3{fill:#fff}.cls-4{fill:url(#radial-gradient)}.cls-5{clip-path:url(#clip-path)}.cls-6{stroke:#fff}.cls-6,.cls-9{stroke-linecap:round;stroke-linejoin:round;stroke-width:.567px}.cls-7{fill:#251918}.cls-8{fill:#1c1b1c}.cls-9{stroke:#4d4d4f}.cls-11{fill:#371f18;font-size:4px;font-family:MyanmarMN-Bold,Myanmar MN;font-weight:700}.cls-12{fill:#2e1a1a}.cls-13,.cls-14{stroke:none}.cls-14{fill:rgba(0,0,0,0)}.cls-15{filter:url(#QRCode)}
        </style>
        <radialGradient id="radial-gradient" cx=".5" cy=".5" r=".5">
            <stop offset="0" stop-color="#95613b"/>
            <stop offset="1" stop-color="#371f18"/>
        </radialGradient>
        <clipPath id="clip-path">
            <path id="Path_27" d="M231.241 328.815q-13.553-83.174-27.053-166.845a743.755 743.755 0 0 0 232.69 0q-13.5 83.671-27.053 166.845a743.518 743.518 0 0 1-178.584 0z" class="cls-1" data-name="Path 27" transform="translate(-204.188 -161.97)"/>
        </clipPath>
        <filter id="QRCode" width="129.516" height="123.516" x="84.18" y="168.305" filterUnits="userSpaceOnUse">
            <feOffset dy="3"/>
            <feGaussianBlur result="blur" stdDeviation="3"/>
            <feFlood flood-opacity=".161"/>
            <feComposite in2="blur" operator="in"/>
            <feComposite in="SourceGraphic"/>
        </filter>
    </defs>
    <g id="Group_3282" data-name="Group 3282" transform="translate(-1152.313 -2538.687)">
        <g id="Group_17" data-name="Group 17" transform="translate(960.738 2430.533)">
            <ellipse id="Ellipse_8" cx="104.507" cy="11.425" class="cls-2" data-name="Ellipse 8" rx="104.507" ry="11.425" transform="translate(258.215 505.74)"/>
            <path id="Path_24" d="M453.531 134.393q-27.773 172.159-55.745 342.378a809.792 809.792 0 0 1-141.91 0q-27.953-170.218-55.745-342.378a810.065 810.065 0 0 0 253.4 0z" class="cls-3" data-name="Path 24" transform="translate(12.844 40.734)"/>
            <path id="Path_25" d="M231.241 328.815q-13.553-83.174-27.053-166.845a743.755 743.755 0 0 0 232.69 0q-13.5 83.671-27.053 166.845a743.518 743.518 0 0 1-178.584 0z" class="cls-4" data-name="Path 25" transform="translate(19.142 83.546)"/>
            <g id="Group_11" data-name="Group 11" transform="translate(223.33 245.516)">
                <g id="Group_10" class="cls-5" data-name="Group 10">
                    <path id="Path_26" d="M230.246 308.265q-14.281-70.332-28.506-141.086a974.334 974.334 0 0 0 245.189 0q-14.229 70.753-28.505 141.086a975.439 975.439 0 0 1-188.178 0z" class="cls-6" data-name="Path 26" transform="translate(-207.988 -153.883)"/>
                </g>
            </g>
            <path id="Path_28" d="M191.858 140.706c0-9.071 66.442-16.425 148.4-16.425s148.4 7.354 148.4 16.425v16.629c0 9.071-66.442 16.425-148.4 16.425s-148.4-7.354-148.4-16.425z" class="cls-7" data-name="Path 28" transform="translate(0 25.036)"/>
            <ellipse id="Ellipse_9" cx="148.404" cy="16.424" class="cls-4" data-name="Ellipse 9" rx="148.404" ry="16.424" transform="translate(191.858 149.317)"/>
            <path id="Path_29" d="M202.509 128.35c.2-7.69 56.439-13.9 125.623-13.9s125.427 6.213 125.623 13.9c.107 4.168 2.838 21.331 2.838 25.578 0 7.851-57.514 14.217-128.461 14.217s-128.461-6.366-128.461-14.217c0-4.247 2.729-21.41 2.838-25.578z" class="cls-7" data-name="Path 29" transform="translate(12.13 9.769)"/>
            <path id="Path_30" d="M200.783 128.35c-.2 7.711 56.046 13.98 125.623 13.98s125.82-6.269 125.623-13.98c-.2-7.69-56.439-13.9-125.623-13.9s-125.426 6.21-125.623 13.9z" class="cls-4" data-name="Path 30" transform="translate(13.856 9.769)"/>
            <path id="Path_31" d="M215.412 117.491c1.3-5.209 47.9-9.337 104.121-9.337s102.825 4.127 104.121 9.337c.717 2.874 10.2 16.07 10.2 19.133 0 5.661-51.184 10.253-114.323 10.253s-114.321-4.592-114.321-10.253c0-3.063 9.485-16.259 10.202-19.133z" class="cls-7" data-name="Path 31" transform="translate(20.729)"/>
            <path id="Path_32" d="M209.224 117.491c-1.332 5.342 45.27 9.773 104.121 9.773s105.454-4.431 104.121-9.773c-1.3-5.209-47.9-9.337-104.121-9.337s-102.824 4.127-104.121 9.337z" class="cls-4" data-name="Path 32" transform="translate(26.917)"/>
            <ellipse id="Ellipse_10" cx="16.705" cy="2.538" class="cls-8" data-name="Ellipse 10" rx="16.705" ry="2.538" transform="translate(246.819 114.397)"/>
            <path id="Path_33" d="M488.665 134.858c-59.5 16.5-256.274 18.1-296.807.005" class="cls-9" data-name="Path 33" transform="translate(0 41.456)"/>
        </g>
        <g id="Group_3281" data-name="Group 3281" transform="translate(1164.492 2523.492)">
            <g id="Group_82" data-name="Group 82" transform="translate(84 189.5)">
                <g class="cls-15" transform="translate(-96.18 -174.3)">
                    <g id="QRCode-2" class="cls-10" data-name="QRCode">
                        <path d="M7 0h91.516a10 10 0 0 1 10 10l-3 85.516a10 10 0 0 1-10 10H10a10 10 0 0 1-10-10L-3 10A10 10 0 0 1 7 0z" class="cls-13" transform="translate(96.18 174.3)"/>
                        <path d="M7 1C2.043 1-1.99 5.028-2 9.983L1 95.48v.035c0 4.962 4.037 9 9 9h85.516c4.962 0 9-4.038 9-9v-.035l3-85.498c-.01-4.955-4.044-8.983-9-8.983H7m0-1h91.516c5.522 0 10 4.477 10 10l-3 85.516c0 5.522-4.478 10-10 10H10c-5.523 0-10-4.478-10-10L-3 10C-3 4.477 1.477 0 7 0z" class="cls-14" transform="translate(96.18 174.3)"/>
                    </g>
                </g>
                <g id="Union_14" data-name="Union 14">
                    <path d="M72.77 76.408V72.77h3.638v3.639zm-7.278 0V72.77h3.639v3.639zm-10.915 0V72.77h3.638v3.639zm-3.638 0V72.77h3.638v3.639zm-3.639 0V72.77h3.639v3.639zm-3.639 0V72.77H47.3v3.639zm-3.638 0V72.77h3.638v3.639zm-3.639 0V72.77h3.639v3.639zm-3.638 0V72.77h3.638v3.639zm-10.916 0V72.77h3.64v3.639zm-3.638 0V72.77h3.638v3.639zm-3.639 0V72.77h3.639v3.639zm-3.638 0V72.77h3.638v3.639zm-3.639 0V72.77h3.639v3.639zm-3.638 0V72.77h3.639v3.639zm-3.638 0V72.77h3.639v3.639zm72.77-3.638v-3.639h3.638v3.639zm-3.639 0v-3.639h3.639v3.639zm-7.277 0v-3.639h3.638v3.639zm-3.639 0v-3.639h3.639v3.639zm-3.638 0v-3.639h3.638v3.639zm-3.638 0v-3.639h3.638v3.639zm-3.639 0v-3.639h3.639v3.639zm-7.277 0v-3.639h3.638v3.639zm-3.639 0v-3.639h3.639v3.639zm-3.638 0v-3.639h3.638v3.639zm-10.916 0v-3.639h3.64v3.639zM0 72.77v-3.639h3.639v3.639zm50.939-3.639v-3.639h3.638v3.639zm-14.555 0v-3.639h3.639v3.639zm-3.638 0v-3.639h3.638v3.639zm-3.638 0v-3.639h3.638v3.639zm-7.278 0v-3.639h3.64v3.639zm-7.277 0v-3.639h3.639v3.639zm-3.638 0v-3.639h3.638v3.639zm-3.639 0v-3.639h3.639v3.639zm-7.276 0v-3.639h3.639v3.639zm65.492-3.639v-3.638h3.639v3.639zm-3.638 0v-3.638h3.638v3.639zm-18.192 0v-3.638H47.3v3.639zm-7.277 0v-3.638h3.639v3.639zm-3.638 0v-3.638h3.638v3.639zm-10.916 0v-3.638h3.639v3.639zm-7.277 0v-3.638h3.639v3.639zm-3.638 0v-3.638h3.638v3.639zm-3.639 0v-3.638h3.639v3.639zm-7.277 0v-3.638h3.639v3.639zm69.131-3.639v-3.637h3.639v3.638zm-3.639 0v-3.637h3.639v3.638zm-3.638 0v-3.637h3.638v3.638zm-3.639 0v-3.637h3.639v3.638zm-3.638 0v-3.637h3.638v3.638zm-3.638 0v-3.637h3.638v3.638zm-3.639 0v-3.637h3.639v3.638zm-3.639 0v-3.637H47.3v3.638zm-3.638 0v-3.637h3.638v3.638zm-3.639 0v-3.637h3.639v3.638zm-3.638 0v-3.637h3.638v3.638zm-10.916 0v-3.637h3.64v3.638zm-7.277 0v-3.637h3.639v3.638zm-3.638 0v-3.637h3.638v3.638zm-3.639 0v-3.637h3.639v3.638zM0 61.854v-3.638h3.639v3.638zm72.77-3.639v-3.638h3.638v3.638zm-7.278 0v-3.638h3.639v3.638zm-3.638 0v-3.638h3.638v3.638zm-3.639 0v-3.638h3.639v3.638zm-3.638 0v-3.638h3.638v3.638zm-3.638 0v-3.638h3.638v3.638zm-3.639 0v-3.638h3.639v3.638zm-3.639 0v-3.638H47.3v3.638zm-3.638 0v-3.638h3.638v3.638zm-3.639 0v-3.638h3.639v3.638zm-3.638 0v-3.638h3.638v3.638zm-10.916 0v-3.638h3.64v3.638zm-21.83 0v-3.638h3.639v3.638zm61.854-3.638v-3.638h3.638v3.639zm-10.915 0v-3.638h3.638v3.639zm-14.555 0v-3.638h3.639v3.639zm-7.276 0v-3.638h3.638v3.639zm-7.278 0v-3.638h3.64v3.639zm-3.638 0v-3.638h3.638v3.639zm-3.639 0v-3.638h3.639v3.639zm-3.638 0v-3.638h3.638v3.639zm-3.639 0v-3.638h3.639v3.639zm-3.638 0v-3.638h3.639v3.639zm-3.638 0v-3.638h3.639v3.639zm69.131-3.639V47.3h3.639v3.639zm-18.192 0V47.3h3.638v3.639zm-14.555 0V47.3h3.639v3.639zm-7.276 0V47.3h3.638v3.639zM69.131 47.3v-3.638h3.639V47.3zm-3.639 0v-3.638h3.639V47.3zm-3.638 0v-3.638h3.638V47.3zm-3.639 0v-3.638h3.639V47.3zm-3.638 0v-3.638h3.638V47.3zm-3.638 0v-3.638h3.638V47.3zm-3.639 0v-3.638h3.639V47.3zm-7.277 0v-3.638h3.638V47.3zm-3.639 0v-3.638h3.639V47.3zm-3.638 0v-3.638h3.638V47.3zm-10.916 0v-3.638h3.64V47.3zm-7.277 0v-3.638h3.639V47.3zm-3.638 0v-3.638h3.638V47.3zm-7.277 0v-3.638h3.639V47.3zM0 47.3v-3.638h3.639V47.3zm72.77-3.639v-3.638h3.638v3.639zm-3.639 0v-3.638h3.639v3.639zm-3.639 0v-3.638h3.639v3.639zm-3.638 0v-3.638h3.638v3.639zm-10.915 0v-3.638h3.638v3.639zm-3.639 0v-3.638h3.639v3.639zm-3.639 0v-3.638H47.3v3.639zm-7.277 0v-3.638h3.639v3.639zm-3.638 0v-3.638h3.638v3.639zm-3.638 0v-3.638h3.638v3.639zm-10.916 0v-3.638h3.638v3.639zm50.939-3.639v-3.638h3.639v3.639zm-14.554 0v-3.638h3.638v3.639zm-3.638 0v-3.638h3.638v3.639zm-3.639 0v-3.638h3.639v3.639zm-18.192 0v-3.638h3.638v3.639zm-3.639 0v-3.638h3.639v3.639zm-3.639 0v-3.638h3.64v3.639zm-3.638 0v-3.638h3.638v3.639zm-10.915 0v-3.638h3.639v3.639zM0 40.023v-3.639h3.639v3.639zm72.77-3.639v-3.637h3.638v3.638zm-3.639 0v-3.637h3.639v3.638zm-7.277 0v-3.637h3.638v3.638zm-7.276 0v-3.637h3.638v3.638zm-3.638 0v-3.637h3.638v3.638zm-10.916 0v-3.637h3.638v3.638zm-3.639 0v-3.637h3.639v3.638zm-3.638 0v-3.637h3.638v3.638zm-14.554 0v-3.637h3.638v3.638zm-3.639 0v-3.637h3.639v3.638zm58.216-3.637v-3.639h3.638v3.639zm-3.639 0v-3.639h3.639v3.639zm-3.639 0v-3.639h3.639v3.639zm-7.277 0v-3.639h3.639v3.639zm-3.638 0v-3.639h3.638v3.639zm-3.638 0v-3.639h3.638v3.639zm-3.639 0v-3.639h3.639v3.639zm-14.554 0v-3.639h3.638v3.639zm-3.638 0v-3.639h3.638v3.639zm-3.639 0v-3.639h3.639v3.639zm-3.639 0v-3.639h3.64v3.639zm-14.553 0v-3.639h3.639v3.639zm36.384-3.639v-3.639H47.3v3.639zm-7.277 0v-3.639h3.639v3.639zm-7.276 0v-3.639h3.638v3.639zm43.662-3.639v-3.638h3.638v3.639zm-3.639 0v-3.638h3.639v3.639zm-3.639 0v-3.638h3.639v3.639zm-3.638 0v-3.638h3.638v3.639zm-3.639 0v-3.638h3.639v3.639zm-3.638 0v-3.638h3.638v3.639zm-3.638 0v-3.638h3.638v3.639zm-7.278 0v-3.638H47.3v3.639zm-7.277 0v-3.638h3.639v3.639zm-7.276 0v-3.638h3.638v3.639zm-7.278 0v-3.638h3.64v3.639zm-3.638 0v-3.638h3.638v3.639zm-3.639 0v-3.638h3.639v3.639zm-3.638 0v-3.638h3.638v3.639zm-3.639 0v-3.638h3.639v3.639zm-3.638 0v-3.638h3.639v3.639zm-3.638 0v-3.638h3.639v3.639zm72.77-3.639v-3.638h3.638v3.639zm-21.831 0v-3.638h3.638v3.639zm-18.192 0v-3.638h3.638v3.639zm-3.638 0v-3.638h3.638v3.639zm-7.278 0v-3.638h3.639v3.639zM0 21.831v-3.639h3.639v3.639zm72.77-3.639v-3.638h3.638v3.639zm-7.278 0v-3.638h3.639v3.639zm-3.638 0v-3.638h3.638v3.639zm-3.639 0v-3.638h3.639v3.639zm-7.276 0v-3.638h3.638v3.639zm-7.278 0v-3.638H47.3v3.639zm-10.915 0v-3.638h3.638v3.639zm-3.638 0v-3.638h3.638v3.639zm-7.278 0v-3.638h3.64v3.639zm-7.277 0v-3.638h3.639v3.639zm-3.638 0v-3.638h3.638v3.639zm-3.639 0v-3.638h3.639v3.639zm-7.276 0v-3.638h3.639v3.639zm72.77-3.639v-3.637h3.638v3.638zm-7.278 0v-3.637h3.639v3.638zm-3.638 0v-3.637h3.638v3.638zm-3.639 0v-3.637h3.639v3.638zm-7.276 0v-3.637h3.638v3.638zm-7.278 0v-3.637H47.3v3.638zm-21.831 0v-3.637h3.64v3.638zm-7.277 0v-3.637h3.639v3.638zm-3.638 0v-3.637h3.638v3.638zm-3.639 0v-3.637h3.639v3.638zM0 14.554v-3.638h3.639v3.638zm72.77-3.638V7.277h3.638v3.639zm-7.278 0V7.277h3.639v3.639zm-3.638 0V7.277h3.638v3.639zm-3.639 0V7.277h3.639v3.639zm-7.276 0V7.277h3.638v3.639zm-10.916 0V7.277h3.638v3.639zm-7.276 0V7.277h3.638v3.639zm-3.638 0V7.277h3.638v3.639zm-7.278 0V7.277h3.639v3.639zm-7.277 0V7.277h3.639v3.639zm-3.638 0V7.277h3.638v3.639zm-3.639 0V7.277h3.639v3.639zm-7.277 0V7.277h3.639v3.639zm72.77-3.639V3.639h3.638v3.638zm-21.831 0V3.639h3.638v3.638zm-7.278 0V3.639H47.3v3.638zm-3.638 0V3.639h3.638v3.638zm-3.639 0V3.639h3.639v3.638zm-3.638 0V3.639h3.638v3.638zm-3.638 0V3.639h3.638v3.638zm-7.278 0V3.639h3.64v3.638zM0 7.277V3.639h3.639v3.638zm72.77-3.638V0h3.638v3.639zm-3.639 0V0h3.639v3.639zm-3.639 0V0h3.639v3.639zm-3.638 0V0h3.638v3.639zm-3.639 0V0h3.639v3.639zm-3.638 0V0h3.638v3.639zm-3.638 0V0h3.638v3.639zm-10.916 0V0h3.638v3.639zm-3.639 0V0h3.639v3.639zm-7.276 0V0h3.638v3.639zm-7.278 0V0h3.64v3.639zm-3.638 0V0h3.638v3.639zm-3.639 0V0h3.639v3.639zm-3.638 0V0h3.638v3.639zm-3.639 0V0h3.639v3.639zm-3.638 0V0h3.639v3.639zM0 3.639V0h3.639v3.639z" class="cls-13" transform="translate(14.554 14.554)"/>
                    <path d="M75.408 75.408V73.77H73.77v1.638h1.638m-7.277 0V73.77h-1.639v1.638h1.64m-10.917 0V73.77h-1.637v1.638h1.637m-3.637 0V73.77h-1.639v1.638h1.639m-3.639 0V73.77h-1.638v1.638h1.638m-3.638 0V73.77h-1.64v1.638h1.64m-3.64 0V73.77h-1.638v1.638h1.639m-3.639 0V73.77h-1.638v1.638h1.638m-3.638 0V73.77h-1.638v1.638h1.638m-10.915 0V73.77h-1.64v1.638h1.64m-3.64 0V73.77h-1.637v1.638h1.638m-3.638 0V73.77h-1.64v1.638h1.64m-3.64 0V73.77h-1.637v1.638h1.638m-3.638 0V73.77H8.277v1.638h1.639m-3.639 0V73.77H4.64v1.638h1.638m-3.638 0V73.77H1v1.638h1.639m72.77-3.638V70.13H73.77v1.639h1.638m-3.638 0V70.13h-1.639v1.639h1.639m-7.278 0V70.13h-1.638v1.639h1.638m-3.638 0V70.13h-1.639v1.639h1.639m-3.639 0V70.13h-1.637v1.639h1.637m-3.637 0V70.13h-1.639v1.639h1.639m-3.639 0V70.13h-1.638v1.639h1.638m-7.277 0V70.13h-1.639v1.639h1.639m-3.639 0V70.13h-1.638v1.639h1.638m-3.638 0V70.13h-1.638v1.639h1.638m-10.915 0V70.13h-1.64v1.639h1.64m-21.831 0V70.13H1v1.639h1.639m50.939-3.639v-1.639h-1.639v1.639h1.639m-14.555 0v-1.639h-1.638v1.639h1.638m-3.638 0v-1.639h-1.638v1.639h1.638m-3.638 0v-1.639h-1.639v1.639h1.639m-7.277 0v-1.639h-1.64v1.639h1.64m-7.277 0v-1.639h-1.64v1.639h1.64m-3.64 0v-1.639h-1.637v1.639h1.638m-3.638 0v-1.639H8.277v1.639h1.639m-7.277 0v-1.639H1v1.639h1.639m65.492-3.639v-1.638h-1.639v1.638h1.64m-3.64 0v-1.638h-1.638v1.638h1.638m-18.191 0v-1.638h-1.64v1.638h1.64m-7.278 0v-1.638h-1.638v1.638h1.638m-3.638 0v-1.638h-1.638v1.638h1.638m-10.915 0v-1.638h-1.64v1.638h1.64m-7.277 0v-1.638h-1.64v1.638h1.64m-3.64 0v-1.638h-1.637v1.638h1.638m-3.638 0v-1.638H8.277v1.638h1.639m-7.277 0v-1.638H1v1.638h1.639m69.131-3.638v-1.638h-1.639v1.638h1.639m-3.639 0v-1.638h-1.639v1.638h1.64m-3.64 0v-1.638h-1.638v1.638h1.638m-3.638 0v-1.638h-1.639v1.638h1.639m-3.639 0v-1.638h-1.637v1.638h1.637m-3.637 0v-1.638h-1.639v1.638h1.639m-3.639 0v-1.638h-1.638v1.638h1.638m-3.638 0v-1.638h-1.64v1.638h1.64m-3.64 0v-1.638h-1.638v1.638h1.639m-3.639 0v-1.638h-1.638v1.638h1.638m-3.638 0v-1.638h-1.638v1.638h1.638m-10.915 0v-1.638h-1.64v1.638h1.64m-7.277 0v-1.638h-1.64v1.638h1.64m-3.64 0v-1.638h-1.637v1.638h1.638m-3.638 0v-1.638H8.277v1.638h1.639m-7.277 0v-1.638H1v1.638h1.639m72.77-3.639v-1.638H73.77v1.638h1.638m-7.277 0v-1.638h-1.639v1.638h1.64m-3.64 0v-1.638h-1.638v1.638h1.638m-3.638 0v-1.638h-1.639v1.638h1.639m-3.639 0v-1.638h-1.637v1.638h1.637m-3.637 0v-1.638h-1.639v1.638h1.639m-3.639 0v-1.638h-1.638v1.638h1.638m-3.638 0v-1.638h-1.64v1.638h1.64m-3.64 0v-1.638h-1.638v1.638h1.639m-3.639 0v-1.638h-1.638v1.638h1.638m-3.638 0v-1.638h-1.638v1.638h1.638m-10.915 0v-1.638h-1.64v1.638h1.64m-21.831 0v-1.638H1v1.638h1.639m61.853-3.638V51.94h-1.638v1.638h1.638m-10.914 0V51.94h-1.639v1.638h1.639m-14.555 0V51.94h-1.638v1.638h1.638m-7.276 0V51.94h-1.639v1.638h1.639m-7.277 0V51.94h-1.64v1.638h1.64m-3.64 0V51.94h-1.637v1.638h1.638m-3.638 0V51.94h-1.64v1.638h1.64m-3.64 0V51.94h-1.637v1.638h1.638m-3.638 0V51.94H8.277v1.638h1.639m-3.639 0V51.94H4.64v1.638h1.638m-3.638 0V51.94H1v1.638h1.639M71.77 49.94V48.3h-1.639v1.639h1.639m-18.192 0V48.3h-1.639v1.639h1.639m-14.555 0V48.3h-1.638v1.639h1.638m-7.276 0V48.3h-1.639v1.639h1.639M71.77 46.3v-1.638h-1.639V46.3h1.639m-3.639 0v-1.638h-1.639V46.3h1.64m-3.64 0v-1.638h-1.638V46.3h1.638m-3.638 0v-1.638h-1.639V46.3h1.639m-3.639 0v-1.638h-1.637V46.3h1.637m-3.637 0v-1.638h-1.639V46.3h1.639m-3.639 0v-1.638h-1.638V46.3h1.638m-7.277 0v-1.638h-1.639V46.3h1.639m-3.639 0v-1.638h-1.638V46.3h1.638m-3.638 0v-1.638h-1.638V46.3h1.638m-10.915 0v-1.638h-1.64V46.3h1.64m-7.277 0v-1.638h-1.64V46.3h1.64m-3.64 0v-1.638h-1.637V46.3h1.638m-7.277 0v-1.638H4.64V46.3h1.638m-3.638 0v-1.638H1V46.3h1.639m72.77-3.638v-1.639H73.77v1.639h1.638m-3.638 0v-1.639h-1.639v1.639h1.639m-3.639 0v-1.639h-1.639v1.639h1.64m-3.64 0v-1.639h-1.638v1.639h1.638m-10.914 0v-1.639h-1.639v1.639h1.639m-3.639 0v-1.639h-1.638v1.639h1.638m-3.638 0v-1.639h-1.64v1.639h1.64m-7.278 0v-1.639h-1.638v1.639h1.638m-3.638 0v-1.639h-1.638v1.639h1.638m-3.638 0v-1.639h-1.639v1.639h1.639m-10.916 0v-1.639h-1.638v1.639h1.638m50.939-3.639v-1.639h-1.639v1.64h1.639m-14.555 0v-1.64h-1.637v1.64h1.637m-3.637 0v-1.64h-1.639v1.64h1.639m-3.639 0v-1.64h-1.638v1.64h1.638m-18.192 0v-1.64h-1.639v1.64h1.639m-3.639 0v-1.64H26.47v1.64h1.638m-3.638 0v-1.64h-1.64v1.64h1.64m-3.64 0v-1.64h-1.637v1.64h1.638m-10.915 0v-1.64H8.277v1.64h1.639m-7.277 0v-1.64H1v1.64h1.639m72.77-3.64v-1.637H73.77v1.637h1.638m-3.638 0v-1.637h-1.639v1.637h1.639m-7.278 0v-1.637h-1.638v1.637h1.638m-7.277 0v-1.637h-1.637v1.637h1.637m-3.637 0v-1.637h-1.639v1.637h1.639m-10.916 0v-1.637h-1.639v1.637h1.639m-3.639 0v-1.637h-1.638v1.637h1.638m-3.638 0v-1.637h-1.638v1.637h1.638m-14.554 0v-1.637h-1.638v1.637h1.638m-3.638 0v-1.637h-1.64v1.637h1.64m58.215-3.637v-1.639H73.77v1.639h1.638m-3.638 0v-1.639h-1.639v1.639h1.639m-3.639 0v-1.639h-1.639v1.639h1.64m-7.278 0v-1.639h-1.639v1.639h1.639m-3.639 0v-1.639h-1.637v1.639h1.637m-3.637 0v-1.639h-1.639v1.639h1.639m-3.639 0v-1.639h-1.638v1.639h1.638m-14.554 0v-1.639h-1.638v1.639h1.638m-3.638 0v-1.639h-1.639v1.639h1.639m-3.639 0v-1.639H26.47v1.639h1.638m-3.638 0v-1.639h-1.64v1.639h1.64m-14.554 0v-1.639H8.277v1.639h1.639m36.385-3.639v-1.639h-1.64v1.639h1.64m-7.278 0v-1.639h-1.638v1.639h1.638m-7.276 0v-1.639h-1.639v1.639h1.639m43.661-3.639v-1.638H73.77v1.638h1.638m-3.638 0v-1.638h-1.639v1.638h1.639m-3.639 0v-1.638h-1.639v1.638h1.64m-3.64 0v-1.638h-1.638v1.638h1.638m-3.638 0v-1.638h-1.639v1.638h1.639m-3.639 0v-1.638h-1.637v1.638h1.637m-3.637 0v-1.638h-1.639v1.638h1.639m-7.277 0v-1.638h-1.64v1.638h1.64m-7.278 0v-1.638h-1.638v1.638h1.638m-7.276 0v-1.638h-1.639v1.638h1.639m-7.277 0v-1.638h-1.64v1.638h1.64m-3.64 0v-1.638h-1.637v1.638h1.638m-3.638 0v-1.638h-1.64v1.638h1.64m-3.64 0v-1.638h-1.637v1.638h1.638m-3.638 0v-1.638H8.277v1.638h1.639m-3.639 0v-1.638H4.64v1.638h1.638m-3.638 0v-1.638H1v1.638h1.639m72.77-3.638v-1.639H73.77v1.639h1.638m-21.83 0v-1.639h-1.639v1.639h1.639m-18.193 0v-1.639h-1.638v1.639h1.638m-3.638 0v-1.639h-1.639v1.639h1.639m-7.277 0v-1.639h-1.64v1.639h1.64m-21.831 0v-1.639H1v1.639h1.639m72.77-3.639v-1.638H73.77v1.638h1.638m-7.277 0v-1.638h-1.639v1.638h1.64m-3.64 0v-1.638h-1.638v1.638h1.638m-3.638 0v-1.638h-1.639v1.638h1.639m-7.276 0v-1.638h-1.639v1.638h1.639m-7.277 0v-1.638h-1.64v1.638h1.64m-10.916 0v-1.638h-1.638v1.638h1.638m-3.638 0v-1.638h-1.639v1.638h1.639m-7.277 0v-1.638h-1.64v1.638h1.64m-7.277 0v-1.638h-1.64v1.638h1.64m-3.64 0v-1.638h-1.637v1.638h1.638m-3.638 0v-1.638H8.277v1.638h1.639m-7.277 0v-1.638H1v1.638h1.639m72.77-3.638v-1.638H73.77v1.638h1.638m-7.277 0v-1.638h-1.639v1.638h1.64m-3.64 0v-1.638h-1.638v1.638h1.638m-3.638 0v-1.638h-1.639v1.638h1.639m-7.276 0v-1.638h-1.639v1.638h1.639m-7.277 0v-1.638h-1.64v1.638h1.64m-21.831 0v-1.638h-1.64v1.638h1.64m-7.277 0v-1.638h-1.64v1.638h1.64m-3.64 0v-1.638h-1.637v1.638h1.638m-3.638 0v-1.638H8.277v1.638h1.639m-7.277 0v-1.638H1v1.638h1.639m72.77-3.638V8.277H73.77v1.639h1.638m-7.277 0V8.277h-1.639v1.639h1.64m-3.64 0V8.277h-1.638v1.639h1.638m-3.638 0V8.277h-1.639v1.639h1.639m-7.276 0V8.277h-1.639v1.639h1.639m-10.916 0V8.277h-1.639v1.639h1.639m-7.277 0V8.277h-1.638v1.639h1.638m-3.638 0V8.277h-1.639v1.639h1.639m-7.277 0V8.277h-1.64v1.639h1.64m-7.277 0V8.277h-1.64v1.639h1.64m-3.64 0V8.277h-1.637v1.639h1.638m-3.638 0V8.277H8.277v1.639h1.639m-7.277 0V8.277H1v1.639h1.639m72.77-3.639V4.64H73.77v1.638h1.638m-21.83 0V4.64h-1.639v1.638h1.639m-7.277 0V4.64h-1.64v1.638h1.64m-3.64 0V4.64h-1.638v1.638h1.639m-3.639 0V4.64h-1.638v1.638h1.638m-3.638 0V4.64h-1.638v1.638h1.638m-3.638 0V4.64h-1.639v1.638h1.639m-7.277 0V4.64h-1.64v1.638h1.64m-21.831 0V4.64H1v1.638h1.639m72.77-3.638V1H73.77v1.639h1.638m-3.638 0V1h-1.639v1.639h1.639m-3.639 0V1h-1.639v1.639h1.64m-3.64 0V1h-1.638v1.639h1.638m-3.638 0V1h-1.639v1.639h1.639m-3.639 0V1h-1.637v1.639h1.637m-3.637 0V1h-1.639v1.639h1.639m-10.916 0V1h-1.639v1.639h1.639m-3.639 0V1h-1.638v1.639h1.638m-7.276 0V1h-1.639v1.639h1.639m-7.277 0V1h-1.64v1.639h1.64m-3.64 0V1h-1.637v1.639h1.638m-3.638 0V1h-1.64v1.639h1.64m-3.64 0V1h-1.637v1.639h1.638m-3.638 0V1H8.277v1.639h1.639m-3.639 0V1H4.64v1.639h1.638m-3.638 0V1H1v1.639h1.639m73.77 73.77H72.77v-3.64h3.638v3.64zm-7.278 0h-3.639v-3.64h3.64v3.64zm-10.916 0h-3.637v-3.64h3.637v3.64zm-3.637 0h-3.639v-3.64h3.639v3.64zm-3.639 0h-3.638v-3.64h3.638v3.64zm-3.638 0h-3.64v-3.64h3.64v3.64zm-3.64 0h-3.638v-3.64h3.639v3.64zm-3.638 0h-3.638v-3.64h3.638v3.64zm-3.638 0h-3.638v-3.64h3.638v3.64zm-10.915 0h-3.64v-3.64h3.64v3.64zm-3.64 0h-3.637v-3.64h3.638v3.64zm-3.637 0h-3.64v-3.64h3.64v3.64zm-3.64 0h-3.637v-3.64h3.638v3.64zm-3.637 0H7.277v-3.64h3.639v3.64zm-3.639 0H3.64v-3.64h3.638v3.64zm-3.638 0H0v-3.64h3.639v3.64zm72.77-3.64H72.77v-3.638h3.638v3.639zm-3.639 0h-3.639v-3.638h3.639v3.639zm-7.278 0h-3.638v-3.638h3.638v3.639zm-3.638 0h-3.639v-3.638h3.639v3.639zm-3.639 0h-3.637v-3.638h3.637v3.639zm-3.637 0h-3.639v-3.638h3.639v3.639zm-3.639 0h-3.638v-3.638h3.638v3.639zm-7.277 0h-3.639v-3.638h3.639v3.639zm-3.639 0h-3.638v-3.638h3.638v3.639zm-3.638 0h-3.638v-3.638h3.638v3.639zm-10.915 0h-3.64v-3.638h3.64v3.639zm-21.831 0H0v-3.638h3.639v3.639zm50.939-3.638h-3.639v-3.639h3.639v3.639zm-14.555 0h-3.638v-3.639h3.638v3.639zm-3.638 0h-3.638v-3.639h3.638v3.639zm-3.638 0h-3.639v-3.639h3.639v3.639zm-7.277 0h-3.64v-3.639h3.64v3.639zm-7.277 0h-3.64v-3.639h3.64v3.639zm-3.64 0h-3.637v-3.639h3.638v3.639zm-3.637 0H7.277v-3.639h3.639v3.639zm-7.277 0H0v-3.639h3.639v3.639zm65.492-3.639h-3.639v-3.638h3.64v3.638zm-3.639 0h-3.638v-3.638h3.638v3.638zm-18.191 0h-3.64v-3.638h3.64v3.638zm-7.278 0h-3.638v-3.638h3.638v3.638zm-3.638 0h-3.638v-3.638h3.638v3.638zm-10.915 0h-3.64v-3.638h3.64v3.638zm-7.277 0h-3.64v-3.638h3.64v3.638zm-3.64 0h-3.637v-3.638h3.638v3.638zm-3.637 0H7.277v-3.638h3.639v3.638zm-7.277 0H0v-3.638h3.639v3.638zm69.131-3.638h-3.639v-3.638h3.639v3.638zm-3.639 0h-3.639v-3.638h3.64v3.638zm-3.639 0h-3.638v-3.638h3.638v3.638zm-3.638 0h-3.639v-3.638h3.639v3.638zm-3.639 0h-3.637v-3.638h3.637v3.638zm-3.637 0h-3.639v-3.638h3.639v3.638zm-3.639 0h-3.638v-3.638h3.638v3.638zm-3.638 0h-3.64v-3.638h3.64v3.638zm-3.64 0h-3.638v-3.638h3.639v3.638zm-3.638 0h-3.638v-3.638h3.638v3.638zm-3.638 0h-3.638v-3.638h3.638v3.638zm-10.915 0h-3.64v-3.638h3.64v3.638zm-7.277 0h-3.64v-3.638h3.64v3.638zm-3.64 0h-3.637v-3.638h3.638v3.638zm-3.637 0H7.277v-3.638h3.639v3.638zm-7.277 0H0v-3.638h3.639v3.638zm72.77-3.639H72.77v-3.638h3.638v3.638zm-7.278 0h-3.639v-3.638h3.64v3.638zm-3.639 0h-3.638v-3.638h3.638v3.638zm-3.638 0h-3.639v-3.638h3.639v3.638zm-3.639 0h-3.637v-3.638h3.637v3.638zm-3.637 0h-3.639v-3.638h3.639v3.638zm-3.639 0h-3.638v-3.638h3.638v3.638zm-3.638 0h-3.64v-3.638h3.64v3.638zm-3.64 0h-3.638v-3.638h3.639v3.638zm-3.638 0h-3.638v-3.638h3.638v3.638zm-3.638 0h-3.638v-3.638h3.638v3.638zm-10.915 0h-3.64v-3.638h3.64v3.638zm-21.831 0H0v-3.638h3.639v3.638zm61.853-3.638h-3.638V50.94h3.638v3.638zm-10.914 0h-3.639V50.94h3.639v3.638zm-14.555 0h-3.638V50.94h3.638v3.638zm-7.276 0h-3.639V50.94h3.639v3.638zm-7.277 0h-3.64V50.94h3.64v3.638zm-3.64 0h-3.637V50.94h3.638v3.638zm-3.637 0h-3.64V50.94h3.64v3.638zm-3.64 0h-3.637V50.94h3.638v3.638zm-3.637 0H7.277V50.94h3.639v3.638zm-3.639 0H3.64V50.94h3.638v3.638zm-3.638 0H0V50.94h3.639v3.638zM72.77 50.94h-3.639V47.3h3.639v3.639zm-18.192 0h-3.639V47.3h3.639v3.639zm-14.555 0h-3.638V47.3h3.638v3.639zm-7.276 0h-3.639V47.3h3.639v3.639zM72.77 47.3h-3.639v-3.638h3.639V47.3zm-3.639 0h-3.639v-3.638h3.64V47.3zm-3.639 0h-3.638v-3.638h3.638V47.3zm-3.638 0h-3.639v-3.638h3.639V47.3zm-3.639 0h-3.637v-3.638h3.637V47.3zm-3.637 0h-3.639v-3.638h3.639V47.3zm-3.639 0h-3.638v-3.638h3.638V47.3zm-7.277 0h-3.639v-3.638h3.639V47.3zm-3.639 0h-3.638v-3.638h3.638V47.3zm-3.638 0h-3.638v-3.638h3.638V47.3zm-10.915 0h-3.64v-3.638h3.64V47.3zm-7.277 0h-3.64v-3.638h3.64V47.3zm-3.64 0h-3.637v-3.638h3.638V47.3zm-7.276 0H3.64v-3.638h3.638V47.3zm-3.638 0H0v-3.638h3.639V47.3zm72.77-3.638H72.77v-3.639h3.638v3.639zm-3.639 0h-3.639v-3.639h3.639v3.639zm-3.639 0h-3.639v-3.639h3.64v3.639zm-3.639 0h-3.638v-3.639h3.638v3.639zm-10.914 0h-3.639v-3.639h3.639v3.639zm-3.639 0h-3.638v-3.639h3.638v3.639zm-3.638 0h-3.64v-3.639h3.64v3.639zm-7.278 0h-3.638v-3.639h3.638v3.639zm-3.638 0h-3.638v-3.639h3.638v3.639zm-3.638 0h-3.639v-3.639h3.639v3.639zm-10.916 0h-3.638v-3.639h3.638v3.639zm50.939-3.639h-3.639v-3.639h3.639v3.64zm-14.555 0h-3.637v-3.639h3.637v3.64zm-3.637 0h-3.639v-3.639h3.639v3.64zm-3.639 0h-3.638v-3.639h3.638v3.64zm-18.192 0h-3.639v-3.639h3.639v3.64zm-3.639 0H25.47v-3.639h3.638v3.64zm-3.638 0h-3.64v-3.639h3.64v3.64zm-3.64 0h-3.637v-3.639h3.638v3.64zm-10.914 0H7.277v-3.639h3.639v3.64zm-7.277 0H0v-3.639h3.639v3.64zm72.77-3.639H72.77v-3.637h3.638v3.637zm-3.639 0h-3.639v-3.637h3.639v3.637zm-7.278 0h-3.638v-3.637h3.638v3.637zm-7.277 0h-3.637v-3.637h3.637v3.637zm-3.637 0h-3.639v-3.637h3.639v3.637zm-10.916 0h-3.639v-3.637h3.639v3.637zm-3.639 0h-3.638v-3.637h3.638v3.637zm-3.638 0h-3.638v-3.637h3.638v3.637zm-14.554 0h-3.638v-3.637h3.638v3.637zm-3.638 0h-3.64v-3.637h3.64v3.637zm58.215-3.637H72.77v-3.639h3.638v3.639zm-3.638 0h-3.639v-3.639h3.639v3.639zm-3.639 0h-3.639v-3.639h3.64v3.639zm-7.277 0h-3.639v-3.639h3.639v3.639zm-3.639 0h-3.637v-3.639h3.637v3.639zm-3.637 0h-3.639v-3.639h3.639v3.639zm-3.639 0h-3.638v-3.639h3.638v3.639zm-14.554 0h-3.638v-3.639h3.638v3.639zm-3.638 0h-3.639v-3.639h3.639v3.639zm-3.639 0H25.47v-3.639h3.638v3.639zm-3.638 0h-3.64v-3.639h3.64v3.639zm-14.554 0H7.277v-3.639h3.639v3.639zm36.385-3.639h-3.64v-3.639h3.64v3.639zm-7.278 0h-3.638v-3.639h3.638v3.639zm-7.276 0h-3.639v-3.639h3.639v3.639zm43.661-3.639H72.77v-3.638h3.638v3.638zm-3.638 0h-3.639v-3.638h3.639v3.638zm-3.639 0h-3.639v-3.638h3.64v3.638zm-3.639 0h-3.638v-3.638h3.638v3.638zm-3.638 0h-3.639v-3.638h3.639v3.638zm-3.639 0h-3.637v-3.638h3.637v3.638zm-3.637 0h-3.639v-3.638h3.639v3.638zm-7.277 0h-3.64v-3.638h3.64v3.638zm-7.278 0h-3.638v-3.638h3.638v3.638zm-7.276 0h-3.639v-3.638h3.639v3.638zm-7.277 0h-3.64v-3.638h3.64v3.638zm-3.64 0h-3.637v-3.638h3.638v3.638zm-3.637 0h-3.64v-3.638h3.64v3.638zm-3.64 0h-3.637v-3.638h3.638v3.638zm-3.637 0H7.277v-3.638h3.639v3.638zm-3.639 0H3.64v-3.638h3.638v3.638zm-3.638 0H0v-3.638h3.639v3.638zm72.77-3.638H72.77v-3.639h3.638v3.639zm-21.831 0h-3.639v-3.639h3.639v3.639zm-18.193 0h-3.638v-3.639h3.638v3.639zm-3.638 0h-3.639v-3.639h3.639v3.639zm-7.277 0h-3.64v-3.639h3.64v3.639zm-21.831 0H0v-3.639h3.639v3.639zm72.77-3.639H72.77v-3.638h3.638v3.638zm-7.278 0h-3.639v-3.638h3.64v3.638zm-3.639 0h-3.638v-3.638h3.638v3.638zm-3.638 0h-3.639v-3.638h3.639v3.638zm-7.276 0h-3.639v-3.638h3.639v3.638zm-7.277 0h-3.64v-3.638h3.64v3.638zm-10.916 0h-3.638v-3.638h3.638v3.638zm-3.638 0h-3.639v-3.638h3.639v3.638zm-7.277 0h-3.64v-3.638h3.64v3.638zm-7.277 0h-3.64v-3.638h3.64v3.638zm-3.64 0h-3.637v-3.638h3.638v3.638zm-3.637 0H7.277v-3.638h3.639v3.638zm-7.277 0H0v-3.638h3.639v3.638zm72.77-3.638H72.77v-3.638h3.638v3.638zm-7.278 0h-3.639v-3.638h3.64v3.638zm-3.639 0h-3.638v-3.638h3.638v3.638zm-3.638 0h-3.639v-3.638h3.639v3.638zm-7.276 0h-3.639v-3.638h3.639v3.638zm-7.277 0h-3.64v-3.638h3.64v3.638zm-21.831 0h-3.64v-3.638h3.64v3.638zm-7.277 0h-3.64v-3.638h3.64v3.638zm-3.64 0h-3.637v-3.638h3.638v3.638zm-3.637 0H7.277v-3.638h3.639v3.638zm-7.277 0H0v-3.638h3.639v3.638zm72.77-3.638H72.77V7.277h3.638v3.639zm-7.278 0h-3.639V7.277h3.64v3.639zm-3.639 0h-3.638V7.277h3.638v3.639zm-3.638 0h-3.639V7.277h3.639v3.639zm-7.276 0h-3.639V7.277h3.639v3.639zm-10.916 0h-3.639V7.277h3.639v3.639zm-7.277 0h-3.638V7.277h3.638v3.639zm-3.638 0h-3.639V7.277h3.639v3.639zm-7.277 0h-3.64V7.277h3.64v3.639zm-7.277 0h-3.64V7.277h3.64v3.639zm-3.64 0h-3.637V7.277h3.638v3.639zm-3.637 0H7.277V7.277h3.639v3.639zm-7.277 0H0V7.277h3.639v3.639zm72.77-3.639H72.77V3.64h3.638v3.638zm-21.831 0h-3.639V3.64h3.639v3.638zm-7.277 0h-3.64V3.64h3.64v3.638zm-3.64 0h-3.638V3.64h3.639v3.638zm-3.638 0h-3.638V3.64h3.638v3.638zm-3.638 0h-3.638V3.64h3.638v3.638zm-3.638 0h-3.639V3.64h3.639v3.638zm-7.277 0h-3.64V3.64h3.64v3.638zm-21.831 0H0V3.64h3.639v3.638zm72.77-3.638H72.77V0h3.638v3.639zm-3.639 0h-3.639V0h3.639v3.639zm-3.639 0h-3.639V0h3.64v3.639zm-3.639 0h-3.638V0h3.638v3.639zm-3.638 0h-3.639V0h3.639v3.639zm-3.639 0h-3.637V0h3.637v3.639zm-3.637 0h-3.639V0h3.639v3.639zm-10.916 0h-3.639V0h3.639v3.639zm-3.639 0h-3.638V0h3.638v3.639zm-7.276 0h-3.639V0h3.639v3.639zm-7.277 0h-3.64V0h3.64v3.639zm-3.64 0h-3.637V0h3.638v3.639zm-3.637 0h-3.64V0h3.64v3.639zm-3.64 0h-3.637V0h3.638v3.639zm-3.637 0H7.277V0h3.639v3.639zm-3.639 0H3.64V0h3.638v3.639zm-3.638 0H0V0h3.639v3.639z" class="cls-14" transform="translate(14.554 14.554)"/>
                </g>
            </g>
            <text id="_0.9_BFF" class="cls-11" data-name="0.9 BFF" transform="translate(98.818 289.818)">
                <tspan x="0" y="0">0.9 BFF</tspan>
            </text>
            <text id="Get_your_Bitback" class="cls-11" data-name="Get your Bitback" transform="translate(137.652 289.818)">
                <tspan x="0" y="0">Get your Bitback</tspan>
            </text>
            <g id="Group_1" data-name="Group 1" transform="translate(148.893 194.538)">
                <path id="Path_1" d="M201.312 655.984h1.107a1.882 1.882 0 0 1 .96.192.651.651 0 0 1 .313.6.755.755 0 0 1-.137.456.61.61 0 0 1-.36.243v.022a.738.738 0 0 1 .427.26.785.785 0 0 1 .132.473.811.811 0 0 1-.324.68 1.421 1.421 0 0 1-.884.248h-1.235zm.857 1.217h.258a.465.465 0 0 0 .285-.076.265.265 0 0 0 .1-.226q0-.267-.4-.267h-.241zm0 .627v.666h.3q.4 0 .4-.338a.292.292 0 0 0-.107-.243.5.5 0 0 0-.311-.085z" class="cls-12" data-name="Path 1" transform="translate(-201.312 -655.934)"/>
                <path id="Path_2" d="M224.679 659.156v-3.172h.861v3.172z" class="cls-12" data-name="Path 2" transform="translate(-221.685 -655.934)"/>
                <path id="Path_3" d="M236.572 659.156h-.857v-2.471h-.775v-.7h2.4v.7h-.772z" class="cls-12" data-name="Path 3" transform="translate(-230.631 -655.934)"/>
                <path id="Path_4" d="M257.857 656.331a.547.547 0 0 0-.477.251 1.21 1.21 0 0 0-.171.691q0 .916.7.916a1.426 1.426 0 0 0 .408-.059 4.055 4.055 0 0 0 .4-.141v.725a2.2 2.2 0 0 1-.9.176 1.421 1.421 0 0 1-1.1-.417 1.719 1.719 0 0 1-.383-1.2 1.922 1.922 0 0 1 .185-.866 1.329 1.329 0 0 1 .534-.574 1.614 1.614 0 0 1 .819-.2 2.258 2.258 0 0 1 .983.223l-.263.675a2.965 2.965 0 0 0-.352-.139 1.23 1.23 0 0 0-.383-.061z" class="cls-12" data-name="Path 4" transform="translate(-249.277 -655.624)"/>
                <path id="Path_5" d="M281.915 657.226a1.711 1.711 0 0 1-.393 1.217 1.784 1.784 0 0 1-2.294 0 2.056 2.056 0 0 1 0-2.429 1.8 1.8 0 0 1 2.3 0 1.712 1.712 0 0 1 .387 1.212zm-2.183 0q0 .92.64.92a.55.55 0 0 0 .483-.223 1.622 1.622 0 0 0 0-1.4.544.544 0 0 0-.476-.227q-.646.004-.646.93z" class="cls-12" data-name="Path 5" transform="translate(-268.897 -655.594)"/>
                <path id="Path_6" d="M308.223 659.156h-.844v-3.172h1.875v.688h-1.031v.605h.95v.688h-.95z" class="cls-12" data-name="Path 6" transform="translate(-293.788 -655.934)"/>
                <path id="Path_7" d="M326.916 659.156h-.844v-3.172h1.875v.688h-1.031v.605h.95v.688h-.95z" class="cls-12" data-name="Path 7" transform="translate(-310.085 -655.934)"/>
                <path id="Path_8" d="M346.649 659.156h-1.883v-3.172h1.883v.688h-1.026v.5h.95v.688h-.95v.6h1.026z" class="cls-12" data-name="Path 8" transform="translate(-326.384 -655.934)"/>
                <path id="Path_9" d="M365.681 659.156H363.8v-3.172h1.883v.688h-1.026v.5h.95v.688h-.95v.6h1.026z" class="cls-12" data-name="Path 9" transform="translate(-342.977 -655.934)"/>
                <path id="Path_10" d="M385.851 659.156h-1.124l-1.159-2.235h-.02q.041.527.041.8v1.43h-.759v-3.172h1.12l1.154 2.2h.013q-.03-.479-.03-.77v-1.434h.764z" class="cls-12" data-name="Path 10" transform="translate(-359.571 -655.934)"/>
            </g>
            <g id="Group_7" data-name="Group 7" transform="translate(175.199 192.763)">
                <path id="Path_30-2" d="M406.6 641.736h.744v.2h-.25v.6h-.245v-.6h-.25z" class="cls-12" data-name="Path 30" transform="translate(-406.599 -641.736)"/>
                <path id="Path_31-2" d="M413.251 641.736h.322l.124.482.123-.482h.322v.792h-.2v-.6l-.154.6h-.181l-.154-.6v.6h-.2z" class="cls-12" data-name="Path 31" transform="translate(-412.399 -641.736)"/>
            </g>
        </g>
    </g>
</svg>
