<svg xmlns="http://www.w3.org/2000/svg" width="325.842" height="194.294" viewBox="0 0 325.842 194.294">
    <defs>
        <style>
            .cls-1{fill:#8c5742}.cls-2{fill:#a5622a}.cls-3{fill:#563e39}.cls-4{fill:#442b27}.cls-5{fill:#47332f}.cls-6{fill:#371f18}.cls-7{fill:#a58a73}.cls-8{fill:#7d4516}.cls-9{fill:#709b98}.cls-10{fill:#95c1bf}.cls-11{fill:#bad8d6;opacity:.6}.cls-12{fill:#6a534d}.cls-13{fill:#703c16}.cls-14{fill:#664635}.cls-15{fill:#edd2ce}.cls-16{fill:#f8d496}.cls-17{fill:#1d1300}.cls-18{fill:#5d4038}.cls-19{fill:#6d4d42}.cls-20{fill:#d3623a}.cls-21{fill:#4f332f}.cls-22{fill:#f9b034;font-size:20px;font-family:MyanmarMN-Bold,Myanmar MN;font-weight:700}
        </style>
    </defs>
    <g id="Group_3183" data-name="Group 3183" transform="translate(-11011.082 -3146.375)">
        <g id="Group_514" data-name="Group 514" transform="translate(11011.082 3146.375)">
            <g id="Group_506" data-name="Group 506" transform="translate(24.017 30.173)">
                <path id="Path_920" d="M108.7 704.367h-1.872v-21.99A16.394 16.394 0 0 1 123.209 666h9.515v1.871h-9.515a14.522 14.522 0 0 0-14.5 14.5z" class="cls-1" data-name="Path 920" transform="translate(-106.833 -666.001)"/>
            </g>
            <path id="Path_925" d="M382.495 654.976L128.2 657.4l-9.021 181.83 252.049-.02z" class="cls-2" data-name="Path 925" transform="translate(-72.056 -645.436)"/>
            <path id="Path_926" d="M308.545 664.75h-63.632L130.75 825.7h134.282z" class="cls-2" data-name="Path 926" transform="translate(-61.971 -636.918)"/>
            <g id="Group_507" data-name="Group 507" transform="translate(47.779 37.657)">
                <path id="Rectangle_604" d="M0 0h38.619v.483H0z" class="cls-3" data-name="Rectangle 604" transform="translate(46.266 142.423)"/>
                <path id="Path_927" d="M124.962 746.1h-5.408l-.025.484h5.434z" class="cls-3" data-name="Path 927" transform="translate(-119.529 -603.677)"/>
                <path id="Rectangle_605" d="M0 0h38.619v.486H0z" class="cls-3" data-name="Rectangle 605" transform="translate(6.54 142.423)"/>
                <path id="Path_928" d="M195.532 746.1H186.7v.486h12.26-3.429z" class="cls-3" data-name="Path 928" transform="translate(-60.985 -603.676)"/>
                <path id="Rectangle_606" d="M0 0h38.62v.484H0z" class="cls-3" data-name="Rectangle 606" transform="rotate(-.111 73577.718 -44315.435)"/>
                <path id="Path_929" d="M124.561 736.807h-4.546l-.024.484h4.57z" class="cls-3" data-name="Path 929" transform="translate(-119.127 -611.776)"/>
                <path id="Path_930" d="M161.643 736.807h-38.618v.484h38.618z" class="cls-3" data-name="Path 930" transform="translate(-116.484 -611.776)"/>
                <path id="Rectangle_607" d="M0 0h38.619v.484H0z" class="cls-3" data-name="Rectangle 607" transform="translate(85.992 125.03)"/>
                <path id="Rectangle_608" d="M0 0h8.829v.484H0z" class="cls-3" data-name="Rectangle 608" transform="translate(125.717 125.03)"/>
                <path id="Rectangle_609" d="M0 0h38.618v.484H0z" class="cls-3" data-name="Rectangle 609" transform="translate(46.267 125.03)"/>
                <path id="Rectangle_610" d="M0 0h38.619v.482H0z" class="cls-3" data-name="Rectangle 610" transform="translate(85.992 107.638)"/>
                <path id="Path_931" d="M194.491 727.515h4.469-12.258V728h7.788z" class="cls-3" data-name="Path 931" transform="translate(-60.986 -619.877)"/>
                <path id="Rectangle_611" d="M0 0h38.618v.483H0z" class="cls-3" data-name="Rectangle 611" transform="translate(46.267 107.638)"/>
                <path id="Rectangle_612" d="M0 0h38.618v.482H0z" class="cls-3" data-name="Rectangle 612" transform="translate(6.541 107.638)"/>
                <path id="Path_932" d="M124.159 727.513h-3.684l-.024.483h3.707z" class="cls-3" data-name="Path 932" transform="translate(-118.725 -619.875)"/>
                <path id="Path_933" d="M123.756 718.219h-2.819l-.025.487h2.845z" class="cls-3" data-name="Path 933" transform="translate(-118.324 -627.976)"/>
                <path id="Path_934" d="M144.25 718.7h38.618v-.483h-38.616z" class="cls-3" data-name="Path 934" transform="translate(-97.984 -627.974)"/>
                <path id="Rectangle_613" d="M0 0h38.62v.487H0z" class="cls-3" data-name="Rectangle 613" transform="translate(85.991 90.243)"/>
                <path id="Path_935" d="M198.96 718.7h-3.429v-.483H186.7v.484h12.26z" class="cls-3" data-name="Path 935" transform="translate(-60.985 -627.974)"/>
                <path id="Rectangle_614" d="M0 0h38.619v.487H0z" class="cls-3" data-name="Rectangle 614" transform="translate(6.54 90.243)"/>
                <path id="Rectangle_615" d="M0 0h8.829v.484H0z" class="cls-3" data-name="Rectangle 615" transform="translate(125.717 72.851)"/>
                <path id="Rectangle_616" d="M0 0h38.618v.484H0z" class="cls-3" data-name="Rectangle 616" transform="translate(46.267 72.851)"/>
                <path id="Path_936" d="M161.643 708.926h-38.618v.485h38.618z" class="cls-3" data-name="Path 936" transform="translate(-116.484 -636.075)"/>
                <path id="Path_937" d="M123.355 708.926H121.4l-.024.485h1.981z" class="cls-3" data-name="Path 937" transform="translate(-117.922 -636.075)"/>
                <path id="Rectangle_617" d="M0 0h38.619v.484H0z" class="cls-3" data-name="Rectangle 617" transform="translate(85.992 72.851)"/>
                <path id="Path_938" d="M122.953 699.633h-1.095l-.024.483h1.118z" class="cls-3" data-name="Path 938" transform="translate(-117.52 -644.174)"/>
                <path id="Path_939" d="M194.491 699.633H186.7v.484h7.788z" class="cls-3" data-name="Path 939" transform="translate(-60.985 -644.175)"/>
                <path id="Path_940" d="M144.25 700.116h38.618v-.484h-38.617z" class="cls-3" data-name="Path 940" transform="translate(-97.984 -644.175)"/>
                <path id="Rectangle_618" d="M0 0h38.619v.484H0z" class="cls-3" data-name="Rectangle 618" transform="translate(6.54 55.457)"/>
                <path id="Rectangle_619" d="M0 0h38.62v.484H0z" class="cls-3" data-name="Rectangle 619" transform="translate(85.991 55.457)"/>
                <path id="Path_941" d="M195.531 690.339h3.43-12.258v.488h8.829z" class="cls-3" data-name="Path 941" transform="translate(-60.986 -652.276)"/>
                <path id="Path_942" d="M122.552 690.338h-.231l-.025.486h.256z" class="cls-3" data-name="Path 942" transform="translate(-117.118 -652.275)"/>
                <path id="Rectangle_620" d="M0 0h38.619v.484H0z" class="cls-3" data-name="Rectangle 620" transform="translate(6.54 38.063)"/>
                <path id="Path_943" d="M144.251 690.824h38.618v-.486H144.25z" class="cls-3" data-name="Path 943" transform="translate(-97.984 -652.275)"/>
                <path id="Rectangle_621" d="M0 0h38.619v.486H0z" class="cls-3" data-name="Rectangle 621" transform="translate(85.992 38.063)"/>
                <path id="Rectangle_622" d="M0 0h38.618v.484H0z" class="cls-3" data-name="Rectangle 622" transform="translate(46.267 20.671)"/>
                <path id="Rectangle_623" d="M0 0h38.619v.486H0z" class="cls-3" data-name="Rectangle 623" transform="translate(6.539 20.669)"/>
                <path id="Rectangle_624" d="M0 0h38.618v.485H0z" class="cls-3" data-name="Rectangle 624" transform="translate(85.992 20.67)"/>
                <path id="Path_944" d="M195.532 681.045h3.429H186.7v.486h8.829z" class="cls-3" data-name="Path 944" transform="translate(-60.985 -660.375)"/>
                <path id="Rectangle_625" d="M0 0h38.618v.484H0z" class="cls-3" data-name="Rectangle 625" transform="translate(46.267 3.278)"/>
                <path id="Path_945" d="M198.96 672.237h-4.469v-.482h4.469-12.26v.486z" class="cls-3" data-name="Path 945" transform="translate(-60.985 -668.473)"/>
                <path id="Path_946" d="M161.473 671.751h-38.231l-.024.484h38.255z" class="cls-3" data-name="Path 946" transform="translate(-116.314 -668.473)"/>
                <path id="Rectangle_626" d="M0 0h38.62v.484H0z" class="cls-3" data-name="Rectangle 626" transform="translate(85.991 3.277)"/>
                <path id="Path_947" d="M122.433 703.382v115.441l1.107-.029V675.929l-1.107 22.3v5.155z" class="cls-3" data-name="Path 947" transform="translate(-116.999 -664.832)"/>
                <path id="Path_948" d="M144.768 795.144V670.425h-1.108v152.171l1.109-.027V795.144z" class="cls-3" data-name="Path 948" transform="translate(-98.501 -669.628)"/>
                <path id="Path_949" d="M165.992 795.515V670h-1.106v151.935l1.106-.029v-26.391z" class="cls-3" data-name="Path 949" transform="translate(-80.001 -670)"/>
                <path id="Path_950" d="M187.219 795.144V670.425h-1.106v150.114l1.107-.031v-25.364z" class="cls-3" data-name="Path 950" transform="translate(-61.501 -669.628)"/>
                <path id="Rectangle_627" d="M0 0h38.62v.484H0z" class="cls-3" data-name="Rectangle 627" transform="translate(187.094 142.424)"/>
                <path id="Path_951" d="M191.42 746.1v.483h11.716v-.483z" class="cls-3" data-name="Path 951" transform="translate(-56.874 -603.677)"/>
                <path id="Rectangle_628" d="M0 0h38.618v.487H0z" class="cls-3" data-name="Rectangle 628" transform="translate(147.369 142.423)"/>
                <path id="Path_952" d="M240.725 746.586h25.381l.03-.486h-25.412z" class="cls-3" data-name="Path 952" transform="translate(-13.905 -603.677)"/>
                <path id="Path_953" d="M191.42 736.807v.484h11.716v-.484H191.42z" class="cls-3" data-name="Path 953" transform="translate(-56.874 -611.776)"/>
                <path id="Path_954" d="M198.271 737.291h38.618v-.484h-38.616z" class="cls-3" data-name="Path 954" transform="translate(-50.903 -611.776)"/>
                <path id="Path_955" d="M240.724 737.291h26.444l.03-.484h-26.474z" class="cls-3" data-name="Path 955" transform="translate(-13.905 -611.776)"/>
                <path id="Rectangle_629" d="M0 0h38.619v.484H0z" class="cls-3" data-name="Rectangle 629" transform="translate(187.095 125.03)"/>
                <path id="Path_956" d="M240.724 728h27.508l.03-.483h-27.538z" class="cls-3" data-name="Path 956" transform="translate(-13.905 -619.875)"/>
                <path id="Rectangle_630" d="M0 0h38.619v.483H0z" class="cls-3" data-name="Rectangle 630" transform="translate(187.095 107.638)"/>
                <path id="Rectangle_631" d="M0 0h38.617v.482H0z" class="cls-3" data-name="Rectangle 631" transform="translate(147.37 107.638)"/>
                <path id="Path_957" d="M190.864 727.513V728h12.757v-.483h-12.757z" class="cls-3" data-name="Path 957" transform="translate(-57.359 -619.875)"/>
                <path id="Path_958" d="M191.42 718.705h11.716v-.487h-11.715z" class="cls-3" data-name="Path 958" transform="translate(-56.874 -627.976)"/>
                <path id="Path_959" d="M219.5 718.7h38.619v-.483H219.5z" class="cls-3" data-name="Path 959" transform="translate(-32.404 -627.974)"/>
                <path id="Path_960" d="M240.725 718.705H269.3l.03-.488h-28.6z" class="cls-3" data-name="Path 960" transform="translate(-13.905 -627.976)"/>
                <path id="Rectangle_632" d="M0 0h38.618v.487H0z" class="cls-3" data-name="Rectangle 632" transform="translate(147.369 90.243)"/>
                <path id="Rectangle_633" d="M0 0h38.619v.484H0z" class="cls-3" data-name="Rectangle 633" transform="translate(187.095 72.851)"/>
                <path id="Path_961" d="M198.271 709.411h38.618v-.485h-38.616z" class="cls-3" data-name="Path 961" transform="translate(-50.903 -636.075)"/>
                <path id="Path_962" d="M191.42 708.926v.485h11.716v-.485H191.42z" class="cls-3" data-name="Path 962" transform="translate(-56.874 -636.075)"/>
                <path id="Path_963" d="M240.724 709.411h29.636l.03-.485h-29.666z" class="cls-3" data-name="Path 963" transform="translate(-13.905 -636.075)"/>
                <path id="Path_964" d="M190.864 699.633v.483h12.757v-.483h-12.757z" class="cls-3" data-name="Path 964" transform="translate(-57.359 -644.174)"/>
                <path id="Path_965" d="M219.5 700.116h38.619v-.484H219.5z" class="cls-3" data-name="Path 965" transform="translate(-32.404 -644.175)"/>
                <path id="Rectangle_634" d="M0 0h38.618v.484H0z" class="cls-3" data-name="Rectangle 634" transform="translate(147.369 55.457)"/>
                <path id="Path_966" d="M240.725 700.116h30.7l.03-.484h-30.73z" class="cls-3" data-name="Path 966" transform="translate(-13.905 -644.175)"/>
                <path id="Path_967" d="M191.42 690.338v.484h11.717v-.486H191.42z" class="cls-3" data-name="Path 967" transform="translate(-56.875 -652.275)"/>
                <path id="Rectangle_635" d="M0 0h38.618v.484H0z" class="cls-3" data-name="Rectangle 635" transform="translate(147.369 38.063)"/>
                <path id="Path_968" d="M219.5 690.824h38.619v-.486H219.5z" class="cls-3" data-name="Path 968" transform="translate(-32.404 -652.275)"/>
                <path id="Path_969" d="M240.724 690.824h31.763l.03-.486h-31.793z" class="cls-3" data-name="Path 969" transform="translate(-13.905 -652.275)"/>
                <path id="Rectangle_636" d="M0 0h38.619v.486H0z" class="cls-3" data-name="Rectangle 636" transform="translate(187.095 20.671)"/>
                <path id="Rectangle_637" d="M0 0h38.618v.487H0z" class="cls-3" data-name="Rectangle 637" transform="translate(147.368 20.669)"/>
                <path id="Path_970" d="M191.42 681.045v.484h11.716v-.484H191.42z" class="cls-3" data-name="Path 970" transform="translate(-56.874 -660.374)"/>
                <path id="Path_971" d="M240.724 681.531h32.827l.03-.487h-32.857z" class="cls-3" data-name="Path 971" transform="translate(-13.905 -660.375)"/>
                <path id="Path_972" d="M190.864 672.235h12.756v-.484H190.863z" class="cls-3" data-name="Path 972" transform="translate(-57.359 -668.473)"/>
                <path id="Rectangle_638" d="M0 0h38.619v.484H0z" class="cls-3" data-name="Rectangle 638" transform="translate(187.095 3.278)"/>
                <path id="Rectangle_639" d="M0 0h38.618v.484H0z" class="cls-3" data-name="Rectangle 639" transform="translate(147.369 3.277)"/>
                <path id="Path_973" d="M240.724 672.235h33.892l.029-.484h-33.921z" class="cls-3" data-name="Path 973" transform="translate(-13.905 -668.473)"/>
                <path id="Path_974" d="M198.787 795.144V670.425h-1.108v153.2l1.108-.029v-28.452z" class="cls-3" data-name="Path 974" transform="translate(-51.419 -669.628)"/>
                <path id="Path_975" d="M220.015 795.144V670.425h-1.108v152.168l1.109-.027V795.144z" class="cls-3" data-name="Path 975" transform="translate(-32.92 -669.628)"/>
                <path id="Path_976" d="M241.239 795.515V670h-1.1v151.935l1.1-.029v-26.391z" class="cls-3" data-name="Path 976" transform="translate(-14.42 -670)"/>
            </g>
            <path id="Path_977" d="M380.129 681.826l-256.755 1.945-.35-7.976 257.6-2.06z" class="cls-4" data-name="Path 977" transform="translate(-68.705 -629.087)"/>
            <path id="Path_978" d="M296.575 689H195.9l-1.235 106.862h96.428z" class="cls-5" data-name="Path 978" transform="translate(-6.266 -615.783)"/>
            <path id="Path_979" d="M170.422 689l-38.525.234 4.131 106.63 36.923-.053z" class="cls-5" data-name="Path 979" transform="translate(-60.972 -615.784)"/>
            <path id="Path_980" d="M371.882 748.514l-253.863.115.406 7.811 252.883-.014z" class="cls-6" data-name="Path 980" transform="translate(-73.067 -563.915)"/>
            <path id="Path_981" d="M214.86 689.069l-52.463.347 1.779 119.342 49.556-.005z" class="cls-5" data-name="Path 981" transform="translate(-34.39 -615.723)"/>
            <path id="Path_982" d="M210.941 690.334l-47.117.253 1.558 108.606 44.7-.015z" class="cls-7" data-name="Path 982" transform="translate(-33.146 -614.621)"/>
            <path id="Path_983" d="M201 695.125l-33.549.191 1.109 83.091 31.83-.008z" class="cls-8" data-name="Path 983" transform="translate(-29.987 -610.446)"/>
            <path id="Path_984" d="M197.684 697.168l-29.027.176.959 76.243 27.54-.009z" class="cls-9" data-name="Path 984" transform="translate(-28.934 -608.665)"/>
            <path id="Path_985" d="M194.351 713.334l-24.017.1.794 43.259 22.786-.006z" class="cls-10" data-name="Path 985" transform="translate(-27.473 -594.576)"/>
            <path id="Path_986" d="M169 737.769l29.009-34.936-.312 42.734-17.779 23.082-10.294-.313z" class="cls-11" data-name="Path 986" transform="translate(-28.635 -603.728)"/>
            <g id="Group_508" data-name="Group 508" transform="translate(295.141 50.606)">
                <path id="Path_987" d="M264.279 745.372l-11.851.174-.728 14.106 11.851-.176z" class="cls-12" data-name="Path 987" transform="translate(-251.701 -617.26)"/>
                <path id="Path_988" d="M264.97 735.591l-11.852.174-.728 14.105 11.852-.173z" class="cls-12" data-name="Path 988" transform="translate(-251.1 -625.783)"/>
                <path id="Path_989" d="M265.492 725.813l-11.852.173-.729 14.108 11.853-.176z" class="cls-12" data-name="Path 989" transform="translate(-250.645 -634.306)"/>
                <path id="Path_990" d="M266.18 716.033l-11.852.173-.727 14.107 11.851-.176z" class="cls-12" data-name="Path 990" transform="translate(-250.044 -642.83)"/>
                <path id="Path_991" d="M266.87 706.254l-11.852.173-.728 14.107 11.852-.174z" class="cls-12" data-name="Path 991" transform="translate(-249.444 -651.353)"/>
                <path id="Path_992" d="M267.476 696.474l-11.852.172-.727 14.107 11.852-.176z" class="cls-12" data-name="Path 992" transform="translate(-248.916 -659.875)"/>
                <path id="Path_993" d="M268.331 686.691l-11.851.174-.727 14.106 11.847-.171z" class="cls-12" data-name="Path 993" transform="translate(-248.17 -668.401)"/>
                <path id="Path_994" d="M268.52 676.919l-11.852.172-.728 14.109 11.852-.173z" class="cls-12" data-name="Path 994" transform="translate(-248.006 -676.919)"/>
            </g>
            <path id="Path_995" d="M270.819 670.1l-10.849-.791-9.37 156.43 10.849.789z" class="cls-6" data-name="Path 995" transform="translate(42.481 -632.946)"/>
            <path id="Path_996" d="M393.021 653.7L117.5 656.234l1.8 39.152 271.133-1.972z" class="cls-13" data-name="Path 996" transform="translate(-73.522 -646.552)"/>
            <path id="Path_997" d="M378.723 666.759l-255.864 2.36-.354-8.157 256.72-2.482z" class="cls-2" data-name="Path 997" transform="translate(-69.157 -642.382)"/>
            <path id="Path_998" d="M353.943 658.645l-222.418 2.082.847 23.212 220.307-.845z" class="cls-6" data-name="Path 998" transform="translate(-61.296 -642.238)"/>
            <path id="Path_999" d="M347.905 662.833l-214.179 1.437.816 16.02 212.145-1.229z" class="cls-7" data-name="Path 999" transform="translate(-59.378 -638.589)"/>
            <path id="Rectangle_640" d="M0 0h308.346v4.993H0z" class="cls-14" data-name="Rectangle 640" transform="translate(17.496 189.3)"/>
            <path id="Path_1000" d="M167.669 690.371l-34.841.186 3.736 85.014 32.457-.042z" class="cls-9" data-name="Path 1000" transform="translate(-60.16 -614.589)"/>
            <path id="Path_1001" d="M197.205 690.371l96.738.186-4.991 85.014-92.952-.042z" class="cls-9" data-name="Path 1001" transform="translate(-5.104 -614.589)"/>
            <path id="Path_1002" d="M200.007 707.167l87.5.115-4.514 51.536-84.072-.023z" class="cls-10" data-name="Path 1002" transform="translate(-2.562 -599.951)"/>
            <path id="Path_1003" d="M393.632 666.368l-276.281 2.577-.684-14.507 277.922-2.806z" class="cls-2" data-name="Path 1003" transform="translate(-74.245 -648.352)"/>
            <path id="Path_1004" d="M399.737 656.4l-284.924 2.849-.314-6.417 285.667-2.952z" class="cls-6" data-name="Path 1004" transform="translate(-76.134 -649.879)"/>
            <path id="Rectangle_641" d="M0 0h31.192v2.023H0z" class="cls-8" data-name="Rectangle 641" transform="translate(138.806 143.525)"/>
            <path id="Rectangle_642" d="M0 0h2.061v80.788H0z" class="cls-8" data-name="Rectangle 642" transform="translate(153.96 86.004)"/>
            <path id="Rectangle_643" d="M0 0h2.339v8.422H0z" class="cls-15" data-name="Rectangle 643" transform="translate(127.498 147.375)"/>
            <path id="Rectangle_644" d="M0 0h2.339v8.422H0z" class="cls-15" data-name="Rectangle 644" transform="translate(126.328 91.697)"/>
            <path id="Path_1005" d="M163.23 710.667l-28.235.1 3.028 44.378 26.3-.021z" class="cls-10" data-name="Path 1005" transform="translate(-58.272 -596.9)"/>
            <path id="Path_1006" d="M134.5 737.916l32.44-40.083-.312 42.735-21.21 28.232-10.293-.312z" class="cls-11" data-name="Path 1006" transform="translate(-58.703 -608.085)"/>
            <path id="Path_1007" d="M141.6 737.25h-5.85l.7 14.271h5.85z" class="cls-7" data-name="Path 1007" transform="translate(-57.614 -573.733)"/>
            <path id="Path_1008" d="M145.973 737.25h-5.849l.7 14.271h5.849z" class="cls-7" data-name="Path 1008" transform="translate(-53.801 -573.733)"/>
            <path id="Path_1009" d="M150.223 737.25h-5.849l.7 14.271h5.848z" class="cls-7" data-name="Path 1009" transform="translate(-50.097 -573.733)"/>
            <path id="Path_1010" d="M154.348 737.25H148.5l.7 14.271h5.848z" class="cls-7" data-name="Path 1010" transform="translate(-46.502 -573.733)"/>
            <path id="Rectangle_645" d="M0 0h5.849v13.803H0z" class="cls-7" data-name="Rectangle 645" transform="translate(191.598 163.517)"/>
            <path id="Rectangle_646" d="M0 0h5.849v13.803H0z" class="cls-7" data-name="Rectangle 646" transform="translate(199.383 163.517)"/>
            <path id="Rectangle_647" d="M0 0h5.849v13.803H0z" class="cls-7" data-name="Rectangle 647" transform="translate(207.168 163.517)"/>
            <path id="Rectangle_648" d="M0 0h5.849v13.803H0z" class="cls-7" data-name="Rectangle 648" transform="translate(214.953 163.517)"/>
            <path id="Rectangle_649" d="M0 0h5.849v13.803H0z" class="cls-7" data-name="Rectangle 649" transform="translate(222.738 163.517)"/>
            <path id="Path_1011" d="M223.687 737.25h-5.849l-.907 13.8h5.849z" class="cls-7" data-name="Path 1011" transform="translate(13.139 -573.733)"/>
            <path id="Path_1012" d="M227.847 737.25H222l-.907 13.8h5.849z" class="cls-7" data-name="Path 1012" transform="translate(16.764 -573.733)"/>
            <path id="Path_1013" d="M232.006 737.25h-5.849l-.906 13.8h5.849z" class="cls-7" data-name="Path 1013" transform="translate(20.389 -573.733)"/>
            <path id="Path_1014" d="M236.167 737.25h-5.848l-.907 13.8h5.849z" class="cls-7" data-name="Path 1014" transform="translate(24.015 -573.733)"/>
            <path id="Path_1015" d="M240.325 737.25h-5.848l-.906 13.8h5.848z" class="cls-7" data-name="Path 1015" transform="translate(27.64 -573.733)"/>
            <path id="Path_1016" d="M244.486 737.25h-5.849l-.906 13.8h5.848z" class="cls-7" data-name="Path 1016" transform="translate(31.266 -573.733)"/>
            <path id="Path_1017" d="M248.645 737.25H242.8l-.905 13.8h5.848z" class="cls-7" data-name="Path 1017" transform="translate(34.891 -573.733)"/>
            <path id="Rectangle_650" d="M0 0h36.495v1.579H0z" class="cls-5" data-name="Rectangle 650" transform="translate(72.365 96.912)"/>
            <path id="Path_1060" d="M196.125 744.306l47.49-53.806 47.49.234-49.127 84.453h-45.619z" class="cls-11" data-name="Path 1060" transform="translate(-4.995 -614.476)"/>
            <path id="Rectangle_703" d="M0 0h98.475v1.579H0z" class="cls-5" data-name="Rectangle 703" transform="translate(190.583 96.912)"/>
            <path id="Path_1061" d="M143.908 680.334H94v36.182h47.412z" class="cls-13" data-name="Path 1061" transform="translate(-94 -623.336)"/>
            <path id="Path_1062" d="M141.621 680.833H94.833c6.247 19.192 19.529 28.078 44.449 34.314z" class="cls-2" data-name="Path 1062" transform="translate(-93.274 -622.902)"/>
            <path id="Rectangle_704" d="M0 0h8.89v9.826H0z" class="cls-6" data-name="Rectangle 704" transform="translate(83.751 23.621)"/>
            <path id="Rectangle_705" d="M0 0h8.89v9.826H0z" class="cls-6" data-name="Rectangle 705" transform="translate(113.904 23.621)"/>
            <path id="Rectangle_706" d="M0 0h8.89v9.826H0z" class="cls-6" data-name="Rectangle 706" transform="translate(264.665 23.621)"/>
            <path id="Rectangle_707" d="M0 0h8.89v9.826H0z" class="cls-6" data-name="Rectangle 707" transform="translate(234.513 23.621)"/>
            <path id="Rectangle_708" d="M0 0h8.89v9.826H0z" class="cls-6" data-name="Rectangle 708" transform="translate(204.36 22.996)"/>
            <path id="Rectangle_709" d="M0 0h8.89v9.826H0z" class="cls-6" data-name="Rectangle 709" transform="translate(174.207 22.996)"/>
            <path id="Rectangle_710" d="M0 0h8.89v9.826H0z" class="cls-6" data-name="Rectangle 710" transform="translate(144.056 22.996)"/>
        </g>
        <g id="Group_65" data-name="Group 65" transform="translate(11017.779 3208.62)">
            <g id="Group_54" data-name="Group 54" transform="translate(1.265 4.689)">
                <path id="Path_86" d="M990.124 1517.34h-12.531l2.474 19.112a1.274 1.274 0 0 0 1.264 1.11h5.055a1.274 1.274 0 0 0 1.264-1.11z" class="cls-16" data-name="Path 86" transform="translate(-977.393 -1517.141)"/>
                <g id="Group_53" data-name="Group 53">
                    <path id="Path_87" d="M985.086 1536.462h-5.056a1.476 1.476 0 0 1-1.462-1.284l-2.474-19.114a.206.206 0 0 1 .048-.158.2.2 0 0 1 .15-.066h12.53a.2.2 0 0 1 .2.225l-2.473 19.114a1.477 1.477 0 0 1-1.463 1.283zm-8.566-20.223l2.445 18.888a1.075 1.075 0 0 0 1.065.936h5.055a1.077 1.077 0 0 0 1.065-.936l2.445-18.888z" class="cls-17" data-name="Path 87" transform="translate(-976.093 -1515.84)"/>
                </g>
            </g>
            <g id="Group_56" data-name="Group 56" transform="translate(0 2.345)">
                <rect id="Rectangle_12" width="15.06" height="2.345" class="cls-18" data-name="Rectangle 12" rx="1.172" transform="translate(.2 .2)"/>
                <g id="Group_55" data-name="Group 55">
                    <path id="Path_88" d="M980.672 1500.96h-12.715a1.372 1.372 0 1 1 0-2.744h12.715a1.372 1.372 0 1 1 0 2.744zm-12.715-2.343a.972.972 0 1 0 0 1.944h12.715a.972.972 0 1 0 0-1.944z" class="cls-17" data-name="Path 88" transform="translate(-966.584 -1498.216)"/>
                </g>
            </g>
            <g id="Group_58" data-name="Group 58" transform="translate(1.265)">
                <path id="Path_89" d="M987.779 1482.092h-7.841a2.344 2.344 0 0 0-2.345 2.343h12.531a2.344 2.344 0 0 0-2.345-2.343z" class="cls-19" data-name="Path 89" transform="translate(-977.393 -1481.893)"/>
                <g id="Group_57" data-name="Group 57">
                    <path id="Path_90" d="M988.822 1483.336h-12.53a.2.2 0 0 1-.2-.2 2.548 2.548 0 0 1 2.544-2.545h7.839a2.547 2.547 0 0 1 2.544 2.545.2.2 0 0 1-.197.2zm-12.321-.4h12.112a2.149 2.149 0 0 0-2.137-1.947h-7.839a2.148 2.148 0 0 0-2.137 1.948z" class="cls-17" data-name="Path 90" transform="translate(-976.094 -1480.591)"/>
                </g>
            </g>
            <g id="Group_60" data-name="Group 60" transform="translate(1.915 9.712)">
                <path id="Path_91" d="M992.873 1561.542l.835-6.457h-11.23l.836 6.457z" class="cls-20" data-name="Path 91" transform="translate(-982.278 -1554.886)"/>
                <g id="Group_59" data-name="Group 59">
                    <path id="Path_92" d="M991.572 1560.441h-9.558a.2.2 0 0 1-.2-.175l-.835-6.458a.2.2 0 0 1 .2-.223h11.23a.2.2 0 0 1 .15.066.2.2 0 0 1 .047.157l-.835 6.458a.2.2 0 0 1-.199.175zm-9.383-.4h9.211l.784-6.059h-10.778z" class="cls-17" data-name="Path 92" transform="translate(-980.978 -1553.585)"/>
                </g>
            </g>
            <g id="Group_64" data-name="Group 64" transform="translate(5.528 10.935)">
                <g id="Group_62" data-name="Group 62">
                    <path id="Path_93" d="M1012.68 1567.349c-.943.942-2.175 1.237-2.753.66s-.282-1.81.661-2.753 2.175-1.239 2.753-.66.282 1.812-.661 2.753z" class="cls-21" data-name="Path 93" transform="translate(-1009.432 -1564.098)"/>
                    <g id="Group_61" data-name="Group 61">
                        <path id="Path_94" d="M1009.422 1567.187a1.3 1.3 0 0 1-.941-.357 1.466 1.466 0 0 1-.293-1.428 3.524 3.524 0 0 1 .954-1.606c1.036-1.037 2.37-1.327 3.035-.661s.376 2-.661 3.035a3.142 3.142 0 0 1-2.094 1.017zm1.821-4.007a2.793 2.793 0 0 0-1.818.9 3.093 3.093 0 0 0-.848 1.418 1.086 1.086 0 0 0 .186 1.052c.49.491 1.622.188 2.47-.66s1.15-1.98.661-2.471a.9.9 0 0 0-.651-.239zm.133 2.846z" class="cls-17" data-name="Path 94" transform="translate(-1008.127 -1562.776)"/>
                    </g>
                </g>
                <g id="Group_63" data-name="Group 63" transform="translate(.359 .739)">
                    <path id="Path_95" d="M1011.024 1571.772a.206.206 0 0 1-.153-.071.2.2 0 0 1 .023-.282 1.739 1.739 0 0 0 .606-.982 2.139 2.139 0 0 1 .73-1.171 1.9 1.9 0 0 1 1.245-.493 1.486 1.486 0 0 0 1.017-.4.2.2 0 1 1 .258.3 1.9 1.9 0 0 1-1.244.491 1.486 1.486 0 0 0-1.018.4 1.741 1.741 0 0 0-.606.982 2.157 2.157 0 0 1-.731 1.172.2.2 0 0 1-.127.054z" class="cls-17" data-name="Path 95" transform="translate(-1010.824 -1568.33)"/>
                </g>
            </g>
        </g>
        <g id="Group_570" data-name="Group 570" transform="translate(11036.997 3208.62)">
            <g id="Group_54-2" data-name="Group 54" transform="translate(1.265 4.689)">
                <path id="Path_86-2" d="M990.124 1517.34h-12.531l2.474 19.112a1.274 1.274 0 0 0 1.264 1.11h5.055a1.274 1.274 0 0 0 1.264-1.11z" class="cls-16" data-name="Path 86" transform="translate(-977.393 -1517.141)"/>
                <g id="Group_53-2" data-name="Group 53">
                    <path id="Path_87-2" d="M985.086 1536.462h-5.056a1.476 1.476 0 0 1-1.462-1.284l-2.474-19.114a.206.206 0 0 1 .048-.158.2.2 0 0 1 .15-.066h12.53a.2.2 0 0 1 .2.225l-2.473 19.114a1.477 1.477 0 0 1-1.463 1.283zm-8.566-20.223l2.445 18.888a1.075 1.075 0 0 0 1.065.936h5.055a1.077 1.077 0 0 0 1.065-.936l2.445-18.888z" class="cls-17" data-name="Path 87" transform="translate(-976.093 -1515.84)"/>
                </g>
            </g>
            <g id="Group_56-2" data-name="Group 56" transform="translate(0 2.345)">
                <rect id="Rectangle_12-2" width="15.06" height="2.345" class="cls-18" data-name="Rectangle 12" rx="1.172" transform="translate(.2 .2)"/>
                <g id="Group_55-2" data-name="Group 55">
                    <path id="Path_88-2" d="M980.672 1500.96h-12.715a1.372 1.372 0 1 1 0-2.744h12.715a1.372 1.372 0 1 1 0 2.744zm-12.715-2.343a.972.972 0 1 0 0 1.944h12.715a.972.972 0 1 0 0-1.944z" class="cls-17" data-name="Path 88" transform="translate(-966.584 -1498.216)"/>
                </g>
            </g>
            <g id="Group_58-2" data-name="Group 58" transform="translate(1.265)">
                <path id="Path_89-2" d="M987.779 1482.092h-7.841a2.344 2.344 0 0 0-2.345 2.343h12.531a2.344 2.344 0 0 0-2.345-2.343z" class="cls-19" data-name="Path 89" transform="translate(-977.393 -1481.893)"/>
                <g id="Group_57-2" data-name="Group 57">
                    <path id="Path_90-2" d="M988.822 1483.336h-12.53a.2.2 0 0 1-.2-.2 2.548 2.548 0 0 1 2.544-2.545h7.839a2.547 2.547 0 0 1 2.544 2.545.2.2 0 0 1-.197.2zm-12.321-.4h12.112a2.149 2.149 0 0 0-2.137-1.947h-7.839a2.148 2.148 0 0 0-2.137 1.948z" class="cls-17" data-name="Path 90" transform="translate(-976.094 -1480.591)"/>
                </g>
            </g>
            <g id="Group_60-2" data-name="Group 60" transform="translate(1.915 9.712)">
                <path id="Path_91-2" d="M992.873 1561.542l.835-6.457h-11.23l.836 6.457z" class="cls-20" data-name="Path 91" transform="translate(-982.278 -1554.886)"/>
                <g id="Group_59-2" data-name="Group 59">
                    <path id="Path_92-2" d="M991.572 1560.441h-9.558a.2.2 0 0 1-.2-.175l-.835-6.458a.2.2 0 0 1 .2-.223h11.23a.2.2 0 0 1 .15.066.2.2 0 0 1 .047.157l-.835 6.458a.2.2 0 0 1-.199.175zm-9.383-.4h9.211l.784-6.059h-10.778z" class="cls-17" data-name="Path 92" transform="translate(-980.978 -1553.585)"/>
                </g>
            </g>
            <g id="Group_64-2" data-name="Group 64" transform="translate(5.528 10.935)">
                <g id="Group_62-2" data-name="Group 62">
                    <path id="Path_93-2" d="M1012.68 1567.349c-.943.942-2.175 1.237-2.753.66s-.282-1.81.661-2.753 2.175-1.239 2.753-.66.282 1.812-.661 2.753z" class="cls-21" data-name="Path 93" transform="translate(-1009.432 -1564.098)"/>
                    <g id="Group_61-2" data-name="Group 61">
                        <path id="Path_94-2" d="M1009.422 1567.187a1.3 1.3 0 0 1-.941-.357 1.466 1.466 0 0 1-.293-1.428 3.524 3.524 0 0 1 .954-1.606c1.036-1.037 2.37-1.327 3.035-.661s.376 2-.661 3.035a3.142 3.142 0 0 1-2.094 1.017zm1.821-4.007a2.793 2.793 0 0 0-1.818.9 3.093 3.093 0 0 0-.848 1.418 1.086 1.086 0 0 0 .186 1.052c.49.491 1.622.188 2.47-.66s1.15-1.98.661-2.471a.9.9 0 0 0-.651-.239zm.133 2.846z" class="cls-17" data-name="Path 94" transform="translate(-1008.127 -1562.776)"/>
                    </g>
                </g>
                <g id="Group_63-2" data-name="Group 63" transform="translate(.359 .739)">
                    <path id="Path_95-2" d="M1011.024 1571.772a.206.206 0 0 1-.153-.071.2.2 0 0 1 .023-.282 1.739 1.739 0 0 0 .606-.982 2.139 2.139 0 0 1 .73-1.171 1.9 1.9 0 0 1 1.245-.493 1.486 1.486 0 0 0 1.017-.4.2.2 0 1 1 .258.3 1.9 1.9 0 0 1-1.244.491 1.486 1.486 0 0 0-1.018.4 1.741 1.741 0 0 0-.606.982 2.157 2.157 0 0 1-.731 1.172.2.2 0 0 1-.127.054z" class="cls-17" data-name="Path 95" transform="translate(-1010.824 -1568.33)"/>
                </g>
            </g>
        </g>
        <text id="Coffee_Shop" class="cls-22" data-name="Coffee Shop" transform="translate(11131.938 3214.19)">
            <tspan x="0" y="0">Coffee Shop</tspan>
        </text>
    </g>
</svg>
