<svg xmlns="http://www.w3.org/2000/svg" xmlns:xlink="http://www.w3.org/1999/xlink" width="52.559" height="53.52" viewBox="0 0 52.559 53.52">
    <defs>
        <style>
            .cls-1{fill:#acdbdf}.cls-13,.cls-16,.cls-2,.cls-23,.cls-8{fill:#6dc7c9}.cls-26,.cls-27,.cls-29,.cls-3,.cls-31,.cls-4{opacity:.86}.cls-3{fill:url(#linear-gradient)}.cls-4{fill:url(#linear-gradient-2)}.cls-5{fill:#a1dbd0}.cls-21,.cls-6{fill:#30a0a2}.cls-22,.cls-7{opacity:.61}.cls-7{fill:url(#linear-gradient-4)}.cls-23,.cls-8{opacity:.5}.cls-9{fill:#a7ddd8}.cls-10,.cls-11,.cls-12,.cls-14,.cls-15,.cls-17,.cls-18,.cls-24,.cls-25{opacity:.55}.cls-10{fill:url(#linear-gradient-5)}.cls-11{fill:url(#linear-gradient-6)}.cls-12{fill:url(#linear-gradient-7)}.cls-13{opacity:.49}.cls-14{fill:url(#linear-gradient-8)}.cls-15{fill:url(#linear-gradient-9)}.cls-16,.cls-20,.cls-21,.cls-22,.cls-23,.cls-31,.cls-33,.cls-34,.cls-35{fill-rule:evenodd}.cls-17{fill:url(#linear-gradient-10)}.cls-18{fill:url(#linear-gradient-11)}.cls-19{fill:#fff}.cls-20{fill:#206f8e}.cls-22{fill:url(#linear-gradient-12)}.cls-24{fill:url(#linear-gradient-13)}.cls-25{fill:url(#linear-gradient-14)}.cls-26{fill:url(#linear-gradient-15)}.cls-27{fill:url(#linear-gradient-16)}.cls-28{fill:#2989a2;opacity:.68}.cls-29{fill:url(#linear-gradient-17)}.cls-30{fill:url(#linear-gradient-18)}.cls-31{fill:url(#linear-gradient-19)}.cls-32,.cls-33,.cls-34,.cls-36,.cls-38,.cls-39,.cls-40{opacity:.89}.cls-32{fill:url(#linear-gradient-20)}.cls-33{fill:url(#linear-gradient-21)}.cls-34{fill:url(#linear-gradient-22)}.cls-35{fill:#2d999d}.cls-36{fill:url(#linear-gradient-23)}.cls-37{opacity:.92}.cls-38{fill:url(#linear-gradient-24)}.cls-39{fill:url(#linear-gradient-25)}.cls-40{fill:url(#linear-gradient-26)}
        </style>
        <linearGradient id="linear-gradient" x2="1" y1=".5" y2=".5" gradientUnits="objectBoundingBox">
            <stop offset="0" stop-color="#4e7ab1"/>
            <stop offset="1" stop-color="#0d2c47"/>
        </linearGradient>
        <linearGradient id="linear-gradient-2" x2="1" y1=".5" y2=".5" xlink:href="#linear-gradient"/>
        <linearGradient id="linear-gradient-4" x2="1" y1=".5" y2=".5" xlink:href="#linear-gradient"/>
        <linearGradient id="linear-gradient-5" x1=".202" x2="1.155" y1=".377" y2=".68" gradientUnits="objectBoundingBox">
            <stop offset="0" stop-color="#fff"/>
            <stop offset="1"/>
        </linearGradient>
        <linearGradient id="linear-gradient-6" x1=".329" x2="1.54" y1=".501" y2=".806" xlink:href="#linear-gradient-5"/>
        <linearGradient id="linear-gradient-7" x2="1" y1=".5" y2=".5" xlink:href="#linear-gradient-5"/>
        <linearGradient id="linear-gradient-8" x2="1" y1=".5" y2=".5" xlink:href="#linear-gradient-5"/>
        <linearGradient id="linear-gradient-9" x2="1" y1=".5" y2=".5" xlink:href="#linear-gradient-5"/>
        <linearGradient id="linear-gradient-10" x1="104.105" x2="103.913" y1="85.026" y2="85.916" xlink:href="#linear-gradient-5"/>
        <linearGradient id="linear-gradient-11" x1="116.788" x2="116.572" y1="110.131" y2="111.281" xlink:href="#linear-gradient-5"/>
        <linearGradient id="linear-gradient-12" x2="1" y1=".5" y2=".5" xlink:href="#linear-gradient"/>
        <linearGradient id="linear-gradient-13" x1=".077" x2=".655" y1=".079" y2=".669" xlink:href="#linear-gradient-5"/>
        <linearGradient id="linear-gradient-14" x1=".271" x2="1.006" y1=".346" y2=".941" xlink:href="#linear-gradient-5"/>
        <linearGradient id="linear-gradient-15" x2="1" y1=".5" y2=".5" xlink:href="#linear-gradient"/>
        <linearGradient id="linear-gradient-16" x2="1" y1=".5" y2=".5" xlink:href="#linear-gradient"/>
        <linearGradient id="linear-gradient-17" x1=".739" x2="-.882" y1=".5" y2=".5" xlink:href="#linear-gradient"/>
        <linearGradient id="linear-gradient-18" x1=".739" x2="-.882" y1=".5" y2=".5" xlink:href="#linear-gradient"/>
        <linearGradient id="linear-gradient-19" x1=".739" x2="-.882" y1=".5" y2=".5" xlink:href="#linear-gradient"/>
        <linearGradient id="linear-gradient-20" x1=".278" x2="1.189" y1=".583" y2=".026" xlink:href="#linear-gradient-5"/>
        <linearGradient id="linear-gradient-21" x2="1" y1=".5" y2=".5" xlink:href="#linear-gradient-5"/>
        <linearGradient id="linear-gradient-22" x2="1" y1=".5" y2=".5" xlink:href="#linear-gradient-5"/>
        <linearGradient id="linear-gradient-23" x1=".275" x2="1.247" y1=".561" y2=".229" xlink:href="#linear-gradient-5"/>
        <linearGradient id="linear-gradient-24" x1="-250.245" x2="-248.754" y1="-1270.807" y2="-1271.059" xlink:href="#linear-gradient-5"/>
        <linearGradient id="linear-gradient-25" x1="-1075.563" x2="-1074.136" y1="-1674.298" y2="-1674.63" xlink:href="#linear-gradient-5"/>
        <linearGradient id="linear-gradient-26" x1="-513.685" x2="-512.548" y1="-2765.469" y2="-2765.878" xlink:href="#linear-gradient-5"/>
    </defs>
    <g id="Group_89" data-name="Group 89" transform="translate(-376.529 -1636.248)">
        <g id="Group_78" data-name="Group 78">
            <path id="Path_688" d="M390.927 1649.674a19 19 0 0 0 3.141-1.382c1.9-.979 2.806-.985 2.6-1.875s-.39-1 .638-1.58 5.775-3.773 6-4.637-2.328-.906-2.463-.906c-.057 0-1.516.021-3.186.047-.5.008-2.877 1.382-3.384 1.39-.383.005 1.1-1.355.741-1.35l-2.336.036s-2.267-.094-2.145 1.764c.427 6.479-1.635 5.352-1.763 7.047s-.531 2.82.463 3.1.779-1.318 1.694-1.654z" class="cls-1" data-name="Path 688"/>
            <path id="Path_689" d="M405.154 1651.267c-.18-.58-2.284 1.472-2.757 1.365s1.3-2.632 1.889-3.18.336-3.228.155-3.746-6.031 2.2-7.91 3.437-7.708 4.841-7.708 4.841l-.7.243a11.482 11.482 0 0 0 .469 2.262c.254.483 5.278.648 5.556.623s3.4-1.8 3.4-1.8.433 1.524 1.5 1.5 4.957 0 5.622-.339.663-4.627.484-5.206z" class="cls-1" data-name="Path 689"/>
        </g>
        <path id="Path_690" d="M405.287 1646.538a20.865 20.865 0 0 1 .472 5.008c-.055 1.326.2 3.15.2 4.027s-.124 2.734-1.394 3.008-3.094.569-3.434.1.154-.613 1.329-.825 2.166-.474 2.288-1.8.6-4.681.346-5.837a13.215 13.215 0 0 1-.239-4.336c.245-.711.432.655.432.655z" class="cls-2" data-name="Path 690"/>
        <path id="Path_691" d="M387.24 1638.264s-.8.172-1.011 2.8.419 5.474.505 7.73-.563 3.611-.223 4.371.912.2 1.09-.55-.421-4.089-.178-4.9a8.588 8.588 0 0 0 .7-2.382c.082-1.114.457-2.026-.081-2.031s-.814.179-.784-.593a5.3 5.3 0 0 1 .706-2.9c.618-.771 3.613-1.023 4.064-1.394s-.867-.34-.672-.711 1.055-.492.359-.68a8.387 8.387 0 0 0-3.592.68 4.034 4.034 0 0 1-.883.56z" class="cls-2" data-name="Path 691"/>
        <path id="Path_692" d="M390.336 1637.3a14.237 14.237 0 0 1 3.755 0c2.411.255 3.547.695 5.076.348s1.487-.7 2.586-.3a13.067 13.067 0 0 0 2.838.786c.723.063 1.069.111 1.137.416s-.264.166-1.35-.089a14.744 14.744 0 0 0-3.129-.6c-1.062-.016-2.522.445-3.751.408s-5.377-.755-6.3-.639-1.757.131-1.69-.062.828-.268.828-.268z" class="cls-2" data-name="Path 692"/>
        <path id="Path_693" d="M388.12 1637.7s1.139-1.21 4.6-1.363a47.142 47.142 0 0 1 8.119.162c2.236.284 5.724.192 7.09.394s4.554 1.038 4.358 1.827-5.191-.934-5.875-.554-.752.526-1.59.371-2.6-1.423-3.983-1.115a24.83 24.83 0 0 1-4.172.523 41.323 41.323 0 0 1-4.127-.262c-1.346-.058-4.42.017-4.42.017z" class="cls-2" data-name="Path 693"/>
        <path id="Path_694" d="M408.43 1638.315s3.116-.47 3.861.285a5 5 0 0 1 1.691 3.161c-.025 1.194-.046 7.772 0 8.674s-.948.6-.261 1.394.7.914.635 1.491-.319 3.664-.247 4.415-.328 1.253-.607.968-.438-4.233-.379-5.061-.406-1.353-.591-2.62a6.358 6.358 0 0 1 .4-2.731c.036-.2.488-6.534 0-7.48s-1.776-2.091-2.415-1.951-1.326.687-1.9.539-.187-1.084-.187-1.084z" class="cls-2" data-name="Path 694"/>
        <path id="Path_695" d="M407.929 1658.784s-.925-4.61-.667-5.8 1.184-.7 1.358.572-.215 1.664.382 2.243 1.4.874 1.267 1.306.74.6.793.951-1.928 1.054-2.376 1.175-.92-.014-.97-.223.213-.224.213-.224z" class="cls-3" data-name="Path 695"/>
        <path id="Path_696" d="M412.854 1641.41a1.627 1.627 0 0 0-1.081 2.137 8.22 8.22 0 0 1-.09 3.92c-.234.836-.566 2.118.09 2.69a1.552 1.552 0 0 1 .576 1.948c-.282.957-.031 5.439.393 5.949s.747 1.208.978.626a29.232 29.232 0 0 0-.1-6.666c-.282-1.115-.745-1.872-.56-2.452a30.324 30.324 0 0 0 .664-3.9c.046-.789-.125-3.016-.349-2.444s-.226 2.991-.58 1.844a11.318 11.318 0 0 1 .059-3.652z" class="cls-2" data-name="Path 696"/>
        <path id="Path_697" d="M401.025 1638.722s2.561.382 3.539.573 1.512.029 1.646.43a6.586 6.586 0 0 1-.252 2.174c-.138.635-.115 1.842-.277 1.778a4.6 4.6 0 0 1-.24-1.969c.054-.587.4-1.592-.247-1.8s-2.509-.372-3.255-.657-2.273 0-2.209-.2 1.153-.32 1.153-.32z" class="cls-2" data-name="Path 697"/>
        <path id="Path_698" d="M397.452 1659.74a19.081 19.081 0 0 1 4.124.177c2.076.345 4.951.284 4.968.1a7.047 7.047 0 0 0 0-2.1c-.191-.308-.284-1.028-.562-.4s-.519 1.627-1.7 1.717-4.609.061-5.539.069a4.785 4.785 0 0 0-1.6.277z" class="cls-4" data-name="Path 698"/>
        <path id="Path_699" d="M387.13 1644.508s-.573-3.361.471-4.805 2-1.414 2.526-1.29 2.012-.392 2.413 0-.125.626-1.207.761-1.738.058-1.611 1.379.15 4.664-.341 4.167-.563-2.475-.805-1.579-.261 4.7-.823 4.93-.623-3.563-.623-3.563z" class="cls-5" data-name="Path 699"/>
        <path id="Path_700" d="M387.423 1651.975s.485.559.7-.431.379-4.48.651-5.471a9.341 9.341 0 0 0 .491-2.5 5.733 5.733 0 0 0-.137-1.759c-.226-.666-.493-1.233-.646-.573s-.1 3.083-.359 2.711-.247-1.575-.349-.88-.359 3.284-.531 3.913a3.77 3.77 0 0 0 0 1.766c.103.811.18 3.224.18 3.224z" class="cls-2" data-name="Path 700"/>
        <path id="Path_701" d="M378.785 1661.87a2.78 2.78 0 0 1 2.829-1.67c2.1.2 3.368.7 5.809 1.06s4.646.27 5.715.61.822-.2 1.621.649a2.721 2.721 0 0 1 .777 1.779s-.836-1.5-1.581-1.779a6.021 6.021 0 0 0-2.383-.357 56.152 56.152 0 0 1-7.587-.871 7.651 7.651 0 0 0-3.617-.428 5.713 5.713 0 0 0-1.583 1.007z" class="cls-2" data-name="Path 701"/>
        <path id="Path_702" d="M379.308 1682a7.394 7.394 0 0 0 2.962.964c2 .29 3.531.076 4.582.54a11.242 11.242 0 0 0 3.994.618c1.53.046 4.775.116 6.235 0s3.014-.411 4.279-.487a10.887 10.887 0 0 1 2.17-.093 4.28 4.28 0 0 0 1.1-.092c.2.023.484.36.484.36a36.633 36.633 0 0 0-5.078.5 24.223 24.223 0 0 1-4.5.812c-.9 0-4.534-.478-6.138-.6s-4.084-.9-4.733-.96a21.557 21.557 0 0 1-4.048-.551 3.417 3.417 0 0 1-1.309-1.011z" class="cls-6" data-name="Path 702"/>
        <path id="Path_703" d="M379.475 1660.618s-.468-.856 2.6-1.32a24.444 24.444 0 0 1 5.575-.447c.067.133.742.694.377.762a65.589 65.589 0 0 0-6.615.232c-2.179.312-1.937.773-1.937.773z" class="cls-2" data-name="Path 703"/>
        <path id="Path_704" d="M396.927 1662.242a39.421 39.421 0 0 1 4.234-1.219c1.42-.248 1.749-.825 2.712-.745s3.542-.241 3.579-.112a9.073 9.073 0 0 1-2.783 1.687 12.562 12.562 0 0 0-3.093-.284 45.276 45.276 0 0 0-4.495.95c-.264.065-.154-.277-.154-.277z" class="cls-2" data-name="Path 704"/>
        <path id="Path_705" d="M391.951 1682.246s-1.762.009-1.654.51.171.655 1.237.686a6.238 6.238 0 0 1 2.019.193c.747.22 1.523.043 1.489-.28s-.213-.448-.325-.438-.093.038.015.154.17.317-.285.363-1.631-.3-2.2-.317a7.541 7.541 0 0 1-1.44-.077c-.226-.115-.109-.274.286-.413s1.031-.154 1.008-.264a.16.16 0 0 0-.15-.117z" class="cls-6" data-name="Path 705"/>
        <path id="Path_706" d="M379.74 1672.555a40.956 40.956 0 0 1-.623-5.506c.047-1.7-.035-3.856.191-3.5s.144 3.474.394 4.756 1.481 2.325 1.236 3.333-.965 1.89-1.165 1.631a.88.88 0 0 1-.033-.714z" class="cls-2" data-name="Path 706"/>
        <path id="Path_707" d="M396.507 1683.844s-.117.689 1.125.576 2.537-.144 2.511-.687-1.016-1.194-1.39-2.8a18.861 18.861 0 0 1-.353-4.226c.02-.586-1.039-3.012-1.249-4.678a5.26 5.26 0 0 1 1.173-3.882c.661-.833.3-2.279.516-3.4s.44-2.724-.641-2.6-2.083-.482-2.172 2.6.48 19.097.48 19.097z" class="cls-2" data-name="Path 707"/>
        <path id="Path_708" d="M397.662 1673.509s1.123 1.559 2.814 3.788 2.934 4.434 4.253 5.32 1.817 1.987 2.8 2.5a7.107 7.107 0 0 0 2.442 1.069c.625-.006-1.36.7-2.166.208a42.289 42.289 0 0 1-4.379-4.3 55.619 55.619 0 0 1-3.914-5.429c-.6-1.156-1.948-2.821-2.212-3.83s0-1.056 0-1.056z" class="cls-6" data-name="Path 708"/>
        <path id="Path_709" d="M397.614 1671.856a6.23 6.23 0 0 1 1.419-3.732 58.252 58.252 0 0 1 4.909-4.059c1.3-1.106 1.988-2.591 3.607-3.563s2.8-1.45 3.514-1.107 1.065 1.06 1.178.9a6.679 6.679 0 0 0-.315-1.85c-.084-.268-.915-.433-2.469.156a16.791 16.791 0 0 0-5.171 4.109 26.333 26.333 0 0 1-4.551 3.866 5.993 5.993 0 0 0-2.584 3.378 1.87 1.87 0 0 0 .463 1.902z" class="cls-3" data-name="Path 709"/>
        <path id="Path_710" d="M401.892 1666.973c.218.368.471.453 1.051-.116s4.638-4.706 5.658-4.719 1.111.907 1.981.273.649-.773.806-1.26-.113-1.158-1.3-1.135a4.431 4.431 0 0 0-3.232 1.854 8.492 8.492 0 0 1-2.085 2.419 26.087 26.087 0 0 0-3.15 2.391c-.252.428.271.293.271.293z" class="cls-6" data-name="Path 710"/>
        <path id="Path_711" d="M412.865 1658.6a28.11 28.11 0 0 1 3.085.141c1.436.165 1.553-.834 3.372 1.277s1.939 3.24 3.614 5.013 5.692 6.375 6.063 7.519a2.963 2.963 0 0 1-.819 2.78c-.294.01.517-2.867-.479-3.862s-5.551-5.2-6.472-6.437-2.3-4.015-3.843-4.873a19.056 19.056 0 0 0-4.714-1.371z" class="cls-2" data-name="Path 711"/>
        <path id="Path_712" d="M409.2 1685.976a28.629 28.629 0 0 1 3.639-.7c1.994-.246 3.733.17 5.4-.832s1.828-1.669 1.807-1.32-.222 1-2.719 1.88-4.017.664-5.129 1.04-3.235.753-3.684.516.686-.584.686-.584z" class="cls-6" data-name="Path 712"/>
        <path id="Path_713" d="M396.687 1669.519s-.34-5.493.409-6.212 1.131-.765 1.1 0-.307 2.132-.376 3.176a13.893 13.893 0 0 1-1.213 3.917 2.889 2.889 0 0 1 .08-.881z" class="cls-2" data-name="Path 713"/>
        <path id="Path_714" d="M379.581 1681.2a11.96 11.96 0 0 1-.466-3.083 16.956 16.956 0 0 0 .466-2.758c-.07-.765-.566-3.569-.237-3.72s.585.243.562 1.263a23.585 23.585 0 0 0 0 3.639c.161.487-.366 1.02-.4 1.437s.542 3.222.31 3.222z" class="cls-2" data-name="Path 714"/>
        <path id="Path_715" d="M380.647 1661.331a4.371 4.371 0 0 0-.834 2.463c-.093 1.6-.238 1.9.124 2.99s.973 4.074 1.313 3.894.046-1.391-.186-3.083-.409-3.041.34-3.954 1.492-1.168 1.26-1.655-1.924-.655-1.924-.655z" class="cls-7" data-name="Path 715"/>
        <g id="Group_79" data-name="Group 79">
            <path id="Path_716" d="M386.194 1670.155c.953-1.784 3.668-4.567 3.852-4.987s-4.988-.893-5.67-.954-.919-.1-.919.219-.867 1.286-1.252 2.1-.035 2.94.2 4.279a5.91 5.91 0 0 1-.453 2.9s-.414 1.172-.151 1.461 3.441-3.232 4.393-5.018z" class="cls-1" data-name="Path 716"/>
            <path id="Path_717" d="M392.92 1678.582c-.014-1.391-.2-6.405-.354-7.335s.447-2.614.341-3.256a5.329 5.329 0 0 0-1.837-2.5c-.446-.071-1 .728-1.549 1.384s-2.232 3.281-3.833 5.595a15.851 15.851 0 0 1-4.087 3.864 20.925 20.925 0 0 1-.533 2.348c-.289.885.551 2.159.648 2.614s4.445.359 5.127 0 5.2-.56 5.7-.612.391-.71.377-2.102z" class="cls-1" data-name="Path 717"/>
        </g>
        <path id="Path_718" d="M388.871 1659.46s-4.052.238-3.542.675 3.269.3 5.679.877a14.943 14.943 0 0 0 5.679.319c1.762-.18 6.861-1.114 6.073-1.412s-6.513-.158-7.51-.112-6.379-.347-6.379-.347z" class="cls-2" data-name="Path 718"/>
        <path id="Path_719" d="M392.978 1660.015a27.977 27.977 0 0 1 5.378-.555c2.017.115 4.967-.151 4.95.248s-1.143.841-2.467.91-5.357.047-5.89 0a12.183 12.183 0 0 1-1.971-.603z" class="cls-2" data-name="Path 719"/>
        <path id="Path_720" d="M402.442 1660.83s-3.153.413-2.751 1.072 1.329 1.1.711 2.16-1.758 2.521-1.051 2.663 4.667-3.482 5.409-4.719 1.112-1.454.68-1.454-2.998.278-2.998.278z" class="cls-2" data-name="Path 720"/>
        <path id="Path_721" d="M398.081 1674.381s-.852.134-.32.946 3.987 5.333 3.461 6.168-2.822 1.986-1.791 2.35 5.889.543 5.416-.285-3.748-4.847-4.088-5.4-2.678-3.779-2.678-3.779z" class="cls-2" data-name="Path 721"/>
        <path id="Path_722" d="M394.67 1682.607s.062.464-1.715.194c-.792-.121-1.61.15-1.495 0s1.53-.228 1.878-.555.765-2.737 1.043-2.32a10.35 10.35 0 0 1 .289 2.681z" class="cls-6" data-name="Path 722"/>
        <path id="Path_723" d="M380.507 1682.128s-.547.181-.464-.269.176-.519.227-.912a.827.827 0 0 1 1.165-.557c.51.3.116.765 1.553 1.228a26.248 26.248 0 0 0 4.214.7c1.025.161 2.786-.511 2.81-.21s-1.157 1.211-2.62 1.182-4.057-.712-5.007-.738a5.95 5.95 0 0 1-1.878-.424z" class="cls-2" data-name="Path 723"/>
        <path id="Path_724" d="M390.931 1662.528s2.48.269 2.924.98a12.785 12.785 0 0 1 1.063 4.327c0 1.081-.525 4.686-.247 6.546s.154 6.867-.279 6.867-.741-1.7-.68-4.265.132-8.777.143-9.4a10.719 10.719 0 0 0-.931-3.289c-.293-.357-.773.371-1.475.539a6.151 6.151 0 0 1-2.959-.711c-1.051-.433-1.373-1.579-.96-1.6s3.401.006 3.401.006z" class="cls-8" data-name="Path 724"/>
        <path id="Path_725" d="M409.14 1639.093s-1.551 1.112-1.8 1.978-1.046 5.665-.709 7.406.77 2.236 1.08 3.627.154 3.43.741 3.43.773-1.452.835-4.7a51.87 51.87 0 0 1 .713-7.634 5.738 5.738 0 0 0-.86-4.107z" class="cls-8" data-name="Path 725"/>
        <path id="Path_726" d="M409.382 1657.513s-1.144-1.453-.866-2.411 1.484-1.581 1.978-2.8.31-4.087 1.021-4.183 1.416-.41 1.513.972.649 5.979.557 7.369.648 2.1-.505 2.04a10.013 10.013 0 0 0-2.555.283 11.269 11.269 0 0 1-1.143-1.27z" class="cls-8" data-name="Path 726"/>
        <path id="Path_727" d="M410.2 1658.6s1.971.431 2.249-.4-.023-3.33 0-4.234-.162-1.8-.742-1.12.01 2.951-.644 3.809-1.422.509-1.5 1.077.637.868.637.868z" class="cls-8" data-name="Path 727"/>
        <path id="Path_728" d="M412.441 1647.313s-.8.773-1.1-.741-.077-4.6-.881-4.82-3.03.1-2.952-1.05 3.57-2.333 4.312-1.77a3.517 3.517 0 0 1 1.669 2.478c.003 1.051-1.048 5.903-1.048 5.903z" class="cls-2" data-name="Path 728"/>
        <path id="Path_729" d="M410.556 1685.976a9.367 9.367 0 0 1 2.256-3.183c1.793-1.638 6.243-6.057 6.459-6.83s-3.152 2.054-4.666 3.206-5.873 5.416-5.687 6.405 1.483.4 1.483.4z" class="cls-2" data-name="Path 729"/>
        <path id="Path_730" d="M411.995 1685.4a21.635 21.635 0 0 0 3.546-2.366c2.247-1.752 8.8-8.15 10.22-9.2s1.986-1.172 2.473-.618.721 1.423.391 1.608-8.975 9.257-10.135 9.721a55.3 55.3 0 0 1-6.69 1.366c-.278-.004.195-.511.195-.511z" class="cls-2" data-name="Path 730"/>
        <path id="Path_731" d="M406.971 1650.929s-.83-5.64-.338-7.78 1.481-3.593 2.192-3.005.031 2.008.155 3.275-.278 2.658.34 3.894 1.079 1.607.354 2.658-1.1 1.47-.942 2.636-.4 2.773-.8 1.846a29.5 29.5 0 0 1-.961-3.524z" class="cls-2" data-name="Path 731"/>
        <path id="Path_732" d="M406.8 1656.666c.373.314.241 1.554 2.193 1.87s3.188-.462 3.293-4-.177-14.274-1.55-14.514-3.819.026-3.936.774 0 15.87 0 15.87z" class="cls-9" data-name="Path 732"/>
        <path id="Path_733" d="M380.034 1671.072a24.664 24.664 0 0 1-.8-4.218 12.44 12.44 0 0 1 .472-3.616c.157.078.177 1.4.548 1.06s1-1.988 1.275-1.362-.023 1.09 0 2.6.371 4.489.278 5.154-.71 3.762-1.371 3.173-.402-2.791-.402-2.791z" class="cls-2" data-name="Path 733"/>
        <g id="Group_80" data-name="Group 80">
            <path id="Path_734" d="M403.862 1645.215c-.582-3.106-2.3.093-3.162.65a34.633 34.633 0 0 0-4.887 4.49c-1.142 1.385-2.163 2.463-3.264 2.324a4.191 4.191 0 0 0-2.832.6c-.577.445-.478 3.683-.478 3.683s11.811 1.81 14.4 1.256.804-9.896.223-13.003z" class="cls-10" data-name="Path 734"/>
            <path id="Path_735" d="M390.509 1646.079a3.823 3.823 0 0 0-.356 2.366 8.807 8.807 0 0 1 .186 2.071c0 .618.1 1.638.465 1.545s.141-1.112.141-1.112a20.81 20.81 0 0 0 2.925-3.366c1.322-1.8 1.85-.86 2.563-.494s2.156-1.906 2.937-2.84a17.837 17.837 0 0 0 2.506-3.592c.169-.68.711-1.579-2.1-1.887s-4.433-.389-5.485-.657-2.651-.577-3.309-.268-1.636.166-1.268 3.158 1.161 3.947.795 5.076z" class="cls-11" data-name="Path 735"/>
        </g>
        <path id="Path_736" d="M397.916 1663.238s-1.33 1.7-.735 2 1.28-.005 1.019.922-1.387 2.332-.557 2.116 5.65-4.457 6.392-5.523 1.669-1.785.232-1.692-3.732 2.9-4.5 2.99-1.851-.813-1.851-.813z" class="cls-12" data-name="Path 736"/>
        <path id="Path_737" d="M388.891 1659.583s-1.387.044-1.535-.781-.273-2.217-.072-2.294.634.162 1.376.607 1.035-.143 1.637.335.99.063 1.407.31a5.581 5.581 0 0 0 3.214-.263c1.329-.433 2.1-1.637 2.6-1s.17.957.865 1.1-.351.028 1.3.358 3.67-.16 3.709.522-4.611.745-6.482.976-8.019.13-8.019.13z" class="cls-13" data-name="Path 737"/>
        <g id="Group_81" data-name="Group 81">
            <path id="Path_738" d="M409.532 1646.7c.584-.794 1.271 1.752 2.291 2.834s.711-.619.8-1.7-.093-3.121-.06-3.887.523-1.985.3-2.727-.918-1.174-2.1-1.327-2.294 1.512-2.294 1.512l-.544 4.389s1.024 1.706 1.607.906z" class="cls-14" data-name="Path 738"/>
            <path id="Path_739" d="M408.856 1648.477s-.324 7.552.284 8.651 3.749-1.47 3.532-2.4-3.816-6.251-3.816-6.251z" class="cls-15" data-name="Path 739"/>
        </g>
        <g id="Group_82" data-name="Group 82">
            <path id="Path_740" d="M408.473 1670.864a32.221 32.221 0 0 0-4.206-.047 30.781 30.781 0 0 0-3.989-.515c-1.393.087-.832 2.585-.832 2.585l-.112.248s7.575 8.314 8.595 8.865 1.437-.011 2.159-1.216 6.834-5.934 7.3-6.861-7.67-2.828-8.915-3.059z" class="cls-1" data-name="Path 740"/>
            <path id="Path_741" d="M419.281 1670.864c-.133-.325-5.506-7.418-6.714-7.418a26.425 26.425 0 0 0-3.427.195c-.887.13-7.218 5.647-6.765 5.647a19.3 19.3 0 0 0 2.646-.789s3.589 1.13 6.8 1.794 6.636 1.873 7.053 1.732.541-.837.407-1.161z" class="cls-1" data-name="Path 741"/>
        </g>
        <path id="Path_742" d="M411.712 1659.275a40.124 40.124 0 0 0 2.491 3.933c.958 1.2 1.676 2.27 2.194 2.8s1.735 1.057 2.32 2.1 1.945 3.373 2.347 3.312-.958-2.133-1.453-2.875-2.179-3.476-2.874-3.778-2.069-2.48-2.356-2.758-1.7-2.745-1.909-2.856-.76.122-.76.122z" class="cls-2" data-name="Path 742"/>
        <path id="Path_743" d="M415.346 1664.222s.773 1.2 1.267 1.2-1.663-3.832-1.651-4.574 1.559-.834 2.579 0 2.182 2.311 2.42 2.237-1.558-3.071-2.9-3.6a16.409 16.409 0 0 0-4.493-.781c-.561.032.121 1.929.585 2.622s2.193 2.896 2.193 2.896z" class="cls-2" data-name="Path 743"/>
        <path id="Path_744" d="M413.631 1685.072a13.346 13.346 0 0 1 1.91-.741 6.545 6.545 0 0 0 3-1.693 38.858 38.858 0 0 1 4.5-3.384c.579-.255.44.672-.672 1.484s-2.411 2.457-3.524 3.129a17.86 17.86 0 0 1-4.89 1.437c-.533-.004-.324-.232-.324-.232z" class="cls-2" data-name="Path 744"/>
        <path id="Path_745" d="M412.865 1682.082s.447.9 2.1-.247a43.773 43.773 0 0 0 4.835-3.894 39.593 39.593 0 0 1 3.832-3.091c.776-.556 3.121-.68 3.523-1.081s1.121-.966-.525-.882-3.956-.076-5.007.48a7.447 7.447 0 0 0-2.462 2.47c.113.126.69.435 0 .929s-6.296 5.316-6.296 5.316z" class="cls-2" data-name="Path 745"/>
        <path id="Path_746" d="M417.541 1666.248s-3.921-4.965-3.444-5.305 1.459 1.439 2.328 1.585 1.227-.217 1.456 1.046.308 1.912.865 2.314 1.208.587 1.516 1.514 3.552 3.377 2.842 3.914-1.3.323-1.453.1-4.11-5.168-4.11-5.168z" class="cls-2" data-name="Path 746"/>
        <path id="Path_747" d="M414.721 1660.78a4.044 4.044 0 0 1 1.947.673 8.594 8.594 0 0 1 3.129 2.943c1.46 1.924 1.483 2.342 2.9 4.149s3.639 2.913 2.3 3.311-1.947.39-2.272 0-3.7-3.758-4.438-4.683-4.6-6.439-4.544-6.81.978.417.978.417z" class="cls-9" data-name="Path 747"/>
        <path id="Path_748" d="M407.517 1662.127s-3.089 2.378-4.039 3.328-2.016 2.366-2.387 1.885.908-1.439 1.5-2.093 1.286-1.414 1.676-1.9a6.146 6.146 0 0 1 2.33-1.877 2.964 2.964 0 0 0 1.582-.819 3.786 3.786 0 0 1 1.6-1.132c.7-.2.95.1 1.112.838s-.347.719-1.136.951-2.242.718-2.242.718z" class="cls-2" data-name="Path 748"/>
        <path id="Path_749" d="M400.7 1676.8s1.518 2.164 2.938 3.987a30.838 30.838 0 0 0 3.985 4.172c.523.387.831.065 1.049-.523s1.037-1.9.519-2.433-1.4-.428-2.617-1.432a22.132 22.132 0 0 1-2.476-2.313c-.813-.859-1.173-.859-1.42-.859s-.382.792-.865-.352a3.063 3.063 0 0 0-1.36-1.717c-.4-.23-.99-1.6-1.221-.946s1.468 2.416 1.468 2.416z" class="cls-2" data-name="Path 749"/>
        <path id="Path_750" d="M380.034 1682.352a7.712 7.712 0 0 0 2.481.645c1.418.123 1.787-.22 2.683-.112s2.658.545 3.369.675 1.053.114 1.222-.149.4-.788-.45-.788a31.142 31.142 0 0 1-4.2-.16 25.637 25.637 0 0 1-3.515-.783c-.441-.154-1.242-.556-1.684-.432s.094 1.104.094 1.104z" class="cls-16" data-name="Path 750"/>
        <g id="Group_83" data-name="Group 83">
            <path id="Path_751" d="M414.239 1676.933c1.64-1.693-1.264-1.923-2.064-2.443a33.215 33.215 0 0 0-5.373-2.431c-1.466-.439-2.676-.892-3.166-1.884a5.436 5.436 0 0 0-1.862-2.179c-.581-.32-2.555 1.012-2.555 1.012s5.058 10.755 6.761 12.745 6.62-3.128 8.259-4.82z" class="cls-17" data-name="Path 751"/>
            <path id="Path_752" d="M406.7 1665.9c-.9.123-1.219.116-1.667.609a4.858 4.858 0 0 1-1.2.955c-.387.238-.97.721-.723.992s.771-.309.771-.309a18.027 18.027 0 0 0 3.639 1.194c1.818.434 1.509 1.244 1.653 1.993s2.323 1.1 3.318 1.406a13.834 13.834 0 0 0 3.562.749c.514-.117 1.362 0 .08-2.514s-2.081-3.926-2.464-4.925a9.154 9.154 0 0 0-1.568-2.921c-.538-.442-.961-1.329-2.641.138s-1.86 2.504-2.76 2.633z" class="cls-18" data-name="Path 752"/>
        </g>
        <path id="Path_753" d="M414.023 1679.77a7.2 7.2 0 0 1-2.384.306c-.8-.151-1.609-.555-2.165-.685a19.444 19.444 0 0 0-2.066-.363c-.422-.031-1.38 0-1.38 0a19.673 19.673 0 0 1 2.086.363 12.713 12.713 0 0 0 1.231.379l2.061.649 1.437.239z" class="cls-16" data-name="Path 753"/>
        <path id="Path_754" d="M406.2 1679.051s1.813.32 2.111.415 2.791.856 2.822.866 1.057.217 1.128.229l.587.1s-1.023-.021-1.027 0a.335.335 0 0 1-.232.1c-.128.01-3.1-1.165-3.377-1.182s-2.012-.528-2.012-.528z" class="cls-19" data-name="Path 754"/>
        <path id="Path_755" d="M421.467 1670.632c-1.833-1.52-4.134-3.961-4.6-4.233s.446.477 1.289 1.425a6.34 6.34 0 0 1 2.148 3.951c.119 1.448-.806 2.175-1.864 3.063l-.083-.1-.251-.537s.266-.545.158-.7a2.079 2.079 0 0 0-1.207-.622c-.7-.148-2.5-.726-2.5-.726l3 1.189.24.628s-.435.881-.134 1.021c.137.063.15.243.122.42a8.923 8.923 0 0 0-.516.514 34.485 34.485 0 0 1-3.054 2.805c-.964.9-1.4.757-2.069 1.2s-1.854 3.214-3.1 4.628c-.743.841-1.249.978-1.537.951a1.918 1.918 0 0 1 .177.263 4.728 4.728 0 0 0 1.935.567c.451-.171 0-1.2 1.381-2.934s6.639-5.986 8.7-8.356a7.12 7.12 0 0 1 4.657-2.584c.441-.083-1.059-.314-2.892-1.833z" class="cls-20" data-name="Path 755"/>
        <path id="Path_756" d="M425.893 1671.969c-.046-.039-.435-.563-.649-.827-.178-.22-1.155-1.1-1.479-1.4l-.032.033c.171.225.582.766.607.784s1.475 1.59 1.475 1.59l.48.116s-.356-.258-.402-.296z" class="cls-19" data-name="Path 756"/>
        <path id="Path_757" d="M428.744 1672.439a7.27 7.27 0 0 0-1.93-.28 58.26 58.26 0 0 0-1.161-.971c-.278-.216-2.117-1.9-1.946-1.544a21.938 21.938 0 0 0 1.617 1.609c.25.294.579.629.813.86a32.188 32.188 0 0 0-3.327-.067c-1.206.092-6.523 5.284-7.04 5.794s0 .7 0 .7-.03 1.2 1.732-.209 4.195-4.1 5.215-4.636 1.252-.9 2.6-.672c.919.159 1.8.121 2.358.193a13 13 0 0 1-1.32 1.537c-.581.518-1.579 1.43-1.579 1.43s1.434-.772 1.743-1c.233-.175 1.18-1.287 1.632-1.823a.359.359 0 0 1 .068.06c.3.349-.167 1.369.135 1.206s.668-1.931.39-2.187z" class="cls-21" data-name="Path 757"/>
        <path id="Path_758" d="M379.7 1661.928s.482-1.191 1.188-1.31a3.314 3.314 0 0 1 1.713.07c.116.139-1.233.127-1.451.232s-.971 1.726-1.226 1.75-.224-.742-.224-.742z" class="cls-22" data-name="Path 758"/>
        <path id="Path_759" d="M378.69 1665.486s-.151-3.355.226-3.875 1.044-1.051 1.43-.875-.093.918-.4 1.335a9.044 9.044 0 0 0-.958 2.673 10.11 10.11 0 0 1-.2 1.839 5.46 5.46 0 0 1-.098-1.097z" class="cls-23" data-name="Path 759"/>
        <path id="Path_760" d="M380.156 1659.79a2.143 2.143 0 0 0-.859.912c-.2.542-.462.644-.182.662s2.213-.8 2.707-.842a27.383 27.383 0 0 1 3.145.465c.3.052 2.341.381 2.518.435s-.441-1.237-.441-1.368 2.785.238 1.971-.154a5.424 5.424 0 0 0-2.318-.9c-.742.046-4.033.371-4.7.464s-1.841.326-1.841.326z" class="cls-23" data-name="Path 760"/>
        <path id="Path_761" d="M388.242 1679.665s-1.2 1.459-.552 1.583 2.632-.361 3.447-.258 1.926.732 2.236 0-.124-2.277-.155-3.822.364-4.358-.158-4.481-.84 1.421-.851 2.225a29.916 29.916 0 0 1 0 4.1c-.2.131-1.123-.186-1.587.25s-2.38.403-2.38.403z" class="cls-23" data-name="Path 761"/>
        <path id="Path_762" d="M408.669 1678.41a16.121 16.121 0 0 0 2.874.855c.651.005 4.967-3.674 5.262-4.322s.841-.791.541-.952-3.6-1.922-3.432-1.6 1.19.912 1.048 1.407-2.691 4.079-3.533 4.265-4.091-1.028-4.212-.669 1.452 1.016 1.452 1.016z" class="cls-8" data-name="Path 762"/>
        <path id="Path_763" d="M403.448 1665.888s.576.34 1.432-.464a29.515 29.515 0 0 1 3.381-2.6c.9-.579 1.65-.6 1.783-.9s.327-.851-.512-.866-2.18 1.195-2.9 1.765-3.184 3.065-3.184 3.065z" class="cls-2" data-name="Path 763"/>
        <path id="Path_764" d="M398.081 1671.188s-.235-.649.785-2.063a8.777 8.777 0 0 1 2.158-2.164c.23-.177 1.685-1.626 1.818-1.3s-.666 1.278-1.289 1.689a8.278 8.278 0 0 0-1.783 1.57c-.417.533-.579 3.578-1.229 3.411s-.46-1.143-.46-1.143z" class="cls-16" data-name="Path 764"/>
        <path id="Path_765" d="M382.274 1673.518s.163 1.019.858 0a21.868 21.868 0 0 1 3.291-3.547c.267-.045-.256 1.067-.782 1.784s-3.894 4.394-3.969 3.958a25.067 25.067 0 0 1 .324-3.3c.07-.425-.129-2.792.179-2.8s.484.7.489 1.444a16.342 16.342 0 0 1-.39 2.461z" class="cls-8" data-name="Path 765"/>
        <g id="Group_84" data-name="Group 84">
            <path id="Path_766" d="M394.064 1669.241c-.539-3.107-2.129.093-2.927.649a33.18 33.18 0 0 0-4.524 4.491c-1.058 1.385-2 2.462-3.022 2.324a3.649 3.649 0 0 0-2.621.6c-.535.446-.443 3.683-.443 3.683s10.933 1.811 13.328 1.256.745-9.896.209-13.003z" class="cls-24" data-name="Path 766"/>
            <path id="Path_767" d="M381.7 1670.1a4.09 4.09 0 0 0-.329 2.366 9.548 9.548 0 0 1 .171 2.07c0 .618.1 1.638.431 1.545s.131-1.112.131-1.112a20.4 20.4 0 0 0 2.707-3.365c1.224-1.8 1.713-.861 2.373-.494s1.995-1.906 2.719-2.841a17.957 17.957 0 0 0 2.319-3.592c.157-.679.659-1.579-1.943-1.886a48.613 48.613 0 0 1-5.078-.658c-.974-.268-2.454-.577-3.064-.268s-1.514.166-1.173 3.158 1.078 3.952.736 5.077z" class="cls-25" data-name="Path 767"/>
        </g>
        <path id="Path_768" d="M391.626 1684.354c-.046.015-.477-.139-.177-.294a13.805 13.805 0 0 1 2.279 0c.726-.031 1.36-.069 1.453-.421a10.249 10.249 0 0 0 .139-2.3c-.062-.663-.263-2.7-.047-2.811s.572.773.618 1.468.247 2.72.309 3.2.691 1.353-.118 1.472a16.135 16.135 0 0 1-2.6-.177c-.465.002-1.856-.137-1.856-.137z" class="cls-21" data-name="Path 768"/>
        <path id="Path_769" d="M387.508 1647.615c-.464-.394-.533-2.017-.672-3.2a12.227 12.227 0 0 1 .3-4.518c.421-1.091.449-1.627 1.443-1.765s2.524-.62 2.06.131-1.733.635-2.06 1.447a13.023 13.023 0 0 0-.887 4.011c-.019 1.413.5 4.219.282 4.284s-.466-.39-.466-.39z" class="cls-16" data-name="Path 769"/>
        <path id="Path_770" d="M387.493 1645.37a8.874 8.874 0 0 1 .5 3.172c-.116 1.483-.366 4.826-.727 4.777s-.251-1.261-.3-1.941.091-4.785 0-5.66-.144-2.145.161-1.766a3.381 3.381 0 0 1 .366 1.418z" class="cls-16" data-name="Path 770"/>
        <path id="Path_771" d="M388.12 1644.64a5.08 5.08 0 0 0 .74-2.426c-.077-.927-.22-1.375.006-1.9s.445-1 .923-.569-.094 1.308.323 1.372.48-.34.611.433a12.128 12.128 0 0 1-.934 4.342 14.945 14.945 0 0 0-.975 3.431c-.093.772-.466 3.012-.8 1.328a31.231 31.231 0 0 1 .106-6.011z" class="cls-16" data-name="Path 771"/>
        <path id="Path_772" d="M388.435 1659.275a5.815 5.815 0 0 1-.87-2.743c.129-1.083-.4-1.616-.019-2.056s1.081.624 1.194 1.638.2 1.816 1.049 2.3 4.577.374 4.2.859-5.554.002-5.554.002z" class="cls-16" data-name="Path 772"/>
        <path id="Path_773" d="M383.143 1675.186a16.575 16.575 0 0 1-2.173 1.1l-.48.25c-.078-.5-.322-1.076-.387-1.6-.1-.836.8-1.483 1.4-3.088s-1.394-6.522-1.34-7.609.614-2.372.076-2.764-1.088 1.317-1.323 1.812a44.58 44.58 0 0 0-.166 7.118c.124 1.277.37 2.714.558 3.982s-.324 2.559-.528 3.951a8.4 8.4 0 0 0 .69 3.493s.176.087.546-.078-.34-2.086-.473-2.82 3.317-3.207 3.6-3.423a6.717 6.717 0 0 0 .824-1.063s-.427.396-.824.739z" class="cls-16" data-name="Path 773"/>
        <path id="Path_774" d="M392.283 1671.883l1.345-.788s.845-.962.88-.985.825-.51.825-.51l-.028-.418s-1.724 1.507-2.164 1.844a5.886 5.886 0 0 0-.858.857z" class="cls-19" data-name="Path 774"/>
        <path id="Path_775" d="M404.066 1640.731s-6.725 4.112-6.583 4.91-.031 1.363-.387 1.549-4.106 2.5-3.085 2.472 9.946-4.677 10.3-4.7.587-2.685.5-3.369a1.08 1.08 0 0 0-.745-.862z" class="cls-1" data-name="Path 775"/>
        <path id="Path_776" d="M398.495 1661.592a19.741 19.741 0 0 0-4.8-.36c-.243.209 2.3.394 2.9.557.245.066.342.145.371.216-.325.071-.661.158-.934.237-.866.248-2.61-.294-2.076.277a5.244 5.244 0 0 1 1.181 2.514c.291 1.165.724 2.832.193 3.111-.3.356-.878 1.175-1.261 1.607a5.21 5.21 0 0 0-.834 1.174c0 .022.032 0 .1-.06.206-.184.7-.7 1.033-.959.351-.277.673-.518.847-.651l.1-.073c.083 1.455.4 4.068.308 4.865-.116 1.02-.263 1.854-.3 3.05s.347 4.189.277 5.62a2.121 2.121 0 0 1-.835 1.845s1.858.178 2.623.145.163-.307-.392-.863-.134-1.762.161-3.289-.434-2.264-.364-3.006a2.932 2.932 0 0 0-.189-2.114c-.482-1.084-.1-5.128-.2-7.311a17.888 17.888 0 0 1 .107-4.059c.168-.989 1.471-1.608 1.673-2.009a.139.139 0 0 0 .017-.079c.112-.072.366-.249.294-.385z" class="cls-26" data-name="Path 776"/>
        <path id="Path_777" d="M392.283 1660.015s1.138 1 3.663.537a26.279 26.279 0 0 1 6.232-.142c1.231.046 2.557.169 3.262.142s1.5-.275 1.313-.537a2.029 2.029 0 0 0-1.582-.413c-.464.136-12.888.413-12.888.413z" class="cls-27" data-name="Path 777"/>
        <path id="Path_778" d="M397.028 1674.711c-.039.093 2.047 1.336 2.58 2.712s-.186 2 0 3.013 1.747 2.88 1.043 3.245a8.886 8.886 0 0 1-3.254.752c-.756-.056-.78-1.61-.8-2.433s.008-5.958-.106-6.924-.288-3.03.106-2.59a5.549 5.549 0 0 1 .431 2.225z" class="cls-2" data-name="Path 778"/>
        <path id="Path_779" d="M396.594 1684.162a28.672 28.672 0 0 1 0-3.03c.093-1.507.015-3.557.587-2.613s.178 2.335.665 3.262.858 1.344 1.229 1.391 3.94-.629 3.871-.141-.812.452-1.855.7a44.019 44.019 0 0 1-4.497.431z" class="cls-28" data-name="Path 779"/>
        <path id="Path_780" d="M420.09 1675.076s-1.868 1.242-1.459 1.474 1.428-.819 1.861-1.174.556.349 1.19-.049.819-1.113 1.777-1.336.912.3 1.607.071.309-.618.711-.7 1.39-.251 1.128-.489a9.723 9.723 0 0 0-2.89-.253c-.819 0-1.406-.2-2.148.371a3.869 3.869 0 0 0-1.406 1.669.45.45 0 0 1-.371.416z" class="cls-6" data-name="Path 780"/>
        <path id="Path_781" d="M415.41 1679.9s-4.343 3.6-4.568 4.588-1.244 1.455-.286 1.486a3.251 3.251 0 0 0 2.442-.857c.314-.492.282-1.275 1.1-1.77a10.963 10.963 0 0 0 2.963-2.359c.603-.888-1.651-1.088-1.651-1.088z" class="cls-2" data-name="Path 781"/>
        <path id="Path_782" d="M414.242 1662.8s-1.778.2-2.9.2a6.076 6.076 0 0 0-2.3.44c.208 0 3.1-.086 3.823-.162a6.461 6.461 0 0 1 2.228.614z" class="cls-2" data-name="Path 782"/>
        <path id="Path_783" d="M389.463 1661.87c-.417-.185-4.929-.958-5.81-1.113s-2.447-.295-2.447-.295c-.3-.013-1.047.182-.838.4s1.795.065 2.339.373a6.973 6.973 0 0 0 1.66.636 9.738 9.738 0 0 0-1.425 1.234 3.539 3.539 0 0 1-.572.649s2.04-.965 2.225-1.085c.12-.077.668-.44 1.043-.689.9 0 2.187-.055 2.821-.018.855.05 1.421.094 1.004-.092z" class="cls-2" data-name="Path 783"/>
        <path id="Path_784" d="M407.78 1654.759c.14-2.267.454-5.108 0-5.72s-.608-.5-.762-2.574-.06-4.191.543-4.758 2.285-1.137 2.1-2.308-1.17-1.059-1.753-1.127a1.425 1.425 0 0 0-1.025.332 13.479 13.479 0 0 0-.363 3.746 11.054 11.054 0 0 1 .025 1.156 15.19 15.19 0 0 1-1.875 1.439c-.557.282-2.519 1.117-2.133 1.117s2.9-1.1 2.986-1.1a9.942 9.942 0 0 0 .955-.428c-.084.869-.218 1.663-.267 2.414a22.022 22.022 0 0 0 .336 4.878 14.677 14.677 0 0 1 .336 4.288c-.158 1.21-.387 3.887.284 3.8s2.349-.412 2.291-1.414-1.818-1.473-1.678-3.741z" class="cls-29" data-name="Path 784"/>
        <path id="Path_785" d="M393.762 1659.766c-1.827.018-5.627-.1-6.045-.782s-.293-2.862-.294-3.311a1.6 1.6 0 0 0-.231-.834 5.706 5.706 0 0 1-.093-.258 2.238 2.238 0 0 1 .479-.207c.035.025 1.274-.721 1.735-.953s1.811-1.077 1.811-1.077l-.776.3a11.262 11.262 0 0 1-1.994.73 4.409 4.409 0 0 0-1.457.661c-.076-.172-.151-.288-.216-.254-.154.083 0 .47 0 .47a3.231 3.231 0 0 1 .325 1.592c-.151.564-.278 2.765.247 3.229.541.464.6.716 3.407 1.035a21.844 21.844 0 0 0 5.871-.3s-.942-.059-2.769-.041z" class="cls-30" data-name="Path 785"/>
        <path id="Path_786" d="M406.753 1637.81a14.29 14.29 0 0 1-2.092.323 4.015 4.015 0 0 1-2.286-.694c-.939-.489-1.121-.255-2.466 0s-3.013.433-3.013.433a2.4 2.4 0 0 0-.68.075c-.064.052.129.224.6.331a4.222 4.222 0 0 1-.609.518c-.313.235-.591.621-.467.652a15.659 15.659 0 0 0 1.974-1.081c1.07 0 3.015-.234 3.99-.234 1.005 0 2.535.573 3.554.654s1.33-.452 2.057-.434a2.663 2.663 0 0 0 1.529-.22c.213-.201-1.734-.323-2.091-.323z" class="cls-31" data-name="Path 786"/>
        <path id="Path_787" d="M395.833 1659.275c-.189-.024-1.178-.185-.915-.348a9.386 9.386 0 0 1 2.72-.6c.6.043 2.236-.317 2.693-.288s2.159-.5 2.526-.526 1.494-.488 1.684-.117-.737.4-1.155.8a1.969 1.969 0 0 1-1.6.584c-.509-.113-.88-.742-1.761-.184s-4.192.679-4.192.679z" class="cls-16" data-name="Path 787"/>
        <path id="Path_788" d="M402.352 1666.961a2.072 2.072 0 0 0 .818.476c.485.139 1.668.876 2.225 1.131s1.807.655 1.581.614-1.553-.251-1.955-.358-3.675-1.176-3.814-1.268-.093-.417-.093-.417z" class="cls-21" data-name="Path 788"/>
        <path id="Path_789" d="M401.207 1667.556s2.358.8 2.848 1.012a12.408 12.408 0 0 0 2.066.617 6.589 6.589 0 0 1 .855 0 8.392 8.392 0 0 1-1.18.26c-.262 0-2.193-.6-2.193-.6l-2.05-.766-.721-.439z" class="cls-19" data-name="Path 789"/>
        <path id="Path_790" d="M399.407 1685.451c-1.29.062-3.505.554-4.074 1.111s-.6 1.052.927 1.392 4.875-.16 5.109-.61c.75-1.437-.669-1.955-1.962-1.893z" class="cls-2" data-name="Path 790"/>
        <path id="Path_791" d="M396.35 1687.824c-.231-.121-.74-.457-.48-.48a9.049 9.049 0 0 0 2.44 0 14.152 14.152 0 0 0 2.781-.661c.174-.127.5.127.414.345s-.069.442-2.171.8a6.161 6.161 0 0 1-2.984-.004z" class="cls-2" data-name="Path 791"/>
        <path id="Path_792" d="M396.733 1686.162c-.046 0-1.089.3-1.1.594s.359.426.55.426 1.976-.881 1.663-1.02a2.847 2.847 0 0 0-1.113 0z" class="cls-32" data-name="Path 792"/>
        <path id="Path_793" d="M399.75 1687.751c-.112-.083-.3-.253-.057-.315s1.375-.355 1.406-.633-.394-.842-.155-.765.851.371.561.943-1.755.77-1.755.77z" class="cls-2" data-name="Path 793"/>
        <path id="Path_794" d="M380.185 1682.432s-3.656.02-3.656.453 4.134 1.148 4 1.826-4.23.861-2 1.851 12.845-1.034 13.535-1.443-.54-.495-.616-.686-7.183-1.4-7.776-1.443-3.487-.558-3.487-.558z" class="cls-16" data-name="Path 794"/>
        <path id="Path_795" d="M378.086 1682.731s-.44.081-.1.267a29.184 29.184 0 0 1 2.909 1.112c.208.255.092.406.208.394s.174-.289.116-.382a3.5 3.5 0 0 0-1.356-.916c-.711-.243-1.777-.475-1.777-.475z" class="cls-33" data-name="Path 795"/>
        <path id="Path_796" d="M378.538 1686.208a9.908 9.908 0 0 0 3.57 0 47.221 47.221 0 0 0 5.761-1.083 16.711 16.711 0 0 1 2.622-.688c.355.056 2.779.012 2.177.347a46.975 46.975 0 0 1-10.352 1.972c-3.222.056-3.778-.548-3.778-.548z" class="cls-16" data-name="Path 796"/>
        <path id="Path_797" d="M379.7 1685.8c-.023.016-.371.271-.046.325a8.526 8.526 0 0 0 2.279-.216c-.108-.108-1.53-.181-1.453-.311s.282-.331.044-.331-.824.533-.824.533z" class="cls-34" data-name="Path 797"/>
        <path id="Path_798" d="M380.207 1682.638s-.3.342.8.65 3.767.849 4.643 1.065 1.819 1.005 2.452 1.083a10.013 10.013 0 0 0 3.241-.317c.529-.271.674-.441.533-.487a18.45 18.45 0 0 0-1.865-.47c-.024.053-5.934-.874-5.934-.874z" class="cls-35" data-name="Path 798"/>
        <g id="Group_85" data-name="Group 85">
            <path id="Path_799" d="M403.7 1687.152a3.547 3.547 0 0 0-2.275 1.112c-.318.557-.337 1.052.519 1.392s2.721-.16 2.852-.611c.419-1.437-.374-1.955-1.096-1.893z" class="cls-2" data-name="Path 799"/>
            <path id="Path_800" d="M401.995 1689.526c-.129-.121-.414-.457-.268-.481a2.838 2.838 0 0 0 1.362 0 5.356 5.356 0 0 0 1.553-.66c.1-.127.279.126.231.344s-.039.442-1.213.8-1.665-.003-1.665-.003z" class="cls-2" data-name="Path 800"/>
            <path id="Path_801" d="M403.893 1689.452c-.062-.082-.17-.252-.032-.314s.768-.355.785-.633-.22-.842-.086-.765a.787.787 0 0 1 .313.942c-.162.572-.98.77-.98.77z" class="cls-2" data-name="Path 801"/>
            <path id="Path_802" d="M402.206 1687.872c-.026 0-.608.3-.615.594a.379.379 0 0 0 .308.425c.107 0 1.1-.88.928-1.019s-.621 0-.621 0z" class="cls-36" data-name="Path 802"/>
        </g>
        <g id="Group_86" class="cls-37" data-name="Group 86">
            <path id="Path_803" d="M400.465 1671.057a3.549 3.549 0 0 0 .117 2.529c.386.513.832.727 1.483.077s.934-2.561.572-2.86c-1.153-.955-1.943-.432-2.172.254z" class="cls-2" data-name="Path 803"/>
            <path id="Path_804" d="M401.966 1673.566c-.162.07-.584.2-.547.055a2.854 2.854 0 0 0 .54-1.25 5.306 5.306 0 0 0 .01-1.688c-.078-.14.228-.207.408-.075s.391.211.25 1.428-.661 1.53-.661 1.53z" class="cls-2" data-name="Path 804"/>
            <path id="Path_805" d="M402.652 1671.794c-.1.024-.3.056-.3-.095s-.021-.846-.27-.972-.86-.133-.736-.225a.786.786 0 0 1 .989.087c.465.376.317 1.205.317 1.205z" class="cls-2" data-name="Path 805"/>
            <path id="Path_806" d="M400.531 1672.715c-.01.024.031.676.3.8a.38.38 0 0 0 .513-.113c.042-.1-.371-1.362-.568-1.257s-.245.57-.245.57z" class="cls-38" data-name="Path 806"/>
        </g>
        <g id="Group_87" data-name="Group 87">
            <path id="Path_807" d="M391.981 1662.215a2.3 2.3 0 0 0 .406 1.883c.427.421.877.626 1.421.216s.59-1.795.212-2.054c-1.209-.829-1.901-.527-2.039-.045z" class="cls-2" data-name="Path 807"/>
            <path id="Path_808" d="M393.7 1664.231c-.146.035-.532.084-.514-.018a1.387 1.387 0 0 0 .369-.866 3.274 3.274 0 0 0-.187-1.247c-.092-.112.192-.129.379-.012s.4.2.4 1.083-.447 1.06-.447 1.06z" class="cls-2" data-name="Path 808"/>
            <path id="Path_809" d="M394.149 1662.995c-.093.007-.278.009-.3-.1s-.119-.628-.37-.748-.835-.19-.727-.245a.962.962 0 0 1 .952.17 1.106 1.106 0 0 1 .445.923z" class="cls-2" data-name="Path 809"/>
            <path id="Path_810" d="M392.238 1663.448c-.007.017.108.5.38.625s.446.038.475-.03-.512-1.046-.687-.99-.168.395-.168.395z" class="cls-39" data-name="Path 810"/>
        </g>
        <g id="Group_88" data-name="Group 88">
            <path id="Path_811" d="M387.193 1654.459a2.29 2.29 0 0 0 1.088 1.59c.553.228 1.048.249 1.4-.337s-.132-1.884-.581-1.982c-1.435-.311-1.961.23-1.907.729z" class="cls-2" data-name="Path 811"/>
            <path id="Path_812" d="M389.548 1655.675c-.122.088-.461.279-.483.178a1.384 1.384 0 0 0 .014-.941 3.248 3.248 0 0 0-.644-1.084c-.126-.069.13-.192.347-.155s.442.034.784.851-.018 1.151-.018 1.151z" class="cls-2" data-name="Path 812"/>
            <path id="Path_813" d="M389.495 1654.362c-.083.041-.254.113-.315.017s-.347-.536-.625-.552-.844.139-.766.047a.966.966 0 0 1 .946-.2 1.106 1.106 0 0 1 .76.688z" class="cls-2" data-name="Path 813"/>
            <path id="Path_814" d="M387.9 1655.5c0 .018.29.425.588.434s.428-.132.429-.206-.869-.776-1.01-.658-.007.43-.007.43z" class="cls-40" data-name="Path 814"/>
        </g>
        <path id="Path_815" d="M400.832 1670.6a5.521 5.521 0 0 1 .584-1.154c.417-.641.651-.922.394-1.145a1.152 1.152 0 0 1-.482-1.188c.162-.566.546-.83.85-.566s1.149 1.119 1.425 1.359.185 1.074-.155 1.693-.826 2.715-.821 2.441c.046-2.351-1.795-1.44-1.795-1.44z" class="cls-2" data-name="Path 815"/>
        <path id="Path_816" d="M409.765 1686.376c.28.22 1.881.158 1.418.827s-3.214 1.5-.667 1.98 12.014-1.238 12.394-3-3.612-1.985-3.612-1.985a11.223 11.223 0 0 1-3.893 1.233c-2.567.407-5.64.945-5.64.945z" class="cls-16" data-name="Path 816"/>
        <path id="Path_817" d="M413.043 1685.718a35.752 35.752 0 0 0 4.12-.805c1.22-.4 2.067-1.267 2.269-.9s-1.235 1.061-1.142 1.293 2.317-.046 2.1.324-2.609.7-2.1.886 1.431.505.194.876-6.476.909-5.919.327 2.016-1.1 1.321-1.155-1.93-.145-1.892-.308 1.049-.538 1.049-.538z" class="cls-16" data-name="Path 817"/>
    </g>
</svg>
