<?xml version="1.0" encoding="utf-8"?>
<!-- Generator: Adobe Illustrator 22.0.1, SVG Export Plug-In . SVG Version: 6.00 Build 0)  -->
<svg version="1.1" id="Layer_1" xmlns="http://www.w3.org/2000/svg" xmlns:xlink="http://www.w3.org/1999/xlink" x="0px" y="0px"
	 viewBox="0 0 30 30" style="enable-background:new 0 0 30 30;" xml:space="preserve">
<style type="text/css">
	.st0{fill:#2D191A;}
</style>
<g>
	<path class="st0" d="M25,20.9c0.6,0.3,0.9,0.8,1,1.4c0.1,0.7,0.3,1.3,0.8,1.8c0.1,0.1,0.1,0.1,0.2,0.2c0.6,0.9,0.5,1.6-0.5,2.2
		c-0.4,0.3-0.9,0.5-1.3,0.7c-0.7,0.3-1.3,0.8-1.8,1.3c-0.6,0.7-1.4,1.3-2.4,1.4c-1.2,0.2-2.2-0.3-2.7-1.4c-0.1-0.2-0.2-0.3-0.5-0.3
		c-0.6,0-1.2-0.1-1.9-0.2c-1.1-0.2-2.1,0.1-3.2,0.3c-0.4,0.1-0.7,0.2-1,0.6c-0.5,0.7-1.4,0.9-2.2,0.8c-0.7-0.1-1.4-0.3-2-0.5
		c-0.9-0.4-1.8-0.6-2.8-0.7c-0.4,0-0.7-0.1-1.1-0.2c-1-0.2-1.4-0.8-1.2-1.8c0.2-0.8,0.2-1.5,0.1-2.3c-0.1-1.1,0.2-1.7,1.3-2
		c0.9-0.3,1.2-1,1.8-1.6c0,0,0-0.2,0-0.2c-0.2-1.5,0.3-2.9,0.9-4.3c0.7-1.5,1.7-2.8,2.7-4.1c1.1-1.4,1.6-3,1.5-4.8
		c-0.1-1.3-0.2-2.7,0.1-4c0.4-1.7,1.6-2.8,3.4-3c0.8-0.1,1.6-0.1,2.3,0c1.7,0.3,2.5,1.6,2.9,3.2c0.3,1.3,0.3,2.6,0.3,3.8
		c-0.1,1.2,0.2,2.4,1,3.4c0.5,0.7,1.1,1.4,1.6,2.1c0.6,0.9,1.3,1.9,1.8,2.9C25.3,17.2,25.6,18.8,25,20.9z M11.3,24.6
		c0.4,0.7,0.9,1.3,1.8,1.6c1.8,0.6,3.5,0.3,5.1-0.7c0.2-0.1,0.4-0.3,0.4-0.5c0.2-0.9,0.3-1.9,0.4-2.8c0.1-0.9,0.3-1.8,1.2-2.2
		c0.1,0,0.1-0.2,0.1-0.3c0.2-0.5,0.4-0.8,1-0.7c1.1,0.2,2.2,0.4,2.6,1.8c0.2-0.4,0.1-0.7-0.1-0.9c-0.3-0.3-0.6-0.5-0.9-0.7
		c-0.4-0.2-0.6-0.4-0.6-0.9c0.1-1.8-0.7-3.3-2-4.6c0,0-0.1,0-0.1-0.1c1.3,1.5,2.1,3.1,1.5,5.1c-0.7,0-0.7,0-0.7-0.3
		c-0.2-1.2-0.7-2.3-1.3-3.4c-0.4-0.9-0.8-1.8-1.2-2.8c-0.3-0.8-0.6-1.7-0.9-2.5c-0.3,0.2-0.6,0.4-0.9,0.6c-0.4,0.2-0.8,0.4-1.2,0.6
		c-1,0.6-1.8,0.5-2.7-0.3c-0.2-0.2-0.5-0.4-0.8-0.6c-0.1,1.6-0.7,2.9-1.3,4.3c-0.3,0.6-0.5,1.2-0.8,1.8c-0.5,1.1-0.8,2.3-0.9,3.7
		c-0.5-0.7-0.6-1.4-0.6-2.1c0.1-0.9,0.4-1.8,0.8-2.6c0.2-0.3,0.3-0.6,0.5-1c0,0-0.1,0-0.1,0C9,15,8.4,16.1,8.2,17.4
		C7.8,19,8.4,20.1,9.8,21c0.9,0.5,1.7,1.2,2.2,2.2C12.5,24,12.2,24.5,11.3,24.6z M9.4,28.7c0.8-0.1,1.4-0.2,1.8-0.8
		c0.3-0.6,0.2-1.2-0.1-1.8c-0.2-0.4-0.5-0.7-0.7-1c-0.4-0.7-0.9-1.3-1.3-2c-0.3-0.5-0.6-1-0.9-1.5c-0.5-0.7-1.4-1-2.1,0.1
		c-0.4,0.6-0.9,0.9-1.5,1.1c-0.7,0.2-0.9,0.6-0.8,1.3c0,0.5,0.1,1.1,0,1.6c-0.3,1.2-0.1,1.6,1.1,1.7C5.9,27.6,7,27.8,8,28.3
		C8.5,28.6,9.1,28.6,9.4,28.7z M20.7,21c-0.2,0.2-0.4,0.4-0.5,0.6c-0.1,0.3-0.3,0.7-0.3,1.1c-0.1,1.2-0.2,2.3-0.6,3.4
		c-0.1,0.2-0.1,0.5-0.2,0.7c-0.1,0.7-0.1,1.4,0.5,1.9c0.6,0.5,1.3,0.5,2,0.2c0.5-0.2,1-0.5,1.3-0.9c0.6-0.7,1.4-1.2,2.2-1.6
		c0.3-0.1,0.6-0.3,0.9-0.5c0.3-0.2,0.4-0.5,0.2-0.9c-0.1-0.2-0.3-0.5-0.4-0.7c-0.3-0.4-0.5-0.8-0.6-1.2c-0.1-0.3-0.1-0.6-0.2-0.8
		c-0.3-0.6-1.1-0.8-1.6-0.4c-0.3,0.3-0.8,0.5-1.2,0.6c-0.5,0.2-1,0-1.2-0.5C20.9,21.7,20.8,21.3,20.7,21z M14.4,10.5
		c0.2,0,0.4-0.1,0.7-0.2c0.6-0.3,1.2-0.6,1.8-0.9c0.1-0.1,0.2-0.1,0.3-0.2c0.6-0.6,0.5-1.2-0.2-1.6c-0.6-0.2-1.1-0.5-1.7-0.8
		c-0.7-0.3-1.4-0.4-2.1,0.2c-0.4,0.3-0.8,0.7-1.3,1c-0.2,0.2-0.3,0.5-0.2,0.8c0.2,0.5,1.8,1.6,2.3,1.7
		C14.1,10.5,14.2,10.5,14.4,10.5z M16.6,7.1c0.1,0.1,0.3,0.1,0.4,0.2c0.3,0.2,0.6,0.1,0.6-0.3c0.1-0.5,0.2-1,0.1-1.5
		c-0.1-0.8-0.7-1.4-1.4-1.4c-0.8,0-1.4,0.6-1.5,1.5c-0.1,0.7-0.1,0.7,0.6,0.9c0.1-0.3,0.1-0.6,0.2-0.9c0.1-0.2,0.3-0.4,0.5-0.4
		c0.2,0,0.4,0.2,0.5,0.4C16.9,6.1,16.8,6.6,16.6,7.1z M21.3,20.5c0,0.4,0.1,0.8,0.5,1c0.4,0.2,0.8,0,1.1-0.3
		c0.1-0.1,0.2-0.1,0.2-0.2c0.2-0.3,0.2-0.6-0.1-0.8c-0.3-0.2-0.6-0.4-0.9-0.5C21.6,19.5,21.2,19.8,21.3,20.5z M13.2,6.6
		c0.2-0.2,0.5-0.3,0.5-0.4c0.1-0.6-0.1-1.2-0.5-1.6c-0.4-0.4-0.9-0.3-1.2,0.1c-0.6,0.7-0.5,2,0.2,2.7c0.1-0.1,0.2-0.2,0.4-0.3
		c-0.3-0.4-0.4-0.8-0.3-1.2c0-0.2,0.2-0.3,0.4-0.5c0.1,0.1,0.3,0.2,0.4,0.4C13.1,6.1,13.1,6.3,13.2,6.6z"/>
	<path class="st0" d="M12.8,10.7c0.1,0.1,0.2,0.1,0.2,0.2c0.8,0.7,1.4,0.8,2.4,0.3c0.3-0.1,0.5-0.3,0.8-0.5c0.1-0.1,0.2-0.1,0.3-0.1
		c-0.8,0.4-1.5,1.1-2.4,1C13.5,11.6,13.1,11.2,12.8,10.7C12.7,10.8,12.8,10.7,12.8,10.7z"/>
</g>
</svg>
