<?xml version="1.0" encoding="utf-8"?>
<!-- Generator: Adobe Illustrator 22.0.1, SVG Export Plug-In . SVG Version: 6.00 Build 0)  -->
<svg version="1.1" id="Layer_1" xmlns="http://www.w3.org/2000/svg" xmlns:xlink="http://www.w3.org/1999/xlink" x="0px" y="0px"
	 viewBox="0 0 30 30" style="enable-background:new 0 0 30 30;" xml:space="preserve">
<style type="text/css">
	.st0{fill:#2D191A;}
</style>
<g>
	<path class="st0" d="M23.2,16.8c-0.8-4.2,3.1-6.6,3.1-6.6S24.8,8,22.2,7.4c-2.6-0.6-3.9,0.1-5.2,0.7c-1.3,0.5-1.9,0.5-1.9,0.5
		c-1.9,0-3.2-2-6.8-1.1c-2.4,0.6-5,3.4-5.5,6.8c-0.5,3.4,0.5,7.7,2.5,11c1.9,3.3,3.9,4.6,5.3,4.6s2.8-1,4.5-1.3
		c1.7-0.2,2.7,0.6,4.4,1.1c1.6,0.5,2.2,0,4.1-1.6c1.9-1.6,3.6-6.2,3.6-6.2S24,21,23.2,16.8z"/>
	<path class="st0" d="M19.6,4.7C21.4,2.9,20.8,0,20.8,0s-2.6,0.4-4.3,2.2c-1.7,1.8-1.4,4.6-1.4,4.6S17.7,6.6,19.6,4.7z"/>
</g>
</svg>
