<svg xmlns="http://www.w3.org/2000/svg" width="33.553" height="39.043" viewBox="0 0 33.553 39.043">
    <defs>
        <style>
            .cls-1{fill:#a58a73}.cls-2{fill:#fff}.cls-3{filter:url(#Path_65)}.cls-4{filter:url(#Path_64)}
        </style>
        <filter id="Path_64" width="28.064" height="25.319" x="2.744" y="0" filterUnits="userSpaceOnUse">
            <feOffset dy="3"/>
            <feGaussianBlur result="blur" stdDeviation="3"/>
            <feFlood flood-opacity=".161"/>
            <feComposite in2="blur" operator="in"/>
            <feComposite in="SourceGraphic"/>
        </filter>
        <filter id="Path_65" width="33.553" height="31.723" x="0" y="7.319" filterUnits="userSpaceOnUse">
            <feOffset dy="3"/>
            <feGaussianBlur result="blur-2" stdDeviation="3"/>
            <feFlood flood-opacity=".161"/>
            <feComposite in2="blur-2" operator="in"/>
            <feComposite in="SourceGraphic"/>
        </filter>
    </defs>
    <g id="lock" transform="translate(2 5)">
        <g class="cls-4" transform="translate(-2 -5)">
            <path id="Path_64-2" d="M14.83 8.319V6.032a3.2 3.2 0 0 1 6.4 0v2.287h1.83V6.032a5.032 5.032 0 0 0-10.06 0v2.287z" class="cls-1" data-name="Path 64" transform="translate(-1.26 5)"/>
        </g>
        <g class="cls-3" transform="translate(-2 -5)">
            <path id="Path_65-2" d="M21.638 30.723H7.915A.915.915 0 0 1 7 29.809V17.915A.915.915 0 0 1 7.915 17h13.723a.915.915 0 0 1 .915.915v11.894a.915.915 0 0 1-.915.914z" class="cls-2" data-name="Path 65" transform="translate(2 -3.68)"/>
        </g>
        <path id="Path_66" d="M23.66 26.83a1.83 1.83 0 1 0-2.745 1.576v3h1.83v-3a1.822 1.822 0 0 0 .915-1.576z" class="cls-1" data-name="Path 66" transform="translate(-7.053 -13.021)"/>
    </g>
</svg>
