<svg xmlns="http://www.w3.org/2000/svg" width="79.405" height="45.701" viewBox="0 0 79.405 45.701">
    <defs>
        <style>
            .cls-1{opacity:.5}.cls-2{fill:#fff}
        </style>
    </defs>
    <g id="Group_3204" class="cls-1" data-name="Group 3204" transform="rotate(85 39.83 40.07)">
        <g id="Group_175" data-name="Group 175" transform="translate(16.853)">
            <path id="Path_191" d="M18.486 0a.562.562 0 0 0-.34.115A46.072 46.072 0 0 0 9.37 64.6a.562.562 0 1 0 .894-.681A44.945 44.945 0 0 1 18.826 1.01a.562.562 0 0 0-.34-1.01z" class="cls-2" data-name="Path 191"/>
        </g>
        <g id="Group_178" data-name="Group 178" transform="translate(19.31 21.293)">
            <g id="Group_176" data-name="Group 176">
                <path id="Path_192" d="M3.836 1.319L0 0l1.319 3.836A19.041 19.041 0 0 0 13.591 15.8l3.231 1.021-1.022-3.23A19.043 19.043 0 0 0 3.836 1.319z" class="cls-2" data-name="Path 192" transform="translate(.562 .561)"/>
                <path id="Path_193" d="M.562 0A.562.562 0 0 0 .03.744l1.319 3.837A19.685 19.685 0 0 0 13.983 16.9l3.232 1.02a.562.562 0 0 0 .705-.706l-1.02-3.231A19.682 19.682 0 0 0 4.581 1.349L.745.03A.56.56 0 0 0 .562 0zm15.961 16.522l-2.2-.695A18.556 18.556 0 0 1 2.413 4.216l-.945-2.748 2.748.945a18.551 18.551 0 0 1 11.612 11.91zM4.4 1.881z" class="cls-2" data-name="Path 193"/>
            </g>
            <g id="Group_177" data-name="Group 177" transform="translate(3.588 3.588)">
                <path id="Path_194" d="M.374 0A.375.375 0 0 0 .11.64l9.613 9.611a.375.375 0 1 0 .53-.529L.639.11A.373.373 0 0 0 .374 0z" class="cls-2" data-name="Path 194"/>
            </g>
        </g>
        <g id="Group_181" data-name="Group 181" transform="translate(23.629 62.122)">
            <g id="Group_179" data-name="Group 179">
                <path id="Path_195" d="M2.856 2.178L1.337 0 .554 2.538A12.467 12.467 0 0 0 2.426 13.6l1.316 1.786.707-2.1A12.468 12.468 0 0 0 2.856 2.178z" class="cls-2" data-name="Path 195" transform="translate(.557 .562)"/>
                <path id="Path_196" d="M1.894 0a.564.564 0 0 0-.537.4L.575 2.935A13.078 13.078 0 0 0 2.531 14.5l1.315 1.786a.562.562 0 0 0 .986-.154l.707-2.1A13.079 13.079 0 0 0 3.875 2.419L2.355.241A.563.563 0 0 0 1.894 0zm2.217 14.747l-.675-.917A11.952 11.952 0 0 1 1.649 3.266l.443-1.438.861 1.234a11.95 11.95 0 0 1 1.52 10.607z" class="cls-2" data-name="Path 196"/>
            </g>
            <g id="Group_180" data-name="Group 180" transform="translate(2.438 6.068)">
                <path id="Path_197" d="M.375 0a.444.444 0 0 0-.058 0A.375.375 0 0 0 0 .432l.946 6.024a.375.375 0 1 0 .74-.116L.745.317A.374.374 0 0 0 .375 0z" class="cls-2" data-name="Path 197"/>
            </g>
        </g>
        <g id="Group_184" data-name="Group 184" transform="translate(23.698 59.528)">
            <g id="Group_182" data-name="Group 182">
                <path id="Path_198" d="M3.256.118L0 .524l2.322 2.318a15.4 15.4 0 0 0 13.172 4.331l2.71-.407-1.89-1.985A15.4 15.4 0 0 0 3.256.118z" class="cls-2" data-name="Path 198" transform="translate(.562 .561)"/>
                <path id="Path_199" d="M5.7 0a15.768 15.768 0 0 0-1.951.121L.493.527a.562.562 0 0 0-.328.955L2.488 3.8a16.025 16.025 0 0 0 13.651 4.49l2.711-.407a.562.562 0 0 0 .323-.944l-1.89-1.985A16.037 16.037 0 0 0 5.7 0zM1.774 1.5l2.114-.263A14.9 14.9 0 0 1 16.47 5.729l1.144 1.2-1.642.247a14.9 14.9 0 0 1-12.69-4.171z" class="cls-2" data-name="Path 199"/>
            </g>
            <g id="Group_183" data-name="Group 183" transform="translate(8.723 3.637)">
                <path id="Path_200" d="M.375 0a.375.375 0 0 0-.122.729L5.8 2.631a.375.375 0 1 0 .242-.709L.5.02A.377.377 0 0 0 .375 0z" class="cls-2" data-name="Path 200"/>
            </g>
        </g>
        <g id="Group_187" data-name="Group 187" transform="translate(0 35.423)">
            <g id="Group_185" data-name="Group 185">
                <path id="Path_201" d="M1.319 12.986L0 16.822 3.837 15.5A19.039 19.039 0 0 0 15.8 3.231L16.822 0l-3.231 1.02A19.038 19.038 0 0 0 1.319 12.986z" class="cls-2" data-name="Path 201" transform="translate(.562 .562)"/>
                <path id="Path_202" d="M17.384 0a.567.567 0 0 0-.17.026l-3.231 1.02A19.681 19.681 0 0 0 1.35 13.365L.03 17.2a.562.562 0 0 0 .714.714L4.581 16.6A19.684 19.684 0 0 0 16.9 3.962l1.02-3.23A.563.563 0 0 0 17.384 0zM1.468 16.478l.945-2.748a18.55 18.55 0 0 1 11.91-11.611l2.2-.7-.695 2.2A18.551 18.551 0 0 1 4.216 15.533z" class="cls-2" data-name="Path 202"/>
            </g>
            <g id="Group_186" data-name="Group 186" transform="translate(3.588 3.996)">
                <path id="Path_203" d="M9.987 0a.376.376 0 0 0-.265.11L.11 9.722a.375.375 0 0 0 .53.53L10.252.639A.375.375 0 0 0 9.987 0z" class="cls-2" data-name="Path 203"/>
            </g>
        </g>
        <g id="Group_189" data-name="Group 189" transform="translate(17.586 39.083)">
            <path id="Path_204" d="M5.464 2.73a2.733 2.733 0 1 0-2.73 2.73 2.744 2.744 0 0 0 2.73-2.73z" class="cls-2" data-name="Path 204" transform="translate(.375 .375)"/>
            <g id="Group_188" data-name="Group 188">
                <path id="Path_205" d="M3.108 0a3.1 3.1 0 1 0 2.917 2.037A3.11 3.11 0 0 0 3.108 0zm0 5.461a2.366 2.366 0 0 1-1.942-1.017 2.335 2.335 0 0 1-.417-1.339 2.358 2.358 0 1 1 2.359 2.356z" class="cls-2" data-name="Path 205"/>
            </g>
        </g>
        <g id="Group_191" data-name="Group 191" transform="translate(17.952 40.874)">
            <path id="Path_206" d="M7.3 3.418A3.652 3.652 0 0 0 4.931 0 2.733 2.733 0 0 1 .117 2.492 3.729 3.729 0 0 0 0 3.418a3.651 3.651 0 1 0 7.3 0z" class="cls-2" data-name="Path 206" transform="translate(.375 .374)"/>
            <g id="Group_190" data-name="Group 190">
                <path id="Path_207" d="M5.307 0a.374.374 0 0 0-.352.5A2.358 2.358 0 0 1 .8 2.653a.375.375 0 0 0-.67.121A4.081 4.081 0 0 0 0 3.793 4.026 4.026 0 1 0 5.439.024.377.377 0 0 0 5.307 0zM2.742 4.42a3.109 3.109 0 0 0 3.106-3.106c0-.084 0-.167-.01-.251A3.277 3.277 0 1 1 .75 3.793v-.095a3.11 3.11 0 0 0 1.992.722z" class="cls-2" data-name="Path 207"/>
            </g>
        </g>
        <g id="Group_193" data-name="Group 193" transform="translate(12.905 44.72)">
            <ellipse id="Ellipse_84" cx="2.524" cy="2.524" class="cls-2" data-name="Ellipse 84" rx="2.524" ry="2.524" transform="translate(.375 .375)"/>
            <g id="Group_192" data-name="Group 192">
                <path id="Path_208" d="M2.9 0a2.9 2.9 0 1 0 2.9 2.9A2.9 2.9 0 0 0 2.9 0zm0 5.047A2.149 2.149 0 1 1 5.047 2.9 2.152 2.152 0 0 1 2.9 5.047z" class="cls-2" data-name="Path 208"/>
            </g>
        </g>
        <g id="Group_195" data-name="Group 195" transform="translate(11.753 29.687)">
            <path id="Path_209" d="M0 2.694a2.694 2.694 0 1 1 2.694 2.694A2.694 2.694 0 0 1 0 2.694z" class="cls-2" data-name="Path 209" transform="translate(.375 .374)"/>
            <g id="Group_194" data-name="Group 194">
                <path id="Path_210" d="M3.069 0a3.069 3.069 0 1 0 3.069 3.068A3.072 3.072 0 0 0 3.069 0zm0 5.388a2.319 2.319 0 1 1 2.319-2.32 2.323 2.323 0 0 1-2.319 2.32z" class="cls-2" data-name="Path 210"/>
            </g>
        </g>
        <g id="Group_197" data-name="Group 197" transform="translate(21.23 15.761)">
            <path id="Path_211" d="M0 2.694a2.694 2.694 0 1 1 2.694 2.694A2.693 2.693 0 0 1 0 2.694z" class="cls-2" data-name="Path 211" transform="translate(.375 .375)"/>
            <g id="Group_196" data-name="Group 196">
                <path id="Path_212" d="M3.068 0a3.069 3.069 0 1 0 3.069 3.069A3.072 3.072 0 0 0 3.068 0zm0 5.388a2.32 2.32 0 1 1 2.32-2.32 2.322 2.322 0 0 1-2.32 2.32z" class="cls-2" data-name="Path 212"/>
            </g>
        </g>
        <g id="Group_199" data-name="Group 199" transform="translate(20.632 60.447)">
            <ellipse id="Ellipse_85" cx="1.892" cy="1.892" class="cls-2" data-name="Ellipse 85" rx="1.892" ry="1.892" transform="translate(.375 .375)"/>
            <g id="Group_198" data-name="Group 198">
                <path id="Path_213" d="M2.266 0a2.267 2.267 0 1 0 2.267 2.266A2.269 2.269 0 0 0 2.266 0zm0 3.783a1.517 1.517 0 1 1 1.518-1.517 1.518 1.518 0 0 1-1.518 1.517z" class="cls-2" data-name="Path 213"/>
            </g>
        </g>
        <g id="Group_201" data-name="Group 201" transform="translate(23.05 56.048)">
            <ellipse id="Ellipse_86" cx="1.892" cy="1.892" class="cls-2" data-name="Ellipse 86" rx="1.892" ry="1.892" transform="translate(.375 .375)"/>
            <g id="Group_200" data-name="Group 200">
                <path id="Path_214" d="M2.267 0a2.267 2.267 0 1 0 2.266 2.267A2.269 2.269 0 0 0 2.267 0zm0 3.784a1.518 1.518 0 1 1 1.517-1.517 1.519 1.519 0 0 1-1.517 1.517z" class="cls-2" data-name="Path 214"/>
            </g>
        </g>
    </g>
</svg>
