<svg xmlns="http://www.w3.org/2000/svg" width="657" height="711" viewBox="0 0 657 711">
    <defs>
        <style>
            .cls-1{fill:#f9b034}.cls-2{fill:#2d191a}.cls-3{fill:#835f5c}.cls-4{fill:#70514f}.cls-5{fill:#ffe2b0}.cls-6{fill:#f5d9a9}.cls-16,.cls-7{fill:#703c16}.cls-8{fill:#0d297a}.cls-9{fill:#fff}.cls-10{fill:#a58a73}.cls-11{fill:#f8d496}.cls-12{fill:#a5622b}.cls-13{fill:#2e1a1a;fill-rule:evenodd}.cls-14{fill:#ff8e1c}.cls-15{fill:#ed841a}.cls-16{font-size:92.957px;font-family:Montserrat-ExtraBold,Montserrat;font-weight:800}
        </style>
    </defs>
    <g id="Group_3371" data-name="Group 3371" transform="translate(-1086 -212)">
        <path id="Path_4719" d="M1.85 0h523.5c17.437 0 31.573 13.879 31.573 31v649c0 17.121-14.136 31-31.573 31H1.85s-101.922-177.309-101.922-355.059S1.85 0 1.85 0z" class="cls-1" data-name="Path 4719" transform="translate(1186.072 212)"/>
        <g id="OBJECTS" transform="translate(1189 321)">
            <g id="Group_15" data-name="Group 15">
                <circle id="Ellipse_1" cx="200.333" cy="200.333" r="200.333" class="cls-2" data-name="Ellipse 1" transform="translate(49.667 49.667)"/>
                <g id="Group_14" data-name="Group 14">
                    <path id="Path_1" d="M329.69 162.335c0-61.085-49.877-78.835-79.69-78.835-30.067 0-79.33 15.455-79.33 78.835 0 62.041-25.389 58.806-23.375 94 3.182 55.588 51.028 68.527 102.886 68.527s99.7-12.939 102.884-68.527c2.014-35.194-23.375-31.959-23.375-94z" class="cls-3" data-name="Path 1"/>
                    <path id="Path_2" d="M329.69 162.335c0-28.966-11.217-48.183-26.19-60.388 9.7 11.958 16.185 28.35 16.185 50.382 0 62.041 18.762 62.478 16.749 97.671-3.182 55.588-44.4 64.855-96.259 64.855-30.766 0-60.12-4.554-79.573-19.868 18.293 23.409 52.933 29.874 89.579 29.874 51.857 0 99.7-12.939 102.884-68.527 2.014-35.193-23.375-31.958-23.375-93.999z" class="cls-4" data-name="Path 2"/>
                    <ellipse id="Ellipse_2" cx="66.051" cy="72" class="cls-5" data-name="Ellipse 2" rx="66.051" ry="72" transform="translate(183.949 100.117)"/>
                    <path id="Path_3" d="M264.579 273l-14.33 13.337L235.421 273v-35.92h29.158z" class="cls-6" data-name="Path 3"/>
                    <path id="Path_4" d="M289.362 114.3l-53.8 29.855c8.106 37.681 62.772 49.555 62.772 49.555-11.332 24.206-35.361 40.4-58.338 40.4a62.246 62.246 0 0 1-39.362-14.182c12.1 14.834 29.727 24.188 49.368 24.188 36.478 0 66.051-32.235 66.051-72-.002-23.684-10.497-44.695-26.691-57.816z" class="cls-6" data-name="Path 4"/>
                    <rect id="Rectangle_4" width="305.762" height="15.117" class="cls-7" data-name="Rectangle 4" rx="7" transform="translate(97.119 411.883)"/>
                    <path id="Path_5" d="M298.062 117.835c-17.658-19.322-41.99-20.592-59.4-17.718-17.852 2.948-50.333 18.051-54.959 61.057 0 0 31 .869 51.853-17.02 11.864 21.108 35.112 43.181 80.491 43.181.004 0 9.203-39.75-17.985-69.5z" class="cls-3" data-name="Path 5"/>
                    <path id="Path_6" d="M321.125 277.674C304 273.586 263.114 260 263.114 260l-13.307 25-12.307-25s-46.683 13.824-63.167 20c-14.925 5.592-24.064 74.815-29.48 108.8-1.52 9.538 18.813 23.3 18.813 23.3H333s23-16.764 21.492-25.072c-6.192-34.119-11.2-104.061-33.367-109.354z" class="cls-8" data-name="Path 6"/>
                    <path id="Path_7" d="M235.421 255l-15.488 11s11.817 5.75 30.007 19z" class="cls-9" data-name="Path 7"/>
                    <path id="Path_8" d="M264.81 255l15 11s-12.563 5.75-30.006 19z" class="cls-9" data-name="Path 8"/>
                    <g id="Group_3" data-name="Group 3">
                        <path id="Path_9" d="M174.17 168.711c-.04-1.388-.751-34.259 20.924-56.581 12.648-13.025 30.3-19.63 52.462-19.63 40.419 0 59.57 20.745 68.517 38.148a91.477 91.477 0 0 1 9.764 38.019h-3a90.154 90.154 0 0 0-9.481-36.743c-12.469-24.169-34.608-36.424-65.8-36.424-21.322 0-38.248 6.3-50.31 18.72-20.8 21.42-20.086 54.075-20.077 54.4z" class="cls-8" data-name="Path 9"/>
                    </g>
                    <g id="Group_9" data-name="Group 9">
                        <path id="Rectangle_5" d="M7.09 0h174.9a7.09 7.09 0 0 1 7.09 7.09v95.718a7.091 7.091 0 0 1-7.091 7.091H7.09a7.09 7.09 0 0 1-7.09-7.09V7.09A7.09 7.09 0 0 1 7.09 0z" class="cls-10" data-name="Rectangle 5" transform="translate(155.462 290.96)"/>
                        <path id="Path_10" d="M337.448 290.96h-6.754s-15.766 102.81-175.232 102.81a7.111 7.111 0 0 0 7.091 7.089h174.9a7.111 7.111 0 0 0 7.09-7.089v-95.719a7.111 7.111 0 0 0-7.095-7.091z" class="cls-11" data-name="Path 10"/>
                        <g id="Group_6" data-name="Group 6">
                            <path id="Path_11" d="M271.193 345.909A21.193 21.193 0 1 1 250 324.716a21.193 21.193 0 0 1 21.193 21.193z" class="cls-11" data-name="Path 11"/>
                            <g id="Group_3285" data-name="Group 3285" transform="translate(235.868 332.364)">
                                <g id="Group_2" data-name="Group 2">
                                    <path id="Path_11-2" d="M137.221 278.445a13.119 13.119 0 1 0 23.992-7.335 3.12 3.12 0 0 1-.353.658 12.456 12.456 0 1 1-5.751-4.839 3.587 3.587 0 0 1 .21-.619 13.114 13.114 0 0 0-18.1 12.136z" class="cls-12" data-name="Path 11" transform="translate(-136.339 -264.443)"/>
                                    <path id="Path_12" d="M159.683 268.177a4.266 4.266 0 0 1-.1.632 13.528 13.528 0 1 1-5.854-4.668 2.78 2.78 0 0 1 .283-.376 14.04 14.04 0 1 0 5.671 4.412z" class="cls-12" data-name="Path 12" transform="translate(-134.551 -262.656)"/>
                                </g>
                                <g id="Group_3-2" data-name="Group 3" transform="translate(3.353 4.978)">
                                    <path id="Path_13" d="M164.522 289.123a2.48 2.48 0 0 1-.807.669 5.36 5.36 0 0 1-.55.258 3.318 3.318 0 0 0-.266-.547 3.667 3.667 0 0 0-.677-.818 7.794 7.794 0 0 0-3.944-1.526 7.193 7.193 0 0 0 3.143-1.534 3.642 3.642 0 0 0 .37-.4l-.208-.071a12.085 12.085 0 0 0-2.835-.589 2.657 2.657 0 0 1-.7 1.4 3.8 3.8 0 0 1-2.7.788h-1.832v-5.443a.756.756 0 0 1 .28-.679 2.877 2.877 0 0 1 1.322-.186 4.735 4.735 0 0 1 2.962.668 2.175 2.175 0 0 1 .672 1.2 4.11 4.11 0 0 1 .091.615q-.3-.025-.611-.043-.786-.045-1.63-.046-1.286 0-2.479.093v1.081a16.066 16.066 0 0 1 2.024-.125q.268 0 .532.01c.178-.006.359-.01.544-.01q.516 0 1.008.028.306.017.6.046a12.611 12.611 0 0 1 2.947.618l.346.118c.2.068.4.133.576.2a3.009 3.009 0 0 1 .875.487h2.013l-.023-.186-.25-2.351h-.937l-1.157.891-.176-.048q-.3-.083-.593-.157a3.752 3.752 0 0 0 .002-.621 3.391 3.391 0 0 0-1.3-2.41 5.489 5.489 0 0 0-3.609-1.091h-.058v-1.685h-1.453v1.685H154.3v-1.685h-1.453v1.685H147.7v1.02h1.262a1.475 1.475 0 0 1 .828.176.541.541 0 0 1 .247.461v8.57a4.273 4.273 0 0 1-.606-.483 2.355 2.355 0 0 1-.8-1.632v-.055a2.279 2.279 0 0 1 .8-1.647v-2.077c-.258.075-.512.153-.76.237q-3.922 1.327-3.971 3.541v.053q0 2.03 3.445 3.329.625.236 1.289.428.3.087.606.165a22.3 22.3 0 0 0 3.477.579q.3.027.606.049c.753.053 1.545.079 2.381.079.889 0 1.715-.035 2.49-.1.212-.019.421-.039.625-.063a17.033 17.033 0 0 0 3.4-.725c.127-.042.248-.085.366-.129q.317-.119.591-.248a4.014 4.014 0 0 0 1.93-1.678zm-5.465 1.866c-.533.042-1.1.064-1.7.064q-.406 0-.786-.013-.3.012-.608.012a15.914 15.914 0 0 1-1.842-.1q-.309-.036-.606-.084v-3.1h2.468a3.812 3.812 0 0 1 2.743.905 3.026 3.026 0 0 1 .857 1.657 4.746 4.746 0 0 1 .075.6q-.293.035-.601.059z" class="cls-12" data-name="Path 13" transform="translate(-144.701 -277.725)"/>
                                    <path id="Path_14" d="M165.558 321.284a2.667 2.667 0 0 1-.682 1.1 3.37 3.37 0 0 1-2.43.845h-2.106a.657.657 0 0 1-.538-.241 1.085 1.085 0 0 1-.2-.7v-.98a22.96 22.96 0 0 1-3.477-.563v1.5a1.15 1.15 0 0 1-.263.757.724.724 0 0 1-.582.23h-1.49v1.02h5.14v1.34h1.453v-1.34h1.736v1.34h1.453v-1.348a9.37 9.37 0 0 0 3-.551 4.874 4.874 0 0 0 2.068-1.285 3.643 3.643 0 0 0 .807-1.95l-.153.052a17.931 17.931 0 0 1-3.736.774z" class="cls-12" data-name="Path 14" transform="translate(-150.788 -306.343)"/>
                                </g>
                                <g id="Group_4" data-name="Group 4" transform="translate(19.328 .913)">
                                    <path id="Path_15" d="M195.061 265.421a1.92 1.92 0 0 1 1.306 1.34 1 1 0 0 0-.746.119.66.66 0 0 0-.071.042 1.769 1.769 0 0 0-.3.239l.069-.3a1.424 1.424 0 0 0-.263-1.445zm-.306 5.29c-.952-.043-1.7-1.227-1.69-2.673a3.66 3.66 0 0 1 .315-1.481 2.575 2.575 0 0 1 .275-.456 1.925 1.925 0 0 1 .147-.172c.6-.624 1.178-.35 1.139.478a2.319 2.319 0 0 1-.038.316 15.731 15.731 0 0 0-.537 2.858 1.3 1.3 0 0 0 .388 1.13z" class="cls-13" data-name="Path 15" transform="translate(-193.065 -265.421)"/>
                                    <path id="Path_16" d="M200.256 270.092a1.974 1.974 0 0 1 1.359 1.439 3.771 3.771 0 0 1 .187 1.088 3.6 3.6 0 0 1-.481 1.936c-.52.864-1.237.787-1.273-.223a11.507 11.507 0 0 1 .486-2.8 1.422 1.422 0 0 0-.277-1.44zm-.249 5.284c-.951-.033-1.715-1.207-1.715-2.651a3.658 3.658 0 0 1 .3-1.482 2.559 2.559 0 0 1 .27-.458 1.837 1.837 0 0 1 .144-.173c.6-.63 1.172-.362 1.143.465a2.279 2.279 0 0 1-.035.316 15.733 15.733 0 0 0-.506 2.858 1.3 1.3 0 0 0 .4 1.124z" class="cls-13" data-name="Path 16" transform="translate(-196.566 -268.549)"/>
                                </g>
                            </g>
                        </g>
                        <g id="Group_8" data-name="Group 8">
                            <g id="Group_7" data-name="Group 7">
                                <path id="Path_17" d="M206.588 403.609c0 6.331-1.474 1.808-3.292 1.808h-27.345c-1.819 0-3.293 3.569-3.293-1.808V400.1a3.292 3.292 0 0 1 3.293-3.292H203.3a3.292 3.292 0 0 1 3.292 3.292z" class="cls-9" data-name="Path 17"/>
                                <path id="Path_18" d="M327.342 405.544c0 1.818-1.473 1.438-3.292 1.438H296.7c-1.818 0-3.292.507-3.292-1.311V400.1a3.292 3.292 0 0 1 3.292-3.292h27.35a3.291 3.291 0 0 1 3.292 3.292z" class="cls-9" data-name="Path 18"/>
                            </g>
                            <path id="Path_19" d="M344.538 407.746a4.137 4.137 0 0 1-4.137 4.137H159.6a4.137 4.137 0 0 1-4.137-4.137 4.137 4.137 0 0 1 4.137-4.137h180.8a4.137 4.137 0 0 1 4.137 4.137z" class="cls-10" data-name="Path 19"/>
                        </g>
                    </g>
                    <g id="Group_10" data-name="Group 10">
                        <path id="Path_20" d="M230.71 234.892c-22.137 0-38.172-5.666-47.658-16.841-11.563-13.62-8.985-30.258-8.869-30.96l2.961.486c-.026.158-2.451 16.024 8.221 28.564 8.894 10.452 24.151 15.751 45.345 15.751z" class="cls-8" data-name="Path 20"/>
                    </g>
                    <g id="Group_13" data-name="Group 13">
                        <g id="Group_11" data-name="Group 11">
                            <path id="Path_21" d="M183.374 193.041a19.809 19.809 0 0 1-19.808-19.809V171a19.808 19.808 0 0 1 19.808-19.808" class="cls-14" data-name="Path 21"/>
                            <path id="Path_22" d="M187.194 193.693a4.3 4.3 0 0 1-4.3 4.3 4.3 4.3 0 0 1-4.3-4.3v-43.151a4.3 4.3 0 0 1 4.3-4.3 4.3 4.3 0 0 1 4.3 4.3z" class="cls-8" data-name="Path 22"/>
                        </g>
                        <g id="Group_12" data-name="Group 12">
                            <path id="Path_23" d="M316.625 151.194A19.809 19.809 0 0 1 336.434 171v2.23a19.81 19.81 0 0 1-19.809 19.809" class="cls-14" data-name="Path 23"/>
                            <path id="Path_24" d="M326.029 153.566a19.722 19.722 0 0 1 4.4 12.434v2.23a19.813 19.813 0 0 1-13.8 18.875v5.936a19.81 19.81 0 0 0 19.809-19.809V171a19.8 19.8 0 0 0-10.409-17.434z" class="cls-15" data-name="Path 24"/>
                            <path id="Path_25" d="M312.8 150.542a4.3 4.3 0 0 1 4.3-4.3 4.3 4.3 0 0 1 4.3 4.3v43.151a4.3 4.3 0 0 1-4.3 4.3 4.3 4.3 0 0 1-4.3-4.3z" class="cls-8" data-name="Path 25"/>
                        </g>
                    </g>
                    <path id="Path_26" d="M242.545 233.392a7.939 7.939 0 1 1-7.939-7.939 7.939 7.939 0 0 1 7.939 7.939z" class="cls-8" data-name="Path 26"/>
                    <path id="Path_27" d="M377.078 42.052a67.721 67.721 0 0 0-61.294 96.5l-21.278 40.655 40.663-16.278a67.706 67.706 0 1 0 41.909-120.877z" class="cls-11" data-name="Path 27"/>
                    <path id="Path_28" d="M435.94 76.31a67.7 67.7 0 0 1-106.773 72.612l-34.661 30.286 40.663-16.278A67.7 67.7 0 0 0 435.94 76.31z" class="cls-10" data-name="Path 28"/>
                    <text id="_" class="cls-16" data-name="?" transform="translate(348.563 143.145)">
                        <tspan x="0" y="0">?</tspan>
                    </text>
                </g>
            </g>
        </g>
    </g>
</svg>
