<svg xmlns="http://www.w3.org/2000/svg" width="582.02" height="582.021" viewBox="0 0 582.02 582.021">
    <defs>
        <style>
            .cls-1{opacity:.119}.cls-2{fill:#f8d496}
        </style>
    </defs>
    <g id="Group_3169" class="cls-1" data-name="Group 3169" transform="translate(-814.119 -1348.303)">
        <path id="Path_1" d="M949.631 1638.669l-1.163-1.329c-3.633-4.149-7.668-6.114-12.172-6.095-7.423.031-13.139 5.765-13.378 6.01l-1.39 1.412 1.414 1.437c.639.641 6.45 6.23 13.9 5.981 4.307-.143 8.219-2.19 11.627-6.088zm-12.924 3.384c-3.866.128-7.3-1.921-9.242-3.386a15.537 15.537 0 0 1 8.847-3.389 4.579 4.579 0 1 1 .395 6.775z" class="cls-2" data-name="Path 1"/>
        <path id="Path_2" d="M896.949 1702.663l-10.775-12.1a138.697 138.697 0 0 0-5.423-5.754c-31.436-31.436-55.524-20.957-59.8-16.678l-.536.536-1.335 20.031 3.707-3.384c20.442-18.665 60.35 7.991 60.752 8.262zm-53.915-35.24a41.447 41.447 0 0 1 8.224 2.059l-.2 6.034a53.225 53.225 0 0 0-8.107-.9zm12.208 3.683a59.566 59.566 0 0 1 6.235 3.329l.45 3.982a79.827 79.827 0 0 0-6.854-2.041zm-16.239-4l-.084 7.573a35.7 35.7 0 0 0-4.56.613l-2.227-7.592a31.041 31.041 0 0 1 6.868-.594zm-14.677 3.526a21.094 21.094 0 0 1 3.918-1.85l2.209 7.523a28.529 28.529 0 0 0-6.717 3.18zm41.839 9.379l-.3-2.669a88.983 88.983 0 0 1 7.063 5.639 109.292 109.292 0 0 0-6.763-2.97z" class="cls-2" data-name="Path 2"/>
        <path id="Path_3" d="M874.685 1659.231c8.413-1.151 13.114-5.425 13.827-6.421l.138-.194-1.374-13.84-.972 1.24c-14.979 19.081-52.732 2.051-53.111 1.878l-4.632-2.127 3.97 3.2c19.339 15.563 33.598 17.433 42.154 16.264zm-.173-1.254c-.3.041-.618.069-.93.1l-1.311-8.429a29.6 29.6 0 0 0 5.478-1.655l3.881 8.017a26.909 26.909 0 0 1-7.118 1.967zm11.809-16.009l1.019 10.279a16.24 16.24 0 0 1-4.571 3.207l-3.866-7.983a23.271 23.271 0 0 0 7.418-5.503zm-25.6 8.353l.919 6.855a51.615 51.615 0 0 1-7.834-2.573l-1.535-5.394a67.244 67.244 0 0 0 8.454 1.112zm-9.849-1.4l1.433 5.028a82.031 82.031 0 0 1-15.28-9.118 96.426 96.426 0 0 0 13.851 4.095zm12.082 8.529l-.946-7.068a44.233 44.233 0 0 0 9.014-.5l1.288 8.293a35.752 35.752 0 0 1-9.352-.72z" class="cls-2" data-name="Path 3"/>
        <path id="Path_4" d="M885.58 1586.4l10.8-12.123-13.437 9.11c-.4.271-40.291 26.945-60.752 8.262l-3.708-3.384 1.337 20.031.535.536c1.172 1.172 7.707 5.48 18.3 5.174 10.456-.306 27.088-5.337 46.925-27.606zm-20.308 13.208l.3-2.655a108.331 108.331 0 0 0 6.744-2.963 88.84 88.84 0 0 1-7.044 5.616zm-22.912 2.737a53.75 53.75 0 0 0 8.108-.9l.2 6.078a41.272 41.272 0 0 1-8.224 2.1zm12.117-1.759a80.197 80.197 0 0 0 6.853-2.039l-.446 3.976a60.36 60.36 0 0 1-6.238 3.355zm-16.153 1.7l.084 7.675a30.419 30.419 0 0 1-6.9-.6l2.26-7.692a36.147 36.147 0 0 0 4.556.615zm-15.182-4.809a28.684 28.684 0 0 0 6.718 3.184l-2.235 7.6a19.2 19.2 0 0 1-3.89-1.885z" class="cls-2" data-name="Path 4"/>
        <path id="Path_5" d="M883.981 1635a21.581 21.581 0 0 1 1.729 1.949l.974 1.239 1.373-13.838-.141-.194a4.775 4.775 0 0 0-.492-.56c-.775-.775-19.4-18.645-55.487 10.408l-3.968 3.192 4.63-2.123c.354-.166 35.453-16.006 51.382-.073zm-12.306-7.676l1.31-8.439a26.922 26.922 0 0 1 8.037 2.1l-3.88 8.01a29.9 29.9 0 0 0-5.467-1.674zm15.071-2.6l-1.02 10.276a24.845 24.845 0 0 0-.848-.9 23.426 23.426 0 0 0-6.577-4.6l3.867-7.982a17.9 17.9 0 0 1 4.359 2.968c.086.089.158.166.219.234zm-25.693-4.958l-.925 6.9a67.03 67.03 0 0 0-8.452 1.1l1.552-5.449a50.477 50.477 0 0 1 7.825-2.555zm-9.332 3.219l-1.443 5.064a96.482 96.482 0 0 0-13.853 4.085 82.354 82.354 0 0 1 15.296-9.153zm9.693 3.607l.957-7.128a35.508 35.508 0 0 1 9.351-.692l-1.293 8.325a44.257 44.257 0 0 0-9.015-.509z" class="cls-2" data-name="Path 5"/>
        <path id="Path_6" d="M1113.2 1808.146c.021-4.507-1.943-8.546-6.1-12.175l-1.329-1.161-1.326 1.164c-3.9 3.408-5.944 7.32-6.089 11.626-.247 7.449 5.342 13.26 5.981 13.9l1.438 1.414 1.414-1.388c.243-.242 5.973-5.96 6.011-13.38zm-10.809-.413a11.353 11.353 0 0 1 3.384-7.445 11.247 11.247 0 0 1 3.391 7.815c-.008 3.688-1.978 6.98-3.394 8.867-1.466-1.944-3.513-5.375-3.385-9.237z" class="cls-2" data-name="Path 6"/>
        <path id="Path_7" d="M1059.633 1863.69a136.91 136.91 0 0 0-5.758-5.424l-12.1-10.773 9.085 13.411c.27.4 26.925 40.31 8.263 60.752l-3.384 3.707 20.029-1.335.538-.538c4.281-4.276 14.76-28.365-16.673-59.8zm15.324 29.494a41.334 41.334 0 0 1 2.061 8.221l-7.195.081a53.1 53.1 0 0 0-.9-8.109zm-6.891-3.815a80.228 80.228 0 0 0-2.042-6.854l3.98.448a59.519 59.519 0 0 1 3.329 6.235zm9.269 16.071a31.026 31.026 0 0 1-.593 6.868l-7.592-2.227a36.434 36.434 0 0 0 .614-4.56zm-10.236-26.864l-2.669-.3c-.96-2.4-1.969-4.681-2.974-6.762a88.208 88.208 0 0 1 5.644 7.062zm-2.144 42.127a28.6 28.6 0 0 0 3.183-6.716l7.52 2.211a21.179 21.179 0 0 1-1.85 3.916z" class="cls-2" data-name="Path 7"/>
        <path id="Path_8" d="M1104.425 1858.138l1.239-.975-13.838-1.373-.2.139c-.994.713-5.272 5.414-6.423 13.829-1.17 8.556.7 22.81 16.27 42.151l3.193 3.969-2.125-4.629c-.168-.381-17.197-38.136 1.884-53.111zm-9.194 34.027l-5.391-1.535a51.356 51.356 0 0 1-2.577-7.834l6.855.919a67.246 67.246 0 0 0 1.113 8.45zm-3.038-35.064l10.28 1.02a23.228 23.228 0 0 0-5.5 7.417l-7.984-3.865a16.265 16.265 0 0 1 3.204-4.573zm-3.761 5.71l8.013 3.88a29.679 29.679 0 0 0-1.654 5.477l-8.43-1.308c.033-.314.063-.633.1-.933a26.753 26.753 0 0 1 1.971-7.116zm-2.174 9.314l8.295 1.288a43.915 43.915 0 0 0-.5 9.016l-7.07-.948a35.83 35.83 0 0 1-.725-9.356zm4.229 20.005l5.029 1.435a96.292 96.292 0 0 0 4.087 13.845 82.017 82.017 0 0 1-9.116-15.28z" class="cls-2" data-name="Path 8"/>
        <path id="Path_9" d="M1188.836 1781.624c-10.221-25.115-22.541-41.837-28.764-49.363a135.869 135.869 0 0 0 45.209 8.687l1.983-.017.016-1.981a135.883 135.883 0 0 0-8.18-43.855c7.96 6.443 24.307 18.148 48.339 27.925 31.741 12.915 83.305 24.569 148.7 6.734l-1.064-3.892c-122.892 33.516-197.983-37.766-198.726-38.49l-.278.283a99.125 99.125 0 0 0-10.65-18.325 81.948 81.948 0 0 0 36.579 8.438c.269 0 .535-.019.805-.021-.3 5.534 3.638 10.538 6.528 13.432.495.491.949.917 1.355 1.277a9.384 9.384 0 0 0 13.442 12.57c4.454 2.392 20 10.2 31.293 9.222a9.37 9.37 0 0 0 18.446 2.185c4.091 1.369 12.637 3.482 21.643 1.236a9.37 9.37 0 0 0 18.107 1.309c5.135 1.5 18.345 4.174 31.926-2.45a9.254 9.254 0 0 0 1.055 1.293 9.455 9.455 0 1 0-2.6-5.026c-13.024 6.451-26.053 3.291-29.936 2.087a9.316 9.316 0 0 0-2.653-5.617 9.424 9.424 0 0 0-13.315 0 9.3 9.3 0 0 0-2.37 4.143c-9.338 2.78-18.663-.085-21.68-1.2a9.367 9.367 0 0 0-17.751-2.131c-9.385 1.615-24.125-5.42-29.408-8.164a9.387 9.387 0 0 0-13.4-12.385c-2.3-2.064-7.135-7.038-6.616-11.933a99.826 99.826 0 0 0 29.276-6.494 59.851 59.851 0 0 0 11.139 15.568 44.553 44.553 0 0 0 25.824 13.18c12.734 1.68 23.71-3.085 29.365-12.753a23.29 23.29 0 0 0-1.331-26.12c-5.332-7.114-13.852-9.842-22.787-7.309-9.489 2.691-16.665 10.618-17.452 19.273-.866 9.528 5.107 15.707 11.415 17.6a14.293 14.293 0 0 0 17.1-6.956c4.017-7.455 1.545-13.023-2.112-15.737-4.006-2.982-9.5-2.964-12.5.042l2.852 2.85c1.568-1.567 4.885-1.41 7.243.347 3.037 2.251 3.377 6.112.969 10.587a10.263 10.263 0 0 1-12.385 5c-4.388-1.321-9.262-5.616-8.557-13.376.638-7.031 6.616-13.512 14.536-15.757 3.488-.991 12.262-2.415 18.454 5.846a19.31 19.31 0 0 1 1.078 21.663c-4.806 8.219-14.285 12.251-25.351 10.791-20.417-2.7-31.078-21.03-33.72-26.25a142.07 142.07 0 0 0 42.591-28.231l1.318-1.508-1.414-1.416a145.939 145.939 0 0 0-42.889-28.168c2.961-5.707 13.559-23.2 33.516-25.842 11.068-1.458 20.549 2.576 25.354 10.792a19.311 19.311 0 0 1-1.078 21.663c-6.184 8.25-14.967 6.836-18.454 5.847-7.92-2.247-13.9-8.728-14.537-15.756-.7-7.759 4.17-12.054 8.557-13.377a10.26 10.26 0 0 1 12.384 5.007c2.411 4.474 2.058 8.333-.97 10.587-2.357 1.752-5.672 1.909-7.239.342l-2.851 2.855c3 3 8.492 3.019 12.5.039 3.656-2.721 6.129-8.279 2.113-15.739a14.291 14.291 0 0 0-17.1-6.954c-6.3 1.9-12.279 8.077-11.412 17.605.787 8.656 7.961 16.58 17.452 19.273 8.932 2.535 17.451-.2 22.786-7.309a23.283 23.283 0 0 0 1.33-26.119c-5.649-9.665-16.631-14.434-29.363-12.756-22.458 2.967-33.773 22.355-36.76 28.341a98.953 98.953 0 0 0-29.523-6.477c-.251-4.811 4.4-9.548 6.656-11.547a9.386 9.386 0 0 0 13.408-12.379c5.28-2.746 20.012-9.784 29.406-8.166a9.33 9.33 0 0 0 1.859 2.718 9.409 9.409 0 0 0 15.891-4.845c3.022-1.115 12.342-3.978 21.682-1.2a9.321 9.321 0 0 0 2.369 4.144 9.429 9.429 0 0 0 13.316 0 9.308 9.308 0 0 0 2.653-5.628c3.874-1.208 16.867-4.384 29.938 2.093a9.746 9.746 0 1 0 1.54-3.733c-13.58-6.624-26.79-3.953-31.922-2.448a9.312 9.312 0 0 0-2.209-3.6 9.4 9.4 0 0 0-15.9 4.908c-9.009-2.243-17.554-.129-21.644 1.238a9.307 9.307 0 0 0-2.4-4.244 9.389 9.389 0 0 0-16.043 6.427c-11.295-.979-26.842 6.83-31.295 9.224a9.383 9.383 0 0 0-13.44 12.568c-2.724 2.437-8.008 8.01-7.883 14.342a77.982 77.982 0 0 0-3.381.027 82.61 82.61 0 0 0-36.872 10.147 95.684 95.684 0 0 0 12.888-20.362l.909.93c.741-.724 75.728-72.032 198.726-38.488l1.061-3.892c-65.391-17.835-116.956-6.182-148.7 6.733-25.15 10.232-41.887 22.574-49.4 28.791a139.444 139.444 0 0 0 9.831-47.494l-.016-1.981-1.981-.019a139.6 139.6 0 0 0-45.889 9.188 194.137 194.137 0 0 0 27.777-48.158c12.917-31.742 24.569-83.306 6.734-148.7l-3.889 1.062c33.513 122.894-37.768 197.982-38.493 198.729l.33.319a96.77 96.77 0 0 0-18.778 11.584 82.3 82.3 0 0 0 9.167-34.983 84.78 84.78 0 0 0 .025-3.38c6.333.125 11.905-5.158 14.341-7.881a9.384 9.384 0 0 0 12.571-13.442c2.391-4.453 10.2-20 9.222-31.294a9.371 9.371 0 0 0 2.183-18.445c1.367-4.091 3.482-12.636 1.238-21.644a9.4 9.4 0 0 0 4.907-15.9 9.256 9.256 0 0 0-3.6-2.21c1.506-5.133 4.175-18.342-2.449-31.923a9.328 9.328 0 0 0 1.3-1.056 9.463 9.463 0 1 0-5.029 2.6c6.452 13.024 3.292 26.054 2.088 29.938a9.3 9.3 0 0 0-5.62 2.654 9.423 9.423 0 0 0 0 13.314 9.309 9.309 0 0 0 4.145 2.37c2.775 9.339-.085 18.66-1.2 21.682a9.328 9.328 0 0 0-4.846 2.577 9.335 9.335 0 0 0 2.717 15.17c1.616 9.386-5.421 24.125-8.166 29.409a9.387 9.387 0 0 0-12.384 13.4c-2.009 2.241-6.771 6.887-11.539 6.656a98.852 98.852 0 0 0-6.48-29.515c5.984-2.988 25.376-14.3 28.341-36.764 1.682-12.732-3.085-23.708-12.753-29.363a23.282 23.282 0 0 0-26.122 1.332c-7.11 5.333-9.843 13.853-7.307 22.786 2.693 9.486 10.618 16.663 19.272 17.45 9.528.868 15.71-5.107 17.606-11.411a14.3 14.3 0 0 0-6.956-17.1c-7.457-4.014-13.017-1.541-15.736 2.113-2.983 4.008-2.964 9.5.039 12.5l2.854-2.854c-1.568-1.566-1.412-4.884.343-7.24 2.253-3.027 6.11-3.38 10.587-.968a10.26 10.26 0 0 1 5.006 12.384c-1.322 4.387-5.617 9.261-13.378 8.557-7.028-.64-13.51-6.616-15.757-14.536-.988-3.487-2.4-12.269 5.848-18.456a19.312 19.312 0 0 1 21.664-1.077c8.215 4.8 12.254 14.284 10.791 25.351-2.631 19.912-20.138 30.545-25.847 33.512a146.118 146.118 0 0 0-28.258-42.976l-1.414-1.391-1.414 1.391a142.049 142.049 0 0 0-28.228 42.594c-5.216-2.629-23.55-13.252-26.252-33.722-1.461-11.069 2.572-20.545 10.791-25.353a19.315 19.315 0 0 1 21.663 1.077c8.249 6.186 6.837 14.968 5.847 18.457-2.246 7.919-8.726 13.9-15.757 14.536-7.759.7-12.057-4.168-13.377-8.559a10.261 10.261 0 0 1 5.007-12.384c4.474-2.408 8.337-2.071 10.587.97 1.753 2.357 1.911 5.675.344 7.241l2.853 2.853c3-3 3.021-8.5.04-12.5-2.721-3.66-8.28-6.129-15.74-2.114a14.293 14.293 0 0 0-6.954 17.1c1.9 6.308 8.077 12.28 17.605 11.414 8.656-.786 16.582-7.963 19.273-17.452 2.535-8.935-.194-17.449-7.308-22.786a23.283 23.283 0 0 0-26.119-1.332c-9.669 5.655-14.436 16.633-12.755 29.365a44.527 44.527 0 0 0 13.181 25.822 59.781 59.781 0 0 0 15.572 11.142 99.643 99.643 0 0 0-6.493 29.279c-4.949.543-9.892-4.3-11.944-6.615a9.385 9.385 0 0 0-12.378-13.407c-2.747-5.281-9.784-20.015-8.167-29.408a9.327 9.327 0 0 0 2.719-1.859 9.409 9.409 0 0 0-4.852-15.893c-1.117-3.012-3.985-12.309-1.2-21.68a9.331 9.331 0 0 0 4.146-2.369 9.427 9.427 0 0 0 0-13.316 9.309 9.309 0 0 0-5.624-2.654c-1.211-3.872-4.385-16.866 2.091-29.935a9.791 9.791 0 1 0-3.732-1.542c-6.625 13.58-3.951 26.789-2.448 31.922a9.312 9.312 0 0 0-3.6 2.209 9.4 9.4 0 0 0 4.907 15.9c-2.245 9.008-.129 17.553 1.238 21.645a9.282 9.282 0 0 0-4.244 2.4 9.391 9.391 0 0 0 6.427 16.044c-.979 11.3 6.83 26.839 9.223 31.294a9.384 9.384 0 0 0 12.569 13.442c.363.4.786.86 1.278 1.351 2.893 2.9 7.9 6.831 13.438 6.531 0 .268-.021.531-.024.8a81.908 81.908 0 0 0 8.027 35.737 96.692 96.692 0 0 0-18.927-11.5c-9.572-10.881-68.217-83.559-37.2-197.3l-3.892-1.062c-17.834 65.393-6.182 116.957 6.734 148.7a196.547 196.547 0 0 0 26.285 46.271 135.778 135.778 0 0 0-44.52-8.42l-1.981.015-.017 1.983a135.923 135.923 0 0 0 8.941 45.855 195.248 195.248 0 0 0-47.311-27.1c-31.742-12.915-83.306-24.566-148.7-6.734l1.062 3.893c120.781-32.942 195.383 35.345 198.618 38.387a95.159 95.159 0 0 0 11.686 18.46 82.056 82.056 0 0 0-37.237-8.749c-.27 0-.535.019-.8.023.351-6.486-5.1-12.23-7.876-14.715a9.383 9.383 0 0 0-13.44-12.57c-4.455-2.393-20-10.2-31.3-9.222a9.369 9.369 0 0 0-18.443-2.185c-4.092-1.367-12.638-3.48-21.646-1.236a9.369 9.369 0 0 0-18.106-1.309c-5.133-1.5-18.344-4.174-31.924 2.45a9.2 9.2 0 0 0-1.056-1.294 9.459 9.459 0 1 0 2.6 5.026c13.024-6.453 26.053-3.29 29.935-2.088a9.311 9.311 0 0 0 2.654 5.619 9.424 9.424 0 0 0 13.315 0 9.3 9.3 0 0 0 2.37-4.144c9.338-2.779 18.661.086 21.682 1.2a9.364 9.364 0 0 0 17.749 2.128c9.386-1.614 24.124 5.422 29.408 8.168a9.387 9.387 0 0 0 13.4 12.385c2.3 2.066 7.141 7.039 6.62 11.935a99.776 99.776 0 0 0-29.276 6.492c-2.651-5.446-13.964-25.714-36.966-28.75-12.732-1.681-23.71 3.084-29.363 12.753a23.287 23.287 0 0 0 1.33 26.122 22.294 22.294 0 0 0 2.04 2.356c5.332 5.33 12.879 7.184 20.746 4.951 9.49-2.692 16.666-10.618 17.452-19.271.868-9.529-5.106-15.71-11.412-17.608a14.3 14.3 0 0 0-17.1 6.955c-4.017 7.459-1.544 13.022 2.114 15.739 4.006 2.982 9.5 2.963 12.5-.04l-2.853-2.854c-1.567 1.568-4.883 1.412-7.241-.343-3.03-2.256-3.379-6.112-.968-10.587a10.259 10.259 0 0 1 12.382-5.007c4.389 1.323 9.263 5.619 8.558 13.377-.64 7.032-6.615 13.512-14.535 15.759-3.489.989-12.26 2.4-18.456-5.849a19.3 19.3 0 0 1-1.076-21.662c4.806-8.22 14.283-12.255 25.352-10.791 20.417 2.7 31.076 21.036 33.719 26.252a142.047 142.047 0 0 0-42.594 28.229l-1.388 1.414 1.484 1.508a145.979 145.979 0 0 0 42.887 28.169c-2.955 5.705-13.556 23.206-33.514 25.843-11.067 1.458-20.545-2.57-25.352-10.792a19.313 19.313 0 0 1 1.076-21.664c6.188-8.248 14.97-6.837 18.458-5.847 7.92 2.248 13.9 8.726 14.535 15.757.706 7.76-4.168 12.055-8.557 13.376a10.252 10.252 0 0 1-12.384-5c-2.41-4.477-2.057-8.336.968-10.587 2.357-1.755 5.675-1.911 7.241-.345l2.853-2.853c-3-3-8.494-3.023-12.5-.038-3.655 2.716-6.128 8.279-2.113 15.737a14.3 14.3 0 0 0 17.1 6.953c6.3-1.895 12.278-8.076 11.411-17.6-.784-8.66-7.963-16.582-17.451-19.273-8.935-2.535-17.452.2-22.787 7.31a23.283 23.283 0 0 0-1.331 26.12 25.7 25.7 0 0 0 4.008 5.206c6.112 6.11 15.174 8.889 25.356 7.548 22.458-2.967 33.774-22.353 36.762-28.339a98.951 98.951 0 0 0 29.52 6.475c.251 4.813-4.4 9.55-6.653 11.547a9.385 9.385 0 0 0-13.408 12.378c-5.281 2.747-20.015 9.786-29.41 8.167a9.307 9.307 0 0 0-1.857-2.719 9.409 9.409 0 0 0-15.891 4.848c-3.021 1.114-12.343 3.976-21.682 1.2a9.33 9.33 0 0 0-2.369-4.144 9.428 9.428 0 0 0-13.315 0 9.33 9.33 0 0 0-2.655 5.624c-3.873 1.21-16.868 4.388-29.936-2.091a9.8 9.8 0 1 0-1.541 3.732c13.58 6.624 26.79 3.953 31.922 2.45a9.308 9.308 0 0 0 2.21 3.6 9.4 9.4 0 0 0 15.9-4.9c9.009 2.243 17.553.128 21.645-1.239a9.294 9.294 0 0 0 2.4 4.244 9.392 9.392 0 0 0 16.045-6.429c11.3.982 26.84-6.829 31.294-9.222a9.383 9.383 0 0 0 13.44-12.571c2.725-2.434 8.007-8.006 7.883-14.341 1.121.011 2.245.015 3.378-.024a82.265 82.265 0 0 0 34.569-8.961 95.225 95.225 0 0 0-11.89 18.617c-5.979 5.5-79.887 70.42-198.328 38.117l-1.061 3.891c65.391 17.836 116.956 6.182 148.7-6.734a195.817 195.817 0 0 0 46.969-26.829 139.538 139.538 0 0 0-9.341 46.28l.017 1.982 1.982.017a139.464 139.464 0 0 0 47.86-9.982c-6.466 8.009-18.093 24.31-27.815 48.2-12.916 31.744-24.569 83.311-6.734 148.7l3.892-1.06c-33.516-122.9 37.766-197.985 38.49-198.728l-.461-.451a94.043 94.043 0 0 0 19.661-12.938 82.525 82.525 0 0 0-9.916 36.464 81.294 81.294 0 0 0-.028 3.382c-6.33-.128-11.905 5.158-14.34 7.881a9.385 9.385 0 0 0-12.572 13.441c-2.391 4.456-10.2 20-9.22 31.3a9.369 9.369 0 0 0-2.185 18.444c-1.368 4.093-3.481 12.637-1.238 21.645a9.372 9.372 0 0 0-1.307 18.108c-1.5 5.132-4.175 18.342 2.449 31.92a9.7 9.7 0 0 0-1.295 1.058 9.465 9.465 0 1 0 5.028-2.6c-6.453-13.027-3.293-26.055-2.089-29.938a9.308 9.308 0 0 0 5.624-2.653 9.425 9.425 0 0 0 0-13.313 9.3 9.3 0 0 0-4.145-2.371c-2.777-9.34.085-18.662 1.2-21.683a9.407 9.407 0 0 0 4.845-15.891 9.229 9.229 0 0 0-2.718-1.856c-1.614-9.385 5.422-24.125 8.166-29.41a9.386 9.386 0 0 0 12.385-13.4c2.009-2.241 6.774-6.886 11.541-6.654a98.917 98.917 0 0 0 6.478 29.516c-5.987 2.985-25.374 14.3-28.34 36.762-1.344 10.184 1.435 19.242 7.547 25.356a25.767 25.767 0 0 0 5.207 4.008 23.288 23.288 0 0 0 26.12-1.334c7.111-5.333 9.844-13.851 7.308-22.786-2.692-9.489-10.62-16.665-19.273-17.452-9.527-.866-15.708 5.109-17.6 11.413a14.3 14.3 0 0 0 6.954 17.1c7.459 4.016 13.02 1.542 15.738-2.113 2.98-4.008 2.964-9.5-.04-12.5l-2.853 2.854c1.567 1.567 1.41 4.883-.342 7.24-2.253 3.028-6.114 3.378-10.59.97a10.262 10.262 0 0 1-5-12.385c1.321-4.39 5.617-9.264 13.376-8.557 7.03.637 13.51 6.616 15.757 14.536.989 3.486 2.4 12.268-5.848 18.454a19.3 19.3 0 0 1-21.662 1.078c-8.219-4.8-12.252-14.283-10.791-25.351 2.629-19.912 20.134-30.543 25.844-33.51a145.969 145.969 0 0 0 28.165 42.881l1.509 1.484 1.414-1.387a142.079 142.079 0 0 0 28.231-42.6c5.214 2.63 23.548 13.252 26.25 33.721 1.461 11.071-2.571 20.547-10.791 25.354a19.308 19.308 0 0 1-21.661-1.076c-8.244-6.188-6.838-14.97-5.848-18.456 2.247-7.92 8.725-13.9 15.758-14.537 7.758-.7 12.053 4.169 13.375 8.558a10.26 10.26 0 0 1-5 12.383c-4.475 2.412-8.33 2.064-10.588-.966-1.756-2.357-1.913-5.677-.344-7.241l-2.854-2.856c-3 3.006-3.023 8.495-.039 12.5 2.714 3.654 8.28 6.129 15.738 2.114a14.3 14.3 0 0 0 6.956-17.1c-1.9-6.3-8.079-12.276-17.606-11.41-8.656.784-16.582 7.96-19.274 17.449-2.231 7.869-.381 15.415 4.951 20.747a22 22 0 0 0 2.358 2.039 23.286 23.286 0 0 0 26.12 1.333c9.668-5.656 14.436-16.633 12.753-29.363-3.036-23.005-23.3-34.317-28.752-36.968a99.724 99.724 0 0 0 6.493-29.276c4.947-.542 9.891 4.3 11.943 6.614a9.386 9.386 0 0 0 12.379 13.409c2.748 5.281 9.787 20.013 8.166 29.406a9.283 9.283 0 0 0-2.719 1.859 9.409 9.409 0 0 0 4.85 15.892c1.119 3.012 3.987 12.31 1.2 21.68a9.318 9.318 0 0 0-4.144 2.372 9.423 9.423 0 0 0 0 13.314 9.3 9.3 0 0 0 5.623 2.653c1.212 3.873 4.387 16.866-2.091 29.935a9.841 9.841 0 1 0 3.732 1.543c6.626-13.579 3.952-26.789 2.451-31.922a9.386 9.386 0 0 0-1.309-18.108c2.245-9.008.131-17.554-1.236-21.645a9.282 9.282 0 0 0 4.244-2.4 9.391 9.391 0 0 0-6.429-16.044c.98-11.3-6.831-26.84-9.223-31.293a9.383 9.383 0 0 0-12.57-13.441c-2.486-2.777-8.229-8.227-14.715-7.876 0-.27.022-.538.024-.805a82.166 82.166 0 0 0-9.124-38.018 98.033 98.033 0 0 0 19.524 11.558l-.812.79c.724.742 72.036 75.729 38.492 198.727l3.891 1.063c17.829-65.393 6.181-116.958-6.735-148.7zm188.224-74.263a5.38 5.38 0 1 1-7.608 0 5.387 5.387 0 0 1 7.608 0zm-48.5 4.755a5.38 5.38 0 1 1-7.607 0 5.387 5.387 0 0 1 7.606 0zm-39.943-1.9a5.379 5.379 0 1 1-7.608 0 5.387 5.387 0 0 1 7.607-.002zm-46.123-16.641a5.379 5.379 0 1 1-7.61 0 5.384 5.384 0 0 1 7.609-.002zm133.973-128.256a5.38 5.38 0 1 1-7.609 0 5.386 5.386 0 0 1 7.608-.002zm-48.5-4.754a5.381 5.381 0 1 1-7.608 0 5.385 5.385 0 0 1 7.606-.002zm-39.942 1.9a5.381 5.381 0 1 1-7.609.005 5.391 5.391 0 0 1 7.607-.007zm-53.733 16.647a5.38 5.38 0 1 1 0 7.606 5.385 5.385 0 0 1-.002-7.608zm-62.774-203.527a5.379 5.379 0 1 1 7.6 0 5.385 5.385 0 0 1-7.602-.002zm4.753 40.893a5.379 5.379 0 1 1 0 7.608 5.386 5.386 0 0 1-.002-7.61zm-1.9 39.942a5.38 5.38 0 1 1 0 7.61 5.391 5.391 0 0 1-.005-7.612zm-16.642 46.126a5.379 5.379 0 1 1 0 7.606 5.381 5.381 0 0 1-.005-7.608zm-128.26-135.166a5.38 5.38 0 1 1 0 7.608 5.385 5.385 0 0 1 0-7.608zm-4.752 56.108a5.379 5.379 0 1 1 7.608 0 5.383 5.383 0 0 1-7.608 0zm1.9 39.945a5.38 5.38 0 1 1 7.609 0 5.386 5.386 0 0 1-7.608 0zm16.643 46.123a5.38 5.38 0 1 1 7.608 0 5.385 5.385 0 0 1-7.607 0zm-210.06 61.708a5.38 5.38 0 1 1 7.609 0 5.39 5.39 0 0 1-7.609 0zm48.5-4.756a5.38 5.38 0 1 1 7.611 0 5.386 5.386 0 0 1-7.611 0zm39.946 1.9a5.379 5.379 0 1 1 7.609 0 5.385 5.385 0 0 1-7.614.003zm46.123 16.643a5.38 5.38 0 1 1 7.609 0 5.389 5.389 0 0 1-7.614.003zM833.79 1713.309a5.38 5.38 0 1 1 7.607 0 5.387 5.387 0 0 1-7.607 0zm48.5 4.754a5.38 5.38 0 1 1 7.607 0 5.388 5.388 0 0 1-7.605 0zm39.943-1.9a5.38 5.38 0 1 1 7.609 0 5.385 5.385 0 0 1-7.607-.004zm53.731-16.642a5.38 5.38 0 1 1 0-7.609 5.385 5.385 0 0 1 .002 7.605zm62.775 203.527a5.379 5.379 0 1 1-7.607 0 5.383 5.383 0 0 1 7.609-.004zm-4.752-40.895a5.38 5.38 0 1 1 0-7.608 5.382 5.382 0 0 1 .002 7.604zm1.9-39.944a5.38 5.38 0 1 1 0-7.608 5.384 5.384 0 0 1 .002 7.599zm16.642-46.123a5.379 5.379 0 1 1 0-7.608 5.382 5.382 0 0 1 .002 7.604zm128.257 135.163a5.381 5.381 0 1 1-.005-7.606 5.39 5.39 0 0 1 .007 7.602zm4.753-56.109a5.38 5.38 0 1 1-7.608 0 5.39 5.39 0 0 1 7.61-.004zm-1.905-39.943a5.379 5.379 0 1 1-7.606 0 5.381 5.381 0 0 1 7.608-.004zm-16.642-46.124a5.38 5.38 0 1 1-7.608 0 5.383 5.383 0 0 1 7.61-.004zm-82.072 33.891a119.312 119.312 0 0 1-8.268-19.229c16.3-3.131 22-18.546 23.992-28.875 1.531 4.561 2.7 7.758 3.1 8.84-.006.328-.006.858 0 1.5-.158 6.2-1.984 27.444-18.822 37.76zm-105.614-162.272c.612.008 1.122.01 1.438 0 1.082.4 4.279 1.567 8.839 3.1-10.326 1.993-25.741 7.692-28.872 23.992a119.612 119.612 0 0 1-19.23-8.268c10.333-16.852 31.696-18.663 37.825-18.824zm146.028-165.026a119.482 119.482 0 0 1 8.268 19.23c-16.3 3.129-22 18.545-23.992 28.872a324.978 324.978 0 0 0-3.1-8.841c.009-.342.012-.869 0-1.565.173-6.29 2.047-27.418 18.824-37.696zm105.686 162.267a36.86 36.86 0 0 0-1.508 0c-1.08-.4-4.277-1.567-8.839-3.1 10.327-1.992 25.743-7.691 28.872-23.99a118.714 118.714 0 0 1 19.227 8.27c-10.292 16.787-31.534 18.645-37.752 18.82zm-11.724 35.741c-12.177-2.217-20.586-6.482-24.3-12.337a12.866 12.866 0 0 1-2.1-8.129c6.6-1.6 13-3.441 18.6-5.164 3.517.059 30.476 1.228 34.155 22.215a88.232 88.232 0 0 1-23.694 3.474c-.894.006-1.777-.033-2.657-.059zm-92.35 32.179a108.705 108.705 0 0 0-3.557-4.735v-.013l-.156-.189a116.73 116.73 0 0 0-3.3-3.926 78.969 78.969 0 0 1-11.771-28.55 30.049 30.049 0 0 0 10.816-4.029c26.1 36.308 65.74 53.976 65.74 53.976s-17.868-40.077-54.586-66.171a29.84 29.84 0 0 0 3.027-10.7 80.752 80.752 0 0 1 26.5 9.764c.493.462.988.915 1.483 1.364.212.193.426.376.636.564q2.034 1.821 4.1 3.5c.14.113.281.246.422.36l.617.5h.014c2.761 2.2 5.561 4.235 8.4 6.078 24.56 25.48 27.513 63.972 27.861 73.218-9.367-.347-48.734-3.331-74.222-28.825-.698-.702-1.348-1.452-2.024-2.186zm-21.173 51.5c-3.775-10.907-12.011-36.379-13.479-54.92.322-.394.653-.784.982-1.174.617-.73 1.23-1.463 1.874-2.189.409-.46.839-.917 1.256-1.373.691-.757 1.374-1.512 2.091-2.259.454-.471.934-.936 1.4-1.407.709-.715 1.409-1.432 2.142-2.141.912-.878 1.858-1.748 2.81-2.617.313-.285.608-.574.925-.859.193.173.371.351.562.521 1.1 1 2.182 2 3.229 3.012.732.707 1.431 1.422 2.136 2.135.479.485.97.966 1.436 1.455.756.788 1.486 1.587 2.211 2.384.381.42.768.838 1.141 1.26a77.36 77.36 0 0 0 2.71 3.769c-1.579 18.492-9.686 43.592-13.426 54.403zm-49.747-118.684c-.283.315-.574.613-.86.925-.867.951-1.737 1.9-2.616 2.807-.707.736-1.426 1.435-2.142 2.144-.469.465-.934.943-1.406 1.4-.747.72-1.5 1.4-2.257 2.091-.458.418-.913.85-1.373 1.257-.728.645-1.461 1.258-2.192 1.875-.391.328-.782.66-1.171.982-18.537-1.469-44.013-9.7-54.92-13.48 10.909-3.774 36.381-12.006 54.92-13.475.174.143.349.284.522.428q1.265 1.048 2.517 2.152c.336.3.672.594 1.01.9q1.266 1.145 2.521 2.339c.356.339.712.678 1.065 1.025.648.632 1.292 1.279 1.934 1.932a139.376 139.376 0 0 1 4.364 4.615.73.73 0 0 1 .084.083zm-1.846-87.761l.314-.3a87.473 87.473 0 0 1 24.994 17.15c.51.51.969 1.057 1.461 1.579q2.7 4.144 5.92 8.169v.018l.5.615c.126.155.271.31.4.465q1.319 1.617 2.718 3.211a80.567 80.567 0 0 1 10.133 27.159 29.753 29.753 0 0 0-10.7 3.024c-26.095-36.718-66.176-54.587-66.176-54.587s17.672 39.641 53.977 65.742a30.1 30.1 0 0 0-4.029 10.82c-15.666-3.2-28.982-10.194-39.6-20.812-25.463-25.464-28.467-64.856-28.819-74.224 6.5.24 27.433 1.76 48.155 11.171.408.446.672.721.752.8zm50.3-29.634c3.775 10.907 12.013 36.376 13.48 54.918-.321.392-.653.783-.982 1.172-.62.734-1.231 1.465-1.875 2.193-.407.46-.837.915-1.256 1.373-.689.754-1.372 1.508-2.091 2.255-.454.473-.934.94-1.4 1.408-.707.716-1.408 1.435-2.142 2.144-.912.876-1.858 1.748-2.809 2.614-.313.286-.609.577-.926.86-.156-.141-.3-.283-.456-.424a142.172 142.172 0 0 1-3.368-3.143c-.609-.592-1.188-1.189-1.781-1.782-.617-.619-1.238-1.234-1.835-1.858-.63-.658-1.235-1.324-1.845-1.99-.47-.514-.941-1.028-1.4-1.543a77.249 77.249 0 0 0-2.709-4.132c1.653-18.463 9.683-43.321 13.397-54.065zm-28.415 117.246l1.168.208.194-2.2a25.91 25.91 0 0 1 25.582-23.641l2.344-.024-.009-.075.256.024a25.906 25.906 0 0 1 23.64 25.579v.729a25.927 25.927 0 0 1-23.64 25.58l-.951.084-1.784-.016a25.925 25.925 0 0 1-25.582-23.644l-.2-2.2-1.024.185.008-.589zm86.023 9.462c-.906-.851-1.82-1.693-2.708-2.582a140.696 140.696 0 0 1-5.154-5.444c.284-.315.578-.611.861-.925.868-.952 1.738-1.9 2.616-2.809.709-.735 1.426-1.433 2.144-2.142.466-.465.932-.943 1.406-1.4.747-.718 1.5-1.4 2.255-2.091.459-.418.915-.848 1.374-1.255.726-.647 1.461-1.26 2.192-1.877.389-.328.78-.66 1.171-.982 18.537 1.468 44.013 9.7 54.92 13.48-10.6 3.668-34.948 11.531-53.33 13.318a77.732 77.732 0 0 0-7.745-5.291zm58.592-2.9c4.559-1.531 7.75-2.694 8.83-3.1.334.006.838.008 1.5 0 6.209.176 27.452 2.026 37.754 18.8a119.745 119.745 0 0 1-19.223 8.277c-3.131-16.285-18.533-21.984-28.859-23.978zm-9.2-13.214c-5.586-1.721-11.991-3.557-18.583-5.163a12.869 12.869 0 0 1 2.1-8.13c3.722-5.866 12.142-10.133 24.345-12.346a87.684 87.684 0 0 1 26.306 3.433c-3.691 20.992-30.69 22.148-34.169 22.205zm-19.965-15.333a17.192 17.192 0 0 0-2.7 9.219c-5.411-1.219-10.851-2.234-15.975-2.859a87.737 87.737 0 0 1 25.2-13.039 23.2 23.2 0 0 0-6.526 6.678zm-36.539 16.733c-.314.326-.636.635-.952.965-.016.021-.037.038-.055.058q-1.992 2.1-3.952 4.338l-1.163 1.33 1.163 1.326c.378.433.765.844 1.146 1.27a87.157 87.157 0 0 0-11.757-3.8 84.353 84.353 0 0 0 15.569-5.488zm-55.248-41.94c.515.478 1.051.948 1.576 1.423.617.56 1.222 1.124 1.851 1.675l1.327 1.163 1.331-1.163a151.371 151.371 0 0 0 3.827-3.481 86.236 86.236 0 0 0-5.228 16.413 88.811 88.811 0 0 0-4.685-16.031zm18.96-35.706a17.194 17.194 0 0 0 9.218-2.691 23.246 23.246 0 0 0 6.678-6.539 87.532 87.532 0 0 1-13.037 25.2c-.624-5.118-1.641-10.559-2.86-15.971zm19.525-30.52c-2.211 12.2-6.48 20.622-12.346 24.344a12.872 12.872 0 0 1-8.13 2.1c-1.6-6.592-3.441-13-5.163-18.582.059-3.479 1.214-30.48 22.207-34.169a87.5 87.5 0 0 1 3.431 26.305zm-35.758-10.174c-.4 1.082-1.564 4.275-3.1 8.833-1.995-10.325-7.693-25.729-23.979-28.863a119.679 119.679 0 0 1 8.275-19.224c16.776 10.3 18.63 31.537 18.8 37.75a57.78 57.78 0 0 0 .003 1.503zm-6.058 18.022c-1.722 5.589-3.557 11.993-5.161 18.587a12.992 12.992 0 0 1-8.034-2.029c-5.906-3.689-10.194-12.092-12.424-24.309-.027-.906-.07-1.807-.067-2.719a88.321 88.321 0 0 1 3.472-23.687c20.983 3.679 22.153 30.64 22.217 34.156zm-19.084 16.98a21.277 21.277 0 0 0 3.751 3 17.2 17.2 0 0 0 9.216 2.689c-1.142 5.088-2.1 10.195-2.736 15.044q-1.7-2.07-3.54-4.031a84.954 84.954 0 0 1-9.636-20.3 26.453 26.453 0 0 0 2.944 3.597zm-55.877 74.536a17.2 17.2 0 0 0-2.69-9.214 23.2 23.2 0 0 0-6.537-6.682 87.729 87.729 0 0 1 25.186 13.041c-5.119.624-10.553 1.637-15.96 2.854zm-30.456-19.51c12.168 2.217 20.57 6.478 24.282 12.335a12.867 12.867 0 0 1 2.1 8.128c-6.6 1.6-13.006 3.439-18.592 5.165-3.517-.061-30.481-1.234-34.159-22.217a88.352 88.352 0 0 1 23.687-3.47c.895-.005 1.788.032 2.681.058zm-23.091 18.236c6.236 6.238 15.021 9.063 21.691 10.351-4.56 1.53-7.755 2.7-8.836 3.1a41.486 41.486 0 0 0-1.518 0c-6.232-.174-27.441-2.037-37.736-18.8a119.7 119.7 0 0 1 19.226-8.278 25.718 25.718 0 0 0 7.172 13.626zm30.888 23.567c5.585 1.723 11.992 3.559 18.583 5.161a12.878 12.878 0 0 1-2.1 8.132c-3.723 5.866-12.143 10.133-24.345 12.346a87.585 87.585 0 0 1-26.307-3.432c3.692-20.994 30.692-22.15 34.168-22.208zm19.969 15.333a17.211 17.211 0 0 0 2.691-9.217c5.412 1.217 10.851 2.231 15.975 2.857a87.653 87.653 0 0 1-25.205 13.039 23.235 23.235 0 0 0 6.538-6.68zm36.774-16.974c.236-.246.477-.476.713-.725.018-.02.037-.037.055-.055q1.992-2.106 3.953-4.34l1.163-1.33-1.163-1.329c-.541-.617-1.1-1.2-1.643-1.8-.867-.957-1.73-1.921-2.605-2.84a88.436 88.436 0 0 0 18.657 5.563 26.09 26.09 0 0 0 0 1.119 87.446 87.446 0 0 0-19.131 5.736zm54.058 41.341c-.179-.165-.358-.33-.539-.493-.648-.587-1.272-1.185-1.936-1.765l-1.329-1.162-1.329 1.162q-2.239 1.959-4.34 3.955c-.019.016-.036.036-.056.055-.785.744-1.532 1.5-2.29 2.252a86.228 86.228 0 0 0 6.587-20.612 87.368 87.368 0 0 0 5.231 16.607zm-18.01 36.548a17.17 17.17 0 0 0-9.217 2.691 23.181 23.181 0 0 0-6.677 6.536 87.621 87.621 0 0 1 13.036-25.2c.624 5.119 1.639 10.558 2.857 15.972zm-19.523 30.518c2.212-12.2 6.479-20.622 12.347-24.344a12.847 12.847 0 0 1 8.128-2.1c1.606 6.592 3.442 12.995 5.165 18.58-.059 3.479-1.215 30.481-22.208 34.168a87.571 87.571 0 0 1-3.433-26.305zm35.755 10.175c.4-1.08 1.563-4.277 3.1-8.837 1.287 6.671 4.112 15.454 10.349 21.692a25.743 25.743 0 0 0 13.629 7.173 119.568 119.568 0 0 1-8.276 19.226c-16.772-10.294-18.629-31.521-18.8-37.744.01-.673.006-1.18-.002-1.51zm6.056-18.024c1.722-5.585 3.558-11.991 5.163-18.583a13 13 0 0 1 8.035 2.027c5.905 3.682 10.194 12.091 12.422 24.311.028.9.072 1.806.068 2.718a88.287 88.287 0 0 1-3.472 23.684c-20.985-3.682-22.152-30.641-22.214-34.159zm15.333-19.977a17.178 17.178 0 0 0-9.215-2.691c1.193-5.308 2.192-10.637 2.819-15.673.426.482.846.963 1.284 1.439a86.493 86.493 0 0 1 11.791 23.459 23.177 23.177 0 0 0-6.677-6.533zm48.041-65.905a81.46 81.46 0 0 0-3.121-2.939c4.749-.629 9.74-1.577 14.708-2.693a17.187 17.187 0 0 0 2.7 9.216 21.017 21.017 0 0 0 3 3.751 26.355 26.355 0 0 0 3.608 2.955 85.229 85.229 0 0 1-20.209-9.575c-.233-.238-.449-.483-.684-.717zm95.065-.964c-6.806-11.245-17.7-16.466-26.856-18.87 9.163-2.408 20.061-7.633 26.864-18.893a145.258 145.258 0 0 1 25.855 18.891 146.38 146.38 0 0 1-25.858 18.87zm-69.1-118.179c-.5 12.986-6.2 83.471-70.035 95.346a29.759 29.759 0 0 0-3.027-10.7c36.718-26.1 54.59-66.172 54.59-66.172s-39.643 17.67-65.744 53.977a30.084 30.084 0 0 0-10.813-4.026c12.727-62.267 82.155-67.92 95.034-68.427zm-79.821-68.514c-11.262 6.8-16.488 17.7-18.9 26.861-2.4-9.154-7.623-20.047-18.869-26.852a145.92 145.92 0 0 1 18.874-25.863 144.966 144.966 0 0 1 18.899 25.852zM937.972 1619.79a38.292 38.292 0 0 0 5.672 7.283c6.384 6.383 14.272 9.781 21.173 11.594-9.161 2.406-20.06 7.632-26.868 18.9a145.054 145.054 0 0 1-25.852-18.891 145.875 145.875 0 0 1 25.875-18.886zm67.149 118.936c.5-12.88 6.1-82.308 68.424-95.033a30.132 30.132 0 0 0 4.03 10.816c-36.3 26.1-53.976 65.742-53.976 65.742s40.08-17.869 66.171-54.589a29.822 29.822 0 0 0 10.7 3.028c-11.87 63.78-82.362 69.522-95.349 70.036zm81.757 67.765c11.263-6.807 16.489-17.7 18.895-26.865 1.812 6.9 5.21 14.784 11.6 21.172a38.335 38.335 0 0 0 7.28 5.673 146.012 146.012 0 0 1-18.88 25.873 145 145 0 0 1-18.895-25.853z" class="cls-2" data-name="Path 9"/>
        <path id="Path_10" d="M1161.057 1861.5l9.082-13.411-12.1 10.772c-22.271 19.836-27.3 36.469-27.607 46.93-.305 10.589 4 17.126 5.173 18.295l.535.534 20.033 1.337-3.385-3.707c-18.658-20.44 7.996-60.35 8.269-60.75zm-18.286 49.175l-7.691 2.258a30.463 30.463 0 0 1-.6-6.9l7.676.086a36.733 36.733 0 0 0 .615 4.555zm.225-16.7a53.429 53.429 0 0 0-.9 8.1l-7.281-.079a41.668 41.668 0 0 1 2.1-8.224zm-4.432-4.181a60.043 60.043 0 0 1 3.358-6.235l3.975-.448a80.145 80.145 0 0 0-2.042 6.852zm8.924-10.923l-2.654.3a89.5 89.5 0 0 1 5.617-7.044 110.796 110.796 0 0 0-2.963 6.743zm-9.428 41.837a19.2 19.2 0 0 1-1.882-3.89l7.6-2.235a28.66 28.66 0 0 0 3.183 6.716z" class="cls-2" data-name="Path 10"/>
        <path id="Path_11" d="M1120.848 1857.017a4.888 4.888 0 0 0-.563-.494l-.193-.14-13.838 1.376 1.241.971a21.87 21.87 0 0 1 1.948 1.728c15.932 15.93.092 51.031-.071 51.384l-2.125 4.629 3.192-3.967c29.052-36.092 11.183-54.713 10.409-55.487zm1.279 34.194l-5.448 1.555a67.7 67.7 0 0 0 1.1-8.452l6.9-.927a50.427 50.427 0 0 1-2.552 7.824zm3.432-19.756l-8.44 1.31a29.785 29.785 0 0 0-1.669-5.467l8.01-3.879a26.953 26.953 0 0 1 2.099 8.036zm-16.114-12.741l10.278-1.019c.067.062.142.132.228.218a17.818 17.818 0 0 1 2.969 4.359l-7.984 3.867a23.347 23.347 0 0 0-4.6-6.575 18.915 18.915 0 0 0-.891-.85zm7.9 15.3l8.325-1.292a35.446 35.446 0 0 1-.693 9.348l-7.125.958a44.249 44.249 0 0 0-.505-9.016zm-.952 20.149l5.066-1.442a82.348 82.348 0 0 1-9.149 15.3 96.339 96.339 0 0 0 4.09-13.86z" class="cls-2" data-name="Path 11"/>
        <path id="Path_12" d="M1097.059 1470.479a15.339 15.339 0 0 0 4.951 11.1q.535.537 1.147 1.069l1.328 1.163 1.329-1.163c3.894-3.406 5.944-7.318 6.086-11.626.249-7.444-5.336-13.254-6-13.922l-1.415-1.39-1.414 1.39c-.246.241-5.977 5.957-6.012 13.379zm10.809.413a11.337 11.337 0 0 1-3.385 7.446 11.261 11.261 0 0 1-3.389-7.816c.009-3.69 1.979-6.981 3.392-8.869 1.463 1.947 3.514 5.376 3.382 9.239z" class="cls-2" data-name="Path 12"/>
        <path id="Path_13" d="M1150.624 1414.935c1.8 1.8 3.734 3.625 5.754 5.423l12.1 10.773-9.084-13.411c-.272-.4-26.927-40.311-8.263-60.751l3.382-3.708-20.03 1.335-.535.537c-4.28 4.279-14.758 28.367 16.676 59.802zm-15.324-29.494a41.133 41.133 0 0 1-2.062-8.223l7.195-.08a53.236 53.236 0 0 0 .9 8.109zm6.893 3.817a80.864 80.864 0 0 0 2.039 6.852l-3.979-.447a59.261 59.261 0 0 1-3.331-6.236zm-9.271-16.07a30.993 30.993 0 0 1 .593-6.872l7.592 2.23a35.746 35.746 0 0 0-.613 4.558zm10.234 26.861l2.67.3c.959 2.4 1.968 4.68 2.971 6.761a88.481 88.481 0 0 1-5.641-7.061zm2.147-42.129a28.561 28.561 0 0 0-3.186 6.717l-7.52-2.209a21.3 21.3 0 0 1 1.848-3.917z" class="cls-2" data-name="Path 13"/>
        <path id="Path_14" d="M1105.83 1420.487l-1.238.974 13.839 1.374.193-.139c1-.712 5.271-5.414 6.423-13.827 1.174-8.555-.7-22.814-16.268-42.153l-3.2-3.968 2.125 4.629c.179.38 17.208 38.132-1.874 53.11zm9.2-34.028l5.389 1.535a51.27 51.27 0 0 1 2.578 7.835l-6.854-.92a67.973 67.973 0 0 0-1.117-8.45zm3.036 35.067l-10.28-1.021a23.222 23.222 0 0 0 5.5-7.418l7.983 3.865a16.357 16.357 0 0 1-3.207 4.574zm3.761-5.712l-8.013-3.88a29.662 29.662 0 0 0 1.656-5.477l8.428 1.31c-.033.311-.062.63-.1.929a26.864 26.864 0 0 1-1.975 7.118zm2.173-9.314l-8.292-1.289a43.878 43.878 0 0 0 .494-9.014l7.071.947a35.879 35.879 0 0 1 .727 9.356zm-4.228-20.007l-5.028-1.429a96.387 96.387 0 0 0-4.09-13.85 82.011 82.011 0 0 1 9.115 15.278z" class="cls-2" data-name="Path 14"/>
        <path id="Path_15" d="M1049.2 1417.128l-9.083 13.411 12.1-10.775c22.269-19.835 27.3-36.468 27.607-46.929.305-10.59-4-17.124-5.174-18.3l-.536-.535-20.032-1.337 3.385 3.709c18.659 20.443-7.995 60.354-8.267 60.756zm18.283-49.176l7.692-2.261a30.313 30.313 0 0 1 .6 6.9l-7.674-.083a36.182 36.182 0 0 0-.618-4.556zm-.223 16.7a53.482 53.482 0 0 0 .9-8.107l7.28.08a41.448 41.448 0 0 1-2.1 8.224zm4.431 4.18a60.682 60.682 0 0 1-3.356 6.235l-3.976.448a80.31 80.31 0 0 0 2.041-6.853zm-8.923 10.923l2.654-.3a89.69 89.69 0 0 1-5.618 7.042 108.58 108.58 0 0 0 2.964-6.742zm9.428-41.835a19.248 19.248 0 0 1 1.884 3.888l-7.606 2.235a28.646 28.646 0 0 0-3.183-6.717z" class="cls-2" data-name="Path 15"/>
        <path id="Path_16" d="M1089.41 1421.608a4.943 4.943 0 0 0 .558.494l.2.137 13.838-1.371-1.24-.973a22.847 22.847 0 0 1-1.951-1.727c-15.929-15.931-.088-51.032.074-51.385l2.124-4.63-3.194 3.968c-29.055 36.091-11.183 54.711-10.409 55.487zm-1.28-34.2l5.448-1.553a66.941 66.941 0 0 0-1.1 8.453l-6.9.924a50.268 50.268 0 0 1 2.552-7.819zm-3.433 19.757l8.44-1.311a29.644 29.644 0 0 0 1.669 5.467l-8.01 3.88a26.857 26.857 0 0 1-2.096-8.031zm16.114 12.741l-10.277 1.019a5.82 5.82 0 0 1-.229-.218 17.908 17.908 0 0 1-2.969-4.359l7.982-3.865a23.476 23.476 0 0 0 4.6 6.576c.282.294.582.575.893.852zm-7.9-15.3l-8.326 1.294a35.426 35.426 0 0 1 .691-9.351l7.128-.957a43.955 43.955 0 0 0 .506 9.02zm.949-20.149l-5.062 1.441a82.422 82.422 0 0 1 9.148-15.3 96.422 96.422 0 0 0-4.087 13.865z" class="cls-2" data-name="Path 16"/>
        <path id="Path_17" d="M1260.624 1639.954l1.163 1.328q.532.612 1.072 1.15a15.348 15.348 0 0 0 11.1 4.949c7.421-.034 13.138-5.767 13.376-6.009l1.39-1.438-1.413-1.416c-.639-.638-6.45-6.227-13.9-5.979-4.306.146-8.218 2.192-11.625 6.089zm12.924-3.381c3.863-.13 7.3 1.916 9.236 3.379-1.887 1.416-5.177 3.385-8.863 3.4a4.573 4.573 0 1 1-.373-6.774z" class="cls-2" data-name="Path 17"/>
        <path id="Path_18" d="M1313.307 1575.962l10.775 12.1c1.8 2.018 3.623 3.955 5.424 5.755 31.435 31.436 55.521 20.957 59.8 16.678l.538-.536 1.332-20.029-3.706 3.383c-20.444 18.663-60.351-7.993-60.75-8.261zm53.917 35.24a41.453 41.453 0 0 1-8.226-2.06l.2-6.034a53.076 53.076 0 0 0 8.108.9zm-12.212-3.683a59.787 59.787 0 0 1-6.233-3.33l-.448-3.982a79.708 79.708 0 0 0 6.853 2.044zm16.242 4l.083-7.572a36.188 36.188 0 0 0 4.559-.613l2.228 7.592a31.023 31.023 0 0 1-6.87.594zm14.676-3.525a21.286 21.286 0 0 1-3.916 1.848l-2.211-7.521a28.581 28.581 0 0 0 6.719-3.184zm-41.841-9.381l.3 2.669a88.346 88.346 0 0 1-7.067-5.642 108.328 108.328 0 0 0 6.767 2.974z" class="cls-2" data-name="Path 18"/>
        <path id="Path_19" d="M1335.574 1619.393c-8.416 1.151-13.118 5.428-13.83 6.424l-.138.194 1.373 13.84.972-1.244c14.979-19.08 52.733-2.049 53.112-1.877l4.631 2.125-3.969-3.194c-19.34-15.567-33.598-17.439-42.151-16.268zm.171 1.255c.3-.041.617-.069.929-.1l1.31 8.43a29.729 29.729 0 0 0-5.477 1.654l-3.879-8.014a26.628 26.628 0 0 1 7.117-1.97zm-11.807 16.009l-1.024-10.279a16.317 16.317 0 0 1 4.574-3.205l3.866 7.982a23.232 23.232 0 0 0-7.416 5.502zm25.593-8.355l-.919-6.856a51.978 51.978 0 0 1 7.834 2.576l1.534 5.394a67.159 67.159 0 0 0-8.449-1.116zm9.848 1.4l-1.431-5.026a81.992 81.992 0 0 1 15.281 9.115 96.7 96.7 0 0 0-13.85-4.091zm-12.081-8.529l.945 7.07a43.876 43.876 0 0 0-9.012.5l-1.29-8.3a35.758 35.758 0 0 1 9.359.727z" class="cls-2" data-name="Path 19"/>
        <path id="Path_20" d="M1324.677 1692.228l-10.8 12.124 13.435-9.111c.4-.274 40.289-26.944 60.749-8.263l3.709 3.383-1.338-20.033-.536-.534c-1.17-1.169-7.7-5.479-18.291-5.173-10.459.302-27.092 5.336-46.928 27.607zm20.306-13.207l-.3 2.652a112.068 112.068 0 0 0-6.744 2.963 89.316 89.316 0 0 1 7.044-5.615zm22.913-2.739a53.333 53.333 0 0 0-8.108.9l-.195-6.078a41.405 41.405 0 0 1 8.223-2.1zm-12.116 1.76a80.07 80.07 0 0 0-6.854 2.038l.446-3.974a60.492 60.492 0 0 1 6.237-3.357zm16.152-1.7l-.083-7.674a30.5 30.5 0 0 1 6.9.6l-2.262 7.691a36.558 36.558 0 0 0-4.555-.618zm15.182 4.808a28.675 28.675 0 0 0-6.716-3.182l2.236-7.609a19.344 19.344 0 0 1 3.888 1.885z" class="cls-2" data-name="Path 20"/>
        <path id="Path_21" d="M1326.274 1643.628a21.593 21.593 0 0 1-1.722-1.946l-.977-1.241-1.373 13.837.141.2a4.636 4.636 0 0 0 .493.56c.78.778 19.4 18.646 55.487-10.406l3.969-3.2-4.633 2.128c-.354.158-35.445 16.001-51.385.068zm12.307 7.674l-1.309 8.443a26.967 26.967 0 0 1-8.038-2.1l3.878-8.01a29.835 29.835 0 0 0 5.469 1.665zm-15.069 2.6l1.018-10.277c.277.308.558.6.846.892a23.442 23.442 0 0 0 6.575 4.6l-3.867 7.983a17.953 17.953 0 0 1-4.357-2.968 3.794 3.794 0 0 1-.215-.225zm25.693 4.955l.923-6.9a67.912 67.912 0 0 0 8.452-1.1l-1.553 5.45a50.026 50.026 0 0 1-7.827 2.555zm9.33-3.216l1.443-5.066a96.329 96.329 0 0 0 13.853-4.085 82.315 82.315 0 0 1-15.296 9.156zm-9.7-3.609l-.953 7.129a35.523 35.523 0 0 1-9.353.691l1.294-8.328a43.881 43.881 0 0 0 9.017.513z" class="cls-2" data-name="Path 21"/>
        <path id="Path_22" d="M1241.728 1787.3c-7.706-13.683-19.024-22.707-31.636-17.867-15.227 5.842-12.034 27.03-3.112 36.839s21.271 17.7 33.184 7.916c0-.005 11.517-9.223 1.564-26.888zm-26.609.275c-2.94-10.2-8.791-14.384-8.791-14.384 8.271 1.487 11.519 6.27 16.666 20.821s16.024 18.769 16.024 18.769c-16.89 1.247-20.961-15.009-23.899-25.211z" class="cls-2" data-name="Path 22"/>
        <path id="Path_23" d="M1309.727 1799.479c15.871.261 32.89-4.043 34.115-22.463 0 0 1.4-17.6-22.177-23.414-18.265-4.5-35.417-2.022-41.538 12.951-7.39 18.079 13.722 32.67 29.6 32.926zm-29.4-26.559c8.079-6 14.917-4.911 31.833 2.532s29.52 1.414 29.52 1.414c-12.755 15.759-30.278 5.979-41.595.182s-19.762-4.128-19.762-4.128z" class="cls-2" data-name="Path 23"/>
        <path id="Path_24" d="M1266.559 1876.648c5.86-10.236 5.383-23-1.171-31.042-7.175-8.823-17.374-9.1-24.3-5.483-6.266 3.28-11.4 10.746-8.719 20.04 2.765 9.609 9.415 12.27 14.713 11.553 5.8-.785 10.386-5.274 10.441-10.219l-4.035-.043c-.035 2.89-3.213 5.759-6.946 6.264-2.26.3-7.781.071-10.3-8.672-2.184-7.592 2.252-13.012 6.712-15.347 5.471-2.861 13.55-2.606 19.3 4.454 5.519 6.78 5.847 17.67.8 26.489-4.715 8.231-12.517 12.168-21.41 10.794a23.861 23.861 0 0 1-19.666-18.2c-2.842-11.382 2.017-23.089 13-31.318 23.448-17.556 53.406-5.362 53.88-5.175.593.186 14.657 4.505 23.73-2.351 5.007-3.785 7.415-10.107 7.166-18.792l-4.034.113c.214 7.3-1.659 12.5-5.557 15.451-7.39 5.6-19.936 1.781-19.921 1.793-1.308-.548-32.361-13.229-57.681 5.735-12.33 9.234-17.748 22.512-14.5 35.522a28.768 28.768 0 0 0 7.515 13.45 27.669 27.669 0 0 0 15.452 7.766c10.478 1.61 20.022-3.166 25.531-12.782z" class="cls-2" data-name="Path 24"/>
        <path id="Path_25" d="M1270.315 1788.837c-4.074.121-6.94-.878-8.544-2.979-3.069-4.036-.974-11.072-.982-11.082.338-.806 8.048-19.75-3.554-35.207-5.719-7.617-13.955-10.954-22.04-8.925a17.4 17.4 0 0 0-13.247 14.379 15.024 15.024 0 0 0 4.267 13.19 17.933 17.933 0 0 0 3.765 2.852c6.4 3.656 14.388 3.329 19.435-.789a12.309 12.309 0 0 0 3.462-15.511 10.894 10.894 0 0 0-12.9-5.589c-6.231 1.8-7.94 6.179-7.465 9.678.527 3.847 3.555 6.887 6.9 6.92l.039-4.035c-1.312-.014-2.687-1.615-2.938-3.433-.328-2.4 1.343-4.318 4.585-5.254a6.876 6.876 0 0 1 8.209 3.588 8.258 8.258 0 0 1-2.437 10.511c-3.786 3.085-9.9 3.258-14.881.414-2.177-1.246-7.129-4.9-6.051-11.932a13.435 13.435 0 0 1 10.241-11.077c6.459-1.618 13.122 1.156 17.835 7.433 10.2 13.591 3.128 31.057 2.993 31.4-.118.371-2.8 9.151 1.542 14.888 2.435 3.2 6.429 4.747 11.89 4.585z" class="cls-2" data-name="Path 25"/>
        <path id="Path_26" d="M957.143 1502.71c-17.668-9.95-26.886 1.566-26.886 1.566-9.783 11.913-1.893 24.26 7.914 33.18s31 12.117 36.842-3.107c4.837-12.615-4.186-23.929-17.87-31.639zm14.11 35.4s-4.181-5.847-14.383-8.788-26.46-7.011-25.208-23.9c0 0 4.227 10.874 18.769 16.023s19.337 8.395 20.822 16.665z" class="cls-2" data-name="Path 26"/>
        <path id="Path_27" d="M990.836 1422.772c-5.807-23.578-23.411-22.175-23.411-22.175-18.423 1.226-22.726 18.244-22.465 34.115s14.846 36.989 32.927 29.6c14.97-6.122 17.448-23.276 12.949-41.54zm-23.446 21.585c-5.8-11.316-15.577-28.837.182-41.593 0 0-6.021 12.6 1.415 29.521s8.53 23.752 2.532 31.833c0 0 1.672-8.447-4.129-19.761z" class="cls-2" data-name="Path 27"/>
        <path id="Path_28" d="M876.228 1526.37c13.01 3.252 26.29-2.168 35.524-14.5 18.964-25.321 6.282-56.372 5.795-57.506-.039-.125-3.876-12.7 1.729-20.1 2.955-3.9 8.153-5.769 15.452-5.559l.117-4.03c-8.688-.252-15.01 2.16-18.794 7.166-6.857 9.07-2.538 23.133-2.289 23.9.126.3 12.318 30.261-5.24 53.705-8.226 10.984-19.933 15.844-31.315 13a23.859 23.859 0 0 1-18.2-19.664c-1.373-8.891 2.562-16.693 10.794-21.41 8.818-5.051 19.711-4.723 26.488.8 7.051 5.76 7.317 13.833 4.455 19.305-2.334 4.462-7.754 8.9-15.346 6.712-8.744-2.521-8.978-8.04-8.672-10.3.505-3.73 3.374-6.911 6.263-6.944l-.045-4.035c-4.945.056-9.431 4.642-10.216 10.438-.718 5.3 1.941 11.948 11.553 14.715 9.293 2.675 16.761-2.45 20.038-8.718 3.622-6.925 3.326-17.127-5.481-24.3-8.044-6.55-20.808-7.028-31.044-1.166-9.615 5.507-14.392 15.049-12.776 25.523a27.667 27.667 0 0 0 7.764 15.453 28.746 28.746 0 0 0 13.446 7.515z" class="cls-2" data-name="Path 28"/>
        <path id="Path_29" d="M999.414 1522.492a17.4 17.4 0 0 0 14.377-13.246c2.027-8.087-1.316-16.326-8.924-22.043-15.461-11.6-34.409-3.886-35.03-3.617-.071.023-7.187 2.175-11.256-.916-2.1-1.6-3.1-4.471-2.979-8.544l-4.033-.122c-.162 5.459 1.372 9.455 4.585 11.889 5.738 4.342 14.516 1.661 15.063 1.48.175-.073 17.593-7.175 31.227 3.056 6.276 4.715 9.053 11.378 7.434 17.833a13.436 13.436 0 0 1-11.076 10.243c-7.033 1.074-10.686-3.875-11.931-6.05-2.845-4.977-2.674-11.1.414-14.88a8.255 8.255 0 0 1 10.512-2.439 6.879 6.879 0 0 1 3.588 8.209c-.938 3.242-2.855 4.913-5.257 4.585-1.816-.249-3.419-1.626-3.433-2.939l-4.033.039c.03 3.344 3.069 6.373 6.92 6.9 3.5.476 7.877-1.232 9.678-7.462a10.893 10.893 0 0 0-5.591-12.9 12.308 12.308 0 0 0-15.51 3.462c-4.119 5.05-4.444 13.04-.791 19.434a17.812 17.812 0 0 0 2.855 3.767 15.032 15.032 0 0 0 13.191 4.261z" class="cls-2" data-name="Path 29"/>
        <path id="Path_30" d="M957.144 1780.493c13.683-7.71 22.708-19.024 17.871-31.639-5.845-15.226-27.031-12.034-36.842-3.107s-17.7 21.268-7.915 33.18c0 0 9.219 11.516 26.886 1.566zm-.274-26.614c10.2-2.939 14.383-8.788 14.383-8.788-1.484 8.272-6.27 11.518-20.819 16.663s-18.772 16.023-18.772 16.023c-1.251-16.885 15.008-20.954 25.208-23.898z" class="cls-2" data-name="Path 30"/>
        <path id="Path_31" d="M977.888 1818.892c-18.08-7.391-32.669 13.72-32.925 29.6s4.04 32.889 22.462 34.115c0 0 17.606 1.4 23.413-22.176 4.498-18.264 2.021-35.418-12.95-41.539zm-10.5 19.954c5.8-11.315 4.129-19.759 4.129-19.759 6 8.077 4.91 14.915-2.532 31.831s-1.414 29.521-1.414 29.521c-15.757-12.755-5.977-30.279-.179-41.593z" class="cls-2" data-name="Path 31"/>
        <path id="Path_32" d="M919.279 1848.93c-5.593-7.38-1.785-19.911-1.794-19.919.55-1.313 13.234-32.364-5.732-57.684-9.233-12.332-22.511-17.748-35.524-14.5a27.833 27.833 0 0 0-21.212 22.964 23.88 23.88 0 0 0 6.789 20.985 28.346 28.346 0 0 0 5.988 4.539c10.235 5.863 23 5.381 31.043-1.168 8.811-7.177 9.1-17.376 5.48-24.3-3.276-6.268-10.744-11.394-20.037-8.719-9.613 2.765-12.272 9.414-11.553 14.712.784 5.8 5.271 10.385 10.216 10.442l.045-4.034c-2.889-.035-5.76-3.216-6.265-6.949-.3-2.257-.072-7.776 8.673-10.3 7.593-2.185 13.017 2.251 15.346 6.711 2.861 5.473 2.594 13.564-4.454 19.306-6.777 5.52-17.67 5.848-26.488.8-8.228-4.713-12.167-12.517-10.8-21.411a23.861 23.861 0 0 1 18.205-19.665c11.381-2.842 23.087 2.012 31.316 13 17.558 23.444 5.366 53.405 5.176 53.878-.185.593-4.5 14.66 2.351 23.729 3.778 5.006 10.108 7.417 18.795 7.167l-.116-4.035c-7.296.221-12.498-1.662-15.448-5.549z" class="cls-2" data-name="Path 32"/>
        <path id="Path_33" d="M1004.867 1796c7.618-5.717 10.953-13.957 8.924-22.042a17.407 17.407 0 0 0-14.375-13.246c-6.6-1.011-12.594 1.995-16.046 8.036-3.654 6.392-3.329 14.383.789 19.433a12.322 12.322 0 0 0 15.512 3.462 10.892 10.892 0 0 0 5.591-12.9c-1.8-6.228-6.184-7.94-9.68-7.462-3.849.525-6.888 3.556-6.92 6.9l4.034.041c.014-1.318 1.616-2.69 3.432-2.939 2.4-.332 4.319 1.339 5.259 4.585a6.882 6.882 0 0 1-3.59 8.209 8.26 8.26 0 0 1-10.51-2.439c-3.09-3.785-3.259-9.9-.416-14.88 1.247-2.177 4.9-7.128 11.933-6.05a13.425 13.425 0 0 1 11.074 10.242c1.621 6.457-1.158 13.124-7.434 17.832-13.587 10.2-31.054 3.127-31.4 2.993-.371-.116-9.15-2.8-14.888 1.545-3.206 2.428-4.748 6.428-4.585 11.889l4.032-.122c-.121-4.073.88-6.948 2.98-8.544 4.042-3.075 11.1-.968 11.08-.982.806.329 19.747 8.039 35.204-3.561z" class="cls-2" data-name="Path 33"/>
        <path id="Path_34" d="M1240.164 1469.021c-11.911-9.785-24.259-1.891-33.18 7.914s-12.119 31 3.108 36.84c12.615 4.839 23.93-4.184 31.639-17.869 9.95-17.668-1.567-26.885-1.567-26.885zm-33.836 41s5.853-4.182 8.788-14.384 7.014-26.459 23.9-25.21c0 0-10.875 4.229-16.024 18.771s-8.392 19.332-16.664 20.819z" class="cls-2" data-name="Path 34"/>
        <path id="Path_35" d="M1280.129 1516.649c6.119 14.973 23.275 17.45 41.538 12.953 23.579-5.81 22.177-23.414 22.177-23.414-1.227-18.422-18.244-22.725-34.115-22.464s-36.988 14.847-29.6 32.925zm19.954-10.494c11.315-5.8 28.838-15.578 41.595.182 0 0-12.606-6.022-29.522 1.413s-23.752 8.529-31.831 2.533c0 0 8.444 1.672 19.758-4.128z" class="cls-2" data-name="Path 35"/>
        <path id="Path_36" d="M1227.689 1446.3a45.209 45.209 0 0 0 4.877 4.216c25.321 18.963 56.372 6.282 57.506 5.8.125-.037 12.7-3.875 20.1 1.732 3.891 2.958 5.769 8.148 5.559 15.45l4.03.115c.255-8.684-2.155-15.01-7.166-18.792-9.07-6.857-23.137-2.54-23.9-2.289-.3.126-30.211 12.353-53.7-5.24-10.981-8.222-15.843-19.934-13-31.316a23.85 23.85 0 0 1 19.661-18.2c8.894-1.373 16.7 2.563 21.411 10.793 5.052 8.819 4.724 19.711-.8 26.49-5.744 7.048-13.835 7.314-19.306 4.454-4.456-2.333-8.893-7.752-6.712-15.347 2.521-8.743 8.038-8.977 10.3-8.672 3.733.5 6.917 3.373 6.948 6.265l4.034-.044c-.056-4.947-4.641-9.436-10.442-10.22-5.3-.715-11.946 1.941-14.711 11.555-2.674 9.3 2.451 16.763 8.719 20.039 6.926 3.62 17.123 3.329 24.3-5.483 6.547-8.042 7.027-20.807 1.167-31.042-5.505-9.615-15.049-14.392-25.527-12.779a27.832 27.832 0 0 0-22.961 21.214c-2.79 11.135.785 22.475 9.613 31.301z" class="cls-2" data-name="Path 36"/>
        <path id="Path_37" d="M1239.408 1527.425c-3.34.033-6.371 3.071-6.894 6.92-.479 3.5 1.23 7.879 7.463 9.678a10.886 10.886 0 0 0 12.9-5.59 12.315 12.315 0 0 0-3.462-15.513c-5.049-4.116-13.038-4.442-19.431-.788-6.043 3.453-9.048 9.452-8.038 16.048a17.3 17.3 0 0 0 4.859 9.684 18 18 0 0 0 8.388 4.691c8.085 2.029 16.325-1.309 22.042-8.927 11.6-15.461 3.886-34.406 3.616-35.027-.021-.073-2.173-7.19.918-11.256 1.595-2.1 4.47-3.1 8.544-2.98l.121-4.033c-5.459-.162-9.459 1.38-11.886 4.586-4.349 5.736-1.663 14.517-1.484 15.061.072.176 7.176 17.595-3.056 31.228-4.709 6.276-11.376 9.056-17.835 7.434a13.434 13.434 0 0 1-10.24-11.075c-1.077-7.034 3.875-10.687 6.05-11.933 4.976-2.843 11.1-2.672 14.881.415a8.238 8.238 0 0 1 2.439 10.512 6.881 6.881 0 0 1-8.209 3.587c-3.244-.939-4.915-2.856-4.584-5.256.248-1.816 1.619-3.419 2.937-3.431z" class="cls-2" data-name="Path 37"/>
    </g>
</svg>
