<svg xmlns="http://www.w3.org/2000/svg" id="Group_3182" width="189.386" height="265.341" data-name="Group 3182" viewBox="0 0 189.386 265.341">
    <defs>
        <style>
            .cls-1,.cls-2{fill:none}.cls-1{clip-rule:evenodd}.cls-3{clip-path:url(#clip-path)}.cls-4{clip-path:url(#clip-path-2)}.cls-5{fill:#953e04}.cls-6{clip-path:url(#clip-path-3)}.cls-7{fill:#e17c39}.cls-8{clip-path:url(#clip-path-5)}.cls-9{fill:#3d5068}.cls-10{clip-path:url(#clip-path-7)}.cls-11{fill:#fbc396}.cls-12{clip-path:url(#clip-path-9)}.cls-13{fill:#ea9f6c}.cls-14{clip-path:url(#clip-path-11)}.cls-15{clip-path:url(#clip-path-13)}.cls-16{fill:#663412}.cls-17{clip-path:url(#clip-path-15)}.cls-18{clip-path:url(#clip-path-17)}.cls-19{fill:#fff}.cls-20{clip-path:url(#clip-path-19)}.cls-21{fill:#7a9268}.cls-22{clip-path:url(#clip-path-21)}.cls-23{clip-path:url(#clip-path-23)}.cls-24{clip-path:url(#clip-path-25)}.cls-25{clip-path:url(#clip-path-27)}.cls-26{clip-path:url(#clip-path-29)}.cls-27{clip-path:url(#clip-path-31)}.cls-28{clip-path:url(#clip-path-33)}.cls-29{clip-path:url(#clip-path-35)}.cls-30{clip-path:url(#clip-path-37)}.cls-31{fill:#b7632c}.cls-32{clip-path:url(#clip-path-39)}.cls-33{clip-path:url(#clip-path-41)}.cls-34{clip-path:url(#clip-path-43)}.cls-35{clip-path:url(#clip-path-45)}.cls-36{fill:#ffb089}.cls-37{clip-path:url(#clip-path-47)}.cls-38{clip-path:url(#clip-path-49)}.cls-39{fill:#c5523b}.cls-40{clip-path:url(#clip-path-51)}.cls-41{clip-path:url(#clip-path-53)}.cls-42{fill:#fb7364}.cls-43{clip-path:url(#clip-path-55)}.cls-44{fill:#5a6c92}.cls-45{clip-path:url(#clip-path-57)}.cls-46{clip-path:url(#clip-path-59)}.cls-47{clip-path:url(#clip-path-61)}.cls-48{clip-path:url(#clip-path-63)}.cls-49{clip-path:url(#clip-path-65)}.cls-50{clip-path:url(#clip-path-67)}.cls-51{clip-path:url(#clip-path-69)}.cls-52{clip-path:url(#clip-path-71)}.cls-53{clip-path:url(#clip-path-73)}.cls-54{fill:#3e3e3e}.cls-55{clip-path:url(#clip-path-75)}.cls-56{clip-path:url(#clip-path-77)}.cls-57{clip-path:url(#clip-path-79)}.cls-58{clip-path:url(#clip-path-81)}.cls-59{clip-path:url(#clip-path-83)}.cls-60{clip-path:url(#clip-path-85)}.cls-61{fill:#e16953}.cls-62{clip-path:url(#clip-path-87)}.cls-63{clip-path:url(#clip-path-89)}.cls-64{clip-path:url(#clip-path-91)}.cls-65{fill:#c2c4c2}.cls-66{clip-path:url(#clip-path-93)}.cls-67{fill:#369e3a}.cls-68{clip-path:url(#clip-path-95)}.cls-69{fill:#71dd5b}.cls-70{clip-path:url(#clip-path-97)}.cls-71{fill:#40c140}.cls-72{clip-path:url(#clip-path-99)}.cls-73{fill:#fbea9d}.cls-74{clip-path:url(#clip-path-101)}.cls-75{fill:#515151}.cls-76{clip-path:url(#clip-path-103)}.cls-77{fill:#393939}.cls-78{clip-path:url(#clip-path-105)}.cls-79{clip-path:url(#clip-path-107)}.cls-80{clip-path:url(#clip-path-109)}.cls-81{clip-path:url(#clip-path-111)}.cls-82{clip-path:url(#clip-path-113)}.cls-83{clip-path:url(#clip-path-115)}.cls-84{clip-path:url(#clip-path-117)}.cls-85{fill:#dbdbdb}.cls-86{clip-path:url(#clip-path-119)}.cls-87{fill:#752b0a}.cls-88{clip-path:url(#clip-path-121)}.cls-89{fill:#9b5e25}.cls-90{clip-path:url(#clip-path-123)}.cls-91{clip-path:url(#clip-path-125)}.cls-92{clip-path:url(#clip-path-127)}.cls-93{clip-path:url(#clip-path-129)}.cls-94{clip-path:url(#clip-path-131)}.cls-95{clip-path:url(#clip-path-133)}.cls-96{clip-path:url(#clip-path-135)}.cls-97{clip-path:url(#clip-path-137)}.cls-98{clip-path:url(#clip-path-139)}.cls-99{clip-path:url(#clip-path-141)}.cls-100{fill:#d77736}.cls-101{clip-path:url(#clip-path-143)}.cls-102{clip-path:url(#clip-path-145)}.cls-103{clip-path:url(#clip-path-147)}.cls-104{fill:#dfa33a}.cls-105{clip-path:url(#clip-path-149)}.cls-106{clip-path:url(#clip-path-151)}.cls-107{clip-path:url(#clip-path-153)}.cls-108{clip-path:url(#clip-path-155)}.cls-109{clip-path:url(#clip-path-157)}
        </style>
        <clipPath id="clip-path">
            <path id="Path_2583" d="M210.117-113.428c-5.322-3.314-4.2-7.576-2.551-12.756a34.117 34.117 0 0 0 3.479-10.154c2.805-15.342-5.727-23.16-12.065-28.891-8.166-7.378-1.753-10.931-.417-18.279 2.357-12.972-8.678-17.029-7.155-24.187 2.776-13.024-8.179-28.446-21.638-41.594v.006c-6.282-8.6-16-12.379-27.151-13.748-21.984-2.7-35.918 12.527-44.1 34.152-10.438 27.6 2.306 60.246 30.351 63.838 4.572.588 37.451 46.932 39.375 55.154s33.277 3.369 27.535 17.795c-2.59 6.506 1.188 8 3.528 7.67 5.675-.8 2.908-5.906 2.908-5.906s.219 4.283-2.756 3.758c-1.318-.233-2.6-1.565-.176-4.551 4.125-5.084 6.34-7.057 1.44-15.121-3.114-5.127-1.8-7.932.834-11.4a11.915 11.915 0 0 0 .412 1.639c1.422 4.35 7.935 6.729 8.89 9.807s-7.9 4.549-4.035 11.351c-.256-5.631 2.949-4.685 5.748-6.31 4.9-2.844 3.487-8.573-2.457-12.274" class="cls-1" data-name="Path 2583" transform="translate(-94.9 263.34)"/>
        </clipPath>
        <clipPath id="clip-path-2">
            <path id="Path_2582" d="M-660 81H620V-919H-660z" class="cls-2" data-name="Path 2582" transform="translate(660 919)"/>
        </clipPath>
        <clipPath id="clip-path-3">
            <path id="Path_2586" d="M101.951-209l5.324 3.443 5.082 15.85-5.082-.5-3.814-7.309-1.51-11.484" class="cls-1" data-name="Path 2586" transform="translate(-101.951 209)"/>
        </clipPath>
        <clipPath id="clip-path-5">
            <path id="Path_2589" d="M148.322-165.041a16.042 16.042 0 0 0-4.439-.549c-1.362.229 1.133 3.356 1.133 3.356s3.066-1.709 3.306-2.807" class="cls-1" data-name="Path 2589" transform="translate(-143.476 165.633)"/>
        </clipPath>
        <clipPath id="clip-path-7">
            <path id="Path_2592" d="M152.91-155.5c-6.152-2.119-9.121-8.4-8.711-12.328.16-1.529 1.457-12.2 1.457-12.2-7.781 3.767-14.176 6.593-14.176 6.593s-6.06-3.56-13.259-7.41c0 0-1.317 10.955-1.442 11.9-1.519 11.525-8.359 11.888-16.4 13.455l9.432 40.818 43.1-40.832" class="cls-1" data-name="Path 2592" transform="translate(-100.375 180.846)"/>
        </clipPath>
        <clipPath id="clip-path-9">
            <path id="Path_2595" d="M118.748-185.148l-.853 6.955a75.883 75.883 0 0 0 10.447 7.838 3.746 3.746 0 0 0 2.941.47 89.172 89.172 0 0 0 13.758-5.094l.84-6.843-27.133-3.326" class="cls-1" data-name="Path 2595" transform="translate(-117.895 185.148)"/>
        </clipPath>
        <clipPath id="clip-path-11">
            <path id="Path_2598" d="M168.252-214.113a3.771 3.771 0 0 0-2.795-.1c2.115-9.178 3.811-18.48 2.668-20.873a37.5 37.5 0 0 0-27.617-20.8 37.508 37.508 0 0 0-31.824 13.51c-1.67 2.023-2.276 11.3-2.45 20.619a3.453 3.453 0 0 0-1.98-.211c-2.848.586-4.357 4.949-3.371 9.742.812 3.942 3.059 6.944 5.414 7.563.057 2.652.115 4.318.115 4.318 3.8 15.625 17.766 24.795 22.354 27.424a3.913 3.913 0 0 0 2.947.422c4.924-1.377 20.93-6.865 28.467-21.252 0 0 .457-1.6 1.152-4.15 2.557.5 5.885-1.957 7.809-5.938 2.131-4.41 1.734-9.006-.885-10.273" class="cls-1" data-name="Path 2598" transform="translate(-100.577 256.013)"/>
        </clipPath>
        <clipPath id="clip-path-13">
            <path id="Path_2601" d="M144.066-220.719c.608-.322 5.35-2.5 9.76-1.756 1.867.317 3.281 1.278 5.215 3.032-1.314-.346-3.289-1.692-5.039-1.885-4.051-.445-8.053 1.471-9.377 2.18-1.178.623-1.734-.948-.559-1.571" class="cls-1" data-name="Path 2601" transform="translate(-143.415 222.63)"/>
        </clipPath>
        <clipPath id="clip-path-15">
            <path id="Path_2604" d="M128.824-222.58c-.533-.49-5.787-3.775-8.908-3.742a11.364 11.364 0 0 0-5.037 1.525c-4.6 2.578 1.717-1.019 4.812-.293a21.27 21.27 0 0 1 8.221 3.9c.951.875 1.863-.521.912-1.394" class="cls-1" data-name="Path 2604" transform="translate(-113.256 226.322)"/>
        </clipPath>
        <clipPath id="clip-path-17">
            <path id="Path_2607" d="M128.266-214.279c-3.592.726-5.01 1.281-6.889 1.127-2.74-.223-4.783-2.043-4.574-3.748s2.592-2.819 5.32-2.485 5.914 3.778 6.143 5.106" class="cls-1" data-name="Path 2607" transform="translate(-116.788 219.444)"/>
        </clipPath>
        <clipPath id="clip-path-19">
            <path id="Path_2610" d="M124.4-215.883a2.98 2.98 0 0 1-3.248 2.682 2.982 2.982 0 0 1-2.508-3.387 2.982 2.982 0 0 1 3.252-2.685 2.982 2.982 0 0 1 2.5 3.39" class="cls-1" data-name="Path 2610" transform="translate(-118.624 219.294)"/>
        </clipPath>
        <clipPath id="clip-path-21">
            <path id="Path_2613" d="M123.611-216.289a2.019 2.019 0 0 1-2.205 1.816 2.019 2.019 0 0 1-1.7-2.293 2.022 2.022 0 0 1 2.205-1.822 2.022 2.022 0 0 1 1.7 2.3" class="cls-1" data-name="Path 2613" transform="translate(-119.691 218.602)"/>
        </clipPath>
        <clipPath id="clip-path-23">
            <path id="Path_2616" d="M123.963-216.521a.848.848 0 0 1-1.016.6c-.511-.063-.886-.436-.838-.832a.85.85 0 0 1 1.016-.606c.512.065.887.434.838.833" class="cls-1" data-name="Path 2616" transform="translate(-122.105 217.363)"/>
        </clipPath>
        <clipPath id="clip-path-25">
            <path id="Path_2619" d="M127.988-215.064c-1.75-4.272-6.761-5.045-10.185-4.229-3.01.719-3.5.084-3.6-.07-.094 1.119 1.1 3.568 4.055 5.086a3.429 3.429 0 0 1-1.418-1.961c.523-1.776 4.529-2.389 7.043-1.282 3.619 1.6 4.385 3.26 4.385 3.26a3.054 3.054 0 0 0-.28-.8" class="cls-1" data-name="Path 2619" transform="translate(-114.198 219.581)"/>
        </clipPath>
        <clipPath id="clip-path-27">
            <path id="Path_2622" d="M142.615-212.52c3.362 1.579 4.623 2.461 6.508 2.77 2.752.449 5.205-.82 5.414-2.523s-1.865-3.366-4.635-3.7-6.742 2.223-7.287 3.457" class="cls-1" data-name="Path 2622" transform="translate(-142.615 216.008)"/>
        </clipPath>
        <clipPath id="clip-path-29">
            <path id="Path_2625" d="M146.807-213.137a3 3 0 0 0 2.547 3.393 3 3 0 0 0 3.292-2.678 3 3 0 0 0-2.548-3.4 3 3 0 0 0-3.291 2.681" class="cls-1" data-name="Path 2625" transform="translate(-146.783 215.839)"/>
        </clipPath>
        <clipPath id="clip-path-31">
            <path id="Path_2628" d="M147.688-213.338a2.033 2.033 0 0 0 1.726 2.3 2.032 2.032 0 0 0 2.231-1.813 2.034 2.034 0 0 0-1.727-2.3 2.034 2.034 0 0 0-2.23 1.816" class="cls-1" data-name="Path 2628" transform="translate(-147.671 215.168)"/>
        </clipPath>
        <clipPath id="clip-path-33">
            <path id="Path_2631" d="M150.428-213.115c-.049.394.332.771.853.834a.863.863 0 0 0 1.03-.6c.048-.4-.336-.773-.856-.838a.86.86 0 0 0-1.027.606" class="cls-1" data-name="Path 2631" transform="translate(-150.424 213.73)"/>
        </clipPath>
        <clipPath id="clip-path-35">
            <path id="Path_2634" d="M157.7-214.033c-.136.127-.771.623-3.56-.8-3.174-1.625-8.295-2.094-11.059 1.625a3.1 3.1 0 0 0-.471.709s1.161-1.426 5.11-2.094c2.744-.464 6.535 1.1 6.625 2.953a3.433 3.433 0 0 1-1.873 1.561c1.976-.453 4.906-1.967 5.228-3.949" class="cls-1" data-name="Path 2634" transform="translate(-142.607 216.053)"/>
        </clipPath>
        <clipPath id="clip-path-37">
            <path id="Path_2637" d="M178.258-224.611c2.424-19.766-13.434-37.979-35.418-40.674s-41.766 11.148-44.19 30.916a38.764 38.764 0 0 0 1.938 18.689c.141-3.279 1.523-5.847 3.662-6.289a3.353 3.353 0 0 1 1.457.043c.555 4.285 1.326 7.293 1.611 4.975.336-2.736 1.5-7.7 2.414-11.348 1.793-4.885 1.909-13.512 15.868-12.592-.186-11.658 41.293-8.283 39.349 20.444-.033 3.576-.14 7.91-.441 10.355-.281 2.293 1.1-.359 2.6-4.316a3.229 3.229 0 0 1 1.143.295c2.059.994 2.736 4.049 1.9 7.453a33.35 33.35 0 0 0 8.1-17.951" class="cls-1" data-name="Path 2637" transform="translate(-98.296 265.62)"/>
        </clipPath>
        <clipPath id="clip-path-39">
            <path id="Path_2640" d="M135.412-198.912l-3.726-.455a2.958 2.958 0 0 1-2.456-2.4 3.614 3.614 0 0 0-.343 1.138c-.219 1.785 1.888 2.627 3.5 2.824l1.976.243c1.606.195 3.854-.11 4.073-1.9a3.543 3.543 0 0 0-.059-1.185 2.953 2.953 0 0 1-2.961 1.738" class="cls-1" data-name="Path 2640" transform="translate(-128.871 201.771)"/>
        </clipPath>
        <clipPath id="clip-path-41">
            <path id="Path_2643" d="M101.963-218.828c.017-.375.947-1.951 1.818-1.555 1.332.608 1.875 3.412 2.129 6.18s-.262 4.7-.482 3.937c-.315-1.074-.309-4.392-1.576-7.668-.844-2.175-2.028 2.049-1.889-.894" class="cls-1" data-name="Path 2643" transform="translate(-101.952 220.446)"/>
        </clipPath>
        <clipPath id="clip-path-43">
            <path id="Path_2646" d="M169.736-210.521c.077-.366-.447-2.124-1.388-1.948-1.44.268-2.645 2.858-3.559 5.485s-.883 4.623-.482 3.935c.564-.967 1.357-4.187 3.381-7.058 1.343-1.907 1.472 2.474 2.048-.414" class="cls-1" data-name="Path 2646" transform="translate(-164.041 212.481)"/>
        </clipPath>
        <clipPath id="clip-path-45">
            <path id="Path_2649" d="M122.945-203.045c-1.007 2.215-4.711 2.7-8.269 1.078s-5.623-4.728-4.613-6.943 4.708-2.7 8.267-1.076 5.623 4.728 4.615 6.941" class="cls-1" data-name="Path 2649" transform="translate(-109.807 210.945)"/>
        </clipPath>
        <clipPath id="clip-path-47">
            <path id="Path_2652" d="M144.539-200.4c.441 2.392 3.92 3.755 7.76 3.041s6.6-3.231 6.154-5.624-3.92-3.753-7.76-3.039-6.6 3.229-6.154 5.622" class="cls-1" data-name="Path 2652" transform="translate(-144.492 206.208)"/>
        </clipPath>
        <clipPath id="clip-path-49">
            <path id="Path_2655" d="M123.533-193.189c-1.051-.6-1.254-.42-1.41-.28-.209.2-.273.172.326 1.227.291.506 1.291 2.234 1.291 2.234s2.389 6.235 8.26 6.692a10.237 10.237 0 0 0 9.426-4.893c.326-.52 1.062-1.3 1.271-1.588.694-.949.606-.988.481-1.156-.342-.473-.416-.246-1.186.031a42.193 42.193 0 0 1-9.609-.336c-4.668-.7-8.022-1.463-8.85-1.931" class="cls-1" data-name="Path 2655" transform="translate(-121.975 193.608)"/>
        </clipPath>
        <clipPath id="clip-path-51">
            <path id="Path_2658" d="M137.639-187.943c1.441-.262 2.021-1.438 2.564-2.938a46.462 46.462 0 0 1-8.439-.553 69.047 69.047 0 0 1-7.2-1.392c.156 1.8.437 2.031 1.808 2.949-1.162-.078-1.514.988-1.517 2.287a12.022 12.022 0 0 0 6.931 3.807c3.674.332 6.053-.463 7.485-2.033-.2-.844-.647-1.969-1.631-2.127" class="cls-1" data-name="Path 2658" transform="translate(-124.563 192.826)"/>
        </clipPath>
        <clipPath id="clip-path-53">
            <path id="Path_2661" d="M123.795-193.053s.18 1.621 7.978 2.518c7.735.89 9.51-.307 9.51-.307s-5.748-1.4-8.926-1.73c-2.931-.309-8.562-.481-8.562-.481" class="cls-1" data-name="Path 2661" transform="translate(-123.795 193.053)"/>
        </clipPath>
        <clipPath id="clip-path-55">
            <path id="Path_2664" d="M155.982-71.391c.079-.5.174-1.025.266-1.545q.228-1.277.51-2.611a144.068 144.068 0 0 1 13.7-36.439c.4-.618 4.98-41.1.271-41.1l-14.2-2.529c-.093.06-.181.121-.275.183l-6.85-1.507c-9.269 2.347-18 2.566-22.271 10-1.526 2.659-11.03 18.356-11.03 18.356s-5.884-28.219-9.294-29.172c0 0-25.477 3.445-27.543 4.668s-3.827 2.758-5.7 6.779S68-131.422 66-120.211 60.018-91.99 60.018-91.99l17.2 3.89 1.882-9.041a21.15 21.15 0 0 0 11.543 11.448 113.976 113.976 0 0 1 2.974 14.3c.238 1.672.447 3.33.643 4.983q.234 1.968.424 3.916.372 3.821.56 7.543.067 1.313.108 2.611c.093 3.035.091 6.016-.045 8.912a52.182 52.182 0 0 0-10.369 10.496c4.326 1.272 10.31 2.95 12.376 3.149 4.911.472 8.127-4.59 8.127-4.59S103.6-27.01 116.8-25.936c13.258 1.079 39.933-1.794 50.853-3.089a52.552 52.552 0 0 0-13.371-14.659c-.047-1.041-.076-3.32-.093-4.382-.016-.819-.012-.418-.01-1.248a147.018 147.018 0 0 1 1.806-22.077" class="cls-1" data-name="Path 2664" transform="translate(-60.018 157.748)"/>
        </clipPath>
        <clipPath id="clip-path-57">
            <path id="Path_2667" d="M122.9-191.525s.395 7.519 8.2 8.732c7.281 1.129 11.035-6.4 11.035-6.4s-3.326 3.9-10.117 3.289a11.081 11.081 0 0 1-9.12-5.617" class="cls-1" data-name="Path 2667" transform="translate(-122.898 191.525)"/>
        </clipPath>
        <clipPath id="clip-path-59">
            <path id="Path_2670" d="M82.295-126.029s-4.252 18.828-4.889 24.937c-.176 1.684-2.26-1.885-2.26-1.885s1.143-13.822 7.149-23.052" class="cls-1" data-name="Path 2670" transform="translate(-75.146 126.029)"/>
        </clipPath>
        <clipPath id="clip-path-61">
            <path id="Path_2673" d="M126.172-85.467c-3.281-.508-9.17-2.986-11.1-5.9a12.607 12.607 0 0 0 7.76 8.328c17.014 5.484 25.877-10.342 25.877-10.342-5.084 3.914-13.906 9.254-22.535 7.914" class="cls-1" data-name="Path 2673" transform="translate(-115.07 93.381)"/>
        </clipPath>
        <clipPath id="clip-path-63">
            <path id="Path_2676" d="M118.672-132.453s-10.7 16.787-11.57 31.3c-2.057 23.1-1.661 66.777-1.661 66.777s-1.242-14.074-1.359-24.686c-.092-8.435.459-22.925 1.178-38.97.523-11.674 4.844-21.537 10.845-30.547a33.139 33.139 0 0 1 2.567-3.877" class="cls-1" data-name="Path 2676" transform="translate(-104.072 132.453)"/>
        </clipPath>
        <clipPath id="clip-path-65">
            <path id="Path_2679" d="M112.967-64.631c1.459-2.357 34.978-6.43 43.281-8.305q.228-1.277.51-2.611c-.26.045-.516.094-.76.151-2.635.628-8.807 1.582-15.344 2.6-19.441 3.014-27.228-3.443-29.724-2.074-5.846-.432-4.1 9.9 2.037 10.244" class="cls-1" data-name="Path 2679" transform="translate(-107.344 75.547)"/>
        </clipPath>
        <clipPath id="clip-path-67">
            <path id="Path_2682" d="M116.105-128.465l9.057-20.449 22.988-15.66 11.465 10.24-28.646 23.176-5.555-11.776-9.309 14.469" class="cls-1" data-name="Path 2682" transform="translate(-116.105 164.574)"/>
        </clipPath>
        <clipPath id="clip-path-69">
            <path id="Path_2685" d="M148.322-165.041l12.487 9.867-29.2 20.567-6.445-14.307 23.16-16.127" class="cls-1" data-name="Path 2685" transform="translate(-125.162 165.041)"/>
        </clipPath>
        <clipPath id="clip-path-71">
            <path id="Path_2688" d="M116.225-166.023a62.526 62.526 0 0 0-2.436 14.757l2.316 22.8-9.73-22.635-8.4-5.179 18.246-9.744" class="cls-1" data-name="Path 2688" transform="translate(-97.979 166.023)"/>
        </clipPath>
        <clipPath id="clip-path-73">
            <path id="Path_2691" d="M174.725-10.975A123.634 123.634 0 0 1 124.27-.279 123.676 123.676 0 0 1 75.107-10.41a54.7 54.7 0 0 1 5.887-16.434 54.521 54.521 0 0 1 3.944-6.088c4.326 1.272 10.31 2.95 12.376 3.149 4.911.472 8.127-4.59 8.127-4.59S103.6-27.01 116.8-25.936c13.258 1.079 39.933-1.794 50.853-3.089.368.595.733 1.191 1.079 1.8a54.788 54.788 0 0 1 6 16.25" class="cls-1" data-name="Path 2691" transform="translate(-75.107 34.373)"/>
        </clipPath>
        <clipPath id="clip-path-75">
            <path id="Path_2694" d="M115.3-165.514L97.932-156.3l9.824 4.176 7.541-13.391" class="cls-1" data-name="Path 2694" transform="translate(-97.932 165.514)"/>
        </clipPath>
        <clipPath id="clip-path-77">
            <path id="Path_2697" d="M56.66-78.375l.278-.562 31.113 13.453-5.494 1.9-19.973-9.76-5.924-5.031" class="cls-1" data-name="Path 2697" transform="translate(-56.66 78.937)"/>
        </clipPath>
        <clipPath id="clip-path-79">
            <path id="Path_2700" d="M81.777-99.732a19.291 19.291 0 0 1-3.077-2.288 3.433 3.433 0 0 0-.619 4.633 39.466 39.466 0 0 0-1.762 2.612c-1.392 2.23-7.672-9.42-7.672-9.42l-2.083-.317c-.692.434-3.338.991-4.411 3.68a6.682 6.682 0 0 1-.847 1.4c-.317.471-2.057 2.039-2.317 3.7s.059 2.267-.217 2.755a12.465 12.465 0 0 0-.357 7.631c.457 2.914 7.207 7.1 12.764 2.856 1.371-.112 3.281-.047 5.468-3.477l6.34-10.5a2.568 2.568 0 0 0-1.209-3.271" class="cls-1" data-name="Path 2700" transform="translate(-57.977 104.512)"/>
        </clipPath>
        <clipPath id="clip-path-81">
            <path id="Path_2703" d="M73.557-88.359s-3.735-2.766-4.666-3.3a22.044 22.044 0 0 0-5.774-2.387c-1.9-.293-2.113 3.531-.931 4.449.623.485.632.256 1.289.305-1.364.754-2.772 1.5-1.86 1.33 1.121-.215 1.242-.7 3.283-1a26.883 26.883 0 0 1 2.875 1.195c5.471 2.565 5.823.1 5.784-.6" class="cls-1" data-name="Path 2703" transform="translate(-61.325 94.061)"/>
        </clipPath>
        <clipPath id="clip-path-83">
            <path id="Path_2706" d="M73.143-88.936c.043.7.324 3.137-5.182.653-3.807-1.723-5.94-.4-7.123-1.317s.57-5.259 2.465-4.964a22.228 22.228 0 0 1 5.777 2.386c.932.533 4.063 3.242 4.063 3.242" class="cls-1" data-name="Path 2706" transform="translate(-60.454 94.578)"/>
        </clipPath>
        <clipPath id="clip-path-85">
            <path id="Path_2709" d="M69.969-88.758a5.211 5.211 0 0 1 .748-1.347 8.18 8.18 0 0 1 2.326 1.126c.449.356.584 1.348-.441 1.356a8.226 8.226 0 0 1-2.633-1.135" class="cls-1" data-name="Path 2709" transform="translate(-69.969 90.105)"/>
        </clipPath>
        <clipPath id="clip-path-87">
            <path id="Path_2712" d="M73.176-93.979a97.858 97.858 0 0 0-9.846-.9 11.943 11.943 0 0 0-2.529-.045c-.447-.263-.83-.01-.78.254s-.035.231.967.156a6.46 6.46 0 0 1 2.315-.048 5.956 5.956 0 0 1 .689.21c1.865 1.245 5.5 3.112 5.957 3.417s3.531 6.019 7.836 1.755l-4.609-4.8" class="cls-1" data-name="Path 2712" transform="translate(-60.017 95.037)"/>
        </clipPath>
        <clipPath id="clip-path-89">
            <path id="Path_2715" d="M75.506-97.918c-.893-.908-8.279-2.262-10.277-2.072a4.656 4.656 0 0 0-1.79.062c-.453.092-1-.215-1.125.276s1.086.1 1.348.05a3.941 3.941 0 0 1 1.473.04c.763.2 5.006 3.375 6.836 5.062.879.811 4.2 5.91 7.943 1.939 0 0-3.514-4.447-4.408-5.357" class="cls-1" data-name="Path 2715" transform="translate(-62.305 100.05)"/>
        </clipPath>
        <clipPath id="clip-path-91">
            <path id="Path_2718" d="M69.543-112.988c-.205-.469-.131-.957.162-1.082l1.309-.571c.295-.125.7.153.9.623l.848 1.952c.2.47.132.953-.162 1.082l-1.311.568c-.293.127-.7-.152-.9-.621l-.848-1.951" class="cls-1" data-name="Path 2718" transform="translate(-69.427 114.671)"/>
        </clipPath>
        <clipPath id="clip-path-93">
            <path id="Path_2721" d="M71.049-112.777l9.871 22.742-1.191.515-9.87-22.744 1.19-.513" class="cls-1" data-name="Path 2721" transform="translate(-69.859 112.777)"/>
        </clipPath>
        <clipPath id="clip-path-95">
            <path id="Path_2724" d="M72.227-113.3L82.1-90.557l-1.178.516-9.871-22.746 1.178-.51" class="cls-1" data-name="Path 2724" transform="translate(-71.049 113.297)"/>
        </clipPath>
        <clipPath id="clip-path-97">
            <path id="Path_2727" d="M71.662-113.082l9.871 22.74-1.191.518-9.869-22.744 1.189-.514" class="cls-1" data-name="Path 2727" transform="translate(-70.473 113.082)"/>
        </clipPath>
        <clipPath id="clip-path-99">
            <path id="Path_2730" d="M82.1-90.568l-2.377 1.033 3.195 4.105-.818-5.138" class="cls-1" data-name="Path 2730" transform="translate(-79.719 90.568)"/>
        </clipPath>
        <clipPath id="clip-path-101">
            <path id="Path_2733" d="M81.836-86.811l1.078 1.381-.273-1.73-.805.349" class="cls-1" data-name="Path 2733" transform="translate(-81.836 87.16)"/>
        </clipPath>
        <clipPath id="clip-path-103">
            <path id="Path_2736" d="M70.387-111.045l2.373-1.027-.553-1.272-2.371 1.032.551 1.267" class="cls-1" data-name="Path 2736" transform="translate(-69.836 113.344)"/>
        </clipPath>
        <clipPath id="clip-path-105">
            <path id="Path_2739" d="M75.287-98.131c-.8-.812-4.262-3.84-5.187-4.683.06-.213-.069-.7.31-.454 1.008.659 2.729 2.133 3.233 2.538 2.533 2.041 4.035 1.269 5.414-.383-5.18-5.928-7.549-6.936-8.567-7.5a2.429 2.429 0 0 0-3.246 1.412c-.633 1.482-1.123 2.963-1.183 3.138-.043.122.709.065 1.671.161a1.887 1.887 0 0 0-.951.539c-.978.972-2.039 2.375-1.879 3.2.065.332.787.174 1.161.439a65.879 65.879 0 0 1 6.158 4.537c.873.811 3.912 5.784 7.246 2.645 0 0-3.285-4.684-4.18-5.59" class="cls-1" data-name="Path 2739" transform="translate(-64.886 108.836)"/>
        </clipPath>
        <clipPath id="clip-path-107">
            <path id="Path_2742" d="M77.514-89.172l-4.612-4.8s-6.048-4.877-6.519-5.193-.922-.82-2.014.441c-.885 1.024-2.506 2.457-1.863 3.453.154.237.791.385 1.322.6a65.811 65.811 0 0 1 6.309 3.213c.472.318 3.549 5.437 7.377 2.281" class="cls-1" data-name="Path 2742" transform="translate(-62.359 99.531)"/>
        </clipPath>
        <clipPath id="clip-path-109">
            <path id="Path_2745" d="M74.383-102.355a6.628 6.628 0 0 1 1.369-1.395 10.354 10.354 0 0 1 2.467 2.166c.429.584.258 1.844-1 1.506-.983-.264-2.836-2.277-2.836-2.277" class="cls-1" data-name="Path 2745" transform="translate(-74.383 103.75)"/>
        </clipPath>
        <clipPath id="clip-path-111">
            <path id="Path_2748" d="M79.586-92.451l-2.07-2.828a2.022 2.022 0 0 0-.942.295c-.422.279 1.151 2.463 1.627 2.609a3.548 3.548 0 0 0 1.385-.076" class="cls-1" data-name="Path 2748" transform="translate(-76.503 95.279)"/>
        </clipPath>
        <clipPath id="clip-path-113">
            <path id="Path_2751" d="M77.563-89.252l-2.489-2.471a2.06 2.06 0 0 0-.883.44c-.373.342 1.526 2.25 2.018 2.32a3.531 3.531 0 0 0 1.354-.289" class="cls-1" data-name="Path 2751" transform="translate(-74.143 91.723)"/>
        </clipPath>
        <clipPath id="clip-path-115">
            <path id="Path_2754" d="M28.041-94.6s1.193-1.373 4.379-1.365 21.2 11.32 21.2 11.32l29.28-3.917-.572 7.162-27.713 1.138-2.7-.513-1.385-.606-.226-.93-22.263-12.05v-.239" class="cls-1" data-name="Path 2754" transform="translate(-28.041 95.961)"/>
        </clipPath>
        <clipPath id="clip-path-117">
            <path id="Path_2757" d="M82.9-88.562l42.692 18.3v2.692L82.557-84.641l.339-3.921" class="cls-1" data-name="Path 2757" transform="translate(-82.557 88.562)"/>
        </clipPath>
        <clipPath id="clip-path-119">
            <path id="Path_2760" d="M27.418-94.93l23.418 12.506s.455 1.592 3.98 1.137 27.512-3.07 27.512-3.07l43.543 17.623-28.764 5.57-43.769-18.645s-2.588-.568-3.184-1.931-22.736-12.4-22.736-12.4v-.795" class="cls-1" data-name="Path 2760" transform="translate(-27.418 94.93)"/>
        </clipPath>
        <clipPath id="clip-path-121">
            <path id="Path_2763" d="M125.871-67.758v1.024L82.328-84.357l-27.713 3.091 28.02-3.951 43.236 17.459" class="cls-1" data-name="Path 2763" transform="translate(-54.615 85.217)"/>
        </clipPath>
        <clipPath id="clip-path-123">
            <path id="Path_2766" d="M56.66-78.375s12.508 7.075 14.033 7.736c3.889 1.686 9.674 5.043 12.356 5.366 1.156.136-11.945-5.586-13.492-7.413-.834-.982-.694-2.787 1.439-2.8 5.156-.039 9.172 3.789 17.311 4.494 9.269.8 9.982 6.951 9.982 6.951s4.533 6.006-2.824 7.182c-9.035 1.445-22.279-3.2-26.363-5.9-.893-.59-10.78-13.32-13.163-15.789.213.049.461.108.721.17" class="cls-1" data-name="Path 2766" transform="translate(-55.939 78.545)"/>
        </clipPath>
        <clipPath id="clip-path-125">
            <path id="Path_2769" d="M73.283-73.318a7.071 7.071 0 0 1-1.019 1.812 10.915 10.915 0 0 1-3.137-1.541c-.606-.484-.777-1.826.609-1.828 1.084 0 3.547 1.557 3.547 1.557" class="cls-1" data-name="Path 2769" transform="translate(-68.675 74.875)"/>
        </clipPath>
        <clipPath id="clip-path-127">
            <path id="Path_2772" d="M182.18-140.531c-2.672-10.053-8.362-13.791-16.416-12.992-15.219 1.457-12.537 24.259-11.817 27.5 1.358 6.11 2.987 12.118 6.241 15.678 1.859 12.828 2.673 24.555 1.978 29.227-.42 2.828-.92 5.552-1.143 7.795a16.57 16.57 0 0 0-4.457.308c-7.73 1.842-42.121 5.99-43.6 8.379a135.5 135.5 0 0 1-15.006-2.1 13.727 13.727 0 0 0-4.723 11.06c6.594 2.612 17.625 4.287 17.625 4.287s-.226 2.5 5.457 2.957 41.838 2.959 63.438-8.131a11.056 11.056 0 0 0 .656-1.8c10.375-24.819 4.2-73.016 1.766-82.172" class="cls-1" data-name="Path 2772" transform="translate(-93.23 153.627)"/>
        </clipPath>
        <clipPath id="clip-path-129">
            <path id="Path_2775" d="M131.3-47.871c-7.4 0-13.014-.4-14.981-.559-5.683-.457-5.457-2.957-5.457-2.957a114.458 114.458 0 0 1-15.619-3.562q.067 1.313.108 2.611c5.041 1.578 17.431 6.668 20.584 6.922 2.652.213 8.335 0 15.365 0 6.771 0 14.793-1.563 22.885-2.65-.016-.819-.012-.418-.01-1.248a171.6 171.6 0 0 1-22.875 1.443" class="cls-1" data-name="Path 2775" transform="translate(-95.244 54.949)"/>
        </clipPath>
        <clipPath id="clip-path-131">
            <path id="Path_2778" d="M69.816-65.629c.881.315-1 1.049-2.882-.908s-7.784-8.24-7.784-8.24 8.477 8.381 10.666 9.148" class="cls-1" data-name="Path 2778" transform="translate(-59.15 74.777)"/>
        </clipPath>
        <clipPath id="clip-path-133">
            <path id="Path_2781" d="M110.93-127.848a1.71 1.71 0 0 1-1.561 1.827 1.711 1.711 0 0 1-1.564-1.827 1.709 1.709 0 0 1 1.564-1.826 1.708 1.708 0 0 1 1.561 1.826" class="cls-1" data-name="Path 2781" transform="translate(-107.805 129.674)"/>
        </clipPath>
        <clipPath id="clip-path-135">
            <path id="Path_2784" d="M104.393-106.73a1.689 1.689 0 0 1-1.508 1.826 1.69 1.69 0 0 1-1.51-1.826 1.693 1.693 0 0 1 1.51-1.829 1.691 1.691 0 0 1 1.508 1.829" class="cls-1" data-name="Path 2784" transform="translate(-101.375 108.559)"/>
        </clipPath>
        <clipPath id="clip-path-137">
            <path id="Path_2787" d="M103.5-85.43a1.673 1.673 0 0 1-1.459 1.828 1.673 1.673 0 0 1-1.461-1.828 1.675 1.675 0 0 1 1.461-1.828 1.675 1.675 0 0 1 1.459 1.828" class="cls-1" data-name="Path 2787" transform="translate(-100.578 87.258)"/>
        </clipPath>
        <clipPath id="clip-path-139">
            <path id="Path_2790" d="M103.5-46.686a1.676 1.676 0 0 1-1.459 1.829 1.676 1.676 0 0 1-1.461-1.829 1.675 1.675 0 0 1 1.461-1.828 1.675 1.675 0 0 1 1.459 1.828" class="cls-1" data-name="Path 2790" transform="translate(-100.578 48.514)"/>
        </clipPath>
        <clipPath id="clip-path-141">
            <path id="Path_2793" d="M119.736-244.818c-4.183-1.287-11.353-2.744-14.882 5.847-3.514 8.545-6.614 16.866-5.946 31.276.571 12.3 5.914 30.515 13.961 36.65-3.785-1.762-15.187-12.664-17.832-29.963-2.695-17.623 5.092-38.881 9.623-44.943 5.5-7.363 15.076 1.133 15.076 1.133" class="cls-1" data-name="Path 2793" transform="translate(-94.484 248.953)"/>
        </clipPath>
        <clipPath id="clip-path-143">
            <path id="Path_2796" d="M110.021-191.264a15.242 15.242 0 0 1-6.56-11.646c-1.055-15.279 1.318-23.85 4.359-32.4 3.055-8.591 7.887-8.9 11.916-9.511 0 0-7.265-4.092-12.027 3.271-3.922 6.065-9.91 26-7.111 41.4s11.691 18.67 16.461 18.145a44.421 44.421 0 0 1-7.038-9.264" class="cls-1" data-name="Path 2796" transform="translate(-99.877 245.952)"/>
        </clipPath>
        <clipPath id="clip-path-145">
            <path id="Path_2799" d="M191.1-152.123c.509 2.535 5.785 5.992 5.806 11.152s-4.734 9.076-7.646 14.44c-2.766 5.1-2.149 9.793 1.226 13.449s4.532 8.951-.613 13.551c-3.646 3.26-.295 8.98 3.27 7.205a3.824 3.824 0 0 0 1.945-4.111c-.17 2.08-1.762 3.587-3.108 3.156-2.435-.785-2-3.465-1.289-4.383s2.664-2.18 4.09-4.221c2.455-3.513 2.375-7.724.432-11.99s-3.09-7.721.693-12.834 6.321-7.9 6.955-14.262c.356-3.584-1.867-5.549-6.955-8.851-3.894-2.53-4.295-5.828-3.681-7.055a5.913 5.913 0 0 0-1.125 4.754" class="cls-1" data-name="Path 2799" transform="translate(-187.521 156.877)"/>
        </clipPath>
        <clipPath id="clip-path-147">
            <path id="Path_2802" d="M116.787-245.551a11.824 11.824 0 0 0-8.752 5.2c-2.76 3.762-7.1 20.36-7.156 28.127s3.016 21.116 6.621 26.409c-3.535-3.608-8.822-12.274-9.568-26.157-1.846-34.336 12.173-34.361 13.326-34.515s5.529.939 5.529.939" class="cls-1" data-name="Path 2802" transform="translate(-97.765 246.505)"/>
        </clipPath>
        <clipPath id="clip-path-149">
            <path id="Path_2805" d="M188.188-168.893c-.461 3.016-3.221 15.266 9.767 23.264 8.539 5.258 6.016 11.467 3.424 15.955s1.973 8.149 5.779 9.817c4.436 1.941 4.436 9.664-3.066 9.472-9.537-.246-4.783 13.869 2.656 5.237-1.559.861-3.519 1.742-4.973.4s-.98-4.109 3.338-3.811 10.227-.412 11.453-6.113c1.534-7.129-4.712-7.7-8.179-11.357-4.092-4.313 5.57-12.084-.41-23.127-4.008-7.4-15.954-6.778-13.795-28.3s-5.994 8.564-5.994 8.564" class="cls-1" data-name="Path 2805" transform="translate(-187.629 185.215)"/>
        </clipPath>
        <clipPath id="clip-path-151">
            <path id="Path_2808" d="M124.25-244.418c.891-6.035 4.512-7.014 11.293-6.422s24.219 7.211 27.58 18.569 9.744 24.357 13.8 31.263 10.084 11.08 11.887 18.332-.791 11.846-.623 13.783 6.289-9.107 5.982-13.783-3.635-7.64-7.594-14.838-2.365-4.3-4.678-20.621-10.154-23.285-14.009-26.59-13.977-9.046-24.412-11.289c-9.813-2.107-24.409 1.164-19.227 11.6" class="cls-1" data-name="Path 2808" transform="translate(-123.168 256.62)"/>
        </clipPath>
        <clipPath id="clip-path-153">
            <path id="Path_2811" d="M158.5-239.723c17.32 16.78 11.086 33.887 22.992 43.286 10.731 8.47 15.848 21.763 7.486 32.347-3.787 4.793-9.205 11.992-6.195 15.516 5.588 6.535 13.713 4.564 5.42 18.232.561-.66 3.328-7.162-.256-9.451-11.263-4.99-20.392-12.213-16.779-24.09s11.357-7.168-2.58-24.926c-8.735-11.127-4.986-11.509-4.131-28.529.721-14.332-5.957-22.385-5.957-22.385" class="cls-1" data-name="Path 2811" transform="translate(-158.502 239.723)"/>
        </clipPath>
        <clipPath id="clip-path-155">
            <path id="Path_2814" d="M164.7-205.867c.688-3.117-5.25 8.578-3.449 14.23s4.8 5.586 4.949 9.069-.748 6.031-4.648 11.283-.752 7.875.6 8.812 4.35 1.614 6.3 4.125a6.008 6.008 0 0 1 0 7.461c-1.5 1.8-4.185 3.715-3.742 6.658s3.947 3.385 5.041 3.231a4.255 4.255 0 0 0 3.35-2.469 5.455 5.455 0 0 1-3.768 1.215 2.507 2.507 0 0 1-2.082-3.887c.9-1.3 5.131-4.279 5.85-6.095a8.074 8.074 0 0 0-2.819-9.452c-2.431-1.8-4.082-3.214-1.98-6.857s4.051-6.244 4.2-10.869-2.248-8.072-4.949-11.223-4.951-5.717-2.852-15.232" class="cls-1" data-name="Path 2814" transform="translate(-159.662 206.386)"/>
        </clipPath>
        <clipPath id="clip-path-157">
            <path id="Path_2817" d="M144.314-258.07c16.225 4.312 29.348 14.674 33.913 27.09 3.916 10.658 2.961 15.564 3.5 23.406s3.148 11.3 6.917 15.082 5.471 8.244 1.971 17.068 3.184-.424 5.117-5.068c1.885-4.531 2.426-12.7-5.656-18.623-5.275-3.867-2.156-10.586-2.156-18.127s-1.633-12.293-6.463-19.395c-7.8-11.463-24.484-21.193-37.145-21.433" class="cls-1" data-name="Path 2817" transform="translate(-144.314 258.07)"/>
        </clipPath>
    </defs>
    <g id="Group_973" class="cls-3" data-name="Group 973" transform="translate(67.482 2.28)">
        <g id="Group_972" class="cls-4" data-name="Group 972" transform="translate(-754.9 -655.66)">
            <path id="Path_2581" d="M89.9-268.34h130.641v188.96H89.9z" class="cls-5" data-name="Path 2581" transform="translate(660 919)"/>
        </g>
    </g>
    <g id="Group_975" class="cls-6" data-name="Group 975" transform="translate(74.533 56.62)">
        <g id="Group_974" class="cls-4" data-name="Group 974" transform="translate(-761.951 -710)">
            <path id="Path_2584" d="M96.951-214h20.406v29.293H96.951z" class="cls-7" data-name="Path 2584" transform="translate(660 919)"/>
        </g>
    </g>
    <g id="Group_977" class="cls-8" data-name="Group 977" transform="translate(116.058 99.987)">
        <g id="Group_976" class="cls-4" data-name="Group 976" transform="translate(-803.476 -753.367)">
            <path id="Path_2587" d="M138.476-170.633h14.846v13.4h-14.846z" class="cls-9" data-name="Path 2587" transform="translate(660 919)"/>
        </g>
    </g>
    <g id="Group_979" class="cls-10" data-name="Group 979" transform="translate(72.957 84.774)">
        <g id="Group_978" class="cls-4" data-name="Group 978" transform="translate(-760.375 -738.154)">
            <path id="Path_2590" d="M95.375-185.846h62.535v76.174H95.375z" class="cls-11" data-name="Path 2590" transform="translate(660 919)"/>
        </g>
    </g>
    <g id="Group_981" class="cls-12" data-name="Group 981" transform="translate(90.477 80.472)">
        <g id="Group_980" class="cls-4" data-name="Group 980" transform="translate(-777.895 -733.852)">
            <path id="Path_2593" d="M112.895-190.148h37.986v25.384h-37.986z" class="cls-13" data-name="Path 2593" transform="translate(660 919)"/>
        </g>
    </g>
    <g id="Group_983" class="cls-14" data-name="Group 983" transform="translate(73.159 9.607)">
        <g id="Group_982" class="cls-4" data-name="Group 982" transform="translate(-760.577 -662.987)">
            <path id="Path_2596" d="M95.577-261.013h79.931v93.638H95.577z" class="cls-11" data-name="Path 2596" transform="translate(660 919)"/>
        </g>
    </g>
    <g id="Group_985" class="cls-15" data-name="Group 985" transform="translate(115.997 42.991)">
        <g id="Group_984" class="cls-4" data-name="Group 984" transform="translate(-803.415 -696.37)">
            <path id="Path_2599" d="M138.415-227.63h25.626V-214h-25.626z" class="cls-16" data-name="Path 2599" transform="translate(660 919)"/>
        </g>
    </g>
    <g id="Group_987" class="cls-17" data-name="Group 987" transform="translate(85.838 39.298)">
        <g id="Group_986" class="cls-4" data-name="Group 986" transform="translate(-773.256 -692.678)">
            <path id="Path_2602" d="M108.256-231.322h25.97v15.414h-25.97z" class="cls-16" data-name="Path 2602" transform="translate(660 919)"/>
        </g>
    </g>
    <g id="Group_989" class="cls-18" data-name="Group 989" transform="translate(89.37 46.176)">
        <g id="Group_988" class="cls-4" data-name="Group 988" transform="translate(-776.788 -699.556)">
            <path id="Path_2605" d="M111.788-224.444h21.478v16.318h-21.478z" class="cls-19" data-name="Path 2605" transform="translate(660 919)"/>
        </g>
    </g>
    <g id="Group_991" class="cls-20" data-name="Group 991" transform="translate(91.206 46.326)">
        <g id="Group_990" class="cls-4" data-name="Group 990" transform="translate(-778.624 -699.706)">
            <path id="Path_2608" d="M113.624-224.294h15.8v16.114h-15.8z" class="cls-21" data-name="Path 2608" transform="translate(660 919)"/>
        </g>
    </g>
    <g id="Group_993" class="cls-22" data-name="Group 993" transform="translate(92.273 47.018)">
        <g id="Group_992" class="cls-4" data-name="Group 992" transform="translate(-779.691 -700.398)">
            <path id="Path_2611" d="M114.691-223.6h13.937v14.143h-13.937z" data-name="Path 2611" transform="translate(660 919)"/>
        </g>
    </g>
    <g id="Group_995" class="cls-23" data-name="Group 995" transform="translate(94.687 48.257)">
        <g id="Group_994" class="cls-4" data-name="Group 994" transform="translate(-782.105 -701.637)">
            <path id="Path_2614" d="M117.1-222.363h11.862v11.456H117.1z" class="cls-19" data-name="Path 2614" transform="translate(660 919)"/>
        </g>
    </g>
    <g id="Group_997" class="cls-24" data-name="Group 997" transform="translate(86.78 46.039)">
        <g id="Group_996" class="cls-4" data-name="Group 996" transform="translate(-774.198 -699.419)">
            <path id="Path_2617" d="M109.2-224.581h24.07v15.321H109.2z" data-name="Path 2617" transform="translate(660 919)"/>
        </g>
    </g>
    <g id="Group_999" class="cls-25" data-name="Group 999" transform="translate(115.197 49.613)">
        <g id="Group_998" class="cls-4" data-name="Group 998" transform="translate(-802.615 -702.992)">
            <path id="Path_2620" d="M137.615-221.008h21.936v16.349h-21.936z" class="cls-19" data-name="Path 2620" transform="translate(660 919)"/>
        </g>
    </g>
    <g id="Group_1001" class="cls-26" data-name="Group 1001" transform="translate(119.365 49.781)">
        <g id="Group_1000" class="cls-4" data-name="Group 1000" transform="translate(-806.783 -703.161)">
            <path id="Path_2623" d="M141.783-220.839h15.887v16.117h-15.887z" class="cls-21" data-name="Path 2623" transform="translate(660 919)"/>
        </g>
    </g>
    <g id="Group_1003" class="cls-27" data-name="Group 1003" transform="translate(120.253 50.452)">
        <g id="Group_1002" class="cls-4" data-name="Group 1002" transform="translate(-807.671 -703.832)">
            <path id="Path_2626" d="M142.671-220.168h13.99v14.144h-13.99z" data-name="Path 2626" transform="translate(660 919)"/>
        </g>
    </g>
    <g id="Group_1005" class="cls-28" data-name="Group 1005" transform="translate(123.006 51.89)">
        <g id="Group_1004" class="cls-4" data-name="Group 1004" transform="translate(-810.424 -705.27)">
            <path id="Path_2629" d="M145.424-218.73h11.891v11.458h-11.891z" class="cls-19" data-name="Path 2629" transform="translate(660 919)"/>
        </g>
    </g>
    <g id="Group_1007" class="cls-29" data-name="Group 1007" transform="translate(115.189 49.567)">
        <g id="Group_1006" class="cls-4" data-name="Group 1006" transform="translate(-802.607 -702.947)">
            <path id="Path_2632" d="M137.607-221.053H162.7v15.969h-25.09z" data-name="Path 2632" transform="translate(660 919)"/>
        </g>
    </g>
    <g id="Group_1009" class="cls-30" data-name="Group 1009" transform="translate(70.878)">
        <g id="Group_1008" class="cls-4" data-name="Group 1008" transform="translate(-758.296 -653.38)">
            <path id="Path_2635" d="M93.3-270.62h90.2v68.96H93.3z" class="cls-31" data-name="Path 2635" transform="translate(660 919)"/>
        </g>
    </g>
    <g id="Group_1011" class="cls-32" data-name="Group 1011" transform="translate(101.453 63.849)">
        <g id="Group_1010" class="cls-4" data-name="Group 1010" transform="translate(-788.871 -717.229)">
            <path id="Path_2638" d="M123.871-206.771h19.586v14.256h-19.586z" class="cls-13" data-name="Path 2638" transform="translate(660 919)"/>
        </g>
    </g>
    <g id="Group_1013" class="cls-33" data-name="Group 1013" transform="translate(74.534 45.174)">
        <g id="Group_1012" class="cls-4" data-name="Group 1012" transform="translate(-761.952 -698.554)">
            <path id="Path_2641" d="M96.952-225.446h14.026v20.346H96.952z" class="cls-13" data-name="Path 2641" transform="translate(660 919)"/>
        </g>
    </g>
    <g id="Group_1015" class="cls-34" data-name="Group 1015" transform="translate(136.623 53.139)">
        <g id="Group_1014" class="cls-4" data-name="Group 1014" transform="translate(-824.041 -706.519)">
            <path id="Path_2644" d="M159.041-217.481h15.7v19.569h-15.7z" class="cls-13" data-name="Path 2644" transform="translate(660 919)"/>
        </g>
    </g>
    <g id="Group_1017" class="cls-35" data-name="Group 1017" transform="translate(82.389 54.675)">
        <g id="Group_1016" class="cls-4" data-name="Group 1016" transform="translate(-769.807 -708.055)">
            <path id="Path_2647" d="M104.807-215.945H128.2v19.936h-23.393z" class="cls-36" data-name="Path 2647" transform="translate(660 919)"/>
        </g>
    </g>
    <g id="Group_1019" class="cls-37" data-name="Group 1019" transform="translate(117.074 59.412)">
        <g id="Group_1018" class="cls-4" data-name="Group 1018" transform="translate(-804.492 -712.792)">
            <path id="Path_2650" d="M139.492-211.208H163.5v19.043h-24.008z" class="cls-36" data-name="Path 2650" transform="translate(660 919)"/>
        </g>
    </g>
    <g id="Group_1021" class="cls-38" data-name="Group 1021" transform="translate(94.557 72.012)">
        <g id="Group_1020" class="cls-4" data-name="Group 1020" transform="translate(-781.975 -725.391)">
            <path id="Path_2653" d="M116.975-198.609h31.289v20.325h-31.289z" class="cls-39" data-name="Path 2653" transform="translate(660 919)"/>
        </g>
    </g>
    <g id="Group_1023" class="cls-40" data-name="Group 1023" transform="translate(97.145 72.794)">
        <g id="Group_1022" class="cls-4" data-name="Group 1022" transform="translate(-784.563 -726.174)">
            <path id="Path_2656" d="M119.563-197.826H145.2v19.118h-25.64z" class="cls-19" data-name="Path 2656" transform="translate(660 919)"/>
        </g>
    </g>
    <g id="Group_1025" class="cls-41" data-name="Group 1025" transform="translate(96.377 72.567)">
        <g id="Group_1024" class="cls-4" data-name="Group 1024" transform="translate(-783.795 -725.947)">
            <path id="Path_2659" d="M118.795-198.053h27.488v12.847h-27.488z" class="cls-42" data-name="Path 2659" transform="translate(660 919)"/>
        </g>
    </g>
    <g id="Group_1027" class="cls-43" data-name="Group 1027" transform="translate(32.6 107.872)">
        <g id="Group_1026" class="cls-4" data-name="Group 1026" transform="translate(-720.018 -761.252)">
            <path id="Path_2662" d="M55.018-162.748h122.823V-20.7H55.018z" class="cls-44" data-name="Path 2662" transform="translate(660 919)"/>
        </g>
    </g>
    <g id="Group_1029" class="cls-45" data-name="Group 1029" transform="translate(95.48 74.095)">
        <g id="Group_1028" class="cls-4" data-name="Group 1028" transform="translate(-782.898 -727.475)">
            <path id="Path_2665" d="M117.9-196.525h29.237v18.847H117.9z" class="cls-42" data-name="Path 2665" transform="translate(660 919)"/>
        </g>
    </g>
    <g id="Group_1031" class="cls-46" data-name="Group 1031" transform="translate(47.728 139.591)">
        <g id="Group_1030" class="cls-4" data-name="Group 1030" transform="translate(-735.146 -792.971)">
            <path id="Path_2668" d="M70.146-131.029h17.149v35.389H70.146z" class="cls-9" data-name="Path 2668" transform="translate(660 919)"/>
        </g>
    </g>
    <g id="Group_1033" class="cls-47" data-name="Group 1033" transform="translate(87.652 172.239)">
        <g id="Group_1032" class="cls-4" data-name="Group 1032" transform="translate(-775.07 -825.619)">
            <path id="Path_2671" d="M110.07-98.381h43.637v21.5H110.07z" class="cls-9" data-name="Path 2671" transform="translate(660 919)"/>
        </g>
    </g>
    <g id="Group_1035" class="cls-48" data-name="Group 1035" transform="translate(76.654 133.167)">
        <g id="Group_1034" class="cls-4" data-name="Group 1034" transform="translate(-764.072 -786.547)">
            <path id="Path_2674" d="M99.072-137.453h24.6v108.08h-24.6z" class="cls-9" data-name="Path 2674" transform="translate(660 919)"/>
        </g>
    </g>
    <g id="Group_1037" class="cls-49" data-name="Group 1037" transform="translate(79.926 190.073)">
        <g id="Group_1036" class="cls-4" data-name="Group 1036" transform="translate(-767.344 -843.453)">
            <path id="Path_2677" d="M102.344-80.547h59.414v20.916h-59.414z" class="cls-9" data-name="Path 2677" transform="translate(660 919)"/>
        </g>
    </g>
    <g id="Group_1039" class="cls-50" data-name="Group 1039" transform="translate(88.687 101.046)">
        <g id="Group_1038" class="cls-4" data-name="Group 1038" transform="translate(-776.105 -754.426)">
            <path id="Path_2680" d="M111.105-169.574h53.51v46.109h-53.51z" class="cls-9" data-name="Path 2680" transform="translate(660 919)"/>
        </g>
    </g>
    <g id="Group_1041" class="cls-51" data-name="Group 1041" transform="translate(97.744 100.579)">
        <g id="Group_1040" class="cls-4" data-name="Group 1040" transform="translate(-785.162 -753.959)">
            <path id="Path_2683" d="M120.162-170.041h45.647v40.434h-45.647z" class="cls-44" data-name="Path 2683" transform="translate(660 919)"/>
        </g>
    </g>
    <g id="Group_1043" class="cls-52" data-name="Group 1043" transform="translate(70.561 99.597)">
        <g id="Group_1042" class="cls-4" data-name="Group 1042" transform="translate(-757.979 -752.977)">
            <path id="Path_2686" d="M92.979-171.023h28.246v47.558H92.979z" class="cls-9" data-name="Path 2686" transform="translate(660 919)"/>
        </g>
    </g>
    <g id="Group_1045" class="cls-53" data-name="Group 1045" transform="translate(47.689 231.247)">
        <g id="Group_1044" class="cls-4" data-name="Group 1044" transform="translate(-735.107 -884.627)">
            <path id="Path_2689" d="M70.107-39.373h109.618V4.721H70.107z" class="cls-54" data-name="Path 2689" transform="translate(660 919)"/>
        </g>
    </g>
    <g id="Group_1047" class="cls-55" data-name="Group 1047" transform="translate(70.514 100.106)">
        <g id="Group_1046" class="cls-4" data-name="Group 1046" transform="translate(-757.932 -753.486)">
            <path id="Path_2692" d="M92.932-170.514H120.3v23.391H92.932z" class="cls-44" data-name="Path 2692" transform="translate(660 919)"/>
        </g>
    </g>
    <g id="Group_1049" class="cls-56" data-name="Group 1049" transform="translate(29.242 186.683)">
        <g id="Group_1048" class="cls-4" data-name="Group 1048" transform="translate(-716.66 -840.063)">
            <path id="Path_2695" d="M51.66-83.937h41.391v25.349H51.66z" class="cls-13" data-name="Path 2695" transform="translate(660 919)"/>
        </g>
    </g>
    <g id="Group_1051" class="cls-57" data-name="Group 1051" transform="translate(30.559 161.108)">
        <g id="Group_1050" class="cls-4" data-name="Group 1050" transform="translate(-717.977 -814.488)">
            <path id="Path_2698" d="M52.977-109.512h35.2v33.83h-35.2z" class="cls-11" data-name="Path 2698" transform="translate(660 919)"/>
        </g>
    </g>
    <g id="Group_1053" class="cls-58" data-name="Group 1053" transform="translate(33.907 171.559)">
        <g id="Group_1052" class="cls-4" data-name="Group 1052" transform="translate(-721.325 -824.939)">
            <path id="Path_2701" d="M56.325-99.061H78.56v17.438H56.325z" class="cls-13" data-name="Path 2701" transform="translate(660 919)"/>
        </g>
    </g>
    <g id="Group_1055" class="cls-59" data-name="Group 1055" transform="translate(33.036 171.042)">
        <g id="Group_1054" class="cls-4" data-name="Group 1054" transform="translate(-720.454 -824.422)">
            <path id="Path_2704" d="M55.454-99.578h22.7v17.386h-22.7z" class="cls-11" data-name="Path 2704" transform="translate(660 919)"/>
        </g>
    </g>
    <g id="Group_1057" class="cls-60" data-name="Group 1057" transform="translate(42.551 175.515)">
        <g id="Group_1056" class="cls-4" data-name="Group 1056" transform="translate(-729.969 -828.895)">
            <path id="Path_2707" d="M64.969-95.105h13.412v12.482H64.969z" class="cls-61" data-name="Path 2707" transform="translate(660 919)"/>
        </g>
    </g>
    <g id="Group_1059" class="cls-62" data-name="Group 1059" transform="translate(32.599 170.583)">
        <g id="Group_1058" class="cls-4" data-name="Group 1058" transform="translate(-720.017 -823.963)">
            <path id="Path_2710" d="M55.017-100.037h27.768v17.432H55.017z" class="cls-13" data-name="Path 2710" transform="translate(660 919)"/>
        </g>
    </g>
    <g id="Group_1061" class="cls-63" data-name="Group 1061" transform="translate(34.887 165.571)">
        <g id="Group_1060" class="cls-4" data-name="Group 1060" transform="translate(-722.305 -818.95)">
            <path id="Path_2713" d="M57.3-105.05h27.614v18.985H57.3z" class="cls-13" data-name="Path 2713" transform="translate(660 919)"/>
        </g>
    </g>
    <g id="Group_1063" class="cls-64" data-name="Group 1063" transform="translate(42.009 150.949)">
        <g id="Group_1062" class="cls-4" data-name="Group 1062" transform="translate(-729.427 -804.329)">
            <path id="Path_2716" d="M64.427-119.671H77.88v14.286H64.427z" class="cls-65" data-name="Path 2716" transform="translate(660 919)"/>
        </g>
    </g>
    <g id="Group_1065" class="cls-66" data-name="Group 1065" transform="translate(42.441 152.843)">
        <g id="Group_1064" class="cls-4" data-name="Group 1064" transform="translate(-729.859 -806.223)">
            <path id="Path_2719" d="M64.859-117.777H85.92v33.257H64.859z" class="cls-67" data-name="Path 2719" transform="translate(660 919)"/>
        </g>
    </g>
    <g id="Group_1067" class="cls-68" data-name="Group 1067" transform="translate(43.631 152.323)">
        <g id="Group_1066" class="cls-4" data-name="Group 1066" transform="translate(-731.049 -805.703)">
            <path id="Path_2722" d="M66.049-118.3H87.1v33.256H66.049z" class="cls-69" data-name="Path 2722" transform="translate(660 919)"/>
        </g>
    </g>
    <g id="Group_1069" class="cls-70" data-name="Group 1069" transform="translate(43.055 152.538)">
        <g id="Group_1068" class="cls-4" data-name="Group 1068" transform="translate(-730.473 -805.918)">
            <path id="Path_2725" d="M65.473-118.082h21.06v33.258h-21.06z" class="cls-71" data-name="Path 2725" transform="translate(660 919)"/>
        </g>
    </g>
    <g id="Group_1071" class="cls-72" data-name="Group 1071" transform="translate(52.301 175.052)">
        <g id="Group_1070" class="cls-4" data-name="Group 1070" transform="translate(-739.719 -828.432)">
            <path id="Path_2728" d="M74.719-95.568h13.195v15.138H74.719z" class="cls-73" data-name="Path 2728" transform="translate(660 919)"/>
        </g>
    </g>
    <g id="Group_1073" class="cls-74" data-name="Group 1073" transform="translate(54.418 178.46)">
        <g id="Group_1072" class="cls-4" data-name="Group 1072" transform="translate(-741.836 -831.84)">
            <path id="Path_2731" d="M76.836-92.16h11.078v11.73H76.836z" class="cls-75" data-name="Path 2731" transform="translate(660 919)"/>
        </g>
    </g>
    <g id="Group_1075" class="cls-76" data-name="Group 1075" transform="translate(42.418 152.276)">
        <g id="Group_1074" class="cls-4" data-name="Group 1074" transform="translate(-729.836 -805.656)">
            <path id="Path_2734" d="M64.836-118.344H77.76v12.3H64.836z" class="cls-77" data-name="Path 2734" transform="translate(660 919)"/>
        </g>
    </g>
    <g id="Group_1077" class="cls-78" data-name="Group 1077" transform="translate(37.468 156.784)">
        <g id="Group_1076" class="cls-4" data-name="Group 1076" transform="translate(-724.886 -810.164)">
            <path id="Path_2737" d="M59.886-113.836h24.581v27.323H59.886z" class="cls-11" data-name="Path 2737" transform="translate(660 919)"/>
        </g>
    </g>
    <g id="Group_1079" class="cls-79" data-name="Group 1079" transform="translate(34.941 166.089)">
        <g id="Group_1078" class="cls-4" data-name="Group 1078" transform="translate(-722.359 -819.469)">
            <path id="Path_2740" d="M57.359-104.532h25.155v21.383H57.359z" class="cls-11" data-name="Path 2740" transform="translate(660 919)"/>
        </g>
    </g>
    <g id="Group_1081" class="cls-80" data-name="Group 1081" transform="translate(46.965 161.87)">
        <g id="Group_1080" class="cls-4" data-name="Group 1080" transform="translate(-734.383 -815.25)">
            <path id="Path_2743" d="M69.383-108.75h14.048v13.729H69.383z" class="cls-61" data-name="Path 2743" transform="translate(660 919)"/>
        </g>
    </g>
    <g id="Group_1083" class="cls-81" data-name="Group 1083" transform="translate(49.085 170.341)">
        <g id="Group_1082" class="cls-4" data-name="Group 1082" transform="translate(-736.503 -823.721)">
            <path id="Path_2746" d="M71.5-100.279h13.086v12.953H71.5z" class="cls-61" data-name="Path 2746" transform="translate(660 919)"/>
        </g>
    </g>
    <g id="Group_1085" class="cls-82" data-name="Group 1085" transform="translate(46.725 173.897)">
        <g id="Group_1084" class="cls-4" data-name="Group 1084" transform="translate(-734.143 -827.277)">
            <path id="Path_2749" d="M69.143-96.723h13.42v12.769h-13.42z" class="cls-61" data-name="Path 2749" transform="translate(660 919)"/>
        </g>
    </g>
    <g id="Group_1087" class="cls-83" data-name="Group 1087" transform="translate(.623 169.659)">
        <g id="Group_1086" class="cls-4" data-name="Group 1086" transform="translate(-688.041 -823.039)">
            <path id="Path_2752" d="M23.041-100.961H87.9v25.7H23.041z" class="cls-19" data-name="Path 2752" transform="translate(660 919)"/>
        </g>
    </g>
    <g id="Group_1089" class="cls-84" data-name="Group 1089" transform="translate(55.139 177.058)">
        <g id="Group_1088" class="cls-4" data-name="Group 1088" transform="translate(-742.557 -830.438)">
            <path id="Path_2755" d="M77.557-93.562h53.031v31H77.557z" class="cls-85" data-name="Path 2755" transform="translate(660 919)"/>
        </g>
    </g>
    <g id="Group_1091" class="cls-86" data-name="Group 1091" transform="translate(0 170.69)">
        <g id="Group_1090" class="cls-4" data-name="Group 1090" transform="translate(-687.418 -824.07)">
            <path id="Path_2758" d="M22.418-99.93h108.453v43.766H22.418z" class="cls-87" data-name="Path 2758" transform="translate(660 919)"/>
        </g>
    </g>
    <g id="Group_1093" class="cls-88" data-name="Group 1093" transform="translate(27.197 180.403)">
        <g id="Group_1092" class="cls-4" data-name="Group 1092" transform="translate(-714.615 -833.783)">
            <path id="Path_2761" d="M49.615-90.217h81.256v28.483H49.615z" class="cls-89" data-name="Path 2761" transform="translate(660 919)"/>
        </g>
    </g>
    <g id="Group_1095" class="cls-90" data-name="Group 1095" transform="translate(28.521 187.075)">
        <g id="Group_1094" class="cls-4" data-name="Group 1094" transform="translate(-715.939 -840.455)">
            <path id="Path_2764" d="M50.939-83.545h53.731v31.956H50.939z" class="cls-11" data-name="Path 2764" transform="translate(660 919)"/>
        </g>
    </g>
    <g id="Group_1097" class="cls-91" data-name="Group 1097" transform="translate(41.257 190.745)">
        <g id="Group_1096" class="cls-4" data-name="Group 1096" transform="translate(-728.675 -844.125)">
            <path id="Path_2767" d="M63.675-79.875h14.608v13.369H63.675z" class="cls-61" data-name="Path 2767" transform="translate(660 919)"/>
        </g>
    </g>
    <g id="Group_1099" class="cls-92" data-name="Group 1099" transform="translate(65.812 111.993)">
        <g id="Group_1098" class="cls-4" data-name="Group 1098" transform="translate(-753.23 -765.373)">
            <path id="Path_2770" d="M88.23-158.627h103v115.756h-103z" class="cls-44" data-name="Path 2770" transform="translate(660 919)"/>
        </g>
    </g>
    <g id="Group_1101" class="cls-93" data-name="Group 1101" transform="translate(67.826 210.671)">
        <g id="Group_1100" class="cls-4" data-name="Group 1100" transform="translate(-755.244 -864.051)">
            <path id="Path_2773" d="M90.244-59.949h68.942v19.628H90.244z" class="cls-9" data-name="Path 2773" transform="translate(660 919)"/>
        </g>
    </g>
    <g id="Group_1103" class="cls-94" data-name="Group 1103" transform="translate(31.732 190.843)">
        <g id="Group_1102" class="cls-4" data-name="Group 1102" transform="translate(-719.15 -844.223)">
            <path id="Path_2776" d="M54.15-79.777h20.889v19.547H54.15z" class="cls-13" data-name="Path 2776" transform="translate(660 919)"/>
        </g>
    </g>
    <g id="Group_1105" class="cls-95" data-name="Group 1105" transform="translate(80.387 135.946)">
        <g id="Group_1104" class="cls-4" data-name="Group 1104" transform="translate(-767.805 -789.326)">
            <path id="Path_2779" d="M102.805-134.674h13.125v13.653h-13.125z" class="cls-9" data-name="Path 2779" transform="translate(660 919)"/>
        </g>
    </g>
    <g id="Group_1107" class="cls-96" data-name="Group 1107" transform="translate(73.957 157.061)">
        <g id="Group_1106" class="cls-4" data-name="Group 1106" transform="translate(-761.375 -810.441)">
            <path id="Path_2782" d="M96.375-113.559h13.018V-99.9H96.375z" class="cls-9" data-name="Path 2782" transform="translate(660 919)"/>
        </g>
    </g>
    <g id="Group_1109" class="cls-97" data-name="Group 1109" transform="translate(73.16 178.362)">
        <g id="Group_1108" class="cls-4" data-name="Group 1108" transform="translate(-760.578 -831.742)">
            <path id="Path_2785" d="M95.578-92.258H108.5V-78.6H95.578z" class="cls-9" data-name="Path 2785" transform="translate(660 919)"/>
        </g>
    </g>
    <g id="Group_1111" class="cls-98" data-name="Group 1111" transform="translate(73.16 217.106)">
        <g id="Group_1110" class="cls-4" data-name="Group 1110" transform="translate(-760.578 -870.486)">
            <path id="Path_2788" d="M95.578-53.514H108.5v13.657H95.578z" class="cls-9" data-name="Path 2788" transform="translate(660 919)"/>
        </g>
    </g>
    <g id="Group_1113" class="cls-99" data-name="Group 1113" transform="translate(67.066 16.667)">
        <g id="Group_1112" class="cls-4" data-name="Group 1112" transform="translate(-754.484 -670.047)">
            <path id="Path_2791" d="M89.484-253.954h35.252v87.909H89.484z" class="cls-100" data-name="Path 2791" transform="translate(660 919)"/>
        </g>
    </g>
    <g id="Group_1115" class="cls-101" data-name="Group 1115" transform="translate(72.459 19.668)">
        <g id="Group_1114" class="cls-4" data-name="Group 1114" transform="translate(-759.877 -673.048)">
            <path id="Path_2794" d="M94.877-250.952h29.859v74H94.877z" class="cls-100" data-name="Path 2794" transform="translate(660 919)"/>
        </g>
    </g>
    <g id="Group_1117" class="cls-102" data-name="Group 1117" transform="translate(160.103 108.743)">
        <g id="Group_1116" class="cls-4" data-name="Group 1116" transform="translate(-847.521 -762.123)">
            <path id="Path_2797" d="M182.52-161.877h25.38v74.885h-25.38z" class="cls-31" data-name="Path 2797" transform="translate(660 919)"/>
        </g>
    </g>
    <g id="Group_1119" class="cls-103" data-name="Group 1119" transform="translate(70.347 19.115)">
        <g id="Group_1118" class="cls-4" data-name="Group 1118" transform="translate(-757.765 -672.495)">
            <path id="Path_2800" d="M92.765-251.5h29.022v70.687H92.765z" class="cls-104" data-name="Path 2800" transform="translate(660 919)"/>
        </g>
    </g>
    <g id="Group_1121" class="cls-105" data-name="Group 1121" transform="translate(160.211 80.405)">
        <g id="Group_1120" class="cls-4" data-name="Group 1120" transform="translate(-847.629 -733.785)">
            <path id="Path_2803" d="M182.629-190.215H221.8v92.866h-39.171z" class="cls-100" data-name="Path 2803" transform="translate(660 919)"/>
        </g>
    </g>
    <g id="Group_1123" class="cls-106" data-name="Group 1123" transform="translate(95.75 9)">
        <g id="Group_1122" class="cls-4" data-name="Group 1122" transform="translate(-783.168 -662.38)">
            <path id="Path_2806" d="M118.168-261.62h81.013v97.952h-81.013z" class="cls-104" data-name="Path 2806" transform="translate(660 919)"/>
        </g>
    </g>
    <g id="Group_1125" class="cls-107" data-name="Group 1125" transform="translate(131.084 25.897)">
        <g id="Group_1124" class="cls-4" data-name="Group 1124" transform="translate(-818.502 -679.277)">
            <path id="Path_2809" d="M153.5-244.723h44.643v119.381H153.5z" class="cls-100" data-name="Path 2809" transform="translate(660 919)"/>
        </g>
    </g>
    <g id="Group_1127" class="cls-108" data-name="Group 1127" transform="translate(132.244 59.234)">
        <g id="Group_1126" class="cls-4" data-name="Group 1126" transform="translate(-819.662 -712.614)">
            <path id="Path_2812" d="M154.662-211.386h24v75.415h-24z" class="cls-100" data-name="Path 2812" transform="translate(660 919)"/>
        </g>
    </g>
    <g id="Group_1129" class="cls-109" data-name="Group 1129" transform="translate(116.896 7.55)">
        <g id="Group_1128" class="cls-4" data-name="Group 1128" transform="translate(-804.314 -660.93)">
            <path id="Path_2815" d="M139.314-263.07h62.594v96.32h-62.594z" class="cls-100" data-name="Path 2815" transform="translate(660 919)"/>
        </g>
    </g>
</svg>
