<svg xmlns="http://www.w3.org/2000/svg" width="136.991" height="191.206" viewBox="0 0 136.991 191.206">
    <defs>
        <style>
            .cls-1{opacity:.6}.cls-2{fill:#1d1300}.cls-3{fill:#70783e}.cls-4{fill:#c3522a}.cls-5{fill:#a3320a}
        </style>
    </defs>
    <g id="Group_3541" class="cls-1" data-name="Group 3541" transform="rotate(27 82.623 95.337)">
        <g id="Group_175" data-name="Group 175" transform="translate(42.603 34.915)">
            <path id="Path_191" d="M46.732 163.874a1.422 1.422 0 0 1-.86-.29A116.471 116.471 0 0 1 23.688.56a1.421 1.421 0 1 1 2.261 1.722 113.623 113.623 0 0 0 21.644 159.039 1.421 1.421 0 0 1-.861 2.553z" class="cls-2" data-name="Path 191"/>
        </g>
        <g id="Group_178" data-name="Group 178" transform="translate(48.815 99.594)">
            <g id="Group_176" data-name="Group 176">
                <path id="Path_192" d="M9.7 39.191L0 42.526l3.333-9.7A48.136 48.136 0 0 1 34.357 2.58L42.525 0l-2.577 8.168A48.142 48.142 0 0 1 9.7 39.191z" class="cls-3" data-name="Path 192" transform="translate(1.422 1.421)"/>
                <path id="Path_193" d="M1.419 45.366a1.42 1.42 0 0 1-1.342-1.881l3.334-9.7A49.764 49.764 0 0 1 35.35 2.644L43.52.065a1.422 1.422 0 0 1 1.78 1.783l-2.58 8.168a49.757 49.757 0 0 1-31.142 31.94l-9.7 3.333a1.415 1.415 0 0 1-.459.077zM41.77 3.6l-5.563 1.754A46.908 46.908 0 0 0 6.1 34.709l-2.39 6.947 6.948-2.388A46.9 46.9 0 0 0 40.012 9.16zM11.119 40.611z" class="cls-2" data-name="Path 193"/>
            </g>
            <g id="Group_177" data-name="Group 177" transform="translate(9.071 10.101)">
                <path id="Path_194" d="M.946 26.194a.948.948 0 0 1-.669-1.618l24.3-24.3a.947.947 0 0 1 1.34 1.339l-24.3 24.3a.942.942 0 0 1-.671.279z" class="cls-2" data-name="Path 194"/>
            </g>
        </g>
        <g id="Group_181" data-name="Group 181" transform="translate(59.735)">
            <g id="Group_179" data-name="Group 179">
                <path id="Path_195" d="M7.221 33.4l-3.842 5.5L1.4 32.486A31.517 31.517 0 0 1 6.133 4.515L9.459 0l1.787 5.315A31.518 31.518 0 0 1 7.221 33.4z" class="cls-3" data-name="Path 195" transform="translate(1.409 1.421)"/>
                <path id="Path_196" d="M4.788 41.743a1.425 1.425 0 0 1-1.357-1l-1.978-6.419A33.061 33.061 0 0 1 6.4 5.094L9.723.578a1.422 1.422 0 0 1 2.492.39L14 6.282a33.065 33.065 0 0 1-4.2 29.346l-3.845 5.506a1.424 1.424 0 0 1-1.167.609zm5.605-37.28L8.687 6.78a30.215 30.215 0 0 0-4.519 26.707l1.121 3.635L7.465 34a30.209 30.209 0 0 0 3.844-26.812z" class="cls-2" data-name="Path 196"/>
            </g>
            <g id="Group_180" data-name="Group 180" transform="translate(6.164 9.281)">
                <path id="Path_197" d="M.948 17.121a1.122 1.122 0 0 1-.147-.01.947.947 0 0 1-.789-1.082L2.392.8a.947.947 0 1 1 1.871.293L1.883 16.32a.946.946 0 0 1-.935.801z" class="cls-2" data-name="Path 197"/>
            </g>
        </g>
        <g id="Group_184" data-name="Group 184" transform="translate(59.908 26.899)">
            <g id="Group_182" data-name="Group 182">
                <path id="Path_198" d="M8.231 18.268L0 17.242l5.871-5.861A38.939 38.939 0 0 1 39.168.433l6.851 1.029-4.778 5.018a38.935 38.935 0 0 1-33.01 11.788z" class="cls-3" data-name="Path 198" transform="translate(1.422 1.416)"/>
                <path id="Path_199" d="M14.413 21.4a39.86 39.86 0 0 1-4.934-.307l-8.233-1.024a1.42 1.42 0 0 1-.828-2.416l5.872-5.862A40.512 40.512 0 0 1 40.8.444l6.853 1.029a1.422 1.422 0 0 1 .818 2.386l-4.78 5.018A40.542 40.542 0 0 1 14.413 21.4zm-9.928-3.791l5.343.665A37.676 37.676 0 0 0 41.636 6.918l2.893-3.039-4.15-.623A37.669 37.669 0 0 0 8.3 13.8z" class="cls-2" data-name="Path 199"/>
            </g>
            <g id="Group_183" data-name="Group 183" transform="translate(22.053 5.505)">
                <path id="Path_200" d="M.947 6.7A.947.947 0 0 1 .64 4.858L14.661.051a.947.947 0 1 1 .613 1.793L1.254 6.651a.954.954 0 0 1-.307.049z" class="cls-2" data-name="Path 200"/>
            </g>
        </g>
        <g id="Group_187" data-name="Group 187" transform="translate(0 63.87)">
            <g id="Group_185" data-name="Group 185">
                <path id="Path_201" d="M3.335 9.7L0 0l9.7 3.335a48.132 48.132 0 0 1 30.246 31.024l2.58 8.168-8.169-2.579A48.13 48.13 0 0 1 3.335 9.7z" class="cls-3" data-name="Path 201" transform="translate(1.422 1.421)"/>
                <path id="Path_202" d="M43.947 45.368a1.434 1.434 0 0 1-.429-.067l-8.168-2.578A49.753 49.753 0 0 1 3.413 11.58L.077 1.882A1.422 1.422 0 0 1 1.882.076l9.7 3.335A49.762 49.762 0 0 1 42.724 35.35l2.576 8.167a1.423 1.423 0 0 1-1.355 1.85zM3.71 3.711l2.39 6.946a46.9 46.9 0 0 0 30.108 29.355l5.561 1.757-1.757-5.561A46.9 46.9 0 0 0 10.657 6.1z" class="cls-2" data-name="Path 202"/>
            </g>
            <g id="Group_186" data-name="Group 186" transform="translate(9.072 9.071)">
                <path id="Path_203" d="M25.247 26.2a.951.951 0 0 1-.67-.278L.278 1.617A.947.947 0 1 1 1.617.277l24.3 24.3a.947.947 0 0 1-.67 1.616z" class="cls-2" data-name="Path 203"/>
            </g>
        </g>
        <g id="Group_189" data-name="Group 189" transform="translate(44.457 84.284)">
            <path id="Path_204" d="M13.813 6.9A6.908 6.908 0 1 1 6.911 0a6.937 6.937 0 0 1 6.902 6.9z" class="cls-4" data-name="Path 204" transform="translate(.948 .948)"/>
            <g id="Group_188" data-name="Group 188">
                <path id="Path_205" d="M7.857 15.7a7.846 7.846 0 1 1 7.374-5.15 7.863 7.863 0 0 1-7.374 5.15zm0-13.806a5.98 5.98 0 0 0-4.909 2.574 5.9 5.9 0 0 0-1.055 3.383A5.96 5.96 0 1 0 7.857 1.9z" class="cls-2" data-name="Path 205"/>
            </g>
        </g>
        <g id="Group_191" data-name="Group 191" transform="translate(45.383 75.687)">
            <path id="Path_206" d="M18.461 9.236a9.232 9.232 0 0 1-5.994 8.64A6.908 6.908 0 0 0 .3 11.577 9.427 9.427 0 0 1 0 9.236a9.23 9.23 0 1 1 18.461 0z" class="cls-5" data-name="Path 206" transform="translate(.949 .948)"/>
            <g id="Group_190" data-name="Group 190">
                <path id="Path_207" d="M13.417 19.77a.946.946 0 0 1-.889-1.271 5.961 5.961 0 0 0-10.5-5.434.947.947 0 0 1-1.695-.306A10.318 10.318 0 0 1 0 10.182a10.179 10.179 0 1 1 13.75 9.527.953.953 0 0 1-.333.061zM6.933 8.6a7.858 7.858 0 0 1 7.85 7.85c0 .212-.009.422-.026.634A8.284 8.284 0 1 0 1.9 10.182v.239A7.861 7.861 0 0 1 6.933 8.6z" class="cls-2" data-name="Path 207"/>
            </g>
        </g>
        <g id="Group_193" data-name="Group 193" transform="translate(32.624 71.082)">
            <ellipse id="Ellipse_84" cx="6.38" cy="6.38" class="cls-4" data-name="Ellipse 84" rx="6.38" ry="6.38" transform="translate(.948 .948)"/>
            <g id="Group_192" data-name="Group 192">
                <path id="Path_208" d="M7.328 14.654a7.327 7.327 0 1 1 7.325-7.326 7.336 7.336 0 0 1-7.325 7.326zm0-12.759a5.432 5.432 0 1 0 5.431 5.433A5.44 5.44 0 0 0 7.328 1.9z" class="cls-2" data-name="Path 208"/>
            </g>
        </g>
        <g id="Group_195" data-name="Group 195" transform="translate(29.711 108.222)">
            <path id="Path_209" d="M0 6.81A6.811 6.811 0 1 0 6.81 0 6.811 6.811 0 0 0 0 6.81z" class="cls-4" data-name="Path 209" transform="translate(.948 .948)"/>
            <g id="Group_194" data-name="Group 194">
                <path id="Path_210" d="M7.759 15.515a7.758 7.758 0 1 1 7.757-7.756 7.766 7.766 0 0 1-7.757 7.756zm0-13.62a5.863 5.863 0 1 0 5.863 5.864A5.872 5.872 0 0 0 7.759 1.9z" class="cls-2" data-name="Path 210"/>
            </g>
        </g>
        <g id="Group_197" data-name="Group 197" transform="translate(53.669 143.428)">
            <path id="Path_211" d="M0 6.811A6.811 6.811 0 1 0 6.81 0 6.809 6.809 0 0 0 0 6.811z" class="cls-4" data-name="Path 211" transform="translate(.947 .948)"/>
            <g id="Group_196" data-name="Group 196">
                <path id="Path_212" d="M7.757 15.516a7.758 7.758 0 1 1 7.758-7.758 7.766 7.766 0 0 1-7.758 7.758zm0-13.622a5.864 5.864 0 1 0 5.864 5.864 5.871 5.871 0 0 0-5.864-5.863z" class="cls-2" data-name="Path 212"/>
            </g>
        </g>
        <g id="Group_199" data-name="Group 199" transform="translate(52.157 34.516)">
            <ellipse id="Ellipse_85" cx="4.783" cy="4.783" class="cls-4" data-name="Ellipse 85" rx="4.783" ry="4.783" transform="translate(.947 .947)"/>
            <g id="Group_198" data-name="Group 198">
                <path id="Path_213" d="M5.729 11.46a5.73 5.73 0 1 1 5.731-5.73 5.737 5.737 0 0 1-5.731 5.73zm0-9.565A3.835 3.835 0 1 0 9.566 5.73 3.838 3.838 0 0 0 5.729 1.9z" class="cls-2" data-name="Path 213"/>
            </g>
        </g>
        <g id="Group_201" data-name="Group 201" transform="translate(58.271 45.637)">
            <ellipse id="Ellipse_86" cx="4.783" cy="4.783" class="cls-4" data-name="Ellipse 86" rx="4.783" ry="4.783" transform="translate(.948 .948)"/>
            <g id="Group_200" data-name="Group 200">
                <path id="Path_214" d="M5.731 11.461a5.731 5.731 0 1 1 5.729-5.73 5.737 5.737 0 0 1-5.729 5.73zm0-9.567a3.837 3.837 0 1 0 3.835 3.837 3.839 3.839 0 0 0-3.835-3.836z" class="cls-2" data-name="Path 214"/>
            </g>
        </g>
    </g>
</svg>
