<svg xmlns="http://www.w3.org/2000/svg" width="848.9" height="399.729" viewBox="0 0 848.9 399.729">
    <defs>
        <style>
            .cls-1,.cls-2{fill:#2d191a;font-family:MyanmarMN-Bold,Myanmar MN;font-weight:700}.cls-1{font-size:15px}.cls-2{font-size:14px}.cls-3,.cls-4{fill:none;stroke:#2d191a;stroke-linecap:round}.cls-3{opacity:.396}.cls-4{opacity:.157}.cls-5{fill:#f9b034}.cls-6{fill:#371f18}.cls-7{fill:#a5622a}.cls-8{fill:#a58a73}
        </style>
    </defs>
    <g id="Group_3485" data-name="Group 3485" transform="translate(-533 -7251.271)">
        <text id="_100_BFF" class="cls-1" data-name="100 BFF" transform="translate(632 7583)">
            <tspan x="0" y="0">100 BFF</tspan>
        </text>
        <text id="_300_BFF" class="cls-1" data-name="300 BFF" transform="translate(789 7583)">
            <tspan x="0" y="0">300 BFF</tspan>
        </text>
        <text id="_500_BFF" class="cls-1" data-name="500 BFF" transform="translate(946 7583)">
            <tspan x="0" y="0">500 BFF</tspan>
        </text>
        <text id="_1000_BFF" class="cls-1" data-name="1000 BFF" transform="translate(1103 7583)">
            <tspan x="0" y="0">1000 BFF</tspan>
        </text>
        <text id="_3000_BFF" class="cls-1" data-name="3000 BFF" transform="translate(1260 7583)">
            <tspan x="0" y="0">3000 BFF</tspan>
        </text>
        <text id="_60" class="cls-2" data-name="60" transform="translate(549 7279)">
            <tspan x="-15.627" y="0">60</tspan>
        </text>
        <text id="_45" class="cls-2" data-name="45" transform="translate(549 7349)">
            <tspan x="-15.627" y="0">45</tspan>
        </text>
        <text id="_30" class="cls-2" data-name="30" transform="translate(549 7419)">
            <tspan x="-15.627" y="0">30</tspan>
        </text>
        <text id="_15" class="cls-2" data-name="15" transform="translate(549 7489)">
            <tspan x="-15.627" y="0">15</tspan>
        </text>
        <text id="_0" class="cls-2" data-name="0" transform="translate(549 7559)">
            <tspan x="-7.813" y="0">0</tspan>
        </text>
        <path id="Path_4780" d="M18336.486 820.888h771.9" class="cls-3" data-name="Path 4780" transform="translate(-17726.988 6734)"/>
        <path id="Path_4781" d="M18336.486 820.888h771.9" class="cls-4" data-name="Path 4781" transform="translate(-17726.988 6664)"/>
        <path id="Path_4782" d="M18336.486 820.888h771.9" class="cls-4" data-name="Path 4782" transform="translate(-17726.988 6594)"/>
        <path id="Path_4783" d="M18336.486 820.888h771.9" class="cls-4" data-name="Path 4783" transform="translate(-17726.988 6524)"/>
        <path id="Path_4784" d="M18336.486 820.888h771.9" class="cls-4" data-name="Path 4784" transform="translate(-17726.988 6454)"/>
        <path id="Path_4785" d="M19434.953 880.56V584.606" class="cls-3" data-name="Path 4785" transform="translate(-18831.42 6667.166)"/>
        <path id="Rectangle_1144" d="M0 0h23v253H0z" class="cls-5" data-name="Rectangle 1144" transform="translate(1316 7302)"/>
        <path id="Rectangle_1147" d="M0 0h23v220H0z" class="cls-5" data-name="Rectangle 1147" transform="translate(1159 7335)"/>
        <path id="Rectangle_1152" d="M0 0h23v183H0z" class="cls-5" data-name="Rectangle 1152" transform="translate(997 7372)"/>
        <path id="Rectangle_1156" d="M0 0h23v155H0z" class="cls-5" data-name="Rectangle 1156" transform="translate(840 7400)"/>
        <path id="Rectangle_1160" d="M0 0h23v150H0z" class="cls-5" data-name="Rectangle 1160" transform="translate(683 7405)"/>
        <path id="Rectangle_1145" d="M0 0h23v183H0z" class="cls-6" data-name="Rectangle 1145" transform="translate(1293 7372)"/>
        <path id="Rectangle_1148" d="M0 0h23v162H0z" class="cls-6" data-name="Rectangle 1148" transform="translate(1136 7393)"/>
        <path id="Rectangle_1153" d="M0 0h23v136H0z" class="cls-6" data-name="Rectangle 1153" transform="translate(974 7419)"/>
        <path id="Rectangle_1157" d="M0 0h23v130H0z" class="cls-6" data-name="Rectangle 1157" transform="translate(817 7425)"/>
        <path id="Rectangle_1161" d="M0 0h23v110H0z" class="cls-6" data-name="Rectangle 1161" transform="translate(660 7445)"/>
        <path id="Rectangle_1146" d="M0 0h23v123H0z" class="cls-7" data-name="Rectangle 1146" transform="translate(1270 7432)"/>
        <path id="Rectangle_1150" d="M0 0h23v110H0z" class="cls-7" data-name="Rectangle 1150" transform="translate(1113 7445)"/>
        <path id="Rectangle_1154" d="M0 0h23v92H0z" class="cls-7" data-name="Rectangle 1154" transform="translate(951 7463)"/>
        <path id="Rectangle_1158" d="M0 0h23v81H0z" class="cls-7" data-name="Rectangle 1158" transform="translate(794 7474)"/>
        <path id="Rectangle_1162" d="M0 0h23v75H0z" class="cls-7" data-name="Rectangle 1162" transform="translate(637 7480)"/>
        <path id="Rectangle_1149" d="M0 0h23v62H0z" class="cls-8" data-name="Rectangle 1149" transform="translate(1247 7493)"/>
        <path id="Rectangle_1151" d="M0 0h23v55H0z" class="cls-8" data-name="Rectangle 1151" transform="translate(1090 7500)"/>
        <path id="Rectangle_1155" d="M0 0h23v39H0z" class="cls-8" data-name="Rectangle 1155" transform="translate(928 7516)"/>
        <path id="Rectangle_1159" d="M0 0h23v32H0z" class="cls-8" data-name="Rectangle 1159" transform="translate(771 7523)"/>
        <path id="Rectangle_1163" d="M0 0h23v26H0z" class="cls-8" data-name="Rectangle 1163" transform="translate(614 7529)"/>
        <g id="Group_3340" data-name="Group 3340" transform="translate(45 -1614)">
            <text id="_per_3_months" class="cls-1" data-name="% per 3 months" transform="translate(644 9258)">
                <tspan x="0" y="0">% per 3 months</tspan>
            </text>
            <path id="Rectangle_1164" d="M0 0h23v23H0z" class="cls-8" data-name="Rectangle 1164" transform="translate(614 9242)"/>
        </g>
        <g id="Group_3341" data-name="Group 3341" transform="translate(47 -1614)">
            <text id="_per_6_months" class="cls-1" data-name="% per 6 months" transform="translate(801 9258)">
                <tspan x="0" y="0">% per 6 months</tspan>
            </text>
            <path id="Rectangle_1165" d="M0 0h23v23H0z" class="cls-7" data-name="Rectangle 1165" transform="translate(771 9242)"/>
        </g>
        <g id="Group_3342" data-name="Group 3342" transform="translate(48 -1614)">
            <text id="_per_9_months" class="cls-1" data-name="% per 9 months" transform="translate(958 9258)">
                <tspan x="0" y="0">% per 9 months</tspan>
            </text>
            <path id="Rectangle_1166" d="M0 0h23v23H0z" class="cls-6" data-name="Rectangle 1166" transform="translate(928 9242)"/>
        </g>
        <g id="Group_3343" data-name="Group 3343" transform="translate(45 -1614)">
            <text id="_per_annum" class="cls-1" data-name="% per annum" transform="translate(1120 9258)">
                <tspan x="0" y="0">% per annum</tspan>
            </text>
            <path id="Rectangle_1167" d="M0 0h23v23H0z" class="cls-5" data-name="Rectangle 1167" transform="translate(1090 9242)"/>
        </g>
    </g>
</svg>
