<svg xmlns="http://www.w3.org/2000/svg" width="462.117" height="462.117" viewBox="0 0 462.117 462.117">
    <defs>
        <style>
            .cls-1,.cls-10,.cls-11,.cls-15,.cls-2{fill:none}.cls-1,.cls-2{stroke:#a5622b;stroke-width:3px}.cls-2{stroke:#a5622a}.cls-3{fill:#a5622a}.cls-4,.cls-6{fill:#f9b034}.cls-5{fill:#a5622b}.cls-6{font-size:18px}.cls-6,.cls-7,.cls-8{font-family:MyanmarMN-Bold,Myanmar MN;font-weight:700}.cls-7{fill:#703c16;font-size:11px}.cls-8{fill:#2d191a;font-size:19px}.cls-9{fill:#2e1a1a;fill-rule:evenodd}.cls-10,.cls-11{stroke:#f9b034;stroke-width:2px}.cls-10{stroke-dasharray:205 1500}.cls-12{fill:#e25050}.cls-13{fill:#23eaa4}.cls-14{stroke:none}
        </style>
    </defs>
    <g id="Group_3483" data-name="Group 3483" transform="translate(-410.942 -3947.941)">
        <g id="Ellipse_204" class="cls-1" data-name="Ellipse 204" transform="translate(604.572 4329.446)">
            <circle cx="38.162" cy="38.162" r="38.162" class="cls-14"/>
            <circle cx="38.162" cy="38.162" r="36.662" class="cls-15"/>
        </g>
        <g id="Ellipse_205" class="cls-1" data-name="Ellipse 205" transform="translate(604.572 3952.23)">
            <circle cx="38.162" cy="38.162" r="38.162" class="cls-14"/>
            <circle cx="38.162" cy="38.162" r="36.662" class="cls-15"/>
        </g>
        <g id="Ellipse_203" class="cls-1" data-name="Ellipse 203" transform="translate(793.18 4140.838)">
            <circle cx="38.162" cy="38.162" r="38.162" class="cls-14"/>
            <circle cx="38.162" cy="38.162" r="36.662" class="cls-15"/>
        </g>
        <g id="Ellipse_206" class="cls-2" data-name="Ellipse 206" transform="translate(415.965 4140.838)">
            <circle cx="38.162" cy="38.162" r="38.162" class="cls-14"/>
            <circle cx="38.162" cy="38.162" r="36.662" class="cls-15"/>
        </g>
        <g id="ic_play_for_work_48px" transform="translate(647.137 4231.839)">
            <path id="Path_4747" d="M19.137 19.11v-52.23H14L21.339-50l7.339 16.879H23.54V19.11z" class="cls-3" data-name="Path 4747" transform="translate(-14 50)"/>
        </g>
        <g id="ic_play_for_work_48px-2" data-name="ic_play_for_work_48px" transform="translate(647.137 4057.176)">
            <path id="Path_4747-2" d="M19.137-50V2.23H14l7.339 16.88 7.339-16.88H23.54V-50z" class="cls-4" data-name="Path 4747" transform="translate(-14 50)"/>
        </g>
        <g id="ic_play_for_work_48px-3" data-name="ic_play_for_work_48px" transform="rotate(90 -1696.915 2462.27)">
            <path id="Path_4747-3" d="M5.137 0v52.23H0l7.339 16.88 7.339-16.88H9.54V0z" class="cls-3" data-name="Path 4747"/>
        </g>
        <g id="ic_play_for_work_48px-4" data-name="ic_play_for_work_48px" transform="translate(622.188 4038.828)">
            <path id="Path_4747-4" d="M5.137 69.11V16.879H0L7.339 0l7.339 16.879H9.54V69.11z" class="cls-5" data-name="Path 4747"/>
        </g>
        <g id="ic_play_for_work_48px-5" data-name="ic_play_for_work_48px" transform="translate(622.188 4251.53)">
            <path id="Path_4747-5" d="M5.137 0v52.23H0l7.339 16.88 7.339-16.88H9.54V0z" class="cls-4" data-name="Path 4747"/>
        </g>
        <g id="ic_play_for_work_48px-6" data-name="ic_play_for_work_48px" transform="rotate(-90 2348.488 1850.327)">
            <path id="Path_4747-6" d="M5.137 69.11V16.879H0L7.339 0l7.339 16.879H9.54V69.11z" class="cls-4" data-name="Path 4747"/>
        </g>
        <g id="ic_play_for_work_48px-7" data-name="ic_play_for_work_48px" transform="rotate(-90 2459.303 1739.512)">
            <path id="Path_4747-7" d="M5.137 0v52.23H0l7.339 16.88 7.339-16.88H9.54V0z" class="cls-4" data-name="Path 4747"/>
        </g>
        <g id="ic_play_for_work_48px-8" data-name="ic_play_for_work_48px" transform="rotate(-90 2346.652 1827.211)">
            <path id="Path_4747-8" d="M5.137 0v52.23H0l7.339 16.88 7.339-16.88H9.54V0z" class="cls-3" data-name="Path 4747"/>
        </g>
        <text id="_" class="cls-6" data-name="$" transform="translate(629.34 4244.026)">
            <tspan x="-4.601" y="0">$</tspan>
        </text>
        <text id="_2" class="cls-6" data-name="$" transform="translate(705.1 4197.314)">
            <tspan x="-4.601" y="0">$</tspan>
        </text>
        <text id="BFF" class="cls-7" transform="translate(629.516 4123.483)">
            <tspan x="-10.27" y="0">BFF</tspan>
        </text>
        <text id="BFF-2" class="cls-7" data-name="BFF" transform="translate(506.281 4169.403)">
            <tspan x="-10.27" y="0">BFF</tspan>
        </text>
        <text id="BFF-3" class="cls-7" data-name="BFF" transform="translate(778.904 4169.403)">
            <tspan x="-10.27" y="0">BFF</tspan>
        </text>
        <text id="BFF-4" class="cls-7" data-name="BFF" transform="translate(654.516 4314.777)">
            <tspan x="-10.27" y="0">BFF</tspan>
        </text>
        <text id="_3" class="cls-6" data-name="$" transform="translate(654.34 4050.957)">
            <tspan x="-4.601" y="0">$</tspan>
        </text>
        <text id="_4" class="cls-6" data-name="$" transform="translate(579.096 4197.314)">
            <tspan x="-4.601" y="0">$</tspan>
        </text>
        <text id="_4-2" class="cls-8" data-name="4" transform="translate(451.053 4183.322)">
            <tspan x="-5.302" y="0">4</tspan>
        </text>
        <text id="_1" class="cls-8" data-name="1" transform="translate(641.863 3994.715)">
            <tspan x="-5.302" y="0">1</tspan>
        </text>
        <text id="_2-2" class="cls-8" data-name="2" transform="translate(830.471 4183.322)">
            <tspan x="-5.302" y="0">2</tspan>
        </text>
        <text id="_3-2" class="cls-8" data-name="3" transform="translate(641.863 4372.664)">
            <tspan x="-5.302" y="0">3</tspan>
        </text>
        <g id="Group_3334" data-name="Group 3334" transform="translate(599.828 4137.191)">
            <g id="Group_2" data-name="Group 2">
                <path id="Path_11" d="M137.221 305.04a39.714 39.714 0 1 0 72.627-22.2 9.44 9.44 0 0 1-1.07 1.991 37.7 37.7 0 1 1-17.409-14.65 10.855 10.855 0 0 1 .637-1.873 39.7 39.7 0 0 0-54.784 36.736z" class="cls-5" data-name="Path 11" transform="translate(-134.551 -262.656)"/>
                <path id="Path_12" d="M210.628 279.368a12.917 12.917 0 0 1-.3 1.913 40.95 40.95 0 1 1-17.721-14.131 8.417 8.417 0 0 1 .858-1.137 42.5 42.5 0 1 0 17.166 13.355z" class="cls-5" data-name="Path 12" transform="translate(-134.551 -262.656)"/>
            </g>
            <g id="Group_3" data-name="Group 3" transform="translate(10.149 15.068)">
                <path id="Path_13" d="M204.7 312.228a7.509 7.509 0 0 1-2.442 2.024 16.207 16.207 0 0 1-1.664.782 10.041 10.041 0 0 0-.8-1.655 11.107 11.107 0 0 0-2.051-2.477q-3.537-3.223-11.938-4.62 6.343-1.659 9.514-4.645a11.013 11.013 0 0 0 1.12-1.224l-.63-.215a36.585 36.585 0 0 0-8.582-1.783 8.043 8.043 0 0 1-2.119 4.238q-2.458 2.386-8.169 2.387h-5.549v-16.476a2.29 2.29 0 0 1 .847-2.055q.847-.564 4-.563 6.608 0 8.966 2.022a6.584 6.584 0 0 1 2.033 3.632 12.444 12.444 0 0 1 .275 1.863q-.912-.075-1.851-.129-2.38-.135-4.934-.138-3.894 0-7.5.282v3.274a48.663 48.663 0 0 1 6.126-.379q.811 0 1.61.029a49.28 49.28 0 0 1 1.646-.029q1.561 0 3.052.086.927.052 1.828.138a38.176 38.176 0 0 1 8.922 1.87c.361.125.71.242 1.049.356.615.207 1.2.4 1.743.616a9.111 9.111 0 0 1 2.648 1.473h6.092l-.071-.562-.758-7.116h-2.838l-3.5 2.7-.532-.146q-.907-.251-1.795-.475c.028-.318.044-.642.044-.972 0-.311-.016-.616-.04-.917a10.264 10.264 0 0 0-3.946-7.294q-3.985-3.3-10.925-3.3h-.181v-5.1H179v5.1h-5.257v-5.1h-4.4v5.1h-15.554v3.088h3.82a4.465 4.465 0 0 1 2.507.532 1.637 1.637 0 0 1 .748 1.395v25.944a12.94 12.94 0 0 1-1.835-1.462 7.13 7.13 0 0 1-2.41-4.94v-.167a6.9 6.9 0 0 1 2.414-4.985v-6.286c-.781.227-1.55.464-2.3.719q-11.872 4.018-12.021 10.719V307.562q0 6.144 10.427 10.077 1.891.714 3.9 1.3.9.262 1.835.5a67.527 67.527 0 0 0 10.526 1.753q.9.083 1.835.147c2.279.159 4.676.239 7.206.239 2.69 0 5.191-.105 7.537-.311a69.861 69.861 0 0 0 1.891-.191 51.565 51.565 0 0 0 10.3-2.2 31.38 31.38 0 0 0 1.107-.39q.96-.36 1.79-.751a12.153 12.153 0 0 0 5.842-5.079zm-16.544 5.649a65.443 65.443 0 0 1-5.139.193q-1.228 0-2.379-.039-.91.036-1.841.037a48.167 48.167 0 0 1-5.576-.316q-.936-.11-1.835-.255v-9.369h7.472q5.446 0 8.3 2.74a9.16 9.16 0 0 1 2.594 5.016 14.369 14.369 0 0 1 .226 1.819q-.886.097-1.82.174z" class="cls-5" data-name="Path 13" transform="translate(-144.701 -277.725)"/>
                <path id="Path_14" d="M189.413 322.958a8.072 8.072 0 0 1-2.066 3.34 10.2 10.2 0 0 1-7.355 2.557h-6.375a1.989 1.989 0 0 1-1.628-.731 3.285 3.285 0 0 1-.6-2.125v-2.968a69.507 69.507 0 0 1-10.526-1.7v4.537a3.482 3.482 0 0 1-.8 2.292 2.192 2.192 0 0 1-1.761.7h-4.512v3.089h15.561V336h4.4v-4.056H179V336h4.4v-4.082a28.359 28.359 0 0 0 9.092-1.669q4.467-1.695 6.259-3.889a11.028 11.028 0 0 0 2.444-5.9c-.152.053-.307.106-.463.157a54.285 54.285 0 0 1-11.319 2.341z" class="cls-5" data-name="Path 14" transform="translate(-144.702 -277.729)"/>
            </g>
            <g id="Group_4" data-name="Group 4" transform="translate(58.509 2.765)">
                <path id="Path_15" d="M199.105 265.421c1.712.325 3.162 1.88 3.955 4.058a3.022 3.022 0 0 0-2.257.36 2.01 2.01 0 0 0-.216.128 5.357 5.357 0 0 0-.9.724c.073-.3.143-.595.209-.9.347-1.588.435-3.3-.795-4.374zm-.925 16.013c-2.882-.13-5.161-3.715-5.115-8.092a11.08 11.08 0 0 1 .955-4.484 7.792 7.792 0 0 1 .832-1.379 5.835 5.835 0 0 1 .444-.521c1.827-1.889 3.565-1.06 3.449 1.447a7.017 7.017 0 0 1-.115.958c-.564 3.012-1.57 5.4-1.626 8.65-.02 1.209.106 2.656 1.176 3.421z" class="cls-9" data-name="Path 15" transform="translate(-193.065 -265.421)"/>
                <path id="Path_16" d="M204.237 270.092c1.8.323 3.329 2.009 4.115 4.356a11.412 11.412 0 0 1 .565 3.293 10.9 10.9 0 0 1-1.455 5.861c-1.575 2.614-3.744 2.383-3.855-.675-.108-2.977.879-5.629 1.47-8.476.33-1.588.4-3.3-.84-4.359zm-.755 16c-2.878-.1-5.191-3.655-5.191-8.025a11.074 11.074 0 0 1 .906-4.486 7.744 7.744 0 0 1 .817-1.386 5.565 5.565 0 0 1 .437-.524c1.8-1.906 3.548-1.1 3.459 1.407a6.917 6.917 0 0 1-.106.958c-.531 3.013-1.51 5.408-1.532 8.652-.007 1.208.134 2.651 1.21 3.4z" class="cls-9" data-name="Path 16" transform="translate(-193.066 -265.421)"/>
            </g>
        </g>
        <g id="Group_3333" data-name="Group 3333" transform="translate(413.367 3950.366)">
            <g id="Ellipse_181" class="cls-10" data-name="Ellipse 181" transform="rotate(14 45.628 371.614)">
                <circle cx="188.608" cy="188.608" r="188.608" class="cls-14"/>
                <circle cx="188.608" cy="188.608" r="189.608" class="cls-15"/>
            </g>
            <g id="Ellipse_186" class="cls-10" data-name="Ellipse 186" transform="rotate(104 192.985 224.257)">
                <circle cx="188.608" cy="188.608" r="188.608" class="cls-14"/>
                <circle cx="188.608" cy="188.608" r="189.608" class="cls-15"/>
            </g>
            <g id="Ellipse_187" class="cls-10" data-name="Ellipse 187" transform="rotate(-166 211.078 206.164)">
                <circle cx="188.608" cy="188.608" r="188.608" class="cls-14"/>
                <circle cx="188.608" cy="188.608" r="189.608" class="cls-15"/>
            </g>
            <g id="Ellipse_188" class="cls-10" data-name="Ellipse 188" transform="rotate(-76 234.236 183.005)">
                <circle cx="188.608" cy="188.608" r="188.608" class="cls-14"/>
                <circle cx="188.608" cy="188.608" r="189.608" class="cls-15"/>
            </g>
            <path id="Path_4751" d="M20240.594 5448.707l-5.02 2.269 3.328 4.119" class="cls-11" data-name="Path 4751" transform="translate(-19961.02 -5406.103)"/>
            <path id="Path_4755" d="M5.1 0L0 1.018 2.392 5.7" class="cls-11" data-name="Path 4755" transform="rotate(-129 250.377 -5.473)"/>
            <path id="Path_4757" d="M4.631 4.425L0 3.815l2.237-4.37" class="cls-11" data-name="Path 4757" transform="rotate(-51 211.125 47.17)"/>
            <path id="Path_4756" d="M5.162 4.723L0 4.291 2.551-.43" class="cls-11" data-name="Path 4756" transform="rotate(129 142.114 237.229)"/>
            <path id="Path_4758" d="M5.163 0L0 .432l3.125 4.839" class="cls-11" data-name="Path 4758" transform="rotate(51 -262.495 182.479)"/>
            <path id="Path_4754" d="M20235.531 5449.263l5.336 2-3.545 3.872" class="cls-11" data-name="Path 4754" transform="translate(-20055.76 -5407.063)"/>
            <path id="Path_4752" d="M20235.686 5455.3l4.953-1.94-3.328-4.12" class="cls-11" data-name="Path 4752" transform="translate(-20057.143 -5040.629)"/>
            <path id="Path_4753" d="M20240.6 5455.632l-5.045-1.6 3.463-4.206" class="cls-11" data-name="Path 4753" transform="translate(-19963.215 -5040.785)"/>
        </g>
        <g id="ic_reply_48px" transform="rotate(-115 1607.583 1882.774)">
            <path id="Path_4763" d="M36.874 13.564V0L0 23.737l36.874 23.736V33.57c26.338 0 44.775 5.426 57.944 17.294-5.268-16.955-21.071-33.909-57.944-37.3z" class="cls-12" data-name="Path 4763"/>
        </g>
        <g id="ic_reply_48px-2" data-name="ic_reply_48px" transform="rotate(-78 3001.513 1745.627)">
            <path id="Path_4763-2" d="M36.874 37.3v13.564L0 27.128 36.874 3.391v13.9c26.338 0 44.775-5.426 57.944-17.294C89.55 16.955 73.747 33.909 36.874 37.3z" class="cls-13" data-name="Path 4763"/>
        </g>
        <g id="ic_reply_48px-3" data-name="ic_reply_48px" transform="scale(-1) rotate(10.02 23282.84 -6540.306)">
            <path id="Path_4763-3" d="M36.873 37.3v13.564L0 27.128 36.873 3.391v13.9c26.338 0 44.775-5.426 57.944-17.294C89.549 16.954 73.746 33.909 36.873 37.3z" class="cls-13" data-name="Path 4763"/>
        </g>
        <g id="ic_reply_48px-4" data-name="ic_reply_48px" transform="rotate(10.02 -23724.608 4979.663)">
            <path id="Path_4763-4" d="M36.873 37.3v13.564L0 27.128 36.873 3.391v13.9c26.338 0 44.775-5.426 57.944-17.294C89.549 16.954 73.746 33.909 36.873 37.3z" class="cls-13" data-name="Path 4763"/>
        </g>
    </g>
</svg>
