<svg xmlns="http://www.w3.org/2000/svg" width="454.117" height="454.117" viewBox="0 0 454.117 454.117">
    <defs>
        <style>
            .cls-1,.cls-10,.cls-11,.cls-13,.cls-2{fill:none}.cls-1,.cls-2{stroke:#a5622b;stroke-width:3px}.cls-2{stroke:#a5622a}.cls-3{fill:#a5622a}.cls-4,.cls-6{fill:#f9b034}.cls-5{fill:#371f18}.cls-5,.cls-6{font-size:17px}.cls-5,.cls-6,.cls-7{font-family:MyanmarMN-Bold,Myanmar MN;font-weight:700}.cls-7{fill:#2d191a;font-size:19px}.cls-8{fill:#a5622b}.cls-9{fill:#2e1a1a;fill-rule:evenodd}.cls-10,.cls-11{stroke:#f9b034;stroke-width:2px}.cls-10{stroke-dasharray:203 1500}.cls-12{stroke:none}
        </style>
    </defs>
    <g id="Group_3482" data-name="Group 3482" transform="translate(-402.942 -3061.941)">
        <g id="Ellipse_207" class="cls-1" data-name="Ellipse 207" transform="translate(593.227 3436.814)">
            <circle cx="37.494" cy="37.494" r="37.494" class="cls-12"/>
            <circle cx="37.494" cy="37.494" r="35.994" class="cls-13"/>
        </g>
        <g id="Ellipse_209" class="cls-1" data-name="Ellipse 209" transform="translate(593.227 3066.198)">
            <circle cx="37.494" cy="37.494" r="37.494" class="cls-12"/>
            <circle cx="37.494" cy="37.494" r="35.994" class="cls-13"/>
        </g>
        <g id="Ellipse_208" class="cls-1" data-name="Ellipse 208" transform="translate(778.535 3251.506)">
            <circle cx="37.494" cy="37.494" r="37.494" class="cls-12"/>
            <circle cx="37.494" cy="37.494" r="35.994" class="cls-13"/>
        </g>
        <g id="Ellipse_210" class="cls-2" data-name="Ellipse 210" transform="translate(407.92 3251.506)">
            <circle cx="37.494" cy="37.494" r="37.494" class="cls-12"/>
            <circle cx="37.494" cy="37.494" r="35.994" class="cls-13"/>
        </g>
        <g id="ic_play_for_work_48px" transform="translate(623.512 3340.915)">
            <path id="Path_4747" d="M19.047 17.9v-51.316H14L21.21-50l7.21 16.584h-5.046V17.9z" class="cls-3" data-name="Path 4747" transform="translate(-14 50)"/>
        </g>
        <g id="ic_play_for_work_48px-2" data-name="ic_play_for_work_48px" transform="translate(623.512 3169.307)">
            <path id="Path_4747-2" d="M19.047-50V1.317H14L21.21 17.9l7.21-16.584h-5.046V-50z" class="cls-3" data-name="Path 4747" transform="translate(-14 50)"/>
        </g>
        <g id="ic_play_for_work_48px-3" data-name="ic_play_for_work_48px" transform="rotate(90 -1265.297 2016.494)">
            <path id="Path_4747-3" d="M5.047 0v51.317H0L7.21 67.9l7.21-16.584H9.374V0z" class="cls-3" data-name="Path 4747"/>
        </g>
        <g id="ic_play_for_work_48px-4" data-name="ic_play_for_work_48px" transform="rotate(45 -3454.772 2479.233)">
            <path id="Path_4747-4" d="M5.047 67.9V16.584H0L7.21 0l7.21 16.584H9.374V67.9z" class="cls-4" data-name="Path 4747"/>
        </g>
        <g id="ic_play_for_work_48px-5" data-name="ic_play_for_work_48px" transform="rotate(135 -382.146 1726.218)">
            <path id="Path_4747-5" d="M5.047 0v51.317H0L7.21 67.9l7.21-16.584H9.374V0z" class="cls-4" data-name="Path 4747"/>
        </g>
        <g id="ic_play_for_work_48px-6" data-name="ic_play_for_work_48px" transform="rotate(-45 4403.612 843.718)">
            <path id="Path_4747-6" d="M5.047 0v51.317H0L7.21 67.9l7.21-16.584H9.374V0z" class="cls-4" data-name="Path 4747"/>
        </g>
        <g id="ic_play_for_work_48px-7" data-name="ic_play_for_work_48px" transform="rotate(-135 966.587 1597.814)">
            <path id="Path_4747-7" d="M5.047 67.9V16.584H0L7.21 0l7.21 16.584H9.374V67.9z" class="cls-4" data-name="Path 4747"/>
        </g>
        <g id="ic_play_for_work_48px-8" data-name="ic_play_for_work_48px" transform="rotate(-90 1903.259 1393.013)">
            <path id="Path_4747-8" d="M5.047 0v51.317H0L7.21 67.9l7.21-16.584H9.374V0z" class="cls-3" data-name="Path 4747"/>
        </g>
        <text id="_" class="cls-5" data-name="$" transform="translate(629.674 3427.856)">
            <tspan x="-4.345" y="0">$</tspan>
        </text>
        <text id="_2" class="cls-5" data-name="$" transform="translate(763.787 3293.021)">
            <tspan x="-4.345" y="0">$</tspan>
        </text>
        <text id="_3" class="cls-6" data-name="$" transform="translate(682.311 3241.106)">
            <tspan x="-4.345" y="0">$</tspan>
        </text>
        <text id="_4" class="cls-6" data-name="$" transform="translate(577.037 3243.99)">
            <tspan x="-4.345" y="0">$</tspan>
        </text>
        <text id="_5" class="cls-6" data-name="$" transform="translate(682.311 3344.215)">
            <tspan x="-4.345" y="0">$</tspan>
        </text>
        <text id="_6" class="cls-6" data-name="$" transform="translate(577.037 3345.657)">
            <tspan x="-4.345" y="0">$</tspan>
        </text>
        <text id="_7" class="cls-5" data-name="$" transform="translate(629.674 3160.349)">
            <tspan x="-4.345" y="0">$</tspan>
        </text>
        <text id="_8" class="cls-5" data-name="$" transform="translate(495.561 3293.021)">
            <tspan x="-4.345" y="0">$</tspan>
        </text>
        <text id="_1" class="cls-7" data-name="1" transform="translate(442.482 3293.579)">
            <tspan x="-5.302" y="0">1</tspan>
        </text>
        <text id="_2-2" class="cls-7" data-name="2" transform="translate(629.953 3108.271)">
            <tspan x="-5.302" y="0">2</tspan>
        </text>
        <text id="_3-2" class="cls-7" data-name="3" transform="translate(815.262 3293.579)">
            <tspan x="-5.302" y="0">3</tspan>
        </text>
        <text id="_4-2" class="cls-7" data-name="4" transform="translate(629.953 3479.608)">
            <tspan x="-5.302" y="0">4</tspan>
        </text>
        <g id="Group_3336" data-name="Group 3336" transform="translate(588.566 3247.923)">
            <g id="Group_2" data-name="Group 2">
                <path id="Path_11" d="M137.221 304.345a39.019 39.019 0 1 0 71.356-21.816 9.274 9.274 0 0 1-1.051 1.956 37.045 37.045 0 1 1-17.1-14.393 10.664 10.664 0 0 1 .626-1.84 39 39 0 0 0-53.826 36.093z" class="cls-8" data-name="Path 11" transform="translate(-134.598 -262.703)"/>
                <path id="Path_12" d="M209.3 279.075a12.688 12.688 0 0 1-.3 1.879 40.233 40.233 0 1 1-17.411-13.884 8.266 8.266 0 0 1 .843-1.117 41.758 41.758 0 1 0 16.868 13.122z" class="cls-8" data-name="Path 12" transform="translate(-134.551 -262.656)"/>
            </g>
            <g id="Group_3" data-name="Group 3" transform="translate(9.972 14.804)">
                <path id="Path_13" d="M203.652 311.624a7.378 7.378 0 0 1-2.4 1.988 15.935 15.935 0 0 1-1.635.768 9.868 9.868 0 0 0-.791-1.626 10.913 10.913 0 0 0-2.015-2.433q-3.475-3.167-11.729-4.539 6.232-1.63 9.348-4.563a10.82 10.82 0 0 0 1.1-1.2l-.619-.211a35.947 35.947 0 0 0-8.432-1.752 7.9 7.9 0 0 1-2.082 4.163q-2.415 2.345-8.026 2.345h-5.449v-16.19a2.25 2.25 0 0 1 .832-2.019q.833-.554 3.932-.553 6.493 0 8.809 1.986a6.469 6.469 0 0 1 2 3.568 12.224 12.224 0 0 1 .27 1.83q-.9-.074-1.818-.127-2.339-.133-4.847-.135-3.826 0-7.372.277v3.216a47.81 47.81 0 0 1 6.018-.372q.8 0 1.582.028a47.618 47.618 0 0 1 1.617-.028q1.534 0 3 .085.911.052 1.8.136a37.506 37.506 0 0 1 8.755 1.834c.355.123.7.238 1.031.35.6.2 1.175.4 1.712.605a8.951 8.951 0 0 1 2.6 1.447h5.986l-.07-.552-.745-6.992h-2.788l-3.44 2.651-.523-.143q-.892-.246-1.763-.467c.027-.312.043-.631.043-.955 0-.306-.016-.605-.039-.9a10.084 10.084 0 0 0-3.877-7.167q-3.915-3.245-10.734-3.244h-.173v-5.01h-4.32v5.01h-5.165v-5.01h-4.321v5.01H153.63v3.034h3.753a4.386 4.386 0 0 1 2.463.523 1.609 1.609 0 0 1 .735 1.37v25.49a12.714 12.714 0 0 1-1.8-1.436 7.006 7.006 0 0 1-2.368-4.853v-.164a6.779 6.779 0 0 1 2.372-4.9v-6.176c-.767.223-1.523.456-2.261.706q-11.664 3.948-11.811 10.532V307.031q0 6.036 10.245 9.9 1.858.7 3.832 1.274.887.258 1.8.489a66.346 66.346 0 0 0 10.342 1.722q.888.081 1.8.144c2.239.156 4.594.235 7.08.235 2.643 0 5.1-.1 7.405-.306.63-.056 1.251-.117 1.858-.188a50.661 50.661 0 0 0 10.12-2.157 32.34 32.34 0 0 0 1.087-.383q.943-.354 1.759-.738a11.94 11.94 0 0 0 5.74-4.991zm-16.252 5.551c-1.586.125-3.261.19-5.049.19q-1.207 0-2.337-.038-.894.035-1.809.036a47.326 47.326 0 0 1-5.478-.31q-.92-.108-1.8-.251V307.6h7.342q5.351 0 8.157 2.692a9 9 0 0 1 2.548 4.928 14.115 14.115 0 0 1 .222 1.787q-.881.093-1.796.168z" class="cls-8" data-name="Path 13" transform="translate(-144.701 -277.725)"/>
                <path id="Path_14" d="M188.79 322.914a7.93 7.93 0 0 1-2.03 3.281 10.022 10.022 0 0 1-7.227 2.512h-6.264a1.954 1.954 0 0 1-1.6-.718 3.228 3.228 0 0 1-.587-2.088v-2.916a68.29 68.29 0 0 1-10.342-1.673v4.458a3.421 3.421 0 0 1-.783 2.252 2.154 2.154 0 0 1-1.73.685h-4.437v3.035h15.288v3.985h4.322v-3.985h5.165v3.985h4.321v-4.01a27.864 27.864 0 0 0 8.933-1.64q4.389-1.665 6.15-3.82a10.834 10.834 0 0 0 2.4-5.8c-.149.052-.3.1-.455.154a53.338 53.338 0 0 1-11.124 2.303z" class="cls-8" data-name="Path 14" transform="translate(-144.861 -278.476)"/>
            </g>
            <g id="Group_4" data-name="Group 4" transform="translate(57.486 2.716)">
                <path id="Path_15" d="M199 265.421c1.682.319 3.106 1.847 3.885 3.987a2.969 2.969 0 0 0-2.217.354 1.975 1.975 0 0 0-.212.126 5.264 5.264 0 0 0-.88.711c.072-.292.141-.584.205-.88.341-1.56.427-3.241-.781-4.3zm-.909 15.732c-2.831-.128-5.07-3.65-5.025-7.951A10.886 10.886 0 0 1 194 268.8a7.658 7.658 0 0 1 .817-1.355 5.737 5.737 0 0 1 .436-.512c1.795-1.856 3.5-1.041 3.388 1.422a6.891 6.891 0 0 1-.113.941c-.554 2.959-1.542 5.305-1.6 8.5-.02 1.188.1 2.609 1.155 3.361z" class="cls-9" data-name="Path 15" transform="translate(-193.065 -265.421)"/>
                <path id="Path_16" d="M204.133 270.092c1.771.317 3.27 1.974 4.043 4.279a11.211 11.211 0 0 1 .555 3.235 10.712 10.712 0 0 1-1.429 5.759c-1.547 2.568-3.678 2.341-3.787-.663-.106-2.925.864-5.531 1.444-8.328.324-1.56.393-3.239-.825-4.282zm-.742 15.717c-2.827-.1-5.1-3.591-5.1-7.885a10.88 10.88 0 0 1 .89-4.407 7.61 7.61 0 0 1 .8-1.362 5.473 5.473 0 0 1 .429-.515c1.772-1.872 3.486-1.077 3.4 1.382a6.793 6.793 0 0 1-.1.941c-.522 2.96-1.483 5.313-1.505 8.5-.007 1.187.132 2.6 1.189 3.344z" class="cls-9" data-name="Path 16" transform="translate(-193.157 -265.503)"/>
            </g>
        </g>
        <g id="Group_3335" data-name="Group 3335" transform="translate(405.367 3064.366)">
            <g id="Ellipse_181" class="cls-10" data-name="Ellipse 181" transform="rotate(14 44.83 365.111)">
                <circle cx="185.308" cy="185.308" r="185.308" class="cls-12"/>
                <circle cx="185.308" cy="185.308" r="186.308" class="cls-13"/>
            </g>
            <g id="Ellipse_186" class="cls-10" data-name="Ellipse 186" transform="rotate(104 189.609 220.333)">
                <circle cx="185.308" cy="185.308" r="185.308" class="cls-12"/>
                <circle cx="185.308" cy="185.308" r="186.308" class="cls-13"/>
            </g>
            <g id="Ellipse_187" class="cls-10" data-name="Ellipse 187" transform="rotate(-166 207.386 202.557)">
                <circle cx="185.308" cy="185.308" r="185.308" class="cls-12"/>
                <circle cx="185.308" cy="185.308" r="186.308" class="cls-13"/>
            </g>
            <g id="Ellipse_188" class="cls-10" data-name="Ellipse 188" transform="rotate(-76 230.139 179.804)">
                <circle cx="185.308" cy="185.308" r="185.308" class="cls-12"/>
                <circle cx="185.308" cy="185.308" r="186.308" class="cls-13"/>
            </g>
            <path id="Path_4751" d="M20240.461 5448.67l-4.887 2.275 3.27 4.047" class="cls-11" data-name="Path 4751" transform="translate(-19965.822 -5406.858)"/>
            <path id="Path_4755" d="M5.006 0L0 1l2.3 4.64" class="cls-11" data-name="Path 4755" transform="rotate(-129 245.997 -5.378)"/>
            <path id="Path_4757" d="M4.55 4.348L0 3.748 2.138-.395" class="cls-11" data-name="Path 4757" transform="rotate(-51 207.43 46.344)"/>
            <path id="Path_4756" d="M5.072 4.64L0 4.216 2.476-.522" class="cls-11" data-name="Path 4756" transform="rotate(129 139.628 233.078)"/>
            <path id="Path_4758" d="M5.072 0L0 .425 2.78 5.09" class="cls-11" data-name="Path 4758" transform="rotate(51 -257.903 179.286)"/>
            <path id="Path_4754" d="M20235.842 5449.2l4.938 2.038-3.484 3.8" class="cls-11" data-name="Path 4754" transform="translate(-20058.91 -5407.816)"/>
            <path id="Path_4752" d="M20235.639 5455.5l4.908-2.207-3.27-4.047" class="cls-11" data-name="Path 4752" transform="translate(-20060.264 -5047.778)"/>
            <path id="Path_4753" d="M20240.406 5455.683l-4.854-1.724 3.4-4.132" class="cls-11" data-name="Path 4753" transform="translate(-19967.98 -5047.941)"/>
        </g>
    </g>
</svg>
