<svg xmlns="http://www.w3.org/2000/svg" width="451.266" height="451.266" viewBox="0 0 451.266 451.266">
    <defs>
        <style>
            .cls-1,.cls-11,.cls-2,.cls-3,.cls-4{fill:none}.cls-2{stroke:#a5622b}.cls-2,.cls-4{stroke-width:3px}.cls-3{stroke:#f9b034;stroke-width:7px}.cls-4{stroke:#a5622a}.cls-5{fill:#a5622a}.cls-6{fill:#f9b034;font-size:30px}.cls-6,.cls-7,.cls-8{font-family:MyanmarMN-Bold,Myanmar MN;font-weight:700}.cls-7{fill:#371f18;font-size:18px}.cls-8{fill:#703c16;font-size:17px}.cls-10,.cls-9{stroke:none}.cls-10{fill:#2d191a}
        </style>
    </defs>
    <g id="Group_3481" data-name="Group 3481" transform="translate(-404.367 -1705.367)">
        <g id="Subtraction_17" class="cls-1" data-name="Subtraction 17">
            <path d="M221.64 367.713a37.971 37.971 0 0 0-75.56 0H146.038a186.656 186.656 0 0 1-67.1-28.237A188.176 188.176 0 0 1 10.944 256.9 186.759 186.759 0 0 1 .01 221.675l-.01-.017v-.021a37.886 37.886 0 0 0 24.277-12.223 37.858 37.858 0 0 0 7.248-11.614 37.823 37.823 0 0 0 2.643-13.941 37.814 37.814 0 0 0-2.643-13.938 37.858 37.858 0 0 0-7.247-11.621A37.883 37.883 0 0 0 0 146.075v-.021l.007-.021a186.8 186.8 0 0 1 28.234-67.1 188.225 188.225 0 0 1 82.568-67.989A186.936 186.936 0 0 1 146.036.007h.015l.024-.007A37.917 37.917 0 0 0 158.3 24.275a37.793 37.793 0 0 0 11.622 7.247 37.739 37.739 0 0 0 13.938 2.642 37.816 37.816 0 0 0 13.94-2.642 37.751 37.751 0 0 0 11.614-7.247A37.9 37.9 0 0 0 221.644 0a187.131 187.131 0 0 1 81.6 39.06 188.83 188.83 0 0 1 41.119 47.509 186.532 186.532 0 0 1 23.349 59.5 37.974 37.974 0 0 0 0 75.565 186.447 186.447 0 0 1-23.349 59.5 187.3 187.3 0 0 1-122.723 86.579z" class="cls-9" transform="translate(446.143 1747.144)"/>
            <path d="M221.64 367.713a187.45 187.45 0 0 0 26.755-7.582 187.606 187.606 0 0 0 54.85-31.48 189.132 189.132 0 0 0 22.525-22.004 188.559 188.559 0 0 0 18.593-25.508 186.484 186.484 0 0 0 23.349-59.502c-9.316-.923-17.936-5.264-24.273-12.223a37.94 37.94 0 0 1-7.253-11.618 37.833 37.833 0 0 1-2.634-13.942c0-4.82.885-9.51 2.634-13.938a37.925 37.925 0 0 1 7.253-11.618 37.868 37.868 0 0 1 24.273-12.227 186.399 186.399 0 0 0-9.2-30.994 187.013 187.013 0 0 0-14.149-28.508 188.16 188.16 0 0 0-18.593-25.504 189.646 189.646 0 0 0-22.526-22.004 189.068 189.068 0 0 0-25.967-17.998 188.16 188.16 0 0 0-28.882-13.48A187.42 187.42 0 0 0 221.644 0a37.895 37.895 0 0 1-12.227 24.275 37.753 37.753 0 0 1-11.614 7.247 37.816 37.816 0 0 1-13.946 2.643c-4.815 0-9.503-.89-13.938-2.643a37.794 37.794 0 0 1-11.622-7.247A37.917 37.917 0 0 1 146.075 0l-.024.007h-.015a186.936 186.936 0 0 0-35.224 10.934 188.136 188.136 0 0 0-31.878 17.303A189.507 189.507 0 0 0 51.16 51.158 189.374 189.374 0 0 0 28.244 78.93a187.998 187.998 0 0 0-17.3 31.883A186.624 186.624 0 0 0 .01 146.033l-.007.021-.003.02c9.318.928 17.941 5.269 24.278 12.224a37.858 37.858 0 0 1 9.89 25.556 37.858 37.858 0 0 1-9.89 25.56C17.94 216.369 9.318 220.71.001 221.637l.002.02.007.018a186.761 186.761 0 0 0 10.934 35.227 187.643 187.643 0 0 0 17.3 31.876 189.235 189.235 0 0 0 22.917 27.775 189.07 189.07 0 0 0 27.773 22.914 187.49 187.49 0 0 0 31.879 17.303 186.656 186.656 0 0 0 35.223 10.935l.019.003.023.005c.925-9.321 5.267-17.943 12.222-24.277a37.859 37.859 0 0 1 11.618-7.248 37.786 37.786 0 0 1 13.94-2.64c4.813 0 9.503.888 13.942 2.64a37.858 37.858 0 0 1 11.617 7.248c6.954 6.333 11.294 14.955 12.22 24.277h.003m1 1.47l-1.368-.54h-.002l-.567-.225-.06-.607c-.903-9.075-5.128-17.47-11.9-23.635a36.862 36.862 0 0 0-11.31-7.058 36.81 36.81 0 0 0-13.576-2.57c-4.686 0-9.253.864-13.572 2.57a36.86 36.86 0 0 0-11.312 7.057c-6.773 6.17-11 14.563-11.9 23.636l-.107 1.082-1.069-.197-.023-.004-.006-.001-.006-.001-.018-.004h-.004l-.004-.002a187.653 187.653 0 0 1-35.413-10.993 188.477 188.477 0 0 1-32.05-17.395 190.073 190.073 0 0 1-27.919-23.035 190.229 190.229 0 0 1-23.038-27.923 188.648 188.648 0 0 1-17.393-32.047 187.755 187.755 0 0 1-10.975-35.33l-.028-.07-.013-.14-.002-.021-.092-.99.989-.098c9.07-.903 17.465-5.13 23.637-11.902a36.86 36.86 0 0 0 9.629-24.886 36.861 36.861 0 0 0-9.63-24.884c-6.17-6.77-14.564-10.997-23.637-11.9l-1.037-.103.146-1.032.003-.02.012-.089.017-.05a187.634 187.634 0 0 1 10.981-35.352A189 189 0 0 1 27.415 78.37a190.37 190.37 0 0 1 23.039-27.919 190.515 190.515 0 0 1 27.92-23.035 189.134 189.134 0 0 1 32.049-17.396A187.933 187.933 0 0 1 145.836-.973l.017-.003 1.098-.311.12 1.187a36.92 36.92 0 0 0 11.9 23.636 36.794 36.794 0 0 0 11.315 7.056 36.749 36.749 0 0 0 13.571 2.573c4.686 0 9.255-.866 13.579-2.573a36.754 36.754 0 0 0 11.308-7.056A36.896 36.896 0 0 0 220.649-.1l.11-1.102 1.085.222a188.435 188.435 0 0 1 26.894 7.625 189.156 189.156 0 0 1 29.038 13.551A190.077 190.077 0 0 1 303.88 38.29a190.654 190.654 0 0 1 22.645 22.121 189.167 189.167 0 0 1 18.692 25.64 188.022 188.022 0 0 1 14.225 28.66 187.4 187.4 0 0 1 9.249 31.161l.221 1.085-1.102.11a36.87 36.87 0 0 0-23.632 11.905 36.928 36.928 0 0 0-7.064 11.313 36.8 36.8 0 0 0-2.563 13.57c0 4.694.862 9.26 2.564 13.575a36.94 36.94 0 0 0 7.063 11.312c6.17 6.776 14.563 11.002 23.632 11.9l1.102.11-.221 1.086a186.876 186.876 0 0 1-9.25 31.165 187.481 187.481 0 0 1-14.224 28.657 189.554 189.554 0 0 1-18.693 25.643 190.139 190.139 0 0 1-22.644 22.12 188.608 188.608 0 0 1-55.142 31.648 188.46 188.46 0 0 1-26.1 7.457v.657z" class="cls-10" transform="translate(446.143 1747.144)"/>
        </g>
        <g id="Ellipse_223" class="cls-2" data-name="Ellipse 223" transform="translate(592.029 2080.692)">
            <circle cx="37.971" cy="37.971" r="37.971" class="cls-9"/>
            <circle cx="37.971" cy="37.971" r="36.471" class="cls-11"/>
        </g>
        <g id="Ellipse_221" class="cls-2" data-name="Ellipse 221" transform="translate(592.029 1705.367)">
            <circle cx="37.971" cy="37.971" r="37.971" class="cls-9"/>
            <circle cx="37.971" cy="37.971" r="36.471" class="cls-11"/>
        </g>
        <g id="Ellipse_224" class="cls-2" data-name="Ellipse 224" transform="translate(779.691 1893.029)">
            <circle cx="37.971" cy="37.971" r="37.971" class="cls-9"/>
            <circle cx="37.971" cy="37.971" r="36.471" class="cls-11"/>
        </g>
        <g id="Ellipse_222" class="cls-3" data-name="Ellipse 222" transform="translate(592.029 1893.029)">
            <circle cx="37.971" cy="37.971" r="37.971" class="cls-9"/>
            <circle cx="37.971" cy="37.971" r="41.471" class="cls-11"/>
        </g>
        <g id="Ellipse_220" class="cls-4" data-name="Ellipse 220" transform="translate(404.367 1893.029)">
            <circle cx="37.971" cy="37.971" r="37.971" class="cls-9"/>
            <circle cx="37.971" cy="37.971" r="36.471" class="cls-11"/>
        </g>
        <g id="ic_play_for_work_48px" transform="translate(622.697 1983.575)">
            <path id="Path_4747" d="M19.111-50V1.969H14l7.3 16.795 7.3-16.795h-5.107V-50z" class="cls-5" data-name="Path 4747" transform="translate(-14 50)"/>
        </g>
        <g id="ic_play_for_work_48px-2" data-name="ic_play_for_work_48px" transform="translate(622.697 1809.786)">
            <path id="Path_4747-2" d="M19.111 18.763v-51.968H14L21.3-50l7.3 16.795h-5.107v51.968z" class="cls-5" data-name="Path 4747" transform="translate(-14 50)"/>
        </g>
        <g id="ic_play_for_work_48px-3" data-name="ic_play_for_work_48px" transform="rotate(90 -585.846 1337.852)">
            <path id="Path_4747-3" d="M5.111 68.763V16.795H0L7.3 0l7.3 16.795H9.493v51.968z" class="cls-5" data-name="Path 4747"/>
        </g>
        <g id="ic_play_for_work_48px-4" data-name="ic_play_for_work_48px" transform="rotate(90 -673.501 1250.259)">
            <path id="Path_4747-4" d="M5.111 0v51.969H0l7.3 16.794 7.3-16.795H9.493V0z" class="cls-5" data-name="Path 4747"/>
        </g>
        <text id="_1" class="cls-6" data-name="1" transform="translate(629.969 1940.824)">
            <tspan x="-8.372" y="0">1</tspan>
        </text>
        <text id="_" class="cls-7" data-name="$" transform="translate(629.889 2072.404)">
            <tspan x="-4.601" y="0">$</tspan>
        </text>
        <text id="_2" class="cls-7" data-name="$" transform="translate(765.707 1935.856)">
            <tspan x="-4.601" y="0">$</tspan>
        </text>
        <text id="_3" class="cls-7" data-name="$" transform="translate(629.889 1801.499)">
            <tspan x="-4.601" y="0">$</tspan>
        </text>
        <text id="_4" class="cls-7" data-name="$" transform="translate(494.07 1935.856)">
            <tspan x="-4.601" y="0">$</tspan>
        </text>
        <text id="_2-2" class="cls-8" data-name="2" transform="translate(437.227 1935.586)">
            <tspan x="0" y="0">2</tspan>
        </text>
        <text id="_3-2" class="cls-8" data-name="3" transform="translate(624.889 1747.924)">
            <tspan x="0" y="0">3</tspan>
        </text>
        <text id="_4-2" class="cls-8" data-name="4" transform="translate(812.551 1935.586)">
            <tspan x="0" y="0">4</tspan>
        </text>
        <text id="_5" class="cls-8" data-name="5" transform="translate(624.889 2122.519)">
            <tspan x="0" y="0">5</tspan>
        </text>
    </g>
</svg>
