<?xml version="1.0" encoding="utf-8"?>
<!-- Generator: Adobe Illustrator 22.0.1, SVG Export Plug-In . SVG Version: 6.00 Build 0)  -->
<svg version="1.1" id="Слой_1" xmlns="http://www.w3.org/2000/svg" xmlns:xlink="http://www.w3.org/1999/xlink" x="0px" y="0px"
	 viewBox="0 0 278.4 199.5" style="enable-background:new 0 0 278.4 199.5;" xml:space="preserve">
<style type="text/css">
	.st0{fill:#FFFFFF;}
</style>
<g id="g10" transform="translate(0 582.147)">
	<g id="g12" transform="translate(0 -582.147)">
		<path id="path14" class="st0" d="M136.3,37.5c-0.2,0-0.4-0.1-0.5-0.3c-2.3-3.4-6.8-11.2-10.5-17.4c-2.5-4.3-4.9-8.4-5.5-9.2
			c-1.7-1.3-0.7-3.9-0.7-4c0.1-0.2,2.5-6.5,20.3-6.7c0.3,0,0.6,0.3,0.6,0.6c0,0,0,0,0,0c0,0.4-0.3,0.6-0.6,0.6
			c-16.9,0.2-19.1,5.8-19.1,5.9c0,0-0.7,1.8,0.3,2.6c0,0,0.1,0.1,0.1,0.1c0.5,0.6,2.4,3.9,5.6,9.4c3.5,6,7.8,13.3,10.2,16.9
			c1-0.3,2-0.5,3.1-0.5c0.4,0,0.6,0.3,0.7,0.6c0,0.4-0.3,0.6-0.6,0.7c-1.1,0-2.2,0.2-3.2,0.6C136.4,37.5,136.3,37.5,136.3,37.5"/>
		<path id="path16" class="st0" d="M136.8,40.8c-0.4,0-0.7-0.1-1-0.4c-0.7-0.6-1-1.6-0.8-2.5c0.1-0.8,0.6-1.5,1.4-1.8
			c0.3-0.1,0.7,0.1,0.8,0.4c0,0,0,0,0,0c0.1,0.3-0.1,0.7-0.4,0.8c0,0,0,0,0,0c-0.3,0.1-0.5,0.4-0.6,0.8c-0.1,0.4,0,0.9,0.3,1.2
			c0.1,0.1,0.3,0.1,0.4,0c0,0,0,0,0.1,0l0.2-0.1c0.8-0.3,1.6-0.4,2.5-0.4c0.4,0,0.6,0.3,0.6,0.6c0,0,0,0,0,0c0,0.4-0.3,0.6-0.6,0.6
			h0c-0.7,0-1.4,0.1-2.1,0.3l-0.2,0C137.3,40.8,137,40.8,136.8,40.8"/>
		<path id="path18" class="st0" d="M142.9,40.9c-0.2,0-0.5,0-0.7-0.1l-0.2,0c-0.7-0.3-1.5-0.4-2.3-0.4c-0.4,0-0.6-0.3-0.6-0.6
			c0,0,0,0,0,0c0-0.4,0.3-0.6,0.6-0.6h0c0.9,0,1.8,0.1,2.7,0.4l0.2,0.1c0,0,0,0,0.1,0c0.2,0.1,0.3,0,0.3,0c0.3-0.3,0.4-0.8,0.3-1.2
			c0-0.4-0.3-0.7-0.6-0.9c-0.3-0.1-0.5-0.5-0.4-0.8c0.1-0.3,0.5-0.5,0.8-0.4c0,0,0,0,0,0c0.8,0.3,1.4,1,1.5,1.9
			c0.2,0.9-0.1,1.8-0.7,2.4C143.5,40.7,143.2,40.9,142.9,40.9"/>
		<path id="path20" class="st0" d="M142.8,37.5c-0.1,0-0.1,0-0.2,0c-1-0.4-2.1-0.6-3.2-0.6c-0.4,0-0.6-0.3-0.6-0.7
			c0-0.3,0.3-0.6,0.6-0.6c0,0,0,0,0,0c1,0,2.1,0.2,3.1,0.5c2.3-3.6,6.7-11,10.2-16.9c3.2-5.4,5.1-8.8,5.6-9.3c0,0,0.1-0.1,0.1-0.1
			c1-0.8,0.4-2.5,0.3-2.6c0-0.1-2.4-5.7-19.1-5.9c-0.4,0-0.6-0.3-0.6-0.6c0-0.3,0.3-0.6,0.6-0.6c0,0,0,0,0,0
			c17.8,0.2,20.2,6.5,20.3,6.7c0,0.1,1,2.6-0.7,4c-0.5,0.8-2.9,4.8-5.5,9.2c-3.6,6.2-8.2,13.9-10.5,17.4
			C143.2,37.4,143,37.5,142.8,37.5"/>
		<path id="path22" class="st0" d="M120.5,10.9c-0.1,0-0.3,0-0.4-0.1c-0.3-0.2-0.3-0.6-0.1-0.9c0,0,0,0,0,0c0.2-0.2,4.9-6,18.8-6
			h0.2c14,0.1,20,5.6,20.2,5.8c0.3,0.2,0.3,0.6,0,0.9c-0.2,0.3-0.6,0.3-0.9,0c-0.1-0.1-5.8-5.4-19.3-5.5c-7,0-11.5,1.5-14.1,2.7
			c-1.5,0.7-2.8,1.6-3.9,2.8C120.9,10.8,120.7,10.9,120.5,10.9"/>
		<path id="path24" class="st0" d="M136.5,44.8c-0.2,0-0.4,0-0.6-0.1c-0.8-0.1-1.4-0.7-1.6-1.5c-0.2-0.9,0-1.8,0.5-2.5
			c0.8-0.8,1.8-1.2,2.9-1.4c0.3-0.1,0.6-0.1,0.9-0.2c0.3-0.1,0.7,0.1,0.8,0.4c0.1,0.3-0.1,0.7-0.4,0.8c0,0,0,0,0,0
			c-0.3,0.1-0.6,0.2-0.9,0.2c-0.8,0.1-1.6,0.4-2.2,0.9c0,0-0.1,0.1-0.1,0.1c-0.2,0.4-0.3,0.9-0.2,1.4c0.1,0.3,0.3,0.4,0.6,0.5
			c0.6,0.1,1.1,0,1.7-0.2c0.5-0.2,1.1-0.3,1.6-0.3c0.4,0,0.6,0.3,0.6,0.7c0,0,0,0,0,0c0,0.4-0.3,0.6-0.7,0.6c0,0,0,0,0,0
			c-0.4,0-0.8,0.1-1.2,0.2C137.6,44.7,137,44.8,136.5,44.8"/>
		<path id="path26" class="st0" d="M143.2,44.8c-0.6,0-1.2-0.1-1.8-0.3c-0.6-0.2-1.3-0.3-2-0.3c-0.3,0.1-0.7-0.2-0.8-0.5
			c-0.1-0.3,0.2-0.7,0.5-0.8c0.9-0.1,1.7,0,2.5,0.3c0.6,0.2,1.2,0.3,1.7,0.2c0.3,0,0.5-0.2,0.6-0.5c0.1-0.5,0-1-0.2-1.4
			c0,0,0,0-0.1-0.1c-0.7-0.6-1.5-1-2.4-1.1l-0.4-0.1c-0.3-0.1-0.5-0.4-0.4-0.8c0.1-0.3,0.4-0.5,0.8-0.4c0,0,0,0,0,0l0.4,0.1
			c1.2,0.2,2.2,0.7,3.1,1.5c0.5,0.7,0.7,1.6,0.5,2.5c-0.2,0.7-0.8,1.3-1.6,1.5C143.5,44.8,143.3,44.8,143.2,44.8"/>
		<path id="path28" class="st0" d="M145.7,26.4c-0.1,0-0.2,0-0.2,0c-0.3-0.1-0.5-0.5-0.3-0.8c1.8-4.3,5.2-12.6,5.3-12.8
			c0.1-0.3,0.5-0.5,0.8-0.4c0.3,0.1,0.5,0.5,0.4,0.8c-0.1,0.2-5.1,12.3-5.3,12.8C146.2,26.3,145.9,26.5,145.7,26.4"/>
		<path id="path30" class="st0" d="M143.8,30.7c-0.1,0-0.2,0-0.3-0.1c-0.3-0.2-0.5-0.5-0.3-0.9l0.9-1.9c0.2-0.3,0.5-0.5,0.9-0.3
			c0,0,0,0,0,0c0.3,0.2,0.5,0.5,0.3,0.9l-0.9,1.9C144.3,30.5,144.1,30.7,143.8,30.7"/>
		<path id="path32" class="st0" d="M133.1,46.5c-0.5,0-0.9,0.5-0.9,1.1s0.4,1.1,0.9,1.1s0.9-0.5,0.9-1.1S133.6,46.5,133.1,46.5z
			 M133.1,50.1c-1.3-0.1-2.2-1.2-2.1-2.4c-0.1-1.3,0.9-2.3,2.1-2.4c1.3,0.1,2.2,1.2,2.1,2.4C135.3,48.9,134.4,50,133.1,50.1"/>
		<path id="path34" class="st0" d="M134.5,51.7c-0.7,0-1.5-0.3-2-0.7c-0.5-0.4-0.9-1.1-0.9-1.7c0-0.4,0.2-0.7,0.6-0.7
			c0.3,0,0.7,0.2,0.7,0.6c0,0,0,0,0,0c0,0.3,0.2,0.7,0.5,0.9c0.4,0.3,0.9,0.4,1.3,0.4c0.9-0.1,1.7-0.4,2-2c0.2-0.9,0.1-2-0.5-2.7
			c-0.3-0.4-0.8-0.6-1.3-0.5h0c0,0-1.6,0-1.8,1.1c-0.1,0.3-0.4,0.6-0.7,0.5c0,0,0,0,0,0c-0.3-0.1-0.6-0.4-0.5-0.7
			c0.3-1.7,2.1-2.2,3-2.2c0.9,0,1.7,0.3,2.3,1c0.9,1.1,1.2,2.5,0.9,3.8c-0.1,1.7-1.5,3-3.1,3.1C134.7,51.7,134.6,51.7,134.5,51.7"/>
		<path id="path36" class="st0" d="M140.1,53c-0.3,0-0.6,0-0.9-0.1c-0.8-0.1-1.5-0.4-2.1-1c-1,0.2-2.1,0.1-3.1-0.3
			c-0.3-0.2-0.5-0.5-0.3-0.9c0.2-0.3,0.5-0.5,0.9-0.3c0,0,0,0,0,0c0.9,0.3,1.8,0.3,2.7,0.1c0.3-0.1,0.5,0.1,0.7,0.3
			c0.4,0.5,0.9,0.7,1.5,0.8c0.8,0.2,1.7,0,2.5-0.4c0.2-0.2,0.5-0.2,0.8-0.1c0,0,0.1,0.1,0.2,0.1c0.3,0.1,0.5,0.2,0.6,0.3
			c0.3,0,0.6-0.1,0.9-0.3c0.6-0.6,0.9-1.4,0.8-2.2c0.2-1.1-0.4-2.1-1.4-2.6c-0.4,0.1-0.8,0.1-1.1,0.1c-0.1,0-0.3,0-0.4-0.1
			c-1.2-0.8-2.6-1-4-0.6c-0.1,0-0.3,0-0.4,0l-1.8-0.6c-0.3-0.1-0.5-0.5-0.4-0.8c0,0,0,0,0,0c0.1-0.3,0.5-0.5,0.8-0.4c0,0,0,0,0,0
			l1.6,0.6c1.6-0.4,3.3-0.1,4.7,0.8c0.2,0,0.6-0.1,0.9-0.1c0.1,0,0.2,0,0.3,0c1.6,0.6,2.6,2.2,2.4,3.9c-0.1,2.3-1.2,3.2-2,3.5
			c-0.4,0.1-1.3,0.3-1.7,0c-0.1-0.1-0.3-0.2-0.4-0.2C141.7,52.9,140.9,53.1,140.1,53"/>
		<path id="path38" class="st0" d="M143.5,50.6c-0.1,0-0.1,0-0.2,0c-0.3-0.1-0.6-0.4-0.5-0.8c0.4-1.3-0.1-2.8-1.3-3.6
			c-0.3-0.2-0.4-0.6-0.3-0.9c0.2-0.3,0.6-0.4,0.9-0.3c1.7,1,2.5,3.1,1.9,5C144.1,50.4,143.8,50.6,143.5,50.6"/>
		<path id="path40" class="st0" d="M137.6,58.9c-0.4,0-0.6-0.3-0.6-0.6v0v-6.6c0-0.4,0.3-0.6,0.6-0.6h0c0.4,0,0.6,0.3,0.6,0.6v0v6.6
			C138.2,58.6,137.9,58.9,137.6,58.9C137.6,58.9,137.6,58.9,137.6,58.9"/>
		<path id="path42" class="st0" d="M141.4,59.8c-0.4,0-0.6-0.3-0.6-0.6v0v-6.7c0-0.4,0.3-0.6,0.6-0.6h0c0.4,0,0.6,0.3,0.6,0.6v6.7
			C142,59.5,141.7,59.8,141.4,59.8C141.4,59.8,141.4,59.8,141.4,59.8"/>
		<path id="path44" class="st0" d="M138.8,58.6c-0.5,0-0.7,0.2-0.8,0.2c0,0.2,0.3,0.7,1.2,0.9c0.2,0.1,0.5,0.1,0.7,0.1
			c0.5,0,0.7-0.2,0.8-0.2c0-0.1,0-0.1,0-0.2c-0.3-0.4-0.7-0.7-1.1-0.8C139.3,58.6,139.1,58.6,138.8,58.6L138.8,58.6z M140,61.2
			c-0.4,0-0.7-0.1-1.1-0.2c-1.5-0.4-2.3-1.5-2-2.5c0.3-0.8,1.1-1.3,2-1.2c0.4,0,0.7,0.1,1.1,0.2c0.8,0.2,1.5,0.7,1.9,1.4
			c0.2,0.3,0.3,0.8,0.1,1.1C141.6,60.8,140.8,61.3,140,61.2"/>
		<path id="path46" class="st0" d="M148.6,48.9c-0.3,0-0.5-0.2-0.6-0.4c-0.1-0.3-0.4-0.7-0.7-0.9c-0.5-0.5-1.2-0.6-1.9-0.4
			c-0.3,0.2-0.7,0.1-0.9-0.1c0,0,0,0,0,0c-0.2-0.3-0.1-0.7,0.1-0.9c0,0,0,0,0,0c1.1-0.6,2.5-0.4,3.4,0.4c0.5,0.4,0.8,0.9,1,1.4
			c0.1,0.3,0,0.7-0.3,0.8c0,0,0,0,0,0C148.7,48.8,148.7,48.9,148.6,48.9"/>
		<path id="path48" class="st0" d="M146.2,53.2c-0.7,0-1.3-0.2-1.8-0.6c-0.3-0.2-0.3-0.6-0.1-0.9c0.2-0.3,0.6-0.3,0.9-0.1
			c0,0,0,0,0,0c0.5,0.4,1.2,0.4,1.8,0.2c0.7-0.3,1.1-0.8,1.2-1.5c0.1-0.3,0.4-0.6,0.8-0.5c0,0,0,0,0,0c0.3,0.1,0.6,0.4,0.5,0.8
			c-0.2,1.1-1,2.1-2,2.5C147,53.1,146.6,53.2,146.2,53.2"/>
		<path id="path50" class="st0" d="M147.8,51.1L147.8,51.1c-0.9,0-1.5-0.7-1.5-1.5c-0.1-0.9,0.6-1.7,1.5-1.8c0,0,0,0,0,0
			c1.2-0.3,2.3-0.6,3.4-1c0.3-0.1,0.7,0.1,0.8,0.4c0.1,0.3-0.1,0.7-0.4,0.8c-1.2,0.4-2.4,0.8-3.6,1c-0.4,0.1-0.5,0.3-0.5,0.5
			c0,0.1,0,0.3,0.2,0.3c0,0,0.1,0,0.1,0c0.4,0,2.1-0.4,3.5-0.7c0.3-0.1,0.7,0.1,0.8,0.5c0.1,0.3-0.1,0.7-0.5,0.8
			C150.5,50.7,149.2,51,147.8,51.1"/>
		<path id="path52" class="st0" d="M151.7,48.1c-0.2,0-0.4,0.3-0.4,0.5c0,0.2,0.1,0.5,0.4,0.5c0.2,0,0.4-0.3,0.4-0.5
			C152.1,48.3,151.9,48.1,151.7,48.1z M151.7,50.3c-1,0-1.7-0.8-1.7-1.8c0-1,0.7-1.7,1.7-1.8c0.9,0,1.7,0.8,1.7,1.8
			C153.4,49.5,152.6,50.3,151.7,50.3"/>
		<path id="path54" class="st0" d="M142,45.5h-1.3v-1.7h1.3V45.5"/>
		<path id="path56" class="st0" d="M136.6,45l0-0.9l1.3,0l0,0.9L136.6,45"/>
		<path id="path58" class="st0" d="M133,45.6h-2.4c-0.4,0-0.6-0.3-0.6-0.6v0v-3.1c0-0.4,0.3-0.6,0.6-0.6h0h3.8
			c0.4,0,0.6,0.3,0.6,0.6v0c0,0.4-0.3,0.6-0.6,0.6h-3.2v1.8h1.7c0.4,0,0.6,0.3,0.6,0.6v0C133.7,45.3,133.4,45.6,133,45.6
			C133,45.6,133,45.6,133,45.6"/>
		<path id="path60" class="st0" d="M132.3,42.3c-0.4,0-0.6-0.3-0.6-0.6c0,0,0,0,0,0v-6.1c0-0.4,0.3-0.6,0.6-0.6c0,0,0,0,0,0h2.6
			c0.4,0,0.6,0.3,0.6,0.6c0,0,0,0,0,0c0,0.4-0.3,0.6-0.6,0.6h0h-2v5.5C133,42,132.7,42.3,132.3,42.3
			C132.3,42.3,132.3,42.3,132.3,42.3"/>
		<path id="path62" class="st0" d="M121.4,86.7c-0.3,0-0.6-0.3-0.6-0.6c-0.5-6.8-0.2-13.6,0.9-20.3c1.2-6.8,4.6-13.1,9.6-17.9
			c0.3-0.2,0.7-0.2,0.9,0.1c0.2,0.3,0.2,0.7-0.1,0.9c-4.8,4.6-8,10.6-9.2,17.2c-1,6.6-1.3,13.3-0.9,20
			C122,86.4,121.8,86.7,121.4,86.7C121.4,86.7,121.4,86.7,121.4,86.7L121.4,86.7"/>
		<path id="path64" class="st0" d="M125.6,70.7C125.6,70.7,125.6,70.7,125.6,70.7c-0.4-0.1-0.7-0.4-0.6-0.7c0.1-0.8,0.2-1.6,0.4-2.4
			c1.9-11.6,8.4-16.6,8.7-16.8c0.3-0.2,0.7-0.2,0.9,0.1c0,0,0,0,0,0c0.2,0.3,0.2,0.7-0.1,0.9c0,0,0,0,0,0c-0.1,0-6.3,4.9-8.2,16
			c-0.1,0.8-0.3,1.6-0.4,2.4C126.2,70.5,125.9,70.7,125.6,70.7"/>
		<path id="path66" class="st0" d="M121.8,92.5c0,0-0.1,0-0.1,0l-11-1.8c-0.3-0.1-0.6-0.3-0.5-0.7c0-0.3,0.3-0.6,0.6-0.6l7.4-0.6
			c0.4,0,0.7,0.2,0.7,0.6c0,0,0,0,0,0c0,0.4-0.2,0.7-0.6,0.7l-2.2,0.2l5.7,0.9l5.1-0.3c0.4,0,0.7,0.2,0.7,0.6c0,0.4-0.2,0.7-0.6,0.7
			c0,0,0,0,0,0L121.8,92.5L121.8,92.5"/>
		<path id="path68" class="st0" d="M120.9,90.8c0,0-0.1,0-0.1,0l-2.5-0.4c-0.2,0-0.3-0.1-0.4-0.3c-0.1-0.2-0.1-0.3-0.1-0.5l1.1-3.7
			c-0.5-6.7-0.2-13.4,0.9-20.1c2.5-14.4,11.7-20.3,12.1-20.5c0.3-0.2,0.7-0.1,0.9,0.2c0.2,0.3,0.1,0.7-0.2,0.9
			c-0.1,0.1-9.1,5.8-11.5,19.7c-1.1,6.6-1.4,13.3-0.9,19.9c0,0.1,0,0.2,0,0.2l-1,3.1l1.1,0.2c0.1-0.8,0.3-2.3,0.4-3.3
			c0-0.4,0.4-0.6,0.7-0.6c0,0,0,0,0,0c0.4,0,0.6,0.4,0.6,0.7c0,0.4-0.4,3.6-0.5,4C121.4,90.6,121.2,90.8,120.9,90.8"/>
		<path id="path70" class="st0" d="M122.8,90.8c-0.3,0-0.6-0.2-0.6-0.6c0-0.4,0.2-0.7,0.6-0.7l3.3-0.3c0.4,0,0.7,0.2,0.7,0.6
			c0,0,0,0,0,0c0,0.4-0.2,0.7-0.6,0.7L122.8,90.8C122.9,90.8,122.9,90.8,122.8,90.8"/>
		<path id="path72" class="st0" d="M140.4,75.2c-0.7,0-17.6,0-17.6-3.5c0-1.1,1.4-1.9,4.6-2.5c3.4-0.6,6.8-0.9,10.2-1
			c0.3,0,0.6,0.3,0.7,0.6c0,0,0,0,0,0c0,0.4-0.3,0.6-0.6,0.7c-8.8,0.2-13.1,1.5-13.6,2.2c0.6,0.8,6.4,2.2,16.3,2.2
			s15.8-1.4,16.3-2.2c-0.5-0.7-5.6-2.1-15.5-2.2c-0.4,0-0.6-0.3-0.6-0.6c0,0,0,0,0,0c0-0.4,0.3-0.6,0.6-0.6c3.9,0,7.7,0.3,11.6,0.9
			c4.6,0.8,5.2,1.8,5.2,2.6C158,75.1,141.1,75.2,140.4,75.2"/>
		<path id="path74" class="st0" d="M139.6,98.9c-3.4,0.1-6.7-0.8-9.6-2.7c-6.2-4.3-8.1-23.3-7.2-25c0.2-0.3,0.6-0.4,0.9-0.3
			c0,0,0,0,0,0c0.3,0.2,0.4,0.6,0.3,0.9c-0.5,1.2,1,19.4,6.8,23.3c1.3,0.9,4.1,2.8,9.9,2.5c0.4,0,0.7,0.3,0.7,0.6
			c0,0.4-0.3,0.7-0.6,0.7C140.4,98.9,140,98.9,139.6,98.9"/>
		<path id="path76" class="st0" d="M157.3,73.3L157.3,73.3c-0.4,0-0.7-0.3-0.6-0.7c0-0.4,0-0.7,0-1.1c-0.2-0.3-0.1-0.7,0.3-0.9
			c0,0,0,0,0,0c0.3-0.2,0.7-0.1,0.9,0.3c0.2,0.5,0.3,1.1,0.2,1.7C157.9,73.1,157.6,73.3,157.3,73.3"/>
		<path id="path78" class="st0" d="M155.2,85.7c-0.1,0-0.1,0-0.2,0c-0.3-0.1-0.5-0.4-0.5-0.8c0,0,0,0,0,0c0.8-2.9,1.3-5.8,1.7-8.7
			c0-0.4,0.4-0.6,0.7-0.6c0.4,0,0.6,0.4,0.6,0.7c0,0,0,0,0,0c-0.4,3-0.9,6-1.7,8.9C155.8,85.5,155.5,85.7,155.2,85.7"/>
		<path id="path80" class="st0" d="M140.4,98.9c-0.3,0-0.6-0.3-0.6-0.6c0-0.4,0.3-0.6,0.6-0.7c0.1,0,6.4-0.1,8.9-2.4
			c0,0,0,0,0.1-0.1c1.5-1,2.8-3.1,4-6.2c0.1-0.3,0.5-0.5,0.8-0.4c0,0,0,0,0,0c0.3,0.1,0.5,0.5,0.4,0.8c0,0,0,0,0,0
			c-1.3,3.4-2.8,5.6-4.5,6.8C147.2,98.7,140.7,98.9,140.4,98.9L140.4,98.9"/>
		<path id="path82" class="st0" d="M156.8,75.6l0.2,0.6L156.8,75.6L156.8,75.6z M155.2,85.8c-0.3,0-0.5-0.2-0.6-0.4
			c-0.1-0.3,0.1-0.7,0.4-0.8c2.8-1.2,5-3.3,6.4-5.9c0.4-0.7,0.4-1.5,0.1-2.2c-0.3-0.7-1.9-0.7-3.9,0c-0.1,0.1-0.3,0.2-0.4,0.3
			c-0.3,0.1-0.7,0-0.8-0.4c-0.1-0.3,0-0.6,0.2-0.8c0.1-0.2,0.3-0.3,0.5-0.3c3-1,5-0.7,5.6,0.7c0.4,1,0.4,2.2-0.1,3.2
			c-1.5,3-4,5.4-7.1,6.6C155.4,85.8,155.3,85.8,155.2,85.8"/>
		<path id="path84" class="st0" d="M154,89.7c-0.3,0-0.5-0.2-0.6-0.5c-0.1-0.3,0.1-0.7,0.4-0.8c0,0,0,0,0,0
			c3.2-1,12.2-5.4,11.4-12.3c-0.2-1.1-0.8-2-1.7-2.6c-1.7-1-4.3-0.4-5.7,0c-0.3,0.1-0.7-0.1-0.8-0.4c-0.1-0.3,0.1-0.7,0.4-0.8
			c2-0.6,4.7-1.1,6.8,0.1c1.2,0.8,2.1,2,2.3,3.5c0,0,0,0,0,0.1c1,7.8-8.8,12.7-12.2,13.7C154.1,89.7,154,89.7,154,89.7"/>
		<path id="path86" class="st0" d="M128.4,77.4c-0.3,0-0.6-0.3-0.6-0.6l-0.1-1.4c0-0.4,0.2-0.7,0.6-0.7c0,0,0,0,0,0
			c0.4,0,0.7,0.2,0.7,0.6c0,0,0,0,0,0l0.1,1.4C129.1,77.1,128.8,77.4,128.4,77.4C128.4,77.4,128.4,77.4,128.4,77.4L128.4,77.4"/>
		<path id="path88" class="st0" d="M131.6,92.8c-0.3,0-0.5-0.2-0.6-0.4c-1.5-4-2.6-8.3-3-12.5c0-0.4,0.2-0.7,0.6-0.7c0,0,0,0,0,0
			c0.4,0,0.7,0.2,0.7,0.6c0,0,0,0,0,0c0.5,4.2,1.5,8.3,2.9,12.2c0.1,0.3,0,0.7-0.3,0.8C131.8,92.8,131.7,92.8,131.6,92.8"/>
		<path id="path90" class="st0" d="M153.4,91c-0.1,0-0.2,0-0.2,0c-0.3-0.1-0.5-0.5-0.4-0.8c0,0,0,0,0,0c1-2.6,1.9-5.3,2.5-8
			c0.1-0.3,0.4-0.6,0.7-0.5c0.3,0.1,0.6,0.4,0.5,0.7c-0.6,2.8-1.4,5.6-2.5,8.3C153.9,90.9,153.7,91,153.4,91"/>
		<path id="path92" class="st0" d="M156.8,78C156.8,78,156.7,78,156.8,78c-0.4,0-0.7-0.4-0.6-0.7l0.6-5.1c0-0.4,0.4-0.6,0.7-0.6
			c0.4,0,0.6,0.4,0.6,0.7c0,0,0,0,0,0l-0.6,5.1C157.4,77.8,157.1,78,156.8,78"/>
		<path id="path94" class="st0" d="M121.5,94.6c0,0-0.1,0-0.1,0l-10.9-1.7c-0.3-0.1-0.6-0.4-0.5-0.7l0.2-2.2c0-0.4,0.3-0.6,0.7-0.6
			c0,0,0,0,0,0c0.4,0,0.6,0.3,0.6,0.7l-0.1,1.6l10.3,1.6L128,93c0.4,0,0.7,0.2,0.7,0.6c0,0,0,0,0,0c0,0.4-0.2,0.7-0.6,0.7
			L121.5,94.6L121.5,94.6"/>
		<path id="path96" class="st0" d="M140.4,100.9c-0.3,0-22.5-4.2-41-7.6c-0.3-0.1-0.5-0.3-0.5-0.7c0-0.3,0.3-0.6,0.6-0.6l10.5-0.8
			c0.4,0,0.7,0.2,0.7,0.6c0,0.4-0.2,0.7-0.6,0.7l-5.7,0.5c14.1,2.7,34.9,6.5,36.1,6.7c0.9-0.1,18.1-2.6,30-4.3l-6.7-1
			c-3.4-0.5-6.8-1-10.1-1.5c-0.4-0.1-0.6-0.1-0.9-0.1c-0.5-0.1-0.7-0.3-0.6-0.7c0-0.3,0.3-0.6,0.6-0.6c0.1,0,0.1,0,0.2,0
			c0.9,0.2,16.2,2.4,22.1,3.2c0.3,0,0.5,0.3,0.5,0.6c0,0.3-0.2,0.6-0.5,0.6C162.2,97.8,140.8,100.9,140.4,100.9"/>
		<path id="path98" class="st0" d="M140.3,103.5c0,0-0.1,0-0.1,0l-41.2-8c-0.3-0.1-0.5-0.3-0.5-0.6v-2.1c0-0.4,0.3-0.6,0.6-0.6h0
			c0.4,0,0.6,0.3,0.6,0.6v0v1.5l0.3,0.1l40.2,7.8l34.1-5.2l-0.1-1.7c0-0.4,0.2-0.7,0.6-0.7c0.4,0,0.7,0.2,0.7,0.6c0,0,0,0,0,0
			l0.2,2.2c0,0.3-0.2,0.6-0.5,0.7L140.3,103.5C140.3,103.5,140.3,103.5,140.3,103.5"/>
		<path id="path100" class="st0" d="M140.5,107.4c0,0-0.1,0-0.1,0l-40.6-8.1c-0.3-0.1-0.5-0.3-0.5-0.6l0-3.6c0-0.4,0.3-0.6,0.6-0.6
			h0c0.4,0,0.6,0.3,0.6,0.6l0,3l40,8l33.3-5.9v-2.6c0-0.4,0.3-0.6,0.6-0.6c0,0,0,0,0,0c0.4,0,0.6,0.3,0.6,0.6v3.2
			c0,0.3-0.2,0.6-0.5,0.6l-34,6.1C140.6,107.4,140.6,107.4,140.5,107.4"/>
		<path id="path102" class="st0" d="M140.3,103.5L140.3,103.5c-0.4,0-0.7-0.3-0.6-0.7c0,0,0,0,0,0l0.2-2.6c0-0.4,0.3-0.6,0.7-0.6
			c0.4,0,0.6,0.3,0.6,0.7c0,0,0,0,0,0l-0.2,2.6C140.9,103.2,140.6,103.5,140.3,103.5"/>
		<path id="path104" class="st0" d="M140.5,107.4c-0.3,0-0.6-0.3-0.6-0.6l0-2.2c0-0.4,0.3-0.6,0.6-0.7c0,0,0,0,0,0
			c0.3,0,0.6,0.3,0.7,0.6c0,0,0,0,0,0l0,2.2C141.2,107.1,140.9,107.4,140.5,107.4L140.5,107.4"/>
		<path id="path106" class="st0" d="M122.1,94.7L122.1,94.7c-0.4,0-0.7-0.3-0.6-0.7c0,0,0,0,0,0l0.1-2.3c0-0.3,0.3-0.6,0.6-0.6
			c0,0,0,0,0,0c0.4,0,0.6,0.3,0.6,0.7l-0.1,2.3C122.7,94.5,122.4,94.7,122.1,94.7"/>
		<path id="path108" class="st0" d="M121.1,8.1c-0.2,0-0.4-0.1-0.5-0.2c-0.2-0.3-0.2-0.7,0.1-0.9c0,0,0,0,0,0
			c0.4-0.3,10-7.6,28.4-3.9c0.3,0.1,0.6,0.4,0.5,0.8c0,0,0,0,0,0c-0.1,0.3-0.4,0.6-0.8,0.5c0,0,0,0,0,0c-17.8-3.6-27.3,3.5-27.4,3.6
			C121.3,8,121.2,8.1,121.1,8.1"/>
		<path id="path110" class="st0" d="M156.2,7.2c-0.2,0-0.3-0.1-0.4-0.2c-1.5-1-3.1-1.7-4.9-2.2c-0.3-0.1-0.5-0.5-0.4-0.8
			c0,0,0,0,0,0c0.1-0.3,0.5-0.5,0.8-0.4c0,0,0,0,0,0c0.2,0,3.9,1.2,5.4,2.5c0.3,0.2,0.3,0.6,0,0.9C156.5,7.1,156.4,7.2,156.2,7.2"/>
		<path id="path112" class="st0" d="M139.9,57.3c-0.4,0-0.6-0.3-0.6-0.6v0v-4.2c0-0.4,0.3-0.6,0.6-0.6c0,0,0,0,0,0
			c0.4,0,0.6,0.3,0.6,0.6c0,0,0,0,0,0v4.2C140.6,57.1,140.3,57.3,139.9,57.3C139.9,57.3,139.9,57.3,139.9,57.3"/>
		<path id="path114" class="st0" d="M140.7,45.3h-1.3v-1.6h1.3V45.3"/>
		<path id="path116" class="st0" d="M134.9,43.4c-0.3,0-0.5-0.2-0.6-0.4c-0.1-0.3,0.1-0.7,0.4-0.8c0.2-0.1,4.3-1.5,6.7-0.9
			c0.3,0.1,0.6,0.4,0.5,0.8c0,0,0,0,0,0c-0.1,0.3-0.4,0.6-0.8,0.5c0,0,0,0,0,0c-1.7-0.4-4.9,0.5-6,0.9C135,43.4,135,43.4,134.9,43.4
			"/>
		<path id="path118" class="st0" d="M144.4,43.4c-0.1,0-0.2,0-0.2,0c0,0-0.8-0.3-1.3-0.5c-0.3-0.1-0.5-0.5-0.4-0.8
			c0.1-0.3,0.5-0.5,0.8-0.4c0.5,0.2,1.3,0.5,1.4,0.5c0.3,0.1,0.5,0.5,0.4,0.8C144.9,43.2,144.7,43.4,144.4,43.4"/>
		<path id="path120" class="st0" d="M153.8,74.1C153.8,74.1,153.7,74.1,153.8,74.1c-13.3-2-27.2-0.1-27.3-0.1
			c-0.3,0-0.7-0.2-0.7-0.5c0,0,0,0,0,0c0-0.4,0.2-0.7,0.5-0.7c0.1,0,14.2-1.9,27.6,0.1c0.3,0.1,0.6,0.4,0.5,0.7c0,0,0,0,0,0
			C154.4,73.8,154.1,74.1,153.8,74.1"/>
		<path id="path122" class="st0" d="M139.4,66c-0.5,1.2-0.9,2.5-0.6,3.2c0.1,0.2,0.3,0.4,0.8,0.4c0.5-0.1,0.6-0.3,0.6-0.4
			C140.6,68.5,140,67.1,139.4,66z M139.7,70.8L139.7,70.8c-0.8,0-1.6-0.4-2-1.1c-0.9-1.8,0.9-5,1.1-5.4c0.1-0.2,0.3-0.3,0.5-0.3
			c0.2,0,0.4,0.1,0.5,0.3c0.2,0.4,2.3,3.5,1.6,5.3c-0.3,0.7-0.9,1.1-1.7,1.2C139.8,70.8,139.7,70.8,139.7,70.8"/>
		<path id="path124" class="st0" d="M98.6,120.2c-2.8,0-5.1,2.3-5.1,5.1c0,2.8,2.3,5.1,5.1,5.1c2.8,0,5.1-2.3,5.1-5.1
			C103.6,122.5,101.4,120.2,98.6,120.2z M98.6,131.7c-3.6,0-6.4-2.9-6.4-6.4c0-3.6,2.9-6.4,6.4-6.4c3.6,0,6.4,2.9,6.4,6.4
			C105,128.8,102.1,131.7,98.6,131.7"/>
		<path id="path126" class="st0" d="M187.5,120.2c-2.8,0-5.1,2.3-5.1,5.1c0,2.8,2.3,5.1,5.1,5.1c2.8,0,5.1-2.3,5.1-5.1
			C192.5,122.5,190.3,120.2,187.5,120.2z M187.5,131.7c-3.6,0-6.4-2.9-6.4-6.4c0-3.6,2.9-6.4,6.4-6.4c3.6,0,6.4,2.9,6.4,6.4
			C193.9,128.8,191,131.7,187.5,131.7"/>
		<path id="path128" class="st0" d="M21.3,131.7c-0.4,0-0.7-0.3-0.7-0.7v-11.5c0-0.4,0.3-0.7,0.7-0.7c0.4,0,0.7,0.3,0.7,0.7V131
			C22,131.4,21.7,131.7,21.3,131.7"/>
		<path id="path130" class="st0" d="M74.3,131.7c-0.4,0-0.7-0.3-0.7-0.7v-11.5c0-0.4,0.3-0.7,0.7-0.7c0.4,0,0.7,0.3,0.7,0.7V131
			C75,131.4,74.7,131.7,74.3,131.7"/>
		<path id="path132" class="st0" d="M35.1,131.7H16.7c-0.4,0-0.7-0.3-0.7-0.7s0.3-0.7,0.7-0.7h17.7v-2.1c0-0.4,0.3-0.7,0.7-0.7
			s0.7,0.3,0.7,0.7v2.8C35.8,131.4,35.5,131.7,35.1,131.7"/>
		<path id="path134" class="st0" d="M25.9,120.2h-9.2c-0.4,0-0.7-0.3-0.7-0.7c0-0.4,0.3-0.7,0.7-0.7h9.2c0.4,0,0.7,0.3,0.7,0.7
			S26.3,120.2,25.9,120.2"/>
		<path id="path136" class="st0" d="M117.7,131.7h-9.2c-0.4,0-0.7-0.3-0.7-0.7s0.3-0.7,0.7-0.7h9.2c0.4,0,0.7,0.3,0.7,0.7
			S118.1,131.7,117.7,131.7"/>
		<path id="path138" class="st0" d="M43.6,131.7c-0.2,0-0.3-0.1-0.4-0.1c-0.3-0.2-0.3-0.7-0.1-1l9.2-11.5c0.2-0.3,0.7-0.3,1-0.1
			c0.3,0.2,0.3,0.7,0.1,1l-9.2,11.5C44,131.6,43.8,131.7,43.6,131.7"/>
		<path id="path140" class="st0" d="M62,131.7c-0.2,0-0.4-0.1-0.5-0.3l-9.2-11.5c-0.2-0.3-0.2-0.7,0.1-1c0,0,0,0,0,0
			c0.3-0.2,0.7-0.2,1,0.1c0,0,0,0,0,0l9.2,11.5c0.2,0.3,0.2,0.7-0.1,1C62.3,131.7,62.1,131.7,62,131.7"/>
		<path id="path142" class="st0" d="M48.2,131.7H39c-0.4,0-0.7-0.3-0.7-0.7s0.3-0.7,0.7-0.7h9.2c0.4,0,0.7,0.3,0.7,0.7
			S48.6,131.7,48.2,131.7"/>
		<path id="path144" class="st0" d="M52.8,120.2h-9.2c-0.4,0-0.7-0.3-0.7-0.7c0-0.4,0.3-0.7,0.7-0.7h9.2c0.4,0,0.7,0.3,0.7,0.7
			C53.5,119.9,53.2,120.2,52.8,120.2"/>
		<path id="path146" class="st0" d="M247.4,120.2h-9.2c-0.4,0-0.7-0.3-0.7-0.7c0-0.4,0.3-0.7,0.7-0.7h9.2c0.4,0,0.7,0.3,0.7,0.7
			S247.7,120.2,247.4,120.2"/>
		<path id="path148" class="st0" d="M66.6,131.7h-9.2c-0.4,0-0.7-0.3-0.7-0.7s0.3-0.7,0.7-0.7h9.2c0.4,0,0.7,0.3,0.7,0.7
			S67,131.7,66.6,131.7"/>
		<path id="path150" class="st0" d="M57.4,126h-9.2c-0.4,0-0.7-0.3-0.7-0.7s0.3-0.7,0.7-0.7h9.2c0.4,0,0.7,0.3,0.7,0.7
			S57.8,126,57.4,126"/>
		<path id="path152" class="st0" d="M137.2,131.7c-0.2,0-0.3-0.1-0.4-0.1c-0.3-0.2-0.3-0.7-0.1-1l9.2-11.5c0.2-0.3,0.7-0.3,1-0.1
			c0.3,0.2,0.3,0.7,0.1,1c0,0,0,0,0,0l-9.2,11.5C137.6,131.6,137.4,131.7,137.2,131.7"/>
		<path id="path154" class="st0" d="M155.5,131.7c-0.2,0-0.4-0.1-0.5-0.3l-9.2-11.5c-0.2-0.3-0.2-0.7,0.1-1c0,0,0,0,0,0
			c0.3-0.2,0.7-0.2,1,0.1c0,0,0,0,0,0l9.2,11.5c0.2,0.3,0.2,0.7-0.1,1c0,0,0,0,0,0C155.9,131.7,155.7,131.7,155.5,131.7"/>
		<path id="path156" class="st0" d="M141.8,131.7h-9.2c-0.4,0-0.7-0.3-0.7-0.7s0.3-0.7,0.7-0.7h9.2c0.4,0,0.7,0.3,0.7,0.7
			S142.1,131.7,141.8,131.7"/>
		<path id="path158" class="st0" d="M146.4,120.2h-9.2c-0.4,0-0.7-0.3-0.7-0.7s0.3-0.7,0.7-0.7h9.2c0.4,0,0.7,0.3,0.7,0.7
			C147,119.9,146.7,120.2,146.4,120.2"/>
		<path id="path160" class="st0" d="M160.1,131.7h-9.2c-0.4,0-0.7-0.3-0.7-0.7s0.3-0.7,0.7-0.7h9.2c0.4,0,0.7,0.3,0.7,0.7
			S160.5,131.7,160.1,131.7"/>
		<path id="path162" class="st0" d="M150.9,126h-9.2c-0.4,0-0.7-0.3-0.7-0.7s0.3-0.7,0.7-0.7h9.2c0.4,0,0.7,0.3,0.7,0.7
			C151.6,125.7,151.3,126,150.9,126"/>
		<path id="path164" class="st0" d="M238.2,131.7c-0.2,0-0.3-0.1-0.4-0.1c-0.3-0.2-0.3-0.7-0.1-1l9.2-11.5c0.2-0.3,0.7-0.3,1-0.1
			c0.3,0.2,0.3,0.7,0.1,1l-9.2,11.5C238.6,131.6,238.4,131.7,238.2,131.7"/>
		<path id="path166" class="st0" d="M256.5,131.7c-0.2,0-0.4-0.1-0.5-0.3l-9.2-11.5c-0.2-0.3-0.2-0.7,0.1-1c0.3-0.2,0.7-0.2,1,0.1
			c0,0,0,0,0,0l9.2,11.5c0.2,0.3,0.2,0.7-0.1,1C256.8,131.7,256.7,131.7,256.5,131.7"/>
		<path id="path168" class="st0" d="M242.8,131.7h-9.2c-0.4,0-0.7-0.3-0.7-0.7s0.3-0.7,0.7-0.7h9.2c0.4,0,0.7,0.3,0.7,0.7
			S243.1,131.7,242.8,131.7"/>
		<path id="path170" class="st0" d="M261.1,131.7h-9.2c-0.4,0-0.7-0.3-0.7-0.7s0.3-0.7,0.7-0.7h9.2c0.4,0,0.7,0.3,0.7,0.7
			S261.5,131.7,261.1,131.7"/>
		<path id="path172" class="st0" d="M251.9,126h-9.2c-0.4,0-0.7-0.3-0.7-0.7c0-0.4,0.3-0.7,0.7-0.7h9.2c0.4,0,0.7,0.3,0.7,0.7
			S252.3,126,251.9,126"/>
		<path id="path174" class="st0" d="M84.3,131.7H69.8c-0.4,0-0.7-0.3-0.7-0.7s0.3-0.7,0.7-0.7h14.6c1.9,0,3.1-0.8,3.1-2.2
			s-1.2-2.2-3.1-2.2c-0.4,0-0.7-0.3-0.7-0.7s0.3-0.7,0.7-0.7c1.9,0,3.1-0.8,3.1-2.2s-1.2-2.2-3.1-2.2H69.8c-0.4,0-0.7-0.3-0.7-0.7
			c0-0.4,0.3-0.7,0.7-0.7h14.6c3.1,0,4.5,1.8,4.5,3.6c0,1.2-0.6,2.3-1.7,2.9c1,0.6,1.7,1.7,1.7,2.9
			C88.8,129.9,87.4,131.7,84.3,131.7"/>
		<path id="path176" class="st0" d="M113.1,131.7c-0.4,0-0.7-0.3-0.7-0.7v-11.5c0-0.4,0.3-0.7,0.7-0.7c0.4,0,0.7,0.3,0.7,0.7V131
			C113.8,131.4,113.5,131.7,113.1,131.7"/>
		<path id="path178" class="st0" d="M173.2,131.7H164c-0.4,0-0.7-0.3-0.7-0.7s0.3-0.7,0.7-0.7h9.2c0.4,0,0.7,0.3,0.7,0.7
			S173.6,131.7,173.2,131.7"/>
		<path id="path180" class="st0" d="M177.8,123.1c-0.4,0-0.7-0.3-0.7-0.7v-2.3h-17v2.3c0,0.4-0.3,0.7-0.7,0.7s-0.7-0.3-0.7-0.7v-2.9
			c0-0.4,0.3-0.7,0.7-0.7h18.4c0.4,0,0.7,0.3,0.7,0.7v2.9C178.5,122.8,178.2,123.1,177.8,123.1"/>
		<path id="path182" class="st0" d="M168.6,131.7c-0.4,0-0.7-0.3-0.7-0.7v-11.5c0-0.4,0.3-0.7,0.7-0.7c0.4,0,0.7,0.3,0.7,0.7V131
			C169.3,131.4,169,131.7,168.6,131.7"/>
		<path id="path184" class="st0" d="M229.7,131.7h-9.2c-0.4,0-0.7-0.3-0.7-0.7s0.3-0.7,0.7-0.7h9.2c0.4,0,0.7,0.3,0.7,0.7
			S230.1,131.7,229.7,131.7"/>
		<path id="path186" class="st0" d="M229.7,120.2h-9.2c-0.4,0-0.7-0.3-0.7-0.7s0.3-0.7,0.7-0.7h9.2c0.4,0,0.7,0.3,0.7,0.7
			C230.4,119.9,230.1,120.2,229.7,120.2"/>
		<path id="path188" class="st0" d="M225.1,131.7c-0.4,0-0.7-0.3-0.7-0.7v-11.5c0-0.4,0.3-0.7,0.7-0.7c0.4,0,0.7,0.3,0.7,0.7V131
			C225.8,131.4,225.5,131.7,225.1,131.7"/>
		<path id="path190" class="st0" d="M123.1,126h-10c-0.4,0-0.7-0.3-0.7-0.7s0.3-0.7,0.7-0.7h10c1.9,0,3.1-0.8,3.1-2.2
			s-1.2-2.2-3.1-2.2h-14.6c-0.4,0-0.7-0.3-0.7-0.7c0-0.4,0.3-0.7,0.7-0.7h14.6c3.1,0,4.5,1.8,4.5,3.6S126.2,126,123.1,126"/>
		<path id="path192" class="st0" d="M84.3,126h-10c-0.4,0-0.7-0.3-0.7-0.7s0.3-0.7,0.7-0.7h10c0.4,0,0.7,0.3,0.7,0.7
			C85,125.7,84.7,126,84.3,126"/>
		<path id="path194" class="st0" d="M204.8,131.7h-9.2c-0.4,0-0.7-0.3-0.7-0.7s0.3-0.7,0.7-0.7h9.2c0.4,0,0.7,0.3,0.7,0.7
			c0,0,0,0,0,0C205.4,131.4,205.1,131.7,204.8,131.7C204.8,131.7,204.8,131.7,204.8,131.7"/>
		<path id="path196" class="st0" d="M200.2,131.7c-0.4,0-0.7-0.3-0.7-0.7v-11.5c0-0.4,0.3-0.7,0.7-0.7c0.4,0,0.7,0.3,0.7,0.7V131
			C200.8,131.4,200.5,131.7,200.2,131.7"/>
		<path id="path198" class="st0" d="M210.1,126h-10c-0.4,0-0.7-0.3-0.7-0.7s0.3-0.7,0.7-0.7h10c1.9,0,3.1-0.8,3.1-2.2
			s-1.2-2.2-3.1-2.2h-14.6c-0.4,0-0.7-0.3-0.7-0.7s0.3-0.7,0.7-0.7h14.6c3.1,0,4.5,1.8,4.5,3.6S213.2,126,210.1,126"/>
		<path id="path200" class="st0" d="M126.4,131.8c-3.5,0-6.4-2.9-6.4-6.4c0-0.4,0.3-0.7,0.7-0.7s0.7,0.3,0.7,0.7c0,2.8,2.2,5,5,5
			c1.6,0,2.8-1.3,2.8-2.8c0-0.4,0.3-0.7,0.7-0.7c0.4,0,0.7,0.3,0.7,0.7C130.6,129.9,128.7,131.8,126.4,131.8"/>
		<path id="path202" class="st0" d="M213.4,131.8c-3.5,0-6.4-2.9-6.4-6.4c0-0.4,0.3-0.7,0.7-0.7c0.4,0,0.7,0.3,0.7,0.7c0,0,0,0,0,0
			c0,2.8,2.2,5,5,5c1.6,0,2.8-1.3,2.8-2.8c0-0.4,0.3-0.7,0.7-0.7c0.4,0,0.7,0.3,0.7,0.7C217.6,129.9,215.8,131.8,213.4,131.8"/>
		<path id="path204" class="st0" d="M119.6,175.4c-0.9,0-1.8-0.3-2.5-0.7c-0.3-0.2-0.4-0.6-0.2-0.9c0.2-0.3,0.6-0.4,0.9-0.2
			c3.3,1.9,6.1-2,7-3.3c1.3-1.7,4.8-6.3,8.2-10.7c3.3-4.3,6.7-8.7,7.9-10.4c2.9-4,5.2-6.5,7.3-6.5c1.1-0.1,2.1,0.6,2.4,1.7
			c0.3,1.6-0.6,3.2-2.1,3.9c-0.3,0.2-0.7,0.1-0.9-0.3c0,0,0,0,0,0c-0.2-0.3-0.1-0.7,0.3-0.9c0,0,0,0,0,0c1-0.4,1.5-1.4,1.5-2.4
			c-0.2-0.5-0.6-0.8-1.1-0.7c-1.7,0-4.1,3-6.2,5.9c-1.2,1.7-4.6,6.1-7.9,10.4c-3.4,4.4-6.9,9-8.1,10.7
			C123.8,173.9,121.7,175.4,119.6,175.4"/>
		<path id="path206" class="st0" d="M155.6,151.4c-1.7,0.2-3.2,0.9-4.5,1.9c-1.7,1.3-3.4,3.3-3.5,5.1c0,0.1,0,0.2,0,0.3
			c1.6-0.6,3.1-1.3,4.5-2.1c2.6-1.5,4.6-3.4,4.6-4.4c0-0.2-0.1-0.3-0.2-0.4C156.2,151.5,155.9,151.4,155.6,151.4L155.6,151.4z
			 M165.9,151.5L165.9,151.5c-1.6,0.1-4,1.5-5.6,3.3c-1.2,1.3-2.3,3.5-2.1,4.9c1.7-0.8,3.3-1.8,4.7-2.9l0.2-0.2
			c2.6-2,3.9-3.4,3.9-4.3c0-0.2-0.1-0.3-0.2-0.5C166.7,151.6,166.3,151.5,165.9,151.5L165.9,151.5z M161.1,162.5H161
			c-1.2,0.1-2.5-0.3-3.5-1c-2,0.7-4,1-6.1,1c-1.6,0-3.4-0.1-4.4-1.2c-0.2-0.2-0.4-0.5-0.5-0.8c-6.1,1.9-11.5,1.2-13.7-0.4
			c-0.9-0.6-1.4-1.7-1.2-2.8c0.1-0.4,0.5-0.6,0.8-0.5c0,0,0,0,0,0c0.4,0.1,0.6,0.5,0.5,0.8c0,0,0,0,0,0c0,0.2-0.2,0.7,0.7,1.3
			c2,1.4,7,1.9,12.6,0.2c0-0.3,0-0.5,0-0.8c0.2-2.3,2.2-4.6,4.1-6.1c1.2-0.9,5-3.1,7-1.7c0.5,0.4,0.8,1,0.8,1.6
			c-0.1,2.4-4.4,5-5.3,5.6c-1.6,0.9-3.2,1.7-4.9,2.3c0.1,0.1,0.1,0.2,0.2,0.3c0.5,0.6,1.6,0.8,3.4,0.8c1.8,0,3.7-0.3,5.4-0.8
			c-0.5-2,1-4.8,2.4-6.3c1.6-1.8,4.3-3.7,6.5-3.8c0.8-0.1,1.5,0.2,2.1,0.7c0.4,0.4,0.6,1,0.6,1.5c-0.1,1.8-2.3,3.7-4.5,5.3l-0.2,0.2
			c-1.4,1.2-3,2.1-4.6,2.9c0.6,0.2,1.2,0.3,1.9,0.3c3.5-0.1,6.8-1.5,9.2-4.1c0.3-0.3,0.7-0.3,1,0c0.3,0.3,0.3,0.7,0,1
			C168.6,160.7,165,162.4,161.1,162.5"/>
		<path id="path208" class="st0" d="M117.8,151.7c-1.1,0.1-2.2,0.6-3.2,1.2c0.7,0,1.4-0.2,2.1-0.4c0.6-0.1,1.1-0.4,1.5-0.8
			C118.1,151.7,118,151.7,117.8,151.7z M112.3,162.5c-0.4,0-0.9,0-1.3-0.1c-1.3-0.1-2.3-1-2.7-2.2c-0.5-2,1.1-4.5,3-6.4
			c-0.9-0.3-1.8-0.7-2.6-1.2c-2.3-1.5-2.1-3.2-1.8-3.8c0.4-1.1,1.4-1.8,2.6-1.8c0.4,0,0.7,0.4,0.6,0.7c0,0,0,0,0,0
			c0,0.4-0.4,0.7-0.7,0.6c-0.5,0-1,0.4-1.2,0.9c-0.2,0.7,0.2,1.5,1.3,2.2c0.9,0.6,2,1,3,1.3l0,0c0.8-0.7,4.4-3.2,6.5-2.1
			c0.4,0.2,0.7,0.6,0.7,1.1c0,0.6-0.5,1.2-1.3,1.7c-1.7,0.8-3.6,1.1-5.5,0.9c-2.3,2.1-3.6,4.4-3.3,5.7c0.1,0.2,0.2,0.9,1.6,1.2
			c3.4,0.7,8.3-2.7,9.8-4.8c0.2-0.3,0.7-0.4,1-0.2c0.3,0.2,0.4,0.7,0.2,1c0,0,0,0,0,0C120.7,159.2,116.2,162.5,112.3,162.5"/>
		<path id="path210" class="st0" d="M129.5,151.2c-0.1,0-0.2,0-0.3,0.1c-0.3,0.1-0.5,0.3-0.5,0.6c0,0.2,0.3,0.4,0.7,0.5
			c0.6,0.1,1.1,0.2,1.7,0.2c0-0.2-0.1-0.4-0.2-0.5C130.6,151.6,130.1,151.3,129.5,151.2L129.5,151.2z M122.6,162.1h-0.2
			c-0.8,0-1.5-0.3-2-0.8c-0.5-0.7-0.7-1.5-0.5-2.3c0.8-3,2.8-5.6,5.4-7.3c0.3-0.2,0.7-0.1,0.9,0.3c0,0,0,0,0,0
			c0.2,0.3,0.1,0.7-0.3,0.9c0,0,0,0,0,0c-2.3,1.5-4,3.7-4.8,6.4c-0.1,0.4-0.1,0.8,0.1,1.2c0.3,0.3,0.7,0.4,1.1,0.4
			c2.3-0.2,4.5-1.2,6.1-2.9c1.1-1.1,1.9-2.4,2.4-3.8c-0.6,0-1.3-0.1-1.9-0.3c-0.9-0.1-1.6-0.8-1.8-1.7c0-0.9,0.5-1.7,1.4-2
			c1.2-0.4,2.6,0.1,3.3,1.2c0.3,0.4,0.5,0.9,0.5,1.4c3.2-0.1,8.5-1.1,15.3-5.6c0.3-0.2,0.7-0.1,0.9,0.2c0.2,0.3,0.1,0.7-0.2,0.9
			c0,0,0,0,0,0c-7.1,4.7-12.7,5.7-16.2,5.8c-0.5,1.8-1.5,3.5-2.8,4.8C127.7,160.7,125.3,161.9,122.6,162.1"/>
		<path id="path212" class="st0" d="M154.5,143.9c-1.7,0-4.1,3-6.2,5.9l-0.3,0.4c2.1-0.8,4.1-1.9,5.9-3.3c1.2-1,1.7-2,1.5-2.6
			C155.4,144,154.9,143.9,154.5,143.9L154.5,143.9z M125.8,175.4c-1.3,0-2.6-0.6-3.4-1.7c-0.2-0.3-0.2-0.7,0.1-1c0,0,0,0,0,0
			c0.3-0.2,0.7-0.2,1,0.1c0,0,0,0,0,0c0.6,0.8,1.5,1.2,2.5,1.2c1.6-0.1,3.5-1.5,5.2-3.8c1.3-1.7,4.8-6.3,8.2-10.7
			c2.1-2.7,4.1-5.4,6.2-8.1l0,0c0.7-1,1.3-1.8,1.7-2.3c2.9-4,5.2-6.5,7.3-6.5c1-0.1,1.9,0.4,2.3,1.3c0.4,1.2-0.4,2.8-2,4.1
			c-2.4,1.8-5.1,3.2-8,4.2l-0.3,0.1c-1.6,2.1-3.9,5.1-6.1,8c-3.4,4.4-6.9,9-8.1,10.7c-2,2.7-4.2,4.3-6.2,4.4L125.8,175.4"/>
		<path id="path214" class="st0" d="M139.2,199.5c-0.1,0-0.1,0-0.2,0L0.5,153.3c-0.3-0.1-0.5-0.4-0.5-0.6v-55c0-0.3,0.2-0.6,0.5-0.6
			l110.9-37.1c0.4-0.1,0.7,0.1,0.9,0.4c0.1,0.4-0.1,0.7-0.4,0.9c0,0,0,0,0,0L1.4,98.1v54.1l137.8,46l137.8-46V98.1l-110.4-37
			c-0.4-0.1-0.6-0.5-0.4-0.9c0.1-0.4,0.5-0.6,0.9-0.4l110.9,37.1c0.3,0.1,0.5,0.4,0.5,0.6v55c0,0.3-0.2,0.6-0.5,0.6l-138.5,46.2
			C139.3,199.5,139.3,199.5,139.2,199.5"/>
	</g>
</g>
</svg>
