<?xml version="1.0" encoding="utf-8"?>
<!-- Generator: Adobe Illustrator 22.0.1, SVG Export Plug-In . SVG Version: 6.00 Build 0)  -->
<svg version="1.1" xmlns="http://www.w3.org/2000/svg" xmlns:xlink="http://www.w3.org/1999/xlink" x="0px" y="0px"
	 viewBox="0 0 278.4 199.5" style="enable-background:new 0 0 278.4 199.5;" xml:space="preserve">
<style type="text/css">
	.st0{display:none;}
	.st1{display:inline;}
	.st2{fill:#FFFFFF;}
	.st3{display:inline;fill:#E4761B;stroke:#E4761B;}
	.st4{display:inline;fill:#F6851B;stroke:#F6851B;}
	.st5{display:inline;fill:#763D16;stroke:#763D16;}
	.st6{display:inline;fill:#E2761B;stroke:#E2761B;}
	.st7{display:inline;fill:#C0AD9E;stroke:#C0AD9E;}
	.st8{display:inline;fill:#CD6116;stroke:#CD6116;}
	.st9{display:inline;fill:#E4751F;stroke:#E4751F;}
	.st10{display:inline;fill:#233447;stroke:#233447;}
	.st11{display:inline;fill:#D7C1B3;stroke:#D7C1B3;}
	.st12{display:inline;fill:#161616;stroke:#161616;}
	.st13{display:inline;opacity:0.38;fill:#763D16;enable-background:new    ;}
	.st14{display:inline;opacity:0.9;fill:#F7F7F7;enable-background:new    ;}
	.st15{opacity:0.94;}
	.st16{font-family:'HelveticaNeue';}
	.st17{font-size:35.6185px;}
</style>
<g id="Слой_1" class="st0">
	<g id="Слой_1_1_">
		<g id="g10" transform="translate(0 582.147)" class="st1">
			<g id="g12" transform="translate(0 -582.147)">
				<path id="path14" class="st2" d="M136.3,37.5c-0.2,0-0.4-0.1-0.5-0.3c-2.3-3.4-6.8-11.2-10.5-17.4c-2.5-4.3-4.9-8.4-5.5-9.2
					c-1.7-1.3-0.7-3.9-0.7-4c0.1-0.2,2.5-6.5,20.3-6.7c0.3,0,0.6,0.3,0.6,0.6l0,0c0,0.4-0.3,0.6-0.6,0.6
					c-16.9,0.2-19.1,5.8-19.1,5.9c0,0-0.7,1.8,0.3,2.6l0.1,0.1c0.5,0.6,2.4,3.9,5.6,9.4c3.5,6,7.8,13.3,10.2,16.9
					c1-0.3,2-0.5,3.1-0.5c0.4,0,0.6,0.3,0.7,0.6c0,0.4-0.3,0.6-0.6,0.7c-1.1,0-2.2,0.2-3.2,0.6C136.4,37.5,136.3,37.5,136.3,37.5"/>
				<path id="path16" class="st2" d="M136.8,40.8c-0.4,0-0.7-0.1-1-0.4c-0.7-0.6-1-1.6-0.8-2.5c0.1-0.8,0.6-1.5,1.4-1.8
					c0.3-0.1,0.7,0.1,0.8,0.4l0,0c0.1,0.3-0.1,0.7-0.4,0.8l0,0c-0.3,0.1-0.5,0.4-0.6,0.8c-0.1,0.4,0,0.9,0.3,1.2
					c0.1,0.1,0.3,0.1,0.4,0c0,0,0,0,0.1,0l0.2-0.1c0.8-0.3,1.6-0.4,2.5-0.4c0.4,0,0.6,0.3,0.6,0.6l0,0c0,0.4-0.3,0.6-0.6,0.6l0,0
					c-0.7,0-1.4,0.1-2.1,0.3h-0.2C137.3,40.8,137,40.8,136.8,40.8"/>
				<path id="path18" class="st2" d="M142.9,40.9c-0.2,0-0.5,0-0.7-0.1H142c-0.7-0.3-1.5-0.4-2.3-0.4c-0.4,0-0.6-0.3-0.6-0.6l0,0
					c0-0.4,0.3-0.6,0.6-0.6l0,0c0.9,0,1.8,0.1,2.7,0.4l0.2,0.1c0,0,0,0,0.1,0c0.2,0.1,0.3,0,0.3,0c0.3-0.3,0.4-0.8,0.3-1.2
					c0-0.4-0.3-0.7-0.6-0.9c-0.3-0.1-0.5-0.5-0.4-0.8s0.5-0.5,0.8-0.4l0,0c0.8,0.3,1.4,1,1.5,1.9c0.2,0.9-0.1,1.8-0.7,2.4
					C143.5,40.7,143.2,40.9,142.9,40.9"/>
				<path id="path20" class="st2" d="M142.8,37.5c-0.1,0-0.1,0-0.2,0c-1-0.4-2.1-0.6-3.2-0.6c-0.4,0-0.6-0.3-0.6-0.7
					c0-0.3,0.3-0.6,0.6-0.6l0,0c1,0,2.1,0.2,3.1,0.5c2.3-3.6,6.7-11,10.2-16.9c3.2-5.4,5.1-8.8,5.6-9.3l0.1-0.1
					c1-0.8,0.4-2.5,0.3-2.6c0-0.1-2.4-5.7-19.1-5.9c-0.4,0-0.6-0.3-0.6-0.6s0.3-0.6,0.6-0.6l0,0c17.8,0.2,20.2,6.5,20.3,6.7
					c0,0.1,1,2.6-0.7,4c-0.5,0.8-2.9,4.8-5.5,9.2c-3.6,6.2-8.2,13.9-10.5,17.4C143.2,37.4,143,37.5,142.8,37.5"/>
				<path id="path22" class="st2" d="M120.5,10.9c-0.1,0-0.3,0-0.4-0.1c-0.3-0.2-0.3-0.6-0.1-0.9l0,0c0.2-0.2,4.9-6,18.8-6h0.2
					c14,0.1,20,5.6,20.2,5.8c0.3,0.2,0.3,0.6,0,0.9c-0.2,0.3-0.6,0.3-0.9,0c-0.1-0.1-5.8-5.4-19.3-5.5c-7,0-11.5,1.5-14.1,2.7
					c-1.5,0.7-2.8,1.6-3.9,2.8C120.9,10.8,120.7,10.9,120.5,10.9"/>
				<path id="path24" class="st2" d="M136.5,44.8c-0.2,0-0.4,0-0.6-0.1c-0.8-0.1-1.4-0.7-1.6-1.5c-0.2-0.9,0-1.8,0.5-2.5
					c0.8-0.8,1.8-1.2,2.9-1.4c0.3-0.1,0.6-0.1,0.9-0.2c0.3-0.1,0.7,0.1,0.8,0.4c0.1,0.3-0.1,0.7-0.4,0.8l0,0
					c-0.3,0.1-0.6,0.2-0.9,0.2c-0.8,0.1-1.6,0.4-2.2,0.9l-0.1,0.1c-0.2,0.4-0.3,0.9-0.2,1.4c0.1,0.3,0.3,0.4,0.6,0.5
					c0.6,0.1,1.1,0,1.7-0.2c0.5-0.2,1.1-0.3,1.6-0.3c0.4,0,0.6,0.3,0.6,0.7l0,0c0,0.4-0.3,0.6-0.7,0.6l0,0c-0.4,0-0.8,0.1-1.2,0.2
					C137.6,44.7,137,44.8,136.5,44.8"/>
				<path id="path26" class="st2" d="M143.2,44.8c-0.6,0-1.2-0.1-1.8-0.3s-1.3-0.3-2-0.3c-0.3,0.1-0.7-0.2-0.8-0.5s0.2-0.7,0.5-0.8
					c0.9-0.1,1.7,0,2.5,0.3c0.6,0.2,1.2,0.3,1.7,0.2c0.3,0,0.5-0.2,0.6-0.5c0.1-0.5,0-1-0.2-1.4c0,0,0,0-0.1-0.1
					c-0.7-0.6-1.5-1-2.4-1.1l-0.4-0.1c-0.3-0.1-0.5-0.4-0.4-0.8c0.1-0.3,0.4-0.5,0.8-0.4l0,0l0.4,0.1c1.2,0.2,2.2,0.7,3.1,1.5
					c0.5,0.7,0.7,1.6,0.5,2.5c-0.2,0.7-0.8,1.3-1.6,1.5C143.5,44.8,143.3,44.8,143.2,44.8"/>
				<path id="path28" class="st2" d="M145.7,26.4c-0.1,0-0.2,0-0.2,0c-0.3-0.1-0.5-0.5-0.3-0.8c1.8-4.3,5.2-12.6,5.3-12.8
					c0.1-0.3,0.5-0.5,0.8-0.4s0.5,0.5,0.4,0.8c-0.1,0.2-5.1,12.3-5.3,12.8C146.2,26.3,145.9,26.5,145.7,26.4"/>
				<path id="path30" class="st2" d="M143.8,30.7c-0.1,0-0.2,0-0.3-0.1c-0.3-0.2-0.5-0.5-0.3-0.9l0.9-1.9c0.2-0.3,0.5-0.5,0.9-0.3
					l0,0c0.3,0.2,0.5,0.5,0.3,0.9l-0.9,1.9C144.3,30.5,144.1,30.7,143.8,30.7"/>
				<path id="path32" class="st2" d="M133.1,46.5c-0.5,0-0.9,0.5-0.9,1.1s0.4,1.1,0.9,1.1s0.9-0.5,0.9-1.1S133.6,46.5,133.1,46.5z
					 M133.1,50.1c-1.3-0.1-2.2-1.2-2.1-2.4c-0.1-1.3,0.9-2.3,2.1-2.4c1.3,0.1,2.2,1.2,2.1,2.4C135.3,48.9,134.4,50,133.1,50.1"/>
				<path id="path34" class="st2" d="M134.5,51.7c-0.7,0-1.5-0.3-2-0.7s-0.9-1.1-0.9-1.7c0-0.4,0.2-0.7,0.6-0.7
					c0.3,0,0.7,0.2,0.7,0.6l0,0c0,0.3,0.2,0.7,0.5,0.9c0.4,0.3,0.9,0.4,1.3,0.4c0.9-0.1,1.7-0.4,2-2c0.2-0.9,0.1-2-0.5-2.7
					c-0.3-0.4-0.8-0.6-1.3-0.5l0,0c0,0-1.6,0-1.8,1.1c-0.1,0.3-0.4,0.6-0.7,0.5l0,0c-0.3-0.1-0.6-0.4-0.5-0.7c0.3-1.7,2.1-2.2,3-2.2
					s1.7,0.3,2.3,1c0.9,1.1,1.2,2.5,0.9,3.8c-0.1,1.7-1.5,3-3.1,3.1C134.7,51.7,134.6,51.7,134.5,51.7"/>
				<path id="path36" class="st2" d="M140.1,53c-0.3,0-0.6,0-0.9-0.1c-0.8-0.1-1.5-0.4-2.1-1c-1,0.2-2.1,0.1-3.1-0.3
					c-0.3-0.2-0.5-0.5-0.3-0.9c0.2-0.3,0.5-0.5,0.9-0.3l0,0c0.9,0.3,1.8,0.3,2.7,0.1c0.3-0.1,0.5,0.1,0.7,0.3
					c0.4,0.5,0.9,0.7,1.5,0.8c0.8,0.2,1.7,0,2.5-0.4c0.2-0.2,0.5-0.2,0.8-0.1c0,0,0.1,0.1,0.2,0.1c0.3,0.1,0.5,0.2,0.6,0.3
					c0.3,0,0.6-0.1,0.9-0.3c0.6-0.6,0.9-1.4,0.8-2.2c0.2-1.1-0.4-2.1-1.4-2.6c-0.4,0.1-0.8,0.1-1.1,0.1c-0.1,0-0.3,0-0.4-0.1
					c-1.2-0.8-2.6-1-4-0.6c-0.1,0-0.3,0-0.4,0l-1.8-0.6c-0.3-0.1-0.5-0.5-0.4-0.8l0,0c0.1-0.3,0.5-0.5,0.8-0.4l0,0l1.6,0.6
					c1.6-0.4,3.3-0.1,4.7,0.8c0.2,0,0.6-0.1,0.9-0.1c0.1,0,0.2,0,0.3,0c1.6,0.6,2.6,2.2,2.4,3.9c-0.1,2.3-1.2,3.2-2,3.5
					c-0.4,0.1-1.3,0.3-1.7,0c-0.1-0.1-0.3-0.2-0.4-0.2C141.7,52.9,140.9,53.1,140.1,53"/>
				<path id="path38" class="st2" d="M143.5,50.6c-0.1,0-0.1,0-0.2,0c-0.3-0.1-0.6-0.4-0.5-0.8c0.4-1.3-0.1-2.8-1.3-3.6
					c-0.3-0.2-0.4-0.6-0.3-0.9c0.2-0.3,0.6-0.4,0.9-0.3c1.7,1,2.5,3.1,1.9,5C144.1,50.4,143.8,50.6,143.5,50.6"/>
				<path id="path40" class="st2" d="M137.6,58.9c-0.4,0-0.6-0.3-0.6-0.6l0,0v-6.6c0-0.4,0.3-0.6,0.6-0.6l0,0c0.4,0,0.6,0.3,0.6,0.6
					l0,0v6.6C138.2,58.6,137.9,58.9,137.6,58.9L137.6,58.9"/>
				<path id="path42" class="st2" d="M141.4,59.8c-0.4,0-0.6-0.3-0.6-0.6l0,0v-6.7c0-0.4,0.3-0.6,0.6-0.6l0,0c0.4,0,0.6,0.3,0.6,0.6
					v6.7C142,59.5,141.7,59.8,141.4,59.8L141.4,59.8"/>
				<path id="path44" class="st2" d="M138.8,58.6c-0.5,0-0.7,0.2-0.8,0.2c0,0.2,0.3,0.7,1.2,0.9c0.2,0.1,0.5,0.1,0.7,0.1
					c0.5,0,0.7-0.2,0.8-0.2c0-0.1,0-0.1,0-0.2c-0.3-0.4-0.7-0.7-1.1-0.8C139.3,58.6,139.1,58.6,138.8,58.6L138.8,58.6z M140,61.2
					c-0.4,0-0.7-0.1-1.1-0.2c-1.5-0.4-2.3-1.5-2-2.5c0.3-0.8,1.1-1.3,2-1.2c0.4,0,0.7,0.1,1.1,0.2c0.8,0.2,1.5,0.7,1.9,1.4
					c0.2,0.3,0.3,0.8,0.1,1.1C141.6,60.8,140.8,61.3,140,61.2"/>
				<path id="path46" class="st2" d="M148.6,48.9c-0.3,0-0.5-0.2-0.6-0.4c-0.1-0.3-0.4-0.7-0.7-0.9c-0.5-0.5-1.2-0.6-1.9-0.4
					c-0.3,0.2-0.7,0.1-0.9-0.1l0,0c-0.2-0.3-0.1-0.7,0.1-0.9l0,0c1.1-0.6,2.5-0.4,3.4,0.4c0.5,0.4,0.8,0.9,1,1.4
					c0.1,0.3,0,0.7-0.3,0.8l0,0C148.7,48.8,148.7,48.9,148.6,48.9"/>
				<path id="path48" class="st2" d="M146.2,53.2c-0.7,0-1.3-0.2-1.8-0.6c-0.3-0.2-0.3-0.6-0.1-0.9c0.2-0.3,0.6-0.3,0.9-0.1l0,0
					c0.5,0.4,1.2,0.4,1.8,0.2c0.7-0.3,1.1-0.8,1.2-1.5c0.1-0.3,0.4-0.6,0.8-0.5l0,0c0.3,0.1,0.6,0.4,0.5,0.8c-0.2,1.1-1,2.1-2,2.5
					C147,53.1,146.6,53.2,146.2,53.2"/>
				<path id="path50" class="st2" d="M147.8,51.1L147.8,51.1c-0.9,0-1.5-0.7-1.5-1.5c-0.1-0.9,0.6-1.7,1.5-1.8l0,0
					c1.2-0.3,2.3-0.6,3.4-1c0.3-0.1,0.7,0.1,0.8,0.4c0.1,0.3-0.1,0.7-0.4,0.8c-1.2,0.4-2.4,0.8-3.6,1c-0.4,0.1-0.5,0.3-0.5,0.5
					c0,0.1,0,0.3,0.2,0.3h0.1c0.4,0,2.1-0.4,3.5-0.7c0.3-0.1,0.7,0.1,0.8,0.5c0.1,0.3-0.1,0.7-0.5,0.8
					C150.5,50.7,149.2,51,147.8,51.1"/>
				<path id="path52" class="st2" d="M151.7,48.1c-0.2,0-0.4,0.3-0.4,0.5s0.1,0.5,0.4,0.5c0.2,0,0.4-0.3,0.4-0.5
					C152.1,48.3,151.9,48.1,151.7,48.1z M151.7,50.3c-1,0-1.7-0.8-1.7-1.8s0.7-1.7,1.7-1.8c0.9,0,1.7,0.8,1.7,1.8
					S152.6,50.3,151.7,50.3"/>
				<path id="path54" class="st2" d="M142,45.5h-1.3v-1.7h1.3V45.5"/>
				<path id="path56" class="st2" d="M136.6,45v-0.9h1.3V45H136.6"/>
				<path id="path58" class="st2" d="M133,45.6h-2.4c-0.4,0-0.6-0.3-0.6-0.6l0,0v-3.1c0-0.4,0.3-0.6,0.6-0.6l0,0h3.8
					c0.4,0,0.6,0.3,0.6,0.6l0,0c0,0.4-0.3,0.6-0.6,0.6h-3.2v1.8h1.7c0.4,0,0.6,0.3,0.6,0.6l0,0C133.7,45.3,133.4,45.6,133,45.6
					L133,45.6"/>
				<path id="path60" class="st2" d="M132.3,42.3c-0.4,0-0.6-0.3-0.6-0.6l0,0v-6.1c0-0.4,0.3-0.6,0.6-0.6l0,0h2.6
					c0.4,0,0.6,0.3,0.6,0.6l0,0c0,0.4-0.3,0.6-0.6,0.6l0,0h-2v5.5C133,42,132.7,42.3,132.3,42.3L132.3,42.3"/>
				<path id="path62" class="st2" d="M121.4,86.7c-0.3,0-0.6-0.3-0.6-0.6c-0.5-6.8-0.2-13.6,0.9-20.3c1.2-6.8,4.6-13.1,9.6-17.9
					c0.3-0.2,0.7-0.2,0.9,0.1s0.2,0.7-0.1,0.9c-4.8,4.6-8,10.6-9.2,17.2c-1,6.6-1.3,13.3-0.9,20C122,86.4,121.8,86.7,121.4,86.7
					L121.4,86.7L121.4,86.7"/>
				<path id="path64" class="st2" d="M125.6,70.7L125.6,70.7c-0.4-0.1-0.7-0.4-0.6-0.7c0.1-0.8,0.2-1.6,0.4-2.4
					c1.9-11.6,8.4-16.6,8.7-16.8s0.7-0.2,0.9,0.1l0,0c0.2,0.3,0.2,0.7-0.1,0.9l0,0c-0.1,0-6.3,4.9-8.2,16c-0.1,0.8-0.3,1.6-0.4,2.4
					C126.2,70.5,125.9,70.7,125.6,70.7"/>
				<path id="path66" class="st2" d="M121.8,92.5L121.8,92.5l-11.1-1.8c-0.3-0.1-0.6-0.3-0.5-0.7c0-0.3,0.3-0.6,0.6-0.6l7.4-0.6
					c0.4,0,0.7,0.2,0.7,0.6l0,0c0,0.4-0.2,0.7-0.6,0.7l-2.2,0.2l5.7,0.9l5.1-0.3c0.4,0,0.7,0.2,0.7,0.6s-0.2,0.7-0.6,0.7l0,0
					L121.8,92.5L121.8,92.5"/>
				<path id="path68" class="st2" d="M120.9,90.8L120.9,90.8l-2.6-0.4c-0.2,0-0.3-0.1-0.4-0.3c-0.1-0.2-0.1-0.3-0.1-0.5l1.1-3.7
					c-0.5-6.7-0.2-13.4,0.9-20.1c2.5-14.4,11.7-20.3,12.1-20.5c0.3-0.2,0.7-0.1,0.9,0.2s0.1,0.7-0.2,0.9c-0.1,0.1-9.1,5.8-11.5,19.7
					c-1.1,6.6-1.4,13.3-0.9,19.9c0,0.1,0,0.2,0,0.2l-1,3.1l1.1,0.2c0.1-0.8,0.3-2.3,0.4-3.3c0-0.4,0.4-0.6,0.7-0.6l0,0
					c0.4,0,0.6,0.4,0.6,0.7c0,0.4-0.4,3.6-0.5,4C121.4,90.6,121.2,90.8,120.9,90.8"/>
				<path id="path70" class="st2" d="M122.8,90.8c-0.3,0-0.6-0.2-0.6-0.6s0.2-0.7,0.6-0.7l3.3-0.3c0.4,0,0.7,0.2,0.7,0.6l0,0
					c0,0.4-0.2,0.7-0.6,0.7L122.8,90.8C122.9,90.8,122.9,90.8,122.8,90.8"/>
				<path id="path72" class="st2" d="M140.4,75.2c-0.7,0-17.6,0-17.6-3.5c0-1.1,1.4-1.9,4.6-2.5c3.4-0.6,6.8-0.9,10.2-1
					c0.3,0,0.6,0.3,0.7,0.6l0,0c0,0.4-0.3,0.6-0.6,0.7c-8.8,0.2-13.1,1.5-13.6,2.2c0.6,0.8,6.4,2.2,16.3,2.2s15.8-1.4,16.3-2.2
					c-0.5-0.7-5.6-2.1-15.5-2.2c-0.4,0-0.6-0.3-0.6-0.6l0,0c0-0.4,0.3-0.6,0.6-0.6c3.9,0,7.7,0.3,11.6,0.9c4.6,0.8,5.2,1.8,5.2,2.6
					C158,75.1,141.1,75.2,140.4,75.2"/>
				<path id="path74" class="st2" d="M139.6,98.9c-3.4,0.1-6.7-0.8-9.6-2.7c-6.2-4.3-8.1-23.3-7.2-25c0.2-0.3,0.6-0.4,0.9-0.3l0,0
					c0.3,0.2,0.4,0.6,0.3,0.9c-0.5,1.2,1,19.4,6.8,23.3c1.3,0.9,4.1,2.8,9.9,2.5c0.4,0,0.7,0.3,0.7,0.6c0,0.4-0.3,0.7-0.6,0.7
					C140.4,98.9,140,98.9,139.6,98.9"/>
				<path id="path76" class="st2" d="M157.3,73.3L157.3,73.3c-0.4,0-0.7-0.3-0.6-0.7c0-0.4,0-0.7,0-1.1c-0.2-0.3-0.1-0.7,0.3-0.9
					l0,0c0.3-0.2,0.7-0.1,0.9,0.3c0.2,0.5,0.3,1.1,0.2,1.7C157.9,73.1,157.6,73.3,157.3,73.3"/>
				<path id="path78" class="st2" d="M155.2,85.7c-0.1,0-0.1,0-0.2,0c-0.3-0.1-0.5-0.4-0.5-0.8l0,0c0.8-2.9,1.3-5.8,1.7-8.7
					c0-0.4,0.4-0.6,0.7-0.6c0.4,0,0.6,0.4,0.6,0.7l0,0c-0.4,3-0.9,6-1.7,8.9C155.8,85.5,155.5,85.7,155.2,85.7"/>
				<path id="path80" class="st2" d="M140.4,98.9c-0.3,0-0.6-0.3-0.6-0.6c0-0.4,0.3-0.6,0.6-0.7c0.1,0,6.4-0.1,8.9-2.4
					c0,0,0,0,0.1-0.1c1.5-1,2.8-3.1,4-6.2c0.1-0.3,0.5-0.5,0.8-0.4l0,0c0.3,0.1,0.5,0.5,0.4,0.8l0,0c-1.3,3.4-2.8,5.6-4.5,6.8
					C147.2,98.7,140.7,98.9,140.4,98.9L140.4,98.9"/>
				<path id="path82" class="st2" d="M156.8,75.6l0.2,0.6L156.8,75.6L156.8,75.6z M155.2,85.8c-0.3,0-0.5-0.2-0.6-0.4
					c-0.1-0.3,0.1-0.7,0.4-0.8c2.8-1.2,5-3.3,6.4-5.9c0.4-0.7,0.4-1.5,0.1-2.2c-0.3-0.7-1.9-0.7-3.9,0c-0.1,0.1-0.3,0.2-0.4,0.3
					c-0.3,0.1-0.7,0-0.8-0.4c-0.1-0.3,0-0.6,0.2-0.8c0.1-0.2,0.3-0.3,0.5-0.3c3-1,5-0.7,5.6,0.7c0.4,1,0.4,2.2-0.1,3.2
					c-1.5,3-4,5.4-7.1,6.6C155.4,85.8,155.3,85.8,155.2,85.8"/>
				<path id="path84" class="st2" d="M154,89.7c-0.3,0-0.5-0.2-0.6-0.5s0.1-0.7,0.4-0.8l0,0c3.2-1,12.2-5.4,11.4-12.3
					c-0.2-1.1-0.8-2-1.7-2.6c-1.7-1-4.3-0.4-5.7,0c-0.3,0.1-0.7-0.1-0.8-0.4s0.1-0.7,0.4-0.8c2-0.6,4.7-1.1,6.8,0.1
					c1.2,0.8,2.1,2,2.3,3.5c0,0,0,0,0,0.1c1,7.8-8.8,12.7-12.2,13.7C154.1,89.7,154,89.7,154,89.7"/>
				<path id="path86" class="st2" d="M128.4,77.4c-0.3,0-0.6-0.3-0.6-0.6l-0.1-1.4c0-0.4,0.2-0.7,0.6-0.7l0,0c0.4,0,0.7,0.2,0.7,0.6
					l0,0l0.1,1.4C129.1,77.1,128.8,77.4,128.4,77.4L128.4,77.4L128.4,77.4"/>
				<path id="path88" class="st2" d="M131.6,92.8c-0.3,0-0.5-0.2-0.6-0.4c-1.5-4-2.6-8.3-3-12.5c0-0.4,0.2-0.7,0.6-0.7l0,0
					c0.4,0,0.7,0.2,0.7,0.6l0,0c0.5,4.2,1.5,8.3,2.9,12.2c0.1,0.3,0,0.7-0.3,0.8C131.8,92.8,131.7,92.8,131.6,92.8"/>
				<path id="path90" class="st2" d="M153.4,91c-0.1,0-0.2,0-0.2,0c-0.3-0.1-0.5-0.5-0.4-0.8l0,0c1-2.6,1.9-5.3,2.5-8
					c0.1-0.3,0.4-0.6,0.7-0.5s0.6,0.4,0.5,0.7c-0.6,2.8-1.4,5.6-2.5,8.3C153.9,90.9,153.7,91,153.4,91"/>
				<path id="path92" class="st2" d="M156.8,78C156.8,78,156.7,78,156.8,78c-0.4,0-0.7-0.4-0.6-0.7l0.6-5.1c0-0.4,0.4-0.6,0.7-0.6
					c0.4,0,0.6,0.4,0.6,0.7l0,0l-0.6,5.1C157.4,77.8,157.1,78,156.8,78"/>
				<path id="path94" class="st2" d="M121.5,94.6L121.5,94.6l-11-1.7c-0.3-0.1-0.6-0.4-0.5-0.7l0.2-2.2c0-0.4,0.3-0.6,0.7-0.6l0,0
					c0.4,0,0.6,0.3,0.6,0.7l-0.1,1.6l10.3,1.6L128,93c0.4,0,0.7,0.2,0.7,0.6l0,0c0,0.4-0.2,0.7-0.6,0.7L121.5,94.6L121.5,94.6"/>
				<path id="path96" class="st2" d="M140.4,100.9c-0.3,0-22.5-4.2-41-7.6c-0.3-0.1-0.5-0.3-0.5-0.7c0-0.3,0.3-0.6,0.6-0.6l10.5-0.8
					c0.4,0,0.7,0.2,0.7,0.6s-0.2,0.7-0.6,0.7l-5.7,0.5c14.1,2.7,34.9,6.5,36.1,6.7c0.9-0.1,18.1-2.6,30-4.3l-6.7-1
					c-3.4-0.5-6.8-1-10.1-1.5c-0.4-0.1-0.6-0.1-0.9-0.1c-0.5-0.1-0.7-0.3-0.6-0.7c0-0.3,0.3-0.6,0.6-0.6c0.1,0,0.1,0,0.2,0
					c0.9,0.2,16.2,2.4,22.1,3.2c0.3,0,0.5,0.3,0.5,0.6c0,0.3-0.2,0.6-0.5,0.6C162.2,97.8,140.8,100.9,140.4,100.9"/>
				<path id="path98" class="st2" d="M140.3,103.5h-0.1l-41.2-8c-0.3-0.1-0.5-0.3-0.5-0.6v-2.1c0-0.4,0.3-0.6,0.6-0.6l0,0
					c0.4,0,0.6,0.3,0.6,0.6l0,0v1.5l0.3,0.1l40.2,7.8l34.1-5.2l-0.1-1.7c0-0.4,0.2-0.7,0.6-0.7c0.4,0,0.7,0.2,0.7,0.6l0,0l0.2,2.2
					c0,0.3-0.2,0.6-0.5,0.7L140.3,103.5L140.3,103.5"/>
				<path id="path100" class="st2" d="M140.5,107.4h-0.1l-40.6-8.1c-0.3-0.1-0.5-0.3-0.5-0.6v-3.6c0-0.4,0.3-0.6,0.6-0.6l0,0
					c0.4,0,0.6,0.3,0.6,0.6v3l40,8l33.3-5.9v-2.6c0-0.4,0.3-0.6,0.6-0.6l0,0c0.4,0,0.6,0.3,0.6,0.6v3.2c0,0.3-0.2,0.6-0.5,0.6
					L140.5,107.4C140.6,107.4,140.6,107.4,140.5,107.4"/>
				<path id="path102" class="st2" d="M140.3,103.5L140.3,103.5c-0.4,0-0.7-0.3-0.6-0.7l0,0l0.2-2.6c0-0.4,0.3-0.6,0.7-0.6
					s0.6,0.3,0.6,0.7l0,0l-0.2,2.6C140.9,103.2,140.6,103.5,140.3,103.5"/>
				<path id="path104" class="st2" d="M140.5,107.4c-0.3,0-0.6-0.3-0.6-0.6v-2.2c0-0.4,0.3-0.6,0.6-0.7l0,0c0.3,0,0.6,0.3,0.7,0.6
					l0,0v2.2C141.2,107.1,140.9,107.4,140.5,107.4L140.5,107.4"/>
				<path id="path106" class="st2" d="M122.1,94.7L122.1,94.7c-0.4,0-0.7-0.3-0.6-0.7l0,0l0.1-2.3c0-0.3,0.3-0.6,0.6-0.6l0,0
					c0.4,0,0.6,0.3,0.6,0.7l-0.1,2.3C122.7,94.5,122.4,94.7,122.1,94.7"/>
				<path id="path108" class="st2" d="M121.1,8.1c-0.2,0-0.4-0.1-0.5-0.2c-0.2-0.3-0.2-0.7,0.1-0.9l0,0c0.4-0.3,10-7.6,28.4-3.9
					c0.3,0.1,0.6,0.4,0.5,0.8l0,0c-0.1,0.3-0.4,0.6-0.8,0.5l0,0C131,0.8,121.5,7.9,121.4,8C121.3,8,121.2,8.1,121.1,8.1"/>
				<path id="path110" class="st2" d="M156.2,7.2c-0.2,0-0.3-0.1-0.4-0.2c-1.5-1-3.1-1.7-4.9-2.2c-0.3-0.1-0.5-0.5-0.4-0.8l0,0
					c0.1-0.3,0.5-0.5,0.8-0.4l0,0c0.2,0,3.9,1.2,5.4,2.5c0.3,0.2,0.3,0.6,0,0.9C156.5,7.1,156.4,7.2,156.2,7.2"/>
				<path id="path112" class="st2" d="M139.9,57.3c-0.4,0-0.6-0.3-0.6-0.6l0,0v-4.2c0-0.4,0.3-0.6,0.6-0.6l0,0
					c0.4,0,0.6,0.3,0.6,0.6l0,0v4.2C140.6,57.1,140.3,57.3,139.9,57.3L139.9,57.3"/>
				<path id="path114" class="st2" d="M140.7,45.3h-1.3v-1.6h1.3V45.3"/>
				<path id="path116" class="st2" d="M134.9,43.4c-0.3,0-0.5-0.2-0.6-0.4c-0.1-0.3,0.1-0.7,0.4-0.8c0.2-0.1,4.3-1.5,6.7-0.9
					c0.3,0.1,0.6,0.4,0.5,0.8l0,0c-0.1,0.3-0.4,0.6-0.8,0.5l0,0c-1.7-0.4-4.9,0.5-6,0.9C135,43.4,135,43.4,134.9,43.4"/>
				<path id="path118" class="st2" d="M144.4,43.4c-0.1,0-0.2,0-0.2,0s-0.8-0.3-1.3-0.5c-0.3-0.1-0.5-0.5-0.4-0.8s0.5-0.5,0.8-0.4
					c0.5,0.2,1.3,0.5,1.4,0.5c0.3,0.1,0.5,0.5,0.4,0.8C144.9,43.2,144.7,43.4,144.4,43.4"/>
				<path id="path120" class="st2" d="M153.8,74.1C153.8,74.1,153.7,74.1,153.8,74.1c-13.3-2-27.2-0.1-27.3-0.1
					c-0.3,0-0.7-0.2-0.7-0.5l0,0c0-0.4,0.2-0.7,0.5-0.7c0.1,0,14.2-1.9,27.6,0.1c0.3,0.1,0.6,0.4,0.5,0.7l0,0
					C154.4,73.8,154.1,74.1,153.8,74.1"/>
				<path id="path122" class="st2" d="M139.4,66c-0.5,1.2-0.9,2.5-0.6,3.2c0.1,0.2,0.3,0.4,0.8,0.4c0.5-0.1,0.6-0.3,0.6-0.4
					C140.6,68.5,140,67.1,139.4,66z M139.7,70.8L139.7,70.8c-0.8,0-1.6-0.4-2-1.1c-0.9-1.8,0.9-5,1.1-5.4c0.1-0.2,0.3-0.3,0.5-0.3
					s0.4,0.1,0.5,0.3c0.2,0.4,2.3,3.5,1.6,5.3C141.1,70.3,140.5,70.7,139.7,70.8C139.8,70.8,139.7,70.8,139.7,70.8"/>
				<path id="path124" class="st2" d="M98.6,120.2c-2.8,0-5.1,2.3-5.1,5.1s2.3,5.1,5.1,5.1c2.8,0,5.1-2.3,5.1-5.1
					C103.6,122.5,101.4,120.2,98.6,120.2z M98.6,131.7c-3.6,0-6.4-2.9-6.4-6.4c0-3.6,2.9-6.4,6.4-6.4c3.6,0,6.4,2.9,6.4,6.4
					C105,128.8,102.1,131.7,98.6,131.7"/>
				<path id="path126" class="st2" d="M187.5,120.2c-2.8,0-5.1,2.3-5.1,5.1s2.3,5.1,5.1,5.1s5.1-2.3,5.1-5.1
					C192.5,122.5,190.3,120.2,187.5,120.2z M187.5,131.7c-3.6,0-6.4-2.9-6.4-6.4c0-3.6,2.9-6.4,6.4-6.4c3.6,0,6.4,2.9,6.4,6.4
					C193.9,128.8,191,131.7,187.5,131.7"/>
				<path id="path128" class="st2" d="M21.3,131.7c-0.4,0-0.7-0.3-0.7-0.7v-11.5c0-0.4,0.3-0.7,0.7-0.7c0.4,0,0.7,0.3,0.7,0.7V131
					C22,131.4,21.7,131.7,21.3,131.7"/>
				<path id="path130" class="st2" d="M74.3,131.7c-0.4,0-0.7-0.3-0.7-0.7v-11.5c0-0.4,0.3-0.7,0.7-0.7c0.4,0,0.7,0.3,0.7,0.7V131
					C75,131.4,74.7,131.7,74.3,131.7"/>
				<path id="path132" class="st2" d="M35.1,131.7H16.7c-0.4,0-0.7-0.3-0.7-0.7s0.3-0.7,0.7-0.7h17.7v-2.1c0-0.4,0.3-0.7,0.7-0.7
					s0.7,0.3,0.7,0.7v2.8C35.8,131.4,35.5,131.7,35.1,131.7"/>
				<path id="path134" class="st2" d="M25.9,120.2h-9.2c-0.4,0-0.7-0.3-0.7-0.7c0-0.4,0.3-0.7,0.7-0.7h9.2c0.4,0,0.7,0.3,0.7,0.7
					S26.3,120.2,25.9,120.2"/>
				<path id="path136" class="st2" d="M117.7,131.7h-9.2c-0.4,0-0.7-0.3-0.7-0.7s0.3-0.7,0.7-0.7h9.2c0.4,0,0.7,0.3,0.7,0.7
					S118.1,131.7,117.7,131.7"/>
				<path id="path138" class="st2" d="M43.6,131.7c-0.2,0-0.3-0.1-0.4-0.1c-0.3-0.2-0.3-0.7-0.1-1l9.2-11.5c0.2-0.3,0.7-0.3,1-0.1
					c0.3,0.2,0.3,0.7,0.1,1l-9.2,11.5C44,131.6,43.8,131.7,43.6,131.7"/>
				<path id="path140" class="st2" d="M62,131.7c-0.2,0-0.4-0.1-0.5-0.3l-9.2-11.5c-0.2-0.3-0.2-0.7,0.1-1l0,0
					c0.3-0.2,0.7-0.2,1,0.1l0,0l9.2,11.5c0.2,0.3,0.2,0.7-0.1,1C62.3,131.7,62.1,131.7,62,131.7"/>
				<path id="path142" class="st2" d="M48.2,131.7H39c-0.4,0-0.7-0.3-0.7-0.7s0.3-0.7,0.7-0.7h9.2c0.4,0,0.7,0.3,0.7,0.7
					S48.6,131.7,48.2,131.7"/>
				<path id="path144" class="st2" d="M52.8,120.2h-9.2c-0.4,0-0.7-0.3-0.7-0.7c0-0.4,0.3-0.7,0.7-0.7h9.2c0.4,0,0.7,0.3,0.7,0.7
					C53.5,119.9,53.2,120.2,52.8,120.2"/>
				<path id="path146" class="st2" d="M247.4,120.2h-9.2c-0.4,0-0.7-0.3-0.7-0.7c0-0.4,0.3-0.7,0.7-0.7h9.2c0.4,0,0.7,0.3,0.7,0.7
					S247.7,120.2,247.4,120.2"/>
				<path id="path148" class="st2" d="M66.6,131.7h-9.2c-0.4,0-0.7-0.3-0.7-0.7s0.3-0.7,0.7-0.7h9.2c0.4,0,0.7,0.3,0.7,0.7
					S67,131.7,66.6,131.7"/>
				<path id="path150" class="st2" d="M57.4,126h-9.2c-0.4,0-0.7-0.3-0.7-0.7s0.3-0.7,0.7-0.7h9.2c0.4,0,0.7,0.3,0.7,0.7
					S57.8,126,57.4,126"/>
				<path id="path152" class="st2" d="M137.2,131.7c-0.2,0-0.3-0.1-0.4-0.1c-0.3-0.2-0.3-0.7-0.1-1l9.2-11.5c0.2-0.3,0.7-0.3,1-0.1
					c0.3,0.2,0.3,0.7,0.1,1l0,0l-9.2,11.5C137.6,131.6,137.4,131.7,137.2,131.7"/>
				<path id="path154" class="st2" d="M155.5,131.7c-0.2,0-0.4-0.1-0.5-0.3l-9.2-11.5c-0.2-0.3-0.2-0.7,0.1-1l0,0
					c0.3-0.2,0.7-0.2,1,0.1l0,0l9.2,11.5c0.2,0.3,0.2,0.7-0.1,1l0,0C155.9,131.7,155.7,131.7,155.5,131.7"/>
				<path id="path156" class="st2" d="M141.8,131.7h-9.2c-0.4,0-0.7-0.3-0.7-0.7s0.3-0.7,0.7-0.7h9.2c0.4,0,0.7,0.3,0.7,0.7
					S142.1,131.7,141.8,131.7"/>
				<path id="path158" class="st2" d="M146.4,120.2h-9.2c-0.4,0-0.7-0.3-0.7-0.7s0.3-0.7,0.7-0.7h9.2c0.4,0,0.7,0.3,0.7,0.7
					C147,119.9,146.7,120.2,146.4,120.2"/>
				<path id="path160" class="st2" d="M160.1,131.7h-9.2c-0.4,0-0.7-0.3-0.7-0.7s0.3-0.7,0.7-0.7h9.2c0.4,0,0.7,0.3,0.7,0.7
					S160.5,131.7,160.1,131.7"/>
				<path id="path162" class="st2" d="M150.9,126h-9.2c-0.4,0-0.7-0.3-0.7-0.7s0.3-0.7,0.7-0.7h9.2c0.4,0,0.7,0.3,0.7,0.7
					C151.6,125.7,151.3,126,150.9,126"/>
				<path id="path164" class="st2" d="M238.2,131.7c-0.2,0-0.3-0.1-0.4-0.1c-0.3-0.2-0.3-0.7-0.1-1l9.2-11.5c0.2-0.3,0.7-0.3,1-0.1
					c0.3,0.2,0.3,0.7,0.1,1l-9.2,11.5C238.6,131.6,238.4,131.7,238.2,131.7"/>
				<path id="path166" class="st2" d="M256.5,131.7c-0.2,0-0.4-0.1-0.5-0.3l-9.2-11.5c-0.2-0.3-0.2-0.7,0.1-1c0.3-0.2,0.7-0.2,1,0.1
					l0,0l9.2,11.5c0.2,0.3,0.2,0.7-0.1,1C256.8,131.7,256.7,131.7,256.5,131.7"/>
				<path id="path168" class="st2" d="M242.8,131.7h-9.2c-0.4,0-0.7-0.3-0.7-0.7s0.3-0.7,0.7-0.7h9.2c0.4,0,0.7,0.3,0.7,0.7
					S243.1,131.7,242.8,131.7"/>
				<path id="path170" class="st2" d="M261.1,131.7h-9.2c-0.4,0-0.7-0.3-0.7-0.7s0.3-0.7,0.7-0.7h9.2c0.4,0,0.7,0.3,0.7,0.7
					S261.5,131.7,261.1,131.7"/>
				<path id="path172" class="st2" d="M251.9,126h-9.2c-0.4,0-0.7-0.3-0.7-0.7c0-0.4,0.3-0.7,0.7-0.7h9.2c0.4,0,0.7,0.3,0.7,0.7
					S252.3,126,251.9,126"/>
				<path id="path174" class="st2" d="M84.3,131.7H69.8c-0.4,0-0.7-0.3-0.7-0.7s0.3-0.7,0.7-0.7h14.6c1.9,0,3.1-0.8,3.1-2.2
					s-1.2-2.2-3.1-2.2c-0.4,0-0.7-0.3-0.7-0.7s0.3-0.7,0.7-0.7c1.9,0,3.1-0.8,3.1-2.2s-1.2-2.2-3.1-2.2H69.8c-0.4,0-0.7-0.3-0.7-0.7
					c0-0.4,0.3-0.7,0.7-0.7h14.6c3.1,0,4.5,1.8,4.5,3.6c0,1.2-0.6,2.3-1.7,2.9c1,0.6,1.7,1.7,1.7,2.9
					C88.8,129.9,87.4,131.7,84.3,131.7"/>
				<path id="path176" class="st2" d="M113.1,131.7c-0.4,0-0.7-0.3-0.7-0.7v-11.5c0-0.4,0.3-0.7,0.7-0.7c0.4,0,0.7,0.3,0.7,0.7V131
					C113.8,131.4,113.5,131.7,113.1,131.7"/>
				<path id="path178" class="st2" d="M173.2,131.7H164c-0.4,0-0.7-0.3-0.7-0.7s0.3-0.7,0.7-0.7h9.2c0.4,0,0.7,0.3,0.7,0.7
					S173.6,131.7,173.2,131.7"/>
				<path id="path180" class="st2" d="M177.8,123.1c-0.4,0-0.7-0.3-0.7-0.7v-2.3h-17v2.3c0,0.4-0.3,0.7-0.7,0.7s-0.7-0.3-0.7-0.7
					v-2.9c0-0.4,0.3-0.7,0.7-0.7h18.4c0.4,0,0.7,0.3,0.7,0.7v2.9C178.5,122.8,178.2,123.1,177.8,123.1"/>
				<path id="path182" class="st2" d="M168.6,131.7c-0.4,0-0.7-0.3-0.7-0.7v-11.5c0-0.4,0.3-0.7,0.7-0.7s0.7,0.3,0.7,0.7V131
					C169.3,131.4,169,131.7,168.6,131.7"/>
				<path id="path184" class="st2" d="M229.7,131.7h-9.2c-0.4,0-0.7-0.3-0.7-0.7s0.3-0.7,0.7-0.7h9.2c0.4,0,0.7,0.3,0.7,0.7
					S230.1,131.7,229.7,131.7"/>
				<path id="path186" class="st2" d="M229.7,120.2h-9.2c-0.4,0-0.7-0.3-0.7-0.7s0.3-0.7,0.7-0.7h9.2c0.4,0,0.7,0.3,0.7,0.7
					C230.4,119.9,230.1,120.2,229.7,120.2"/>
				<path id="path188" class="st2" d="M225.1,131.7c-0.4,0-0.7-0.3-0.7-0.7v-11.5c0-0.4,0.3-0.7,0.7-0.7s0.7,0.3,0.7,0.7V131
					C225.8,131.4,225.5,131.7,225.1,131.7"/>
				<path id="path190" class="st2" d="M123.1,126h-10c-0.4,0-0.7-0.3-0.7-0.7s0.3-0.7,0.7-0.7h10c1.9,0,3.1-0.8,3.1-2.2
					s-1.2-2.2-3.1-2.2h-14.6c-0.4,0-0.7-0.3-0.7-0.7c0-0.4,0.3-0.7,0.7-0.7h14.6c3.1,0,4.5,1.8,4.5,3.6S126.2,126,123.1,126"/>
				<path id="path192" class="st2" d="M84.3,126h-10c-0.4,0-0.7-0.3-0.7-0.7s0.3-0.7,0.7-0.7h10c0.4,0,0.7,0.3,0.7,0.7
					S84.7,126,84.3,126"/>
				<path id="path194" class="st2" d="M204.8,131.7h-9.2c-0.4,0-0.7-0.3-0.7-0.7s0.3-0.7,0.7-0.7h9.2c0.4,0,0.7,0.3,0.7,0.7l0,0
					C205.4,131.4,205.1,131.7,204.8,131.7L204.8,131.7"/>
				<path id="path196" class="st2" d="M200.2,131.7c-0.4,0-0.7-0.3-0.7-0.7v-11.5c0-0.4,0.3-0.7,0.7-0.7s0.7,0.3,0.7,0.7V131
					C200.8,131.4,200.5,131.7,200.2,131.7"/>
				<path id="path198" class="st2" d="M210.1,126h-10c-0.4,0-0.7-0.3-0.7-0.7s0.3-0.7,0.7-0.7h10c1.9,0,3.1-0.8,3.1-2.2
					s-1.2-2.2-3.1-2.2h-14.6c-0.4,0-0.7-0.3-0.7-0.7s0.3-0.7,0.7-0.7h14.6c3.1,0,4.5,1.8,4.5,3.6S213.2,126,210.1,126"/>
				<path id="path200" class="st2" d="M126.4,131.8c-3.5,0-6.4-2.9-6.4-6.4c0-0.4,0.3-0.7,0.7-0.7s0.7,0.3,0.7,0.7c0,2.8,2.2,5,5,5
					c1.6,0,2.8-1.3,2.8-2.8c0-0.4,0.3-0.7,0.7-0.7s0.7,0.3,0.7,0.7C130.6,129.9,128.7,131.8,126.4,131.8"/>
				<path id="path202" class="st2" d="M213.4,131.8c-3.5,0-6.4-2.9-6.4-6.4c0-0.4,0.3-0.7,0.7-0.7s0.7,0.3,0.7,0.7l0,0
					c0,2.8,2.2,5,5,5c1.6,0,2.8-1.3,2.8-2.8c0-0.4,0.3-0.7,0.7-0.7s0.7,0.3,0.7,0.7C217.6,129.9,215.8,131.8,213.4,131.8"/>
				<path id="path204" class="st2" d="M119.6,175.4c-0.9,0-1.8-0.3-2.5-0.7c-0.3-0.2-0.4-0.6-0.2-0.9c0.2-0.3,0.6-0.4,0.9-0.2
					c3.3,1.9,6.1-2,7-3.3c1.3-1.7,4.8-6.3,8.2-10.7c3.3-4.3,6.7-8.7,7.9-10.4c2.9-4,5.2-6.5,7.3-6.5c1.1-0.1,2.1,0.6,2.4,1.7
					c0.3,1.6-0.6,3.2-2.1,3.9c-0.3,0.2-0.7,0.1-0.9-0.3l0,0c-0.2-0.3-0.1-0.7,0.3-0.9l0,0c1-0.4,1.5-1.4,1.5-2.4
					c-0.2-0.5-0.6-0.8-1.1-0.7c-1.7,0-4.1,3-6.2,5.9c-1.2,1.7-4.6,6.1-7.9,10.4c-3.4,4.4-6.9,9-8.1,10.7
					C123.8,173.9,121.7,175.4,119.6,175.4"/>
				<path id="path206" class="st2" d="M155.6,151.4c-1.7,0.2-3.2,0.9-4.5,1.9c-1.7,1.3-3.4,3.3-3.5,5.1c0,0.1,0,0.2,0,0.3
					c1.6-0.6,3.1-1.3,4.5-2.1c2.6-1.5,4.6-3.4,4.6-4.4c0-0.2-0.1-0.3-0.2-0.4C156.2,151.5,155.9,151.4,155.6,151.4L155.6,151.4z
					 M165.9,151.5L165.9,151.5c-1.6,0.1-4,1.5-5.6,3.3c-1.2,1.3-2.3,3.5-2.1,4.9c1.7-0.8,3.3-1.8,4.7-2.9l0.2-0.2
					c2.6-2,3.9-3.4,3.9-4.3c0-0.2-0.1-0.3-0.2-0.5C166.7,151.6,166.3,151.5,165.9,151.5L165.9,151.5z M161.1,162.5H161
					c-1.2,0.1-2.5-0.3-3.5-1c-2,0.7-4,1-6.1,1c-1.6,0-3.4-0.1-4.4-1.2c-0.2-0.2-0.4-0.5-0.5-0.8c-6.1,1.9-11.5,1.2-13.7-0.4
					c-0.9-0.6-1.4-1.7-1.2-2.8c0.1-0.4,0.5-0.6,0.8-0.5l0,0c0.4,0.1,0.6,0.5,0.5,0.8l0,0c0,0.2-0.2,0.7,0.7,1.3
					c2,1.4,7,1.9,12.6,0.2c0-0.3,0-0.5,0-0.8c0.2-2.3,2.2-4.6,4.1-6.1c1.2-0.9,5-3.1,7-1.7c0.5,0.4,0.8,1,0.8,1.6
					c-0.1,2.4-4.4,5-5.3,5.6c-1.6,0.9-3.2,1.7-4.9,2.3c0.1,0.1,0.1,0.2,0.2,0.3c0.5,0.6,1.6,0.8,3.4,0.8c1.8,0,3.7-0.3,5.4-0.8
					c-0.5-2,1-4.8,2.4-6.3c1.6-1.8,4.3-3.7,6.5-3.8c0.8-0.1,1.5,0.2,2.1,0.7c0.4,0.4,0.6,1,0.6,1.5c-0.1,1.8-2.3,3.7-4.5,5.3
					l-0.2,0.2c-1.4,1.2-3,2.1-4.6,2.9c0.6,0.2,1.2,0.3,1.9,0.3c3.5-0.1,6.8-1.5,9.2-4.1c0.3-0.3,0.7-0.3,1,0s0.3,0.7,0,1
					C168.6,160.7,165,162.4,161.1,162.5"/>
				<path id="path208" class="st2" d="M117.8,151.7c-1.1,0.1-2.2,0.6-3.2,1.2c0.7,0,1.4-0.2,2.1-0.4c0.6-0.1,1.1-0.4,1.5-0.8
					C118.1,151.7,118,151.7,117.8,151.7z M112.3,162.5c-0.4,0-0.9,0-1.3-0.1c-1.3-0.1-2.3-1-2.7-2.2c-0.5-2,1.1-4.5,3-6.4
					c-0.9-0.3-1.8-0.7-2.6-1.2c-2.3-1.5-2.1-3.2-1.8-3.8c0.4-1.1,1.4-1.8,2.6-1.8c0.4,0,0.7,0.4,0.6,0.7l0,0c0,0.4-0.4,0.7-0.7,0.6
					c-0.5,0-1,0.4-1.2,0.9c-0.2,0.7,0.2,1.5,1.3,2.2c0.9,0.6,2,1,3,1.3l0,0c0.8-0.7,4.4-3.2,6.5-2.1c0.4,0.2,0.7,0.6,0.7,1.1
					c0,0.6-0.5,1.2-1.3,1.7c-1.7,0.8-3.6,1.1-5.5,0.9c-2.3,2.1-3.6,4.4-3.3,5.7c0.1,0.2,0.2,0.9,1.6,1.2c3.4,0.7,8.3-2.7,9.8-4.8
					c0.2-0.3,0.7-0.4,1-0.2s0.4,0.7,0.2,1l0,0C120.7,159.2,116.2,162.5,112.3,162.5"/>
				<path id="path210" class="st2" d="M129.5,151.2c-0.1,0-0.2,0-0.3,0.1c-0.3,0.1-0.5,0.3-0.5,0.6c0,0.2,0.3,0.4,0.7,0.5
					c0.6,0.1,1.1,0.2,1.7,0.2c0-0.2-0.1-0.4-0.2-0.5C130.6,151.6,130.1,151.3,129.5,151.2L129.5,151.2z M122.6,162.1h-0.2
					c-0.8,0-1.5-0.3-2-0.8c-0.5-0.7-0.7-1.5-0.5-2.3c0.8-3,2.8-5.6,5.4-7.3c0.3-0.2,0.7-0.1,0.9,0.3l0,0c0.2,0.3,0.1,0.7-0.3,0.9
					l0,0c-2.3,1.5-4,3.7-4.8,6.4c-0.1,0.4-0.1,0.8,0.1,1.2c0.3,0.3,0.7,0.4,1.1,0.4c2.3-0.2,4.5-1.2,6.1-2.9
					c1.1-1.1,1.9-2.4,2.4-3.8c-0.6,0-1.3-0.1-1.9-0.3c-0.9-0.1-1.6-0.8-1.8-1.7c0-0.9,0.5-1.7,1.4-2c1.2-0.4,2.6,0.1,3.3,1.2
					c0.3,0.4,0.5,0.9,0.5,1.4c3.2-0.1,8.5-1.1,15.3-5.6c0.3-0.2,0.7-0.1,0.9,0.2s0.1,0.7-0.2,0.9l0,0c-7.1,4.7-12.7,5.7-16.2,5.8
					c-0.5,1.8-1.5,3.5-2.8,4.8C127.7,160.7,125.3,161.9,122.6,162.1"/>
				<path id="path212" class="st2" d="M154.5,143.9c-1.7,0-4.1,3-6.2,5.9l-0.3,0.4c2.1-0.8,4.1-1.9,5.9-3.3c1.2-1,1.7-2,1.5-2.6
					C155.4,144,154.9,143.9,154.5,143.9L154.5,143.9z M125.8,175.4c-1.3,0-2.6-0.6-3.4-1.7c-0.2-0.3-0.2-0.7,0.1-1l0,0
					c0.3-0.2,0.7-0.2,1,0.1l0,0c0.6,0.8,1.5,1.2,2.5,1.2c1.6-0.1,3.5-1.5,5.2-3.8c1.3-1.7,4.8-6.3,8.2-10.7c2.1-2.7,4.1-5.4,6.2-8.1
					l0,0c0.7-1,1.3-1.8,1.7-2.3c2.9-4,5.2-6.5,7.3-6.5c1-0.1,1.9,0.4,2.3,1.3c0.4,1.2-0.4,2.8-2,4.1c-2.4,1.8-5.1,3.2-8,4.2
					l-0.3,0.1c-1.6,2.1-3.9,5.1-6.1,8c-3.4,4.4-6.9,9-8.1,10.7c-2,2.7-4.2,4.3-6.2,4.4H125.8"/>
				<path id="path214" class="st2" d="M139.2,199.5c-0.1,0-0.1,0-0.2,0L0.5,153.3c-0.3-0.1-0.5-0.4-0.5-0.6v-55
					c0-0.3,0.2-0.6,0.5-0.6L111.4,60c0.4-0.1,0.7,0.1,0.9,0.4c0.1,0.4-0.1,0.7-0.4,0.9l0,0L1.4,98.1v54.1l137.8,46l137.8-46V98.1
					l-110.4-37c-0.4-0.1-0.6-0.5-0.4-0.9c0.1-0.4,0.5-0.6,0.9-0.4L278,96.9c0.3,0.1,0.5,0.4,0.5,0.6v55c0,0.3-0.2,0.6-0.5,0.6
					l-138.5,46.2C139.3,199.5,139.3,199.5,139.2,199.5"/>
			</g>
		</g>
	</g>
	<g id="Слой_2_1_">
		<path class="st3" d="M228.2,135.5l-10.9,37l-21.5-5.9L228.2,135.5z"/>
		<path class="st3" d="M195.8,166.6l20.7-28.4l11.7-2.7L195.8,166.6z"/>
		<path class="st4" d="M212.1,107.6l16.1,27.9l-11.7,2.7L212.1,107.6z M212.1,107.6l10.4-7.2l5.7,35L212.1,107.6z"/>
		<path class="st5" d="M198.9,86.6l29.8-12.2l-1.5,6.7L198.9,86.6z M226.2,89.1l-27.3-2.5l28.3-5.5L226.2,89.1z"/>
		<path class="st5" d="M226.2,89.1l-3.8,11.4l-23.5-13.9L226.2,89.1z M232.2,77.2l-5,3.9l1.5-6.7L232.2,77.2z M226.2,89.1l0.9-8
			l4,3.3L226.2,89.1z"/>
		<path class="st6" d="M172.7,157.6l7.4,2.4l15.6,6.6L172.7,157.6z"/>
		<path class="st5" d="M222.4,100.4l3.8-11.4l3.3,2.5L222.4,100.4z M222.4,100.4l-30.9-10.2l7.3-3.7L222.4,100.4z"/>
		<path class="st5" d="M206.2,51.6l-7.3,34.9l-7.3,3.7L206.2,51.6z"/>
		<path class="st5" d="M228.6,74.4l-29.8,12.2l7.3-34.9L228.6,74.4z"/>
		<path class="st5" d="M206.2,51.6l31.1-3.6l-8.6,26.3L206.2,51.6z"/>
		<path class="st4" d="M222.4,100.4l-10.4,7.2l-20.5-17.3L222.4,100.4z"/>
		<path class="st5" d="M236,22.9l1.3,25.1l-31.1,3.6L236,22.9z"/>
		<path class="st6" d="M236,22.9L173.9,68l-0.8-30.6L236,22.9z"/>
		<path class="st4" d="M126.9,33.8l46.2,3.7l0.8,30.6L126.9,33.8z"/>
		<path class="st5" d="M191.5,90.3L173.9,68l32.4-16.4L191.5,90.3z"/>
		<path class="st3" d="M191.5,90.3l20.5,17.3l-28.8,3.2L191.5,90.3z"/>
		<path class="st3" d="M183.2,110.8L173.9,68l17.7,22.2L183.2,110.8z"/>
		<path class="st5" d="M206.2,51.6L173.9,68L236,22.9L206.2,51.6z"/>
		<path class="st7" d="M127.3,165.9l14.7,15.3L122,163L127.3,165.9z"/>
		<path class="st8" d="M195.8,166.6l6.9-26.4l13.8-2L195.8,166.6z"/>
		<path class="st6" d="M67.9,92.3l25.4-26.7L71.2,89.2L67.9,92.3z"/>
		<path class="st4" d="M216.5,138.2l-13.8,2l9.4-32.6L216.5,138.2z M173.9,68l-24.7-0.8l-22.3-33.5L173.9,68z"/>
		<path class="st9" d="M212.1,107.6l-9.4,32.6l-0.8-15.9L212.1,107.6z"/>
		<path class="st8" d="M183.2,110.8l28.8-3.2l-10.1,16.7L183.2,110.8z"/>
		<path class="st4" d="M149.2,67.2l24.7,0.8l9.4,42.8L149.2,67.2z"/>
		<path class="st3" d="M149.2,67.2L82.5,5.6l44.4,28.2L149.2,67.2z M126.9,175.2l-57.9,18L57.4,149L126.9,175.2z"/>
		<path class="st5" d="M76.5,103.4l21.9-17.2l18.3,4.3L76.5,103.4z"/>
		<path class="st5" d="M116.7,90.5l-18.3-4.3l9.8-40.5L116.7,90.5z"/>
		<path class="st5" d="M71.2,89.2l27.2-3l-21.9,17.2L71.2,89.2z"/>
		<path class="st8" d="M201.9,124.3l-11.3-5.7l-7.4-7.8L201.9,124.3z"/>
		<path class="st5" d="M71.2,89.2l-2-10.2l29.1,7.2L71.2,89.2z"/>
		<path class="st10" d="M188.3,131.4l2.3-12.8l11.3,5.7L188.3,131.4z"/>
		<path class="st4" d="M202.7,140.2l-14.4-8.8l13.6-7.1L202.7,140.2z"/>
		<path class="st5" d="M98.4,86.2L69.2,79l-2.4-8.6L98.4,86.2z M108.2,45.7l-9.8,40.5L66.9,70.4L108.2,45.7z M108.2,45.7l41,21.6
			l-32.5,23.2L108.2,45.7z"/>
		<path class="st3" d="M116.7,90.5l32.5-23.2l14.5,44.2L116.7,90.5z M163.7,111.5l-44.9-0.9l-2.1-20.1L163.7,111.5z"/>
		<path class="st4" d="M76.5,103.4l40.2-12.9l2.1,20.1L76.5,103.4z M183.2,110.8l-19.6,0.7l-14.5-44.2L183.2,110.8z"/>
		<path class="st8" d="M190.6,118.6l-2.3,12.8l-5.1-20.6L190.6,118.6z"/>
		<path class="st5" d="M82.5,5.6l66.6,61.7l-41-21.6L82.5,5.6z"/>
		<path class="st3" d="M57.4,149l56.2-2.3l13.3,28.5L57.4,149z"/>
		<path class="st8" d="M126.9,175.2l-13.3-28.5l27.6-1.3L126.9,175.2z"/>
		<path class="st4" d="M188.3,131.4l14.4,8.8l7.9,18.7L188.3,131.4z M118.8,110.5L57.4,149l19.1-45.7L118.8,110.5z M113.6,146.7
			L57.4,149l61.4-38.5L113.6,146.7z M183.2,110.8l3.7,13.4l-17.7,1L183.2,110.8z M169.2,125.2l-5.5-13.7l19.6-0.7L169.2,125.2z"/>
		<path class="st7" d="M142,181.2l-15.1-5.9l52.5,8.8L142,181.2z"/>
		<path class="st5" d="M76.5,103.4l-8.6-11l3.3-3.2L76.5,103.4z"/>
		<path class="st11" d="M185.4,177.5l-6,6.5l-52.5-8.8L185.4,177.5z"/>
		<path class="st3" d="M188.2,161.5l-61.3,13.8l14.3-29.9L188.2,161.5z"/>
		<path class="st11" d="M126.9,175.2l61.3-13.8l-2.8,16L126.9,175.2z"/>
		<path class="st5" d="M66.9,70.4l-2-34.5l43.3,9.7L66.9,70.4z M71.2,89.2l-6-6.1l4-4.1L71.2,89.2z"/>
		<path class="st8" d="M153.6,120.3l10-8.9l-1.4,21.7L153.6,120.3z"/>
		<path class="st8" d="M163.7,111.5l-10,8.9l-14.6,7.6L163.7,111.5z"/>
		<path class="st4" d="M210.6,158.9l-2.7-2l-19.6-25.5L210.6,158.9z"/>
		<path class="st8" d="M139,127.9l-20.3-17.4l44.9,0.9L139,127.9z"/>
		<path class="st9" d="M162.2,133.2l1.4-21.7l5.5,13.7L162.2,133.2z"/>
		<path class="st5" d="M63.2,73.8l3.6-3.4l2.4,8.6L63.2,73.8z"/>
		<path class="st10" d="M162.2,133.2L139,128l14.6-7.6L162.2,133.2z"/>
		<path class="st5" d="M108.2,45.7L64.8,36L82.5,5.6L108.2,45.7z"/>
		<path class="st7" d="M179.4,184.1l2.5,6.7l-39.9-9.6L179.4,184.1z"/>
		<path class="st4" d="M141.2,145.4L139,128l23.2,5.2L141.2,145.4z"/>
		<path class="st9" d="M118.8,110.5l20.3,17.4l2.2,17.4L118.8,110.5z"/>
		<path class="st4" d="M169.2,125.2l17.7-1l21,32.7L169.2,125.2z M118.8,110.5l22.5,34.8l-27.6,1.3L118.8,110.5z"/>
		<path class="st9" d="M169.2,125.2l22,33.6l-29-25.6L169.2,125.2z"/>
		<path class="st4" d="M162.2,133.2l29,25.6l-3,2.7L162.2,133.2z"/>
		<path class="st4" d="M188.2,161.5l-47-16.1l21-12.2L188.2,161.5z M207.9,156.9l-16.7,1.9l-22-33.6L207.9,156.9z"/>
		<path class="st7" d="M212.3,172.6l-7.2,14.4l-23.3,3.8L212.3,172.6z M181.9,190.8l-2.5-6.7l6-6.5L181.9,190.8z"/>
		<path class="st7" d="M185.4,177.5l4.4-1.7l-7.9,15L185.4,177.5z M181.9,190.8l7.9-15l22.5-3.1L181.9,190.8z"/>
		<path class="st12" d="M207.9,156.9l5.5,3.4l-16.8,2L207.9,156.9z"/>
		<path class="st12" d="M196.6,162.3l-5.4-3.5l16.7-1.9L196.6,162.3z M194.7,164.9l20.4-2.5l-2.8,10.2L194.7,164.9z"/>
		<path class="st12" d="M212.3,172.6l-22.5,3.1l5-10.9L212.3,172.6z M189.7,175.8l-4.4,1.7l2.8-16L189.7,175.8z M188.2,161.5l3-2.7
			l5.4,3.5L188.2,161.5z M213.4,160.2l1.7,2.2l-20.4,2.5L213.4,160.2z"/>
		<path class="st12" d="M194.7,164.9l1.9-2.6l16.8-2L194.7,164.9z M188.2,161.5l6.5,3.4l-5,10.9L188.2,161.5z"/>
		<path class="st12" d="M196.6,162.3l-1.9,2.6l-6.5-3.4L196.6,162.3z"/>
	</g>
	<g id="Слой_3">
		
			<image style="display:inline;overflow:visible;enable-background:new    ;" width="805" height="805" xlink:href="925D6F8C.jpg"  transform="matrix(0.2487 0 0 0.2487 34.8803 1.4303)">
		</image>
		<path class="st13" d="M180.6,71.7l-0.3-1l-3.6-10.3c-0.2-0.6-0.7-0.8-2.2-1.1l-27.4,10.2h-11.6l0,0H135h-0.5l0,0h-11.6L95.4,59.4
			c-1.5,0.3-2,0.5-2.2,1.1l-3.6,10.3l-0.3,1V73l6.5,28.8c0,0.1,0,0.2,0,0.3l-5.7,17.7v1.5l5.3,17.7l2.2,0.8l17.4-4.9
			c0.5-0.1,1,0,1.4,0.3l11.4,8.2h6.6h1.1h6.6l11.4-8.2c0.4-0.3,0.9-0.4,1.4-0.3l17.4,4.9l2.2-0.8l5.3-17.7v-1.5l-5.7-17.7
			c0-0.1,0-0.2,0-0.3l6.5-28.8V71.7z M127.1,114.6l-0.3,0.3c-0.2,0.2-0.4,0.2-0.6,0.2l-7-2.1c-0.3-0.1-0.4-0.3-0.4-0.6V112
			c0-0.3,0.2-0.5,0.4-0.6l5-2.2c0.4-0.2,0.8,0,1,0.4l2.1,4.4C127.3,114.2,127.3,114.4,127.1,114.6z M127.4,84.5l-11.1,9.2l-17,4.3
			c-0.2,0.1-0.5-0.1-0.5-0.3l-6.3-23.3c0-0.2,0-0.3,0-0.5l3.9-10.6c0.1-0.3,0.4-0.4,0.7-0.2l30.3,20.7
			C127.7,83.9,127.7,84.3,127.4,84.5z M141.5,134.9h-6h-1.1h-6l-0.6-0.4l0.6-5.5c0-0.2,0.2-0.4,0.4-0.5l1.7-0.8
			c0.1-0.1,0.3-0.1,0.4-0.1h3.6l0,0h0.5h0.5l0,0h3.6c0.1,0,0.3,0,0.4,0.1l1.7,0.8c0.2,0.1,0.3,0.3,0.4,0.5l0.6,5.5L141.5,134.9z
			 M151.2,112.4c0,0.3-0.2,0.5-0.4,0.6l-7,2.1c-0.2,0.1-0.5,0-0.6-0.2l-0.3-0.3c-0.2-0.2-0.2-0.4-0.1-0.6l2.1-4.4
			c0.2-0.4,0.6-0.5,1-0.4l5,2.2c0.2,0.1,0.4,0.3,0.4,0.6L151.2,112.4L151.2,112.4z M177.4,74.4l-6.3,23.3c-0.1,0.2-0.3,0.4-0.5,0.3
			l-17.1-4.3l-11.1-9.2c-0.3-0.2-0.3-0.7,0-0.9L172.9,63c0.2-0.2,0.6-0.1,0.7,0.2l3.9,10.6C177.4,74,177.4,74.2,177.4,74.4z"/>
	</g>
	<g id="Слой_4">
		<path class="st14" d="M233.5,39.4l-0.6-1.9l-7.4-20.8c-0.4-1.2-1.3-1.7-4.5-2.2l-55.6,20.8h-23.6l0,0h-1.1h-1.1l0,0H116l-55.7-21
			c-3.1,0.5-4.1,1-4.5,2.2l-7.4,20.8l-0.6,1.9v2.6L61,100.3c0,0.2,0,0.4,0,0.6L49.5,137v3.1L60.4,176l4.4,1.7l35.3-9.9
			c1-0.3,2.1-0.1,2.9,0.5l23.2,16.7h13.4h2.2h13.4l23.2-16.7c0.8-0.6,1.9-0.8,2.9-0.5l35.3,9.9l4.4-1.7l10.8-35.9V137l-11.5-36
			c-0.1-0.2-0.1-0.4,0-0.6l13.2-58.5V39.4z M124.8,126.5l-0.7,0.7c-0.3,0.3-0.8,0.5-1.3,0.3l-14.2-4.2c-0.5-0.2-0.9-0.6-0.9-1.2
			v-0.8c0-0.5,0.3-1,0.8-1.2l10.2-4.5c0.8-0.3,1.6,0,2,0.7l4.3,9C125.2,125.7,125.1,126.2,124.8,126.5z M125.4,65.5l-22.5,18.6
			l-34.7,8.7c-0.5,0.1-1-0.2-1.1-0.6L54.4,44.8c-0.1-0.3-0.1-0.7,0-1l7.8-21.6c0.2-0.6,0.9-0.8,1.4-0.4l61.7,42
			C125.9,64.1,126,65,125.4,65.5z M154,167.9h-12.2h-2.2h-12.2l-1.3-0.8l1.2-11.2c0-0.5,0.3-0.9,0.8-1.1l3.4-1.6
			c0.3-0.1,0.5-0.2,0.8-0.2l7.3,0.1l0,0h1.1h1.1l0,0l7.3-0.1c0.3,0,0.6,0.1,0.8,0.2l3.4,1.6c0.4,0.2,0.7,0.6,0.8,1.1l1.2,11.2
			L154,167.9z M173.6,122.2c0,0.5-0.4,1-0.9,1.2l-14.2,4.2c-0.5,0.1-1,0-1.3-0.3l-0.7-0.7c-0.3-0.3-0.4-0.8-0.2-1.2l4.3-9
			c0.4-0.8,1.2-1.1,2-0.7l10.2,4.5c0.5,0.2,0.8,0.7,0.8,1.2L173.6,122.2L173.6,122.2z M227,44.8l-12.7,47.4
			c-0.1,0.5-0.6,0.8-1.1,0.6l-34.7-8.7L156,65.5c-0.6-0.5-0.5-1.4,0.1-1.8l61.7-42c0.5-0.3,1.2-0.1,1.4,0.4l7.8,21.6
			C227.1,44.1,227.1,44.4,227,44.8z"/>
	</g>
	<g id="Слой_5" class="st1">
		<g class="st15">
			<g>
				<path class="st2" d="M14.5,147.4v-41.7H28c5.1,0,8.5,0.2,10,0.6c2.4,0.6,4.4,2,6,4.1s2.4,4.8,2.4,8.1c0,2.6-0.5,4.7-1.4,6.5
					c-0.9,1.7-2.1,3.1-3.5,4.1s-2.9,1.7-4.4,2c-2,0.4-4.9,0.6-8.7,0.6h-5.5v15.7H14.5L14.5,147.4z M22.9,112.7v11.8h4.6
					c3.3,0,5.5-0.2,6.7-0.7c1.1-0.4,2-1.1,2.6-2s1-2,1-3.2c0-1.5-0.4-2.8-1.3-3.8c-0.9-1-2-1.6-3.4-1.8c-1-0.2-3-0.3-6.1-0.3
					C27,112.7,22.9,112.7,22.9,112.7z"/>
				<path class="st2" d="M86.7,147.4h-9.2l-3.6-9.5H57.2l-3.4,9.5h-8.9L61,105.6h9L86.7,147.4z M71.1,130.8l-5.7-15.5l-5.6,15.5
					H71.1z"/>
				<path class="st2" d="M96.8,147.4v-17.6l-15.3-24.2h9.9l9.8,16.5l9.6-16.5h9.7l-15.3,24.2v17.5h-8.4V147.4z"/>
			</g>
			<g>
				<path class="st2" d="M124.6,147.4v-41.7h30.9v7.1H133v9.2h21v7h-20.9v11.4h23.3v7H124.6L124.6,147.4z"/>
				<path class="st2" d="M163.5,147.4v-41.7h30.9v7.1h-22.5v9.2h20.9v7h-20.9v11.4h23.3v7H163.5L163.5,147.4z"/>
				<path class="st2" d="M202.4,147.4v-41.7h17.7c4.5,0,7.7,0.4,9.7,1.1s3.6,2.1,4.9,4c1.2,1.9,1.8,4.1,1.8,6.6
					c0,3.1-0.9,5.7-2.8,7.8c-1.8,2-4.6,3.3-8.3,3.9c1.8,1.1,3.3,2.2,4.5,3.5s2.8,3.5,4.8,6.8l5.1,8.1h-10.1l-6.1-9.1
					c-2.2-3.2-3.6-5.3-4.4-6.1c-0.8-0.8-1.6-1.4-2.5-1.7s-2.3-0.5-4.2-0.5h-1.7v17.4L202.4,147.4L202.4,147.4z M210.8,123.3h6.2
					c4,0,6.6-0.2,7.6-0.5s1.8-0.9,2.4-1.8c0.6-0.8,0.9-1.9,0.9-3.1c0-1.4-0.4-2.5-1.1-3.4c-0.7-0.9-1.8-1.4-3.2-1.6
					c-0.7-0.1-2.7-0.1-6.1-0.1h-6.6L210.8,123.3L210.8,123.3z"/>
			</g>
			<path class="st2" d="M263.8,135.7c0,3.2-1.1,6-3.4,8.2c-2.3,2.3-5,3.4-8.2,3.4s-5.9-1.1-8.2-3.4c-2.2-2.3-3.4-5-3.4-8.2
				s1.1-5.9,3.4-8.2c2.3-2.3,5-3.4,8.2-3.4s6,1.1,8.2,3.4C262.6,129.8,263.8,132.5,263.8,135.7L263.8,135.7z M252.1,125.7
				c-2.8,0-5.1,1-7.1,2.9c-1.9,2-2.9,4.3-2.9,7.1s1,5.2,2.9,7.1c1.9,2,4.3,2.9,7.1,2.9s5.1-1,7.1-2.9c1.9-2,2.9-4.3,2.9-7.1
				s-1-5.1-2.9-7.1C257.3,126.7,254.9,125.7,252.1,125.7L252.1,125.7z M251.9,129.3c1.6,0,2.7,0.2,3.5,0.5c1.3,0.5,2,1.6,2,3.2
				c0,1.1-0.4,2-1.2,2.5c-0.4,0.3-1.1,0.5-1.8,0.6c1,0.2,1.7,0.6,2.2,1.3s0.7,1.3,0.7,2v0.9c0,0.3,0,0.6,0,0.9
				c0,0.3,0.1,0.6,0.1,0.7l0.1,0.2h-2.1V142v-0.1v-0.4v-1c0-1.5-0.4-2.4-1.2-2.9c-0.5-0.3-1.3-0.4-2.5-0.4h-1.8v5h-2.2v-12.7h4.2
				V129.3z M255.2,133.2c0-0.9-0.3-1.6-0.8-1.9c-0.6-0.3-1.5-0.5-2.7-0.5h-1.9v4.6h2c1,0,1.7-0.1,2.1-0.3
				C254.8,134.8,255.2,134.1,255.2,133.2L255.2,133.2z"/>
			<text transform="matrix(1 0 0 1 264.0977 147.3535)" class="st2 st16 st17"> </text>
		</g>
	</g>
</g>
<g id="Слой_2">
	<path class="st2" d="M98.2,99.9v-5.9H96c-1-3.4-2.5-6.6-4.5-9.4c0.1-0.3,0.2-0.5,0.3-0.8c0.1-0.5,0-1.1-0.4-1.5
		c-2-2.4-12.8-14.1-30.3-14.1c-0.1,0-0.2,0-0.3,0c-17.3,0.1-28,11.7-30,14.1c-0.4,0.4-0.5,1-0.4,1.5c0,0.3,0.1,0.6,0.3,0.8
		c-1.9,2.8-3.4,6-4.5,9.4H24v5.9c-1.4,0.3-2.5,1.6-2.5,3.2v8.8c0,1.8,1.5,3.3,3.3,3.3h4.4c0,1.5,1.2,2.7,2.7,2.7h1.8
		c1.5,0,2.7-1.2,2.7-2.7V98.6c0-1.5-1.2-2.7-2.7-2.7H32c-1.5,0-2.7,1.2-2.7,2.7v1.2h-1.6v-5.3c1-3.3,2.4-6.3,4.2-9
		c0.1,0,0.3,0,0.4,0c0.6,0,1.1-0.3,1.5-0.8c0.6-0.7,1.2-1.5,1.8-2.1c3.8-3.8,12.6-10.6,25.2-10.7c0.1,0,0.2,0,0.3,0
		c13.4,0,22.4,7.6,26,11.2c0.5,0.5,0.9,1.1,1.3,1.6c0.4,0.5,0.9,0.8,1.5,0.8c0.1,0,0.3,0,0.4,0c1.8,2.7,3.2,5.7,4.2,9v5.3H93v-1.2
		c0-1.5-1.2-2.7-2.7-2.7h-1.8c-1.5,0-2.7,1.2-2.7,2.7v16.6c0,1.5,1.2,2.7,2.7,2.7h1.8c1.5,0,2.7-1.2,2.7-2.7h4.4
		c1.8,0,3.3-1.5,3.3-3.3v-8.8C100.7,101.6,99.6,100.3,98.2,99.9"/>
	<path class="st2" d="M36.4,115.1v0.8c0,0,0.1,0.1,0.1,0.1c0.1,0.2,0.2,0.3,0.3,0.4c0.2,0.1,0.6,0,0.8,0.3c0,0,0.1,0,0.1,0
		c0.3,0,0.6-0.1,0.8,0.1c0,0,0.1,0,0.1,0c0.3,0,0.7,0,1,0c0.1,0,0.1,0,0.2,0c0.2-0.2,0.2-0.6,0-0.8c-0.2-0.1-0.3-0.3-0.5-0.4
		c-0.3-0.3-0.2-0.6,0.2-0.7c0.1,0,0.1-0.1,0.1-0.1c0.3-0.1,0.6-0.4,0.9-0.4c0.2,0,0.3-0.1,0.5-0.2c0.2,0,0.3-0.2,0.5-0.3
		c0.1-0.1,0.3-0.1,0.4-0.2c0.3-0.1,0.5-0.1,0.7-0.4c0.1-0.1,0.1-0.1,0.2-0.2c0.2-0.2,0.5-0.3,0.4-0.6c0.2,0,0.4,0.1,0.5,0.3
		c0.1,0.2,0.3,0.3,0.4,0.5c0.6,0.5,1.1,1.1,1.7,1.6c0.1,0.1,0.1,0.2,0.1,0.2c0.1,0.4,0.2,0.7,0.5,1c0.3,0.3,0.6,0.5,0.8,0.9
		c0.2,0.1,0.4-0.1,0.6,0.1h2.9c0,0,0.1-0.1,0.1-0.1c0.2-0.1,0.4-0.4,0.2-0.5c-0.2-0.2-0.3-0.5-0.7-0.5c0,0-0.1,0-0.1-0.1
		c-0.2-0.3-0.6-0.3-0.8-0.6c0,0,0,0,0,0c-0.4,0-0.3-0.5-0.7-0.6c0,0,0,0,0,0c0.1-0.2-0.1-0.4-0.2-0.5c0-0.1,0-0.2,0-0.3
		c0-0.1,0-0.3,0-0.4c0-0.3,0-0.6-0.1-0.9c0-0.2,0-0.3,0-0.5c0-0.2,0-0.5,0-0.7c0-0.1,0.1-0.2,0-0.3c-0.2-0.4-0.4-0.8-0.7-1.2
		c0,0-0.1-0.1-0.1-0.1c0-0.2-0.2-0.4-0.4-0.5c-0.3-0.3-0.6-0.6-0.9-0.9c-0.2-0.2-0.2-0.3,0-0.5c0.2-0.2,0.4-0.3,0.5-0.6
		c0-0.1,0.1-0.1,0.1-0.2c0.3-0.3,0.7-0.6,0.9-1c0.1-0.2,0.2-0.3,0.4-0.4c0.2-0.2,0.4-0.3,0.4-0.6c0,0,0.1-0.1,0.1-0.1
		c0.1-0.1,0.2-0.2,0.2-0.3c0.1-0.2,0.2-0.4,0.4-0.6c0.1-0.1,0.2-0.3,0.3-0.4c0.3-0.2,0.6-0.6,1-0.6c0.3,0,0.5-0.1,0.8-0.1
		c0.4,0,0.8,0,1.1,0c0,0,0.1,0,0.1,0c0.2,0,0.3-0.1,0.5-0.1c0.5,0,0.9-0.1,1.3-0.3c0.2-0.1,0.3-0.2,0.5-0.1c0.4,0.1,0.6-0.1,0.8-0.4
		c0,0,0.1-0.1,0.1-0.1c0.1-0.1,0.2-0.3,0.5-0.3c-0.1,0.3-0.2,0.6-0.3,0.8c-0.2,0.4-0.4,0.8-0.6,1.1c-0.1,0.2-0.3,0.4-0.5,0.5
		c-0.2,0.1-0.5,0.1-0.8,0.1c-0.3,0-0.5,0.1-0.8,0.1c-0.3,0.1-0.6,0.1-1,0.2c-0.3,0.1-0.6,0.2-0.9,0.3c-0.5,0.3-0.9,0.7-1.3,1.1
		c-0.4,0.3-0.7,0.7-1.3,0.7c-0.2,0-0.5,0.1-0.7,0.1c0,0,0,0.1,0,0.1c0,0,0.1,0,0.1,0.1c0.5,0.2,1,0.2,1.6,0.1c0.5-0.1,1-0.5,1.5-0.8
		c0.4-0.2,0.7-0.4,1.2-0.4c0.2,0,0.5,0,0.7,0c0.3,0,0.6,0,0.9,0.3c0.2,0.2,0.3,0.4,0.3,0.7c0,0.2,0,0.4,0,0.6c0,0.3-0.1,0.5-0.4,0.6
		c-0.9,0.4-1.9,0.7-2.9,0.6c-0.1,0-0.2,0-0.4,0.1l0,0c0,0,0.1,0.1,0.1,0.1c0.3,0.1,0.5,0.2,0.8,0.3c0.7,0.1,1.4,0.1,2,0
		c0.3,0,0.6-0.1,0.8-0.2c0.3,0,0.5,0,0.7,0.2c0.2,0.2,0.4,0.5,0.6,0.7c0.5,0.6,0.8,1.2,1,1.9c0,0.2,0.1,0.4,0.2,0.6
		c0.3,0.4,0.6,0.7,1.2,0.5c0.6-0.1,1.1-0.4,1.4-0.9c0,0,0.1-0.1,0.1-0.2c0-0.3,0-0.6,0-1c0-0.3,0.1-0.6,0.1-0.9
		c0-0.1,0.1-0.1,0.2-0.1c0.1,0,0.5,0.3,0.5,0.4c0,0.4,0.1,0.7-0.1,1.1c0,0.1,0,0.2,0,0.3c0,0.2,0.1,0.3,0.2,0.4
		c0.1,0.3,0.3,0.6,0.6,0.8c0.3,0.2,0.5,0.3,0.8,0.5c0.2,0.1,0.5,0.2,0.8,0.1c0.1,0,0.2,0,0.3,0c0.3,0.1,0.6,0.1,1,0.2
		c0.1-0.2,0.1-0.4,0.1-0.5c0-0.4-0.1-0.7-0.3-1c-0.1-0.1-0.1-0.2-0.3-0.1c-0.2,0.1-0.3,0.1-0.5,0.2c-0.2,0.1-0.3,0-0.5-0.1
		c-0.1-0.1-0.3-0.2-0.4-0.4c0.3-0.4,0.6-0.6,1-0.8c0.1-0.1,0.3-0.1,0.4-0.1c0.3,0,0.6,0,0.8-0.2c0.2-0.1,0.3-0.1,0.5-0.2
		c0.1,0,0.2,0,0.3,0c0.3,0.2,0.4,0.5,0.3,0.9c-0.1,0.6-0.3,1.2,0.2,1.7c0,0,0.1,0.1,0.1,0.2c0,0.1,0,0.2,0,0.3
		c0,0.2-0.1,0.3-0.1,0.5c0,0.3,0,0.7,0,1c0,0.5-0.1,0.9-0.4,1.3c-0.1,0.1-0.2,0.3-0.3,0.5c0.2,0.1,0.3,0.2,0.5,0.3h1
		c0.1,0,0.2-0.1,0.3-0.1c0-0.1,0-0.3,0-0.4c0-0.5,0-0.9,0-1.4c-0.1-0.4,0-0.8,0.1-1.1c0.1-0.3,0.2-0.6,0.1-0.8
		c-0.1-0.5,0.1-0.8,0.3-1.2c0.1-0.1,0.1-0.2,0.1-0.3c0-0.4,0.1-0.9,0.3-1.3c0.2-0.4,0.3-1,0.4-1.4c0-0.1,0.1-0.2,0.2-0.2
		c0.5-0.1,0.9,0,1.3,0.3c0.2,0.1,0.4,0.1,0.6,0.1c0.4-0.1,0.7-0.2,1.1-0.1c0.1,0,0.2,0,0.2,0.2c0,0.2-0.1,0.3-0.1,0.5
		c-0.1,0.3-0.1,0.6-0.2,1c-0.2,0.5-0.1,1-0.4,1.4c-0.1,0.1-0.1,0.2-0.1,0.3c-0.1,0.5-0.3,1-0.6,1.4c-0.2,0.3-0.5,0.6-0.7,0.9
		c0.1,0.2,0.2,0.3,0.4,0.4c0.3,0.2,0.6,0.1,0.9,0.1c0.3,0,0.3-0.2,0.4-0.4c0-0.2,0.1-0.3,0.2-0.5c0.2-0.3,0.3-0.5,0.3-0.9
		c0-0.3,0.1-0.6,0.1-0.8c0.1-0.4,0.3-0.9,0.5-1.3c0.1-0.3,0.2-0.6,0.4-0.8c0.2-0.2,0.3-0.4,0.4-0.7c0.2-0.5,0.3-1,0.4-1.5
		c0.1-0.2,0.2-0.3,0.3-0.4c0.2-0.2,0.4-0.3,0.6-0.4c0.2-0.2,0.4-0.2,0.7-0.1c0.4,0.1,0.8,0.2,1.1,0.5c0.3,0.3,0.6,0.6,0.9,0.9
		c0.2,0.2,0.3,0.4,0.3,0.6c0,0.3,0.2,0.5,0.4,0.7c0.3,0.3,0.6,0.5,0.8,0.8c0.1,0.1,0.2,0.3,0.3,0.5c0.1,0.5,0.2,1,0.5,1.5
		c0.1,0.2,0.2,0.5,0.2,0.8c0,0.1,0,0.3,0,0.4c0.1,0.4,0.3,0.8,0,1.2c0.1,0,0.2,0.1,0.3,0.1c0.4,0,0.6-0.2,0.8-0.4
		c0.2-0.2,0.3-0.3,0.2-0.6c-0.1-0.6-0.3-1.2-0.7-1.6c-0.1-0.2-0.3-0.4-0.3-0.6c-0.1-0.3-0.1-0.7-0.3-0.9c-0.1-0.1,0-0.3,0-0.4
		c0-0.2,0-0.3,0-0.5c0-0.3-0.1-0.6-0.2-0.9c0-0.2-0.1-0.4-0.1-0.7c0-0.4-0.2-0.8-0.5-1c-0.3-0.3-0.4-0.6-0.5-1
		c-0.2-0.7-0.3-1.4-0.4-2.1c-0.1-0.6-0.3-1.2-0.5-1.8c-0.1-0.4-0.3-0.9-0.5-1.3c-0.4-0.7-0.9-1.3-1.5-1.8c-0.1-0.1-0.2-0.2-0.2-0.2
		c0.2-0.2,0.6-0.3,0.8-0.3c0.5,0.2,0.9,0.5,1.4,0.7c0.9,0.4,1.7,0.9,2.5,1.5c0.4,0.3,0.7,0.6,0.9,1.1c0.2,0.5,0.3,1,0.4,1.5
		c0.1,0.7,0.1,1.5,0.1,2.2c0,0.3,0,0.5,0.1,0.8c0.2,0.5,0.6,0.8,1,1.2c0.4,0.4,0.8,0.7,1.3,1.1c0.1,0.1,0.2,0.3,0.3,0.4c0,0,0,0,0,0
		c-0.1-0.2-0.1-0.4-0.2-0.6c0,0,0.1,0,0.1,0c0.6,0.3,0.7,0.9,1.1,1.3c0.1-0.2-0.2-0.4,0.1-0.6c0.1,0.1,0.2,0.2,0.3,0.3
		c0.1,0.1,0.1,0.1,0.2,0.2V110c0,0,0-0.1-0.1-0.1c-0.1-0.4-0.1-0.7-0.3-1.1c-0.2-0.5-0.5-0.9-1-1c-0.4-0.1-0.8-0.3-1.2-0.4
		c-0.4-0.1-0.7-0.3-0.9-0.7c-0.3-0.5-0.4-1.1-0.5-1.7c-0.1-0.8-0.1-1.6-0.3-2.3c-0.1-0.3-0.2-0.7-0.4-0.9c-0.3-0.4-0.7-0.7-1-1
		c-0.8-0.6-1.6-1.2-2.4-1.6c-0.6-0.3-1.2-0.7-1.8-1c-0.3-0.2-0.7-0.3-1-0.4c-0.1,0-0.2-0.1-0.3,0c-0.3,0.1-0.7,0.2-1,0.3
		c-0.8,0.3-1.5,0.4-2.3,0.4c-0.2,0-0.5,0-0.7-0.1c-0.5,0-1,0-1.6-0.1c-0.9-0.1-1.7-0.5-2.6-0.9c-0.2-0.1-0.4-0.2-0.6-0.2
		c-0.5-0.1-0.9-0.2-1.4-0.3c-0.6-0.1-1.2-0.2-1.8,0c-0.8,0.2-1.5,0.6-2,1.2c-0.4,0.4-0.7,0.8-1.1,1.2c-0.7,0.7-1.4,1.3-2.1,1.9
		c-0.1,0.1-0.3,0.2-0.4,0.3c-0.1-0.1-0.1-0.2,0-0.3c0.1-0.1,0.2-0.2,0.3-0.2c0.1-0.1,0.1-0.3,0-0.5c-0.1-0.1-0.2-0.2-0.3-0.2
		c-0.3,0-0.5,0-0.8,0.1c-0.3,0.1-0.6,0.2-0.8,0.3c-0.3,0.2-0.5,0.1-0.8,0.1c-0.1,0-0.2,0-0.4-0.1c-0.1,0-0.2-0.1-0.3-0.1
		c-0.2-0.1-0.4-0.1-0.5-0.2c-0.2-0.1-0.4-0.2-0.6-0.1c0-0.4,0-0.5,0.4-0.6c0.1-0.1,0.3-0.1,0.4-0.2c0.2-0.1,0.3-0.2,0.4-0.4
		c0.2-0.2,0.4-0.4,0.6-0.4c0.4-0.1,0.7-0.3,0.9-0.7c0,0,0.1-0.1,0.1-0.1c0.4-0.2,0.6-0.7,1.1-0.7c0,0,0.1,0,0.1-0.1
		c0.5-0.4,1-0.8,1.5-1.2c0.3-0.2,0.5-0.5,0.6-0.9c0.1-0.3,0.1-0.7,0.1-1.1c0-0.1,0-0.2,0.1-0.3c0.2-0.2,0.1-0.4,0.1-0.7
		c0,0-0.1-0.1-0.2-0.1c-0.4,0-0.7,0.1-1,0.5c-0.2,0.4-0.4,0.7-0.7,1.1c-0.1,0.2-0.4,0.4-0.5,0.4c-0.3,0-0.5,0-0.8,0.2
		c0,0-0.1,0-0.2,0c-0.2-0.1-0.3,0-0.4,0c-0.5,0.2-1,0.4-1.5,0.6c-0.1,0-0.1,0-0.2,0c-0.1,0-0.2,0-0.3,0.1c-0.3,0.1-0.5,0.2-0.8,0.3
		c-0.3,0.1-0.6,0-0.7,0.3c-0.6-0.3-0.5-0.8-0.5-1.3c0.2-0.1,0.4-0.1,0.5-0.1c0.3-0.1,0.5-0.3,0.8-0.4c0,0,0.1-0.1,0.1-0.1
		c0.2,0.1,0.3-0.3,0.6-0.2c0.1,0,0.1-0.1,0.2-0.2c0.2-0.2,0.2-0.4,0-0.5c-0.1-0.1-0.2-0.2-0.4-0.3c0.3-0.1,0.4-0.2,0.6-0.2
		c0.2,0,0.3-0.1,0.3-0.2c0.2-0.3,0.3-0.7,0.5-1c0.1-0.2,0-0.4-0.2-0.4c-0.3-0.1-0.7-0.3-1-0.3c-0.4-0.1-0.7,0-1.1-0.1
		c0,0-0.1,0-0.1,0c-0.1,0-0.3,0-0.4-0.1c-0.3-0.1-0.5-0.2-0.8-0.4c-0.1-0.1-0.3,0-0.4-0.2h-0.1h-0.2h-0.5c-0.2,0.1-0.5,0.1-0.6,0.2
		c-0.4,0.2-0.7,0.2-1,0c-0.1,0-0.2,0-0.2,0.1c-0.3,0.1-0.4,0.5-0.3,0.8c0,0.1,0,0.2,0,0.2c-0.4,0.2-0.4,0.7-0.7,1
		c-0.2,0.3-0.3,0.7-0.5,1.1c-0.1,0.4-0.3,0.7-0.6,1c-0.2,0.2-0.4,0.3-0.5,0.6c0,0,0,0,0,0c-0.2,0.2-0.5,0.3-0.7,0.5
		c-0.4,0.3-0.7,0.7-1,1c0,0,0,0,0,0.1c-0.1,0.2-0.2,0.4-0.3,0.5c-0.1,0.1-0.1,0.3-0.2,0.4c-0.1,0.3-0.3,0.6-0.3,0.9
		c0,0.3-0.1,0.6-0.2,0.8c-0.1,0.2-0.1,0.3,0,0.5c0.1,0.1,0.1,0.3,0,0.4c-0.1,0.1-0.2,0.2-0.3,0.4c0,0.1-0.1,0.1-0.2,0.2
		c-0.3,0.2-0.6,0.4-0.7,0.7c0,0-0.1,0.1-0.1,0.1c-0.3,0.2-0.6,0.4-0.8,0.8c-0.4,0.3-0.5,0.8-0.8,1.1c-0.2,0.2-0.2,0.4-0.3,0.6
		c-0.1,0.4-0.2,0.7-0.4,1.1c-0.1,0.2-0.2,0.4-0.1,0.6c0,0,0,0.1,0,0.1c-0.2,0.2-0.1,0.4-0.2,0.6c0,0.2,0,0.4-0.1,0.6
		c-0.1,0.1,0,0.3,0,0.5c0,0.2-0.1,0.5-0.1,0.7c0,0.1,0,0.2,0,0.3c0,0.1,0.1,0.2,0.1,0.3c0,0.2,0,0.4,0,0.6c0,0.1,0,0.2,0.1,0.3
		c0,0.1,0.1,0.3,0.1,0.4c0.1,0.3,0.1,0.4-0.1,0.6c-0.1,0.1-0.3,0.2-0.3,0.5c0,0.1-0.1,0.3-0.1,0.4c-0.1,0.2-0.3,0.4-0.4,0.6
		c-0.1,0.1-0.1,0.2-0.1,0.2c-0.2,0.2-0.3,0.5-0.4,0.7c0,0.1,0,0.2-0.1,0.2c-0.4,0.3-0.5,0.7-0.7,1.2
		C36.7,114.7,36.5,114.9,36.4,115.1"/>
	<path class="st2" d="M134.9,76.6c-0.4,0.5-0.9,0.9-1.5,1.1c-0.6,0.2-1.2,0.4-1.8,0.4c-0.6,0-1.2,0-1.7,0H126v10.5
		c0,0.8-0.1,1.5-0.3,2.1c-0.2,0.6-0.5,1-0.8,1.4c-0.4,0.4-0.9,0.6-1.6,0.8c-0.7,0.2-1.5,0.3-2.4,0.3h-2.4V78.2h-9.7v-1.1
		c0-1.5,0.4-2.6,1.3-3.1c0.9-0.6,2.1-0.8,3.7-0.8h21.7v1.4C135.5,75.4,135.3,76.1,134.9,76.6"/>
	<path class="st2" d="M158.1,93.1l-9.9-12.6h10.4v-2.4h-11.6v9.9c0,2-0.6,3.4-1.9,4.1c-0.6,0.4-1.3,0.6-2,0.7
		c-0.7,0.1-1.5,0.2-2.3,0.2h-1.2V73.1h20.2c1.9,0,3.5,0.4,4.6,1.1c1.1,0.8,1.7,1.9,1.7,3.4v3.6c0,1.2-0.4,2.2-1.3,3
		c-0.9,0.8-2,1.2-3.6,1.5c1,1.2,2,2.5,3.1,3.8c1.1,1.3,2.1,2.6,3,3.7H158.1z"/>
	<path class="st2" d="M189.5,93.1v-7.4h-11.6v2.4c0,1-0.2,1.9-0.5,2.4c-0.3,0.6-0.8,1.1-1.5,1.5c-0.6,0.3-1.3,0.6-2,0.8
		c-0.8,0.2-1.6,0.3-2.5,0.3h-0.9V77.8c0-0.8,0.2-1.5,0.5-2.1c0.3-0.6,0.8-1.1,1.4-1.5c0.6-0.4,1.2-0.7,2-0.9
		c0.8-0.2,1.6-0.3,2.4-0.3H197v20H189.5z M189.5,78.2h-11.6v2.4h11.6V78.2z"/>
	<path class="st2" d="M227.3,88.6c0,0.8-0.2,1.4-0.5,2c-0.3,0.6-0.8,1-1.3,1.4c-0.6,0.4-1.2,0.6-2,0.8c-0.8,0.2-1.6,0.3-2.5,0.3
		h-20.2v-20H221c1.9,0,3.4,0.4,4.6,1.1c1.1,0.8,1.7,1.9,1.7,3.4V88.6z M208.4,88.1h11.6v-9.9h-11.6V88.1z"/>
	<path class="st2" d="M250.6,85.7h-12v2.4h19.1c0,0.9-0.2,1.7-0.5,2.3c-0.3,0.6-0.8,1.1-1.3,1.6c-0.6,0.4-1.2,0.7-2,0.9
		c-0.8,0.2-1.6,0.3-2.5,0.3h-14c-0.9,0-1.7-0.1-2.4-0.3c-0.7-0.2-1.4-0.5-2-0.9c-0.6-0.4-1-0.9-1.4-1.4c-0.3-0.6-0.5-1.2-0.5-1.8
		v-11c0-0.7,0.2-1.3,0.5-1.8c0.3-0.6,0.8-1,1.4-1.4c0.6-0.4,1.2-0.7,2-0.9c0.7-0.2,1.5-0.3,2.4-0.3h14c1.9,0,3.4,0.4,4.6,1.3
		c1.2,0.9,1.7,2.1,1.7,3.8h-19.1v2.4h12V85.7z"/>
	<path class="st2" d="M124.3,115.8l-8.2-10.4h8.6v-2H115v8.2c0,1.7-0.5,2.8-1.6,3.4c-0.5,0.3-1.1,0.5-1.7,0.6
		c-0.6,0.1-1.3,0.1-1.9,0.1h-1V99.2h16.7c1.6,0,2.9,0.3,3.8,0.9c0.9,0.6,1.4,1.6,1.4,2.8v3c0,1-0.4,1.8-1.1,2.5
		c-0.7,0.6-1.7,1-3,1.2c0.8,1,1.7,2.1,2.6,3.2c0.9,1.1,1.7,2.1,2.5,3H124.3z"/>
	<path class="st2" d="M150.6,109.6h-10v2h15.8c0,0.7-0.1,1.4-0.4,1.9c-0.3,0.5-0.6,1-1.1,1.3c-0.5,0.3-1,0.6-1.7,0.7
		c-0.6,0.2-1.3,0.2-2,0.2h-11.6c-0.7,0-1.4-0.1-2-0.3c-0.6-0.2-1.2-0.4-1.6-0.7c-0.5-0.3-0.9-0.7-1.1-1.2c-0.3-0.5-0.4-1-0.4-1.5
		v-9.2c0-0.5,0.1-1,0.4-1.5c0.3-0.5,0.6-0.8,1.1-1.2c0.5-0.3,1-0.6,1.6-0.8c0.6-0.2,1.3-0.3,2-0.3h11.6c1.6,0,2.8,0.4,3.8,1.1
		c1,0.7,1.4,1.8,1.4,3.1h-15.8v2h10V109.6z"/>
	<path class="st2" d="M181.7,102.9c0,0.3-0.1,0.7-0.2,0.9c-0.1,0.3-0.3,0.5-0.4,0.7c-0.2,0.2-0.4,0.4-0.6,0.5
		c-0.2,0.1-0.4,0.3-0.6,0.4h0c-1,0.6-2.2,0.9-3.6,0.9h-0.9v-3h-9.6v8.2h9.7v-3.2h6.1v3.6c0,0.7-0.1,1.2-0.4,1.7
		c-0.3,0.5-0.6,0.9-1.1,1.2c-0.5,0.3-1,0.5-1.7,0.7c-0.6,0.2-1.3,0.2-2,0.2h-11.6c-0.7,0-1.4-0.1-2-0.3c-0.6-0.2-1.2-0.4-1.6-0.7
		c-0.5-0.3-0.8-0.7-1.1-1.2c-0.3-0.5-0.4-1-0.4-1.5v-9.2c0-0.5,0.1-1,0.4-1.4c0.3-0.4,0.6-0.8,1.1-1.2c0.5-0.3,1-0.6,1.6-0.8
		c0.6-0.2,1.3-0.3,2-0.3h11.6c1.6,0,2.9,0.3,3.8,0.9C181.2,100.7,181.7,101.7,181.7,102.9"/>
	<path class="st2" d="M206.8,112.1c0,0.6-0.1,1.2-0.4,1.6c-0.3,0.4-0.6,0.8-1.1,1.1c-0.5,0.3-1,0.5-1.7,0.7c-0.6,0.1-1.3,0.2-2,0.2
		H190c-0.7,0-1.4-0.1-2-0.3c-0.6-0.2-1.2-0.4-1.6-0.7c-0.5-0.3-0.8-0.7-1.1-1.2c-0.3-0.4-0.4-0.9-0.4-1.5v-9.3c0-0.5,0.1-1,0.4-1.5
		c0.3-0.5,0.6-0.8,1.1-1.2c0.5-0.3,1-0.6,1.6-0.7c0.6-0.2,1.3-0.3,2-0.3h11.6c1.5,0,2.8,0.3,3.8,0.9c1,0.6,1.5,1.6,1.5,2.8V112.1z
		 M200.7,103.4H191v8.2h9.6V103.4z"/>
	<path class="st2" d="M225.5,115.8l-8.2-10.4h8.6v-2h-9.6v8.2c0,1.7-0.5,2.8-1.6,3.4c-0.5,0.3-1.1,0.5-1.7,0.6
		c-0.6,0.1-1.3,0.1-1.9,0.1h-1V99.2h16.7c1.6,0,2.9,0.3,3.8,0.9c0.9,0.6,1.4,1.6,1.4,2.8v3c0,1-0.4,1.8-1.1,2.5
		c-0.7,0.6-1.7,1-3,1.2c0.8,1,1.7,2.1,2.6,3.2c0.9,1.1,1.7,2.1,2.5,3H225.5z"/>
	<path class="st2" d="M257.7,112c0,0.6-0.1,1.2-0.4,1.6c-0.3,0.5-0.6,0.9-1.1,1.2c-0.5,0.3-1,0.5-1.7,0.7c-0.6,0.2-1.3,0.2-2,0.2
		h-16.7V99.2h16.7c1.6,0,2.9,0.3,3.8,0.9c0.9,0.6,1.4,1.6,1.4,2.8V112z M241.9,111.6h9.6v-8.2h-9.6V111.6z"/>
	<rect x="21.5" y="126" class="st2" width="236.1" height="23.3"/>
	<path class="st2" d="M48.7,143.6c-0.4,0-0.8,0-1.1-0.1c-0.3-0.1-0.6-0.1-0.8-0.2c-0.2-0.1-0.4-0.2-0.6-0.3
		c-0.2-0.1-0.4-0.2-0.5-0.4l-0.3-0.2l-4.3-3.6v2.3c0,0.5-0.1,0.9-0.3,1.2c-0.2,0.3-0.5,0.6-0.8,0.8c-0.3,0.2-0.8,0.3-1.2,0.4
		c-0.5,0.1-0.9,0.1-1.4,0.1h-0.7v-12.1H41v4.5l4.5-4.5h5.2l-5.5,5.7l7.3,6.4H48.7z"/>
	<path class="st2" d="M67.4,138.5c-0.8,0.5-2,0.7-3.4,0.7h-6c0-0.3,0-0.7,0.1-1c0.1-0.4,0.2-0.7,0.5-1c0.2-0.3,0.5-0.5,0.8-0.7
		c0.3-0.2,0.7-0.3,1.2-0.3h3.6v-1.4h-7v6c0,1.2-0.4,2-1.1,2.5c-0.3,0.2-0.8,0.4-1.2,0.4c-0.5,0.1-0.9,0.1-1.4,0.1h-0.7v-12.1h12.2
		c1.1,0,2.1,0.2,2.8,0.7c0.7,0.5,1.1,1.1,1.1,2v2.1C68.7,137.3,68.2,138,67.4,138.5"/>
	<path class="st2" d="M71,143.6v-12h0.6c1.1,0,2.1,0.2,2.8,0.6c0.7,0.4,1.1,1.1,1.1,2v3.3c0.2-0.2,0.4-0.3,0.5-0.5
		c0.2-0.2,0.3-0.3,0.4-0.3l4.1-3.8c0.3-0.3,0.6-0.5,1-0.7c0.4-0.2,0.7-0.3,1.1-0.4s0.7-0.1,1-0.2c0.3,0,0.6,0,0.8,0h1.1v12h-4.5v-6
		c-0.2,0.1-0.3,0.3-0.5,0.4c-0.2,0.2-0.3,0.3-0.5,0.4l-4.1,3.8c-0.3,0.3-0.7,0.5-1,0.7c-0.4,0.2-0.7,0.3-1.1,0.4s-0.7,0.1-1,0.2
		c-0.3,0-0.6,0-0.8,0H71z"/>
	<polygon class="st2" points="99.2,143.6 99.2,134.6 92.2,134.6 92.2,143.6 87.7,143.6 87.7,131.6 103.7,131.6 103.7,143.6 	"/>
	<path class="st2" d="M121.7,133.7c-0.3,0.3-0.6,0.5-0.9,0.7c-0.4,0.1-0.7,0.2-1.1,0.2c-0.4,0-0.7,0-1,0h-2.3v6.3
		c0,0.5-0.1,0.9-0.2,1.2c-0.1,0.3-0.3,0.6-0.5,0.8c-0.2,0.2-0.6,0.4-0.9,0.5c-0.4,0.1-0.9,0.2-1.5,0.2h-1.4v-9H106V134
		c0-0.9,0.3-1.6,0.8-1.9c0.5-0.3,1.3-0.5,2.2-0.5h13.1v0.8C122.1,133,122,133.4,121.7,133.7"/>
	<path class="st2" d="M140.4,141c0,0.5-0.1,0.8-0.3,1.2c-0.2,0.3-0.5,0.6-0.8,0.8c-0.3,0.2-0.8,0.4-1.2,0.5c-0.5,0.1-1,0.2-1.5,0.2
		h-8.4c-0.5,0-1-0.1-1.5-0.2c-0.5-0.1-0.9-0.3-1.2-0.5c-0.3-0.2-0.6-0.5-0.8-0.8c-0.2-0.3-0.3-0.7-0.3-1.1v-6.7
		c0-0.4,0.1-0.8,0.3-1.1c0.2-0.3,0.5-0.6,0.8-0.8c0.3-0.2,0.7-0.4,1.2-0.5c0.5-0.1,0.9-0.2,1.5-0.2h8.4c1.1,0,2,0.2,2.7,0.7
		c0.7,0.5,1.1,1.1,1.1,2V141z M135.9,134.6h-7v6h7V134.6z"/>
	<path class="st2" d="M166.5,138.5c-0.8,0.5-2,0.7-3.4,0.7h-6c0-0.3,0-0.7,0.1-1c0.1-0.4,0.2-0.7,0.5-1c0.2-0.3,0.5-0.5,0.8-0.7
		c0.3-0.2,0.7-0.3,1.2-0.3h3.6v-1.4h-7v6c0,1.2-0.4,2-1.1,2.5c-0.3,0.2-0.8,0.4-1.2,0.4c-0.5,0.1-0.9,0.1-1.4,0.1h-0.7v-12.1h12.2
		c1.1,0,2.1,0.2,2.8,0.7c0.7,0.5,1.1,1.1,1.1,2v2.1C167.7,137.3,167.3,138,166.5,138.5"/>
	<path class="st2" d="M181.5,143.6v-4.5h-7v1.4c0,0.6-0.1,1.1-0.3,1.5c-0.2,0.3-0.5,0.6-0.9,0.9c-0.3,0.2-0.8,0.4-1.2,0.5
		c-0.5,0.1-1,0.2-1.5,0.2h-0.5v-9.2c0-0.5,0.1-0.9,0.3-1.3c0.2-0.4,0.5-0.7,0.8-0.9c0.3-0.2,0.7-0.4,1.2-0.5
		c0.5-0.1,0.9-0.2,1.4-0.2h12.2v12.1H181.5z M181.5,134.6h-7v1.4h7V134.6z"/>
	<path class="st2" d="M188.4,145.2V140h2.2v-5.5c0-0.5,0.1-0.9,0.3-1.3c0.2-0.4,0.5-0.7,0.8-0.9c0.3-0.2,0.7-0.4,1.2-0.5
		c0.5-0.1,0.9-0.2,1.4-0.2H205v8.4h2.5v5.2h-4.2v-1.5h-10.9v1.5H188.4z M195.1,140h5.4v-5.3h-5.4V140z"/>
	<path class="st2" d="M210,143.6v-12h0.6c1.1,0,2.1,0.2,2.8,0.6c0.7,0.4,1.1,1.1,1.1,2v3.3c0.2-0.2,0.4-0.3,0.5-0.5
		c0.2-0.2,0.3-0.3,0.4-0.3l4.1-3.8c0.3-0.3,0.6-0.5,1-0.7c0.4-0.2,0.7-0.3,1.1-0.4s0.7-0.1,1-0.2c0.3,0,0.6,0,0.8,0h1.1v12h-4.5v-6
		c-0.2,0.1-0.3,0.3-0.5,0.4c-0.2,0.2-0.3,0.3-0.5,0.4l-4.1,3.8c-0.3,0.3-0.7,0.5-1,0.7c-0.4,0.2-0.7,0.3-1.1,0.4
		c-0.3,0.1-0.7,0.1-1,0.2c-0.3,0-0.6,0-0.8,0H210z"/>
	<path class="st2" d="M242.7,141c0,0.5-0.1,0.8-0.3,1.2c-0.2,0.3-0.5,0.6-0.8,0.8c-0.3,0.2-0.8,0.4-1.2,0.5c-0.5,0.1-1,0.2-1.5,0.2
		h-8.4c-0.5,0-1-0.1-1.5-0.2c-0.5-0.1-0.9-0.3-1.2-0.5c-0.3-0.2-0.6-0.5-0.8-0.8c-0.2-0.3-0.3-0.7-0.3-1.1v-6.7
		c0-0.4,0.1-0.8,0.3-1.1c0.2-0.3,0.5-0.6,0.8-0.8c0.3-0.2,0.7-0.4,1.2-0.5c0.5-0.1,0.9-0.2,1.5-0.2h8.4c1.1,0,2,0.2,2.7,0.7
		c0.7,0.5,1.1,1.1,1.1,2V141z M238.2,134.6h-7v6h7V134.6z"/>
	<rect x="143.6" y="135.9" class="st2" width="8.1" height="2.5"/>
</g>
</svg>
