<svg xmlns="http://www.w3.org/2000/svg" id="Group_3201" width="111.607" height="132.607" data-name="Group 3201" viewBox="0 0 111.607 132.607">
    <defs>
        <style>
            .cls-1{fill:#371f18}.cls-2,.cls-3,.cls-5{fill:#fff}.cls-2{stroke:rgba(0,0,0,0)}.cls-3{font-size:14px;font-family:MyanmarMN-Bold,Myanmar MN;font-weight:700}.cls-4{fill:url(#radial-gradient)}.cls-6{stroke:none}.cls-7{fill:none}.cls-8{filter:url(#QRCode)}
        </style>
        <filter id="QRCode" width="80.107" height="80.107" x="16" y="18.5" filterUnits="userSpaceOnUse">
            <feOffset dy="3"/>
            <feGaussianBlur result="blur" stdDeviation="3"/>
            <feFlood flood-opacity=".161"/>
            <feComposite in2="blur" operator="in"/>
            <feComposite in="SourceGraphic"/>
        </filter>
        <radialGradient id="radial-gradient" cx=".5" cy=".129" r="1.001" gradientTransform="matrix(1.372 0 0 .504 -.186 .064)">
            <stop offset="0" stop-color="#febc1e"/>
            <stop offset="1" stop-color="#e06500"/>
        </radialGradient>
    </defs>
    <rect id="Rectangle_1061" width="111.607" height="132.607" class="cls-1" data-name="Rectangle 1061" rx="10"/>
    <g class="cls-8">
        <g id="QRCode-2" class="cls-2" data-name="QRCode" transform="translate(25 24.5)">
            <rect width="62.107" height="62.107" class="cls-6" rx="4"/>
            <rect width="61.107" height="61.107" x=".5" y=".5" class="cls-7" rx="3.5"/>
        </g>
    </g>
    <text id="Map" class="cls-3" transform="translate(55.804 114.804)">
        <tspan x="-14.619" y="0">Map</tspan>
    </text>
    <g id="Group_469" data-name="Group 469" transform="translate(41.308 35.684)">
        <g id="Icon">
            <path id="Subtraction_3" d="M14.748 40.472l-.492-1a63.793 63.793 0 0 0-3.2-5.969 40.536 40.536 0 0 0-5.11-6.527 33.1 33.1 0 0 1-3.129-3.687 16.7 16.7 0 0 1-1.8-3.11 11.865 11.865 0 0 1-.82-2.769A15.869 15.869 0 0 1 0 14.748a14.752 14.752 0 0 1 28.337-5.741 14.656 14.656 0 0 1 1.163 5.741 15.086 15.086 0 0 1-.887 5.5 18.248 18.248 0 0 1-4.74 6.728 50.141 50.141 0 0 0-5.564 6.97 58.14 58.14 0 0 0-3.24 5.889l-.318.635zm0-35.961a10.2 10.2 0 1 0 3.985.8 10.172 10.172 0 0 0-3.985-.8z" class="cls-4" data-name="Subtraction 3"/>
            <circle id="Ellipse_6" cx="12.493" cy="12.493" r="12.493" class="cls-5" data-name="Ellipse 6" transform="translate(2.082 2.429)"/>
            <path id="Subtraction_2" d="M14.748 40.472l-.492-1a63.793 63.793 0 0 0-3.2-5.969 40.536 40.536 0 0 0-5.11-6.527 33.1 33.1 0 0 1-3.129-3.687 16.7 16.7 0 0 1-1.8-3.11 11.865 11.865 0 0 1-.82-2.769A15.869 15.869 0 0 1 0 14.748a14.752 14.752 0 0 1 28.337-5.741 14.656 14.656 0 0 1 1.163 5.741 15.086 15.086 0 0 1-.887 5.5 18.248 18.248 0 0 1-4.74 6.728 50.141 50.141 0 0 0-5.564 6.97 58.14 58.14 0 0 0-3.24 5.889l-.318.635zm0-35.961a10.2 10.2 0 1 0 3.985.8 10.172 10.172 0 0 0-3.985-.8z" data-name="Subtraction 2"/>
            <g id="Group_128" data-name="Group 128" transform="translate(7.707 5.868)">
                <g id="Group_112" data-name="Group 112" transform="translate(4.645 1.449)">
                    <path id="Path_131" d="M1500.61 2260.868a4.387 4.387 0 0 0-.491 2.427 2.159 2.159 0 0 1-.492-2.427 4.393 4.393 0 0 0 .492-2.426 2.16 2.16 0 0 1 .491 2.426z" data-name="Path 131" transform="translate(-1499.325 -2258.321)"/>
                    <g id="Group_111" data-name="Group 111">
                        <path id="Path_132" d="M1498.745 2262.036a.13.13 0 0 1-.08-.026 1.324 1.324 0 0 1-.312-.354 2.326 2.326 0 0 1-.211-2.215 5.264 5.264 0 0 0 .512-2.3.121.121 0 0 1 .09-.2.13.13 0 0 1 .08.027 1.321 1.321 0 0 1 .312.354 2.327 2.327 0 0 1 .211 2.215 5.256 5.256 0 0 0-.512 2.3.121.121 0 0 1-.09.2zm.158-4.625a6.263 6.263 0 0 1-.539 2.126 2.087 2.087 0 0 0 .223 2.03 6.263 6.263 0 0 1 .538-2.126 2.086 2.086 0 0 0-.225-2.031zm.333 2.079z" data-name="Path 132" transform="translate(-1497.952 -2256.941)"/>
                    </g>
                </g>
                <g id="Group_114" data-name="Group 114" transform="translate(7.32)">
                    <path id="Path_133" d="M1533.752 2242.919a4.392 4.392 0 0 0-.491 2.427 2.16 2.16 0 0 1-.491-2.427 4.389 4.389 0 0 0 .491-2.427 2.16 2.16 0 0 1 .491 2.427z" data-name="Path 133" transform="translate(-1532.467 -2240.371)"/>
                    <g id="Group_113" data-name="Group 113">
                        <path id="Path_134" d="M1531.886 2244.087a.132.132 0 0 1-.08-.027 1.317 1.317 0 0 1-.312-.354 2.326 2.326 0 0 1-.211-2.215 5.26 5.26 0 0 0 .513-2.3.121.121 0 0 1 .09-.2.132.132 0 0 1 .079.027 1.308 1.308 0 0 1 .312.354 2.324 2.324 0 0 1 .211 2.215 5.264 5.264 0 0 0-.512 2.3.121.121 0 0 1-.09.2zm.094-.187zm.064-4.44a6.266 6.266 0 0 1-.538 2.127 2.086 2.086 0 0 0 .222 2.03 6.271 6.271 0 0 1 .538-2.126 2.087 2.087 0 0 0-.222-2.03z" data-name="Path 134" transform="translate(-1531.092 -2238.992)"/>
                    </g>
                </g>
                <g id="Group_123" data-name="Group 123" transform="translate(0 7.003)">
                    <g id="Group_116" data-name="Group 116" transform="translate(.832 7.877)">
                        <path id="Path_135" d="M1462.483 2425.932h-9.169a1.1 1.1 0 0 1-1.1-1.1h11.361a1.1 1.1 0 0 1-1.092 1.1z" data-name="Path 135" transform="translate(-1452.097 -2424.715)"/>
                        <g id="Group_115" data-name="Group 115">
                            <path id="Path_136" d="M1461.1 2424.674h-9.169a1.218 1.218 0 0 1-1.217-1.217v-.121h11.6v.121a1.218 1.218 0 0 1-1.214 1.217zm-10.137-1.1a.976.976 0 0 0 .967.854h9.169a.976.976 0 0 0 .967-.854z" data-name="Path 136" transform="translate(-1450.718 -2423.336)"/>
                        </g>
                    </g>
                    <g id="Group_118" data-name="Group 118">
                        <path id="Path_137" d="M1442.195 2327.254a.289.289 0 0 0-.289.289v1.309a9.869 9.869 0 0 0 2.563 6.279h7.9a9.872 9.872 0 0 0 2.562-6.279v-1.309a.289.289 0 0 0-.289-.289z" data-name="Path 137" transform="translate(-1441.785 -2327.133)"/>
                        <g id="Group_117" data-name="Group 117">
                            <path id="Path_138" d="M1451.043 2333.874h-8.006l-.036-.039a9.968 9.968 0 0 1-2.595-6.361v-1.309a.41.41 0 0 1 .41-.41h12.448a.41.41 0 0 1 .41.41v1.309a9.967 9.967 0 0 1-2.595 6.361zm-7.9-.242h7.794a9.709 9.709 0 0 0 2.495-6.158v-1.309a.168.168 0 0 0-.167-.167h-12.448a.168.168 0 0 0-.167.167v1.309a9.711 9.711 0 0 0 2.493 6.158z" data-name="Path 138" transform="translate(-1440.406 -2325.755)"/>
                        </g>
                    </g>
                    <g id="Group_119" data-name="Group 119" transform="translate(10.823 1.725)">
                        <path id="Path_139" d="M1574.61 2351.466a.121.121 0 0 1-.1-.187 7.821 7.821 0 0 0 1.285-4.038.121.121 0 0 1 .242 0 7.954 7.954 0 0 1-1.323 4.169.122.122 0 0 1-.104.056z" data-name="Path 139" transform="translate(-1574.489 -2347.12)"/>
                    </g>
                    <g id="Group_120" data-name="Group 120" transform="translate(1.053 1.158)">
                        <path id="Path_140" d="M1453.984 2343.45a.121.121 0 0 1-.115-.082 7.346 7.346 0 0 1-.412-2.325v-.818a.121.121 0 1 1 .242 0v.818a7.1 7.1 0 0 0 .4 2.247.122.122 0 0 1-.076.154.125.125 0 0 1-.039.006z" data-name="Path 140" transform="translate(-1453.457 -2340.104)"/>
                    </g>
                    <g id="Group_122" data-name="Group 122" transform="translate(11.556 .906)">
                        <path id="Path_141" d="M1587.665 2338.716a1.806 1.806 0 0 0-.446-.1v.681c0 .067 0 .134-.006.2a.993.993 0 0 1 .16.041c.694.246.985 1.288.636 2.277a1.958 1.958 0 0 1-1.611 1.425.979.979 0 0 1-.161-.014q-.2.405-.428.791a2.887 2.887 0 0 0 1.856-5.305z" data-name="Path 141" transform="translate(-1585.628 -2338.487)"/>
                        <g id="Group_121" data-name="Group 121">
                            <path id="Path_142" d="M1584.334 2342.735a1.92 1.92 0 0 1-.622-.1l-.142-.049.077-.128c.15-.252.292-.515.423-.782l.04-.082.089.015a.854.854 0 0 0 .141.012 1.837 1.837 0 0 0 1.5-1.344c.327-.927.07-1.9-.562-2.123a.763.763 0 0 0-.139-.035l-.1-.017.006-.175v-.942l.131.012a1.921 1.921 0 0 1 .476.1 2.137 2.137 0 0 1 1.289 1.377 3.311 3.311 0 0 1-.045 2.172 2.919 2.919 0 0 1-2.562 2.089zm-.4-.29a2.521 2.521 0 0 0 2.729-1.878 3.072 3.072 0 0 0 .045-2.012 1.9 1.9 0 0 0-1.141-1.228 1.623 1.623 0 0 0-.285-.074v.643a.844.844 0 0 1 .076.024 1.866 1.866 0 0 1 .71 2.431 2.079 2.079 0 0 1-1.726 1.506h-.09c-.102.2-.208.397-.318.588z" data-name="Path 142" transform="translate(-1583.57 -2336.984)"/>
                        </g>
                    </g>
                </g>
                <g id="Group_127" data-name="Group 127" transform="translate(4.451 8.32)">
                    <g id="Group_125" data-name="Group 125">
                        <ellipse id="Ellipse_36" cx="2.18" cy="1.336" class="cls-5" data-name="Ellipse 36" rx="2.18" ry="1.336" transform="rotate(-45 3.722 1.542)"/>
                        <g id="Group_124" data-name="Group 124" transform="translate(.556 .561)">
                            <path id="Path_143" d="M1503.552 2352.87a1.1 1.1 0 0 1-.8-.3 1.264 1.264 0 0 1-.249-1.233 3.106 3.106 0 0 1 .845-1.424c.9-.9 2.09-1.165 2.657-.6a1.267 1.267 0 0 1 .249 1.234 3.354 3.354 0 0 1-2.27 2.27 1.853 1.853 0 0 1-.432.053zm-.035-2.789a2.865 2.865 0 0 0-.781 1.309 1.037 1.037 0 0 0 .184 1.006c.474.474 1.512.206 2.315-.6s1.071-1.841.6-2.315-1.512-.207-2.315.6z" class="cls-5" data-name="Path 143" transform="translate(-1502.446 -2349.014)"/>
                        </g>
                    </g>
                    <g id="Group_126" data-name="Group 126" transform="translate(.6 .761)">
                        <path id="Path_144" d="M1503.107 2354.488a.121.121 0 0 1-.078-.213 1.642 1.642 0 0 1 1.09-.429 1.417 1.417 0 0 0 .952-.372 1.645 1.645 0 0 0 .567-.916 1.868 1.868 0 0 1 .641-1.03.121.121 0 0 1 .157.185 1.649 1.649 0 0 0-.566.916 1.87 1.87 0 0 1-.641 1.031 1.642 1.642 0 0 1-1.09.429 1.419 1.419 0 0 0-.952.372.119.119 0 0 1-.08.027z" class="cls-5" data-name="Path 144" transform="translate(-1502.985 -2351.498)"/>
                    </g>
                </g>
            </g>
        </g>
    </g>
</svg>
