<svg xmlns="http://www.w3.org/2000/svg" id="Group_3200" width="111.607" height="132.607" data-name="Group 3200" viewBox="0 0 111.607 132.607">
    <defs>
        <style>
            .cls-1,.cls-3{fill:#371f18}.cls-2,.cls-5{fill:#fff}.cls-2{stroke:rgba(0,0,0,0)}.cls-3{font-size:1px}.cls-3,.cls-5{font-family:MyanmarMN-Bold,Myanmar MN;font-weight:700}.cls-4{fill:#2e1a1a}.cls-5{font-size:14px}.cls-6,.cls-8{stroke:none}.cls-7{fill:none}.cls-8{fill:rgba(0,0,0,0)}.cls-9{filter:url(#QRCode)}
        </style>
        <filter id="QRCode" width="80.107" height="80.107" x="16" y="18.5" filterUnits="userSpaceOnUse">
            <feOffset dy="3"/>
            <feGaussianBlur result="blur" stdDeviation="3"/>
            <feFlood flood-opacity=".161"/>
            <feComposite in2="blur" operator="in"/>
            <feComposite in="SourceGraphic"/>
        </filter>
    </defs>
    <rect id="Rectangle_1060" width="111.607" height="132.607" class="cls-1" data-name="Rectangle 1060" rx="10"/>
    <g id="Group_630" data-name="Group 630" transform="translate(25 24.5)">
        <g id="Group_82" data-name="Group 82">
            <g class="cls-9" transform="translate(-25 -24.5)">
                <g id="QRCode-2" class="cls-2" data-name="QRCode" transform="translate(25 24.5)">
                    <rect width="62.107" height="62.107" class="cls-6" rx="4"/>
                    <rect width="61.107" height="61.107" x=".5" y=".5" class="cls-7" rx="3.5"/>
                </g>
            </g>
            <g id="Union_14" data-name="Union 14">
                <path d="M42.833 44.974v-2.141h2.142v2.142zm-4.284 0v-2.141h2.142v2.142zm-6.425 0v-2.141h2.141v2.142zm-2.142 0v-2.141h2.142v2.142zm-2.142 0v-2.141h2.142v2.142zm-2.142 0v-2.141h2.142v2.142zm-2.142 0v-2.141H25.7v2.142zm-2.142 0v-2.141h2.142v2.142zm-2.141 0v-2.141h2.141v2.142zm-6.425 0v-2.141h2.142v2.142zm-2.142 0v-2.141h2.144v2.142zm-2.142 0v-2.141h2.142v2.142zm-2.141 0v-2.141h2.143v2.142zm-2.142 0v-2.141h2.144v2.142zm-2.142 0v-2.141h2.144v2.142zm-2.139 0v-2.141h2.142v2.142zm42.833-2.142v-2.141h2.142v2.142zm-2.142 0v-2.141h2.142v2.142zm-4.283 0v-2.141h2.142v2.142zm-2.142 0v-2.141h2.142v2.142zm-2.141 0v-2.141h2.141v2.142zm-2.142 0v-2.141h2.142v2.142zm-2.142 0v-2.141h2.142v2.142zm-4.283 0v-2.141H25.7v2.142zm-2.142 0v-2.141h2.142v2.142zm-2.141 0v-2.141h2.141v2.142zm-6.425 0v-2.141h2.142v2.142zM0 42.833v-2.142h2.142v2.142zm29.983-2.142v-2.142h2.142v2.142zm-8.567 0v-2.142h2.142v2.142zm-2.141 0v-2.142h2.141v2.142zm-2.142 0v-2.142h2.142v2.142zm-4.284 0v-2.142h2.142v2.142zm-4.283 0v-2.142h2.142v2.142zm-2.141 0v-2.142h2.141v2.142zm-2.142 0v-2.142h2.142v2.142zm-4.283 0v-2.142h2.142v2.142zm38.549-2.142v-2.141h2.142v2.142zm-2.142 0v-2.141h2.142v2.142zm-10.708 0v-2.141h2.142v2.142zm-4.283 0v-2.141h2.142v2.142zm-2.141 0v-2.141h2.141v2.142zm-6.425 0v-2.141h2.142v2.142zm-4.283 0v-2.141h2.142v2.142zm-2.141 0v-2.141h2.14v2.142zm-2.142 0v-2.141h2.141v2.142zm-4.284 0v-2.141h2.142v2.142zm40.691-2.142v-2.141h2.142v2.141zm-2.142 0v-2.141h2.142v2.141zm-2.142 0v-2.141h2.142v2.141zm-2.142 0v-2.141h2.142v2.141zm-2.141 0v-2.141h2.141v2.141zm-2.142 0v-2.141h2.142v2.141zm-2.142 0v-2.141h2.142v2.141zm-2.142 0v-2.141h2.142v2.141zm-2.142 0v-2.141H25.7v2.141zm-2.142 0v-2.141h2.142v2.141zm-2.141 0v-2.141h2.141v2.141zm-6.425 0v-2.141h2.142v2.141zm-4.283 0v-2.141h2.142v2.141zm-2.141 0v-2.141h2.142v2.141zm-2.142 0v-2.141h2.143v2.141zM0 36.408v-2.142h2.142v2.141zm42.833-2.142v-2.141h2.142v2.141zm-4.284 0v-2.141h2.142v2.141zm-2.142 0v-2.141h2.142v2.141zm-2.142 0v-2.141h2.142v2.141zm-2.141 0v-2.141h2.141v2.141zm-2.142 0v-2.141h2.142v2.141zm-2.142 0v-2.141h2.142v2.141zm-2.142 0v-2.141h2.142v2.141zm-2.142 0v-2.141H25.7v2.141zm-2.142 0v-2.141h2.142v2.141zm-2.141 0v-2.141h2.141v2.141zm-6.425 0v-2.141h2.142v2.141zM0 34.266v-2.141h2.142v2.141zm36.408-2.141v-2.142h2.142v2.142zm-6.425 0v-2.142h2.142v2.142zm-8.567 0v-2.142h2.142v2.142zm-4.283 0v-2.142h2.142v2.142zm-4.284 0v-2.142h2.142v2.142zm-2.142 0v-2.142h2.143v2.142zm-2.142 0v-2.142h2.142v2.142zm-2.141 0v-2.142h2.142v2.142zm-2.142 0v-2.142h2.143v2.142zm-2.142 0v-2.142h2.143v2.142zm-2.14 0v-2.142h2.142v2.142zm40.691-2.142v-2.142h2.142v2.142zm-10.708 0v-2.142h2.142v2.142zm-8.567 0v-2.142h2.142v2.142zm-4.283 0v-2.142h2.142v2.142zm23.558-2.142V25.7h2.142v2.142zm-2.142 0V25.7h2.142v2.142zm-2.142 0V25.7h2.142v2.142zm-2.142 0V25.7h2.142v2.142zm-2.141 0V25.7h2.141v2.142zm-2.142 0V25.7h2.142v2.142zm-2.142 0V25.7h2.142v2.142zm-4.283 0V25.7H25.7v2.142zm-2.142 0V25.7h2.142v2.142zm-2.141 0V25.7h2.141v2.142zm-6.425 0V25.7h2.142v2.142zm-4.283 0V25.7h2.142v2.142zm-2.141 0V25.7h2.141v2.142zm-4.283 0V25.7h2.141v2.142zm-2.142 0V25.7h2.142v2.142zM42.833 25.7v-2.142h2.142V25.7zm-2.142 0v-2.142h2.142V25.7zm-2.142 0v-2.142h2.142V25.7zm-2.142 0v-2.142h2.142V25.7zm-6.425 0v-2.142h2.142V25.7zm-2.142 0v-2.142h2.142V25.7zm-2.142 0v-2.142h2.142V25.7zm-4.283 0v-2.142h2.142V25.7zm-2.141 0v-2.142h2.141V25.7zm-2.142 0v-2.142h2.142V25.7zm-6.425 0v-2.142h2.143V25.7zm29.983-2.142v-2.142h2.142v2.142zm-8.566 0v-2.142h2.141v2.142zm-2.142 0v-2.142h2.142v2.142zm-2.142 0v-2.142h2.142v2.142zm-10.708 0v-2.142h2.142v2.142zm-2.142 0v-2.142h2.142v2.142zm-2.142 0v-2.142h2.142v2.142zm-2.142 0v-2.142h2.144v2.142zm-6.425 0v-2.142h2.144v2.142zm-4.281 0v-2.142h2.142v2.142zm42.833-2.142v-2.141h2.142v2.141zm-2.142 0v-2.141h2.142v2.141zm-4.283 0v-2.141h2.142v2.141zm-4.283 0v-2.141h2.141v2.141zm-2.142 0v-2.141h2.142v2.141zm-6.425 0v-2.141H25.7v2.141zm-2.142 0v-2.141h2.142v2.141zm-2.141 0v-2.141h2.141v2.141zm-8.567 0v-2.141h2.142v2.141zm-2.142 0v-2.141h2.142v2.141zm34.267-2.141v-2.142h2.142v2.142zm-2.142 0v-2.142h2.142v2.142zm-2.142 0v-2.142h2.142v2.142zm-4.283 0v-2.142h2.142v2.142zm-2.141 0v-2.142h2.141v2.142zm-2.142 0v-2.142h2.142v2.142zm-2.142 0v-2.142h2.142v2.142zm-8.566 0v-2.142h2.141v2.142zm-2.142 0v-2.142h2.142v2.142zm-2.142 0v-2.142h2.142v2.142zm-2.142 0v-2.142h2.142v2.142zm-8.566 0v-2.142h2.142v2.142zM25.7 17.133v-2.142h2.142v2.142zm-4.283 0v-2.142h2.142v2.142zm-4.283 0v-2.142h2.142v2.142zm25.7-2.142V12.85h2.142v2.142zm-2.142 0V12.85h2.142v2.142zm-2.142 0V12.85h2.142v2.142zm-2.142 0V12.85h2.142v2.142zm-2.142 0V12.85h2.142v2.142zm-2.141 0V12.85h2.141v2.142zm-2.142 0V12.85h2.142v2.142zm-4.284 0V12.85h2.142v2.142zm-4.283 0V12.85h2.142v2.142zm-4.283 0V12.85h2.142v2.142zm-4.284 0V12.85h2.142v2.142zm-2.142 0V12.85h2.143v2.142zm-2.142 0V12.85h2.142v2.142zm-2.141 0V12.85h2.142v2.142zm-2.142 0V12.85h2.143v2.142zm-2.142 0V12.85h2.143v2.142zm-2.14 0V12.85h2.142v2.142zm42.833-2.141v-2.142h2.142v2.142zm-12.85 0v-2.142h2.142v2.142zm-10.708 0v-2.142h2.141v2.142zm-2.142 0v-2.142h2.142v2.142zm-4.284 0v-2.142h2.142v2.142zM0 12.85v-2.142h2.142v2.142zm42.833-2.142V8.566h2.142v2.142zm-4.284 0V8.566h2.142v2.142zm-2.142 0V8.566h2.142v2.142zm-2.142 0V8.566h2.142v2.142zm-4.283 0V8.566h2.142v2.142zm-4.284 0V8.566h2.142v2.142zm-6.425 0V8.566h2.141v2.142zm-2.142 0V8.566h2.142v2.142zm-4.284 0V8.566h2.142v2.142zm-4.283 0V8.566h2.142v2.142zm-2.141 0V8.566h2.143v2.142zm-2.142 0V8.566h2.144v2.142zm-4.281 0V8.566h2.142v2.142zm42.833-2.142V6.425h2.142v2.141zm-4.284 0V6.425h2.142v2.141zm-2.142 0V6.425h2.142v2.141zm-2.142 0V6.425h2.142v2.141zm-4.283 0V6.425h2.142v2.141zm-4.284 0V6.425h2.142v2.141zm-12.85 0V6.425h2.142v2.141zm-4.283 0V6.425h2.142v2.141zm-2.141 0V6.425h2.142v2.141zm-2.142 0V6.425h2.143v2.141zM0 8.566V6.425h2.142v2.141zm42.833-2.141V4.283h2.142v2.142zm-4.284 0V4.283h2.142v2.142zm-2.142 0V4.283h2.142v2.142zm-2.142 0V4.283h2.142v2.142zm-4.283 0V4.283h2.142v2.142zm-6.425 0V4.283H25.7v2.142zm-4.283 0V4.283h2.141v2.142zm-2.142 0V4.283h2.142v2.142zm-4.284 0V4.283h2.142v2.142zm-4.283 0V4.283h2.142v2.142zm-2.141 0V4.283h2.142v2.142zm-2.142 0V4.283h2.143v2.142zM0 6.425V4.283h2.142v2.142zm42.833-2.142V2.142h2.142v2.141zm-12.85 0V2.142h2.142v2.141zm-4.284 0V2.142h2.142v2.141zm-2.142 0V2.142H25.7v2.141zm-2.142 0V2.142h2.142v2.141zm-2.141 0V2.142h2.141v2.141zm-2.142 0V2.142h2.142v2.141zm-4.284 0V2.142h2.142v2.141zM0 4.283V2.142h2.142v2.141zm42.833-2.141V0h2.142v2.142zm-2.142 0V0h2.142v2.142zm-2.142 0V0h2.142v2.142zm-2.142 0V0h2.142v2.142zm-2.142 0V0h2.142v2.142zm-2.141 0V0h2.141v2.142zm-2.142 0V0h2.142v2.142zm-6.425 0V0H25.7v2.142zm-2.142 0V0h2.142v2.142zm-4.283 0V0h2.142v2.142zm-4.284 0V0h2.142v2.142zm-2.142 0V0h2.144v2.142zm-2.142 0V0h2.142v2.142zm-2.141 0V0h2.143v2.142zm-2.142 0V0h2.144v2.142zm-2.142 0V0h2.144v2.142zM0 2.142V0h2.142v2.142z" class="cls-6" transform="translate(8.566 8.566)"/>
                <path d="M44.975 44.974h-2.142v-2.141h2.142v2.141zm-4.284 0H38.55v-2.141h2.142v2.141zm-6.425 0h-2.141v-2.141h2.141v2.141zm-2.141 0h-2.142v-2.141h2.142v2.141zm-2.142 0h-2.142v-2.141h2.142v2.141zm-2.142 0H25.7v-2.141h2.141v2.141zm-2.141 0h-2.142v-2.141H25.7v2.141zm-2.142 0h-2.142v-2.141h2.142v2.141zm-2.142 0h-2.141v-2.141h2.141v2.141zm-6.424 0H12.85v-2.141h2.142v2.141zm-2.142 0h-2.142v-2.141h2.142v2.141zm-2.142 0H8.566v-2.141h2.142v2.141zm-2.142 0h-2.14v-2.141h2.14v2.141zm-2.14 0H4.282v-2.141h2.142v2.141zm-2.143 0H2.142v-2.141h2.141v2.141zm-2.141 0H0v-2.141h2.142v2.141zm42.833-2.141h-2.142V40.69h2.142v2.142zm-2.142 0H40.69V40.69h2.142v2.142zm-4.284 0h-2.141V40.69h2.141v2.142zm-2.141 0h-2.142V40.69h2.142v2.142zm-2.142 0h-2.141V40.69h2.141v2.142zm-2.141 0h-2.142V40.69h2.142v2.142zm-2.142 0h-2.142V40.69h2.142v2.142zm-4.283 0h-2.142V40.69H25.7v2.142zm-2.142 0h-2.142V40.69h2.142v2.142zm-2.142 0h-2.141V40.69h2.141v2.142zm-6.424 0H12.85V40.69h2.142v2.142zm-12.85 0H0V40.69h2.142v2.142zm29.983-2.142h-2.142V38.55h2.142v2.142zm-8.567 0h-2.142V38.55h2.142v2.142zm-2.142 0h-2.141V38.55h2.141v2.142zm-2.141 0h-2.142V38.55h2.142v2.142zm-4.283 0H12.85V38.55h2.142v2.142zm-4.284 0H8.566V38.55h2.142v2.142zm-2.142 0h-2.14V38.55h2.14v2.142zm-2.14 0H4.282V38.55h2.142v2.142zm-4.284 0H0V38.55h2.142v2.142zm38.55-2.142h-2.143v-2.141h2.142v2.141zm-2.143 0h-2.141v-2.141h2.141v2.141zm-10.708 0H25.7v-2.141h2.141v2.141zm-4.283 0h-2.142v-2.141h2.142v2.141zm-2.142 0h-2.141v-2.141h2.141v2.141zm-6.424 0H12.85v-2.141h2.142v2.141zm-4.284 0H8.566v-2.141h2.142v2.141zm-2.142 0h-2.14v-2.141h2.14v2.141zm-2.14 0H4.282v-2.141h2.142v2.141zm-4.284 0H0v-2.141h2.142v2.141zm40.69-2.141h-2.14v-2.142h2.14v2.142zm-2.14 0h-2.143v-2.142h2.142v2.142zm-2.143 0h-2.141v-2.142h2.141v2.142zm-2.141 0h-2.142v-2.142h2.142v2.142zm-2.142 0h-2.141v-2.142h2.141v2.142zm-2.141 0h-2.142v-2.142h2.142v2.142zm-2.142 0h-2.142v-2.142h2.142v2.142zm-2.142 0H25.7v-2.142h2.141v2.142zm-2.141 0h-2.142v-2.142H25.7v2.142zm-2.142 0h-2.142v-2.142h2.142v2.142zm-2.142 0h-2.141v-2.142h2.141v2.142zm-6.424 0H12.85v-2.142h2.142v2.142zm-4.284 0H8.566v-2.142h2.142v2.142zm-2.142 0h-2.14v-2.142h2.14v2.142zm-2.14 0H4.282v-2.142h2.142v2.142zm-4.284 0H0v-2.142h2.142v2.142zm42.833-2.142h-2.142v-2.141h2.142v2.141zm-4.284 0H38.55v-2.141h2.142v2.141zm-2.142 0h-2.141v-2.141h2.141v2.141zm-2.141 0h-2.142v-2.141h2.142v2.141zm-2.142 0h-2.141v-2.141h2.141v2.141zm-2.141 0h-2.142v-2.141h2.142v2.141zm-2.142 0h-2.142v-2.141h2.142v2.141zm-2.142 0H25.7v-2.141h2.141v2.141zm-2.141 0h-2.142v-2.141H25.7v2.141zm-2.142 0h-2.142v-2.141h2.142v2.141zm-2.142 0h-2.141v-2.141h2.141v2.141zm-6.424 0H12.85v-2.141h2.142v2.141zm-12.85 0H0v-2.141h2.142v2.141zm36.407-2.141h-2.141v-2.142h2.141v2.142zm-6.424 0h-2.142v-2.142h2.142v2.142zm-8.567 0h-2.142v-2.142h2.142v2.142zm-4.283 0h-2.142v-2.142h2.142v2.142zm-4.283 0H12.85v-2.142h2.142v2.142zm-2.142 0h-2.142v-2.142h2.142v2.142zm-2.142 0H8.566v-2.142h2.142v2.142zm-2.142 0h-2.14v-2.142h2.14v2.142zm-2.14 0H4.282v-2.142h2.142v2.142zm-2.143 0H2.142v-2.142h2.141v2.142zm-2.141 0H0v-2.142h2.142v2.142zm40.69-2.142h-2.14v-2.142h2.14v2.142zm-10.707 0h-2.142v-2.142h2.142v2.142zm-8.567 0h-2.142v-2.142h2.142v2.142zm-4.283 0h-2.142v-2.142h2.142v2.142zm23.558-2.142H40.69V25.7h2.142v2.141zm-2.142 0H38.55V25.7h2.142v2.141zm-2.142 0h-2.141V25.7h2.141v2.141zm-2.141 0h-2.142V25.7h2.142v2.141zm-2.142 0h-2.141V25.7h2.141v2.141zm-2.141 0h-2.142V25.7h2.142v2.141zm-2.142 0h-2.142V25.7h2.142v2.141zm-4.283 0h-2.142V25.7H25.7v2.141zm-2.142 0h-2.142V25.7h2.142v2.141zm-2.142 0h-2.141V25.7h2.141v2.141zm-6.424 0H12.85V25.7h2.142v2.141zm-4.284 0H8.566V25.7h2.142v2.141zm-2.142 0h-2.14V25.7h2.14v2.141zm-4.283 0H2.142V25.7h2.141v2.141zm-2.141 0H0V25.7h2.142v2.141zM44.975 25.7h-2.142v-2.142h2.142V25.7zm-2.142 0H40.69v-2.142h2.142V25.7zm-2.142 0H38.55v-2.142h2.142V25.7zm-2.142 0h-2.141v-2.142h2.141V25.7zm-6.424 0h-2.142v-2.142h2.142V25.7zm-2.142 0h-2.142v-2.142h2.142V25.7zm-2.142 0H25.7v-2.142h2.141V25.7zm-4.283 0h-2.142v-2.142h2.142V25.7zm-2.142 0h-2.141v-2.142h2.141V25.7zm-2.141 0h-2.142v-2.142h2.142V25.7zm-6.425 0h-2.142v-2.142h2.142V25.7zm29.983-2.142H40.69v-2.142h2.142v2.142zm-8.567 0h-2.141v-2.142h2.141v2.142zm-2.141 0h-2.142v-2.142h2.142v2.142zm-2.142 0h-2.142v-2.142h2.142v2.142zm-10.708 0h-2.142v-2.142h2.142v2.142zm-2.142 0h-2.141v-2.142h2.141v2.142zm-2.141 0H12.85v-2.142h2.142v2.142zm-2.142 0h-2.142v-2.142h2.142v2.142zm-6.425 0H4.283v-2.142h2.142v2.142zm-4.283 0H0v-2.142h2.142v2.142zm42.833-2.142h-2.142v-2.141h2.142v2.141zm-2.142 0H40.69v-2.141h2.142v2.141zm-4.284 0h-2.141v-2.141h2.141v2.141zm-4.283 0h-2.141v-2.141h2.141v2.141zm-2.141 0h-2.142v-2.141h2.142v2.141zm-6.425 0h-2.142v-2.141H25.7v2.141zm-2.142 0h-2.142v-2.141h2.142v2.141zm-2.142 0h-2.141v-2.141h2.141v2.141zm-8.566 0h-2.142v-2.141h2.142v2.141zm-2.142 0H8.566v-2.141h2.142v2.141zm34.267-2.141h-2.142v-2.142h2.142v2.142zm-2.142 0H40.69v-2.142h2.142v2.142zm-2.142 0H38.55v-2.142h2.142v2.142zm-4.283 0h-2.142v-2.142h2.142v2.142zm-2.142 0h-2.141v-2.142h2.141v2.142zm-2.141 0h-2.142v-2.142h2.142v2.142zm-2.142 0h-2.142v-2.142h2.142v2.142zm-8.567 0h-2.141v-2.142h2.141v2.142zm-2.141 0h-2.142v-2.142h2.142v2.142zm-2.142 0h-2.141v-2.142h2.141v2.142zm-2.141 0H12.85v-2.142h2.142v2.142zm-8.567 0H4.283v-2.142h2.142v2.142zm21.416-2.142H25.7v-2.142h2.141v2.142zm-4.283 0h-2.142v-2.142h2.142v2.142zm-4.283 0h-2.142v-2.142h2.142v2.142zm25.7-2.142h-2.142V12.85h2.142v2.141zm-2.142 0H40.69V12.85h2.142v2.141zm-2.142 0H38.55V12.85h2.142v2.141zm-2.142 0h-2.141V12.85h2.141v2.141zm-2.141 0h-2.142V12.85h2.142v2.141zm-2.142 0h-2.141V12.85h2.141v2.141zm-2.141 0h-2.142V12.85h2.142v2.141zm-4.284 0H25.7V12.85h2.141v2.141zm-4.283 0h-2.142V12.85h2.142v2.141zm-4.283 0h-2.142V12.85h2.142v2.141zm-4.283 0H12.85V12.85h2.142v2.141zm-2.142 0h-2.142V12.85h2.142v2.141zm-2.142 0H8.566V12.85h2.142v2.141zm-2.142 0h-2.14V12.85h2.14v2.141zm-2.14 0H4.282V12.85h2.142v2.141zm-2.143 0H2.142V12.85h2.141v2.141zm-2.141 0H0V12.85h2.142v2.141zm42.833-2.141h-2.142v-2.142h2.142v2.142zm-12.85 0h-2.142v-2.142h2.142v2.142zm-10.709 0h-2.141v-2.142h2.141v2.142zm-2.141 0h-2.142v-2.142h2.142v2.142zm-4.283 0H12.85v-2.142h2.142v2.142zm-12.85 0H0v-2.142h2.142v2.142zm42.833-2.142h-2.142V8.566h2.142v2.142zm-4.284 0H38.55V8.566h2.142v2.142zm-2.142 0h-2.141V8.566h2.141v2.142zm-2.141 0h-2.142V8.566h2.142v2.142zm-4.283 0h-2.142V8.566h2.142v2.142zm-4.284 0H25.7V8.566h2.141v2.142zm-6.425 0h-2.141V8.566h2.141v2.142zm-2.141 0h-2.142V8.566h2.142v2.142zm-4.283 0H12.85V8.566h2.142v2.142zm-4.284 0H8.566V8.566h2.142v2.142zm-2.142 0h-2.14V8.566h2.14v2.142zm-2.14 0H4.282V8.566h2.142v2.142zm-4.284 0H0V8.566h2.142v2.142zm42.833-2.142h-2.142v-2.14h2.142v2.14zm-4.284 0H38.55v-2.14h2.142v2.14zm-2.142 0h-2.141v-2.14h2.141v2.14zm-2.141 0h-2.142v-2.14h2.142v2.14zm-4.283 0h-2.142v-2.14h2.142v2.14zm-4.284 0H25.7v-2.14h2.141v2.14zm-12.85 0H12.85v-2.14h2.142v2.14zm-4.283 0H8.566v-2.14h2.142v2.14zm-2.142 0h-2.14v-2.14h2.14v2.14zm-2.14 0H4.282v-2.14h2.142v2.14zm-4.284 0H0v-2.14h2.142v2.14zm42.833-2.14h-2.142V4.282h2.142v2.142zm-4.284 0H38.55V4.282h2.142v2.142zm-2.142 0h-2.141V4.282h2.141v2.142zm-2.141 0h-2.142V4.282h2.142v2.142zm-4.283 0h-2.142V4.282h2.142v2.142zm-6.425 0h-2.142V4.282H25.7v2.142zm-4.284 0h-2.141V4.282h2.141v2.142zm-2.141 0h-2.142V4.282h2.142v2.142zm-4.283 0H12.85V4.282h2.142v2.142zm-4.284 0H8.566V4.282h2.142v2.142zm-2.142 0h-2.14V4.282h2.14v2.142zm-2.14 0H4.282V4.282h2.142v2.142zm-4.284 0H0V4.282h2.142v2.142zm42.833-2.143h-2.142V2.142h2.142v2.141zm-12.85 0h-2.142V2.142h2.142v2.141zm-4.284 0H25.7V2.142h2.141v2.141zm-2.141 0h-2.142V2.142H25.7v2.141zm-2.142 0h-2.142V2.142h2.142v2.141zm-2.142 0h-2.141V2.142h2.141v2.141zm-2.141 0h-2.142V2.142h2.142v2.141zm-4.283 0H12.85V2.142h2.142v2.141zm-12.85 0H0V2.142h2.142v2.141zm42.833-2.141h-2.142V0h2.142v2.142zm-2.142 0H40.69V0h2.142v2.142zm-2.142 0H38.55V0h2.142v2.142zm-2.142 0h-2.141V0h2.141v2.142zm-2.141 0h-2.142V0h2.142v2.142zm-2.142 0h-2.141V0h2.141v2.142zm-2.141 0h-2.142V0h2.142v2.142zm-6.425 0h-2.142V0H25.7v2.142zm-2.142 0h-2.142V0h2.142v2.142zm-4.283 0h-2.142V0h2.142v2.142zm-4.283 0H12.85V0h2.142v2.142zm-2.142 0h-2.142V0h2.142v2.142zm-2.142 0H8.566V0h2.142v2.142zm-2.142 0h-2.14V0h2.14v2.142zm-2.14 0H4.282V0h2.142v2.142zm-2.143 0H2.142V0h2.141v2.142zm-2.141 0H0V0h2.142v2.142z" class="cls-8" transform="translate(8.566 8.566)"/>
            </g>
        </g>
        <text id="_0.9_BFF" class="cls-3" data-name="0.9 BFF" transform="translate(8.722 57.694)">
            <tspan x="0" y="0">0.9 BFF</tspan>
        </text>
        <text id="Get_your_Bitback" class="cls-3" data-name="Get your Bitback" transform="translate(31.58 57.694)">
            <tspan x="0" y="0">Get your Bitback</tspan>
        </text>
        <g id="Group_1" data-name="Group 1" transform="translate(38.197 2.966)">
            <path id="Path_1" d="M201.312 655.984h.651a1.108 1.108 0 0 1 .565.113.383.383 0 0 1 .184.352.445.445 0 0 1-.08.268.359.359 0 0 1-.212.143v.013a.434.434 0 0 1 .252.153.462.462 0 0 1 .078.278.477.477 0 0 1-.191.4.836.836 0 0 1-.52.146h-.727zm.5.716h.152a.274.274 0 0 0 .168-.045.156.156 0 0 0 .059-.133q0-.157-.238-.157h-.142zm0 .369v.392h.177q.236 0 .236-.2a.172.172 0 0 0-.063-.143.291.291 0 0 0-.183-.05z" class="cls-4" data-name="Path 1" transform="translate(-201.312 -655.955)"/>
            <path id="Path_2" d="M224.679 657.851v-1.867h.507v1.867z" class="cls-4" data-name="Path 2" transform="translate(-222.917 -655.955)"/>
            <path id="Path_3" d="M235.9 657.851h-.5V656.4h-.456v-.413h1.415v.413h-.459z" class="cls-4" data-name="Path 3" transform="translate(-232.404 -655.955)"/>
            <path id="Path_4" d="M257.227 656.042a.322.322 0 0 0-.281.148.712.712 0 0 0-.1.407q0 .539.41.539a.837.837 0 0 0 .24-.035 2.4 2.4 0 0 0 .234-.083v.427a1.293 1.293 0 0 1-.529.1.837.837 0 0 1-.648-.245 1.012 1.012 0 0 1-.225-.709 1.131 1.131 0 0 1 .109-.51.782.782 0 0 1 .314-.338.95.95 0 0 1 .482-.118 1.329 1.329 0 0 1 .579.132l-.155.4a1.748 1.748 0 0 0-.207-.082.725.725 0 0 0-.223-.033z" class="cls-4" data-name="Path 4" transform="translate(-252.178 -655.625)"/>
            <path id="Path_5" d="M280.646 656.554a1.007 1.007 0 0 1-.231.716 1.05 1.05 0 0 1-1.351 0 1.21 1.21 0 0 1 0-1.43 1.057 1.057 0 0 1 1.353 0 1.008 1.008 0 0 1 .229.714zm-1.285 0q0 .541.377.542a.324.324 0 0 0 .284-.132.955.955 0 0 0 0-.823.321.321 0 0 0-.28-.133q-.381 0-.381.546z" class="cls-4" data-name="Path 5" transform="translate(-272.983 -655.594)"/>
            <path id="Path_6" d="M307.876 657.851h-.5v-1.867h1.1v.4h-.607v.356h.559v.4h-.559z" class="cls-4" data-name="Path 6" transform="translate(-299.379 -655.955)"/>
            <path id="Path_7" d="M326.569 657.851h-.5v-1.867h1.1v.4h-.607v.356h.559v.4h-.559z" class="cls-4" data-name="Path 7" transform="translate(-316.662 -655.955)"/>
            <path id="Path_8" d="M345.875 657.851h-1.109v-1.867h1.109v.4h-.6v.294h.559v.4h-.559v.352h.6z" class="cls-4" data-name="Path 8" transform="translate(-333.946 -655.955)"/>
            <path id="Path_9" d="M364.907 657.851H363.8v-1.867h1.109v.4h-.6v.294h.559v.4h-.568v.352h.6z" class="cls-4" data-name="Path 9" transform="translate(-351.543 -655.955)"/>
            <path id="Path_10" d="M384.609 657.851h-.662l-.682-1.315h-.011q.024.31.024.474v.842h-.447v-1.867h.659l.68 1.3h.008q-.018-.282-.018-.453v-.844h.45z" class="cls-4" data-name="Path 10" transform="translate(-369.14 -655.955)"/>
        </g>
        <g id="Group_7" data-name="Group 7" transform="translate(53.68 1.92)">
            <path id="Path_30" d="M406.6 641.736h.438v.115h-.147v.351h-.144v-.351h-.147z" class="cls-4" data-name="Path 30" transform="translate(-406.599 -641.736)"/>
            <path id="Path_31" d="M413.251 641.736h.189l.073.284.073-.284h.189v.466h-.118v-.356l-.091.356h-.107l-.091-.356v.356h-.118z" class="cls-4" data-name="Path 31" transform="translate(-412.749 -641.736)"/>
        </g>
    </g>
    <text id="Scan_QR" class="cls-5" data-name="Scan QR" transform="translate(55.804 114.804)">
        <tspan x="-28.68" y="0">Scan QR</tspan>
    </text>
</svg>
