<svg xmlns="http://www.w3.org/2000/svg" width="120" height="90" viewBox="0 0 120 90">
    <defs>
        <filter id="prefix__Polygon_15" width="84" height="69" x="0" y="11" filterUnits="userSpaceOnUse">
            <feOffset dy="3"/>
            <feGaussianBlur result="blur" stdDeviation="3"/>
            <feFlood flood-opacity=".627"/>
            <feComposite in2="blur" operator="in"/>
            <feComposite in="SourceGraphic"/>
        </filter>
        <filter id="prefix__Subtraction_3" width="90" height="90" x="30" y="0" filterUnits="userSpaceOnUse">
            <feOffset dy="3"/>
            <feGaussianBlur result="blur-2" stdDeviation="6"/>
            <feFlood flood-opacity=".557"/>
            <feComposite in2="blur-2" operator="in"/>
            <feComposite in="SourceGraphic"/>
        </filter>
        <radialGradient id="prefix__radial-gradient" cx=".5" cy=".5" r=".466" gradientTransform="matrix(1 0 0 .972 0 .014)" gradientUnits="objectBoundingBox">
            <stop offset="0" stop-color="#720707"/>
            <stop offset=".764" stop-color="#780909"/>
            <stop offset=".897" stop-color="#c92323"/>
            <stop offset="1" stop-color="#d32626"/>
        </radialGradient>
        <style>
            .prefix__cls-4,.prefix__cls-5{fill:#f9b034}.prefix__cls-5{fill-rule:evenodd}
        </style>
    </defs>
    <g id="prefix__Group_3750" data-name="Group 3750" transform="rotate(90 43.523 58.478)">
        <g transform="rotate(-90 43.525 58.475)">
            <g id="prefix__Polygon_15-2" data-name="Polygon 15" style="fill:none">
                <path d="M25.5 0L51 66H0z" style="stroke:none" transform="rotate(-90 38.5 29.5)"/>
                <path d="M25.5 19.423L10.209 59H40.79L25.5 19.423M25.5 0L51 66H0L25.5 0z" style="stroke:none;fill:#f9b034" transform="rotate(-90 38.5 29.5)"/>
            </g>
        </g>
        <g id="prefix__Group_3738" data-name="Group 3738">
            <circle id="prefix__Ellipse_72" cx="27" cy="27" r="27" data-name="Ellipse 72" transform="translate(.045)"/>
            <g transform="rotate(-90 43.525 58.475)">
                <path id="prefix__Subtraction_3-2" d="M27 54a26.874 26.874 0 0 1-15.1-4.611 27.076 27.076 0 0 1-9.782-11.88A26.964 26.964 0 0 1 4.611 11.9a27.074 27.074 0 0 1 11.88-9.778A26.966 26.966 0 0 1 42.1 4.611a27.079 27.079 0 0 1 9.778 11.879 26.966 26.966 0 0 1-2.489 25.61 27.081 27.081 0 0 1-11.879 9.778A26.837 26.837 0 0 1 27 54zm0-49.286a22.213 22.213 0 1 0 8.674 1.751A22.156 22.156 0 0 0 27 4.714z" data-name="Subtraction 3" transform="rotate(90 43.5 58.5)" style="fill:#222"/>
            </g>
            <g id="prefix__Group_5" data-name="Group 5" transform="rotate(-90 26.822 14.821)">
                <g id="prefix__Group_2" data-name="Group 2">
                    <path id="prefix__Path_11" d="M137.221 279.213a13.888 13.888 0 1 0 25.4-7.765 3.3 3.3 0 0 1-.374.7 13.185 13.185 0 1 1-6.088-5.123 3.8 3.8 0 0 1 .223-.655 13.882 13.882 0 0 0-19.158 12.846z" class="prefix__cls-4" data-name="Path 11" transform="translate(-136.287 -264.392)"/>
                    <path id="prefix__Path_12" d="M161.155 268.5a4.514 4.514 0 0 1-.106.669 14.32 14.32 0 1 1-6.2-4.942 2.948 2.948 0 0 1 .3-.4 14.863 14.863 0 1 0 6 4.67z" class="prefix__cls-4" data-name="Path 12" transform="translate(-134.551 -262.656)"/>
                </g>
                <g id="prefix__Group_3" data-name="Group 3" transform="translate(3.549 5.269)">
                    <path id="prefix__Path_13" d="M165.683 289.791a2.626 2.626 0 0 1-.854.708 5.677 5.677 0 0 1-.582.273 3.509 3.509 0 0 0-.281-.579 3.885 3.885 0 0 0-.717-.866 8.251 8.251 0 0 0-4.175-1.615 7.614 7.614 0 0 0 3.327-1.624 3.855 3.855 0 0 0 .392-.428l-.22-.075a12.792 12.792 0 0 0-3-.624 2.812 2.812 0 0 1-.741 1.482 4.018 4.018 0 0 1-2.857.835h-1.94v-5.762a.8.8 0 0 1 .3-.719 3.047 3.047 0 0 1 1.4-.2 5.012 5.012 0 0 1 3.135.707 2.3 2.3 0 0 1 .711 1.27 4.353 4.353 0 0 1 .1.651q-.319-.026-.647-.045-.832-.047-1.725-.048-1.362 0-2.624.1v1.145a17.02 17.02 0 0 1 2.142-.133q.284 0 .563.01c.189-.006.38-.01.576-.01q.546 0 1.067.03.324.018.639.048a13.351 13.351 0 0 1 3.12.654l.367.124c.215.072.418.141.609.215a3.185 3.185 0 0 1 .926.515h2.131l-.025-.2-.265-2.489h-.992l-1.225.943-.186-.051q-.317-.088-.628-.166c.01-.111.015-.224.015-.34s-.006-.215-.014-.321a3.589 3.589 0 0 0-1.38-2.551 5.81 5.81 0 0 0-3.82-1.155h-.062v-1.783H156.7v1.783h-1.838v-1.783h-1.538v1.783h-5.442v1.08h1.336a1.561 1.561 0 0 1 .877.186.573.573 0 0 1 .262.488v9.072a4.525 4.525 0 0 1-.642-.511 2.493 2.493 0 0 1-.843-1.727v-.058a2.413 2.413 0 0 1 .844-1.743v-2.2c-.273.079-.542.162-.8.251q-4.151 1.405-4.2 3.748v.056q0 2.148 3.646 3.524.661.25 1.364.454.316.092.642.174a23.611 23.611 0 0 0 3.681.613q.316.029.642.051c.8.056 1.635.084 2.52.084.941 0 1.815-.037 2.636-.109.224-.02.445-.042.661-.067a18.033 18.033 0 0 0 3.6-.768c.134-.044.263-.09.387-.136q.336-.126.626-.263a4.25 4.25 0 0 0 2.043-1.776zm-5.785 1.976c-.564.044-1.161.068-1.8.068q-.43 0-.832-.014-.318.013-.644.013a16.841 16.841 0 0 1-1.95-.111q-.327-.038-.642-.089v-3.276h2.613a4.036 4.036 0 0 1 2.9.958 3.2 3.2 0 0 1 .907 1.754 5.021 5.021 0 0 1 .079.636q-.305.035-.629.06z" class="prefix__cls-4" data-name="Path 13" transform="translate(-144.701 -277.725)"/>
                    <path id="prefix__Path_14" d="M166.247 321.332a2.823 2.823 0 0 1-.722 1.168 3.567 3.567 0 0 1-2.572.894h-2.229a.7.7 0 0 1-.569-.256 1.149 1.149 0 0 1-.209-.743v-1.038a24.31 24.31 0 0 1-3.681-.6v1.587a1.218 1.218 0 0 1-.279.8.767.767 0 0 1-.616.244h-1.58v1.08h5.442v1.418h1.538v-1.418h1.838v1.418h1.538v-1.427a9.918 9.918 0 0 0 3.18-.584 5.16 5.16 0 0 0 2.189-1.36 3.856 3.856 0 0 0 .855-2.064l-.162.055a18.981 18.981 0 0 1-3.961.826z" class="prefix__cls-4" data-name="Path 14" transform="translate(-150.612 -305.516)"/>
                </g>
                <g id="prefix__Group_4" data-name="Group 4" transform="translate(20.461 .967)">
                    <path id="prefix__Path_15" d="M195.178 265.421a2.032 2.032 0 0 1 1.383 1.419 1.057 1.057 0 0 0-.789.126.7.7 0 0 0-.076.045 1.872 1.872 0 0 0-.313.253q.038-.156.073-.313a1.508 1.508 0 0 0-.278-1.529zm-.323 5.6c-1.008-.045-1.8-1.3-1.789-2.83a3.875 3.875 0 0 1 .334-1.568 2.726 2.726 0 0 1 .291-.482 2.042 2.042 0 0 1 .155-.182c.639-.66 1.247-.371 1.206.506a2.456 2.456 0 0 1-.04.335 16.653 16.653 0 0 0-.569 3.025 1.375 1.375 0 0 0 .411 1.2z" class="prefix__cls-5" data-name="Path 15" transform="translate(-193.065 -265.421)"/>
                    <path id="prefix__Path_16" d="M200.371 270.092a2.089 2.089 0 0 1 1.439 1.523 3.99 3.99 0 0 1 .2 1.151 3.813 3.813 0 0 1-.509 2.05c-.551.914-1.309.833-1.348-.236a12.184 12.184 0 0 1 .514-2.964 1.505 1.505 0 0 0-.294-1.524zm-.264 5.594c-1.006-.035-1.815-1.278-1.815-2.806a3.873 3.873 0 0 1 .317-1.569 2.71 2.71 0 0 1 .286-.485 1.95 1.95 0 0 1 .153-.183c.631-.666 1.241-.383 1.21.492a2.421 2.421 0 0 1-.037.335 16.651 16.651 0 0 0-.536 3.026 1.374 1.374 0 0 0 .423 1.19z" class="prefix__cls-5" data-name="Path 16" transform="translate(-196.464 -268.459)"/>
                </g>
            </g>
        </g>
    </g>
</svg>
