<svg xmlns="http://www.w3.org/2000/svg" width="62.295" height="53.296" viewBox="0 0 62.295 53.296">
    <defs>
        <style>
            .cls-1{fill:#f6d738}.cls-2{fill:#f3cc30}.cls-3{fill:#edbd31}.cls-4{fill:#f7db5e}.cls-5{fill:#a5622b}
        </style>
    </defs>
    <g id="Group_680" data-name="Group 680" transform="translate(-654.852 -494.852)">
        <g id="Group_650" data-name="Group 650" transform="translate(411.352 251.352)">
            <g id="Group_644" data-name="Group 644" transform="translate(243.5 243.5)">
                <circle id="Ellipse_116" cx="18.648" cy="18.648" r="18.648" class="cls-1" data-name="Ellipse 116"/>
            </g>
            <g id="Group_645" data-name="Group 645" transform="translate(246.322 246.322)">
                <circle id="Ellipse_117" cx="15.826" cy="15.826" r="15.826" class="cls-2" data-name="Ellipse 117"/>
            </g>
            <g id="Group_646" data-name="Group 646" transform="translate(248.812 248.64)">
                <path id="Path_2321" d="M355.551 331.017a15.828 15.828 0 0 1-21.616 22.014 15.827 15.827 0 1 0 21.616-22.014z" class="cls-3" data-name="Path 2321" transform="translate(-333.935 -331.017)"/>
            </g>
            <g id="Group_647" data-name="Group 647" transform="translate(248.054 248.072)">
                <path id="Path_2322" d="M322.079 336.872a13.97 13.97 0 0 1 25.045-8.516 13.971 13.971 0 1 0-23.188 15.479 13.906 13.906 0 0 1-1.857-6.963z" class="cls-4" data-name="Path 2322" transform="translate(-321.039 -321.348)"/>
            </g>
            <g id="Group_649" data-name="Group 649" transform="translate(254.118 255.693)">
                <path id="Path_13" d="M282.838 574.607a1.92 1.92 0 0 1-.623.516 4.213 4.213 0 0 1-.425.2 2.535 2.535 0 0 0-.205-.422 2.833 2.833 0 0 0-.523-.632 6.018 6.018 0 0 0-3.046-1.179 5.552 5.552 0 0 0 2.427-1.185 2.8 2.8 0 0 0 .286-.312l-.161-.055a9.336 9.336 0 0 0-2.19-.455 2.051 2.051 0 0 1-.541 1.081 2.932 2.932 0 0 1-2.084.609h-1.415v-4.2a.584.584 0 0 1 .216-.524 2.223 2.223 0 0 1 1.021-.144 3.657 3.657 0 0 1 2.288.516 1.682 1.682 0 0 1 .518.927 3.149 3.149 0 0 1 .07.475q-.233-.019-.472-.033-.607-.035-1.259-.035-.994 0-1.914.072v.835a12.407 12.407 0 0 1 1.563-.1q.207 0 .411.007c.138 0 .277-.007.42-.007q.4 0 .779.022.237.014.466.035a9.757 9.757 0 0 1 2.276.477l.268.091c.157.053.3.1.444.157a2.326 2.326 0 0 1 .676.376h1.554l-.018-.143-.193-1.816h-.724l-.893.688-.136-.037q-.232-.064-.458-.121c.007-.081.011-.164.011-.248s0-.157-.01-.234a2.619 2.619 0 0 0-1.006-1.861 4.24 4.24 0 0 0-2.787-.842h-.049v-1.3h-1.122v1.3h-1.338v-1.3h-1.122v1.3h-3.97v.788h.974a1.139 1.139 0 0 1 .64.136.418.418 0 0 1 .191.356V575a3.316 3.316 0 0 1-.468-.373 1.819 1.819 0 0 1-.615-1.26v-.043a1.76 1.76 0 0 1 .616-1.271v-1.6q-.3.086-.587.183-3.029 1.026-3.067 2.735v.041q0 1.567 2.66 2.571.483.182.995.331.23.067.468.127a17.237 17.237 0 0 0 2.686.447q.23.021.468.038c.581.041 1.193.061 1.839.061.686 0 1.324-.027 1.923-.079q.245-.021.482-.049a13.144 13.144 0 0 0 2.628-.56c.1-.032.192-.066.283-.1q.245-.092.457-.191a3.1 3.1 0 0 0 1.491-1.3zm-4.221 1.441c-.412.032-.847.049-1.311.049q-.313 0-.607-.01-.233.009-.47.009a12.246 12.246 0 0 1-1.422-.081 10.995 10.995 0 0 1-.468-.065v-2.39h1.906a2.943 2.943 0 0 1 2.118.7 2.337 2.337 0 0 1 .662 1.28 3.59 3.59 0 0 1 .058.464q-.228.025-.466.044z" class="cls-5" data-name="Path 13" transform="translate(-267.53 -565.804)"/>
                <path id="Path_14" d="M286.4 612.425a2.056 2.056 0 0 1-.527.852 2.6 2.6 0 0 1-1.877.652h-1.627a.508.508 0 0 1-.415-.186.838.838 0 0 1-.152-.542v-.757a17.747 17.747 0 0 1-2.686-.434v1.158a.889.889 0 0 1-.2.585.56.56 0 0 1-.449.178h-1.157v.788h3.97v1.035h1.12v-1.035h1.341v1.035h1.122v-1.044a7.244 7.244 0 0 0 2.32-.426 3.765 3.765 0 0 0 1.6-.992 2.813 2.813 0 0 0 .624-1.505l-.118.04a13.865 13.865 0 0 1-2.889.598z" class="cls-5" data-name="Path 14" transform="translate(-274.991 -600.886)"/>
            </g>
        </g>
        <g id="Group_648" data-name="Group 648" transform="translate(436.352 267.352)">
            <g id="Group_644-2" data-name="Group 644" transform="translate(243.5 243.5)">
                <circle id="Ellipse_116-2" cx="18.648" cy="18.648" r="18.648" class="cls-1" data-name="Ellipse 116"/>
            </g>
            <g id="Group_645-2" data-name="Group 645" transform="translate(246.322 246.322)">
                <circle id="Ellipse_117-2" cx="15.826" cy="15.826" r="15.826" class="cls-2" data-name="Ellipse 117"/>
            </g>
            <g id="Group_646-2" data-name="Group 646" transform="translate(248.812 248.64)">
                <path id="Path_2321-2" d="M355.551 331.017a15.828 15.828 0 0 1-21.616 22.014 15.827 15.827 0 1 0 21.616-22.014z" class="cls-3" data-name="Path 2321" transform="translate(-333.935 -331.017)"/>
            </g>
            <g id="Group_647-2" data-name="Group 647" transform="translate(248.054 248.072)">
                <path id="Path_2322-2" d="M322.079 336.872a13.97 13.97 0 0 1 25.045-8.516 13.971 13.971 0 1 0-23.188 15.479 13.906 13.906 0 0 1-1.857-6.963z" class="cls-4" data-name="Path 2322" transform="translate(-321.039 -321.348)"/>
            </g>
            <g id="Group_649-2" data-name="Group 649" transform="translate(254.118 255.693)">
                <path id="Path_13-2" d="M282.838 574.607a1.92 1.92 0 0 1-.623.516 4.213 4.213 0 0 1-.425.2 2.535 2.535 0 0 0-.205-.422 2.833 2.833 0 0 0-.523-.632 6.018 6.018 0 0 0-3.046-1.179 5.552 5.552 0 0 0 2.427-1.185 2.8 2.8 0 0 0 .286-.312l-.161-.055a9.336 9.336 0 0 0-2.19-.455 2.051 2.051 0 0 1-.541 1.081 2.932 2.932 0 0 1-2.084.609h-1.415v-4.2a.584.584 0 0 1 .216-.524 2.223 2.223 0 0 1 1.021-.144 3.657 3.657 0 0 1 2.288.516 1.682 1.682 0 0 1 .518.927 3.149 3.149 0 0 1 .07.475q-.233-.019-.472-.033-.607-.035-1.259-.035-.994 0-1.914.072v.835a12.407 12.407 0 0 1 1.563-.1q.207 0 .411.007c.138 0 .277-.007.42-.007q.4 0 .779.022.237.014.466.035a9.757 9.757 0 0 1 2.276.477l.268.091c.157.053.3.1.444.157a2.326 2.326 0 0 1 .676.376h1.554l-.018-.143-.193-1.816h-.724l-.893.688-.136-.037q-.232-.064-.458-.121c.007-.081.011-.164.011-.248s0-.157-.01-.234a2.619 2.619 0 0 0-1.006-1.861 4.24 4.24 0 0 0-2.787-.842h-.049v-1.3h-1.122v1.3h-1.338v-1.3h-1.122v1.3h-3.97v.788h.974a1.139 1.139 0 0 1 .64.136.418.418 0 0 1 .191.356V575a3.316 3.316 0 0 1-.468-.373 1.819 1.819 0 0 1-.615-1.26v-.043a1.76 1.76 0 0 1 .616-1.271v-1.6q-.3.086-.587.183-3.029 1.026-3.067 2.735v.041q0 1.567 2.66 2.571.483.182.995.331.23.067.468.127a17.237 17.237 0 0 0 2.686.447q.23.021.468.038c.581.041 1.193.061 1.839.061.686 0 1.324-.027 1.923-.079q.245-.021.482-.049a13.144 13.144 0 0 0 2.628-.56c.1-.032.192-.066.283-.1q.245-.092.457-.191a3.1 3.1 0 0 0 1.491-1.3zm-4.221 1.441c-.412.032-.847.049-1.311.049q-.313 0-.607-.01-.233.009-.47.009a12.246 12.246 0 0 1-1.422-.081 10.995 10.995 0 0 1-.468-.065v-2.39h1.906a2.943 2.943 0 0 1 2.118.7 2.337 2.337 0 0 1 .662 1.28 3.59 3.59 0 0 1 .058.464q-.228.025-.466.044z" class="cls-5" data-name="Path 13" transform="translate(-267.53 -565.804)"/>
                <path id="Path_14-2" d="M286.4 612.425a2.056 2.056 0 0 1-.527.852 2.6 2.6 0 0 1-1.877.652h-1.627a.508.508 0 0 1-.415-.186.838.838 0 0 1-.152-.542v-.757a17.747 17.747 0 0 1-2.686-.434v1.158a.889.889 0 0 1-.2.585.56.56 0 0 1-.449.178h-1.157v.788h3.97v1.035h1.12v-1.035h1.341v1.035h1.122v-1.044a7.244 7.244 0 0 0 2.32-.426 3.765 3.765 0 0 0 1.6-.992 2.813 2.813 0 0 0 .624-1.505l-.118.04a13.865 13.865 0 0 1-2.889.598z" class="cls-5" data-name="Path 14" transform="translate(-274.991 -600.886)"/>
            </g>
        </g>
    </g>
</svg>
