<svg xmlns="http://www.w3.org/2000/svg" width="86.16" height="27.719" viewBox="0 0 86.16 27.719">
    <defs>
        <style>
            .cls-1{opacity:.6}.cls-2{fill:#6d4d42}.cls-3{fill:#1d1300}.cls-4{fill:#4f332f}.cls-5{fill:#5d4038}
        </style>
    </defs>
    <g id="Group_688" data-name="Group 688" transform="translate(-917.61 -770.193)">
        <g id="Group_215" class="cls-1" data-name="Group 215" transform="translate(960.395 770.193)">
            <g id="Group_206" data-name="Group 206" transform="translate(14.43 14.112)">
                <g id="Group_204" data-name="Group 204">
                    <ellipse id="Ellipse_87" cx="5.965" cy="3.656" class="cls-2" data-name="Ellipse 87" rx="5.965" ry="3.656" transform="rotate(-45 10.183 4.218)"/>
                    <g id="Group_203" data-name="Group 203" transform="translate(1.688 1.696)">
                        <path id="Path_215" d="M1188.411 1532.092a2.856 2.856 0 0 1-2.081-.78 3.308 3.308 0 0 1-.637-3.22 8.351 8.351 0 0 1 2.27-3.819c2.391-2.39 5.548-3.123 7.039-1.632s.758 4.648-1.633 7.038a8.345 8.345 0 0 1-3.818 2.27 4.881 4.881 0 0 1-1.14.143zm4.5-9.9a7.185 7.185 0 0 0-4.716 2.317c-2.261 2.261-2.994 5.208-1.633 6.569a2.991 2.991 0 0 0 2.907.548 8.015 8.015 0 0 0 3.661-2.181 8.019 8.019 0 0 0 2.181-3.661 2.994 2.994 0 0 0-.549-2.908 2.545 2.545 0 0 0-1.848-.685z" class="cls-3" data-name="Path 215" transform="translate(-1185.551 -1521.868)"/>
                    </g>
                </g>
                <g id="Group_205" data-name="Group 205" transform="translate(2.575 3.508)">
                    <path id="Path_216" d="M1193.716 1546.069a.166.166 0 0 1-.107-.293 4.643 4.643 0 0 0 1.6-2.585 4.975 4.975 0 0 1 1.7-2.741 4.347 4.347 0 0 1 2.889-1.135 4.021 4.021 0 0 0 2.7-1.057.166.166 0 0 1 .215.253 4.354 4.354 0 0 1-2.889 1.135 4.02 4.02 0 0 0-2.7 1.056 4.636 4.636 0 0 0-1.6 2.585 4.983 4.983 0 0 1-1.7 2.742.168.168 0 0 1-.108.04z" class="cls-3" data-name="Path 216" transform="translate(-1193.55 -1538.218)"/>
                </g>
            </g>
            <g id="Group_210" data-name="Group 210" transform="translate(0 11.485)">
                <g id="Group_208" data-name="Group 208" transform="translate(.009)">
                    <ellipse id="Ellipse_88" cx="4.941" cy="3.028" class="cls-4" data-name="Ellipse 88" rx="4.941" ry="3.028" transform="translate(.166 .166)"/>
                    <g id="Group_207" data-name="Group 207">
                        <path id="Path_217" d="M1247.312 1619.119c-2.816 0-5.107-1.433-5.107-3.194s2.291-3.195 5.107-3.195 5.107 1.433 5.107 3.195-2.291 3.194-5.107 3.194zm0-6.056c-2.633 0-4.775 1.284-4.775 2.862s2.142 2.861 4.775 2.861 4.774-1.283 4.774-2.861-2.142-2.863-4.774-2.863z" class="cls-3" data-name="Path 217" transform="translate(-1242.205 -1612.73)"/>
                    </g>
                </g>
                <g id="Group_209" data-name="Group 209" transform="translate(0 2.017)">
                    <path id="Path_218" d="M1251.9 1633.267h-.014a3.629 3.629 0 0 1-2.373-1.034 3.306 3.306 0 0 0-2.184-.956 3.824 3.824 0 0 0-2.435.573 4.141 4.141 0 0 1-2.62.611.166.166 0 0 1 .028-.332 3.82 3.82 0 0 0 2.435-.573 4.136 4.136 0 0 1 2.619-.611 3.627 3.627 0 0 1 2.373 1.034 3.305 3.305 0 0 0 2.184.955.166.166 0 0 1-.013.332z" class="cls-3" data-name="Path 218" transform="translate(-1242.126 -1630.927)"/>
                </g>
            </g>
            <g id="Group_214" data-name="Group 214" transform="translate(29.768)">
                <g id="Group_212" data-name="Group 212">
                    <ellipse id="Ellipse_89" cx="3.656" cy="5.965" class="cls-5" data-name="Ellipse 89" rx="3.656" ry="5.965" transform="rotate(-45 6.242 2.586)"/>
                    <g id="Group_211" data-name="Group 211" transform="translate(1.696 1.696)">
                        <path id="Path_219" d="M1288.083 1491.334a4.9 4.9 0 0 1-1.14-.143 8.348 8.348 0 0 1-3.819-2.27c-2.391-2.391-3.123-5.549-1.633-7.039s4.648-.758 7.039 1.632c2.39 2.391 3.123 5.549 1.633 7.039a2.853 2.853 0 0 1-2.08.781zm-4.5-9.9a2.545 2.545 0 0 0-1.853.684c-1.36 1.361-.628 4.307 1.633 6.568s5.208 2.994 6.569 1.633.628-4.307-1.634-6.568a7.181 7.181 0 0 0-4.717-2.318z" class="cls-3" data-name="Path 219" transform="translate(-1280.72 -1481.11)"/>
                    </g>
                </g>
                <g id="Group_213" data-name="Group 213" transform="translate(3.508 1.807)">
                    <path id="Path_220" d="M1304.755 1491.34a.164.164 0 0 1-.126-.059 4.64 4.64 0 0 0-2.585-1.6 4.979 4.979 0 0 1-2.742-1.7 4.35 4.35 0 0 1-1.135-2.889 4.021 4.021 0 0 0-1.057-2.7.166.166 0 0 1 .254-.215 4.348 4.348 0 0 1 1.135 2.889 4.018 4.018 0 0 0 1.057 2.7 4.637 4.637 0 0 0 2.584 1.6 4.974 4.974 0 0 1 2.742 1.7.166.166 0 0 1-.127.274z" class="cls-3" data-name="Path 220" transform="translate(-1297.07 -1482.115)"/>
                </g>
            </g>
        </g>
        <g id="Group_216" class="cls-1" data-name="Group 216" transform="translate(931.926 783.07)">
            <g id="Group_206-2" data-name="Group 206">
                <g id="Group_204-2" data-name="Group 204">
                    <ellipse id="Ellipse_87-2" cx="4.248" cy="2.603" class="cls-2" data-name="Ellipse 87" rx="4.248" ry="2.603" transform="rotate(-45 7.251 3.003)"/>
                    <g id="Group_203-2" data-name="Group 203" transform="translate(1.202 1.207)">
                        <path id="Path_215-2" d="M1187.588 1529.148a2.034 2.034 0 0 1-1.481-.555 2.356 2.356 0 0 1-.453-2.293 5.946 5.946 0 0 1 1.616-2.719c1.7-1.7 3.95-2.224 5.012-1.162s.54 3.309-1.163 5.011a5.944 5.944 0 0 1-2.719 1.616 3.47 3.47 0 0 1-.812.102zm3.206-7.05a5.115 5.115 0 0 0-3.358 1.65c-1.61 1.61-2.132 3.708-1.162 4.677a2.13 2.13 0 0 0 2.07.391 5.713 5.713 0 0 0 2.607-1.553 5.71 5.71 0 0 0 1.553-2.607 2.131 2.131 0 0 0-.391-2.07 1.812 1.812 0 0 0-1.319-.486z" class="cls-3" data-name="Path 215" transform="translate(-1185.551 -1521.869)"/>
                    </g>
                </g>
                <g id="Group_205-2" data-name="Group 205" transform="translate(1.833 2.498)">
                    <path id="Path_216-2" d="M1193.669 1543.808a.119.119 0 0 1-.076-.209 3.308 3.308 0 0 0 1.14-1.841 3.541 3.541 0 0 1 1.213-1.952A3.1 3.1 0 0 1 1198 1539a2.865 2.865 0 0 0 1.923-.753.118.118 0 0 1 .153.18 3.1 3.1 0 0 1-2.057.809 2.861 2.861 0 0 0-1.922.752 3.3 3.3 0 0 0-1.14 1.841 3.545 3.545 0 0 1-1.213 1.952.12.12 0 0 1-.075.027z" class="cls-3" data-name="Path 216" transform="translate(-1193.55 -1538.218)"/>
                </g>
            </g>
            <g id="Group_210-2" data-name="Group 210" transform="translate(15.261 9.977)">
                <g id="Group_208-2" data-name="Group 208" transform="translate(.006)">
                    <ellipse id="Ellipse_88-2" cx="3.518" cy="2.156" class="cls-4" data-name="Ellipse 88" rx="3.518" ry="2.156" transform="translate(.118 .118)"/>
                    <g id="Group_207-2" data-name="Group 207">
                        <path id="Path_217-2" d="M1245.841 1617.279c-2.005 0-3.636-1.021-3.636-2.274s1.631-2.275 3.636-2.275 3.636 1.02 3.636 2.275-1.631 2.274-3.636 2.274zm0-4.312c-1.875 0-3.4.914-3.4 2.038s1.525 2.037 3.4 2.037 3.4-.914 3.4-2.037-1.526-2.038-3.4-2.038z" class="cls-3" data-name="Path 217" transform="translate(-1242.205 -1612.73)"/>
                    </g>
                </g>
                <g id="Group_209-2" data-name="Group 209" transform="translate(0 1.436)">
                    <path id="Path_218-2" d="M1249.088 1632.593h-.009a2.583 2.583 0 0 1-1.69-.736 2.353 2.353 0 0 0-1.555-.68 2.718 2.718 0 0 0-1.734.408 2.95 2.95 0 0 1-1.866.435.118.118 0 1 1 .02-.236 2.718 2.718 0 0 0 1.734-.408 2.949 2.949 0 0 1 1.865-.435 2.583 2.583 0 0 1 1.689.736 2.354 2.354 0 0 0 1.555.68.118.118 0 0 1-.01.237z" class="cls-3" data-name="Path 218" transform="translate(-1242.126 -1630.927)"/>
                </g>
            </g>
        </g>
        <g id="Group_217" class="cls-1" data-name="Group 217" transform="translate(917.609 790.48)">
            <g id="Group_210-3" data-name="Group 210">
                <g id="Group_208-3" data-name="Group 208" transform="translate(.005)">
                    <ellipse id="Ellipse_88-3" cx="2.551" cy="1.563" class="cls-4" data-name="Ellipse 88" rx="2.551" ry="1.563" transform="translate(.086 .086)"/>
                    <g id="Group_207-3" data-name="Group 207">
                        <path id="Path_217-3" d="M1244.841 1616.028c-1.454 0-2.636-.74-2.636-1.649s1.183-1.649 2.636-1.649 2.637.74 2.637 1.649-1.178 1.649-2.637 1.649zm0-3.127c-1.359 0-2.465.663-2.465 1.478s1.106 1.477 2.465 1.477 2.465-.663 2.465-1.477-1.106-1.479-2.465-1.479z" class="cls-3" data-name="Path 217" transform="translate(-1242.205 -1612.73)"/>
                    </g>
                </g>
                <g id="Group_209-3" data-name="Group 209" transform="translate(0 1.041)">
                    <path id="Path_218-3" d="M1247.174 1632.135h-.007a1.873 1.873 0 0 1-1.225-.534 1.707 1.707 0 0 0-1.127-.494 1.971 1.971 0 0 0-1.257.3 2.138 2.138 0 0 1-1.353.316.086.086 0 1 1 .015-.171 1.974 1.974 0 0 0 1.257-.3 2.136 2.136 0 0 1 1.352-.316 1.872 1.872 0 0 1 1.225.534 1.7 1.7 0 0 0 1.127.493.086.086 0 0 1-.007.171z" class="cls-3" data-name="Path 218" transform="translate(-1242.126 -1630.927)"/>
                </g>
            </g>
        </g>
    </g>
</svg>
