<svg xmlns="http://www.w3.org/2000/svg" width="98" height="98" viewBox="0 0 98 98">
    <defs>
        <filter id="prefix__Path_6018" width="19.199" height="19.89" x="39.403" y="15.834" filterUnits="userSpaceOnUse">
            <feOffset dy="3"/>
            <feGaussianBlur result="blur" stdDeviation="3"/>
            <feFlood flood-opacity=".561"/>
            <feComposite in2="blur" operator="in"/>
            <feComposite in="SourceGraphic"/>
        </filter>
        <filter id="prefix__Path_6021" width="20.236" height="19.983" x="59.327" y="27.59" filterUnits="userSpaceOnUse">
            <feOffset dy="3"/>
            <feGaussianBlur result="blur-2" stdDeviation="3"/>
            <feFlood flood-opacity=".561"/>
            <feComposite in2="blur-2" operator="in"/>
            <feComposite in="SourceGraphic"/>
        </filter>
        <filter id="prefix__Path_6023" width="20.236" height="19.983" x="59.328" y="51.196" filterUnits="userSpaceOnUse">
            <feOffset dy="3"/>
            <feGaussianBlur result="blur-3" stdDeviation="3"/>
            <feFlood flood-opacity=".561"/>
            <feComposite in2="blur-3" operator="in"/>
            <feComposite in="SourceGraphic"/>
        </filter>
        <filter id="prefix__Path_6025" width="41.159" height="41.737" x="40.004" y="48.575" filterUnits="userSpaceOnUse">
            <feOffset dy="3"/>
            <feGaussianBlur result="blur-4" stdDeviation="6"/>
            <feFlood flood-opacity=".557"/>
            <feComposite in2="blur-4" operator="in"/>
            <feComposite in="SourceGraphic"/>
        </filter>
        <filter id="prefix__Path_6027" width="41.159" height="41.737" x="16.842" y="48.575" filterUnits="userSpaceOnUse">
            <feOffset dy="3"/>
            <feGaussianBlur result="blur-5" stdDeviation="6"/>
            <feFlood flood-opacity=".557"/>
            <feComposite in2="blur-5" operator="in"/>
            <feComposite in="SourceGraphic"/>
        </filter>
        <filter id="prefix__Path_6029" width="40.778" height="39.199" x="5.452" y="29.786" filterUnits="userSpaceOnUse">
            <feOffset dy="3"/>
            <feGaussianBlur result="blur-6" stdDeviation="6"/>
            <feFlood flood-opacity=".557"/>
            <feComposite in2="blur-6" operator="in"/>
            <feComposite in="SourceGraphic"/>
        </filter>
        <filter id="prefix__Path_6019" width="19.199" height="19.89" x="39.403" y="63.045" filterUnits="userSpaceOnUse">
            <feOffset dy="3"/>
            <feGaussianBlur result="blur-7" stdDeviation="3"/>
            <feFlood flood-opacity=".561"/>
            <feComposite in2="blur-7" operator="in"/>
            <feComposite in="SourceGraphic"/>
        </filter>
        <filter id="prefix__Path_6020" width="20.236" height="19.983" x="18.441" y="51.196" filterUnits="userSpaceOnUse">
            <feOffset dy="3"/>
            <feGaussianBlur result="blur-8" stdDeviation="3"/>
            <feFlood flood-opacity=".561"/>
            <feComposite in2="blur-8" operator="in"/>
            <feComposite in="SourceGraphic"/>
        </filter>
        <filter id="prefix__Path_6022" width="20.236" height="19.983" x="18.441" y="27.59" filterUnits="userSpaceOnUse">
            <feOffset dy="3"/>
            <feGaussianBlur result="blur-9" stdDeviation="3"/>
            <feFlood flood-opacity=".561"/>
            <feComposite in2="blur-9" operator="in"/>
            <feComposite in="SourceGraphic"/>
        </filter>
        <filter id="prefix__Path_6024" width="41.159" height="41.737" x="16.842" y="8.458" filterUnits="userSpaceOnUse">
            <feOffset dy="3"/>
            <feGaussianBlur result="blur-10" stdDeviation="6"/>
            <feFlood flood-opacity=".557"/>
            <feComposite in2="blur-10" operator="in"/>
            <feComposite in="SourceGraphic"/>
        </filter>
        <filter id="prefix__Path_6026" width="41.159" height="41.737" x="40.004" y="8.458" filterUnits="userSpaceOnUse">
            <feOffset dy="3"/>
            <feGaussianBlur result="blur-11" stdDeviation="6"/>
            <feFlood flood-opacity=".557"/>
            <feComposite in2="blur-11" operator="in"/>
            <feComposite in="SourceGraphic"/>
        </filter>
        <filter id="prefix__Path_6028" width="40.778" height="39.199" x="51.775" y="29.786" filterUnits="userSpaceOnUse">
            <feOffset dy="3"/>
            <feGaussianBlur result="blur-12" stdDeviation="6"/>
            <feFlood flood-opacity=".557"/>
            <feComposite in2="blur-12" operator="in"/>
            <feComposite in="SourceGraphic"/>
        </filter>
        <filter id="prefix__Subtraction_5" width="98" height="98" x="0" y="0" filterUnits="userSpaceOnUse">
            <feOffset dy="3"/>
            <feGaussianBlur result="blur-13" stdDeviation="6"/>
            <feFlood flood-opacity=".557"/>
            <feComposite in2="blur-13" operator="in"/>
            <feComposite in="SourceGraphic"/>
        </filter>
        <filter id="prefix__Ellipse_68" width="46" height="47" x="26" y="26" filterUnits="userSpaceOnUse">
            <feOffset dy="3"/>
            <feGaussianBlur result="blur-14" stdDeviation="6"/>
            <feFlood flood-opacity=".078"/>
            <feComposite in2="blur-14" operator="in"/>
            <feComposite in="SourceGraphic"/>
        </filter>
        <filter id="prefix__Ellipse_69" width="20" height="19" x="39" y="40" filterUnits="userSpaceOnUse">
            <feOffset dy="3"/>
            <feGaussianBlur result="blur-15" stdDeviation="3"/>
            <feFlood flood-opacity=".78"/>
            <feComposite in2="blur-15" operator="in"/>
            <feComposite in="SourceGraphic"/>
        </filter>
        <filter id="prefix__Subtraction_2" width="46" height="46" x="26" y="26" filterUnits="userSpaceOnUse">
            <feOffset dy="3"/>
            <feGaussianBlur result="blur-16" stdDeviation="6"/>
            <feFlood flood-opacity=".557"/>
            <feComposite in2="blur-16" operator="in"/>
            <feComposite in="SourceGraphic"/>
        </filter>
        <filter id="prefix__Polygon_15" width="25.074" height="23.467" x="60.174" y="37.606" filterUnits="userSpaceOnUse">
            <feOffset dy="3"/>
            <feGaussianBlur result="blur-17" stdDeviation="3"/>
            <feFlood flood-opacity=".627"/>
            <feComposite in2="blur-17" operator="in"/>
            <feComposite in="SourceGraphic"/>
        </filter>
        <filter id="prefix__Subtraction_3" width="41.788" height="41.788" x="55.354" y="28.392" filterUnits="userSpaceOnUse">
            <feOffset dy="3"/>
            <feGaussianBlur result="blur-18" stdDeviation="6"/>
            <feFlood flood-opacity=".557"/>
            <feComposite in2="blur-18" operator="in"/>
            <feComposite in="SourceGraphic"/>
        </filter>
        <radialGradient id="prefix__radial-gradient" cx=".5" cy="1" r=".69" gradientTransform="matrix(.625 0 0 1 .188 0)" gradientUnits="objectBoundingBox">
            <stop offset="0" stop-color="#d32626"/>
            <stop offset="1" stop-color="#720707"/>
        </radialGradient>
        <radialGradient id="prefix__radial-gradient-13" cx=".5" cy=".5" r=".466" gradientTransform="matrix(1 0 0 .972 0 .014)" gradientUnits="objectBoundingBox">
            <stop offset="0" stop-color="#720707"/>
            <stop offset=".764" stop-color="#780909"/>
            <stop offset=".897" stop-color="#c92323"/>
            <stop offset="1" stop-color="#d32626"/>
        </radialGradient>
        <style>
            .prefix__cls-1{fill:#fff}.prefix__cls-2{fill:url(#prefix__radial-gradient)}.prefix__cls-3{fill:#ffc767}.prefix__cls-10,.prefix__cls-6{fill:#f9b034}.prefix__cls-10{fill-rule:evenodd}.prefix__cls-11,.prefix__cls-12{stroke:none}.prefix__cls-12{fill:rgba(255,197,100,.33)}
        </style>
    </defs>
    <g id="prefix__Group_3757" data-name="Group 3757" transform="translate(-777.142 -213.804)">
        <g id="prefix__Group_3748" data-name="Group 3748" transform="translate(799.863 233.964)">
            <g id="prefix__Group_3737" data-name="Group 3737">
                <path id="prefix__Polygon_3" d="M7 0l7 27H0z" class="prefix__cls-1" data-name="Polygon 3" transform="rotate(180 16.64 13.42)"/>
                <path id="prefix__Polygon_6" d="M6.5 0L13 26H0z" class="prefix__cls-2" data-name="Polygon 6" transform="rotate(-90 29.56 3.28)"/>
                <path id="prefix__Polygon_8" d="M6.875 0l6.875 26.339H0z" class="prefix__cls-2" data-name="Polygon 8" transform="rotate(-30 65.867 -22.94)"/>
                <path id="prefix__Polygon_10" d="M6.875 0l6.875 26.339H0z" class="prefix__cls-1" data-name="Polygon 10" transform="rotate(-60 39.443 -3.566)"/>
                <path id="prefix__Polygon_12" d="M6.875 0l6.875 26.339H0z" class="prefix__cls-2" data-name="Polygon 12" transform="rotate(-150 20.101 10.616)"/>
                <path id="prefix__Polygon_14" d="M6.875 0l6.875 26.339H0z" class="prefix__cls-1" data-name="Polygon 14" transform="rotate(60 -6.322 29.989)"/>
                <path id="prefix__Polygon_4" d="M7 0l7 26H0z" class="prefix__cls-1" data-name="Polygon 4" transform="translate(19.279 26.84)"/>
                <path id="prefix__Polygon_5" d="M6.5 0L13 26H0z" class="prefix__cls-2" data-name="Polygon 5" transform="rotate(90 3.22 23.06)"/>
                <path id="prefix__Polygon_7" d="M6.875 0l6.875 26.339H0z" class="prefix__cls-2" data-name="Polygon 7" transform="rotate(150 13.021 15.807)"/>
                <path id="prefix__Polygon_9" d="M6.875 0l6.875 26.339H0z" class="prefix__cls-1" data-name="Polygon 9" transform="rotate(120 8.934 18.804)"/>
                <path id="prefix__Polygon_11" d="M6.875 0l6.875 26.339H0z" class="prefix__cls-2" data-name="Polygon 11" transform="rotate(30 -32.744 49.362)"/>
                <path id="prefix__Polygon_13" d="M6.875 0l6.875 26.339H0z" class="prefix__cls-1" data-name="Polygon 13" transform="rotate(-120 24.189 7.619)"/>
            </g>
            <g id="prefix__Group_3742" data-name="Group 3742">
                <g transform="translate(1.731 1.674) translate(-24.45 -21.83)">
                    <path id="prefix__Path_6018-2" d="M.6 0a.6.6 0 0 1 .6.6 4.75 4.75 0 0 1-.6 1.29A4.75 4.75 0 0 1 0 .6.6.6 0 0 1 .6 0z" class="prefix__cls-2" data-name="Path 6018" transform="translate(48.4 21.83)"/>
                </g>
                <g transform="translate(1.731 1.674) translate(-24.45 -21.83)">
                    <path id="prefix__Path_6021-2" d="M.6 0a.6.6 0 0 1 .6.6 4.75 4.75 0 0 1-.6 1.29A4.75 4.75 0 0 1 0 .6.6.6 0 0 1 .6 0z" class="prefix__cls-2" data-name="Path 6021" transform="rotate(60 5.89 77.382)"/>
                </g>
                <g transform="translate(1.731 1.674) translate(-24.45 -21.83)">
                    <path id="prefix__Path_6023-2" d="M.6 0a.6.6 0 0 1 .6.6 4.75 4.75 0 0 1-.6 1.29A4.75 4.75 0 0 1 0 .6.6.6 0 0 1 .6 0z" class="prefix__cls-2" data-name="Path 6023" transform="rotate(120 18.496 49.439)"/>
                </g>
                <g transform="translate(1.731 1.674) translate(-24.45 -21.83)">
                    <g id="prefix__Path_6025-2" class="prefix__cls-3" data-name="Path 6025">
                        <path d="M.6 0a.6.6 0 0 1 .6.6 4.75 4.75 0 0 1-.6 1.29A4.75 4.75 0 0 1 0 .6.6.6 0 0 1 .6 0z" class="prefix__cls-11" transform="rotate(150 21.877 41.955)"/>
                        <path d="M.6 0C.267 0 0 .268 0 .6c0 .33.6 1.29.6 1.29S1.198.93 1.198.6c0-.332-.269-.6-.6-.6m0-1c.882 0 1.6.717 1.6 1.6 0 .152 0 .617-.751 1.82L.599 3.778-.249 2.42C-1 1.217-1 .752-1 .6-1-.284-.283-1 .6-1z" class="prefix__cls-12" transform="rotate(150 21.877 41.955)"/>
                    </g>
                </g>
                <g transform="translate(1.731 1.674) translate(-24.45 -21.83)">
                    <g id="prefix__Path_6027-2" class="prefix__cls-3" data-name="Path 6027">
                        <path d="M.6 0a.6.6 0 0 1 .6.6 4.75 4.75 0 0 1-.6 1.29A4.75 4.75 0 0 1 0 .6.6.6 0 0 1 .6 0z" class="prefix__cls-11" transform="rotate(-150 27.729 28.984)"/>
                        <path d="M.6 0C.267 0 0 .268 0 .6c0 .33.6 1.29.6 1.29S1.198.93 1.198.6c0-.332-.269-.6-.6-.6m0-1c.882 0 1.6.717 1.6 1.6 0 .152 0 .617-.751 1.82L.599 3.778-.249 2.42C-1 1.217-1 .752-1 .6-1-.284-.283-1 .6-1z" class="prefix__cls-12" transform="rotate(-150 27.729 28.984)"/>
                    </g>
                </g>
                <g transform="translate(1.731 1.674) translate(-24.45 -21.83)">
                    <g id="prefix__Path_6029-2" class="prefix__cls-3" data-name="Path 6029">
                        <path d="M.6 0a.6.6 0 0 1 .6.6 4.75 4.75 0 0 1-.6 1.29A4.75 4.75 0 0 1 0 .6.6.6 0 0 1 .6 0z" class="prefix__cls-11" transform="rotate(-90 35.715 11.265)"/>
                        <path d="M.6 0C.267 0 0 .268 0 .6c0 .33.6 1.29.6 1.29S1.198.93 1.198.6c0-.332-.269-.6-.6-.6m0-1c.882 0 1.6.717 1.6 1.6 0 .152 0 .617-.751 1.82L.599 3.778-.249 2.42C-1 1.217-1 .752-1 .6-1-.284-.283-1 .6-1z" class="prefix__cls-12" transform="rotate(-90 35.715 11.265)"/>
                    </g>
                </g>
                <g transform="translate(1.731 1.674) translate(-24.45 -21.83)">
                    <path id="prefix__Path_6019-2" d="M.6 1.89a.6.6 0 0 0 .6-.6A4.75 4.75 0 0 0 .6 0 4.75 4.75 0 0 0 0 1.291a.6.6 0 0 0 .6.599z" class="prefix__cls-2" data-name="Path 6019" transform="translate(48.4 69.05)"/>
                </g>
                <g transform="translate(1.731 1.674) translate(-24.45 -21.83)">
                    <path id="prefix__Path_6020-2" d="M.6 1.89a.6.6 0 0 0 .6-.6A4.75 4.75 0 0 0 .6 0 4.75 4.75 0 0 0 0 1.291a.6.6 0 0 0 .6.599z" class="prefix__cls-2" data-name="Path 6020" transform="rotate(60 -34.997 53.784)"/>
                </g>
                <g transform="translate(1.731 1.674) translate(-24.45 -21.83)">
                    <path id="prefix__Path_6022-2" d="M.6 1.89a.6.6 0 0 0 .6-.6A4.75 4.75 0 0 0 .6 0 4.75 4.75 0 0 0 0 1.291a.6.6 0 0 0 .6.599z" class="prefix__cls-2" data-name="Path 6022" transform="rotate(120 4.87 25.838)"/>
                </g>
                <g transform="translate(1.731 1.674) translate(-24.45 -21.83)">
                    <g id="prefix__Path_6024-2" class="prefix__cls-3" data-name="Path 6024">
                        <path d="M.6 1.89a.6.6 0 0 0 .6-.6A4.75 4.75 0 0 0 .6 0 4.75 4.75 0 0 0 0 1.291a.6.6 0 0 0 .6.599z" class="prefix__cls-11" transform="rotate(150 15.55 18.346)"/>
                        <path d="M.6 1.89c.33 0 .599-.268.599-.6 0-.33-.6-1.29-.6-1.29S0 .96 0 1.29c0 .332.268.6.6.6m0 1c-.883 0-1.6-.717-1.6-1.6 0-.152 0-.617.751-1.82L.6-1.888 1.448-.53c.75 1.203.75 1.668.75 1.82 0 .883-.717 1.6-1.599 1.6z" class="prefix__cls-12" transform="rotate(150 15.55 18.346)"/>
                    </g>
                </g>
                <g transform="translate(1.731 1.674) translate(-24.45 -21.83)">
                    <g id="prefix__Path_6026-2" class="prefix__cls-3" data-name="Path 6026">
                        <path d="M.6 1.89a.6.6 0 0 0 .6-.6A4.75 4.75 0 0 0 .6 0 4.75 4.75 0 0 0 0 1.291a.6.6 0 0 0 .6.599z" class="prefix__cls-11" transform="rotate(-150 34.05 5.378)"/>
                        <path d="M.6 1.89c.33 0 .599-.268.599-.6 0-.33-.6-1.29-.6-1.29S0 .96 0 1.29c0 .332.268.6.6.6m0 1c-.883 0-1.6-.717-1.6-1.6 0-.152 0-.617.751-1.82L.6-1.888 1.448-.53c.75 1.203.75 1.668.75 1.82 0 .883-.717 1.6-1.599 1.6z" class="prefix__cls-12" transform="rotate(-150 34.05 5.378)"/>
                    </g>
                </g>
                <g transform="translate(1.731 1.674) translate(-24.45 -21.83)">
                    <g id="prefix__Path_6028-2" class="prefix__cls-3" data-name="Path 6028">
                        <path d="M.6 1.89a.6.6 0 0 0 .6-.6A4.75 4.75 0 0 0 .6 0 4.75 4.75 0 0 0 0 1.291a.6.6 0 0 0 .6.599z" class="prefix__cls-11" transform="rotate(-90 59.32 -12.34)"/>
                        <path d="M.6 1.89c.33 0 .599-.268.599-.6 0-.33-.6-1.29-.6-1.29S0 .96 0 1.29c0 .332.268.6.6.6m0 1c-.883 0-1.6-.717-1.6-1.6 0-.152 0-.617.751-1.82L.6-1.888 1.448-.53c.75 1.203.75 1.668.75 1.82 0 .883-.717 1.6-1.599 1.6z" class="prefix__cls-12" transform="rotate(-90 59.32 -12.34)"/>
                    </g>
                </g>
            </g>
        </g>
        <g transform="translate(777.14 213.8)">
            <g id="prefix__Subtraction_5-2" data-name="Subtraction 5" style="fill:#f9b034">
                <path d="M28 56a28.208 28.208 0 0 1-5.643-.569 27.848 27.848 0 0 1-10.012-4.213A28.081 28.081 0 0 1 2.2 38.9a27.855 27.855 0 0 1-1.631-5.257 28.272 28.272 0 0 1 0-11.286 27.848 27.848 0 0 1 4.213-10.012A28.083 28.083 0 0 1 17.1 2.2 27.864 27.864 0 0 1 22.357.569a28.275 28.275 0 0 1 11.286 0 27.845 27.845 0 0 1 10.012 4.213A28.08 28.08 0 0 1 53.8 17.1a27.86 27.86 0 0 1 1.632 5.256 28.274 28.274 0 0 1 0 11.286 27.849 27.849 0 0 1-4.213 10.012A28.081 28.081 0 0 1 38.9 53.8a27.86 27.86 0 0 1-5.256 1.632A28.208 28.208 0 0 1 28 56zm0-53.537a25.726 25.726 0 0 0-5.147.519 25.395 25.395 0 0 0-9.131 3.842A25.611 25.611 0 0 0 4.47 18.06a25.407 25.407 0 0 0-1.488 4.794 25.785 25.785 0 0 0 0 10.293 25.395 25.395 0 0 0 3.842 9.131A25.61 25.61 0 0 0 18.06 51.53a25.4 25.4 0 0 0 4.793 1.488 25.783 25.783 0 0 0 10.293 0 25.4 25.4 0 0 0 9.131-3.842A25.613 25.613 0 0 0 51.53 37.94a25.408 25.408 0 0 0 1.488-4.794 25.786 25.786 0 0 0 0-10.293 25.4 25.4 0 0 0-3.842-9.131A25.612 25.612 0 0 0 37.94 4.47a25.4 25.4 0 0 0-4.793-1.488A25.726 25.726 0 0 0 28 2.463z" class="prefix__cls-11" transform="translate(21 18)"/>
                <path d="M28 56c1.9 0 3.798-.191 5.643-.569 1.798-.368 3.566-.917 5.256-1.631 1.659-.702 3.259-1.57 4.756-2.582 1.483-1.002 2.877-2.152 4.144-3.419 1.267-1.267 2.417-2.661 3.419-4.144 1.011-1.497 1.88-3.097 2.582-4.756.714-1.69 1.263-3.458 1.631-5.256C55.81 31.798 56 29.9 56 28s-.191-3.798-.569-5.643c-.368-1.798-.917-3.566-1.631-5.256-.702-1.659-1.57-3.26-2.582-4.756-1.002-1.483-2.152-2.877-3.419-4.144-1.267-1.267-2.661-2.418-4.144-3.42-1.497-1.01-3.097-1.879-4.756-2.58-1.69-.715-3.458-1.264-5.256-1.632C31.798.19 29.9 0 28 0s-3.798.191-5.643.569c-1.798.368-3.566.917-5.256 1.631-1.66.702-3.26 1.57-4.756 2.582C10.862 5.783 9.468 6.934 8.2 8.2c-1.267 1.267-2.417 2.661-3.42 4.144-1.01 1.497-1.879 3.097-2.58 4.756-.715 1.69-1.264 3.458-1.632 5.256C.19 24.202 0 26.1 0 28s.191 3.798.569 5.643c.368 1.798.917 3.566 1.631 5.256.702 1.659 1.57 3.26 2.582 4.756 1.002 1.483 2.152 2.877 3.419 4.144 1.267 1.267 2.661 2.417 4.144 3.42 1.497 1.01 3.097 1.879 4.756 2.58 1.69.715 3.458 1.264 5.256 1.632C24.202 55.81 26.1 56 28 56m0-53.537c1.733 0 3.464.175 5.147.52 1.64.335 3.252.835 4.793 1.487 1.513.64 2.973 1.432 4.338 2.355 1.352.913 2.624 1.962 3.78 3.118 1.155 1.155 2.204 2.427 3.117 3.78.923 1.364 1.715 2.824 2.355 4.337.652 1.541 1.152 3.154 1.488 4.793.344 1.683.519 3.414.519 5.147s-.175 3.464-.52 5.147c-.335 1.64-.835 3.252-1.487 4.793-.64 1.513-1.432 2.972-2.355 4.338-.913 1.352-1.962 2.624-3.118 3.779-1.155 1.156-2.427 2.205-3.78 3.118-1.364.923-2.824 1.715-4.337 2.355-1.541.652-3.154 1.152-4.793 1.488-1.683.344-3.414.519-5.147.519s-3.464-.175-5.146-.52c-1.64-.335-3.253-.835-4.794-1.487-1.513-.64-2.973-1.432-4.338-2.355-1.352-.913-2.624-1.962-3.78-3.118-1.155-1.156-2.204-2.427-3.117-3.78-.923-1.365-1.715-2.824-2.355-4.337-.652-1.541-1.152-3.154-1.488-4.793-.344-1.683-.519-3.414-.519-5.147s.175-3.464.52-5.147c.335-1.64.835-3.252 1.487-4.793.64-1.513 1.432-2.973 2.355-4.338.913-1.352 1.962-2.624 3.118-3.78 1.155-1.155 2.427-2.204 3.78-3.117 1.364-.923 2.824-1.715 4.337-2.355 1.541-.652 3.154-1.152 4.794-1.488 1.682-.344 3.413-.519 5.146-.519M28 59c-2.101 0-4.202-.212-6.244-.63-1.992-.407-3.951-1.016-5.824-1.807-1.837-.778-3.61-1.74-5.266-2.86-1.642-1.108-3.185-2.38-4.586-3.783-1.402-1.402-2.675-2.945-3.784-4.586-1.12-1.657-2.081-3.43-2.859-5.267-.792-1.872-1.4-3.831-1.807-5.823C-2.788 32.202-3 30.101-3 28s.212-4.202.63-6.244c.407-1.992 1.016-3.952 1.807-5.824.777-1.837 1.74-3.609 2.859-5.267C3.405 9.025 4.678 7.482 6.08 6.08c1.402-1.402 2.945-2.675 4.586-3.784 1.656-1.12 3.428-2.081 5.266-2.859 1.873-.792 3.832-1.4 5.824-1.807C23.798-2.788 25.899-3 28-3s4.202.212 6.244.63c1.992.407 3.951 1.015 5.823 1.807 1.838.778 3.61 1.74 5.267 2.86 1.641 1.108 3.184 2.38 4.586 3.783 1.402 1.402 2.675 2.945 3.784 4.585 1.12 1.658 2.081 3.43 2.859 5.267.791 1.873 1.4 3.832 1.807 5.824.418 2.042.63 4.143.63 6.244s-.212 4.202-.63 6.244c-.407 1.992-1.016 3.951-1.807 5.823-.778 1.838-1.74 3.61-2.86 5.267-1.108 1.641-2.38 3.184-3.783 4.586-1.401 1.402-2.944 2.675-4.585 3.784-1.658 1.12-3.43 2.082-5.268 2.859-1.872.791-3.83 1.4-5.823 1.807-2.042.418-4.143.63-6.244.63zm0-53.537c-1.531 0-3.06.154-4.545.458-1.446.296-2.868.738-4.226 1.312-1.336.565-2.623 1.264-3.827 2.077-1.195.807-2.317 1.734-3.338 2.754-1.02 1.02-1.947 2.144-2.753 3.338-.814 1.204-1.513 2.492-2.078 3.827-.574 1.358-1.016 2.78-1.312 4.226-.304 1.485-.458 3.014-.458 4.545 0 1.531.154 3.06.458 4.545.296 1.446.737 2.867 1.312 4.226.565 1.335 1.264 2.623 2.078 3.827.806 1.194 1.732 2.317 2.753 3.338 1.02 1.02 2.144 1.947 3.338 2.754 1.204.813 2.492 1.512 3.827 2.077 1.359.575 2.78 1.016 4.226 1.312 1.485.304 3.014.458 4.545.458 1.53 0 3.06-.154 4.545-.458 1.446-.296 2.868-.738 4.226-1.312 1.335-.565 2.623-1.264 3.827-2.077 1.195-.807 2.318-1.734 3.338-2.754s1.947-2.144 2.753-3.338c.814-1.204 1.513-2.492 2.078-3.827.575-1.359 1.016-2.78 1.312-4.226.304-1.485.458-3.014.458-4.545 0-1.531-.154-3.06-.458-4.545-.296-1.446-.737-2.868-1.312-4.226-.565-1.335-1.264-2.623-2.077-3.827-.807-1.195-1.734-2.317-2.754-3.338-1.02-1.02-2.143-1.947-3.338-2.754-1.204-.813-2.492-1.512-3.827-2.077-1.358-.574-2.78-1.016-4.226-1.312-1.485-.304-3.014-.458-4.545-.458z" class="prefix__cls-12" transform="translate(21 18)"/>
            </g>
        </g>
        <g id="prefix__Group_3749" data-name="Group 3749">
            <g transform="translate(820.791 255.26) translate(-43.65 -41.46)">
                <ellipse id="prefix__Ellipse_68-2" cx="5" cy="5.5" data-name="Ellipse 68" rx="5" ry="5.5" transform="translate(44 41)" style="fill:#272727"/>
            </g>
            <g transform="translate(820.791 255.26) translate(-43.65 -41.46)">
                <ellipse id="prefix__Ellipse_69-2" cx="1" cy=".5" class="prefix__cls-6" data-name="Ellipse 69" rx="1" ry=".5" transform="translate(48 46)"/>
            </g>
            <g transform="translate(820.791 255.26) translate(-43.65 -41.46)">
                <path id="prefix__Subtraction_2-2" d="M5 10a4.978 4.978 0 0 1-2.8-.854 5.014 5.014 0 0 1-1.812-2.2A4.994 4.994 0 0 1 .854 2.2a5.013 5.013 0 0 1 2.2-1.807A4.994 4.994 0 0 1 7.8.854a5.015 5.015 0 0 1 1.812 2.2A4.994 4.994 0 0 1 9.146 7.8a5.014 5.014 0 0 1-2.2 1.811A4.969 4.969 0 0 1 5 10zM5 .873a4.113 4.113 0 1 0 1.606.327A4.1 4.1 0 0 0 5 .873z" class="prefix__cls-6" data-name="Subtraction 2" transform="translate(44 41)"/>
            </g>
        </g>
        <g id="prefix__Group_3750" data-name="Group 3750" transform="rotate(90 299.544 556.74)">
            <g transform="rotate(-90 17.875 61.265)">
                <g id="prefix__Polygon_15-2" data-name="Polygon 15" style="fill:none">
                    <path d="M2.733 0l2.734 7.074H0z" class="prefix__cls-11" transform="rotate(-90 59.12 -10.05)"/>
                    <path d="M2.733 0l2.734 7.074H0L2.733 0z" style="stroke:none;fill:#f9b034" transform="rotate(-90 59.12 -10.05)"/>
                </g>
            </g>
            <g id="prefix__Group_3738" data-name="Group 3738">
                <circle id="prefix__Ellipse_72" cx="2.894" cy="2.894" r="2.894" data-name="Ellipse 72"/>
                <g transform="rotate(-90 17.875 61.265)">
                    <path id="prefix__Subtraction_3-2" d="M2.894 5.788a2.881 2.881 0 0 1-1.618-.494A2.9 2.9 0 0 1 .227 4.021a2.89 2.89 0 0 1 .267-2.745A2.9 2.9 0 0 1 1.768.227a2.89 2.89 0 0 1 2.744.267 2.9 2.9 0 0 1 1.049 1.274 2.89 2.89 0 0 1-.267 2.745 2.9 2.9 0 0 1-1.273 1.048 2.877 2.877 0 0 1-1.127.227zm0-5.283a2.381 2.381 0 1 0 .93.188 2.375 2.375 0 0 0-.93-.188z" data-name="Subtraction 3" transform="rotate(90 17.875 61.265)" style="fill:#222"/>
                </g>
                <g id="prefix__Group_5" data-name="Group 5" transform="rotate(-90 2.873 1.592)">
                    <g id="prefix__Group_2" data-name="Group 2">
                        <path id="prefix__Path_11" d="M0 1.489A1.489 1.489 0 1 0 2.722.656a.354.354 0 0 1-.04.075A1.413 1.413 0 1 1 2.03.182a.407.407 0 0 1 .024-.07A1.488 1.488 0 0 0 0 1.489z" class="prefix__cls-6" data-name="Path 11" transform="translate(.1 .1)"/>
                        <path id="prefix__Path_12" d="M2.852.626A.484.484 0 0 1 2.84.7a1.535 1.535 0 1 1-.664-.53.316.316 0 0 1 .032-.044 1.593 1.593 0 1 0 .643.5z" class="prefix__cls-6" data-name="Path 12"/>
                    </g>
                    <g id="prefix__Group_3" data-name="Group 3" transform="translate(.38 .565)">
                        <path id="prefix__Path_13" d="M2.249 1.293a.281.281 0 0 1-.092.076.609.609 0 0 1-.057.031.376.376 0 0 0-.03-.062.416.416 0 0 0-.077-.093.884.884 0 0 0-.447-.173A.816.816 0 0 0 1.9.9a.414.414 0 0 0 .039-.05L1.916.842a1.371 1.371 0 0 0-.322-.066.3.3 0 0 1-.079.159.431.431 0 0 1-.306.089H1V.406a.086.086 0 0 1 .032-.077.327.327 0 0 1 .15-.021.537.537 0 0 1 .336.076.247.247 0 0 1 .076.136.466.466 0 0 1 .006.07h-.069Q1.446.58 1.35.58q-.15 0-.281.01v.123A1.824 1.824 0 0 1 1.3.7h.236L1.6.707a1.431 1.431 0 0 1 .334.07l.039.013.065.023a.341.341 0 0 1 .1.055h.232V.847L2.339.581h-.106L2.1.682 2.082.677 2.014.659V.623.589a.385.385 0 0 0-.147-.274.623.623 0 0 0-.41-.124h-.006V0h-.165v.191h-.2V0H.924v.191H.341v.116h.143a.167.167 0 0 1 .094.02.061.061 0 0 1 .028.052v.972A.485.485 0 0 1 .537 1.3a.267.267 0 0 1-.09-.185v-.006a.259.259 0 0 1 .09-.19V.683L.451.71Q.006.86 0 1.112v.006q0 .23.391.378.071.027.146.049l.069.019A2.531 2.531 0 0 0 1 1.629l.069.006c.085.006.175.009.27.009s.195 0 .283-.012l.071-.007a1.933 1.933 0 0 0 .386-.082l.041-.015q.036-.013.067-.028a.456.456 0 0 0 .219-.19zm-.62.212c-.06 0-.124.007-.193.007h-.158a1.805 1.805 0 0 1-.209-.012L1 1.491V1.14h.28a.433.433 0 0 1 .311.1.343.343 0 0 1 .1.188.538.538 0 0 1 .009.072z" class="prefix__cls-6" data-name="Path 13"/>
                        <path id="prefix__Path_14" d="M1.335.094a.3.3 0 0 1-.077.125.382.382 0 0 1-.276.1H.743A.075.075 0 0 1 .682.287.123.123 0 0 1 .66.208V.1A2.606 2.606 0 0 1 .265.033V.2a.131.131 0 0 1-.03.086.082.082 0 0 1-.066.029H0V.43h.583v.153h.165V.43h.2v.153h.162V.43a1.063 1.063 0 0 0 .341-.063.553.553 0 0 0 .234-.146A.413.413 0 0 0 1.777 0L1.76.006a2.034 2.034 0 0 1-.425.088z" class="prefix__cls-6" data-name="Path 14" transform="translate(.341 1.602)"/>
                    </g>
                    <g id="prefix__Group_4" data-name="Group 4" transform="translate(2.193 .104)">
                        <path id="prefix__Path_15" d="M.226 0a.218.218 0 0 1 .149.152.113.113 0 0 0-.085.014L.282.17A.2.2 0 0 0 .248.2L.256.164A.162.162 0 0 0 .226 0zM.192.6C.084.6 0 .461 0 .3A.415.415 0 0 1 .036.129.292.292 0 0 1 .067.077L.084.058c.068-.071.133-.04.129.054a.263.263 0 0 1 0 .036 1.785 1.785 0 0 0-.065.324A.147.147 0 0 0 .192.6z" class="prefix__cls-10" data-name="Path 15"/>
                        <path id="prefix__Path_16" d="M.223 0a.224.224 0 0 1 .154.163A.428.428 0 0 1 .4.287a.409.409 0 0 1-.055.22C.285.6.2.6.2.481A1.306 1.306 0 0 1 .254.163.161.161 0 0 0 .223 0zM.195.6C.087.6 0 .463 0 .3A.415.415 0 0 1 .034.131.29.29 0 0 1 .065.079l.016-.02c.068-.071.133-.041.13.053a.26.26 0 0 1 0 .036 1.785 1.785 0 0 0-.062.324A.147.147 0 0 0 .195.6z" class="prefix__cls-10" data-name="Path 16" transform="translate(.196 .175)"/>
                    </g>
                </g>
            </g>
        </g>
    </g>
</svg>
