<svg xmlns="http://www.w3.org/2000/svg" width="216" height="90" viewBox="0 0 216 90">
    <defs>
        <style>
            .cls-1{fill:#371f18}.cls-2,.cls-4{fill:#fff}.cls-2,.cls-3{font-size:25px;font-family:MyanmarMN,Myanmar MN}.cls-3{fill:#a58a73;font-size:19px}.cls-5{filter:url(#Rectangle_1703)}
        </style>
        <filter id="Rectangle_1703" width="216" height="90" x="0" y="0" filterUnits="userSpaceOnUse">
            <feOffset dy="3"/>
            <feGaussianBlur result="blur" stdDeviation="3"/>
            <feFlood flood-opacity=".161"/>
            <feComposite in2="blur" operator="in"/>
            <feComposite in="SourceGraphic"/>
        </filter>
    </defs>
    <g id="Group_3535" data-name="Group 3535" transform="translate(-1318 -232)">
        <g class="cls-5" transform="translate(1318 232)">
            <rect id="Rectangle_1703-2" width="198" height="72" class="cls-1" data-name="Rectangle 1703" rx="6" transform="translate(9 6)"/>
        </g>
        <text id="App_Store" class="cls-2" data-name="App Store" transform="translate(1388 292)">
            <tspan x="0" y="0">App Store</tspan>
        </text>
        <text id="Download_on" class="cls-3" data-name="Download on" transform="translate(1388 265)">
            <tspan x="0" y="0">Download on</tspan>
        </text>
        <g id="apple-seeklogo.com" transform="translate(1342.751 255)">
            <path id="Path_4510" d="M25.412 19.853a8.26 8.26 0 0 0 5.015 7.561 20.45 20.45 0 0 1-2.586 5.315c-1.558 2.276-3.174 4.544-5.72 4.591-2.5.046-3.307-1.484-6.167-1.484s-3.754 1.437-6.122 1.53c-2.458.093-4.33-2.462-5.9-4.73C.722 28-1.73 19.527 1.563 13.809a9.148 9.148 0 0 1 7.732-4.684c2.414-.046 4.692 1.624 6.167 1.624s4.243-2.008 7.154-1.713a8.73 8.73 0 0 1 6.835 3.707 8.451 8.451 0 0 0-4.038 7.11M20.71 5.966A8.231 8.231 0 0 0 22.653 0a8.377 8.377 0 0 0-5.5 2.832 7.821 7.821 0 0 0-1.982 5.78 6.93 6.93 0 0 0 5.539-2.646" class="cls-4" data-name="Path 4510"/>
        </g>
    </g>
</svg>
