<svg xmlns="http://www.w3.org/2000/svg" width="33.895" height="28" viewBox="0 0 33.895 28">
    <defs>
        <style>
            .cls-1{fill:#f8d496}
        </style>
    </defs>
    <g id="email-84" transform="translate(-1 -5)">
        <path id="Path_5794" d="M33.421 5H2.474A1.473 1.473 0 0 0 1 6.474v25.052A1.473 1.473 0 0 0 2.474 33h30.947a1.473 1.473 0 0 0 1.474-1.474V6.474A1.473 1.473 0 0 0 33.421 5zm-2.46 4.974L18.435 21.026a.738.738 0 0 1-.976 0L4.933 9.974a.737.737 0 0 1 .976-1.105l12.038 10.622L29.986 8.868a.737.737 0 0 1 .976 1.105z" class="cls-1" data-name="Path 5794"/>
    </g>
</svg>
