<svg xmlns="http://www.w3.org/2000/svg" width="207" height="207" viewBox="0 0 207 207">
    <defs>
        <style>
            .cls-1{fill:#f9b034}.cls-2{fill:#a5622b}.cls-3{fill:#2e1a1a;fill-rule:evenodd}
        </style>
    </defs>
    <g id="Group_3266" data-name="Group 3266" transform="translate(-1229 -681)">
        <rect id="Rectangle_715" width="207" height="207" class="cls-1" data-name="Rectangle 715" rx="10" transform="translate(1229 681)"/>
        <g id="Group_634" data-name="Group 634" transform="translate(1049.641 208.276)">
            <g id="Group_3" data-name="Group 3" transform="translate(263.013 559.097)">
                <path id="Path_13" d="M305.393 587.577a4.755 4.755 0 0 1-1.541 1.277 10.487 10.487 0 0 1-1.05.494 6.276 6.276 0 0 0-.508-1.045A7.006 7.006 0 0 0 301 586.74q-2.232-2.035-7.533-2.915a13.73 13.73 0 0 0 6-2.932 6.926 6.926 0 0 0 .707-.772l-.4-.135a23.083 23.083 0 0 0-5.416-1.126 5.073 5.073 0 0 1-1.337 2.674q-1.552 1.506-5.155 1.506h-3.5v-10.4a1.444 1.444 0 0 1 .534-1.3 5.5 5.5 0 0 1 2.525-.355q4.17 0 5.658 1.276a4.161 4.161 0 0 1 1.282 2.292 7.779 7.779 0 0 1 .174 1.175q-.576-.048-1.168-.081-1.5-.086-3.113-.087-2.458 0-4.735.178v2.066a30.675 30.675 0 0 1 3.866-.239q.512 0 1.016.018a32.12 32.12 0 0 1 1.039-.018q.985 0 1.926.054.586.034 1.153.087a24.134 24.134 0 0 1 5.63 1.18c.228.079.447.153.662.225.388.13.754.255 1.1.388a5.748 5.748 0 0 1 1.671.929h3.845l-.045-.354-.479-4.491h-1.791l-2.209 1.7a24.298 24.298 0 0 0-.336-.092q-.573-.158-1.133-.3a6.844 6.844 0 0 0 .003-1.192 6.477 6.477 0 0 0-2.489-4.6 10.487 10.487 0 0 0-6.894-2.083h-.111V565.8h-2.775v3.218h-3.317V565.8h-2.775v3.218h-9.819v1.948h2.41a2.817 2.817 0 0 1 1.582.335 1.033 1.033 0 0 1 .471.88v16.371a8.214 8.214 0 0 1-1.158-.922 4.5 4.5 0 0 1-1.521-3.117v-.106a4.354 4.354 0 0 1 1.523-3.145V577.3q-.739.214-1.453.453-7.491 2.537-7.586 6.765v.109q0 3.877 6.58 6.359 1.194.451 2.461.819.57.165 1.158.314a42.661 42.661 0 0 0 6.643 1.106q.57.052 1.158.093c1.438.1 2.95.151 4.547.151 1.7 0 3.275-.066 4.756-.2q.607-.053 1.193-.12a32.5 32.5 0 0 0 6.5-1.385c.242-.08.474-.163.7-.247q.606-.227 1.129-.473a7.665 7.665 0 0 0 3.687-3.205zm-10.44 3.565c-1.018.08-2.094.121-3.243.121q-.775 0-1.5-.025-.575.023-1.162.023a30.3 30.3 0 0 1-3.518-.2c-.393-.046-.779-.1-1.158-.161v-5.91h4.715a7.278 7.278 0 0 1 5.239 1.729 5.78 5.78 0 0 1 1.637 3.165 8.883 8.883 0 0 1 .143 1.148q-.564.068-1.153.11z" class="cls-2" data-name="Path 13" transform="translate(-267.53 -565.804)"/>
                <path id="Path_14" d="M299.789 613.364a5.085 5.085 0 0 1-1.3 2.107 6.438 6.438 0 0 1-4.642 1.614h-4.023a1.256 1.256 0 0 1-1.027-.461 2.074 2.074 0 0 1-.377-1.341v-1.873a43.878 43.878 0 0 1-6.643-1.074v2.864a2.2 2.2 0 0 1-.5 1.446 1.384 1.384 0 0 1-1.111.44h-2.85v1.949h9.819v2.56h2.765v-2.56h3.317v2.56H296v-2.575a17.92 17.92 0 0 0 5.737-1.053 9.315 9.315 0 0 0 3.95-2.454 6.957 6.957 0 0 0 1.542-3.724l-.293.1a34.293 34.293 0 0 1-7.147 1.475z" class="cls-2" data-name="Path 14" transform="translate(-271.575 -584.823)"/>
            </g>
            <g id="Group_635" data-name="Group 635">
                <g id="Group_2" data-name="Group 2" transform="translate(256.609 549.589)">
                    <path id="Path_11" d="M259.481 577.523a25.061 25.061 0 1 0 45.829-14.011 5.956 5.956 0 0 1-.675 1.256 23.8 23.8 0 1 1-10.986-9.244 6.887 6.887 0 0 1 .4-1.182 25.051 25.051 0 0 0-34.571 23.181z" class="cls-2" data-name="Path 11" transform="translate(-257.797 -550.777)"/>
                    <path id="Path_12" d="M304.615 560.135a8.063 8.063 0 0 1-.19 1.207 25.846 25.846 0 1 1-11.183-8.917 5.309 5.309 0 0 1 .542-.718 26.822 26.822 0 1 0 10.831 8.427z" class="cls-2" data-name="Path 12" transform="translate(-256.609 -549.589)"/>
                </g>
                <g id="Group_4" data-name="Group 4" transform="translate(293.529 551.333)">
                    <path id="Path_15" d="M323.383 552.564a3.667 3.667 0 0 1 2.5 2.561 1.905 1.905 0 0 0-1.424.228 1.208 1.208 0 0 0-.136.081 3.317 3.317 0 0 0-.565.457c.046-.188.09-.376.132-.566a2.722 2.722 0 0 0-.5-2.76zm-.583 10.1c-1.818-.082-3.256-2.344-3.227-5.106a7 7 0 0 1 .6-2.829 4.871 4.871 0 0 1 .525-.87 3.609 3.609 0 0 1 .28-.329c1.153-1.192 2.249-.669 2.176.912a4.377 4.377 0 0 1-.073.6c-.356 1.9-.991 3.407-1.026 5.459a2.479 2.479 0 0 0 .742 2.159z" class="cls-3" data-name="Path 15" transform="translate(-319.571 -552.564)"/>
                    <path id="Path_16" d="M328.947 557.592a3.767 3.767 0 0 1 2.6 2.748 7.208 7.208 0 0 1 .357 2.078 6.889 6.889 0 0 1-.918 3.7c-.994 1.65-2.362 1.5-2.432-.426a21.993 21.993 0 0 1 .927-5.349 2.715 2.715 0 0 0-.53-2.75zm-.477 10.094c-1.816-.063-3.276-2.306-3.276-5.064a6.983 6.983 0 0 1 .572-2.831 4.9 4.9 0 0 1 .515-.874 3.533 3.533 0 0 1 .276-.331c1.138-1.2 2.238-.692 2.182.888a4.36 4.36 0 0 1-.066.6c-.335 1.9-.953 3.412-.966 5.46a2.474 2.474 0 0 0 .763 2.147z" class="cls-3" data-name="Path 16" transform="translate(-321.897 -554.644)"/>
                </g>
            </g>
        </g>
    </g>
</svg>
