<svg xmlns="http://www.w3.org/2000/svg" width="56" height="56" viewBox="0 0 56 56">
    <defs>
        <style>
            .cls-1{stroke:rgba(112,60,22,.62);fill:url(#radial-gradient)}.cls-2{fill:#a5622b}.cls-3{stroke:none}.cls-4{fill:none}.cls-5{filter:url(#Ellipse_1)}
        </style>
        <radialGradient id="radial-gradient" cx=".879" cy=".066" r=".825" gradientTransform="matrix(.651 -.759 .614 .526 .266 .699)">
            <stop offset="0" stop-color="#95613b"/>
            <stop offset="1" stop-color="#703c16"/>
        </radialGradient>
        <filter id="Ellipse_1" width="56" height="56" x="0" y="0" filterUnits="userSpaceOnUse">
            <feOffset dy="1"/>
            <feGaussianBlur result="blur" stdDeviation="1"/>
            <feFlood flood-opacity=".769"/>
            <feComposite in2="blur" operator="in"/>
            <feComposite in="SourceGraphic"/>
        </filter>
    </defs>
    <g id="Group_715" data-name="Group 715" transform="translate(-509 -331)">
        <g class="cls-5" transform="translate(509 331)">
            <g id="Ellipse_1-2" class="cls-1" data-name="Ellipse 1" transform="translate(3 2)">
                <circle cx="25" cy="25" r="25" class="cls-3"/>
                <circle cx="25" cy="25" r="24.5" class="cls-4"/>
            </g>
        </g>
        <g id="Group_415" data-name="Group 415" transform="translate(521.803 344.507)">
            <path id="Path_13" d="M295.84 582.083a3.555 3.555 0 0 1-1.152.955 7.863 7.863 0 0 1-.785.369 4.684 4.684 0 0 0-.38-.781 5.238 5.238 0 0 0-.968-1.169q-1.668-1.521-5.633-2.18a10.266 10.266 0 0 0 4.489-2.192 5.181 5.181 0 0 0 .529-.577l-.3-.1a17.256 17.256 0 0 0-4.049-.842 3.792 3.792 0 0 1-1 2 5.421 5.421 0 0 1-3.855 1.126h-2.616v-7.774a1.08 1.08 0 0 1 .4-.97 4.112 4.112 0 0 1 1.888-.266q3.118 0 4.23.954a3.11 3.11 0 0 1 .959 1.714 5.821 5.821 0 0 1 .13.879q-.431-.036-.873-.061-1.123-.064-2.328-.065-1.837 0-3.54.133v1.545a22.931 22.931 0 0 1 2.89-.179q.383 0 .759.014c.255-.008.513-.014.777-.014q.737 0 1.44.041.438.025.862.065a18.044 18.044 0 0 1 4.21.882c.17.059.335.114.495.168.29.1.564.19.822.29a4.3 4.3 0 0 1 1.25.695h2.875l-.034-.265-.358-3.358h-1.339l-1.652 1.273-.251-.069q-.428-.118-.847-.224a5.254 5.254 0 0 0 .002-.892 4.843 4.843 0 0 0-1.861-3.442 7.842 7.842 0 0 0-5.155-1.558h-.083V565.8h-2.075v2.406h-2.48V565.8h-2.073v2.406h-7.342v1.457h1.8a2.107 2.107 0 0 1 1.183.251.772.772 0 0 1 .352.658v12.241a6.134 6.134 0 0 1-.865-.69 3.363 3.363 0 0 1-1.137-2.33v-.079a3.255 3.255 0 0 1 1.139-2.351V574.4q-.553.16-1.086.339-5.6 1.9-5.672 5.058v.083q0 2.9 4.92 4.755.892.337 1.84.612.426.124.865.235a31.9 31.9 0 0 0 4.967.827q.426.039.865.069c1.075.075 2.206.113 3.4.113 1.269 0 2.449-.05 3.556-.147q.454-.039.892-.09a24.3 24.3 0 0 0 4.86-1.036c.181-.06.355-.122.523-.184q.453-.17.844-.354a5.73 5.73 0 0 0 2.757-2.4zm-7.806 2.666c-.761.06-1.566.091-2.425.091q-.579 0-1.122-.018-.43.017-.869.017a22.664 22.664 0 0 1-2.63-.149 20.265 20.265 0 0 1-.865-.12v-4.42h3.525a5.442 5.442 0 0 1 3.917 1.293 4.322 4.322 0 0 1 1.224 2.366 6.664 6.664 0 0 1 .107.858q-.422.048-.862.082z" class="cls-2" data-name="Path 13" transform="translate(-267.53 -565.804)"/>
            <path id="Path_14" d="M294.117 612.966a3.8 3.8 0 0 1-.974 1.575 4.814 4.814 0 0 1-3.471 1.207h-3.008a.939.939 0 0 1-.768-.345 1.55 1.55 0 0 1-.282-1V613a32.791 32.791 0 0 1-4.967-.8v2.141a1.644 1.644 0 0 1-.376 1.081 1.035 1.035 0 0 1-.83.329h-2.131v1.457h7.342v1.914h2.075v-1.914h2.48v1.914h2.075v-1.926a13.4 13.4 0 0 0 4.29-.787 6.964 6.964 0 0 0 2.953-1.835 5.2 5.2 0 0 0 1.153-2.784l-.219.074a25.634 25.634 0 0 1-5.342 1.102z" class="cls-2" data-name="Path 14" transform="translate(-273.022 -591.626)"/>
        </g>
    </g>
</svg>
