<svg xmlns="http://www.w3.org/2000/svg" id="Group_449" width="43.292" height="54.239" data-name="Group 449" viewBox="0 0 43.292 54.239">
    <defs>
        <style>
            .cls-1{fill:#f8d496}
        </style>
    </defs>
    <path id="Path_914" d="M14.574.412a1.18 1.18 0 0 0-1.792 0L.244 16.37a1.14 1.14 0 0 0 .9 1.844H11.4v23.938a1.14 1.14 0 0 0 1.14 1.14h2.28a1.14 1.14 0 0 0 1.14-1.14V18.215h10.257a1.14 1.14 0 0 0 .9-1.844z" class="cls-1" data-name="Path 914" transform="rotate(90 21.646 21.646)"/>
    <path id="Path_915" d="M14.574 42.879a1.18 1.18 0 0 1-1.792 0L.244 26.921a1.14 1.14 0 0 1 .9-1.844H11.4V1.14A1.14 1.14 0 0 1 12.538 0h2.28a1.14 1.14 0 0 1 1.14 1.14v23.937h10.259a1.14 1.14 0 0 1 .9 1.844z" class="cls-1" data-name="Path 915" transform="rotate(90 8.204 35.087)"/>
</svg>
