<svg xmlns="http://www.w3.org/2000/svg" id="Group_136" width="123.354" height="88.552" data-name="Group 136" viewBox="0 0 123.354 88.552">
    <defs>
        <style>
            .cls-1{fill:#3b1008}.cls-2{fill:#c29968}.cls-3{fill:#803a17}
        </style>
    </defs>
    <g id="Group_135" data-name="Group 135">
        <path id="Path_1327" d="M119.695 210.357c.373.1.746.187 1.117.266a47.1 47.1 0 0 0 9.933.908 47.191 47.191 0 0 0 9.929-.908c3.192-.711 6.48-1.79 8.7-4.048a48.129 48.129 0 0 0 9.7-14.751.38.38 0 0 1-.081.083 8.847 8.847 0 0 1-1.685.979 26.374 26.374 0 0 1-3.644 1.321 63.982 63.982 0 0 1-7.566 1.505 108.279 108.279 0 0 1-15.356 1.02 109.875 109.875 0 0 1-15.374-1.011 73.203 73.203 0 0 1-6.448-1.257c-.064-.007-.129-.017-.211-.024a28.729 28.729 0 0 0 10.986 15.917z" class="cls-1" data-name="Path 1327" transform="translate(-71.222 -143.633)"/>
        <path id="Path_1328" d="M108.711 193.235z" class="cls-1" data-name="Path 1328" transform="translate(-71.222 -142.451)"/>
        <path id="Path_1329" d="M108.332 194.765c2.3.421 4.618.713 6.95.924q7.873.667 15.78.639a180.49 180.49 0 0 0 15.762-.639 74.566 74.566 0 0 0 7.808-1.062 28.021 28.021 0 0 0 3.82-.946 9.6 9.6 0 0 0 1.783-.8c.081-.048.162-.1.259-.16l.195-.147a2.719 2.719 0 0 0 .454-.454c.1-.25.178-.494.274-.737a2.146 2.146 0 0 0-1.149-1.424 9.22 9.22 0 0 0-1.783-.834 26.2 26.2 0 0 0-3.806-1.038 72.434 72.434 0 0 0-7.808-1.165 150.177 150.177 0 0 0-15.405-.739c-17.577 1.454-22.291 7.287-23.134 8.582z" class="cls-2" data-name="Path 1329" transform="translate(-71.54 -148.355)"/>
        <path id="Path_1330" d="M135.913 187.786q-.535-.218-1.117-.413.557.196 1.117.413z" class="cls-2" data-name="Path 1330" transform="translate(-49.372 -147.361)"/>
        <path id="Path_1331" d="M137.336 189.331a1.078 1.078 0 0 1 .083-.235 3.257 3.257 0 0 0-.34-.463 1.354 1.354 0 0 1 .257.698z" class="cls-2" data-name="Path 1331" transform="translate(-47.459 -146.306)"/>
        <path id="Path_1332" d="M134.544 187.216a48.565 48.565 0 0 0-2.56-.526c.858.162 1.716.323 2.56.526z" class="cls-2" data-name="Path 1332" transform="translate(-51.727 -147.933)"/>
        <path id="Path_1333" d="M135.022 187.427z" class="cls-2" data-name="Path 1333" transform="translate(-50.132 -147.586)"/>
        <path id="Path_1334" d="M211.657 195.043a18.682 18.682 0 0 0-7.323-15.255 18.12 18.12 0 0 0-15.89-3c-.05-1.362-.1-2.723-.195-4.083a1.166 1.166 0 0 0 .211-.649v-.017a1.72 1.72 0 0 0-.731-1.27 5.4 5.4 0 0 0-1.149-.722 16.125 16.125 0 0 0-2.462-.946 48.712 48.712 0 0 0-5.1-1.2c-3.418-.623-6.884-1.044-10.352-1.369-6.932-.64-13.882-.906-20.83-.93-6.968-.007-13.917.211-20.867.81-3.466.314-6.932.713-10.368 1.32a46.6 46.6 0 0 0-5.116 1.174 16.246 16.246 0 0 0-2.512.948 6.815 6.815 0 0 0-1.2.735 1.993 1.993 0 0 0-.809 1.45 1.568 1.568 0 0 0 .421 1.038 131.069 131.069 0 0 0 .487 21.692c.421 3.675 1 7.362 1.781 11.006a53.537 53.537 0 0 0-9.153 3.311 27.321 27.321 0 0 0-9.216 6.684 12.905 12.905 0 0 0-2.738 5.427 10.846 10.846 0 0 0 .549 6.245 16.3 16.3 0 0 0 3.936 5.7c.116.187.211.382.325.559a30.953 30.953 0 0 0 5.719 6.408 50.847 50.847 0 0 0 14.887 8.529c10.756 4.1 22.289 5.491 33.629 5.515 11.34-.015 22.89-1.408 33.631-5.507a51 51 0 0 0 14.885-8.529 31.261 31.261 0 0 0 5.735-6.415 21.679 21.679 0 0 0 1.49-2.72c.162-.211.34-.39.5-.61a12.479 12.479 0 0 0 2.284-5.5 9.96 9.96 0 0 0-.939-5.824 17.117 17.117 0 0 0-6.075-6.487 19.035 19.035 0 0 0 4.26-2.213 19.227 19.227 0 0 0 8.295-15.305zm-43.09-27.435a97.867 97.867 0 0 1 10.335.932 48.365 48.365 0 0 1 5.054 1.092 15.984 15.984 0 0 1 2.4.877c.713.349 1.573.842 1.637 1.514-.064.711-.924 1.183-1.637 1.538-.081.042-.145.064-.224.1a9.445 9.445 0 0 0-2.06-1.286v-.335c0 .107-.015.211-.015.325a22.57 22.57 0 0 0-2.073-.825 47.908 47.908 0 0 0-4.765-1.329c-3.2-.689-6.445-1.15-9.7-1.547-4.359-.494-8.749-.73-13.137-.867 4.723-.229 9.454-.343 14.186-.188zm17.349 6.131a15.065 15.065 0 0 1-1.849.656c0-.542.016-1.084 0-1.626a9.42 9.42 0 0 1 1.85.97zm-58.577-3.289c2.156-.323 4.341-.614 6.529-.9 4.7-.25 9.4-.355 14.093-.355 6.5-.017 12.992.162 19.454.68 3.24.259 6.465.6 9.672 1.134 1.588.276 3.192.592 4.747 1.022a22.349 22.349 0 0 1 2.2.719c-.017.561-.05 1.119-.064 1.678 0 0-.017 0-.017.009a48.373 48.373 0 0 1-5.054 1.092 99.849 99.849 0 0 1-10.335.932c-6.917.21-13.851-.114-20.734-.573-6.886-.478-13.753-1.29-20.494-2.293-3.142-.4-6.268-.972-9.282-1.562 3.017-.619 6.146-1.17 9.285-1.583zm-10.741 5.89c3.436.606 6.9 1.005 10.368 1.312 6.95.606 13.9.825 20.867.818 6.948-.031 13.913-.29 20.83-.93 3.468-.323 6.934-.746 10.352-1.369a49.482 49.482 0 0 0 4.941-1.16 139.409 139.409 0 0 1-1.685 17.212 95.318 95.318 0 0 1-4 16.168 1.081 1.081 0 0 0-.083.235 1.354 1.354 0 0 0-.257-.7 3.487 3.487 0 0 0-.843-.8 9.731 9.731 0 0 0-1.748-.932c-.164-.064-.325-.112-.487-.169q-.56-.218-1.117-.413c-.18-.055-.357-.114-.535-.171a39.263 39.263 0 0 0-1.134-.323c-.178-.048-.356-.1-.535-.145-.129-.04-.261-.057-.4-.09-.844-.2-1.7-.364-2.56-.526a76.699 76.699 0 0 0-4.861-.777 136.8 136.8 0 0 0-31.751 0 66.661 66.661 0 0 0-7.839 1.393 26.31 26.31 0 0 0-3.789 1.222 9.783 9.783 0 0 0-1.768.932 2.2 2.2 0 0 0-1.084 1.5 94.542 94.542 0 0 1-4.1-16.4 139.429 139.429 0 0 1-1.669-17 47.423 47.423 0 0 0 4.889 1.112zm47.044 27.832a72.44 72.44 0 0 1 7.808 1.165 26.2 26.2 0 0 1 3.806 1.038 9.219 9.219 0 0 1 1.783.834 2.145 2.145 0 0 1 1.149 1.424c-.1.243-.176.487-.274.737a2.722 2.722 0 0 1-.454.454l-.195.147c-.1.055-.178.112-.259.16a9.6 9.6 0 0 1-1.783.8 28.018 28.018 0 0 1-3.82.946 74.561 74.561 0 0 1-7.808 1.062c-5.234.445-10.5.654-15.762.639q-7.9.022-15.78-.639c-2.332-.211-4.649-.5-6.95-.924-.29-.048-.566-.081-.856-.138a26.523 26.523 0 0 1-3.808-.956 9.153 9.153 0 0 1-1.783-.786 3.1 3.1 0 0 1-.923-.77c-.081-.241-.178-.485-.259-.728a2.132 2.132 0 0 1 1.132-1.424 9.719 9.719 0 0 1 1.784-.834 27.468 27.468 0 0 1 3.806-1.038 72.638 72.638 0 0 1 7.823-1.165 149.373 149.373 0 0 1 15.813-.739h.4a150.173 150.173 0 0 1 15.411.734zm-45.115 6.162a10.281 10.281 0 0 0 1.748.972 27.561 27.561 0 0 0 3.808 1.312c.325.081.665.138.989.219l.551 2.69c-.178-.033-.357-.057-.535-.1a24.921 24.921 0 0 1-3.677-.957 9.321 9.321 0 0 1-1.7-.785 3.934 3.934 0 0 1-.388-.274c-.243-.568-.5-1.143-.73-1.718-.276-.656-.485-1.319-.73-1.985a4.235 4.235 0 0 0 .665.625zm1.051 3.541a8.37 8.37 0 0 0 1.669.979 26.306 26.306 0 0 0 3.646 1.321c.309.081.616.129.906.21v.024c.083.007.147.017.211.024 2.139.52 4.293.933 6.448 1.257a109.864 109.864 0 0 0 15.374 1.011 108.282 108.282 0 0 0 15.356-1.02 63.979 63.979 0 0 0 7.566-1.505 26.37 26.37 0 0 0 3.644-1.321 8.85 8.85 0 0 0 1.685-.979.378.378 0 0 0 .081-.083 48.129 48.129 0 0 1-9.7 14.751c-2.22 2.259-5.507 3.337-8.7 4.048a54.773 54.773 0 0 1-19.862 0 24.409 24.409 0 0 1-1.117-.267 15.981 15.981 0 0 1-7.6-3.782 48.464 48.464 0 0 1-9.7-14.751.771.771 0 0 0 .094.082zm-12.05-40.629a2.751 2.751 0 0 0 .241.228 6.372 6.372 0 0 0 1.2.744 17.031 17.031 0 0 0 2.512.948.466.466 0 0 1 .079.024c0 12.491 1.474 25.11 5.914 36.943a49.512 49.512 0 0 0 10.692 17.4 13.525 13.525 0 0 0 4.438 2.948 28.279 28.279 0 0 0 4.973 1.571 52.345 52.345 0 0 0 20.492 0 27.914 27.914 0 0 0 4.975-1.571 13.387 13.387 0 0 0 4.423-2.94 49.311 49.311 0 0 0 10.706-17.406c4.471-11.9 5.928-24.6 5.912-37.152l.033-.017a16.092 16.092 0 0 0 2.462-.939 6.055 6.055 0 0 0 1.149-.722 3.322 3.322 0 0 0 .439-.452 183.629 183.629 0 0 1-2.657 21.578 106.913 106.913 0 0 1-6.154 21.4c-2.885 6.763-6.61 13.185-11.761 18.193-2.156 2.146-5.574 3.352-9.008 4.091a50.587 50.587 0 0 1-10.754.97 51.641 51.641 0 0 1-10.774-.97c-3.435-.739-6.851-1.944-8.99-4.091-5.168-5.015-8.878-11.438-11.761-18.193a106.791 106.791 0 0 1-6.154-21.4 179.857 179.857 0 0 1-2.626-21.186zm83.426 10.854a10.049 10.049 0 0 1 8.731 3.062 9.421 9.421 0 0 1 2.156 9.249 10.8 10.8 0 0 1-6.48 6.658 11.145 11.145 0 0 1-8.716-.63c.47-2.552.843-5.112 1.136-7.67.1-.941.145-1.88.224-2.821a1.192 1.192 0 0 0 .325-.152 3.645 3.645 0 0 0 1-.891 7.782 7.782 0 0 0 1.345-2.26 6.7 6.7 0 0 0 .279-4.545zm-16.2 53.489a5.3 5.3 0 0 1 .632 3.425 119.11 119.11 0 0 1-13.154 1.935c-2.883.27-5.8.439-8.716.544a50.432 50.432 0 0 0 6.042-.915 31.509 31.509 0 0 0 5.8-1.845 15.813 15.813 0 0 0 5.379-3.606c.5-.527.989-1.07 1.457-1.621a8.264 8.264 0 0 1 .777.382 5.1 5.1 0 0 1 1.784 1.701zm-33.095 5.855c-.388-.015-.779-.015-1.183-.039a128.542 128.542 0 0 1-19.294-2.31 5.627 5.627 0 0 1 .487-3.256 5.1 5.1 0 0 1 2.121-1.95c.357.414.73.834 1.119 1.239a16.23 16.23 0 0 0 5.377 3.611 32.34 32.34 0 0 0 5.8 1.84 49.027 49.027 0 0 0 5.574.865zm-49.746-17.186a7.979 7.979 0 0 1-.713-4.585 10.306 10.306 0 0 1 1.911-4.5 26.558 26.558 0 0 1 8-6.948 63.868 63.868 0 0 1 8.569-4.269 85.717 85.717 0 0 0 3.223 11.2 59.279 59.279 0 0 0 8.44 15.786 6.814 6.814 0 0 0-.68.884 7.471 7.471 0 0 0-1.248 3.433 6.842 6.842 0 0 0 .551 3.345c.048.107.112.187.16.292-.388-.088-.792-.145-1.167-.233-7.046-1.514-14.01-3.743-20.021-7.356-2.944-1.832-5.665-4.158-7.025-7.049zm103.008 12.351a53.5 53.5 0 0 1-14.725 7.169 88.115 88.115 0 0 1-16.085 3.5 119.617 119.617 0 0 1-16.522.981 121.246 121.246 0 0 1-16.524-.972 89.9 89.9 0 0 1-16.085-3.5 54.219 54.219 0 0 1-14.725-7.176c-.4-.283-.809-.59-1.2-.9a52.166 52.166 0 0 0 8.082 3.9 87.888 87.888 0 0 0 10.822 3.37 125.293 125.293 0 0 0 22.289 3.1c14.953.6 30.116-.7 44.435-5.581a60.4 60.4 0 0 0 10.368-4.642 41.326 41.326 0 0 0 3.922-2.648 34.093 34.093 0 0 1-4.052 3.399zm9.056-19.059a8.844 8.844 0 0 1 .373 5.008 10.669 10.669 0 0 1-2.332 4.429 25.692 25.692 0 0 1-8.426 6.18 62.007 62.007 0 0 1-10.024 3.872c-2.367.68-4.765 1.248-7.178 1.766.05-.13.13-.243.195-.38a6.84 6.84 0 0 0 .406-3.558 7.963 7.963 0 0 0-1.573-3.49 8.067 8.067 0 0 0-.777-.875 59.387 59.387 0 0 0 8.1-15.356l.1-.276c.048-.009.1-.017.129-.026a5.736 5.736 0 0 0 1.216-.38 6.716 6.716 0 0 0 2.056-1.376 7.48 7.48 0 0 0 1.343-1.8c.017-.017.017-.026.033-.042a19.827 19.827 0 0 0 11.145-.583 17.447 17.447 0 0 1 5.214 6.888zm-16.829-10.85l-1.652-.72c.357-1.538.7-3.078.987-4.625a10.239 10.239 0 0 0 3.482 2.132 11.275 11.275 0 0 0 11.7-2.747 11.409 11.409 0 0 0 3-5.6 12.176 12.176 0 0 0-3.5-11.452 11.507 11.507 0 0 0-11.241-2.672l-.6.195.164.551v.017l.033.112.048.057a5.32 5.32 0 0 1 .388 4.447 7.241 7.241 0 0 1-1.036 2.178 3.281 3.281 0 0 1-.809.86.15.15 0 0 1-.05.031 130.233 130.233 0 0 0 .39-14.659 17.562 17.562 0 0 1 15.21 3.813 17.044 17.044 0 0 1 5.864 14.321 16.45 16.45 0 0 1-7.906 12.724 15.968 15.968 0 0 1-14.472 1.037z" class="cls-3" data-name="Path 1334" transform="translate(-88.311 -165.6)"/>
        <path id="Path_1335" d="M133.84 177.464a97.925 97.925 0 0 0 12.588-1.117 51.706 51.706 0 0 0 12.246-3.3l-.05-.226a98.974 98.974 0 0 1-12.36 1.692c-4.146.34-8.31.535-12.472.606-4.162.107-8.326.1-12.474-.088a95.672 95.672 0 0 1-12.424-1.246l-.033.224a50.367 50.367 0 0 0 12.362 2.869 92.674 92.674 0 0 0 12.617.586z" class="cls-3" data-name="Path 1335" transform="translate(-71.097 -159.548)"/>
    </g>
</svg>
