<svg xmlns="http://www.w3.org/2000/svg" width="139.438" height="123.102" viewBox="0 0 139.438 123.102">
    <defs>
        <style>
            .cls-1{fill:#3b1008}.cls-2,.cls-4{fill:#c29968}.cls-3{fill:#803a17}.cls-10,.cls-11,.cls-12,.cls-13,.cls-14,.cls-15,.cls-16,.cls-17,.cls-18,.cls-19,.cls-20,.cls-21,.cls-22,.cls-23,.cls-24,.cls-25,.cls-26,.cls-27,.cls-28,.cls-29,.cls-30,.cls-31,.cls-32,.cls-33,.cls-34,.cls-35,.cls-36,.cls-37,.cls-38,.cls-39,.cls-4,.cls-40,.cls-41,.cls-42,.cls-43,.cls-44,.cls-45,.cls-46,.cls-5,.cls-6,.cls-7,.cls-8,.cls-9{fill-rule:evenodd}.cls-5{fill:#522706}.cls-6{fill:#371906}.cls-7{fill:#cc8a36}.cls-8{fill:#9b5c17}.cls-9{fill:#513d26}.cls-10{fill:#b19770}.cls-11{fill:#dbcd9f}.cls-12{fill:#fcf9f0}.cls-13{fill:#6a4f34}.cls-14{fill:#866743}.cls-15{fill:#e8d9a9}.cls-16{fill:#74400e}.cls-17{fill:#5e2d09}.cls-18{fill:#8f5314}.cls-19{fill:#d8963d}.cls-20{fill:#b67327}.cls-21{fill:#f4ecd3}.cls-22{fill:#22150d}.cls-23{fill:#27160c}.cls-24{fill:#dbcca9}.cls-25{fill:#af9971}.cls-26{fill:#f7eed3}.cls-27{fill:#fff}.cls-28{fill:#9a8059}.cls-29{fill:#482007}.cls-30{fill:#4f351b}.cls-31{fill:#311c0b}.cls-32{fill:#c39463}.cls-33{fill:#9d683a}.cls-34{fill:#75431e}.cls-35{fill:#e0af7a}.cls-36{fill:#f7cb93}.cls-37{fill:#856e4c}.cls-38{fill:#ab854c}.cls-39{fill:#926f3c}.cls-40{fill:#593012}.cls-41{fill:#79634a}.cls-42{fill:#7c5526}.cls-43{fill:#65421a}.cls-44{fill:#9c7f54}.cls-45{fill:#d2bd92}.cls-46{fill:#44240b}
        </style>
    </defs>
    <g id="Group_3443" data-name="Group 3443" transform="translate(-685.938 -1011.276)">
        <g id="Group_160" data-name="Group 160" transform="translate(702.01 1011.276)">
            <g id="Group_159" data-name="Group 159">
                <path id="Path_1413" d="M210.41 491.432a47.92 47.92 0 0 0 9.931.915 47.375 47.375 0 0 0 9.947-.915c3.192-.713 6.463-1.781 8.7-4.05a50.456 50.456 0 0 0 10.612-16.85 91.23 91.23 0 0 0 5.2-19.472.312.312 0 0 0 .017-.121 4.151 4.151 0 0 1-.777.777 10.964 10.964 0 0 1-2.009 1.167 30.354 30.354 0 0 1-4.342 1.545 76.859 76.859 0 0 1-9.023 1.783 141.334 141.334 0 0 1-36.615 0c-2.38-.347-4.763-.761-7.112-1.3.114 1.849 1.54 22.5 12.362 35.675 1.02.335 2.073.614 3.109.846z" class="cls-1" data-name="Path 1413" transform="translate(-160.829 -424.441)"/>
                <path id="Path_1414" d="M227.619 446.694a2.549 2.549 0 0 1 .226.243 1.613 1.613 0 0 0-.226-.243z" class="cls-2" data-name="Path 1414" transform="translate(-133.452 -427.997)"/>
                <path id="Path_1415" d="M227.933 447.112a1.545 1.545 0 0 0-.129-.2 1.545 1.545 0 0 1 .129.2z" class="cls-2" data-name="Path 1415" transform="translate(-133.297 -427.816)"/>
                <path id="Path_1416" d="M194.894 453.939c2.315.4 4.631.73 6.979.956a176.476 176.476 0 0 0 18.439.818 176.9 176.9 0 0 0 18.452-.818 82.575 82.575 0 0 0 9.122-1.329 32.523 32.523 0 0 0 4.438-1.182 11.548 11.548 0 0 0 2.058-.98 2.562 2.562 0 0 0 1.312-1.573 3.637 3.637 0 0 0-.017-.428c-.031-.064-.031-.147-.064-.211 0-.033-.017-.057-.017-.09a3.188 3.188 0 0 0-1.183-1.207 10.637 10.637 0 0 0-2.058-1.02 30.529 30.529 0 0 0-4.438-1.272 67.413 67.413 0 0 0-4.359-.82 59.112 59.112 0 0 1-7.354 1.6 97.593 97.593 0 0 1-12.588 1.119 94.077 94.077 0 0 1-12.616-.577 65.136 65.136 0 0 1-2.756-.382c-9.544 3.274-12.558 6.343-13.35 7.396z" class="cls-2" data-name="Path 1416" transform="translate(-160.865 -429.597)"/>
                <path id="Path_1417" d="M215.409 445.864a194.5 194.5 0 0 0 12.474-.606c1.117-.1 2.236-.2 3.368-.325-.209-.015-.419-.048-.616-.072a167.374 167.374 0 0 0-18.483-.908h-.1c-2.753.608-5.215 1.24-7.419 1.871 3.598.113 7.18.137 10.776.04z" class="cls-2" data-name="Path 1417" transform="translate(-152.705 -430.294)"/>
                <path id="Path_1418" d="M227.985 447.628a.278.278 0 0 1-.031.154.054.054 0 0 0 .015-.033.351.351 0 0 0 .016-.121z" class="cls-2" data-name="Path 1418" transform="translate(-133.172 -427.214)"/>
                <path id="Path_1419" d="M299.736 465.956A18.647 18.647 0 0 0 292.4 450.7a18.084 18.084 0 0 0-15.877-3 123.59 123.59 0 0 0-.193-4.082 1.329 1.329 0 0 0 .209-.649v-.026a1.715 1.715 0 0 0-.73-1.263 5.79 5.79 0 0 0-1.149-.722 15.264 15.264 0 0 0-2.462-.937 44.128 44.128 0 0 0-5.105-1.2c-3.435-.632-6.884-1.053-10.352-1.376-6.934-.641-13.884-.9-20.834-.924-6.968-.017-13.917.2-20.869.809-3.466.309-6.932.706-10.368 1.314a50.128 50.128 0 0 0-5.134 1.174 16.132 16.132 0 0 0-2.5.948 6.53 6.53 0 0 0-1.2.744 1.954 1.954 0 0 0-.809 1.433 1.568 1.568 0 0 0 .421 1.046 131.088 131.088 0 0 0 .487 21.692 111.161 111.161 0 0 0 1.781 11.009 53.446 53.446 0 0 0-9.151 3.31 27.211 27.211 0 0 0-9.218 6.691 12.78 12.78 0 0 0-2.738 5.419 11 11 0 0 0 .535 6.254 16.649 16.649 0 0 0 3.953 5.7 5.088 5.088 0 0 0 .323.551 30.488 30.488 0 0 0 5.719 6.408 50.906 50.906 0 0 0 14.891 8.53c10.739 4.1 22.291 5.491 33.631 5.515 11.342-.016 22.892-1.408 33.635-5.507a50.832 50.832 0 0 0 14.887-8.53 30.66 30.66 0 0 0 5.719-6.415 22.258 22.258 0 0 0 1.509-2.714c.16-.219.34-.4.5-.607a12.665 12.665 0 0 0 2.284-5.517 9.931 9.931 0 0 0-.939-5.816 17.033 17.033 0 0 0-6.09-6.489 18.4 18.4 0 0 0 4.276-2.211 19.235 19.235 0 0 0 8.294-15.306zm-43.093-27.436a100.88 100.88 0 0 1 10.335.934 46.121 46.121 0 0 1 5.054 1.093 16.129 16.129 0 0 1 2.4.873c.713.349 1.573.844 1.637 1.516-.064.72-.924 1.182-1.637 1.538-.081.042-.162.066-.243.1a9.229 9.229 0 0 0-2.042-1.29v-.34c0 .114-.015.228-.015.333a23.21 23.21 0 0 0-2.075-.827c-1.573-.535-3.161-.956-4.763-1.336-3.209-.672-6.448-1.134-9.7-1.531-4.357-.511-8.749-.737-13.139-.875 4.724-.227 9.456-.343 14.188-.188zm17.349 6.142c-.6.242-1.215.461-1.847.649v-1.628a9.1 9.1 0 0 1 1.847.978zm-58.583-3.3c2.156-.323 4.342-.616 6.531-.891q7.046-.375 14.093-.366c6.481-.015 12.994.164 19.457.682 3.24.259 6.465.6 9.672 1.134 1.588.276 3.192.59 4.749 1.02a21.173 21.173 0 0 1 2.2.729c-.017.551-.05 1.11-.066 1.671-.017 0-.017 0-.017.005a47.952 47.952 0 0 1-5.054 1.1 100.369 100.369 0 0 1-10.335.93c-6.919.2-13.854-.1-20.738-.573-6.9-.48-13.755-1.288-20.5-2.292-3.142-.406-6.268-.965-9.284-1.566 3.024-.618 6.15-1.167 9.292-1.581zm-10.741 5.89c3.436.607 6.9 1 10.368 1.319 6.952.6 13.9.818 20.869.81 6.95-.031 13.9-.292 20.834-.932 3.468-.325 6.934-.746 10.352-1.369a49.451 49.451 0 0 0 4.941-1.16q-.243 5.323-.794 10.613a1.6 1.6 0 0 0-.226-.72 1.539 1.539 0 0 0-.129-.2.7.7 0 0 0-.114-.154 2.538 2.538 0 0 0-.226-.243 4.969 4.969 0 0 0-.553-.478 10.625 10.625 0 0 0-2.04-1.119 32.554 32.554 0 0 0-4.423-1.467c-1.15-.283-2.3-.526-3.451-.744 1.312-.414 2.624-.86 3.889-1.393l-.05-.228c-2.235.478-4.488.827-6.739 1.11a91.54 91.54 0 0 0-2.8-.4 157.891 157.891 0 0 0-37.1 0 112.9 112.9 0 0 0-2.479.357l-.616-.1-.033.2c-2.023.316-4.032.7-6.024 1.207a29.693 29.693 0 0 0-4.409 1.457 10.882 10.882 0 0 0-2.058 1.119 3.324 3.324 0 0 0-1.149 1.327c-.357-3.3-.584-6.61-.73-9.931a49.944 49.944 0 0 0 4.89 1.121zm10.515 4.082a48.928 48.928 0 0 0 8.569 2.13c.924.147 1.832.276 2.756.382a94.066 94.066 0 0 0 12.619.582 97.593 97.593 0 0 0 12.588-1.119 59.131 59.131 0 0 0 7.354-1.6c1.459.228 2.916.5 4.359.82a30.55 30.55 0 0 1 4.438 1.272 10.633 10.633 0 0 1 2.058 1.02 3.188 3.188 0 0 1 1.183 1.207c0 .033.017.057.017.09.033.064.033.147.064.211s.033.145.048.226a.577.577 0 0 0-.015.162.046.046 0 0 0-.017.04 2.562 2.562 0 0 1-1.312 1.573 11.545 11.545 0 0 1-2.058.98 32.521 32.521 0 0 1-4.438 1.182 82.576 82.576 0 0 1-9.122 1.329 176.891 176.891 0 0 1-18.452.818 176.467 176.467 0 0 1-18.439-.818 90.935 90.935 0 0 1-6.979-.956c-.715-.121-1.444-.228-2.156-.373a30.666 30.666 0 0 1-4.423-1.189 10.627 10.627 0 0 1-2.073-.972 3.535 3.535 0 0 1-1.119-1.046c-.033-.382-.081-.763-.129-1.15a3.025 3.025 0 0 1 1.215-1.314 10.776 10.776 0 0 1 2.056-1.02 31.319 31.319 0 0 1 4.44-1.272c2.303-.521 4.635-.892 6.968-1.193zm20.641-1.158a167.389 167.389 0 0 1 18.483.908c.2.024.406.057.616.072-1.132.123-2.251.226-3.368.325a194.5 194.5 0 0 1-12.474.606c-3.6.1-7.178.074-10.774-.04-.566-.024-1.134-.017-1.718-.04-3.271-.154-6.56-.4-9.817-.851l.566-.072a167.907 167.907 0 0 1 18.388-.908zm35.335 6.91a.279.279 0 0 0 .031-.154.3.3 0 0 1-.016.114.068.068 0 0 1-.015.042zm-69.535 1.433a10.923 10.923 0 0 0 2.042 1.158 31.475 31.475 0 0 0 4.421 1.556c.7.178 1.395.349 2.091.5l.276 4.335c-.568-.107-1.136-.188-1.7-.3a30.641 30.641 0 0 1-4.359-1.191 11.511 11.511 0 0 1-2.023-.972 3.769 3.769 0 0 1-.989-.891 115.375 115.375 0 0 1-.715-5.232 3.687 3.687 0 0 0 .955 1.039zm.616 5.274a10.306 10.306 0 0 0 1.992 1.167 31.092 31.092 0 0 0 4.342 1.546 61.3 61.3 0 0 0 1.911.478c2.348.544 4.732.957 7.112 1.3a141.33 141.33 0 0 0 36.615 0 76.869 76.869 0 0 0 9.023-1.782 30.36 30.36 0 0 0 4.342-1.546 10.962 10.962 0 0 0 2.009-1.167 4.158 4.158 0 0 0 .777-.777.313.313 0 0 1-.017.121 91.231 91.231 0 0 1-5.2 19.472 50.455 50.455 0 0 1-10.612 16.85c-2.236 2.27-5.507 3.337-8.7 4.05a47.371 47.371 0 0 1-9.947.915 47.92 47.92 0 0 1-9.931-.915 33.052 33.052 0 0 1-3.111-.851 13.714 13.714 0 0 1-5.59-3.2 49.983 49.983 0 0 1-10.594-16.85 90.2 90.2 0 0 1-5.217-19.472c0-.057-.017-.1-.017-.154a3.847 3.847 0 0 0 .812.822zm-6.64-19.633c.081.081.16.16.241.233a6.5 6.5 0 0 0 1.2.739 16.729 16.729 0 0 0 2.5.946l.1.026c0 12.491 1.476 25.11 5.915 36.945a49.245 49.245 0 0 0 10.692 17.4 13.527 13.527 0 0 0 4.44 2.95 26.734 26.734 0 0 0 4.973 1.562 51.987 51.987 0 0 0 20.494 0 27.308 27.308 0 0 0 4.975-1.562 13.393 13.393 0 0 0 4.423-2.942 49.28 49.28 0 0 0 10.708-17.408c4.471-11.9 5.93-24.6 5.9-37.156a.118.118 0 0 1 .05-.007 16.026 16.026 0 0 0 2.462-.95 5.309 5.309 0 0 0 1.149-.718 2.475 2.475 0 0 0 .423-.456 183.937 183.937 0 0 1-2.643 21.589 108 108 0 0 1-6.154 21.394c-2.885 6.763-6.61 13.195-11.763 18.2-2.154 2.146-5.574 3.347-9.008 4.091a50.911 50.911 0 0 1-10.772.965 51.477 51.477 0 0 1-10.758-.972c-3.435-.737-6.869-1.944-8.99-4.083-5.171-5.022-8.88-11.438-11.763-18.209a106.594 106.594 0 0 1-6.173-21.394 183.513 183.513 0 0 1-2.621-21.183zm83.417 10.855a10.084 10.084 0 0 1 8.747 3.06 9.378 9.378 0 0 1 2.139 9.253 10.712 10.712 0 0 1-6.48 6.658 11.063 11.063 0 0 1-8.7-.632c.452-2.543.842-5.112 1.117-7.672.114-.939.164-1.876.243-2.81a1.913 1.913 0 0 0 .325-.162 4.073 4.073 0 0 0 1-.884 7.545 7.545 0 0 0 1.329-2.268 6.606 6.606 0 0 0 .278-4.543zM262.83 508.51a5.3 5.3 0 0 1 .632 3.426 119.546 119.546 0 0 1-13.156 1.937c-2.883.266-5.8.437-8.716.542a50.511 50.511 0 0 0 6.044-.913 32.2 32.2 0 0 0 5.8-1.842 16.152 16.152 0 0 0 5.377-3.6c.5-.535.989-1.086 1.459-1.628a8.479 8.479 0 0 1 .777.388 5.038 5.038 0 0 1 1.783 1.69zm-33.1 5.857c-.388-.017-.8-.017-1.183-.041a128.8 128.8 0 0 1-19.3-2.308 5.486 5.486 0 0 1 .487-3.258 5.108 5.108 0 0 1 2.121-1.952c.356.414.73.844 1.119 1.239a16.143 16.143 0 0 0 5.377 3.613 32.641 32.641 0 0 0 5.8 1.842 48.572 48.572 0 0 0 5.581.864zm-49.753-17.19a7.977 7.977 0 0 1-.713-4.585 10.419 10.419 0 0 1 1.911-4.5 26.371 26.371 0 0 1 8-6.941 63.017 63.017 0 0 1 8.569-4.271 85.455 85.455 0 0 0 3.223 11.2 59.055 59.055 0 0 0 8.442 15.789 8.5 8.5 0 0 0-.682.873 7.631 7.631 0 0 0-1.262 3.446 6.892 6.892 0 0 0 .566 3.345c.048.1.114.185.162.29-.388-.081-.794-.145-1.183-.235-7.031-1.514-14-3.741-20.007-7.354-2.94-1.84-5.664-4.157-7.024-7.057zM283 509.53a53.718 53.718 0 0 1-14.727 7.169 89.45 89.45 0 0 1-16.087 3.5 119.682 119.682 0 0 1-16.526.979 121.3 121.3 0 0 1-16.524-.97 89.253 89.253 0 0 1-16.087-3.5 53.563 53.563 0 0 1-14.727-7.178c-.4-.283-.81-.59-1.2-.9a53.086 53.086 0 0 0 8.084 3.905 88.273 88.273 0 0 0 10.824 3.37A125.957 125.957 0 0 0 228.321 519c14.955.6 30.119-.7 44.44-5.581a60.383 60.383 0 0 0 10.368-4.642 41.664 41.664 0 0 0 3.922-2.648A34.415 34.415 0 0 1 283 509.53zm9.056-19.059a8.687 8.687 0 0 1 .357 5 10.38 10.38 0 0 1-2.316 4.431 25.983 25.983 0 0 1-8.427 6.191 62.651 62.651 0 0 1-10.026 3.863c-2.365.68-4.765 1.248-7.178 1.766.05-.13.13-.243.178-.38a6.664 6.664 0 0 0 .423-3.558 8.2 8.2 0 0 0-1.573-3.49 7.9 7.9 0 0 0-.777-.877 59.508 59.508 0 0 0 8.1-15.35c.031-.1.064-.195.1-.281.033-.009.1-.017.129-.026a5.678 5.678 0 0 0 1.217-.382 6.674 6.674 0 0 0 2.058-1.376 7.5 7.5 0 0 0 1.343-1.8.033.033 0 0 0 .017-.033 20.025 20.025 0 0 0 11.162-.582 17.393 17.393 0 0 1 5.214 6.884zm-16.833-10.864l-1.669-.713a87.27 87.27 0 0 0 1-4.625 10.143 10.143 0 0 0 3.468 2.13 11.272 11.272 0 0 0 11.715-2.745 11.584 11.584 0 0 0 3-5.6 12.2 12.2 0 0 0-3.5-11.445 11.519 11.519 0 0 0-11.243-2.683l-.6.2.164.551v.015l.033.123.031.048a5.333 5.333 0 0 1 .4 4.447 7.881 7.881 0 0 1-1.036 2.187 3.54 3.54 0 0 1-.81.851.209.209 0 0 1-.048.031 134.262 134.262 0 0 0 .388-14.661 17.582 17.582 0 0 1 15.214 3.815 17.045 17.045 0 0 1 5.864 14.321 16.524 16.524 0 0 1-7.908 12.735 15.977 15.977 0 0 1-14.462 1.018z" class="cls-3" data-name="Path 1419" transform="translate(-176.377 -436.519)"/>
            </g>
        </g>
        <g id="Group_341" data-name="Group 341" transform="translate(685.938 1029.791)">
            <path id="Path_3574" d="M201.451 447.512c1.285.628 1.9 2.09 2.369 3.44.866 2.475 1.625 4.987 2.383 7.5l2.115 7 3.381 11.182 2.251 7.448a131.852 131.852 0 0 0 5.41 15.536 20.28 20.28 0 0 1 1.709 4.7 5.705 5.705 0 0 1-1.062 4.73c-1.33 1.509-3.565 1.843-5.57 1.667s-3.977-.757-5.987-.687c-2.878.1-5.721 1.531-8.532.915a1.742 1.742 0 0 1-.985-.489 1.991 1.991 0 0 1-.3-1.441c.169-2.863.742-5.691.871-8.556a55.142 55.142 0 0 0-1.128-11.62 19.839 19.839 0 0 0-1.505-5.546 10.341 10.341 0 0 0-4.956-4.754c-1.274-.581-2.762-.987-3.517-2.167a5.328 5.328 0 0 1-.634-2.027c-.946-5.667-2.9-14.095-.641-19.7 1.677-4.176 10.017-9.236 14.328-7.131z" class="cls-4" data-name="Path 3574" transform="translate(-152.183 -446.239)"/>
            <g id="Group_340" data-name="Group 340">
                <path id="Path_3575" d="M205.877 460.958c1.318 1.459 1.479 3.9 1.568 5.9.116 2.637 1.507 1.345 2.336 4.092a129.761 129.761 0 0 0 9.865 30.97c3.339 7.332-1.753 10.976-10.116 8.905 7.481.121 9.828-3.712 8.1-8.264a270.886 270.886 0 0 1-9.874-31c-.5-2.033-1.67-2.044-1.588-3.538a7.434 7.434 0 0 0-2.1-5.73 2.209 2.209 0 0 1-.549-2.1c.255-2-.463-5.008-2.3-4.421s-7.779 1.691-2.014-.458a2.926 2.926 0 0 0 2.08-2.029c.246-1.022-.084-3.992-1.468-4.416-1.106-.338-11.307 3.181-12 4.239-.263-2.427 3.039-3.828 10.567-6.23 4.1-1.307 4.666 2.071 4.543 5.588-.088 2.5 2.218 1.676 2.047 6.584a2.568 2.568 0 0 0 .903 1.908z" class="cls-5" data-name="Path 3575" transform="translate(-150.73 -446.595)"/>
                <path id="Path_3576" d="M199.241 449.041l-10 2.547c-1.044.3-1 1.467-1.047 2.387a19.645 19.645 0 0 0 .07 2.461 25.71 25.71 0 0 1 .129 2.951c1.1-.579 1.968-1.4 1.808-2.371-.079-.491-.812-.722-1.1-1.4L189 455.4l9.493-3.058c1.685-.562 1.215-1.838.748-3.3zM201 508.834c1.1-.123 2.255-.132 3.363-.219 1.365-.107 5.311-.283 4.8-2.817l.14-.048c1.588 3.5 7.948.427 6.6-3.642l-2.053-4.749-11.794 3.2c-1.757.555-1.518 2.677-1.588 4.184l7.02-2.229.064.2c.2.636.641 1.529.088 2.1a4.269 4.269 0 0 1-.838.658 11.758 11.758 0 0 1-2.139.426c-1.58.5-3.209.14-3.664 2.937zm7.643-6.687l4.824-1.531.064.2c1.231 3.859-3.618 5.305-4.822 1.533l-.066-.2zm2.74-14.777c.353 1.1 1.128 2.769-.515 3.293l-7.395 2.361c-1.327.423-1.514 2.091-1.386 3.273l.029.255 11.1-3.519c.351 1.1 1.128 2.775-.515 3.293l-11.857 3.745c.077-2.446.1-4.9.208-7.343.051-1.112-.05-2.65 1.45-3.089l8.876-2.269zm-3.648-.454l-.237-.741-1.753-2.409 2.336-.744.05.224c.083.366.138.739.2 1.108.23 1.353.748 2.29 2.944 1.845l-.213-.665-2.8-5.7-7.387 1.726a1.488 1.488 0 0 0-.97 1.863 22.064 22.064 0 0 1 1.2 6.127c2.194-.851 2.551-2.633.406-4.19l-.092-.213 3.2-1.022.042.237c.263 1.439.489 3.231 3.074 2.553zm-1.977-17.032c.393 1.163 1.077 2.786-.516 3.3l-7.586 2.424c-.323.1-.886.208-.959.606-.066.362.358.748.588.976.371.368 1.257.56 1.547 1l.088.132 8.716-2.786c.4 1.163 1.077 2.786-.516 3.295l-7.816 2.5c-.764-2.328-3.617-4.1-5.179-5.662-1.15-1.147-.037-2.409 1.154-2.819l10.478-2.959zm-15.934 4.278l.436-.774.54-1.1.176.081a4.408 4.408 0 0 0 2.97.287c1.152-.285 2.354-.7 3.482-1.069s2.323-.757 3.44-1.2c3.036-1.195 4.151-3.233 3.17-6.324-.775-2.444-3.525-3.471-6.094-2.837-1.15.285-2.352.7-3.479 1.07s-2.628.617-3.743 1.058c-3.13 1.233-3.2 5.844-1.092 8.042l.094.1-.05.125c-.244.628-.474 1.981.149 2.543zm2.08-5.305c.235.415-.057.4-.044.93l.006.241.237-.035a12.251 12.251 0 0 0 1.529-.415c.831-.254 1.658-.52 2.483-.79q1.96-.639 3.914-1.3a4.374 4.374 0 0 0 1.931-1.185 1.367 1.367 0 0 0-.755-2.367 4.367 4.367 0 0 0-2.262.153c-1.185.355-2.371.753-3.547 1.139s-2.358.779-3.532 1.178a4.366 4.366 0 0 0-1.926 1.182 1.528 1.528 0 0 0-.388 1.424 1.424 1.424 0 0 0 .9.871l.169.064 1.285-1.084zm-3.4-5.728c0-.526-.039-1.04-.055-1.569-.039-1.226-.119-2.086 1.2-2.508l11.724-3.19c.353 1.1 1.128 2.766-.515 3.291z" class="cls-6" data-name="Path 3576" transform="translate(-150.424 -444.546)"/>
                <path id="Path_3577" d="M198.872 448.578l-9.129 2.913c-.95.3-1.126.926-1.178 1.847a19.985 19.985 0 0 0 .07 2.461 25.316 25.316 0 0 1 .13 2.951c1.74-.921 1.492-1.944.7-3.771l-.094-.213 8.983-2.894a1.489 1.489 0 0 0 .97-1.863l-.456-1.43zm2.508 59.618c1.1-.123 2.255-.132 3.363-.219 2.159-.169 4.881-.3 4.646-3.034.312.66 1.253 2.326 3.852 1.468a4.074 4.074 0 0 0 2.461-5.081l-1.472-4.609-11.84 3.738a1.88 1.88 0 0 0-1.108.8 6.945 6.945 0 0 0-.432 2.845l7.02-2.229.062.2c.2.636.643 1.529.088 2.095a4.278 4.278 0 0 1-.836.658 7.262 7.262 0 0 1-1.58.684c-1.082.344-2.8.632-3.617 1.441a2.147 2.147 0 0 0-.606 1.239zm7.643-6.687l4.824-1.531.062.2c1.233 3.859-3.618 5.305-4.822 1.533l-.064-.2zm2.086-14.567l.458 1.43a1.488 1.488 0 0 1-.97 1.863l-6.785 2.165c-1.286.41-1.468 2.126-1.343 3.26l.028.255 10.423-3.3.456 1.43a1.486 1.486 0 0 1-.97 1.863l-11.177 3.532c.077-2.448.1-4.9.21-7.345.05-1.112.23-2.137 1.426-2.519l8.246-2.63zm-3.889-.379l-1.1-3.435 2.334-.744.05.224c.083.366.14.739.2 1.108.228 1.352.483 2.6 2.073 2.205l-2.137-6.721-7.428 2.37a1.488 1.488 0 0 0-.97 1.864 17.717 17.717 0 0 1 1.1 5.482c2.194-.851 1.316-2.424.548-4.19l-.094-.213 3.2-1.022.044.237c.261 1.439.292 3.234 2.179 2.837zm-1.691-17.118c.4 1.163 1.079 2.786-.515 3.293l-7.182 2.292c-.29.092-.691.186-.757.542s.357.748.588.976a7.663 7.663 0 0 1 1.035 1.161l.088.132 8.552-2.727c.4 1.163 1.077 2.786-.516 3.293l-7.408 2.363c-.81-2.141-3.488-3.789-5.052-5.35-1.149-1.147.081-2.409 1.272-2.819l9.894-3.157zm-15.548 4.331l1.171-2.077.176.081a4.476 4.476 0 0 0 3 .237c1.15-.285 2.352-.7 3.481-1.068s2.325-.759 3.44-1.2a4.35 4.35 0 0 0 2.751-3.064 5.254 5.254 0 0 0-.121-2.815 4.564 4.564 0 0 0-5.557-3.28c-1.15.285-2.352.7-3.481 1.069s-2.325.757-3.44 1.2a4.363 4.363 0 0 0-2.751 3.04 5.393 5.393 0 0 0 1.336 4.919l.094.1-.048.125c-.246.627-.676 2.174-.053 2.736zm1.86-5.952L191 469.3l-.169-.064a1.427 1.427 0 0 1-.9-.871 1.533 1.533 0 0 1 .388-1.424 4.373 4.373 0 0 1 1.928-1.182c1.174-.4 2.352-.788 3.53-1.178s2.361-.785 3.549-1.139a4.367 4.367 0 0 1 2.262-.152 1.366 1.366 0 0 1 .753 2.367 4.364 4.364 0 0 1-1.931 1.185q-1.954.664-3.914 1.3c-.825.27-1.652.537-2.481.79a11.936 11.936 0 0 1-1.531.415l-.237.035-.006-.239a2.629 2.629 0 0 0-.4-1.327zm-2.961-5.333c0-.526-.037-1.04-.053-1.569a2.573 2.573 0 0 1 .162-1.2 1.654 1.654 0 0 1 1.036-.728l11.041-3.539.456 1.43a1.489 1.489 0 0 1-.97 1.863z" class="cls-7" data-name="Path 3577" transform="translate(-150.143 -444.933)"/>
                <path id="Path_3578" d="M197.031 448.578l-6.325 2.018a62.9 62.9 0 0 0 .513 2.983l5.3-1.707a1.489 1.489 0 0 0 .97-1.863l-.456-1.43zm15.822 56.937q-.686-1-1.43-2.181a2.835 2.835 0 0 0 .645-3.155l-.062-.2-2.187.693c-.07-.119-.14-.237-.21-.36-.461-.8-.895-1.56-1.31-2.3l4.089-1.29 1.472 4.609a4.2 4.2 0 0 1-1.007 4.185zm-5.213-8.687l2.924-.924a1.486 1.486 0 0 0 .97-1.863l-.456-1.43-4.872 1.544c.469.9.941 1.781 1.433 2.674zm-2.782-5.349c-.415-.853-.842-1.75-1.29-2.72l5.7-1.817.458 1.43a1.488 1.488 0 0 1-.97 1.863l-3.9 1.244zm-3.407-7.446l1.705-.544.044.237c.261 1.439.292 3.234 2.179 2.837l-1.1-3.435 2.334-.744.05.224c.083.366.14.739.2 1.108.228 1.352.483 2.6 2.073 2.205L206.8 479.2l-6.522 2.08c.454 1.086.853 2.016 1.174 2.755zm-1.676-3.964c-.353-.855-.728-1.783-1.119-2.771l6.843-2.183c.4 1.163 1.077 2.786-.516 3.293l-5.208 1.661zm-2.2-5.544c-.344-.9-.691-1.838-1.042-2.8l7.152-2.282c.4 1.163 1.079 2.786-.515 3.293l-5.6 1.786zm-1.353-3.661c1.058-.349 2.148-.708 3.179-1.114a4.35 4.35 0 0 0 2.757-3.065 5.255 5.255 0 0 0-.121-2.815 4.564 4.564 0 0 0-5.557-3.28c-1.084.268-2.213.65-3.284 1 .287.983.583 1.966.889 2.94 1.125-.371 2.258-.75 3.392-1.088a4.367 4.367 0 0 1 2.262-.152 1.366 1.366 0 0 1 .753 2.367 4.364 4.364 0 0 1-1.931 1.185q-1.673.568-3.352 1.121.5 1.478 1.013 2.9zm-3.308-10.258c-.27-.963-.527-1.926-.766-2.881l7.073-2.268.456 1.43a1.489 1.489 0 0 1-.97 1.863z" class="cls-8" data-name="Path 3578" transform="translate(-148.302 -444.933)"/>
                <path id="Path_3579" d="M203.122 503.947c7.968 0 14.426-.279 14.426-.625s-6.458-.625-14.426-.625-14.428.281-14.428.625 6.459.625 14.428.625z" class="cls-9" data-name="Path 3579" transform="translate(-149.987 -399.599)"/>
                <g id="Group_333" data-name="Group 333" transform="translate(6.006 2.435)">
                    <path id="Path_3580" d="M192.407 549.505h-16.794c-3.918 0-4.835-6.61-4.331-10.161.333-2.345 1.726-1.615 1.731-3.007.05-17.451-1.645-27.98-2.1-43.713-.507-17.484 12.437-15.152 12.529-18.3.158-5.491.268-11.748.287-14.845 0-.3.039-7.184.048-8.826a2.541 2.541 0 0 1 1.2-2.4 23.2 23.2 0 0 1 5.32-.334c.63 0 1.36.009 2.113.022.753-.013 1.483-.02 2.113-.022a23.186 23.186 0 0 1 5.32.334 2.537 2.537 0 0 1 1.2 2.4l.05 8.826c.017 3.1.129 9.354.287 14.845.09 3.152 13.035.82 12.529 18.3-.16 5.544-.616 10.442-.954 15.221-.151 2.146-1.239 2.3-2.786 2.306.573-5.555 1.261-11.1 1.762-17.105 0-14.437-12.658-14.615-12.619-17.616.081-6.443.129-18.687.044-25.125a1.35 1.35 0 0 0-.575-1.159 25.713 25.713 0 0 0-4.254-.18c-.608 0-1.349.006-2.113.015a187.84 187.84 0 0 0-2.113-.015 25.665 25.665 0 0 0-4.252.18 1.346 1.346 0 0 0-.575 1.159c-.085 6.437-.037 18.682.044 25.125.037 3-12.619 3.179-12.619 17.616 1.3 15.5 3.819 27.988 2.481 45.3-.07.906-1.569.3-1.975 1.7-.7 2.422.083 6.88 4.3 6.88h24.443c.88 2.137 1.185 2.573-.774 2.573z" class="cls-5" data-name="Path 3580" transform="translate(-170.899 -447.92)"/>
                    <g id="Group_332" data-name="Group 332" transform="translate(2.979 2.009)">
                        <path id="Path_3581" d="M179.76 454.225c-.436 0-.472.349-.472.893v5.041l.213.307h11.662l.215-.307.108-5.239c.007-.325-.07-.695-.476-.695z" class="cls-10" data-name="Path 3581" transform="translate(-166.854 -444.647)"/>
                        <path id="Path_3582" d="M182.02 459.449h2.486c.007-.276.015-.505.018-.673a15.935 15.935 0 0 0-.051-3.418c-.156-.794-.634-.757-1.126-.742-.63.017-1.286.2-1.316.684-.066 1.077-.009 2.056 0 3.181 0 .276-.003.603-.011.968z" class="cls-11" data-name="Path 3582" transform="translate(-164.579 -444.323)"/>
                        <path id="Path_3583" d="M183.167 459.5h.954c.026-1.2.068-2.222.112-2.81a2.986 2.986 0 0 0-.41-1.93c-.61-.844-.823 1.193-.739 1.775a18.917 18.917 0 0 1 .086 2.83z" class="cls-12" data-name="Path 3583" transform="translate(-163.686 -444.37)"/>
                        <path id="Path_3584" d="M179.849 454.636c.029 3.517.035 1.536 0 5.09h2.47c.046-3.64-.029-1.553-.064-5.14 0-.228-.34-.178-.829-.2-.459-.018-1.579-.066-1.577.248zm10.013 5.09c-.035-3.537.081-1.511.108-5.03 0-.3-.752-.294-1.185-.277-.483.02-.8-.029-.783.224a39.91 39.91 0 0 1 .085 5.083z" class="cls-13" data-name="Path 3584" transform="translate(-166.381 -444.522)"/>
                        <path id="Path_3585" d="M185.432 458.591h-5.623a.577.577 0 0 1-.583-.568v-.465a.567.567 0 1 0 0-1.134v-1.917c0-.206.469-.406.287-.487-.338-.151-.329-1.992-.037-2.225.143-.112-.25-.272-.25-.463v-1.753a.574.574 0 0 1 .581-.566h11.252a.575.575 0 0 1 .581.566v1.753c0 .191-.393.351-.252.463.292.233.3 2.075-.037 2.225-.18.081.289.281.289.487v1.917a.567.567 0 1 0 0 1.134v.465a.578.578 0 0 1-.584.568z" class="cls-10" data-name="Path 3585" transform="translate(-166.903 -449.013)"/>
                        <path id="Path_3586" d="M179.553 455.27c-.04-.48 10.969-1.216 11.009-.737s-10.969 1.217-11.009.737zm4.778.825c.11.323 6.513-.364 6.432-.64-.108-.375-6.559.266-6.432.64zm0-4.96c-.127-.379 6.323-1.064 6.432-.687.081.281-6.322 1.014-6.432.687zm-4.778-.858c.04.478 11.05-.259 11.009-.739s-11.049.262-11.009.739z" class="cls-14" data-name="Path 3586" transform="translate(-166.629 -448.704)"/>
                        <path id="Path_3587" d="M182.185 450.507c-.634.4-.371 1.825 0 2.207a1.819 1.819 0 0 0 0-2.207zm3.742 0c-.634.4-.369 1.825 0 2.207a1.819 1.819 0 0 0 0-2.207zm-1.246 0c-.636.4-.371 1.825 0 2.207a1.824 1.824 0 0 0 0-2.207zm-1.248 0c-.636.4-.371 1.825 0 2.207a1.822 1.822 0 0 0-.001-2.207z" class="cls-14" data-name="Path 3587" transform="translate(-164.745 -447.762)"/>
                        <path id="Path_3588" d="M181.606 451.1c-1.013.1-1.852.073-1.876-.066s.779-.335 1.79-.437 1.852-.072 1.876.068-.777.335-1.79.436zm-1.777 5.947h2.994c.085 0 .154.171.154.382v.1a.907.907 0 0 1-.005.1h4.811a.543.543 0 0 1 0-.077v-.092c0-.2.07-.358.154-.358h2.354c.085 0 .154.162.154.358v.092c0 .2-.07.358-.154.358h-10.462c-.086 0-.156-.171-.156-.382v-.1c0-.211.07-.382.156-.382zm1.694-2.27c-.921.088-1.685.053-1.705-.075s.708-.3 1.628-.39 1.685-.051 1.705.077-.708.3-1.628.388zm.083 1.318c-1.013.1-1.852.072-1.876-.066s.779-.336 1.792-.437 1.851-.073 1.874.066-.777.334-1.79.437zm7.628.283c-1.013.1-1.852.072-1.876-.068s.779-.335 1.79-.437 1.852-.072 1.876.068-.777.335-1.79.437zm-.083-1.318c-.921.086-1.685.051-1.707-.077s.708-.3 1.63-.388 1.683-.053 1.705.075-.707.3-1.628.39zm.083-3.677c-1.013.1-1.852.072-1.876-.068s.779-.334 1.79-.437 1.852-.072 1.876.068-.777.334-1.79.437zm.037-1.318a3.714 3.714 0 0 1-1.819-.075c-.024-.129.753-.3 1.737-.39a3.752 3.752 0 0 1 1.821.075c.022.129-.755.3-1.738.39zm-7.628-.281a3.7 3.7 0 0 1-1.819-.077c-.024-.129.755-.3 1.738-.388a3.716 3.716 0 0 1 1.819.075c.019.129-.755.306-1.738.39z" class="cls-13" data-name="Path 3588" transform="translate(-166.528 -448.797)"/>
                        <path id="Path_3589" d="M180.826 450.507c-.634.4-.369 1.825 0 2.207a1.819 1.819 0 0 0 0-2.207z" class="cls-13" data-name="Path 3589" transform="translate(-165.883 -447.762)"/>
                        <path id="Path_3590" d="M181.505 450.507c-.634.4-.369 1.825 0 2.207a1.819 1.819 0 0 0 0-2.207z" class="cls-13" data-name="Path 3590" transform="translate(-165.314 -447.762)"/>
                        <path id="Path_3591" d="M185.578 450.507c-.634.4-.369 1.825 0 2.207a1.819 1.819 0 0 0 0-2.207z" class="cls-13" data-name="Path 3591" transform="translate(-161.902 -447.762)"/>
                        <path id="Path_3592" d="M184.9 450.507c-.634.4-.369 1.825 0 2.207a1.819 1.819 0 0 0 0-2.207z" class="cls-13" data-name="Path 3592" transform="translate(-162.471 -447.762)"/>
                        <path id="Path_3593" d="M180.149 450.507c-.636.4-.371 1.825 0 2.207a1.824 1.824 0 0 0 0-2.207z" class="cls-13" data-name="Path 3593" transform="translate(-166.451 -447.762)"/>
                        <path id="Path_3594" d="M179.818 450.507a2.939 2.939 0 0 0 0 2.207 2.982 2.982 0 0 0 0-2.207zm2.494 0a2.957 2.957 0 0 0 0 2.207 2.973 2.973 0 0 0 0-2.207zm6.237 0a2.957 2.957 0 0 0 0 2.207 2.974 2.974 0 0 0 0-2.207zm1.248 0a2.939 2.939 0 0 0 0 2.207 2.974 2.974 0 0 0 0-2.207zm-8.733 0a2.957 2.957 0 0 0 0 2.207 2.973 2.973 0 0 0 0-2.207z" class="cls-15" data-name="Path 3594" transform="translate(-166.59 -447.762)"/>
                        <path id="Path_3595" d="M172.52 484.881c.485 5.794 1.193 11.561 1.788 17.342.456 4.44.829 8.88.987 13.342A130.965 130.965 0 0 1 175 530.3a1.532 1.532 0 0 1-.4.932 2.79 2.79 0 0 1-1.31.652.392.392 0 0 0-.305.316 5.824 5.824 0 0 0 .039 3.071 3.218 3.218 0 0 0 3.313 2.549h24.573a5.71 5.71 0 0 1 1.121-1.9 7.377 7.377 0 0 0 1.285-1.781c.4-1.5-.908-4.914-1.448-6.333-1.294-3.392-2.744-6.7-3.92-10.142-1.25-3.659-2.361-7.845-2.113-11.737.123-1.911 1.073-3.894 3.247-3.9h8.729c.59-5.717 1.288-11.417 1.768-17.146-.009-5.153-1.637-9.245-5.9-12.25a47.645 47.645 0 0 0-4.256-2.477c-1.081-.608-2.475-1.444-2.459-2.861.04-3.223.063-6.165.075-9.389l-.211-.283h-11.665l-.1.283c.011 3.223.033 6.166.074 9.389.018 1.417-1.378 2.253-2.459 2.861a47.87 47.87 0 0 0-4.254 2.477c-4.268 3.005-5.897 7.097-5.904 12.25z" class="cls-16" data-name="Path 3595" transform="translate(-172.52 -441.802)"/>
                        <path id="Path_3596" d="M173.057 484.841c.483 5.772 1.191 11.522 1.783 17.281.458 4.458.832 8.928.991 13.408a132.092 132.092 0 0 1-.3 14.847 2.511 2.511 0 0 1-.654 1.523 2.875 2.875 0 0 1-1.455.821 4.957 4.957 0 0 0 .1 2.271 2.248 2.248 0 0 0 2.367 1.841h25.029a8.614 8.614 0 0 1 .665-.915 7.376 7.376 0 0 0 1.285-1.781c.4-1.494-.888-4.864-1.435-6.3.02.8.042 1.6.059 2.406.062 2.72-2.5-.467-11.814-.641-4.75-.088-9.153 3.67-8.992.641.263-4.94.327-9.762.206-14.713-.11-4.48-.369-8.95-.685-13.408-.408-5.759-.895-11.509-1.231-17.281.035-14.663 24.191-15.176 24.228 0-.334 5.741-.818 11.458-1.224 17.188h4.392c.59-5.728 1.292-11.447 1.773-17.186-.017-4.789-1.481-8.584-5.485-11.4a47.126 47.126 0 0 0-4.171-2.424c-1.446-.814-2.984-1.869-2.962-3.732q.061-4.829.075-9.661h-10q.019 4.832.075 9.661c.024 1.863-1.514 2.918-2.96 3.732a47.126 47.126 0 0 0-4.171 2.424c-4.008 2.814-5.474 6.609-5.489 11.398z" class="cls-6" data-name="Path 3596" transform="translate(-172.07 -441.802)"/>
                        <path id="Path_3597" d="M180.391 499.369c2.97-1.27 9.071-1.659 12.472.489 1.2.761-1.143.643-1.487.662-1.264.07-11.272.176-11.8-.153-.633-.395.312-.783.815-.998z" class="cls-16" data-name="Path 3597" transform="translate(-166.785 -407.7)"/>
                        <path id="Path_3598" d="M184.55 493.483a178.385 178.385 0 0 1 .024-18.6c1.915-6.779 9.4-5.316 15.174-1.621-4.1-10.64-23.439-8.85-23.471 4.271.336 5.772.823 11.522 1.231 17.281.316 4.458.575 8.927.685 13.408.121 4.951.057 9.773-.206 14.713-.162 3.028 4.241-.73 8.992-.641 9.317.174 11.877 3.361 11.814.641-.017-.744-.035-1.47-.055-2.183-2.652 2.846-9.122-.187-11.5-2.624-3.175-3.245-2.624-19.764-2.688-24.645z" class="cls-17" data-name="Path 3598" transform="translate(-169.373 -434.496)"/>
                        <path id="Path_3599" d="M180.908 472.375a178.387 178.387 0 0 0-.024 18.6c.055 4.2-.346 17 1.56 22.569 1.854 1.172 3.6 1.36 4.794-.689 2.163-3.71.919-18.375 1.132-23.427a115.442 115.442 0 0 0 .042-14.865c-.377-5.149-3.1-6.729-6.941-3.664a8.418 8.418 0 0 0-.563 1.476z" class="cls-8" data-name="Path 3599" transform="translate(-165.707 -431.986)"/>
                        <path id="Path_3600" d="M181.361 457.621c.007.976.048 1.983.061 2.9.011 1.3-.112 4.045-.279 6.088a12.76 12.76 0 0 0-.2 2.883c.307 1.494 3.416 1.314 5.188 1.079l.29-.037c1.446-.241 1.081-1.562.9-2.835a44.042 44.042 0 0 1-.241-6.77c.006-.459.068-1.935.046-3.3z" class="cls-17" data-name="Path 3600" transform="translate(-165.507 -441.802)"/>
                        <g id="Group_326" data-name="Group 326" transform="translate(16.265 15.819)">
                            <path id="Path_3601" d="M182.44 457.621c-.051 2.957-.248 8.084-.882 10.308-.357 1.251.967 1.479 2.8 1.461 2.205-.024 1.082-1.538.774-2.6-.4-1.4-.27-6.8-.208-9.166z" class="cls-18" data-name="Path 3601" transform="translate(-181.263 -457.621)"/>
                            <path id="Path_3602" d="M184.17 457.621a54.8 54.8 0 0 0 .338 8.85c.05.209.992 2.733-.281 2.332-1.729-.544-1.125-4.094-1.084-5.059.024-.577.053-5.083.074-6.123z" class="cls-19" data-name="Path 3602" transform="translate(-180 -457.621)"/>
                            <path id="Path_3603" d="M182.15 457.621c.022 2.78-.081 7.792-.588 9.712-.25.946-.586 1.959 1.393 2.218 1.615.209-.1-.847-.274-1.138-.2-.327.064-1.492.1-1.931.134-1.467.3-7.308.289-8.78v-.081z" class="cls-20" data-name="Path 3603" transform="translate(-181.371 -457.621)"/>
                        </g>
                        <path id="Path_3604" d="M184.337 466.172c4.611-.037 10.793 2.336 11.2 8.277.244 3.565-.7 10.4-.774 17.609-.02 2.178-2.3 1.5-2.244-.165.028-.843-.151-1.3-.119-2.154.143-3.96.233-7.86.195-11.826-.138-5.212-.772-8.942-5.886-10.094-.781-.176-1.529-.369-2.306-.52-1.1-.211-2.091-1.112-.066-1.127zm4.4 57.663c-2.426-.847-2.025-1.487.491-1.244 4.127.4 4.364 2.942-.49 1.244z" class="cls-20" data-name="Path 3604" transform="translate(-163.601 -434.639)"/>
                        <path id="Path_3605" d="M181.682 468.647a11.112 11.112 0 0 0-2.271 2.555c-2.194 3.916-.408 14.332-.154 19.123.423 7.954 1.143 16.352.814 24.274-.1 1.97.037 4.523-.266 6.392-.182 1.691 3.468-.068 7 0 2.02.038 2.929.34 2.832.586-.1.261-1.338.469-3.376.572a9.572 9.572 0 0 0-3.78.742c-1.771.7-2.863 1.334-3.708 1.569-2.385.665-1.823-.88-1.457-5.616.037-.47.063-.941.09-1.411.077-1.489.232-3.039.355-4.532l.037-.461c.141-1.56.213-3.082.206-4.648a259.768 259.768 0 0 0-2.262-28.534c-.65-4.706-1.084-9.451 4.451-11.746 1.112-.465 2.891-.197 1.489 1.135z" class="cls-8" data-name="Path 3605" transform="translate(-170.138 -433.695)"/>
                        <path id="Path_3606" d="M179.284 457.454l.214.307h11.662l.214-.307z" class="cls-13" data-name="Path 3606" transform="translate(-166.854 -441.942)"/>
                        <path id="Path_3607" d="M181.842 458.771h.924c0-.292-.006-.582 0-.875.005-.351.228-2.279-.548-2.461-.456-.108-.443.4-.461.61a12.011 12.011 0 0 0 .066 1.727c.008.271.015.61.019.999z" class="cls-21" data-name="Path 3607" transform="translate(-164.798 -443.645)"/>
                        <path id="Path_3608" d="M190.041 465.142c1.362-.32 2.084.371 3.093 1.119 1.082.8 1.748 1.67-.292.88-3.486-1.349-9.817-.843-13.36.586-1.759.708-1.558.1-.215-1.06a5.527 5.527 0 0 1 4.148-1.512 15.212 15.212 0 0 0 6.626-.013z" class="cls-22" data-name="Path 3608" transform="translate(-167.752 -435.57)"/>
                        <path id="Path_3609" d="M181.854 451.485a2.939 2.939 0 0 0 0 2.207 2.973 2.973 0 0 0 0-2.207zm.29 5.258h3.181c.085 0 .154.094.154.209v.053c0 .116-.07.21-.154.21h-3.181c-.085 0-.154-.094-.154-.21v-.053c0-.116.07-.209.154-.209zm1.637-5.923a4.253 4.253 0 0 1-1.794-.035 4.18 4.18 0 0 1 1.755-.355 4.23 4.23 0 0 1 1.794.035 4.224 4.224 0 0 1-1.755.355zm-.088-1.051a4.23 4.23 0 0 1-1.794-.066 4.164 4.164 0 0 1 1.757-.325 4.268 4.268 0 0 1 1.794.066 4.161 4.161 0 0 1-1.757.325zm0 4.993a4.287 4.287 0 0 1-1.794-.064 4.159 4.159 0 0 1 1.757-.325 4.228 4.228 0 0 1 1.794.066 4.213 4.213 0 0 1-1.757.323zm.088 1.053a4.2 4.2 0 0 1-1.794-.037 4.234 4.234 0 0 1 1.755-.353 4.281 4.281 0 0 1 1.794.033 4.21 4.21 0 0 1-1.755.357zm-.68-4.33a2.939 2.939 0 0 0 0 2.207 2.973 2.973 0 0 0 0-2.207zm1.248 0a2.939 2.939 0 0 0 0 2.207 2.982 2.982 0 0 0 0-2.207zm1.248 0a2.939 2.939 0 0 0 0 2.207 2.991 2.991 0 0 0 .003-2.207z" class="cls-21" data-name="Path 3609" transform="translate(-164.885 -448.74)"/>
                        <g id="Group_327" data-name="Group 327" transform="translate(12.543 15.82)">
                            <path id="Path_3610" d="M191.318 457.9l-.211-.282h-11.661l-.1.282z" class="cls-17" data-name="Path 3610" transform="translate(-179.346 -457.621)"/>
                            <path id="Path_3611" d="M189.881 457.9v-.282h-10v.282z" class="cls-23" data-name="Path 3611" transform="translate(-178.896 -457.621)"/>
                        </g>
                        <path id="Path_3612" d="M186.908 457.621h-5.761v.282h5.762z" class="cls-6" data-name="Path 3612" transform="translate(-165.294 -441.802)"/>
                        <g id="Group_328" data-name="Group 328" transform="translate(17.044 15.82)">
                            <path id="Path_3613" d="M182.013 457.621l-.005.282h2.483l.007-.282z" class="cls-17" data-name="Path 3613" transform="translate(-181.616 -457.621)"/>
                            <path id="Path_3614" d="M184.077 457.621v.282h-.954v-.282z" class="cls-18" data-name="Path 3614" transform="translate(-180.685 -457.621)"/>
                            <path id="Path_3615" d="M181.795 457.621v.282h.924v-.282z" class="cls-18" data-name="Path 3615" transform="translate(-181.795 -457.621)"/>
                        </g>
                        <g id="Group_331" data-name="Group 331" transform="translate(6.511 39.087)">
                            <g id="Group_329" data-name="Group 329" transform="translate(0 5.01)">
                                <path id="Path_3616" d="M184.4 479.321a.176.176 0 1 1-.351-.013c.009-.265-.085-.338-.239-.345a3.072 3.072 0 0 0-.458.04 2.333 2.333 0 0 1-2.032-.419 3.1 3.1 0 0 1-.8-2.411 4.212 4.212 0 0 1 .2-1.123 2.765 2.765 0 0 1 .516-.939 1.673 1.673 0 0 1 1.378-.6 1.335 1.335 0 0 1 .893.487 3.518 3.518 0 0 1 .678 1.209 4.076 4.076 0 0 1 .226 1.468 2.068 2.068 0 0 1-.6 1.476 1.387 1.387 0 0 1-.43.27 1.618 1.618 0 0 1-1 .053 1.776 1.776 0 0 1-.86-.513 1.487 1.487 0 0 1-.289-.456.174.174 0 0 1 .1-.228.178.178 0 0 1 .228.1 1.151 1.151 0 0 0 .222.351 1.419 1.419 0 0 0 .687.406 1.264 1.264 0 0 0 .783-.037 1.106 1.106 0 0 0 .325-.2 1.725 1.725 0 0 0 .485-1.231 3.763 3.763 0 0 0-.208-1.342 3.16 3.16 0 0 0-.6-1.084 1 1 0 0 0-.649-.373 1.33 1.33 0 0 0-1.1.485 2.384 2.384 0 0 0-.448.82 3.791 3.791 0 0 0-.186 1.027 2.747 2.747 0 0 0 .678 2.13 2.041 2.041 0 0 0 1.753.336 3.208 3.208 0 0 1 .516-.044c.373.015.6.171.579.709zm11.805-.744a.177.177 0 0 1-.289-.2 3.612 3.612 0 0 0 .583-1.773v-.011a1.107 1.107 0 0 1-.226-.031.524.524 0 0 1-.263-.14.327.327 0 0 1-.083-.3.657.657 0 0 1 .206-.327.57.57 0 0 1 .059-.05.95.95 0 0 1 .3-.14 5.808 5.808 0 0 0-.248-1.248c-.112-.345-.263-.513-.393-.555a.131.131 0 0 0-.092 0 .113.113 0 0 0-.053.064.529.529 0 0 0 .129.459.175.175 0 1 1-.285.2.859.859 0 0 1-.173-.792.453.453 0 0 1 .233-.254.474.474 0 0 1 .349-.017 1.12 1.12 0 0 1 .619.781 6.047 6.047 0 0 1 .259 1.288 2.789 2.789 0 0 1 .43-.011 2.178 2.178 0 0 1 .834.208 1.571 1.571 0 0 0 .535-.923 1.544 1.544 0 0 0-.09-.865.954.954 0 0 0-.489-.524 1.159 1.159 0 0 0-1.191.367.177.177 0 0 1-.248-.018.173.173 0 0 1 .017-.246 1.478 1.478 0 0 1 1.555-.428 1.311 1.311 0 0 1 .68.711 1.879 1.879 0 0 1 .112 1.064 1.907 1.907 0 0 1-.581 1.069l.029.028a1.091 1.091 0 0 1 .083.1 1.539 1.539 0 0 1 .136.978 1.724 1.724 0 0 0 .189 1.165.426.426 0 0 0 .426.189.3.3 0 0 0 .173-.123.149.149 0 0 0 .022-.136c-.033-.077-.145-.149-.379-.182a.177.177 0 0 1-.149-.2.175.175 0 0 1 .2-.151.756.756 0 0 1 .652.4.49.49 0 0 1-.05.461.647.647 0 0 1-.379.272.755.755 0 0 1-.786-.305 1.965 1.965 0 0 1-.27-1.408 1.384 1.384 0 0 0-.068-.752.545.545 0 0 0-.051-.062c-.018-.018-.039-.035-.059-.053a2.521 2.521 0 0 1-.8.334 4.239 4.239 0 0 1-.474.085v.055a3.944 3.944 0 0 1-.645 1.948zm.312-2.338v-.279a.516.516 0 0 0-.114.063l-.024.018a.355.355 0 0 0-.1.141.232.232 0 0 0 .085.035.917.917 0 0 0 .16.022zm.347-.358c.005.112.005.224.005.338a3.719 3.719 0 0 0 .375-.072 2.245 2.245 0 0 0 .509-.186 2.146 2.146 0 0 0-.5-.09 2.424 2.424 0 0 0-.386.009zm-12.309-1.764c-.134.123-.226.16-.281.147a.043.043 0 0 1-.024-.017.115.115 0 0 1-.026-.061.335.335 0 0 1 .1-.3.454.454 0 0 1 .248-.138.261.261 0 0 1 .2.061.619.619 0 0 1 .178.608c-.011.1-.031.191-.05.283s-.029.151-.042.226c-.289 1.869-.193 2.959.1 3.466a.691.691 0 0 0 .658.4 1.241 1.241 0 0 0 .739-.386 3.37 3.37 0 0 0 .48-.586 2.378 2.378 0 0 0 .191.538.621.621 0 0 0 .632.41.892.892 0 0 0 .458-.233.781.781 0 0 0 .322-.731.5.5 0 0 0-.114-.239.472.472 0 0 0-.217-.145.574.574 0 0 0-.583.165l-.013.013a.175.175 0 1 0 .248.248.247.247 0 0 1 .239-.094.141.141 0 0 1 .059.041.165.165 0 0 1 .035.077.45.45 0 0 1-.206.4.566.566 0 0 1-.272.153c-.1.013-.2-.074-.277-.224a2.833 2.833 0 0 1-.233-.829c.031-.061.064-.123.094-.186a7.538 7.538 0 0 0 .7-2.435 1.99 1.99 0 0 0-.2-1.261.506.506 0 0 0-.246-.208.351.351 0 0 0-.329.044 1.131 1.131 0 0 0-.366.709 12.854 12.854 0 0 0-.085 2.494c.015.27.039.533.073.779a3.591 3.591 0 0 1-.627.845.911.911 0 0 1-.516.29.363.363 0 0 1-.333-.224c-.254-.446-.331-1.457-.055-3.238.009-.062.024-.132.039-.2v-.009c.084-.421.18-.89-.255-1.237a.621.621 0 0 0-.467-.134.794.794 0 0 0-.447.235.7.7 0 0 0-.2.627.512.512 0 0 0 .1.211.4.4 0 0 0 .211.134.676.676 0 0 0 .6-.23.168.168 0 0 0 .053-.092.173.173 0 0 0-.042-.154.177.177 0 0 0-.248-.013zm2.473 2.595a12.756 12.756 0 0 1 .062-2.6.87.87 0 0 1 .219-.495l.018-.005a.2.2 0 0 1 .073.072 1.67 1.67 0 0 1 .143 1.027 7.422 7.422 0 0 1-.516 2zm.847-.731a.177.177 0 0 1-.046-.245.175.175 0 0 1 .244-.046l.075.048.006-.1a2.8 2.8 0 0 1 .537-1.536 2.173 2.173 0 0 1 1.1-.794 1.326 1.326 0 0 1 .9.075 1.692 1.692 0 0 1 .665.568 1.952 1.952 0 0 1 .364 1.206 1.414 1.414 0 0 1-.233.739 1.443 1.443 0 0 1-.772.546 2.767 2.767 0 0 1-1.005.11 4.182 4.182 0 0 1-1.2-.252 3.464 3.464 0 0 0 .152.733 2.19 2.19 0 0 0 .663 1.038 1.382 1.382 0 0 0 .772.309 2.025 2.025 0 0 0 .84-.112 1.016 1.016 0 0 0 .518-.367.546.546 0 0 0 .005-.531.716.716 0 0 0-.156-.209.46.46 0 0 0-.187-.107.3.3 0 0 0-.287.09.422.422 0 0 0-.114.279.312.312 0 0 0 .02.142.106.106 0 0 0 .05.059.184.184 0 0 0 .129 0 .178.178 0 0 1 .215.127.176.176 0 0 1-.127.213.519.519 0 0 1-.379-.029.48.48 0 0 1-.211-.235.691.691 0 0 1-.048-.3.773.773 0 0 1 .22-.515.631.631 0 0 1 .614-.178.775.775 0 0 1 .34.186 1.036 1.036 0 0 1 .237.316.891.891 0 0 1-.024.873 1.359 1.359 0 0 1-.693.511 2.4 2.4 0 0 1-.989.134 1.724 1.724 0 0 1-.967-.386 2.543 2.543 0 0 1-.777-1.2 3.885 3.885 0 0 1-.184-1 2.59 2.59 0 0 1-.274-.16zm.621-.064a3.777 3.777 0 0 0 1.235.285 2.428 2.428 0 0 0 .878-.094 1.118 1.118 0 0 0 .59-.41 1.07 1.07 0 0 0 .173-.559 1.6 1.6 0 0 0-.3-.983 1.339 1.339 0 0 0-.526-.45.98.98 0 0 0-.667-.057 1.833 1.833 0 0 0-.917.674 2.441 2.441 0 0 0-.459 1.342 4.183 4.183 0 0 0-.009.252zm3.269-2.378c.373.267.283 1.619.221 2.575-.02.3-.039.57-.037.764a2.422 2.422 0 0 0 .421 1.648.643.643 0 0 0 .647.182 1.473 1.473 0 0 0 .652-.415 3.452 3.452 0 0 0 .43-.537 2.337 2.337 0 0 0 .191.54.621.621 0 0 0 .63.408.884.884 0 0 0 .459-.232.786.786 0 0 0 .322-.731.524.524 0 0 0-.114-.241.493.493 0 0 0-.219-.145.569.569 0 0 0-.57.156l-.024.022a.175.175 0 0 0 0 .248.177.177 0 0 0 .25 0 .247.247 0 0 1 .239-.094.121.121 0 0 1 .057.039.159.159 0 0 1 .037.077.459.459 0 0 1-.206.4.557.557 0 0 1-.274.151c-.1.013-.2-.074-.276-.224a2.817 2.817 0 0 1-.233-.827c.042-.081.083-.164.123-.248a7.522 7.522 0 0 0 .667-2.372 1.982 1.982 0 0 0-.2-1.262.523.523 0 0 0-.246-.208.364.364 0 0 0-.331.044 1.132 1.132 0 0 0-.368.711 12.439 12.439 0 0 0-.094 2.242 9.976 9.976 0 0 0 .085 1.029 3.718 3.718 0 0 1-.583.8 1.148 1.148 0 0 1-.487.322.314.314 0 0 1-.314-.085 2.167 2.167 0 0 1-.32-1.406c0-.171.017-.435.037-.739a8.5 8.5 0 0 0-.05-2.33.958.958 0 0 0-.318-.555.176.176 0 0 0-.2.287zm2.527 3.108a12.719 12.719 0 0 1 .064-2.6c.062-.287.141-.443.219-.492l.018-.007a.181.181 0 0 1 .072.074 1.655 1.655 0 0 1 .143 1.027 7.278 7.278 0 0 1-.516 2zm-15.736 1.6a.176.176 0 0 1-.333-.112.866.866 0 0 1 .34-.459.672.672 0 0 1 .346-.114.579.579 0 0 1 .338.09.534.534 0 0 1 .222.3.728.728 0 0 1-.05.564 1.128 1.128 0 0 1-.492.469 1.757 1.757 0 0 1-.726.195 1.616 1.616 0 0 1-1.152-.38c-.485-.417-.289-1.632-.1-2.806.176-1.08.345-2.124.011-2.244a.393.393 0 0 0-.312.027.5.5 0 0 0-.14.108.392.392 0 0 0-.081.125.152.152 0 0 0 0 .118.206.206 0 0 0 .116.1.2.2 0 0 0 .147-.011.176.176 0 0 1 .138.323.537.537 0 0 1-.4.018.575.575 0 0 1-.312-.272.486.486 0 0 1-.018-.4.726.726 0 0 1 .153-.246.856.856 0 0 1 .241-.182.742.742 0 0 1 .59-.046c.608.219.415 1.4.217 2.631-.175 1.079-.357 2.2-.022 2.485a1.283 1.283 0 0 0 .906.294 1.414 1.414 0 0 0 .581-.154.782.782 0 0 0 .342-.318.388.388 0 0 0 .028-.3.188.188 0 0 0-.077-.108.22.22 0 0 0-.132-.035.325.325 0 0 0-.169.057.521.521 0 0 0-.2.278zm1.3.935a2.573 2.573 0 0 0 .353-1.7 7.4 7.4 0 0 0-.592-2.339 1.732 1.732 0 0 1-.1-.3.694.694 0 0 1 .024-.443.4.4 0 0 1 .2-.187.415.415 0 0 1 .072-.022.3.3 0 0 1 .314.085.241.241 0 0 1 .048.1.284.284 0 0 1 0 .118.343.343 0 0 1-.279.246.175.175 0 1 0 .086.34.686.686 0 0 0 .538-.509.618.618 0 0 0-.116-.516.638.638 0 0 0-.663-.209.738.738 0 0 0-.138.044.737.737 0 0 0-.373.36 1.015 1.015 0 0 0-.051.667 1.977 1.977 0 0 0 .119.368 7.071 7.071 0 0 1 .566 2.224 2.265 2.265 0 0 1-.283 1.468.176.176 0 1 0 .279.213z" class="cls-24" data-name="Path 3616" transform="translate(-176.063 -473.009)"/>
                                <path id="Path_3617" d="M176.9 478.419a2.812 2.812 0 0 1-.11-1.531c.037.511.072 1.02.11 1.531zm-.329-4.789a.483.483 0 0 0-.063.059.393.393 0 0 0-.081.125.152.152 0 0 0 0 .117.205.205 0 0 0 .116.1.172.172 0 0 0 .055.009l.022.351a.475.475 0 0 1-.193-.029.576.576 0 0 1-.312-.272.486.486 0 0 1-.018-.4.725.725 0 0 1 .153-.246.857.857 0 0 1 .241-.182l.057-.028z" class="cls-6" data-name="Path 3617" transform="translate(-176.063 -472.816)"/>
                                <path id="Path_3618" d="M184.175 479.155a.176.176 0 0 1-.351-.013c.009-.265-.085-.338-.239-.345a3.072 3.072 0 0 0-.458.04 2.333 2.333 0 0 1-2.032-.419 3.1 3.1 0 0 1-.8-2.411 4.209 4.209 0 0 1 .2-1.123 2.766 2.766 0 0 1 .516-.939 1.672 1.672 0 0 1 1.378-.6 1.334 1.334 0 0 1 .893.487 3.519 3.519 0 0 1 .678 1.209 4.075 4.075 0 0 1 .226 1.468 2.068 2.068 0 0 1-.6 1.476 1.388 1.388 0 0 1-.43.27 1.618 1.618 0 0 1-1 .053 1.776 1.776 0 0 1-.86-.513 1.489 1.489 0 0 1-.289-.456.175.175 0 0 1 .1-.228.178.178 0 0 1 .228.1 1.151 1.151 0 0 0 .222.351 1.419 1.419 0 0 0 .687.406 1.264 1.264 0 0 0 .783-.037 1.11 1.11 0 0 0 .325-.2 1.726 1.726 0 0 0 .485-1.231 3.762 3.762 0 0 0-.208-1.342 3.16 3.16 0 0 0-.6-1.084 1 1 0 0 0-.649-.373 1.33 1.33 0 0 0-1.1.485 2.385 2.385 0 0 0-.448.82 3.788 3.788 0 0 0-.186 1.027 2.747 2.747 0 0 0 .678 2.13 2.041 2.041 0 0 0 1.753.336 3.2 3.2 0 0 1 .516-.044c.373.015.6.171.579.709zm.153-4.772l.011-.437-.007.005c-.134.123-.226.16-.281.147a.043.043 0 0 1-.024-.017.115.115 0 0 1-.026-.061.335.335 0 0 1 .1-.3.453.453 0 0 1 .248-.138l.011-.351h-.059a.794.794 0 0 0-.447.235.7.7 0 0 0-.2.627.513.513 0 0 0 .1.211.4.4 0 0 0 .211.134.52.52 0 0 0 .36-.057zm-8-1.116l.024.39a.912.912 0 0 1 .077-.05.394.394 0 0 1 .312-.028c.334.119.165 1.163-.011 2.244a26.21 26.21 0 0 0-.16 1.092c.037.511.072 1.02.11 1.531a.631.631 0 0 0 .147.184 1.616 1.616 0 0 0 1.152.38 1.757 1.757 0 0 0 .726-.195 1.128 1.128 0 0 0 .493-.469.728.728 0 0 0 .05-.564.534.534 0 0 0-.222-.3.577.577 0 0 0-.338-.09.672.672 0 0 0-.345.114.867.867 0 0 0-.34.459.175.175 0 0 0 .333.112.521.521 0 0 1 .2-.277.327.327 0 0 1 .169-.057.222.222 0 0 1 .132.035.188.188 0 0 1 .077.108.388.388 0 0 1-.028.3.781.781 0 0 1-.342.318 1.414 1.414 0 0 1-.581.154 1.283 1.283 0 0 1-.906-.294c-.334-.289-.152-1.406.022-2.485.2-1.227.391-2.413-.217-2.631a.737.737 0 0 0-.533.018zm.051.8a.239.239 0 0 0 .092-.02.176.176 0 0 1 .138.323.554.554 0 0 1-.208.048l-.022-.351zm3.258 4.943a2.573 2.573 0 0 0 .353-1.7 7.4 7.4 0 0 0-.592-2.339 1.734 1.734 0 0 1-.1-.3.7.7 0 0 1 .024-.443.4.4 0 0 1 .2-.187.4.4 0 0 1 .072-.022.3.3 0 0 1 .314.085.241.241 0 0 1 .048.1.283.283 0 0 1 0 .118.343.343 0 0 1-.279.246.175.175 0 0 0 .086.34.686.686 0 0 0 .538-.509.618.618 0 0 0-.116-.516.638.638 0 0 0-.663-.209.738.738 0 0 0-.138.044.737.737 0 0 0-.373.36 1.015 1.015 0 0 0-.051.667 1.977 1.977 0 0 0 .119.368 7.07 7.07 0 0 1 .566 2.224 2.265 2.265 0 0 1-.283 1.468.176.176 0 0 0 .279.213z" class="cls-25" data-name="Path 3618" transform="translate(-175.843 -472.843)"/>
                                <path id="Path_3619" d="M180.713 473.3l-.011.351a.273.273 0 0 1 .2.062.619.619 0 0 1 .178.608c-.011.1-.031.191-.05.283s-.029.151-.042.226c-.289 1.869-.193 2.959.1 3.466a.692.692 0 0 0 .658.4 1.24 1.24 0 0 0 .739-.386 3.373 3.373 0 0 0 .48-.586 2.376 2.376 0 0 0 .191.539.621.621 0 0 0 .632.41.891.891 0 0 0 .458-.233.781.781 0 0 0 .322-.731.5.5 0 0 0-.114-.239.472.472 0 0 0-.217-.145.573.573 0 0 0-.583.165l-.013.013a.175.175 0 0 0 .248.248.247.247 0 0 1 .239-.094.141.141 0 0 1 .059.04.166.166 0 0 1 .035.077.45.45 0 0 1-.206.4.567.567 0 0 1-.272.153c-.1.013-.2-.074-.277-.224a2.831 2.831 0 0 1-.233-.829c.031-.06.064-.123.094-.185a7.538 7.538 0 0 0 .7-2.435 1.989 1.989 0 0 0-.2-1.261.506.506 0 0 0-.246-.208.351.351 0 0 0-.329.044 1.131 1.131 0 0 0-.366.709 12.858 12.858 0 0 0-.085 2.494c.015.27.039.533.073.779a3.591 3.591 0 0 1-.627.845.911.911 0 0 1-.516.29.363.363 0 0 1-.333-.224c-.254-.446-.331-1.457-.055-3.238.009-.062.024-.132.039-.2v-.009c.085-.421.18-.889-.255-1.237a.617.617 0 0 0-.408-.138zm-.022.717a.175.175 0 0 1 .241.018.172.172 0 0 1 .042.154.168.168 0 0 1-.053.092 1.036 1.036 0 0 1-.241.173l.011-.437zm7.92 4.51c0-.182 0-.362.006-.544a3.023 3.023 0 0 1-.187-1.2c0-.171.017-.436.037-.739a8.5 8.5 0 0 0-.05-2.33.958.958 0 0 0-.318-.555.176.176 0 0 0-.2.287c.373.266.283 1.619.22 2.575-.02.3-.039.57-.037.765a2.423 2.423 0 0 0 .421 1.648.89.89 0 0 0 .112.1zm-5.454-1.91a12.756 12.756 0 0 1 .062-2.6.869.869 0 0 1 .219-.494l.018-.006a.2.2 0 0 1 .073.072 1.671 1.671 0 0 1 .143 1.027 7.42 7.42 0 0 1-.516 2zm.847-.731a.177.177 0 0 1-.046-.245.175.175 0 0 1 .244-.046l.075.048.006-.1a2.8 2.8 0 0 1 .537-1.536 2.172 2.172 0 0 1 1.1-.794 1.325 1.325 0 0 1 .9.075 1.692 1.692 0 0 1 .665.568 1.952 1.952 0 0 1 .364 1.206 1.414 1.414 0 0 1-.233.739 1.443 1.443 0 0 1-.772.546 2.764 2.764 0 0 1-1.005.11 4.183 4.183 0 0 1-1.2-.252 3.468 3.468 0 0 0 .153.733 2.191 2.191 0 0 0 .663 1.038 1.384 1.384 0 0 0 .772.309 2.026 2.026 0 0 0 .84-.112 1.017 1.017 0 0 0 .518-.368.546.546 0 0 0 .005-.531.717.717 0 0 0-.156-.209.461.461 0 0 0-.187-.107.3.3 0 0 0-.287.09.422.422 0 0 0-.114.279.311.311 0 0 0 .02.141.106.106 0 0 0 .05.059.184.184 0 0 0 .129 0 .177.177 0 0 1 .215.127.175.175 0 0 1-.127.213.517.517 0 0 1-.379-.029.478.478 0 0 1-.211-.235.69.69 0 0 1-.048-.3.773.773 0 0 1 .221-.515.63.63 0 0 1 .614-.178.775.775 0 0 1 .34.186 1.035 1.035 0 0 1 .237.316.891.891 0 0 1-.024.873 1.36 1.36 0 0 1-.693.511 2.4 2.4 0 0 1-.989.134 1.724 1.724 0 0 1-.967-.386 2.543 2.543 0 0 1-.777-1.2 3.884 3.884 0 0 1-.184-1 2.592 2.592 0 0 1-.274-.16zm.621-.064a3.776 3.776 0 0 0 1.235.285 2.431 2.431 0 0 0 .878-.094 1.117 1.117 0 0 0 .59-.41 1.069 1.069 0 0 0 .173-.559 1.6 1.6 0 0 0-.3-.983 1.339 1.339 0 0 0-.526-.45.98.98 0 0 0-.667-.057 1.832 1.832 0 0 0-.917.674 2.44 2.44 0 0 0-.459 1.341c-.003.082-.007.167-.007.251z" class="cls-26" data-name="Path 3619" transform="translate(-172.195 -472.914)"/>
                                <path id="Path_3620" d="M188.28 478.209q.019-1.122.031-2.246a1.706 1.706 0 0 1 .1.928 1.724 1.724 0 0 0 .189 1.165.425.425 0 0 0 .426.189.3.3 0 0 0 .173-.123.149.149 0 0 0 .022-.136c-.033-.077-.145-.149-.379-.182a.177.177 0 0 1-.149-.2.175.175 0 0 1 .2-.151.756.756 0 0 1 .652.4.49.49 0 0 1-.05.461.647.647 0 0 1-.379.272.755.755 0 0 1-.787-.305c-.018-.024-.037-.048-.053-.072zm.035-2.576l.006-.685a1.671 1.671 0 0 0 .081-.29 1.563 1.563 0 0 0-.079-.84v-.63a1.48 1.48 0 0 1 .314.467 1.88 1.88 0 0 1 .112 1.064 1.92 1.92 0 0 1-.434.914z" class="cls-27" data-name="Path 3620" transform="translate(-165.829 -472.861)"/>
                                <path id="Path_3621" d="M178.064 478.661l.033.351a1.6 1.6 0 0 1-1.051-.382c-.485-.417-.289-1.632-.1-2.806.176-1.081.345-2.124.011-2.244a.393.393 0 0 0-.312.028.5.5 0 0 0-.14.108.393.393 0 0 0-.081.125.152.152 0 0 0 0 .118.206.206 0 0 0 .116.1.2.2 0 0 0 .147-.011.176.176 0 0 1 .138.324.537.537 0 0 1-.4.018.575.575 0 0 1-.312-.272.486.486 0 0 1-.018-.4.726.726 0 0 1 .153-.246.86.86 0 0 1 .241-.182.742.742 0 0 1 .59-.046c.608.219.415 1.4.217 2.631-.175 1.079-.357 2.2-.022 2.485a1.263 1.263 0 0 0 .79.301z" class="cls-26" data-name="Path 3621" transform="translate(-176.063 -472.843)"/>
                            </g>
                            <g id="Group_330" data-name="Group 330" transform="translate(4.703)">
                                <path id="Path_3622" d="M192.816 473.951c-2.5-5.517-13.652 6.061-13.47-2.679 1.825 5.449 12.459-3.762 13.47 2.679zm-14.194 9.266c1.117 7.11 12.891-3.319 14.913 2.674.2-9.681-12.153 3.381-14.913-2.674zm11.122 4.013c-3 2.442-7.047 2.205-8.3.061 1.792.785 5.785.825 8.3-.061zm-10.337-5.057c3 1.393 4.877-.48 8.2-.213-3.111.458-4.851 3.821-8.2.213zm1.9 4.159c3.429.935 9.626-3.449 10.811.68-3.245-1.68-7.336 1.031-10.811-.68zm10.8-11.449c-3.021-3.321-4.594-.314-7.4.046 3 .3 4.7-1.36 7.4-.046zm-1.715-3.793c-3.139-1.606-6.834.77-9.765-.807 1.073 3.753 6.667-.099 9.765.807z" class="cls-25" data-name="Path 3622" transform="translate(-178.622 -470.283)"/>
                                <path id="Path_3623" d="M182.5 488.346l-.028-.731a5.569 5.569 0 0 1-1.036-.323 3.015 3.015 0 0 0 1.064 1.055zm-.057-1.6l-.009-.276a4.261 4.261 0 0 1-1.134-.134 5.428 5.428 0 0 0 1.143.41zm-.029-.989l-.022-.966c-1.654.294-3.047.026-3.775-1.569.366 2.325 1.869 2.775 3.8 2.536zm-.04-1.929a4.134 4.134 0 0 1-2.972-1.65 5.348 5.348 0 0 0 2.957.483q.006.582.015 1.167zm.1-9.24q.028-.755.062-1.518c-1.483.107-2.681-.272-3.19-1.794-.064 3.063 1.266 3.63 3.128 3.311zm.118-2.646a2.088 2.088 0 0 1-1.964-1.654 5.033 5.033 0 0 0 2.227.561c-.09.235-.171.481-.244.741z" class="cls-28" data-name="Path 3623" transform="translate(-178.622 -470.283)"/>
                                <path id="Path_3624" d="M180.9 471.484l-.018.353c1.942.2 4.82-1.1 6.968-.981a5.91 5.91 0 0 0-.09-.226c-2.146-.607-4.48.2-6.617.114a9.61 9.61 0 0 0-.243.741zm-.074 1.481c2.216-.156 5.068-1.391 7.218-1.5.074.263.138.542.191.838-2.271.16-5.25 1.8-7.472 2.18q.028-.755.062-1.518zm-.173 9.591q.006.582.015 1.167c1.714.005 3.172-1.562 5.224-1.863-2.11-.169-3.637.524-5.239.7zm.033 2.13c2.51-.445 5.62-2.179 7.915-2.536-.013.559-.029 1.125-.05 1.7-2.35.13-5.43 1.5-7.843 1.8l-.022-.967zm.042 1.68l.009.276c2.516.6 5.254-.5 7.716-.274l.05-1.211c-2.086-.34-5.318 1.2-7.775 1.209zm.039 1.148a15.116 15.116 0 0 0 7.266-.384c-2.4 1.952-5.463 2.192-7.239 1.115l-.028-.731zm7.68-13.24l-.042-.6a8.466 8.466 0 0 0-.028-.327c-1.856-.553-3.271 1.215-5.384 1.485 2.222.217 3.729-.632 5.459-.558z" class="cls-11" data-name="Path 3624" transform="translate(-176.917 -470.183)"/>
                            </g>
                        </g>
                        <path id="Path_3625" d="M186.248 482.492a5.058 5.058 0 0 0-.983 2.834c-.452 7.075 3.539 15.337 6.033 21.879a34.658 34.658 0 0 1 1.2 3.587c-3.058.186-11.325-25.968-6.25-28.3z" class="cls-29" data-name="Path 3625" transform="translate(-162.37 -420.968)"/>
                    </g>
                </g>
                <path id="Path_3626" d="M186.822 504.264c10.6 0 19.193-.371 19.193-.831s-8.593-.831-19.193-.831-19.191.371-19.191.831 8.593.831 19.191.831z" class="cls-5" data-name="Path 3626" transform="translate(-167.631 -399.678)"/>
                <g id="Group_339" data-name="Group 339" transform="translate(33.111 65.51)">
                    <path id="Path_3627" d="M188.088 482.25c-1.567 0-2.3 1.457-2.405 3.1-.654 10.245 8.637 23.94 7.455 28.376-.353 1.323-2.527 2.648-2.51 4.361.018 1.775 1.461 2.663 5.261 2.663h15.06c3.8 0 5.245-.888 5.261-2.663.018-1.713-2.157-3.038-2.51-4.361-1.182-4.436 8.11-18.131 7.455-28.376-.074-1.154-1.154-1-2.38-1.091a9.151 9.151 0 0 1 .244 1.9c.63 9.631-7.757 19.985-7.909 25.946-.14 5.434-15.245 5.384-15.383 0-.154-6.1-8.931-16.794-7.851-26.611.079-.715.033-1.676.63-1.676h32.613a2.567 2.567 0 0 0-2.365-1.571l-15.332-.007z" class="cls-30" data-name="Path 3627" transform="translate(-185.649 -482.243)"/>
                    <path id="Path_3628" d="M191.214 500.43c-3.523 2.961-2.249 4.138 1.737 4.138h15.06c1.988 0 5.757-.443 3.223-3.146.108 1.838-4.21 1.941-5.068 2.008-2.082.167-4.35.081-5.684.081-2.61.001-11.159.363-9.268-3.081z" class="cls-31" data-name="Path 3628" transform="translate(-182.712 -467.008)"/>
                    <path id="Path_3629" d="M215.649 483.574h-27.408c-.63 0-.783.081-.873.9-.393 3.571.6 7.257 1.86 10.57 1.22 3.223 2.777 6.274 4.137 9.431a19.8 19.8 0 0 1 1.852 6.358c.213 4.513 13.488 4.436 13.661.061a19.534 19.534 0 0 1 1.856-6.419c1.358-3.157 2.915-6.208 4.137-9.431 1.255-3.313 2.251-7 1.858-10.57-.098-.902-.354-.9-1.08-.9z" class="cls-32" data-name="Path 3629" transform="translate(-184.281 -481.128)"/>
                    <path id="Path_3630" d="M212.636 484.157c-.658 0-2.67-.193-2.677.906-.044 5.436-2.648 12.125-4.019 17.4-.426 1.641-.72 3.1-.932 4.017-.292 1.281-1.672 1.755-2.911 1.792-1.588.048-2.606-.661-2.83-1.693-.2-.906-.491-2.387-.93-4.065-1.058-4.054-2.615-9.271-2.891-10.375a30.626 30.626 0 0 1-1.044-7.15c0-1.169-2.723-.834-3.44-.834-1.176 0-3.041-.257-3.109.834a22.9 22.9 0 0 0 1.863 9.271c1.213 3.2 2.769 6.252 4.12 9.391a20.362 20.362 0 0 1 1.939 6.82c.125 3.21 11.59 2.937 11.631.169a19.606 19.606 0 0 1 1.942-6.989c1.351-3.139 2.909-6.193 4.12-9.391a23.543 23.543 0 0 0 1.863-9.295c-.063-1.24-1.855-.808-2.695-.808z" class="cls-33" data-name="Path 3630" transform="translate(-183.824 -480.7)"/>
                    <path id="Path_3631" d="M205.362 509.712c.077-.987.54-1.772-.592-.906-2.387 1.825-6.928 1.567-7.952-2-.472-2.3-1.566-5.052-2.194-7.428-1.119-4.219-2.808-8.927-3.128-13.216-.092-1.228-.783-1.011-1.683-1.011-.878 0-1.251-.191-1.158 1.033.606 8.043 7.314 16.669 7.6 23.237.1 2.306 8.946 2.325 9.108.291zm2.292-7.487c1.341-3.113 2.889-6.145 4.091-9.317a26.281 26.281 0 0 0 1.691-6.48c.1-.946-.059-1.461-.8-1.459-.481 0-1.143 0-1.2.95-.353 5.559-2.8 11.372-4.065 16.242-.282 1.087-.242 1.28.282.064z" class="cls-34" data-name="Path 3631" transform="translate(-183.142 -479.96)"/>
                    <path id="Path_3632" d="M193.083 485.947a30.069 30.069 0 0 0 .59 3.793c.759 3.56 1.729 7.014 2.4 10.618.322 1.739 3.179 1.646 3.514-.072.695-3.56 1.637-7.024 2.363-10.546a29.734 29.734 0 0 0 .6-3.96c.075-1.005-.112-1.463-1.035-1.463h-7.047c-1.028 0-1.475.527-1.385 1.63z" class="cls-35" data-name="Path 3632" transform="translate(-179.431 -480.506)"/>
                    <path id="Path_3633" d="M194.857 486.087c.039 1.025.119 2.038.209 2.981.268 2.8.612 5.509.851 8.341.114 1.363 1.126 1.292 1.246-.057.246-2.8.581-5.518.838-8.284.1-.983.178-2.044.215-3.113.026-.788-.04-1.149-.368-1.149h-2.5c-.364 0-.522.415-.491 1.281z" class="cls-36" data-name="Path 3633" transform="translate(-177.939 -480.096)"/>
                    <g id="Group_334" data-name="Group 334" transform="translate(3.002 2.446)">
                        <path id="Path_3634" d="M215.649 483.574h-27.408c-.63 0-.783.081-.873.9a20.163 20.163 0 0 0 .972 7.983h27.416a20.164 20.164 0 0 0 .972-7.983c-.097-.902-.353-.9-1.079-.9z" class="cls-24" data-name="Path 3634" transform="translate(-187.283 -483.574)"/>
                        <path id="Path_3635" d="M212.636 484.157c-.658 0-2.67-.193-2.677.906a30.815 30.815 0 0 1-1.044 6.97h5.329a20.391 20.391 0 0 0 1.088-7.066c-.064-1.242-1.856-.81-2.7-.81zm-17.217 7.876a30.35 30.35 0 0 1-1.016-7.042c0-1.169-2.723-.833-3.44-.834-1.176 0-3.041-.257-3.109.834a19.552 19.552 0 0 0 1.082 7.042z" class="cls-25" data-name="Path 3635" transform="translate(-186.826 -483.146)"/>
                        <path id="Path_3636" d="M192.375 491.292a31.936 31.936 0 0 1-.878-5.131c-.092-1.228-.783-1.011-1.683-1.011-.878 0-1.251-.191-1.158 1.033a22.387 22.387 0 0 0 1.07 5.109zm18.185 0h1.759a23.2 23.2 0 0 0 1.115-4.864c.1-.946-.059-1.461-.8-1.459-.481 0-1.143 0-1.2.95a31.537 31.537 0 0 1-.874 5.373z" class="cls-37" data-name="Path 3636" transform="translate(-186.144 -482.405)"/>
                        <path id="Path_3637" d="M193.083 485.947a30.069 30.069 0 0 0 .59 3.793c.149.7.309 1.4.47 2.1h7.351c.158-.7.312-1.4.456-2.1a29.734 29.734 0 0 0 .6-3.96c.075-1.005-.112-1.463-1.035-1.463h-7.047c-1.028 0-1.475.527-1.385 1.63z" class="cls-26" data-name="Path 3637" transform="translate(-182.433 -482.952)"/>
                        <path id="Path_3638" d="M194.857 486.087c.039 1.025.119 2.038.209 2.981.075.792.158 1.579.243 2.361h2.457q.124-1.177.235-2.361c.1-.983.178-2.044.213-3.113.028-.788-.039-1.149-.366-1.149h-2.5c-.364 0-.522.415-.491 1.281z" class="cls-27" data-name="Path 3638" transform="translate(-180.941 -482.542)"/>
                    </g>
                    <path id="Path_3639" d="M192.759 483.575h-.329c-.235 1.9-.463 3.949-.7 5.915-.393 3.33 1.191 1.823 1.332-.314a38.9 38.9 0 0 1 .926-5.6z" class="cls-38" data-name="Path 3639" transform="translate(-180.605 -481.127)"/>
                    <path id="Path_3640" d="M191.68 487.126c-.044.843.081 1.24.274 1.321q-.146-.647-.274-1.321z" class="cls-39" data-name="Path 3640" transform="translate(-180.604 -478.153)"/>
                    <g id="Group_335" data-name="Group 335" transform="translate(3.743 10.214)">
                        <path id="Path_3641" d="M187.686 487.8q.149.565.318 1.119h27.416c.114-.369.219-.744.318-1.119a7 7 0 0 1-3.109.4h-20.937a11.7 11.7 0 0 1-4.006-.4z" class="cls-33" data-name="Path 3641" transform="translate(-187.686 -487.801)"/>
                        <path id="Path_3642" d="M208.7 488.075a31.71 31.71 0 0 1-.175.724h5.329c.083-.261.162-.525.239-.79a17.947 17.947 0 0 1-1.974.066zm-13.67.724c-.059-.239-.118-.48-.175-.724h-3.672a22.933 22.933 0 0 1-2.9-.129q.124.43.259.853z" class="cls-34" data-name="Path 3642" transform="translate(-187.18 -487.68)"/>
                        <path id="Path_3643" d="M191.985 488.749a47.388 47.388 0 0 1-.171-.724H190.5c-.524 0-.985-.005-1.395-.02.073.248.149.5.228.744zm18.355-.724h1.822c-.073.244-.151.487-.232.726h-1.76c.059-.243.116-.485.169-.726z" class="cls-40" data-name="Path 3643" transform="translate(-186.496 -487.63)"/>
                        <path id="Path_3644" d="M193.564 488.016c.055.243.11.483.167.724h7.351c.055-.241.108-.483.162-.724z" class="cls-32" data-name="Path 3644" transform="translate(-182.762 -487.621)"/>
                        <path id="Path_3645" d="M195.059 488.016l.077.725h2.457l.075-.725z" class="cls-35" data-name="Path 3645" transform="translate(-181.51 -487.621)"/>
                    </g>
                    <g id="Group_336" data-name="Group 336" transform="translate(3.002 2.446)">
                        <path id="Path_3646" d="M195.123 483.574h-6.88c-.63 0-.783.081-.873.9a20.163 20.163 0 0 0 .972 7.983h6.151c.134-2.964.358-5.924.63-8.883z" class="cls-38" data-name="Path 3646" transform="translate(-187.283 -483.574)"/>
                        <path id="Path_3647" d="M194.036 492.02q.141-3.073.393-6.136c-.017-.3-.024-.6-.026-.906 0-1.169-2.723-.833-3.44-.834-1.176 0-3.041-.257-3.109.834a19.553 19.553 0 0 0 1.082 7.042z" class="cls-39" data-name="Path 3647" transform="translate(-186.826 -483.133)"/>
                        <path id="Path_3648" d="M192.375 491.216a31.935 31.935 0 0 1-.878-5.131c-.092-1.228-.783-1.011-1.683-1.011-.878 0-1.251-.191-1.158 1.033a22.386 22.386 0 0 0 1.07 5.109z" class="cls-41" data-name="Path 3648" transform="translate(-186.144 -482.329)"/>
                    </g>
                    <g id="Group_337" data-name="Group 337" transform="translate(5.125 2.446)">
                        <path id="Path_3649" d="M193.164 483.574h-4.293a271.166 271.166 0 0 0-.434 8.887h4.1c.133-2.966.355-5.928.627-8.887z" class="cls-39" data-name="Path 3649" transform="translate(-188.438 -483.574)"/>
                        <path id="Path_3650" d="M192.538 492.02c.116-2.6.3-5.2.529-7.8a11.209 11.209 0 0 0-2.615-.075c-.489 0-1.1-.044-1.643-.018-.16 2.628-.29 5.259-.371 7.895z" class="cls-42" data-name="Path 3650" transform="translate(-188.438 -483.133)"/>
                        <path id="Path_3651" d="M192.369 491.194a31.884 31.884 0 0 1-.873-5.109c-.092-1.228-.783-1.011-1.683-1.011-.878 0-1.251-.191-1.158 1.033a22.386 22.386 0 0 0 1.07 5.109h2.643z" class="cls-43" data-name="Path 3651" transform="translate(-188.268 -482.329)"/>
                    </g>
                    <path id="Path_3652" d="M204.459 501.037a7.5 7.5 0 0 1 2.066-.5c1.365-.039.419 1.222-.529 1.513a16.7 16.7 0 0 1-4.513.412 52.952 52.952 0 0 1-7.266-.083 5.6 5.6 0 0 1-2.817-.79c-.586-.5.393-.542.733-.5.783.1 1.386.336 2.24.393 2.927.196 7.289.477 10.086-.445z" class="cls-44" data-name="Path 3652" transform="translate(-180.986 -466.922)"/>
                    <path id="Path_3653" d="M197.6 501.427a19.806 19.806 0 0 1 4.061.169c.575.39-3.4.48-3.664.48-.2 0-5.171-.017-4.24-.432a16.45 16.45 0 0 1 3.653-.217z" class="cls-45" data-name="Path 3653" transform="translate(-178.952 -466.188)"/>
                    <g id="Group_338" data-name="Group 338" transform="translate(3.743 10.214)">
                        <path id="Path_3654" d="M187.686 487.8q.149.565.318 1.119h6.151l.035-.724h-2.5a11.7 11.7 0 0 1-4.004-.395z" class="cls-33" data-name="Path 3654" transform="translate(-187.686 -487.801)"/>
                        <path id="Path_3655" d="M193.649 488.8l.035-.724h-2.5a22.933 22.933 0 0 1-2.9-.129q.124.43.259.853z" class="cls-34" data-name="Path 3655" transform="translate(-187.18 -487.68)"/>
                        <path id="Path_3656" d="M191.985 488.749a47.388 47.388 0 0 1-.171-.724H190.5c-.524 0-.985-.005-1.395-.02.073.248.149.5.228.744z" class="cls-46" data-name="Path 3656" transform="translate(-186.496 -487.63)"/>
                    </g>
                </g>
            </g>
        </g>
    </g>
</svg>
