<svg xmlns="http://www.w3.org/2000/svg" width="146.672" height="127.925" viewBox="0 0 146.672 127.925">
    <defs>
        <style>
            .cls-1{fill:#3b1008}.cls-2{fill:#c29968}.cls-3{fill:#803a17}.cls-4{fill:url(#radial-gradient)}.cls-5{fill:#603317}.cls-10,.cls-11,.cls-12,.cls-13,.cls-14,.cls-15,.cls-16,.cls-17,.cls-18,.cls-19,.cls-20,.cls-21,.cls-22,.cls-23,.cls-24,.cls-25,.cls-26,.cls-27,.cls-28,.cls-29,.cls-30,.cls-31,.cls-32,.cls-33,.cls-34,.cls-35,.cls-36,.cls-37,.cls-38,.cls-39,.cls-40,.cls-41,.cls-42,.cls-43,.cls-44,.cls-45,.cls-46,.cls-47,.cls-48,.cls-49,.cls-5,.cls-50,.cls-51,.cls-52,.cls-53,.cls-54,.cls-56,.cls-57,.cls-58,.cls-59,.cls-6,.cls-60,.cls-61,.cls-62,.cls-63,.cls-64,.cls-65,.cls-66,.cls-7,.cls-8,.cls-9{fill-rule:evenodd}.cls-6{fill:#b12c02}.cls-7{fill:#841f03}.cls-8{fill:#4e1303}.cls-9{fill:#d33a01}.cls-10{fill:#fe6913}.cls-11{fill:#7a1c03}.cls-12{fill:#3b1205}.cls-13{fill:#e34001}.cls-14{fill:#e95401}.cls-15{fill:#ca3e02}.cls-16{fill:#a22903}.cls-17{fill:#fe6b06}.cls-18{fill:#fe9327}.cls-19{fill:#fd6605}.cls-20{fill:#fea13b}.cls-21{fill:#fc7518}.cls-22{fill:#e14e01}.cls-23{fill:#fbc073}.cls-24{fill:#fae5bb}.cls-25{fill:#dcc8ad}.cls-26{fill:#e44101}.cls-27{fill:#f5ead7}.cls-28{fill:#a3683b}.cls-29{fill:#391d0c}.cls-30{fill:#7f4b27}.cls-31{fill:#e2a065}.cls-32{fill:#2f130b}.cls-33,.cls-67{fill:#532f17}.cls-34{fill:#931801}.cls-35{fill:#3e0e07}.cls-36{fill:#23110f}.cls-37{fill:#6c1002}.cls-38{fill:#a41f06}.cls-39{fill:#cd3617}.cls-40{fill:#c52b0c}.cls-41{fill:#ae2108}.cls-42{fill:#f85431}.cls-43{fill:#d93a1a}.cls-44{fill:#a8260c}.cls-45{fill:#4f1004}.cls-46{fill:#7b1706}.cls-47{fill:#ee593d}.cls-48{fill:#de4b2e}.cls-49{fill:#31100b}.cls-50{fill:#201d1f}.cls-51{fill:#250e10}.cls-52{fill:#4c4749}.cls-53{fill:#fe5f0e}.cls-54{fill:#d12c01}.cls-55,.cls-61{fill:#fd9f5a}.cls-56{fill:#161416}.cls-57{fill:#666263}.cls-58{fill:#1b181a}.cls-59{fill:#2a2629}.cls-60{fill:#f54205}.cls-62{fill:#fd8636}.cls-63{fill:#fc7349}.cls-64{fill:#fba88d}.cls-65{fill:#82807e}.cls-66{fill:#a72202}
        </style>
        <radialGradient id="radial-gradient" cx="1086.288" cy="1770.822" r="17.649" gradientTransform="translate(-413.003 -673.742) scale(1.509)" gradientUnits="userSpaceOnUse">
            <stop offset="0" stop-color="#faf8e2"/>
            <stop offset=".108" stop-color="#f7f3da"/>
            <stop offset=".268" stop-color="#eee6c6"/>
            <stop offset=".46" stop-color="#e1d1a5"/>
            <stop offset=".675" stop-color="#ceb478"/>
            <stop offset=".746" stop-color="#c8aa68"/>
            <stop offset="1" stop-color="#e5c47b"/>
        </radialGradient>
    </defs>
    <g id="Group_3442" data-name="Group 3442" transform="translate(-846.555 -1011.276)">
        <g id="Group_162" data-name="Group 162" transform="translate(869.861 1011.276)">
            <g id="Group_161" data-name="Group 161">
                <path id="Path_1420" d="M301.75 491.432a47.932 47.932 0 0 0 9.931.915 47.364 47.364 0 0 0 9.947-.915c3.192-.713 6.463-1.781 8.7-4.05a50.427 50.427 0 0 0 10.613-16.85 91.349 91.349 0 0 0 5.2-19.472.311.311 0 0 0 .017-.121 4.215 4.215 0 0 1-.779.777 10.966 10.966 0 0 1-2.008 1.167 30.275 30.275 0 0 1-4.342 1.545 76.783 76.783 0 0 1-9.029 1.783 141.319 141.319 0 0 1-36.614 0c-2.382-.347-4.763-.761-7.114-1.3.116 1.849 1.54 22.5 12.364 35.675 1.025.335 2.078.614 3.114.846z" class="cls-1" data-name="Path 1420" transform="translate(-252.17 -424.441)"/>
                <path id="Path_1421" d="M318.959 446.694a2.352 2.352 0 0 1 .226.243 1.45 1.45 0 0 0-.226-.243z" class="cls-2" data-name="Path 1421" transform="translate(-224.793 -427.997)"/>
                <path id="Path_1422" d="M319.274 447.112a1.58 1.58 0 0 0-.13-.2 1.58 1.58 0 0 1 .13.2z" class="cls-2" data-name="Path 1422" transform="translate(-224.638 -427.816)"/>
                <path id="Path_1423" d="M286.234 453.939c2.315.4 4.633.73 6.981.956a208.442 208.442 0 0 0 36.891 0 82.545 82.545 0 0 0 9.12-1.329 32.545 32.545 0 0 0 4.44-1.182 11.59 11.59 0 0 0 2.056-.98 2.556 2.556 0 0 0 1.312-1.573 3.637 3.637 0 0 0-.017-.428c-.031-.064-.031-.147-.064-.211 0-.033-.017-.057-.017-.09a3.175 3.175 0 0 0-1.184-1.207 10.672 10.672 0 0 0-2.056-1.02 30.554 30.554 0 0 0-4.44-1.272 67.354 67.354 0 0 0-4.357-.82 59.26 59.26 0 0 1-7.354 1.6 97.59 97.59 0 0 1-12.59 1.119 94.078 94.078 0 0 1-12.619-.583 65.317 65.317 0 0 1-2.755-.382c-9.541 3.28-12.553 6.349-13.347 7.402z" class="cls-2" data-name="Path 1423" transform="translate(-252.206 -429.597)"/>
                <path id="Path_1424" d="M306.748 445.864a194.5 194.5 0 0 0 12.474-.606c1.119-.1 2.236-.2 3.37-.325-.211-.015-.421-.048-.616-.072a167.406 167.406 0 0 0-18.485-.908h-.1c-2.755.608-5.215 1.24-7.419 1.871 3.598.113 7.18.137 10.776.04z" class="cls-2" data-name="Path 1424" transform="translate(-244.045 -430.294)"/>
                <path id="Path_1425" d="M319.325 447.628a.279.279 0 0 1-.031.154.054.054 0 0 0 .015-.033.352.352 0 0 0 .016-.121z" class="cls-2" data-name="Path 1425" transform="translate(-224.513 -427.214)"/>
                <path id="Path_1426" d="M391.076 465.956a18.637 18.637 0 0 0-7.34-15.253 18.081 18.081 0 0 0-15.876-3c-.048-1.362-.1-2.722-.195-4.082a1.311 1.311 0 0 0 .211-.649v-.026a1.715 1.715 0 0 0-.73-1.263 5.8 5.8 0 0 0-1.15-.722 15.192 15.192 0 0 0-2.462-.937 44.1 44.1 0 0 0-5.1-1.2c-3.435-.632-6.886-1.053-10.353-1.376-6.932-.641-13.883-.9-20.834-.924-6.967-.017-13.917.2-20.867.809-3.466.309-6.934.706-10.37 1.314a50.239 50.239 0 0 0-5.134 1.174 16.105 16.105 0 0 0-2.494.948 6.4 6.4 0 0 0-1.2.744 1.955 1.955 0 0 0-.81 1.433 1.569 1.569 0 0 0 .423 1.046 131.081 131.081 0 0 0 .485 21.692 110.628 110.628 0 0 0 1.783 11.009A53.408 53.408 0 0 0 279.9 480a27.227 27.227 0 0 0-9.218 6.691 12.8 12.8 0 0 0-2.738 5.419 11 11 0 0 0 .537 6.254 16.643 16.643 0 0 0 3.951 5.7 5.107 5.107 0 0 0 .325.551 30.442 30.442 0 0 0 5.719 6.408 50.875 50.875 0 0 0 14.889 8.53c10.739 4.1 22.291 5.491 33.633 5.515 11.34-.016 22.892-1.408 33.633-5.507a50.865 50.865 0 0 0 14.889-8.53 30.657 30.657 0 0 0 5.717-6.415 22.032 22.032 0 0 0 1.509-2.714c.162-.219.34-.4.5-.607a12.709 12.709 0 0 0 2.284-5.517 9.931 9.931 0 0 0-.939-5.816 17.024 17.024 0 0 0-6.092-6.489 18.367 18.367 0 0 0 4.276-2.211 19.23 19.23 0 0 0 8.301-15.306zm-43.094-27.436a100.832 100.832 0 0 1 10.335.934 46.152 46.152 0 0 1 5.055 1.093 16.185 16.185 0 0 1 2.4.873c.715.349 1.573.844 1.637 1.516-.064.72-.923 1.182-1.637 1.538-.081.042-.16.066-.241.1a9.239 9.239 0 0 0-2.044-1.29v-.34c0 .114-.015.228-.015.333a23.173 23.173 0 0 0-2.073-.827c-1.573-.535-3.161-.956-4.765-1.336-3.207-.672-6.446-1.134-9.7-1.531-4.359-.511-8.749-.737-13.139-.875 4.725-.227 9.456-.343 14.187-.188zm17.351 6.142c-.6.242-1.217.461-1.849.649v-1.628a9.166 9.166 0 0 1 1.85.978zm-58.583-3.3c2.154-.323 4.341-.616 6.529-.891q7.048-.375 14.095-.366c6.48-.015 12.992.164 19.455.682 3.242.259 6.465.6 9.674 1.134 1.586.276 3.19.59 4.747 1.02a21.039 21.039 0 0 1 2.2.729c-.017.551-.05 1.11-.064 1.671-.017 0-.017 0-.017.005a47.983 47.983 0 0 1-5.055 1.1 100.322 100.322 0 0 1-10.335.93c-6.919.2-13.852-.1-20.738-.573-6.9-.48-13.753-1.288-20.494-2.292-3.142-.406-6.27-.965-9.284-1.566a133.268 133.268 0 0 1 9.288-1.581zm-10.743 5.89c3.436.607 6.9 1 10.37 1.319 6.95.6 13.9.818 20.867.81 6.95-.031 13.9-.292 20.834-.932 3.468-.325 6.935-.746 10.353-1.369a49.445 49.445 0 0 0 4.941-1.16 174.57 174.57 0 0 1-.8 10.613 1.621 1.621 0 0 0-.224-.72 1.564 1.564 0 0 0-.13-.2.694.694 0 0 0-.114-.154 2.341 2.341 0 0 0-.226-.243 4.966 4.966 0 0 0-.551-.478 10.64 10.64 0 0 0-2.042-1.119 32.472 32.472 0 0 0-4.423-1.467 65.322 65.322 0 0 0-3.449-.744c1.312-.414 2.624-.86 3.888-1.393l-.05-.228c-2.235.478-4.488.827-6.739 1.11a91.54 91.54 0 0 0-2.8-.4 157.892 157.892 0 0 0-37.1 0c-.825.112-1.652.226-2.477.357a41.59 41.59 0 0 1-.616-.1l-.033.2c-2.025.316-4.034.7-6.026 1.207a29.764 29.764 0 0 0-4.409 1.457 10.865 10.865 0 0 0-2.051 1.121 3.314 3.314 0 0 0-1.15 1.327c-.356-3.3-.583-6.61-.73-9.931a49.942 49.942 0 0 0 4.888 1.119zm10.515 4.082a48.993 48.993 0 0 0 8.571 2.13c.924.147 1.83.276 2.755.382a94.067 94.067 0 0 0 12.619.582 97.593 97.593 0 0 0 12.59-1.119 59.279 59.279 0 0 0 7.354-1.6c1.457.228 2.916.5 4.357.82a30.57 30.57 0 0 1 4.44 1.272 10.669 10.669 0 0 1 2.056 1.02 3.174 3.174 0 0 1 1.183 1.207c0 .033.017.057.017.09.033.064.033.147.064.211s.033.145.048.226a.577.577 0 0 0-.015.162.046.046 0 0 0-.017.04 2.556 2.556 0 0 1-1.312 1.573 11.589 11.589 0 0 1-2.056.98 32.551 32.551 0 0 1-4.44 1.182 82.547 82.547 0 0 1-9.12 1.329 208.442 208.442 0 0 1-36.891 0 90.986 90.986 0 0 1-6.981-.956c-.713-.121-1.443-.228-2.156-.373a30.646 30.646 0 0 1-4.421-1.189 10.594 10.594 0 0 1-2.075-.972 3.547 3.547 0 0 1-1.117-1.046c-.033-.382-.083-.763-.131-1.15a3.037 3.037 0 0 1 1.215-1.314 10.74 10.74 0 0 1 2.058-1.02 31.293 31.293 0 0 1 4.438-1.272c2.302-.521 4.636-.892 6.968-1.193zm20.641-1.158a167.422 167.422 0 0 1 18.485.908c.195.024.4.057.616.072a170.2 170.2 0 0 1-3.37.325 194.5 194.5 0 0 1-12.474.606c-3.6.1-7.178.074-10.772-.04-.568-.024-1.136-.017-1.72-.04-3.271-.154-6.561-.4-9.817-.851l.568-.072a167.906 167.906 0 0 1 18.388-.908zm35.335 6.91a.279.279 0 0 0 .031-.154.3.3 0 0 1-.017.114.068.068 0 0 1-.012.042zm-69.534 1.433a10.906 10.906 0 0 0 2.04 1.158 31.5 31.5 0 0 0 4.423 1.556c.7.178 1.393.349 2.089.5l.276 4.335c-.566-.107-1.134-.188-1.7-.3a30.707 30.707 0 0 1-4.359-1.191 11.511 11.511 0 0 1-2.023-.972 3.8 3.8 0 0 1-.989-.891 112.597 112.597 0 0 1-.713-5.232 3.687 3.687 0 0 0 .957 1.039zm.616 5.274a10.309 10.309 0 0 0 1.992 1.167 31.071 31.071 0 0 0 4.341 1.546 61.3 61.3 0 0 0 1.911.478c2.35.544 4.732.957 7.114 1.3a141.316 141.316 0 0 0 36.614 0 76.8 76.8 0 0 0 9.023-1.782 30.273 30.273 0 0 0 4.342-1.546 10.961 10.961 0 0 0 2.009-1.167 4.223 4.223 0 0 0 .779-.777.312.312 0 0 1-.017.121 91.346 91.346 0 0 1-5.2 19.472 50.426 50.426 0 0 1-10.613 16.85c-2.236 2.27-5.507 3.337-8.7 4.05a47.359 47.359 0 0 1-9.947.915 47.933 47.933 0 0 1-9.931-.915 32.848 32.848 0 0 1-3.109-.851 13.709 13.709 0 0 1-5.592-3.2A50.01 50.01 0 0 1 298 482.611a90.408 90.408 0 0 1-5.217-19.472c0-.057-.017-.1-.017-.154a3.9 3.9 0 0 0 .814.815zm-6.643-19.636c.081.081.162.16.243.233a6.373 6.373 0 0 0 1.2.739 16.7 16.7 0 0 0 2.494.946l.1.026c0 12.491 1.474 25.11 5.913 36.945a49.247 49.247 0 0 0 10.692 17.4 13.527 13.527 0 0 0 4.44 2.95 26.709 26.709 0 0 0 4.975 1.562 51.978 51.978 0 0 0 20.492 0 27.282 27.282 0 0 0 4.976-1.562 13.393 13.393 0 0 0 4.423-2.942 49.306 49.306 0 0 0 10.708-17.408c4.471-11.9 5.928-24.6 5.9-37.156a.119.119 0 0 1 .05-.007 15.946 15.946 0 0 0 2.462-.95 5.321 5.321 0 0 0 1.15-.718 2.469 2.469 0 0 0 .421-.456 183.935 183.935 0 0 1-2.641 21.589 108.139 108.139 0 0 1-6.156 21.394c-2.883 6.763-6.61 13.195-11.761 18.2-2.156 2.146-5.574 3.347-9.008 4.091a50.927 50.927 0 0 1-10.774.965 51.488 51.488 0 0 1-10.758-.972c-3.435-.737-6.867-1.944-8.99-4.083-5.169-5.022-8.88-11.438-11.763-18.209a106.71 106.71 0 0 1-6.173-21.394 183.927 183.927 0 0 1-2.615-21.18zm83.419 10.855a10.086 10.086 0 0 1 8.747 3.06 9.377 9.377 0 0 1 2.137 9.253 10.707 10.707 0 0 1-6.48 6.658 11.063 11.063 0 0 1-8.7-.632 112.23 112.23 0 0 0 1.119-7.672c.112-.939.162-1.876.241-2.81a1.911 1.911 0 0 0 .325-.162 4.051 4.051 0 0 0 1.005-.884 7.583 7.583 0 0 0 1.329-2.268 6.626 6.626 0 0 0 .277-4.54zM354.17 508.51a5.288 5.288 0 0 1 .632 3.426 119.479 119.479 0 0 1-13.156 1.937c-2.883.266-5.8.437-8.716.542a50.457 50.457 0 0 0 6.044-.913 32.2 32.2 0 0 0 5.8-1.842 16.158 16.158 0 0 0 5.379-3.6c.5-.535.989-1.086 1.457-1.628a8.492 8.492 0 0 1 .779.388 5.047 5.047 0 0 1 1.781 1.69zm-33.1 5.857c-.388-.017-.794-.017-1.182-.041a128.741 128.741 0 0 1-19.3-2.308 5.485 5.485 0 0 1 .485-3.258 5.113 5.113 0 0 1 2.123-1.952c.356.414.73.844 1.117 1.239a16.15 16.15 0 0 0 5.379 3.613 32.642 32.642 0 0 0 5.8 1.842 48.542 48.542 0 0 0 5.58.864zm-49.753-17.19a7.991 7.991 0 0 1-.713-4.585 10.419 10.419 0 0 1 1.911-4.5 26.391 26.391 0 0 1 8-6.941 63.144 63.144 0 0 1 8.571-4.271 85.18 85.18 0 0 0 3.223 11.2 59.047 59.047 0 0 0 8.44 15.789 8.472 8.472 0 0 0-.68.873 7.634 7.634 0 0 0-1.264 3.446 6.892 6.892 0 0 0 .568 3.345c.048.1.112.185.16.29-.388-.081-.792-.145-1.182-.235-7.031-1.514-14-3.741-20.009-7.354-2.942-1.84-5.661-4.157-7.023-7.057zM374.34 509.53a53.718 53.718 0 0 1-14.727 7.169 89.415 89.415 0 0 1-16.087 3.5 119.674 119.674 0 0 1-16.524.979 121.308 121.308 0 0 1-16.526-.97 89.251 89.251 0 0 1-16.087-3.5 53.561 53.561 0 0 1-14.727-7.178c-.4-.283-.809-.59-1.2-.9a53.005 53.005 0 0 0 8.084 3.905 88.241 88.241 0 0 0 10.822 3.37A125.976 125.976 0 0 0 319.662 519c14.953.6 30.119-.7 44.438-5.581a60.384 60.384 0 0 0 10.368-4.642 41.465 41.465 0 0 0 3.923-2.648 34.426 34.426 0 0 1-4.051 3.401zm9.056-19.059a8.671 8.671 0 0 1 .356 5 10.378 10.378 0 0 1-2.315 4.431 25.978 25.978 0 0 1-8.426 6.191 62.725 62.725 0 0 1-10.026 3.863c-2.367.68-4.765 1.248-7.18 1.766.05-.13.132-.243.18-.38a6.665 6.665 0 0 0 .421-3.558 8.181 8.181 0 0 0-1.573-3.49 7.691 7.691 0 0 0-.776-.877 59.5 59.5 0 0 0 8.1-15.35c.031-.1.064-.195.1-.281.033-.009.1-.017.13-.026a5.742 5.742 0 0 0 1.217-.382 6.687 6.687 0 0 0 2.056-1.376 7.453 7.453 0 0 0 1.343-1.8.033.033 0 0 0 .017-.033 20.03 20.03 0 0 0 11.164-.582 17.4 17.4 0 0 1 5.216 6.884zm-16.831-10.864l-1.669-.713a87.27 87.27 0 0 0 1-4.625 10.126 10.126 0 0 0 3.468 2.13 11.268 11.268 0 0 0 11.713-2.745 11.553 11.553 0 0 0 3-5.6 12.2 12.2 0 0 0-3.5-11.445 11.519 11.519 0 0 0-11.243-2.683l-.6.2.162.551v.015l.033.123.031.048a5.327 5.327 0 0 1 .406 4.447 7.836 7.836 0 0 1-1.038 2.187 3.5 3.5 0 0 1-.809.851.209.209 0 0 1-.048.031 134.762 134.762 0 0 0 .388-14.661 17.576 17.576 0 0 1 15.212 3.815 17.039 17.039 0 0 1 5.864 14.321 16.527 16.527 0 0 1-7.906 12.735 15.978 15.978 0 0 1-14.464 1.018z" class="cls-3" data-name="Path 1426" transform="translate(-267.717 -436.519)"/>
            </g>
        </g>
        <g id="Group_368" data-name="Group 368" transform="translate(846.555 1029.545)">
            <path id="Path_3657" d="M285.281 449.017a15.051 15.051 0 0 1 4.162-1.641 5.1 5.1 0 0 1 4.236.95 7.58 7.58 0 0 1 1.786 2.953 60.172 60.172 0 0 1 3.6 10.592 10.269 10.269 0 0 0 .772 2.689c.458.882 1.206 1.591 1.628 2.49.684 1.448.432 3.183 1 4.679a30.022 30.022 0 0 0 1.924 3.179c.917 1.729.987 3.769 1.477 5.666.522 2.016 1.527 3.881 2.049 5.9s.474 4.359-.891 5.927c.9-1.038 2.889 1.637 3.3 2.117a17.593 17.593 0 0 1 2.788 3.729 8.517 8.517 0 0 1 1.195 3.289c.2 2.9-2.913 3.5-5.008 4.425a25.059 25.059 0 0 1-2.981 1.167 24.727 24.727 0 0 1-2.734.59l-12.509 2.213a3.492 3.492 0 0 1-2.729-.27c-1.22-.928-.706-2.821-.836-4.35a9.1 9.1 0 0 0-1.547-3.771 21.412 21.412 0 0 0-4.725-6.066c-1.229-.97-2.672-1.667-3.809-2.744-2.185-2.069-2.931-5.2-3.431-8.17a91.765 91.765 0 0 1-1.264-17.609 25.419 25.419 0 0 1 1.268-6.153c.362-1.36.217-2.9.746-4.208 1.504-3.69 7.252-5.89 10.533-7.573z" class="cls-4" data-name="Path 3657" transform="translate(-240.224 -445.779)"/>
            <g id="Group_367" data-name="Group 367">
                <g id="Group_350" data-name="Group 350" transform="translate(34.683 64.903)">
                    <path id="Path_3658" d="M276.094 483.11c-1.612 0-2.273 1.334-2.178 2.79q.5 7.677 1.007 15.354c.022.331.629.818.651 1.15l1.213 21.383c.092 1.255 1.046 2.029 3.006 2.029h26.519c1.961 0 2.915-.774 3.007-2.029l1.213-21.383c.022-.333.628-.82.651-1.15q.5-7.677 1.007-15.354c.1-1.456-.566-2.79-2.178-2.79-2.356-.053-5.318.035-7.431-.636-2.33-.741-2.926-.2-3.844 1.2a4.872 4.872 0 0 1 1.507-.189c1.836.024 3.5.621 5 .544.735-.039 1.251.474 2 .472h2.341c.614 0 .706.847.649 1.481l-1.187 15.318c-.024.3-.63.754-.654 1.053l-1.189 15.424c-.112 1.251-1.1 1.817-2.371 1.887-3.98.222-7.878.325-11.779.311-3.9.015-7.8-.088-11.781-.311-1.266-.07-2.258-.636-2.369-1.887l-1.191-15.424c-.022-.3-.63-.753-.654-1.053l-1.182-15.321c-.055-.634.015-1.507.63-1.507h3.269c1.012 0 1.606-.474 2.507-.52 1.516-.077 1.781.281 3.642.044a24.539 24.539 0 0 0 3.447-.358 2.5 2.5 0 0 1 .623-.167c1.239-.169 1.505.154 3.008-.189 1.009-.23 4.326-1.176 4.98.742.728-.845 3.006-3.165-4.866-1.851a11.067 11.067 0 0 1-2.672-.02c-2.2.2-3.609.81-6.011.81z" class="cls-5" data-name="Path 3658" transform="translate(-273.907 -481.778)"/>
                    <g id="Group_342" data-name="Group 342" transform="translate(2.799 3.485)">
                        <path id="Path_3659" d="M307.448 483.675h-31.472a.63.63 0 0 0-.544.662l1.174 15.227c.028.345.627.693.654 1.038l1.2 15.523c.075.849.737 1.138 1.591 1.185 3.905.219 7.816.309 11.73.309s7.823-.09 11.728-.309c.854-.048 1.516-.336 1.59-1.176l1.2-15.532.652-1.038 1.176-15.236c.041-.513-.244-.653-.679-.653z" class="cls-6" data-name="Path 3659" transform="translate(-275.43 -483.675)"/>
                        <path id="Path_3660" d="M306.656 484.793l-1.132 14.293-.656 1.038-1.2 15.119a.562.562 0 0 1-.555.476 53.931 53.931 0 0 1-4.274.173.53.53 0 0 1-.555-.527c.259-4.721.535-9.585.8-14.33.1-1.875.156-2.852.217-3.945l.68-12.349a.541.541 0 0 1 .555-.492h5.564a.563.563 0 0 1 .408.164.471.471 0 0 1 .147.384zm-21.28 16.028l.6 14.652a.527.527 0 0 1-.555.529c-2.014-.046-4.48-.171-6.044-.3a.558.558 0 0 1-.555-.474l-1.126-15.106c-.026-.345-.625-.693-.651-1.038l-1.066-14.293a.466.466 0 0 1 .149-.384.555.555 0 0 1 .406-.164h7.621a.538.538 0 0 1 .555.494l.518 12.539.148 3.545z" class="cls-7" data-name="Path 3660" transform="translate(-274.971 -483.197)"/>
                        <path id="Path_3661" d="M304.226 485.221l-.8 11.566a.4.4 0 0 1-.415.358h-1.437a.417.417 0 0 1-.3-.118.354.354 0 0 1-.116-.283l.579-11.566a.4.4 0 0 1 .415-.364h1.654a.426.426 0 0 1 .305.121.358.358 0 0 1 .112.287zm-23.074.066l.513 11.566a.355.355 0 0 1-.116.281.421.421 0 0 1-.3.118h-3.076a.4.4 0 0 1-.415-.357l-.853-11.568a.354.354 0 0 1 .112-.287.414.414 0 0 1 .3-.121h3.414a.4.4 0 0 1 .421.368z" class="cls-8" data-name="Path 3661" transform="translate(-274.195 -482.722)"/>
                        <path id="Path_3662" d="M291.38 484.7l-.307 11.947c-.006.244-.281.441-.619.441h-6.886c-.336 0-.614-.2-.619-.441l-.307-11.947a.387.387 0 0 1 .178-.324.723.723 0 0 1 .443-.132h7.496a.724.724 0 0 1 .443.132.383.383 0 0 1 .178.324z" class="cls-9" data-name="Path 3662" transform="translate(-269.389 -483.197)"/>
                        <path id="Path_3663" d="M287.835 485.046l-.136 10.592c0 .217-.125.39-.274.39h-3.049c-.149 0-.272-.173-.274-.39l-.136-10.592a.484.484 0 0 1 .079-.285.235.235 0 0 1 .2-.119h3.319a.234.234 0 0 1 .195.119.484.484 0 0 1 .076.285z" class="cls-10" data-name="Path 3663" transform="translate(-268.279 -482.865)"/>
                        <path id="Path_3664" d="M284.233 494.153c3.572-.048 6.628.941 6.5 5.09l-.333 10.477c1.884-.035 3.2.127 3.249-1.29l.351-11.225c.13-4.151-3.5-5.138-7.071-5.09a11 11 0 0 0-4.142.726c-1.566.678-3.538 1.862-.41 1.439a15.352 15.352 0 0 1 1.856-.127z" class="cls-11" data-name="Path 3664" transform="translate(-270.999 -476.607)"/>
                        <path id="Path_3665" d="M283.52 494.864c-.075-2.065-2.7-.915-2.637.957l.417 11.279c.062 1.691 1.005 1.222 2.543 1.244-.489-4.213-.165-9.092-.323-13.48z" class="cls-10" data-name="Path 3665" transform="translate(-270.864 -475.223)"/>
                        <path id="Path_3666" d="M277.417 494.315c1.725.564 2.834 1.926 2.909 4.751l.274 10.173c1.457-.035 2.284.43 2.247-.987l-.3-11.225c-.1-3.878-2.767-4.886-5.349-4.675-.377.031-.263 1.805.219 1.963z" class="cls-8" data-name="Path 3666" transform="translate(-274.137 -476.429)"/>
                        <path id="Path_3667" d="M277.336 495.047c-.075-1.895 1.738-.84 1.806.88q.2 5.174.406 10.35c.075 1.909-1.375 1.395-1.487.14-.278-3.146-.58-7.683-.725-11.37z" class="cls-9" data-name="Path 3667" transform="translate(-273.835 -474.993)"/>
                        <path id="Path_3668" d="M288.7 494.647c3.821-.4 3.339 1.672 3.152 4.466l-.673 10.061c1.492-.035 2.327-.05 2.422-1.45l.719-10.625c.217-3.2-.362-4.561-3.111-4.692-2.409-.114-3.629 2.357-2.509 2.24z" class="cls-8" data-name="Path 3668" transform="translate(-264.664 -476.364)"/>
                        <path id="Path_3669" d="M288.917 495.119c.13-1.874 1.871-.831 1.753.869q-.356 5.119-.709 10.236c-.132 1.889-1.56 1.38-1.538.14.057-3.111.243-7.6.494-11.245z" class="cls-9" data-name="Path 3669" transform="translate(-264.546 -474.923)"/>
                    </g>
                    <g id="Group_343" data-name="Group 343" transform="translate(2.799 3.485)">
                        <path id="Path_3670" d="M307.448 483.675h-31.472a.63.63 0 0 0-.544.662l.979 12.7a8.4 8.4 0 0 0 2.26-.669c1.577-.755 2.089-.6 3.738-.412a7.311 7.311 0 0 0 2.185-.175 14.848 14.848 0 0 1 1.487-.059c.946.04 1.99.375 2.826.362 1.406-.044 1.435-.827 2.756-1.029a7.2 7.2 0 0 0 1.735-.452c2.632-.95 2.427.358 4.377.259.742-.039 1.481-.094 2.224-.134.95-.046 1.933-.031 2.874-.1a3.368 3.368 0 0 0 .7-.136c1.253-.393.994-.842 2.556-.8a6.027 6.027 0 0 0 1.283-.11l.713-9.256c.043-.511-.242-.651-.677-.651z" class="cls-7" data-name="Path 3670" transform="translate(-275.43 -483.675)"/>
                        <path id="Path_3671" d="M306.656 484.793l-.667 8.424h-.322c-1.562-.046-1.3.4-2.556.8a3.356 3.356 0 0 1-.7.136c-.941.07-1.924.055-2.874.1l-.083.005.524-9.516a.541.541 0 0 1 .555-.492h5.564a.563.563 0 0 1 .408.164.471.471 0 0 1 .147.384zm-21.512 10.449c-.334.011-.665.04-1.009.061a7.3 7.3 0 0 1-2.185.174c-1.648-.187-2.161-.343-3.738.412a8.837 8.837 0 0 1-1.369.489l-.864-11.585a.466.466 0 0 1 .149-.384.555.555 0 0 1 .406-.164h7.621a.538.538 0 0 1 .555.494z" class="cls-8" data-name="Path 3671" transform="translate(-274.971 -483.197)"/>
                        <path id="Path_3672" d="M304.226 485.221l-.526 7.658a8.9 8.9 0 0 1-1.365.658 3.375 3.375 0 0 1-.7.136c-.108.007-.217.015-.325.02l.426-8.514a.4.4 0 0 1 .415-.364h1.654a.426.426 0 0 1 .305.121.358.358 0 0 1 .112.287zm-22.642 9.815a6.378 6.378 0 0 1-.41-.035c-1.575-.18-2.113-.329-3.532.316l-.737-9.99a.354.354 0 0 1 .112-.287.414.414 0 0 1 .3-.121h3.414a.4.4 0 0 1 .417.368z" class="cls-12" data-name="Path 3672" transform="translate(-274.195 -482.722)"/>
                        <path id="Path_3673" d="M291.38 484.7l-.248 9.664c-1.338-.158-1.45-1.08-3.775-.242a7.2 7.2 0 0 1-1.735.452c-1.3.2-1.351.963-2.7 1.027l-.279-10.9a.387.387 0 0 1 .178-.324.723.723 0 0 1 .443-.132h7.496a.724.724 0 0 1 .443.132.383.383 0 0 1 .177.323z" class="cls-6" data-name="Path 3673" transform="translate(-269.389 -483.197)"/>
                        <path id="Path_3674" d="M287.835 485.046l-.106 8.4a5.085 5.085 0 0 0-1.481.344 7.194 7.194 0 0 1-1.735.452 2.951 2.951 0 0 0-.426.1l-.119-9.293a.484.484 0 0 1 .079-.285.235.235 0 0 1 .2-.119h3.319a.234.234 0 0 1 .195.119.484.484 0 0 1 .074.282z" class="cls-13" data-name="Path 3674" transform="translate(-268.279 -482.865)"/>
                    </g>
                    <g id="Group_347" data-name="Group 347" transform="translate(3.666 3.485)">
                        <g id="Group_344" data-name="Group 344">
                            <path id="Path_3675" d="M305.553 483.675h-26.872c-1.715 1.038-2.869 3.367-2.775 6.467.081 2.687.741 4.4 2.571 3.984 2.847-.639 12.316 1.968 11.566-1.331-.013-.059-.026-.117-.037-.176a19.194 19.194 0 0 0 2.009-.1 12.772 12.772 0 0 0 1.387-.208c1.1 1.207 3.074.748 6.459.516 2.077-.141 2.543-1.772 4.714-1.566 1.8.171 2.455-.283 2.534-2.523.091-2.393-.378-4.214-1.556-5.063z" class="cls-14" data-name="Path 3675" transform="translate(-275.902 -483.675)"/>
                            <path id="Path_3676" d="M306.579 484.866l-.454 5.734a2.882 2.882 0 0 1-1.683.189c-2.17-.206-2.637 1.424-4.714 1.566l-.237.017.419-7.632a.541.541 0 0 1 .555-.492h5.564a.564.564 0 0 1 .327.1 4.678 4.678 0 0 1 .222.524zm-21.559 9.085c-2.519-.182-5.335-.6-6.676-.3a1.6 1.6 0 0 1-1.821-.639l-.459-6.143a6.752 6.752 0 0 1 1.286-2.622h6.735a.538.538 0 0 1 .555.494z" class="cls-15" data-name="Path 3676" transform="translate(-275.767 -483.197)"/>
                            <path id="Path_3677" d="M304.226 485.221l-.351 5.105-.138-.013a3.412 3.412 0 0 0-2.284.586l.287-5.721a.4.4 0 0 1 .415-.364h1.654a.426.426 0 0 1 .305.121.358.358 0 0 1 .112.287zm-22.721 8a15.091 15.091 0 0 0-3.866-.051c-.051.013-.1.022-.152.029l-.581-7.876a.354.354 0 0 1 .112-.287.414.414 0 0 1 .3-.121h3.414a.4.4 0 0 1 .417.368z" class="cls-16" data-name="Path 3677" transform="translate(-275.062 -482.722)"/>
                            <path id="Path_3678" d="M291.38 484.7l-.2 7.9c-1.612.1-2.7.028-3.42-.761a12.77 12.77 0 0 1-1.387.208 19.229 19.229 0 0 1-2.009.1c.011.059.024.118.037.177.219.957-.426 1.417-1.52 1.6l-.237-9.22a.387.387 0 0 1 .178-.324.723.723 0 0 1 .443-.132h7.496a.724.724 0 0 1 .443.132.383.383 0 0 1 .176.32z" class="cls-17" data-name="Path 3678" transform="translate(-270.256 -483.197)"/>
                            <path id="Path_3679" d="M287.835 485.046l-.09 7.11a2.219 2.219 0 0 1-1.1-.651 12.769 12.769 0 0 1-1.387.208c-.481.053-.866.073-1.207.083l-.086-6.75a.484.484 0 0 1 .079-.285.235.235 0 0 1 .2-.119h3.319a.234.234 0 0 1 .195.119.484.484 0 0 1 .077.285z" class="cls-18" data-name="Path 3679" transform="translate(-269.146 -482.865)"/>
                        </g>
                        <g id="Group_345" data-name="Group 345" transform="translate(.62 .002)">
                            <path id="Path_3680" d="M296.144 483.676h-.285v.052c.143 2.156.024 2.1.29 4.519a3.265 3.265 0 0 1-2.2 3.826 1.871 1.871 0 0 0 1.584.447c.792-.042 1.615-.16 2.431-.208a4.084 4.084 0 0 0 2.551-.586c.834-.456 1.6-.625 2.431-1 .9-.347 1.944.039 2.431-.312a2.274 2.274 0 0 0 .812-2.014c.026-.693.044-4.534-1.457-3.569-1.2.768 2.312 2.757-1.579 3.839-1.24.324-2.444.246-3.732.641-.277.09-.529.189-.8.3-.7.311-1.5.494-1.533-.531-.011-.294.011-.623.026-.917a4.8 4.8 0 0 0-.287-2.5 5.428 5.428 0 0 1-.2-.84c-.062-.434-.1-.93-.489-1.152zm-9.815 0h-.706a6.777 6.777 0 0 0-.781 1.389c-1.011 1.878-1.253 2.044-.687 4.168a2.971 2.971 0 0 1-.573 2.246c-.765 1.424-.7-.6-2.7-.028a7.612 7.612 0 0 1-2.935.357c-1.053-.417-.272-1.91.031-2.608a8.2 8.2 0 0 1 .994-1.7 3.351 3.351 0 0 0 .546-2.5c-.25-.842-1.3-.063-1.748.342-1.606 1.452-1.261 2.628-1.488 4.543-.158 1.4.017 3.543 1.9 3.53a25.843 25.843 0 0 1 3.528-.094c.869.241.505.417 1.56.274.766-.1 2.01.134 2.9.13a10.936 10.936 0 0 0 1.661-.149l.136-.024a.977.977 0 0 0 .884-.871 10.516 10.516 0 0 0-1.117.2c-1.161.265-2.44-1.169-2.44-3.751 0-2.281.226-4.276 1.025-5.449zm-.305 2.588a5.945 5.945 0 0 1 .544-1.125c2.464-5.228.678 5.425 3.5 5.241 1.562-.1 4.313.119 4.684-2.655.45-3.35 1.534 1.959.355 2.58-.945.5-2.742 1.545-3.692 1.369-1.645-.307-3.611.713-4.552-.063-1.214-1.003-1.3-3.745-.839-5.347z" class="cls-6" data-name="Path 3680" transform="translate(-276.239 -483.676)"/>
                            <path id="Path_3681" d="M306.2 487.825l-.064.814a1.8 1.8 0 0 1-.75 1.3c-.487.351-1.531-.035-2.431.312-.829.375-1.6.544-2.431 1a4.18 4.18 0 0 1-1.141.485l.162-2.933c1.244-.359 2.415-.294 3.618-.608 3.89-1.082.382-3.071 1.579-3.839a1.122 1.122 0 0 1 .208-.108h.448c.8.373.821 2.848.8 3.58zm-28.423-2.962c-1.606 1.452-1.261 2.628-1.488 4.543-.158 1.4.017 3.543 1.9 3.53a25.862 25.862 0 0 1 3.528-.094c.869.241.505.417 1.56.274a7.64 7.64 0 0 1 1.562.042l-.329-7.957c-.726 1.334-.853 1.689-.355 3.556a2.971 2.971 0 0 1-.573 2.246c-.765 1.424-.7-.6-2.7-.028a7.612 7.612 0 0 1-2.935.357c-1.053-.417-.272-1.909.031-2.608a8.2 8.2 0 0 1 .994-1.7 3.351 3.351 0 0 0 .546-2.5.577.577 0 0 0-.162-.274h-.689a3.713 3.713 0 0 0-.894.612z" class="cls-7" data-name="Path 3681" transform="translate(-276.239 -483.199)"/>
                            <path id="Path_3682" d="M304.226 485.183v.022c-.053-.12-.107-.235-.154-.347l.044.039a.358.358 0 0 1 .112.287zm-.123 1.794l-.18 2.606a4.018 4.018 0 0 0-1.529.153c-.307.14-.6.25-.9.357l.11-2.222a8.442 8.442 0 0 0 1-.191 3.775 3.775 0 0 0 1.5-.7zm-26.672 5.438a2.6 2.6 0 0 0 .2.007 25.834 25.834 0 0 1 3.528-.094 2.794 2.794 0 0 1 .311.1l-.09-2.034a2.1 2.1 0 0 0-1.053.066 7.613 7.613 0 0 1-2.935.357l-.083-.037.121 1.634zm-.267-3.615c.094-.222.189-.428.259-.59a8.192 8.192 0 0 1 .994-1.7 3.571 3.571 0 0 0 .6-1.628h-1.692a.414.414 0 0 0-.3.121.354.354 0 0 0-.112.287z" class="cls-8" data-name="Path 3682" transform="translate(-275.682 -482.686)"/>
                            <path id="Path_3683" d="M291.376 484.86l-.182 7.1a26.4 26.4 0 0 1-1.02.083 1.871 1.871 0 0 1-1.584-.447 3.265 3.265 0 0 0 2.2-3.826c-.219-1.975-.178-2.3-.235-3.523h.2a.724.724 0 0 1 .443.132.744.744 0 0 1 .086.077c.026.145.053.274.088.4zm-8.521 8.148l-.018-.706c.245-.046.461-.079.662-.1a.939.939 0 0 1-.643.807zm-.04-1.586a12.95 12.95 0 0 1 3.242-.226c.95.176 2.747-.873 3.692-1.369 1.18-.621.1-5.93-.355-2.58-.371 2.775-3.122 2.555-4.684 2.656-1.645.106-1.727-3.453-1.994-5.421a.337.337 0 0 0-.073.221z" class="cls-14" data-name="Path 3683" transform="translate(-270.876 -483.199)"/>
                            <path id="Path_3684" d="M287.769 486.611l-.022 1.7a5.662 5.662 0 0 1-2.826.908 4.013 4.013 0 0 0-.906-.055L284 487.9c1.239-.051 2.924-.083 3.771-1.29zm-.037 2.889l-.005.338a1.244 1.244 0 0 1-.272-.224 6.47 6.47 0 0 0 .277-.114z" class="cls-19" data-name="Path 3684" transform="translate(-269.74 -481.217)"/>
                        </g>
                        <g id="Group_346" data-name="Group 346" transform="translate(3.796 .002)">
                            <path id="Path_3685" d="M293.44 483.678h-5.265c-1.2.4-1.264 1.3.783 2.8a3.168 3.168 0 0 0 2.157-1.046c.667-.6 2.409 1.647 2.494.176a4.62 4.62 0 0 0-.169-1.933zm-13.487 0h-.566a.948.948 0 0 0-.529 1.079c.16 1.65.54 1.924-.505 3.462-.309.454-.75 1.244.149 1.354.61.075.908-.467 1.125-.417a.744.744 0 0 0 .875-.279 6.778 6.778 0 0 0 1.209-2.292c.21-.739 1.292-2.3-.228-2.722a9.279 9.279 0 0 1-1.529-.186zm16.528 1.906c-1.546-2.328.29-1.852 1.678-1.6a8.846 8.846 0 0 0 2.4.046l.272-.02c1.117-.154 1.42.379 1.393 1.424a1.647 1.647 0 0 1-1.691 1.527c-1.185.11-1.15.731-1.974.669-.731-.055-.851-.259-1.272-.858l-.164-.234a9.03 9.03 0 0 1-.642-.956z" class="cls-20" data-name="Path 3685" transform="translate(-277.968 -483.676)"/>
                            <path id="Path_3686" d="M298.186 487.1l.129-2.358a.541.541 0 0 1 .555-.492h3.3a2.844 2.844 0 0 1 .055.707 1.647 1.647 0 0 1-1.691 1.527c-1.185.11-1.15.731-1.974.669a2.3 2.3 0 0 1-.375-.053zm-19.33-2.85v.031c.16 1.65.54 1.924-.505 3.462-.309.454-.75 1.244.149 1.354.61.075.908-.467 1.125-.417a.744.744 0 0 0 .875-.279 6.776 6.776 0 0 0 1.209-2.292 6.287 6.287 0 0 0 .568-1.86z" class="cls-21" data-name="Path 3686" transform="translate(-277.968 -483.198)"/>
                            <path id="Path_3687" d="M300.809 485.966l.04-.788a.4.4 0 0 1 .415-.364h.917a1.632 1.632 0 0 1-1.373 1.152zm-21.8-1.047a2.726 2.726 0 0 1-.656 2.345c-.309.454-.75 1.244.149 1.354.61.075.908-.467 1.125-.417a.7.7 0 0 0 .757-.163l-.121-2.751a.4.4 0 0 0-.417-.368z" class="cls-22" data-name="Path 3687" transform="translate(-277.968 -482.723)"/>
                            <path id="Path_3688" d="M283.079 484.246H289.344a9.49 9.49 0 0 1-.015.888c-.084 1.47-1.827-.775-2.494-.176a3.169 3.169 0 0 1-2.159 1.042 3.922 3.922 0 0 1-1.597-1.754z" class="cls-23" data-name="Path 3688" transform="translate(-273.686 -483.198)"/>
                            <path id="Path_3689" d="M287.835 485.046v.143c-.309-.149-.671-.4-1-.546h.728a.234.234 0 0 1 .195.119.484.484 0 0 1 .079.285zm-3.861.641l-.007-.641a.484.484 0 0 1 .079-.285.235.235 0 0 1 .2-.119h1.825a3.483 3.483 0 0 1-2.097 1.046z" class="cls-24" data-name="Path 3689" transform="translate(-272.942 -482.867)"/>
                        </g>
                    </g>
                    <g id="Group_348" data-name="Group 348" transform="translate(4.982 24.83)">
                        <path id="Path_3690" d="M276.618 495.461l.753 9.751a86.669 86.669 0 0 0 26.835-.182l.752-9.74c-9.726 3.357-19.087 2.777-28.34.171z" class="cls-7" data-name="Path 3690" transform="translate(-276.618 -495.29)"/>
                        <path id="Path_3691" d="M303.546 495.471l-.759 9.567q-2.679.4-5.432.65c.16-2.909.327-5.873.491-8.826a42.448 42.448 0 0 0 5.7-1.391zm-26.437.086a57.977 57.977 0 0 0 7.551 1.51l.362 8.81q-3.531-.2-7.194-.695z" class="cls-7" data-name="Path 3691" transform="translate(-276.207 -495.138)"/>
                        <path id="Path_3692" d="M286.275 496.657l-.27 8.584q1.618-.066 3.21-.195c0-.04.005-.083.007-.129l.27-8.611q-1.612.24-3.217.351z" class="cls-8" data-name="Path 3692" transform="translate(-268.755 -494.439)"/>
                        <path id="Path_3693" d="M280.934 496.3l.318 8.67c0 .062.007.121.011.176q1.227.077 2.437.12c-.237-2.755-.184-5.747-.176-8.674a45.792 45.792 0 0 1-2.59-.292z" class="cls-9" data-name="Path 3693" transform="translate(-273.003 -494.442)"/>
                        <path id="Path_3694" d="M278.8 495.924v.127l.244 9.074q1.147.124 2.277.215v-.1l-.232-8.872a62.885 62.885 0 0 1-2.289-.444z" class="cls-12" data-name="Path 3694" transform="translate(-274.794 -494.759)"/>
                        <path id="Path_3695" d="M279.16 496.023l.351 8.957a3.043 3.043 0 0 1 0 .346 87.983 87.983 0 0 1-1.481-.184v-.022a262.363 262.363 0 0 1-.645-9.53c.588.153 1.181.297 1.775.433z" class="cls-6" data-name="Path 3695" transform="translate(-275.981 -495.039)"/>
                        <path id="Path_3696" d="M290.524 496.143c-.011.136-.02.272-.029.41l-.588 8.8q1.18-.149 2.347-.329l.647-9.561q-1.191.375-2.377.68z" class="cls-12" data-name="Path 3696" transform="translate(-265.486 -495.149)"/>
                        <path id="Path_3697" d="M290.562 495.99l-.6 8.67a3.209 3.209 0 0 1-.051.391q-.717.08-1.439.147a1.446 1.446 0 0 1-.048-.4c.044-2.347.16-5.478.322-8.439q.906-.159 1.816-.369z" class="cls-6" data-name="Path 3697" transform="translate(-266.729 -494.704)"/>
                    </g>
                    <path id="Path_3698" d="M285.256 494.082c.959.066 1.319 1.343 1.536 2.352l.053.25a15.51 15.51 0 0 1 .125 3.28 16.666 16.666 0 0 1-.068 2.611c-.061.744-.152 1.52-.206 2.26-.053 1.246.388 2.317-1.027 2.694-.821.219-1.8.217-2.108-.954a25.531 25.531 0 0 1-.118-4.231c0-2.056-.009-4.113 0-6.169.007-1.558.707-1.975 1.813-2.093z" class="cls-9" data-name="Path 3698" transform="translate(-265.941 -471.472)"/>
                    <path id="Path_3699" d="M286.991 496.546c-.013.417-.033.849-.02 1.367a16.668 16.668 0 0 1-.068 2.611c-.061.744-.152 1.52-.206 2.26-.04.956.21 1.808-.311 2.323q-1.262.028-2.542.017a1.641 1.641 0 0 1-.283-.6 25.529 25.529 0 0 1-.118-4.23q0-1.883-.006-3.764 1.772.078 3.554.016z" class="cls-6" data-name="Path 3699" transform="translate(-265.941 -469.42)"/>
                    <g id="Group_349" data-name="Group 349" transform="translate(6.448 1.808)">
                        <path id="Path_3700" d="M279.325 483.849c1.516-.077 1.779.281 3.642.044a19.129 19.129 0 0 1 3.146-.2 2.388 2.388 0 0 1 .922-.322c1.24-.169 1.507.154 3.01-.189 1.009-.23 4.181-1.156 4.749.829a8.234 8.234 0 0 1 2.49-.628c1.836.024 3.5.621 5 .544a3.046 3.046 0 0 1 2 .516h-26.868a4.067 4.067 0 0 1 1.909-.594z" class="cls-25" data-name="Path 3700" transform="translate(-277.416 -482.762)"/>
                        <path id="Path_3701" d="M282.053 483.781c.026-.039.055-.077.083-.116a.557.557 0 0 0-.788.116zm9.81 0h-.283v-.046h.184a.87.87 0 0 1 .098.046z" class="cls-26" data-name="Path 3701" transform="translate(-274.123 -482.104)"/>
                        <path id="Path_3702" d="M279.3 483.931a5.697 5.697 0 0 0-.237-.037.877.877 0 0 0-.32.037zm13.49 0h-5.254a7.137 7.137 0 0 1 2.137-.257c1.405 0 2.655-.833 3.116.257z" class="cls-27" data-name="Path 3702" transform="translate(-276.305 -482.254)"/>
                    </g>
                    <path id="Path_3703" d="M282.183 503.354a5.984 5.984 0 0 1 1.224-.108h1.612q2.993 0 5.987-.029a5.932 5.932 0 0 1 1.262.1c.93.195.577 2.771-.085 2.94a5.668 5.668 0 0 1-1.294.13h-7.308a5.874 5.874 0 0 1-1.207-.11c-.867-.185-1.074-2.73-.191-2.923z" class="cls-28" data-name="Path 3703" transform="translate(-267.453 -463.819)"/>
                    <path id="Path_3704" d="M298.538 503.186c1.24-.1 2.49-.147 3.673-.349 2.11-.358 1.248 4.011-.1 4.011h-3.7c-1.775 0-.829-3.587.127-3.662zm-20.143-.349a47.688 47.688 0 0 0 4.809.43c1.011.064 1.9 3.582.145 3.582H278.5c-1.353-.001-2.214-4.371-.1-4.012z" class="cls-29" data-name="Path 3704" transform="translate(-271.212 -464.156)"/>
                    <path id="Path_3705" d="M299.521 505.961h1.027l.338-2.747c-.347.031-.7.057-1.059.082l-.307 2.665zm-21.532-2.734l.336 2.734h2.229l-.3-2.564a59.925 59.925 0 0 1-2.265-.17z" class="cls-30" data-name="Path 3705" transform="translate(-270.488 -463.822)"/>
                    <path id="Path_3706" d="M283.911 503.541h1.125q2.092 0 4.179-.011c2-.011 2.038 1.165-.081 1.165h-5.1c-1.678.005-2.4-1.158-.123-1.154z" class="cls-31" data-name="Path 3706" transform="translate(-266.732 -463.557)"/>
                </g>
                <path id="Path_3707" d="M295.111 449.008c.14 4.184 1.7 5.9 2.61 8.74.573 1.788.147 3.773.814 5.638.334.937 1.612 1.178 2.1 2.306 1.621 3.745.632 5.425 1.347 7.013.325.726 1.768-.6 2.464 4.609a28.448 28.448 0 0 0 3.795 9.852c2.126 3.549-3.5 4.9-1.472 5.585.639.215 3.769-.542 4.938 2.549.428 1.134.825 5.344 3.242 7.614 2.712 2.549-10.4 8.341-19.718 6.753 3.984-.627 18.257-4.943 16.622-7.419-1.722-2.606-1.422-4.363-2.655-5.8a6.144 6.144 0 0 0-4.883-2.082c-1.577-.015-3.19.737-2.014-.325 2.542-2.3 4.488-3.453 3.183-6.593-.9-2.167-3.378-9.222-3.6-11.563-.088-.941-1.327-1.334-2.213-1-2.483.934-1.454.022-1.178-.27 2.128-2.253.717-8.606-1.023-8.584-.717.009-1.586.386-1.727-.322-.467-2.308 1.136-2.091-.441-7.24-.8-2.606-2.306-4.436-2.891-7.648-.606-3.328-16.532 4.354-17.9 5.384.033-2.005 20.335-15.189 20.6-7.197z" class="cls-5" data-name="Path 3707" transform="translate(-238.722 -446.461)"/>
                <path id="Path_3708" d="M290.03 450l-12.937 4.107c-1.985.752-2.244 2.61-2.343 4.539a27.331 27.331 0 0 1-.221 2.78l6.676-2.608.45 1.187c.533 1.411.707 2.319-.783 3.085l-4.585 1.65c-2.238 1.09-1.391 4.945-.974 6.875l7.244-3.793c1.771-.928 2-2.235 1.586-3.94 1.417 2.611 3.543 3.135 6.309 2.108 3.644-1.354 4.548-4.888 3.368-8.01l-3.79-7.98zm-6.794 8.054l6.485-2.451.509 1.347a3.474 3.474 0 1 1-6.487 2.451l-.507-1.347zm26.99 41.837l-.415-1.1c-3.7-1.97-5.189-3.578-7.829-3.558l-8.753.755 6.913-5.465c2-1.748 4.78-3.572 3.629-6.616l-.845-2.235-5.787 2.271-13.766 4.387c-2.152.809-.759 2.091.665 2.992l11.943-4.515-7.52 6.013a2.148 2.148 0 0 0-1.022 1.575 6.033 6.033 0 0 0 .7 2.043 8.95 8.95 0 0 1 .855 2.067l12.316-1.09-10.234 3.065c-1.5.487-1.443 2.391-1.461 3.71-.015 1.187.028 2.347-.024 3.532l20.63-7.834zm-13.371-34.5l.913 2.416a2.563 2.563 0 0 1-1.5 3.291l-16.355 6.176-.018.009c-1.812 1.011-1.8 3.578-1.152 5.28l.1.268 21.558-8.126.913 2.418a2.56 2.56 0 0 1-1.5 3.291l-20.431 7.718a6.788 6.788 0 0 1-1.76-2.446 20.909 20.909 0 0 1-1.582-4.715c-.619-2.918-1.606-7.735 1.968-9.181z" class="cls-32" data-name="Path 3708" transform="translate(-238.703 -443.496)"/>
                <path id="Path_3709" d="M290.44 449.161l-13.15 4.971a2.944 2.944 0 0 0-1.676 1.332 5.839 5.839 0 0 0-.454 2.343 27.3 27.3 0 0 1-.221 2.78l6.676-2.608.45 1.187c.533 1.411.708 2.319-.783 3.086l-4.62 2.455a2.35 2.35 0 0 0-1.077.992c-.72 1.31-.2 3.534.138 5.078l7.244-3.793c1.772-.928 2-2.235 1.586-3.94 1.417 2.611 3.543 3.135 6.309 2.108 3.644-1.354 3.65-5.219 2.468-8.341l-2.891-7.65zm-6.794 8.055l6.485-2.452.509 1.347a3.474 3.474 0 1 1-6.487 2.451l-.507-1.347zm25.821 42.284l-.871-2.3c-1.139-3.014-3.565-2.815-6.2-2.8l-8.753.755 6.913-5.465c2-1.748 4-3.194 2.848-6.237l-.845-2.235-5.006 1.893-13.411 5.039c-.3.112-1.117.432-1.193.8-.1.482 1.036 1.242 1.5 1.538l11.943-4.515-7.424 6.38h-.007a2.141 2.141 0 0 0-1.014 1.57 4.1 4.1 0 0 0 .608 1.678 8.942 8.942 0 0 1 .855 2.068l12.318-1.09-10.306 3.894a1.782 1.782 0 0 0-.91.6 4.092 4.092 0 0 0-.481 2.282c-.015 1.187.028 2.347-.024 3.532l19.461-7.391zm-13.079-34.6l.913 2.417a2.562 2.562 0 0 1-1.5 3.291l-15.477 5.831-.02.011c-1.812 1.011-1.8 3.578-1.15 5.28l.1.268 20.659-7.77.913 2.417a2.563 2.563 0 0 1-1.5 3.291L279.8 487.3a6.791 6.791 0 0 1-1.76-2.446 20.914 20.914 0 0 1-1.582-4.715c-.474-2.233-.878-6.1.978-7.847a3.016 3.016 0 0 1 .945-.6z" class="cls-10" data-name="Path 3709" transform="translate(-238.36 -444.199)"/>
                <path id="Path_3710" d="M286.685 449.161l-7.264 2.746a93.15 93.15 0 0 0 1.025 5.1l5.93-2.242.509 1.347a3.469 3.469 0 0 1-5.75 3.736c.456 1.79.945 3.541 1.439 5.213a4.984 4.984 0 0 0 4.533.092c3.644-1.354 3.65-5.219 2.468-8.341l-2.891-7.65zM300 501.665a21.282 21.282 0 0 1-3.681-4.464l1.654-.623-1.946.171a48.65 48.65 0 0 1-1.231-2.023l3.843-.331c2.639-.02 5.065-.219 6.2 2.8l.871 2.3-5.71 2.17zm-6.537-9.343l-.118-.219a147.2 147.2 0 0 1-2.389-4.688l1.681-1.446-2.009.761a92.05 92.05 0 0 1-.952-2.077l4.118-1.547 5.006-1.893.845 2.235c1.15 3.043-.847 4.489-2.848 6.237l-3.335 2.637zm-4.708-9.817l6.82-2.571a2.563 2.563 0 0 0 1.5-3.291l-.913-2.417-9.3 3.5c.693 1.819 1.31 3.378 1.9 4.782zm-3.554-9.319a175.14 175.14 0 0 1-1.626-4.873l9.06-3.414.913 2.417a2.562 2.562 0 0 1-1.5 3.291z" class="cls-14" data-name="Path 3710" transform="translate(-234.605 -444.199)"/>
                <g id="Group_366" data-name="Group 366" transform="translate(2.614 6.177)">
                    <path id="Path_3711" d="M274.779 449.822h10.162c2.26 0 3.462 1.871 3.462 3.94v4.954a3.817 3.817 0 0 1-.614 2.321c-.345 8.644 2.885 18.094 2.069 26.834-.292 3.128 14.887 2.03 13.121 18.72-.244 2.327-.952 2.091-2.622 2.349.077-.742.151-1.615.222-2.332 1.364-13.784-13.117-15.146-12.963-18.182.377-7.452-1.465-13.784-1.49-20.418-.031-1.084-.057-6.891-.05-7.974a1.519 1.519 0 0 0 .752-1.318v-4.954c0-1-.656-.926-.647-1.555.013-.766-.478-1.1-1.24-1.1h-10.162c-.761 0-1.253.331-1.24 1.1.009.629-.647.559-.647 1.555v4.954a1.519 1.519 0 0 0 .752 1.318c.007 1.082-.017 6.889-.05 7.974-.024 6.634-1.867 12.967-1.488 20.418.152 3.036-14.328 4.4-12.963 18.182 1.121 11.329 2.922 25.917 4.256 37.887q.063.552.123 1.1c.066.6-.713.548-1.283.833-1.913.955-1.386 3.547 3.6 3.547h24.812c.408 2.137.011 2.328-1.516 2.328h-26.19c-4.269 0-5.741-4.515-2-7.792a.974.974 0 0 0 .469-.959c-1.514-11.118-3.19-24.965-4.7-36.081-2.4-17.605 13.455-16.416 13.158-19.6-.816-8.74 2.415-18.189 2.069-26.834a3.816 3.816 0 0 1-.612-2.321v-4.954c-.01-2.069 1.19-3.94 3.45-3.94z" class="cls-33" data-name="Path 3711" transform="translate(-256.456 -449.822)"/>
                    <g id="Group_351" data-name="Group 351" transform="translate(3.637 18.287)">
                        <path id="Path_3712" d="M258.486 497.93c1.033 13.112 2.915 26.145 4.374 39.216a1.438 1.438 0 0 1-.243 1c-.391.555-.906.594-1.474.8a1.13 1.13 0 0 0-.114.046c-.16.081-.452.274-.47.478-.02.228.351.485.509.577a6.774 6.774 0 0 0 3.117.6H288.8l-1.115-19.643c-.044-.07-.112-.153-.154-.208a1.925 1.925 0 0 1-.5-1.042q-.5-7.677-1.007-15.352c-.129-1.953.91-3.7 3.019-3.7l8.339-.147h.015c.1 0 .209 0 .312-.005q.113-1.3.215-2.6c.415-5.254-1.731-9.394-6.108-12.43a44.573 44.573 0 0 0-4.171-2.406c-1.022-.559-2.413-1.327-2.648-2.578a1.991 1.991 0 0 1-.033-.478 53.319 53.319 0 0 0-.4-8.83c-.327-2.825-.755-5.64-.963-8.477a44.233 44.233 0 0 1-.123-2.959h-10.541a44.292 44.292 0 0 1-.123 2.959c-.208 2.837-.636 5.653-.961 8.477a53.116 53.116 0 0 0-.406 8.83 1.982 1.982 0 0 1-.031.478c-.237 1.251-1.626 2.019-2.65 2.578a44.851 44.851 0 0 0-4.172 2.406c-4.377 3.016-6.522 7.157-6.108 12.41z" class="cls-34" data-name="Path 3712" transform="translate(-258.436 -459.773)"/>
                        <path id="Path_3713" d="M259.03 497.877c1.046 13.092 2.913 26.1 4.368 39.157a2.431 2.431 0 0 1-.419 1.683 2.22 2.22 0 0 1-.888.779 9.07 9.07 0 0 0 1.636.136h24.555l-.206-3.639c-.279 1.031-.856 1.336-2.35.726a19.449 19.449 0 0 0-15.668 0c-2.189.873-2.077-.175-2.271-2.6-1.042-13.053-2.282-23.179-3.126-36.245-1.161-18.026 27.949-18.254 26.795 0q-.088 1.4-.184 2.76l4.965-.088q.116-1.334.224-2.672c.39-4.877-1.575-8.709-5.677-11.553a44.731 44.731 0 0 0-4.083-2.351c-1.34-.733-2.843-1.637-3.152-3.269a3.114 3.114 0 0 1-.05-.717 52.315 52.315 0 0 0-.4-8.663c-.458-3.966-.95-7.551-1.073-11.552h-8.564c-.125 4-.617 7.586-1.075 11.552a52.488 52.488 0 0 0-.4 8.663 3.021 3.021 0 0 1-.05.717c-.309 1.632-1.812 2.536-3.152 3.269a44.473 44.473 0 0 0-4.081 2.351c-4.104 2.848-6.062 6.679-5.674 11.556z" class="cls-35" data-name="Path 3713" transform="translate(-257.978 -459.773)"/>
                    </g>
                    <g id="Group_352" data-name="Group 352" transform="translate(18.126 18.287)">
                        <path id="Path_3714" d="M276.879 460.609a33.47 33.47 0 0 1-.015-.836h-10.531c0 .279-.006.557-.013.836z" class="cls-35" data-name="Path 3714" transform="translate(-266.32 -459.773)"/>
                        <path id="Path_3715" d="M275.473 460.609a37.97 37.97 0 0 1-.031-.836h-8.564c-.009.281-.02.559-.033.836z" class="cls-36" data-name="Path 3715" transform="translate(-265.88 -459.773)"/>
                    </g>
                    <path id="Path_3716" d="M274.744 470.687c-.235-2.839-.542-5.954-.691-8.806-.062-1.167-1.542-1.338-2.96-1.347-1.446-.011-2.834.162-2.9 1.347-.149 2.852-.456 5.967-.691 8.806-.129 1.564-.663 6.594-.028 7.854 1.281 2.541 6.4 2.462 7.413-.057.465-1.153-.021-6.341-.143-7.797z" class="cls-37" data-name="Path 3716" transform="translate(-247.479 -440.849)"/>
                    <path id="Path_3717" d="M276.246 502.715c.04-.5-2.257-1.36-4.976-1.36s-4.829.86-4.872 1.36c-.035.415 9.813.419 9.848 0z" class="cls-36" data-name="Path 3717" transform="translate(-248.129 -406.654)"/>
                    <path id="Path_3718" d="M269.02 462.367a138.312 138.312 0 0 0-.329 4.227c-.11 1.678-.375 3.251-.491 4.93a26 26 0 0 0-.1 2.836c.02.673-.07 1.049-.088 1.652.029 2.027 3.813 3.512 4.552 1.272.792-2.405-.515-6.154-.555-8.757-.017-1.112.013-2.222-.013-3.33-.026-1.081-.16-4.7-1.924-4.128a1.519 1.519 0 0 0-1.052 1.298z" class="cls-38" data-name="Path 3718" transform="translate(-246.781 -440.451)"/>
                    <path id="Path_3719" d="M269.777 464.317c-.046-1.011.537-4.116.97-2.283.559 2.352.261 4.374.52 6.706.165 1.489 1.338 8.361-.366 8.966-1.042.369-.832-3.288-.869-3.622a43.254 43.254 0 0 1-.191-6.068 56.347 56.347 0 0 0-.064-3.699z" class="cls-39" data-name="Path 3719" transform="translate(-245.3 -440.067)"/>
                    <path id="Path_3720" d="M268.375 466.57c-.048 3.1-.906 6.075-.364 9.271a1.95 1.95 0 0 0 1.891 1.648c.832.145.549-.382.171-.9-1.665-2.286-.9-4.815-.842-7.419.029-1.226.476-3.372.384-4.964-.048-.832-.232-1.895-.537-2-.842-.289-.695 3.908-.703 4.364z" class="cls-40" data-name="Path 3720" transform="translate(-246.927 -439.46)"/>
                    <path id="Path_3721" d="M270.085 489.177c-.761-10.058 7.68-14.033 14.878-12.754-7.67-6.724-23.744-3.2-22.875 10.285.843 13.066 2.084 23.192 3.126 36.245.195 2.424.083 3.471 2.271 2.6a19.451 19.451 0 0 1 15.668 0c1.494.61 2.071.305 2.35-.726l-.195-3.409a1.927 1.927 0 0 1-1.626.6c-1.952-.213-2.213-1.652-7.753-1.641s-4.644-6.535-4.765-9.3c-.373-8.538-.381-12.658-1.079-21.9z" class="cls-37" data-name="Path 3721" transform="translate(-251.768 -430.318)"/>
                    <path id="Path_3722" d="M275.686 484.959c.566-7.483-4.087-8.94-7.613-6.856a12.427 12.427 0 0 0-1.626 7.614c.7 9.242.706 13.362 1.079 21.9.09 2.027-.369 6.092 1.569 8.108 2.67 1.062 5.353-3.243 5.588-8.637.37-8.54.304-12.888 1.003-22.129z" class="cls-41" data-name="Path 3722" transform="translate(-248.129 -426.856)"/>
                    <path id="Path_3723" d="M285.428 483.327c.239 5.552-2.319 4.063-2.823 1.773-1.492-6.8-6.654-10.892-14.247-10.964-1.444-.015-1.459-1.024.77-1.242 7.02-.689 15.962 2.562 16.3 10.432zm-9.378 42.357c-2.089-.511-2.183-.935-4.633-.963-.987-.011-3.681-.007-1.161-.715a9.444 9.444 0 0 1 6.04-.248c1.712.384 1.604 2.375-.245 1.926z" class="cls-42" data-name="Path 3723" transform="translate(-247.33 -430.569)"/>
                    <path id="Path_3724" d="M265.42 477.4c-1.884 12.968-.768 25.152.478 39.957.513 6.1-.691 5.963-1.536.412-1.086-7.119-1.88-14.681-2.685-22.118-.638-5.879-1.176-15.53 1.821-19.079 1.112-1.317 2.102-.421 1.922.828z" class="cls-43" data-name="Path 3724" transform="translate(-252.5 -427.958)"/>
                    <path id="Path_3725" d="M277 472.265a1.75 1.75 0 0 0-1.944-.489 9.329 9.329 0 0 1-5.779-.1 2.445 2.445 0 0 0-2.768.755c-1.4 1.261.978.858 1.626.742a25.762 25.762 0 0 1 8.049 0c.989.156 1.716.127.816-.908z" class="cls-36" data-name="Path 3725" transform="translate(-248.4 -431.645)"/>
                    <g id="Group_355" data-name="Group 355" transform="translate(16.805 18.287)">
                        <g id="Group_353" data-name="Group 353">
                            <path id="Path_3726" d="M278.8 473.658a86.11 86.11 0 0 0-.248-2.45c-.327-2.825-.755-5.64-.963-8.477a44.233 44.233 0 0 1-.123-2.959h-10.531a43.632 43.632 0 0 1-.123 2.959c-.208 2.837-.636 5.653-.961 8.477q-.143 1.227-.25 2.45z" class="cls-44" data-name="Path 3726" transform="translate(-265.601 -459.773)"/>
                            <path id="Path_3727" d="M277.338 473.658q-.1-1.169-.239-2.334c-.458-3.966-.95-7.551-1.073-11.552h-8.564c-.125 4-.617 7.586-1.075 11.552q-.135 1.166-.239 2.334z" class="cls-45" data-name="Path 3727" transform="translate(-265.143 -459.773)"/>
                        </g>
                        <g id="Group_354" data-name="Group 354" transform="translate(1.321)">
                            <path id="Path_3728" d="M276.879 460.609a33.47 33.47 0 0 1-.015-.836h-10.531c0 .279-.006.557-.013.836z" class="cls-35" data-name="Path 3728" transform="translate(-266.32 -459.773)"/>
                            <path id="Path_3729" d="M275.473 460.609a37.97 37.97 0 0 1-.031-.836h-8.564c-.009.281-.02.559-.033.836z" class="cls-36" data-name="Path 3729" transform="translate(-265.88 -459.773)"/>
                        </g>
                        <path id="Path_3730" d="M274.682 470.687c-.235-2.839-.542-5.954-.691-8.806-.062-1.167-1.542-1.338-2.96-1.347-1.446-.011-2.834.162-2.9 1.347-.149 2.852-.456 5.967-.691 8.806-.04.5-.125 1.36-.2 2.334h7.624c-.064-.994-.143-1.861-.182-2.334z" class="cls-46" data-name="Path 3730" transform="translate(-264.222 -459.136)"/>
                        <path id="Path_3731" d="M268.965 462.367a138.312 138.312 0 0 0-.329 4.227c-.11 1.678-.375 3.251-.491 4.93-.026.379-.053.741-.074 1.1h4.412a32.254 32.254 0 0 1-.535-4.1c-.017-1.112.013-2.222-.013-3.33-.026-1.081-.16-4.7-1.924-4.128a1.519 1.519 0 0 0-1.046 1.301z" class="cls-44" data-name="Path 3731" transform="translate(-263.531 -458.738)"/>
                        <path id="Path_3732" d="M269.777 464.317c-.046-1.011.537-4.116.97-2.283.559 2.352.261 4.374.52 6.706.064.579.281 1.976.423 3.5h-1.812c-.081-1.393-.066-2.674-.037-4.223a56.366 56.366 0 0 0-.064-3.7z" class="cls-47" data-name="Path 3732" transform="translate(-262.105 -458.354)"/>
                        <path id="Path_3733" d="M268.332 466.57c-.026 1.707-.3 3.376-.447 5.063h1.132c.061-.809.151-1.632.171-2.464.029-1.226.476-3.372.384-4.964-.048-.832-.232-1.895-.537-2-.843-.288-.696 3.909-.703 4.365z" class="cls-48" data-name="Path 3733" transform="translate(-263.688 -457.747)"/>
                    </g>
                    <g id="Group_357" data-name="Group 357" transform="translate(16.805 31.024)">
                        <g id="Group_356" data-name="Group 356">
                            <path id="Path_3734" d="M278.8 467.852q-.05-.573-.106-1.149c-.261.434-.8.412-1.242.412h-10.135c-.878 0-1.318-.109-1.6-.412h-.007c-.039.382-.074.763-.107 1.145z" class="cls-46" data-name="Path 3734" transform="translate(-265.601 -466.704)"/>
                            <path id="Path_3735" d="M277.338 467.677a91.687 91.687 0 0 0-.068-.737h-10.411a5.92 5.92 0 0 1-.639-.028c-.026.255-.048.511-.072.764z" class="cls-49" data-name="Path 3735" transform="translate(-265.143 -466.529)"/>
                        </g>
                        <path id="Path_3736" d="M267.3 466.928c-.018.235-.039.483-.057.737h7.624c-.018-.255-.039-.5-.057-.737z" class="cls-45" data-name="Path 3736" transform="translate(-264.222 -466.516)"/>
                        <path id="Path_3737" d="M268.12 466.928l-.048.737h4.412l-.119-.737z" class="cls-46" data-name="Path 3737" transform="translate(-263.531 -466.516)"/>
                        <path id="Path_3738" d="M271.583 466.928c.026.241.051.487.075.737h-1.812a31.269 31.269 0 0 1-.035-.737z" class="cls-44" data-name="Path 3738" transform="translate(-262.074 -466.516)"/>
                        <path id="Path_3739" d="M267.957 466.928c-.026.246-.05.491-.072.737h1.132c.018-.244.039-.489.061-.737z" class="cls-44" data-name="Path 3739" transform="translate(-263.688 -466.516)"/>
                    </g>
                    <g id="Group_360" data-name="Group 360" transform="translate(17.152 1.862)">
                        <g id="Group_358" data-name="Group 358">
                            <path id="Path_3740" d="M266.623 454.373c-.4 0-.43.313-.428.8l.013 8.683.23.441h10.532l.237-.441c-.015-1.659-.006-7.193.009-8.859 0-.29-.063-.623-.43-.623z" class="cls-50" data-name="Path 3740" transform="translate(-265.451 -447.871)"/>
                            <path id="Path_3741" d="M266.2 459.533l.231.44h10.53l.237-.44z" class="cls-51" data-name="Path 3741" transform="translate(-265.445 -443.548)"/>
                            <path id="Path_3742" d="M266.768 463.653h2.509c-.022-1.507-.063-6.676-.02-8.135.017-.559-1.02-.331-1.356-.331-.3 0-1.167-.171-1.172.29-.018 1.463.072 6.713.04 8.176zm7.273 0h1.709c-.031-1.437.055-6.66.04-8.1 0-.487-.722-.369-1.016-.369-.311 0-.812-.2-.779.351.086 1.348.067 6.891.047 8.118z" class="cls-51" data-name="Path 3742" transform="translate(-265.006 -447.228)"/>
                            <path id="Path_3743" d="M266.374 457.857a.618.618 0 0 1-.584-.643v-4.954a.618.618 0 0 1 .586-.643h11.337a.618.618 0 0 1 .584.643v4.954a.618.618 0 0 1-.584.643z" class="cls-50" data-name="Path 3743" transform="translate(-265.79 -450.181)"/>
                            <path id="Path_3744" d="M271.768 452.981h-5.081a.524.524 0 0 1-.527-.509l-.018-1.128a.519.519 0 0 1 .526-.509h10.166a.523.523 0 0 1 .526.509l.018 1.128a.517.517 0 0 1-.527.509z" class="cls-50" data-name="Path 3744" transform="translate(-265.496 -450.835)"/>
                            <path id="Path_3745" d="M269.413 457.219H266.7c-.252 0-.458-.408-.458-.906v-3.383c0-.5.206-.9.458-.9h2.714c.086 0 .158.14.158.309v4.37h4.747v-4.37c0-.171.07-.309.156-.309h2.159c.252 0 .458.408.458.9v3.383c0 .5-.206.906-.458.906h-7.22z" class="cls-51" data-name="Path 3745" transform="translate(-265.412 -449.837)"/>
                            <path id="Path_3746" d="M266.686 451.116h2.705c.077 0 .14.152.14.342v.176h4.394V451.483c0-.178.064-.322.141-.322h2.077c.077 0 .141.145.141.322v.081c0 .178-.064.322-.141.322h-9.449c-.077 0-.141-.153-.141-.342v-.086c-.008-.19.056-.342.133-.342z" class="cls-51" data-name="Path 3746" transform="translate(-265.158 -450.6)"/>
                            <path id="Path_3747" d="M268.626 452.091h3.2c.084 0 .154.1.154.213v3.67c0 .118-.07.215-.154.215h-3.2c-.086 0-.156-.1-.156-.215V452.3c0-.114.07-.209.156-.209z" class="cls-52" data-name="Path 3747" transform="translate(-263.545 -449.783)"/>
                            <path id="Path_3748" d="M268.685 450.995h2.872c.079 0 .142.084.142.189v.048c0 .1-.062.188-.142.188h-2.872c-.077 0-.14-.085-.14-.188v-.048c0-.105.062-.189.14-.189z" class="cls-52" data-name="Path 3748" transform="translate(-263.482 -450.701)"/>
                            <path id="Path_3749" d="M269.076 455.244h2.132c.224 0 .454.066.454.391v6.689c0 .437-.294.39-.388.39h-2.33c-.085 0-.318.029-.318-.39v-6.689c0-.319.226-.391.45-.391z" class="cls-52" data-name="Path 3749" transform="translate(-263.414 -447.142)"/>
                        </g>
                        <g id="Group_359" data-name="Group 359" transform="translate(.749 10.877)">
                            <path id="Path_3750" d="M266.2 456.754v1.754h11v-1.754z" class="cls-53" data-name="Path 3750" transform="translate(-266.198 -456.754)"/>
                            <path id="Path_3751" d="M269.238 458.507c0-.592-.005-1.191-.005-1.753h-2.5l.017 1.753zm4.807-1.753h1.727l-.017 1.753h-1.7l-.01-1.753z" class="cls-54" data-name="Path 3751" transform="translate(-265.749 -456.753)"/>
                            <path id="Rectangle_31" d="M0 0h3.037v1.754H0z" class="cls-55" data-name="Rectangle 31" transform="translate(4.462)"/>
                        </g>
                    </g>
                    <g id="Group_361" data-name="Group 361" transform="translate(7.744 48.676)">
                        <path id="Path_3752" d="M264.084 499.878h20.676l-.612-9.341c-.129-1.953.91-3.7 3.019-3.7l4.342-.077.408-4.37c.062-.658.491-1.924-1.753-3.271-6.23-3.74-21.438-3.74-27.668 0-2.244 1.347-1.816 2.613-1.753 3.271L262.2 498a1.957 1.957 0 0 0 1.884 1.878z" class="cls-50" data-name="Path 3752" transform="translate(-260.67 -476.31)"/>
                        <path id="Path_3753" d="M264.084 498.95h.437c-.467-5.05-.91-10.173-1.275-15.854a13.494 13.494 0 0 1 .775-5.678 12.284 12.284 0 0 0-1.525.768c-2.244 1.347-1.816 2.613-1.753 3.271l1.457 15.611a1.957 1.957 0 0 0 1.884 1.882zm27.425-13.123l.408-4.37c.062-.658.491-1.924-1.753-3.271q-.356-.212-.75-.41a13.922 13.922 0 0 1 .627 5.32q-.088 1.4-.184 2.76z" class="cls-56" data-name="Path 3753" transform="translate(-260.67 -475.381)"/>
                    </g>
                    <g id="Group_362" data-name="Group 362" transform="translate(33.467 49.926)">
                        <path id="Path_3754" d="M279.244 479.114a5.964 5.964 0 0 0-.8-.57 15.956 15.956 0 0 0-3.771-1.555 14.947 14.947 0 0 1 1.808 4.605c.5 2.29 3.062 3.778 2.823-1.773-.016-.24-.035-.475-.06-.707z" class="cls-57" data-name="Path 3754" transform="translate(-274.668 -476.99)"/>
                        <path id="Path_3755" d="M277.922 479.3c.11 2.582-.382 3.641-.994 3.8l.011-.171a13.919 13.919 0 0 0-.627-5.32q.394.2.75.41a5.971 5.971 0 0 1 .8.57c.03.235.049.47.06.711z" class="cls-57" data-name="Path 3755" transform="translate(-273.291 -476.468)"/>
                    </g>
                    <path id="Path_3756" d="M270.085 486.485c-.355-4.675 1.281-8.036 3.855-10.166a31.872 31.872 0 0 0-11.083 2.021 13.546 13.546 0 0 0-.77 5.677c.366 5.68.809 10.8 1.275 15.854h7.47a326.84 326.84 0 0 0-.747-13.386z" class="cls-58" data-name="Path 3756" transform="translate(-251.768 -427.626)"/>
                    <path id="Path_3757" d="M275.686 484.959c.566-7.483-4.087-8.94-7.613-6.856a12.427 12.427 0 0 0-1.626 7.614c.426 5.649.6 9.385.748 13.386h7.775c.13-4.303.267-8.216.716-14.144z" class="cls-59" data-name="Path 3757" transform="translate(-248.129 -426.856)"/>
                    <path id="Path_3758" d="M265.33 477.073a117.146 117.146 0 0 0-.7 22.166h-.97a1.824 1.824 0 0 1-1.591-.952l-.39-3.6c-.507-4.673-.952-11.73.393-16.21a15.222 15.222 0 0 1 3.258-1.404z" class="cls-52" data-name="Path 3758" transform="translate(-252.5 -426.994)"/>
                    <path id="Path_3759" d="M263.431 497.793h20.582l-.094-1.417-19.891.364-1.071-15.049c-.037-.38-.017-.549.36-.775 5.311-3.186 19.24-3.453 24.551-.265a.622.622 0 0 1 .366.757l-.224 4.745 1.408-.026.423-4.53a2.6 2.6 0 0 0 .039-.842c-.125-.43-.752-.856-1.1-1.068-5.77-3.464-20.424-3.464-26.194 0-.353.211-.979.638-1.1 1.068a2.6 2.6 0 0 0 .039.842l1.459 15.611c.016.249.155.585.447.585z" class="cls-60" data-name="Path 3759" transform="translate(-252.274 -426.98)"/>
                    <path id="Path_3760" d="M278.181 482.644l.167-1.783a2.6 2.6 0 0 0 .039-.842c-.125-.43-.752-.856-1.1-1.068a12.338 12.338 0 0 0-2.113-.983 15.059 15.059 0 0 1 .577 1.6c.22.11.432.222.63.342a.622.622 0 0 1 .366.757l-.07 1.481c.451.614 1.045.895 1.504.496z" class="cls-61" data-name="Path 3760" transform="translate(-240.781 -426.244)"/>
                    <path id="Path_3761" d="M271.5 478.555a10.427 10.427 0 0 1 .961-1.419c-4 .244-7.74 1.033-10.127 2.367a14.413 14.413 0 0 0-.243 3.83c.331 5.144.726 9.832 1.145 14.422h7.545l-.05-1.183-7.206.13-1.071-15.049c-.037-.38-.016-.549.36-.775a22.279 22.279 0 0 1 8.686-2.323z" class="cls-54" data-name="Path 3761" transform="translate(-251.767 -426.942)"/>
                    <path id="Path_3762" d="M273.557 478.3c-1.566-1.424-3.854-1.352-5.8-.2a9.892 9.892 0 0 0-.215.368 43.153 43.153 0 0 1 6.015-.165zm-6.783 18.182l.05 1.183h7.876l.044-1.33z" class="cls-62" data-name="Path 3762" transform="translate(-247.814 -426.857)"/>
                    <path id="Path_3763" d="M264.9 477.928q-.1.8-.178 1.588a10.8 10.8 0 0 0-1.406.7c-.377.226-.4.4-.36.776l1.071 15.049h.265l.042 1.057h-.9c-.292 0-.436-.336-.458-.584l-1.461-15.614a2.6 2.6 0 0 1-.039-.842c.125-.43.752-.856 1.1-1.068a12.775 12.775 0 0 1 2.324-1.062z" class="cls-62" data-name="Path 3763" transform="translate(-252.274 -426.278)"/>
                    <g id="Group_363" data-name="Group 363" transform="translate(13.992 55.868)">
                        <path id="Path_3764" d="M274.046 488.045a.261.261 0 0 1 .208-.316.281.281 0 0 1 .336.195.91.91 0 0 0 .336.518 1.02 1.02 0 0 0 .435.184 1.307 1.307 0 0 0 .513-.015 1.332 1.332 0 0 0 .724-.43 4.378 4.378 0 0 0 .542-2.845 9.636 9.636 0 0 0-.968-3.826l-.167-.3.345-.083a2 2 0 0 1 .7-.048 1.844 1.844 0 0 1 1.275.775 4.435 4.435 0 0 1 .687 1.525 12.54 12.54 0 0 1 .327 3.651 11.726 11.726 0 0 0 .41-2.751c.11-1.424.219-2.812.816-3.323.318-.274.571-.246.774-.037a2.727 2.727 0 0 1 .307 1.509c0 .1.005.189.011.266.035.517.041 1.154.048 1.788 0 .2 0 .4.007.6a4.01 4.01 0 0 0-.424 1.882 14.7 14.7 0 0 1-.141-2.474 32.665 32.665 0 0 0-.048-1.759c0-.064-.007-.169-.011-.287a2.9 2.9 0 0 0-.162-1.169c-.028-.029.037.053.015.072-.43.369-.531 1.654-.634 2.972-.131 1.676-.265 3.405-1.207 3.8l-.45.187.059-.458a12.431 12.431 0 0 0-.237-4.339 3.953 3.953 0 0 0-.6-1.347 1.3 1.3 0 0 0-.886-.559.94.94 0 0 0-.145-.007 10.845 10.845 0 0 1 .862 3.71 4.819 4.819 0 0 1-.661 3.2 1.919 1.919 0 0 1-1.781.632 1.613 1.613 0 0 1-.68-.287 1.421 1.421 0 0 1-.533-.809zm-3.431-6.77c.551-.051.794.132.88.417a3.323 3.323 0 0 1-.044 1.341c-.413 2.508-.274 3.971.142 4.655a1.017 1.017 0 0 0 .965.549 1.849 1.849 0 0 0 1.071-.527 4.653 4.653 0 0 0 .722-.836 2.369 2.369 0 0 0 .175.38.908.908 0 0 0 .923.527 1.4 1.4 0 0 0 .695-.334 1.064 1.064 0 0 0 .454-1.077.781.781 0 0 0-.178-.342.773.773 0 0 0-.329-.219.839.839 0 0 0-.867.222.249.249 0 0 0 0 .37.293.293 0 0 0 .4 0 .294.294 0 0 1 .285-.1.232.232 0 0 1 .088.061.3.3 0 0 1 .062.125.58.58 0 0 1-.274.564.869.869 0 0 1-.4.211c-.134.016-.254-.085-.358-.261a2.756 2.756 0 0 1-.27-.768 9.626 9.626 0 0 0 1.088-3.438 2.548 2.548 0 0 0-.292-1.705.744.744 0 0 0-.366-.287.571.571 0 0 0-.5.062 1.5 1.5 0 0 0-.535.967 14.892 14.892 0 0 0 0 4.21l.02.112a4.857 4.857 0 0 1-.919 1.176 1.315 1.315 0 0 1-.719.382.492.492 0 0 1-.447-.285c-.36-.592-.467-1.939-.075-4.315a3.7 3.7 0 0 0 .028-1.566c-.162-.533-.571-.882-1.474-.8a.268.268 0 0 0-.25.287.277.277 0 0 0 .3.235zm3.991 4a9.277 9.277 0 0 0 .673-2.53 2.068 2.068 0 0 0-.2-1.354.257.257 0 0 0-.088-.088v.006c-.1.064-.21.268-.3.645a14.5 14.5 0 0 0-.085 3.322zm-8.043-3.751a.292.292 0 0 1-.393-.029.251.251 0 0 1 .029-.369 2.924 2.924 0 0 1 2.85-.774 2.07 2.07 0 0 1 1.156 1.123 2.807 2.807 0 0 1 .176 1.687 3.051 3.051 0 0 1-1.022 1.726c.022.018.042.039.062.059a1.726 1.726 0 0 1 .121.136 2.107 2.107 0 0 1 .167 1.5 2.723 2.723 0 0 0 .369 2.174.609.609 0 0 0 .634.23.646.646 0 0 0 .355-.283.45.45 0 0 0 .062-.386c-.055-.158-.246-.3-.634-.347a.266.266 0 0 1-.239-.3.277.277 0 0 1 .316-.222 1.2 1.2 0 0 1 1.09.7.956.956 0 0 1-.109.809 1.223 1.223 0 0 1-.669.526 1.159 1.159 0 0 1-1.229-.386 3.1 3.1 0 0 1-.5-2.565 1.956 1.956 0 0 0-.057-1.139 1.087 1.087 0 0 0-.079-.088 1.47 1.47 0 0 0-.112-.1 4.31 4.31 0 0 1-1.327.518 6.664 6.664 0 0 1-.79.13l-.007.092a5.763 5.763 0 0 1-1.068 2.988.289.289 0 0 1-.39.062.251.251 0 0 1-.066-.366 5.277 5.277 0 0 0 .965-2.727v-.028a2.076 2.076 0 0 1-.388-.046.872.872 0 0 1-.428-.215.464.464 0 0 1-.132-.454 1.009 1.009 0 0 1 .338-.5.773.773 0 0 1 .085-.068 1.7 1.7 0 0 1 .515-.222 8.217 8.217 0 0 0-.408-1.92c-.187-.529-.47-.777-.724-.833a.414.414 0 0 0-.257.02.309.309 0 0 0-.16.149.672.672 0 0 0 .173.685.252.252 0 0 1-.064.366.291.291 0 0 1-.39-.061 1.133 1.133 0 0 1-.222-1.213.858.858 0 0 1 .43-.4 1.013 1.013 0 0 1 .617-.055 1.653 1.653 0 0 1 1.13 1.182 8.794 8.794 0 0 1 .43 1.983 4.666 4.666 0 0 1 .722-.018 3.8 3.8 0 0 1 1.386.32 2.552 2.552 0 0 0 .954-1.514 2.3 2.3 0 0 0-.142-1.387 1.537 1.537 0 0 0-.847-.84 2.387 2.387 0 0 0-2.28.685zm.891 3.7a4.013 4.013 0 0 0 .862-.292 3.524 3.524 0 0 0-.855-.143 4.025 4.025 0 0 0-.654.015c.009.176.011.353.009.533.191-.024.4-.061.638-.112zm-1.2-.3a.919.919 0 0 0-.213.1l-.035.029a.573.573 0 0 0-.178.22.377.377 0 0 0 .147.055 1.472 1.472 0 0 0 .283.035c0-.153 0-.302-.005-.449z" class="cls-63" data-name="Path 3764" transform="translate(-264.071 -480.223)"/>
                        <path id="Path_3765" d="M268.4 480.75c.015-.177.031-.351.052-.524a3.39 3.39 0 0 0-2.251.9.251.251 0 0 0-.029.369.292.292 0 0 0 .393.029 2.855 2.855 0 0 1 1.836-.772zm.156 4.651a4.557 4.557 0 0 1-.974.327 6.65 6.65 0 0 1-.79.13l-.007.092a5.763 5.763 0 0 1-1.068 2.988.29.29 0 0 1-.39.062.251.251 0 0 1-.066-.366 5.277 5.277 0 0 0 .965-2.727v-.027a2.091 2.091 0 0 1-.388-.046.873.873 0 0 1-.428-.215.464.464 0 0 1-.132-.454 1.009 1.009 0 0 1 .338-.5.767.767 0 0 1 .085-.068 1.7 1.7 0 0 1 .515-.222 8.219 8.219 0 0 0-.408-1.92c-.187-.529-.47-.777-.724-.832a.413.413 0 0 0-.257.02.309.309 0 0 0-.16.149.672.672 0 0 0 .173.685.252.252 0 0 1-.064.366.291.291 0 0 1-.39-.061 1.133 1.133 0 0 1-.222-1.213.858.858 0 0 1 .43-.4 1.015 1.015 0 0 1 .617-.055 1.654 1.654 0 0 1 1.13 1.182 8.8 8.8 0 0 1 .43 1.983 4.674 4.674 0 0 1 .722-.018 4.192 4.192 0 0 1 .992.169c.024.331.046.656.07.974zm-1.1-.184a4.016 4.016 0 0 0 .862-.292 3.513 3.513 0 0 0-.855-.143 4.012 4.012 0 0 0-.654.015c.009.176.011.353.009.533.191-.024.4-.061.638-.112zm-1.2-.3a.924.924 0 0 0-.213.1l-.035.029a.574.574 0 0 0-.178.221.375.375 0 0 0 .147.055 1.457 1.457 0 0 0 .283.035c-.002-.147-.002-.296-.007-.443z" class="cls-42" data-name="Path 3765" transform="translate(-264.071 -480.223)"/>
                        <path id="Path_3766" d="M275.694 481.934c.009-.222.015-.439.015-.651a1.67 1.67 0 0 0-.63-.2 2 2 0 0 0-.7.048l-.345.083.167.3a9.64 9.64 0 0 1 .968 3.826 4.378 4.378 0 0 1-.542 2.845 1.335 1.335 0 0 1-.724.43 1.306 1.306 0 0 1-.513.015 1.023 1.023 0 0 1-.436-.184.911.911 0 0 1-.336-.518.282.282 0 0 0-.336-.195.261.261 0 0 0-.208.316 1.42 1.42 0 0 0 .533.808 1.611 1.611 0 0 0 .68.287 1.919 1.919 0 0 0 1.781-.632 1.965 1.965 0 0 0 .219-.324c.073-1.325.162-2.74.272-4.293a9.631 9.631 0 0 0-.691-2.294.932.932 0 0 1 .145.007 1.186 1.186 0 0 1 .682.329zm-9.216-1.709c-.022.173-.039.347-.053.524a1.38 1.38 0 0 1 .447.086 1.537 1.537 0 0 1 .847.84 2.3 2.3 0 0 1 .142 1.387 2.553 2.553 0 0 1-.954 1.514 3.032 3.032 0 0 0-.393-.151c.024.331.046.656.07.974a3.8 3.8 0 0 0 .353-.191 1.449 1.449 0 0 1 .112.1 1.048 1.048 0 0 1 .079.088 1.956 1.956 0 0 1 .057 1.139 3.1 3.1 0 0 0 .5 2.565 1.16 1.16 0 0 0 1.229.386 1.223 1.223 0 0 0 .669-.526.955.955 0 0 0 .109-.809 1.2 1.2 0 0 0-1.09-.7.277.277 0 0 0-.316.222.266.266 0 0 0 .239.3c.388.051.579.189.634.347a.45.45 0 0 1-.062.386.646.646 0 0 1-.355.283.609.609 0 0 1-.634-.23 2.723 2.723 0 0 1-.369-2.174 2.108 2.108 0 0 0-.167-1.5 1.725 1.725 0 0 0-.121-.136c-.02-.02-.04-.04-.063-.059a3.052 3.052 0 0 0 1.022-1.726 2.807 2.807 0 0 0-.176-1.687 2.07 2.07 0 0 0-1.156-1.123 2.044 2.044 0 0 0-.6-.123zm2.165 1.049a.277.277 0 0 1-.305-.235.268.268 0 0 1 .25-.287c.9-.084 1.312.265 1.474.8a3.7 3.7 0 0 1-.028 1.566c-.391 2.376-.285 3.723.075 4.315a.492.492 0 0 0 .447.285 1.315 1.315 0 0 0 .719-.382 4.861 4.861 0 0 0 .919-1.176l-.02-.112a14.887 14.887 0 0 1 0-4.21 1.5 1.5 0 0 1 .535-.967.571.571 0 0 1 .5-.062.744.744 0 0 1 .366.287 2.548 2.548 0 0 1 .292 1.705 9.627 9.627 0 0 1-1.088 3.438 2.753 2.753 0 0 0 .27.768c.1.177.224.278.358.261a.867.867 0 0 0 .4-.211.581.581 0 0 0 .274-.564.3.3 0 0 0-.062-.125.232.232 0 0 0-.088-.061.294.294 0 0 0-.285.1.293.293 0 0 1-.4 0 .249.249 0 0 1 0-.369.839.839 0 0 1 .867-.222.775.775 0 0 1 .329.219.783.783 0 0 1 .178.342 1.064 1.064 0 0 1-.454 1.077 1.4 1.4 0 0 1-.695.334.908.908 0 0 1-.922-.527 2.356 2.356 0 0 1-.175-.38 4.651 4.651 0 0 1-.722.836 1.847 1.847 0 0 1-1.071.527 1.017 1.017 0 0 1-.965-.549c-.415-.684-.555-2.146-.142-4.655a3.323 3.323 0 0 0 .044-1.342c-.086-.285-.329-.469-.88-.417zm3.991 4a14.51 14.51 0 0 1 .085-3.323c.09-.377.2-.581.3-.645v-.006a.255.255 0 0 1 .088.088 2.067 2.067 0 0 1 .2 1.354 9.276 9.276 0 0 1-.673 2.529z" class="cls-64" data-name="Path 3766" transform="translate(-262.098 -480.222)"/>
                    </g>
                    <g id="Group_364" data-name="Group 364" transform="translate(16.397 53.38)">
                        <path id="Path_3767" d="M265.379 479.747c4.467 2.567 10.107-1.025 13.029 1.829-.54-5.64-8.584-.5-13.029-1.829zm14.014 12.348c-4.506-2.218-9.922 1.788-13.332-1.678.171 6.452 8.887.465 13.332 1.678z" class="cls-57" data-name="Path 3767" transform="translate(-265.379 -478.869)"/>
                        <path id="Path_3768" d="M267.483 480.133q.052-.289.121-.568a6.806 6.806 0 0 1-2.225-.219 7.043 7.043 0 0 0 2.1.786zm.379 12.789a392.88 392.88 0 0 0-.092-1.784 4.669 4.669 0 0 1-1.709-1.121c.046 1.767.739 2.6 1.801 2.905z" class="cls-52" data-name="Path 3768" transform="translate(-265.379 -478.469)"/>
                        <path id="Path_3769" d="M275.494 480.556a8.02 8.02 0 0 0-.426-1.637c-2.224-.307-5.6.923-8.424 1.047q-.066.278-.121.568c3.106.649 6.463-.531 8.971.022zm-8.683 10.982c.033.608.062 1.2.092 1.784 1.979.566 5.263-.7 8.163-1.2l.033-.739c-2.899-.016-5.88 1.059-8.288.155z" class="cls-65" data-name="Path 3769" transform="translate(-264.421 -478.869)"/>
                    </g>
                    <path id="Path_3770" d="M273.478 485.828c.368 3.99.461 7.189.781 12.066a1.932 1.932 0 0 0 .5 1.04 2.56 2.56 0 0 1 .154.208l1.084 19.1c-2.773-2.39-3.905-10.349-2.519-32.414z" class="cls-37" data-name="Path 3770" transform="translate(-242.694 -419.66)"/>
                    <g id="Group_365" data-name="Group 365" transform="translate(30.192 66.168)">
                        <path id="Path_3771" d="M273.478 485.828c.368 3.99.461 7.189.781 12.066a1.932 1.932 0 0 0 .5 1.04 2.56 2.56 0 0 1 .154.208l1.084 19.1c-2.773-2.39-3.905-10.349-2.519-32.414z" class="cls-37" data-name="Path 3771" transform="translate(-272.886 -485.828)"/>
                        <path id="Path_3772" d="M275.253 501.841l.154 2.709H275a7.873 7.873 0 0 1-1.441-2.894 2.1 2.1 0 0 0 1.694.185z" class="cls-36" data-name="Path 3772" transform="translate(-272.321 -472.57)"/>
                    </g>
                    <path id="Path_3773" d="M273.361 485.828c.195 2.126.314 4.028.43 6.077h-.766c.088-1.896.2-3.918.336-6.077z" class="cls-56" data-name="Path 3773" transform="translate(-242.577 -419.66)"/>
                    <path id="Path_3774" d="M273.585 487.591c.033.469.063.935.09 1.406h-.612l.075-1.4z" class="cls-66" data-name="Path 3774" transform="translate(-242.546 -418.184)"/>
                    <path id="Path_3775" d="M275.386 499.73l.22 3.888a2.1 2.1 0 0 1-1.692-.185 23.912 23.912 0 0 1-.775-3.9 4.2 4.2 0 0 0 1.257.349 1.854 1.854 0 0 0 .99-.152z" class="cls-35" data-name="Path 3775" transform="translate(-242.482 -408.18)"/>
                </g>
                <ellipse id="Ellipse_7" cx="18.727" cy=".846" class="cls-67" data-name="Ellipse 7" rx="18.727" ry=".846" transform="translate(0 107.592)"/>
                <path id="Path_3776" d="M294.092 506.9c10.342 0 18.728-.379 18.728-.845s-8.385-.845-18.728-.845-18.728.378-18.728.845 8.385.845 18.728.845z" class="cls-5" data-name="Path 3776" transform="translate(-238.004 -397.246)"/>
            </g>
        </g>
    </g>
</svg>
