<svg xmlns="http://www.w3.org/2000/svg" width="153.5" height="127.497" viewBox="0 0 153.5 127.497">
    <defs>
        <style>
            .cls-1{fill:#3b1008}.cls-2{fill:#c29968}.cls-3{fill:#803a17}.cls-4{fill:#542c14}.cls-10,.cls-11,.cls-12,.cls-13,.cls-14,.cls-15,.cls-16,.cls-17,.cls-18,.cls-19,.cls-20,.cls-21,.cls-22,.cls-23,.cls-24,.cls-25,.cls-26,.cls-27,.cls-28,.cls-29,.cls-30,.cls-31,.cls-32,.cls-33,.cls-34,.cls-35,.cls-36,.cls-37,.cls-38,.cls-39,.cls-4,.cls-40,.cls-41,.cls-42,.cls-43,.cls-5,.cls-6,.cls-7,.cls-8,.cls-9{fill-rule:evenodd}.cls-5{fill:#f9140d}.cls-6{fill:#890701}.cls-7{fill:#550806}.cls-8{fill:#f97180}.cls-9{fill:#dbcca9}.cls-10{fill:#a58e6a}.cls-11{fill:#715a44}.cls-12{fill:#f9f6e8}.cls-13{fill:#460907}.cls-14{fill:#fc1814}.cls-15{fill:#967e60}.cls-16{fill:#fa383f}.cls-17{fill:#f97785}.cls-18,.cls-44{fill:#820a08}.cls-19{fill:#201d1f}.cls-20{fill:#250e10}.cls-21{fill:#4c4749}.cls-22{fill:#161416}.cls-23{fill:#666263}.cls-24{fill:#d60e07}.cls-25{fill:#fb3334}.cls-26{fill:#f2566c}.cls-27{fill:#f96778}.cls-28{fill:#fd1e1b}.cls-29{fill:#fa4147}.cls-30{fill:#2a2629}.cls-31{fill:#1b181a}.cls-32{fill:#403b3e}.cls-33{fill:#af9971}.cls-34{fill:#9a8059}.cls-35{fill:#f7eed3}.cls-36{fill:#cfc09f}.cls-37{fill:#7b654c}.cls-38{fill:#bdac8a}.cls-39{fill:#e2d3ae}.cls-40{fill:#fff}.cls-41{fill:#f7eed6}.cls-42{fill:#877156}.cls-43{fill:#564230}
        </style>
    </defs>
    <g id="Group_3441" data-name="Group 3441" transform="translate(-999.994 -1010.859)">
        <g id="Group_164" data-name="Group 164" transform="translate(1037.715 1010.859)">
            <g id="Group_163" data-name="Group 163">
                <path id="Path_1427" d="M391 487.829a45.089 45.089 0 0 0 9.319.86 44.521 44.521 0 0 0 9.335-.86c3-.669 6.066-1.672 8.165-3.8a47.354 47.354 0 0 0 9.96-15.815 85.617 85.617 0 0 0 4.879-18.276.265.265 0 0 0 .017-.112 3.976 3.976 0 0 1-.73.73 10.236 10.236 0 0 1-1.887 1.1 28.308 28.308 0 0 1-4.074 1.45 72.423 72.423 0 0 1-8.468 1.674 132.876 132.876 0 0 1-34.363 0c-2.235-.327-4.471-.715-6.676-1.226.108 1.735 1.446 21.113 11.6 33.481.959.315 1.948.574 2.923.794z" class="cls-1" data-name="Path 1427" transform="translate(-344.466 -424.956)"/>
                <path id="Path_1428" d="M407.148 445.842a2.065 2.065 0 0 1 .213.228 1.353 1.353 0 0 0-.213-.228z" class="cls-2" data-name="Path 1428" transform="translate(-318.773 -428.293)"/>
                <path id="Path_1429" d="M407.443 446.235a1.376 1.376 0 0 0-.121-.191 1.376 1.376 0 0 1 .121.191z" class="cls-2" data-name="Path 1429" transform="translate(-318.627 -428.124)"/>
                <path id="Path_1430" d="M376.436 452.641c2.172.38 4.346.685 6.551.9a195.454 195.454 0 0 0 34.622 0 77.3 77.3 0 0 0 8.56-1.248 30.3 30.3 0 0 0 4.168-1.108 10.8 10.8 0 0 0 1.929-.921 2.394 2.394 0 0 0 1.231-1.476 3.613 3.613 0 0 0-.015-.4c-.029-.061-.029-.138-.061-.2 0-.031-.017-.053-.017-.085a2.957 2.957 0 0 0-1.11-1.132 9.945 9.945 0 0 0-1.93-.959 28.788 28.788 0 0 0-4.168-1.193 62.057 62.057 0 0 0-4.089-.768 56.025 56.025 0 0 1-6.9 1.505 91.525 91.525 0 0 1-11.814 1.049 88.318 88.318 0 0 1-11.844-.546c-.867-.1-1.718-.221-2.586-.358-8.956 3.072-11.783 5.951-12.527 6.94z" class="cls-2" data-name="Path 1430" transform="translate(-344.499 -429.794)"/>
                <path id="Path_1431" d="M395.689 445.063q5.86-.1 11.708-.57c1.049-.092 2.1-.191 3.163-.305-.2-.015-.4-.046-.579-.068a157.151 157.151 0 0 0-17.348-.851h-.092c-2.584.57-4.894 1.163-6.963 1.755 3.374.107 6.737.131 10.111.039z" class="cls-2" data-name="Path 1431" transform="translate(-336.841 -430.449)"/>
                <path id="Path_1432" d="M407.492 446.719a.265.265 0 0 1-.029.145.056.056 0 0 0 .013-.031.313.313 0 0 0 .016-.114z" class="cls-2" data-name="Path 1432" transform="translate(-318.509 -427.559)"/>
                <path id="Path_1433" d="M474.83 463.921a17.5 17.5 0 0 0-6.888-14.316 16.97 16.97 0 0 0-14.9-2.821 111.513 111.513 0 0 0-.182-3.83 1.249 1.249 0 0 0 .2-.608v-.024a1.613 1.613 0 0 0-.684-1.185 5.356 5.356 0 0 0-1.079-.676 14.15 14.15 0 0 0-2.312-.882 41.842 41.842 0 0 0-4.791-1.125c-3.223-.594-6.461-.989-9.716-1.294-6.505-.6-13.029-.844-19.551-.867-6.54-.015-13.062.191-19.586.761-3.253.289-6.505.662-9.73 1.233a46.4 46.4 0 0 0-4.818 1.1 14.987 14.987 0 0 0-2.343.889 6.023 6.023 0 0 0-1.125.7 1.836 1.836 0 0 0-.761 1.345 1.479 1.479 0 0 0 .4.981 122.993 122.993 0 0 0 .456 20.358 104.181 104.181 0 0 0 1.668 10.34 49.977 49.977 0 0 0-8.588 3.1 25.516 25.516 0 0 0-8.652 6.279 12 12 0 0 0-2.569 5.085 10.318 10.318 0 0 0 .5 5.87 15.7 15.7 0 0 0 3.708 5.353 4.628 4.628 0 0 0 .307.516 28.535 28.535 0 0 0 5.366 6.013 47.748 47.748 0 0 0 13.974 8c10.08 3.848 20.92 5.155 31.564 5.179 10.644-.017 21.484-1.323 31.565-5.169a47.725 47.725 0 0 0 13.972-8.007 28.823 28.823 0 0 0 5.368-6.02 20.776 20.776 0 0 0 1.415-2.547c.151-.206.32-.373.471-.57a11.936 11.936 0 0 0 2.144-5.177 9.336 9.336 0 0 0-.882-5.46 15.988 15.988 0 0 0-5.717-6.088 17.363 17.363 0 0 0 4.014-2.076 18.045 18.045 0 0 0 7.782-14.36zm-40.443-25.75a94.748 94.748 0 0 1 9.7.875 43.66 43.66 0 0 1 4.743 1.027 14.886 14.886 0 0 1 2.249.82c.671.327 1.478.792 1.538 1.422-.061.676-.867 1.11-1.538 1.444-.075.039-.151.061-.226.092a8.671 8.671 0 0 0-1.917-1.209v-.32c0 .107-.015.213-.015.311-.639-.3-1.294-.546-1.946-.775a48.14 48.14 0 0 0-4.471-1.253c-3.01-.632-6.051-1.064-9.108-1.437-4.089-.48-8.211-.691-12.331-.819 4.442-.214 8.882-.323 13.322-.178zm16.285 5.763c-.564.228-1.141.434-1.735.608v-1.527a8.561 8.561 0 0 1 1.735.919zm-54.981-3.095c2.021-.3 4.074-.577 6.129-.836q6.613-.353 13.227-.342c6.081-.015 12.193.153 18.259.638 3.041.244 6.068.564 9.078 1.066 1.49.259 3 .555 4.456.957a19.752 19.752 0 0 1 2.067.685c-.017.516-.048 1.042-.061 1.566-.017 0-.017 0-.017.005a45.007 45.007 0 0 1-4.743 1.029 94.2 94.2 0 0 1-9.7.873c-6.493.189-13-.1-19.461-.538-6.48-.45-12.91-1.211-19.235-2.152-2.95-.38-5.884-.9-8.712-1.468a126.656 126.656 0 0 1 8.713-1.482zm-10.081 5.528c3.225.57 6.478.943 9.73 1.24 6.524.56 13.046.766 19.586.759 6.522-.03 13.046-.274 19.551-.873 3.254-.305 6.509-.7 9.716-1.286a45.852 45.852 0 0 0 4.638-1.088 165.98 165.98 0 0 1-.746 9.96 1.505 1.505 0 0 0-.211-.676 1.364 1.364 0 0 0-.121-.191.707.707 0 0 0-.107-.143 2.076 2.076 0 0 0-.213-.228 4.557 4.557 0 0 0-.518-.449 10.093 10.093 0 0 0-1.915-1.048 30.429 30.429 0 0 0-4.151-1.376 61.367 61.367 0 0 0-3.238-.7c1.231-.388 2.462-.8 3.65-1.307l-.046-.213c-2.1.448-4.212.776-6.325 1.042a98.576 98.576 0 0 0-2.631-.38 148.019 148.019 0 0 0-34.818 0c-.775.1-1.551.213-2.325.334l-.579-.092-.031.189c-1.9.3-3.784.661-5.654 1.134a28.042 28.042 0 0 0-4.137 1.369 10.34 10.34 0 0 0-1.931 1.049 3.127 3.127 0 0 0-1.079 1.246c-.335-3.095-.548-6.2-.686-9.321a46.611 46.611 0 0 0 4.59 1.049zm9.868 3.832a45.876 45.876 0 0 0 8.043 2c.867.138 1.718.259 2.586.358a88.309 88.309 0 0 0 11.844.546 91.549 91.549 0 0 0 11.814-1.049 56.021 56.021 0 0 0 6.9-1.505c1.367.213 2.736.463 4.089.768a28.783 28.783 0 0 1 4.168 1.193 9.936 9.936 0 0 1 1.93.959 2.956 2.956 0 0 1 1.11 1.132c0 .031.017.053.017.085.031.061.031.138.061.2s.031.136.044.211a.582.582 0 0 0-.013.153.04.04 0 0 0-.017.037 2.394 2.394 0 0 1-1.231 1.476 10.8 10.8 0 0 1-1.929.921 30.285 30.285 0 0 1-4.168 1.108 77.283 77.283 0 0 1-8.56 1.248 195.445 195.445 0 0 1-34.622 0 83.372 83.372 0 0 1-6.551-.9c-.671-.114-1.354-.213-2.023-.351a28.455 28.455 0 0 1-4.151-1.115 9.964 9.964 0 0 1-1.946-.913 3.312 3.312 0 0 1-1.049-.979 27.602 27.602 0 0 0-.121-1.079 2.837 2.837 0 0 1 1.139-1.233 10.059 10.059 0 0 1 1.931-.959 29.52 29.52 0 0 1 4.166-1.193c2.161-.489 4.35-.836 6.539-1.118zm19.371-1.086a157.143 157.143 0 0 1 17.348.851c.184.022.38.053.579.068-1.064.114-2.113.213-3.163.3q-5.838.477-11.708.57c-3.374.092-6.737.068-10.111-.039-.531-.022-1.064-.015-1.612-.039-3.071-.143-6.158-.379-9.214-.8.184-.022.349-.046.531-.068a157.388 157.388 0 0 1 17.258-.851zm33.163 6.485a.265.265 0 0 0 .029-.145.249.249 0 0 1-.017.1.074.074 0 0 1-.013.047zm-65.259 1.345a10.371 10.371 0 0 0 1.915 1.086 29.735 29.735 0 0 0 4.151 1.461c.654.165 1.308.327 1.963.47l.257 4.067c-.531-.1-1.064-.175-1.6-.281a28.989 28.989 0 0 1-4.091-1.117 10.865 10.865 0 0 1-1.9-.913 3.551 3.551 0 0 1-.928-.836 106.867 106.867 0 0 1-.671-4.91 3.478 3.478 0 0 0 .903.973zm.579 4.949a9.525 9.525 0 0 0 1.869 1.1 29.059 29.059 0 0 0 4.074 1.45c.594.16 1.187.3 1.794.448 2.205.511 4.442.9 6.676 1.226a132.893 132.893 0 0 0 34.362 0 72.463 72.463 0 0 0 8.468-1.674 28.327 28.327 0 0 0 4.074-1.45 10.234 10.234 0 0 0 1.887-1.1 3.974 3.974 0 0 0 .73-.73.265.265 0 0 1-.016.112 85.626 85.626 0 0 1-4.879 18.276 47.355 47.355 0 0 1-9.96 15.815c-2.1 2.128-5.169 3.131-8.165 3.8a44.525 44.525 0 0 1-9.335.86 45.085 45.085 0 0 1-9.319-.86 30.581 30.581 0 0 1-2.92-.8 12.847 12.847 0 0 1-5.247-3 46.9 46.9 0 0 1-9.944-15.815 84.694 84.694 0 0 1-4.9-18.276c0-.051-.017-.1-.017-.143a3.6 3.6 0 0 0 .767.761zm-6.232-18.428c.077.077.151.151.228.219a5.9 5.9 0 0 0 1.125.693 15.779 15.779 0 0 0 2.343.889l.09.024c0 11.723 1.384 23.566 5.55 34.674a46.215 46.215 0 0 0 10.035 16.329 12.656 12.656 0 0 0 4.166 2.768 25.04 25.04 0 0 0 4.668 1.468 48.778 48.778 0 0 0 19.233 0 25.627 25.627 0 0 0 4.67-1.468 12.57 12.57 0 0 0 4.151-2.76 46.274 46.274 0 0 0 10.05-16.337c4.2-11.168 5.564-23.089 5.533-34.872a.1.1 0 0 1 .046-.007 15.082 15.082 0 0 0 2.312-.889 5.125 5.125 0 0 0 1.079-.676 2.407 2.407 0 0 0 .4-.426 172.154 172.154 0 0 1-2.479 20.26 101.444 101.444 0 0 1-5.776 20.078c-2.709 6.347-6.2 12.384-11.039 17.081-2.023 2.014-5.232 3.141-8.455 3.839a56.563 56.563 0 0 1-20.207-.007c-3.223-.691-6.446-1.825-8.437-3.832-4.851-4.714-8.334-10.734-11.039-17.089a100.122 100.122 0 0 1-5.794-20.078 172.668 172.668 0 0 1-2.453-19.881zm78.288 10.188a9.466 9.466 0 0 1 8.211 2.872 8.807 8.807 0 0 1 2.007 8.683 10.063 10.063 0 0 1-6.081 6.248 10.386 10.386 0 0 1-8.165-.594c.425-2.387.79-4.8 1.049-7.2.1-.88.153-1.762.226-2.637a1.807 1.807 0 0 0 .305-.153 3.755 3.755 0 0 0 .943-.829 7.1 7.1 0 0 0 1.248-2.128 6.2 6.2 0 0 0 .253-4.262zM440.2 503.857a4.979 4.979 0 0 1 .592 3.214 112.033 112.033 0 0 1-12.345 1.817c-2.707.25-5.443.412-8.181.509a47.214 47.214 0 0 0 5.673-.858 30.094 30.094 0 0 0 5.443-1.726 15.167 15.167 0 0 0 5.046-3.383c.472-.5.928-1.018 1.369-1.529.243.114.487.221.731.366a4.721 4.721 0 0 1 1.672 1.59zm-31.064 5.5c-.364-.017-.746-.017-1.11-.039a120.756 120.756 0 0 1-18.108-2.167 5.138 5.138 0 0 1 .456-3.056 4.773 4.773 0 0 1 1.992-1.832c.334.386.684.79 1.049 1.161a15.158 15.158 0 0 0 5.046 3.392 30.485 30.485 0 0 0 5.445 1.726 45.455 45.455 0 0 0 5.226.812zm-46.693-16.133a7.5 7.5 0 0 1-.669-4.3 9.775 9.775 0 0 1 1.794-4.227 24.761 24.761 0 0 1 7.512-6.515 58.791 58.791 0 0 1 8.043-4.006 80.2 80.2 0 0 0 3.025 10.506 55.4 55.4 0 0 0 7.922 14.817 8.172 8.172 0 0 0-.64.82 7.174 7.174 0 0 0-1.185 3.232 6.443 6.443 0 0 0 .533 3.139c.044.1.1.175.151.274-.364-.075-.744-.136-1.11-.22a61.6 61.6 0 0 1-18.777-6.9c-2.772-1.728-5.327-3.901-6.604-6.623zm96.685 11.594a50.456 50.456 0 0 1-13.821 6.728 83.888 83.888 0 0 1-15.1 3.284 111.93 111.93 0 0 1-15.51.919 113.466 113.466 0 0 1-15.508-.91 83.676 83.676 0 0 1-15.1-3.286 50.249 50.249 0 0 1-13.821-6.735c-.38-.266-.759-.555-1.125-.844a49.91 49.91 0 0 0 7.586 3.664 82.912 82.912 0 0 0 10.159 3.163 118.236 118.236 0 0 0 20.92 2.9c14.034.562 28.267-.654 41.706-5.237a56.734 56.734 0 0 0 9.73-4.357 38.561 38.561 0 0 0 3.681-2.486 32.079 32.079 0 0 1-3.802 3.194zm8.5-17.888a8.154 8.154 0 0 1 .336 4.7 9.774 9.774 0 0 1-2.174 4.159 24.415 24.415 0 0 1-7.908 5.809 58.98 58.98 0 0 1-9.411 3.626c-2.22.639-4.471 1.17-6.737 1.657.046-.121.123-.228.167-.357a6.251 6.251 0 0 0 .4-3.339 7.68 7.68 0 0 0-1.477-3.275 7.147 7.147 0 0 0-.728-.823 55.837 55.837 0 0 0 7.6-14.406c.029-.09.061-.182.09-.265.031-.009.092-.017.121-.024a5.462 5.462 0 0 0 1.141-.358 6.289 6.289 0 0 0 1.931-1.292 7.028 7.028 0 0 0 1.26-1.689.027.027 0 0 0 .017-.029 18.8 18.8 0 0 0 10.476-.548 16.351 16.351 0 0 1 4.891 6.451zm-15.8-10.2l-1.566-.669c.351-1.444.669-2.889.943-4.341a9.546 9.546 0 0 0 3.253 2 10.58 10.58 0 0 0 10.995-2.578 10.847 10.847 0 0 0 2.812-5.252 11.45 11.45 0 0 0-3.284-10.741 10.8 10.8 0 0 0-10.552-2.518l-.564.184.154.516v.013l.03.116.031.046a5.006 5.006 0 0 1 .379 4.173 7.33 7.33 0 0 1-.972 2.053 3.281 3.281 0 0 1-.761.8.283.283 0 0 1-.044.031 126.094 126.094 0 0 0 .364-13.76 16.5 16.5 0 0 1 14.277 3.58 16 16 0 0 1 5.5 13.443 15.51 15.51 0 0 1-7.42 11.951 14.994 14.994 0 0 1-13.577.955z" class="cls-3" data-name="Path 1433" transform="translate(-359.057 -436.293)"/>
            </g>
        </g>
        <g id="Group_383" data-name="Group 383" transform="translate(999.994 1031.758)">
            <g id="Group_373" data-name="Group 373" transform="translate(53.835 43.864)">
                <path id="Path_3777" d="M372.479 471.548c-1.053-.059-1.275.016-1.13 1.2.775 6.287-5.083 21.549 4.488 23.794 1.22 2.117 1.7 2.746 2.058 5.142.981 6.56 1.417 23.8.033 27.153-.535 1.3-7.52 3.874-9.133 3.9-1.454.028-1.038.934-.266.934h22.839c.774 0 1.187-.906-.265-.934-1.6-.029-8.562-2.624-9.1-3.828-1.422-3.159-.989-20.619 0-27.229.358-2.4.838-3.025 2.056-5.142 10-2.279 3.765-17.16 4.462-23.491-.6 0-1.288-.059-1.367.606-.774 6.5 5.309 21.844-7.205 21.844-12.263 0-6.518-16.012-7.255-22.265-.04-.344-.107-.549.423-.549h15.571c-.483-1.031-1.74-1.108-2.74-1.079-4.606.145-8.781.209-13.469-.056z" class="cls-4" data-name="Path 3777" transform="translate(-367.826 -471.534)"/>
                <g id="Group_372" data-name="Group 372" transform="translate(4.998 1.927)">
                    <g id="Group_369" data-name="Group 369">
                        <path id="Path_3778" d="M371.313 472.583a25.706 25.706 0 0 1-.147 4.107c-.167 1.808-.384 3.609-.511 5.421-.206 2.946-.342 7.4 1.749 9.795a6.671 6.671 0 0 0 5.265 1.948c2.071 0 4.2-.428 5.548-2.078 3.468-4.252.206-14 .8-19.193h-12.7z" class="cls-5" data-name="Path 3778" transform="translate(-370.546 -472.583)"/>
                        <path id="Path_3779" d="M381.595 473.021c-.268 0-1.055-.165-1.057.265 0 .871.035 1.753.079 2.6.077 1.494.193 2.983.283 4.475.156 2.606.406 7.016-.638 9.188a2.708 2.708 0 0 1-2.659 1.617 2.609 2.609 0 0 1-2.512-1.518c-1.031-2.007-.941-6.075-.838-8.576.07-1.705.191-3.4.283-5.107.048-.869.094-1.753.1-2.633.006-.474-.388-.312-1.382-.307-1.114.007-1.406-.171-1.413.307-.013.974-.1 1.952-.189 2.914-.169 1.814-.39 3.624-.516 5.442-.189 2.664-.353 7 1.531 9.139a5.9 5.9 0 0 0 4.594 1.615c1.744 0 3.692-.307 4.859-1.722 1.908-2.314 1.452-7.015 1.165-9.789-.165-1.59-.373-3.177-.516-4.769a28.462 28.462 0 0 1-.143-2.872c.005-.366-.812-.269-1.031-.269z" class="cls-6" data-name="Path 3779" transform="translate(-370.14 -472.242)"/>
                        <path id="Path_3780" d="M374.351 490.672a4.109 4.109 0 0 1-.748-1.04c-1.167-2.273-1.053-6.509-.946-9.071.07-1.707.191-3.412.283-5.12.029-.553.059-1.108.079-1.661.006-.151-.211-.235-.362-.233-.217 0-.447.005-.456.209-.037.7-.1 1.408-.165 2.111-.167 1.807-.388 3.609-.514 5.419-.165 2.332-.355 6.551 1.286 8.413a3.434 3.434 0 0 0 1.543.973z" class="cls-7" data-name="Path 3780" transform="translate(-369.817 -471.776)"/>
                        <path id="Path_3781" d="M377.263 474.184c.013.4.031.8.053 1.193.077 1.49.193 2.979.281 4.467.164 2.707.437 7.242-.731 9.677a4.5 4.5 0 0 1-.375.64 2.971 2.971 0 0 0 .575-.531c1.659-2.012 1.2-6.614.943-9.054-.165-1.595-.373-3.185-.518-4.781-.048-.54-.09-1.081-.118-1.621-.044-.889-.14-.823-.11.01z" class="cls-7" data-name="Path 3781" transform="translate(-365.565 -471.787)"/>
                        <path id="Path_3782" d="M375.395 473.526c-.312 0-1.391-.048-1.4 1.082 0 .129-.153 3.736-.182 4.987-.048 2.185-.09 5.741.4 7.5.3 1.07.757 1.325 1.187 1.325.452 0 .956-.25 1.257-1.413.494-1.9.375-5.754.3-8.029-.022-.691-.171-4.306-.171-4.343-.008-1.169-1.072-1.109-1.391-1.109z" class="cls-8" data-name="Path 3782" transform="translate(-367.834 -471.793)"/>
                    </g>
                    <g id="Group_370" data-name="Group 370" transform="translate(.458)">
                        <path id="Path_3783" d="M371.1 472.583a25.9 25.9 0 0 1-.147 4.107c-.051.55-.107 1.1-.162 1.643h13.246a27.951 27.951 0 0 1-.235-5.75H371.1z" class="cls-9" data-name="Path 3783" transform="translate(-370.795 -472.583)"/>
                        <path id="Path_3784" d="M381.389 473.021c-.268 0-1.055-.165-1.057.265 0 .871.035 1.753.079 2.6q.055 1.056.129 2.11h2.213a86.243 86.243 0 0 1-.187-1.834 28.471 28.471 0 0 1-.143-2.872c0-.362-.814-.265-1.033-.265zm-7.176 4.971c.04-.676.081-1.352.118-2.031.048-.869.094-1.753.1-2.633.005-.474-.388-.312-1.382-.307-1.114.007-1.406-.171-1.413.307-.013.974-.1 1.952-.189 2.914-.055.583-.114 1.167-.175 1.75z" class="cls-10" data-name="Path 3784" transform="translate(-370.393 -472.242)"/>
                        <path id="Path_3785" d="M372.61 477.526c.042-.695.085-1.389.121-2.084.029-.553.059-1.108.079-1.661.005-.151-.211-.235-.362-.233-.217 0-.447.005-.456.209-.037.7-.1 1.408-.165 2.111q-.077.83-.164 1.658z" class="cls-11" data-name="Path 3785" transform="translate(-370.067 -471.776)"/>
                        <path id="Path_3786" d="M376.914 474.184c.013.4.031.8.053 1.193.037.72.085 1.441.132 2.161h.22a91.908 91.908 0 0 1-.178-1.744c-.048-.54-.09-1.081-.118-1.621-.043-.888-.139-.822-.109.011z" class="cls-11" data-name="Path 3786" transform="translate(-365.674 -471.787)"/>
                        <path id="Path_3787" d="M375.351 473.526c-.312 0-1.391-.048-1.4 1.082 0 .081-.062 1.549-.114 2.935h3.019c-.05-1.277-.116-2.885-.116-2.911-.005-1.166-1.069-1.106-1.389-1.106z" class="cls-12" data-name="Path 3787" transform="translate(-368.249 -471.793)"/>
                    </g>
                    <g id="Group_371" data-name="Group 371" transform="translate(.458 4.614)">
                        <path id="Path_3788" d="M370.907 475.094c-.035.379-.073.757-.112 1.136h13.246a86.461 86.461 0 0 1-.119-1.136c-.322.428-.985.408-1.54.408H372.9a3.02 3.02 0 0 1-1.988-.408z" class="cls-6" data-name="Path 3788" transform="translate(-370.795 -475.094)"/>
                        <path id="Path_3789" d="M380.493 475.347l.048.728h2.213l-.081-.748c-.23.022-.47.02-.693.02zm-6.279.728l.042-.728H372.5a7.322 7.322 0 0 1-1.137-.068l-.083.8z" class="cls-7" data-name="Path 3789" transform="translate(-370.393 -474.939)"/>
                        <path id="Path_3790" d="M372.61 476.047l.044-.728h-.485c-.154 0-.3 0-.432-.007l-.074.735z" class="cls-13" data-name="Path 3790" transform="translate(-370.067 -474.911)"/>
                        <path id="Path_3791" d="M376.986 475.316l.048.728h.221c-.026-.242-.053-.485-.077-.728z" class="cls-13" data-name="Path 3791" transform="translate(-365.609 -474.908)"/>
                        <path id="Path_3792" d="M373.863 475.316l-.028.729h3.02l-.029-.729z" class="cls-14" data-name="Path 3792" transform="translate(-368.248 -474.908)"/>
                    </g>
                </g>
                <path id="Path_3793" d="M375.6 488.579c.384 5.542.549 15.828.347 22.844-.079 1.456.066 4.9-.75 6.325-.95 1.659-4.5 1.926-1.373 1.926h5.4c3.367.094-1.268-.645-1.887-2.194-.606-1.514-.8-5.026-.8-8.659 0-1.926-.024-5.274.029-8.782.07-4.548.085-9.352.518-11.708.592-3.231-1.745-3.575-1.484.248z" class="cls-15" data-name="Path 3793" transform="translate(-363.857 -459.577)"/>
            </g>
            <path id="Path_3794" d="M342.56 519.747a8.858 8.858 0 0 1 2.056-8.36c1.3-1.443-1.384-1.928-.932-4.824 3.234-15.06 6.888-27.319 7.922-48.469.39-7.961 6.979-8.466 12.961-5.118 3.076 1.722 5.526 3.521 10.987-.417 1.11 5.568-8.106 4.506-12.044 2.3-3.861-2.163-9.137-.673-9.782 5.555-1.8 17.364-5.039 34.433-7.3 46.785-.349 2.22 1.376 2.718.5 3.751-4.155 4.916-.719 8.643-1.542 11.274-.494 1.582-1.933 4.028-2.315 6.48a1.78 1.78 0 0 0 1.167 1.987c4.721.731 5.722 2.681 2.025 2.108-4.342-.674-6.208 6.013-3.622 7.343 4.861 2.5 23.48 3.466 24.391 2.947.053 4.332-24.593-.09-25.123-.173-5.772-.9-2.867-7.538-.75-10.265.816-1.051.559-1.4.123-1.812-3.291-3.159 2.639-5.471 1.278-11.092z" class="cls-4" data-name="Path 3794" transform="translate(-338.531 -444.85)"/>
            <path id="Path_3795" d="M340.93 536.734l20.648 3.207a2.152 2.152 0 0 0 1.761-.342 3.927 3.927 0 0 0 .843-2.8 32.8 32.8 0 0 0-.368-4.488 232.48 232.48 0 0 1-.345-3.021l-.612.072a10.443 10.443 0 0 0-1.474 2.255c-.3 1.033.886 2.79 1.18 3.815l.114.4-.406-.062c-5.844-.906-11.68-1.869-17.526-2.777l-.221-.033c-1.163-.182-1.9 2-3.442 2.8l-.153.978zm11.015-70.634l19.06 2.933c2.764.391 2.233-3.043 2.282-4.953l-.706-.1-8.753-.367.042-.261c.228-1.461.72-2.839 2.472-2.767l4.1.061c3.168.048 3.1-1.836 3.172-5l-.787-.024-6.215.825c-2.126-.064-2.569 1.02-2.85 2.33.8-6.809-9.628-6.75-9.944.658l-1.722 5.695-.153.98zm10.113-2.769l-6.785-1.057.04-.259c.3-1.92 1.5-4 3.718-3.833a3.29 3.29 0 0 1 2.437 1.432 4.606 4.606 0 0 1 .636 3.464l-.046.254zm-12.349 17.116l.153-.974c1.106-1.178 2.279-2.988 3.442-2.806l6.671 1.04 8.233 1.325h.022c1.779.015 2.736-1.908 2.973-3.427l.04-.259-20.236-3.216.151-.974c1.025-1.284 2.279-2.992 3.442-2.808l17.836 1.9.625.1c.564 3.933-1.579 13.406-7.073 12.678l-16.278-2.576zm18.174 3.685l-1.147-.274c-.864.483-1.226.842-1.522.956-1.446.509-1.6 3.486-1.669 4.763l-.015.29-6.45-.97.164-.325c.878-1.729 2.165-5.125-.612-5.748l-.915 5.859-4.5-.7.1-.3c.73-2.181 2.33-5.8-1.108-6.5l-2.106 9.571-.152.976 13.22 2.141c1.845.382 2.643-2.1 3.306-3.767a27.057 27.057 0 0 1 3.409-5.974zM345.7 506.114l.153-.976c1.411-.663 2.279-2.988 3.442-2.806l9.271 1.446c1.3.2 1.1-1.9 1.077-2.67-.013-.37-.029-.741-.02-1.112l.005-.23L347 497.8l.153-.978c1.06-.651 2.279-2.986 3.442-2.8l10.767.752.945.147a27.272 27.272 0 0 0-1.3 8.674c0 .979.035 1.968-.064 2.942a2.359 2.359 0 0 1-.566 1.538 1.406 1.406 0 0 1-1.1.162l-13.577-2.123zm16.3 3.8l-.254.173-.5 1.862-.419-.206a4.445 4.445 0 0 0-2.942-2.354 43.239 43.239 0 0 0-5.715-.891 6.187 6.187 0 0 0-5.465 2.154 9.869 9.869 0 0 0-2.225 3.923c-.7 4.06 1.9 6.6 5.583 7.435a43.833 43.833 0 0 0 5.715.891c2.542.224 6.294.077 7.253-2.843.586-1.788-.147-4.519-.81-6.224l-.064-.167c.926-.862.415-2.8-.153-3.753zm-3.673 6.456l2.034-1.36.153.166a3 3 0 0 1 .671 2.242c-.41 1.66-3.37 1.376-4.627 1.2q-2.98-.408-5.939-.926a6.158 6.158 0 0 1-2.926-1.218 2.134 2.134 0 0 1-.851-1.858 2.092 2.092 0 0 1 1.347-1.556 6.133 6.133 0 0 1 3.2-.287q2.977.411 5.939.928a8.488 8.488 0 0 1 1.189.29l.283.094-.127.268-1.013.877.671 1.138zm4.673 8.169c.053.948.421 4.284-.331 4.919a1.064 1.064 0 0 1-.873.171l-19.296-2.988.152-.976c1.143-1.1 2.28-2.986 3.442-2.806l16.241 1.579z" class="cls-13" data-name="Path 3795" transform="translate(-336.521 -442.562)"/>
            <path id="Path_3796" d="M341.013 535.991l19.8 3.076a2.118 2.118 0 0 0 1.731-.334 3.906 3.906 0 0 0 .831-2.775 32.714 32.714 0 0 0-.366-4.482c-.077-.627-.154-1.253-.22-1.882-.741.109-1.908.377-2.141 1.193-.292 1.014.888 2.784 1.18 3.795l.129.448-.461-.072c-5.846-.906-11.68-1.869-17.526-2.775l-.222-.035a2.1 2.1 0 0 0-2.405 1.744l-.327 2.1zm11.015-70.64l18.209 2.8a1.816 1.816 0 0 0 1.613-.377c.7-.726.64-2.589.662-3.573l-9.5-1.409.046-.3c.232-1.479.741-2.87 2.508-2.8l4.1.063c3.117.046 2.927-1.382 3.089-3.92l-6.919-.211c-1.788-.055-2.519.61-2.885 2.326-.154-5.787-8.779-6.371-9.872.63l-1.055 6.763zm9.288-2.823l-6.856-1.066.046-.3c.3-1.935 1.531-4.028 3.756-3.865a3.335 3.335 0 0 1 2.464 1.446 4.645 4.645 0 0 1 .641 3.492l-.051.289zM349.791 479.7l.327-2.1a2.1 2.1 0 0 1 2.405-1.746l6.671 1.04 8.233 1.325h.028c1.8.015 2.769-1.92 3.01-3.458l.046-.294-19.424-3.087.329-2.1a2.1 2.1 0 0 1 2.405-1.744l18.544 2.935a13.564 13.564 0 0 1-.472 5.34c-.65 2.338-2.216 5.629-4.765 6.316a3.589 3.589 0 0 1-1.406.09l-15.931-2.52zm16.875 4.385a5.054 5.054 0 0 0-2.212-.085c-1.422.5-1.579 3.471-1.645 4.732l-.017.329-6.538-.983.186-.368c.851-1.678 2.056-4.471-.643-5.1l-.822 5.269-4.579-.713.112-.336c.706-2.112 2.428-5.085-.926-5.787l-1.564 10.021 12.384 1.931a2.158 2.158 0 0 0 1.417-.2c1.051-.586 1.705-2.472 2.134-3.547a20.117 20.117 0 0 1 2.714-5.162zm-20.88 21.286l.327-2.1a2.1 2.1 0 0 1 2.407-1.746l9.269 1.446c.9.14 1.09-.781 1.134-1.468a12.06 12.06 0 0 0-.013-1.237c-.015-.371-.031-.74-.022-1.112l.007-.261-11.813-1.843.327-2.1a2.1 2.1 0 0 1 2.407-1.744L361.294 495a22.092 22.092 0 0 0-1.1 7.75c0 .978.035 1.961-.064 2.937a2.334 2.334 0 0 1-.553 1.514 1.371 1.371 0 0 1-1.075.154l-12.715-1.983zm15.9 4.949l-1.218.84-.163-.274a4.85 4.85 0 0 0-3.194-2.3 43.742 43.742 0 0 0-5.71-.891 6.162 6.162 0 0 0-5.436 2.143 7.429 7.429 0 0 0-1.608 3.554 6.476 6.476 0 0 0 4.947 7.746 43.419 43.419 0 0 0 5.71.889c2.523.224 6.265.083 7.217-2.817.584-1.779-.149-4.5-.81-6.2l-.074-.189.149-.138a1.381 1.381 0 0 0 .342-.518 2.522 2.522 0 0 0-.151-1.841zm-4.091 5.146l2.007-1.343.175.188a3.026 3.026 0 0 1 .678 2.277c-.417 1.687-3.385 1.406-4.666 1.229q-2.98-.408-5.941-.926a6.185 6.185 0 0 1-2.942-1.226 2.167 2.167 0 0 1-.864-1.889 2.13 2.13 0 0 1 1.369-1.586 6.146 6.146 0 0 1 3.214-.288q2.98.411 5.941.926a8.808 8.808 0 0 1 1.193.294l.323.1-.145.305a3.96 3.96 0 0 0-.342 1.935zm4.675 9.2c.055.919.336 3.3-.4 3.92a1.036 1.036 0 0 1-.844.164l-18.44-2.85.327-2.1a2.106 2.106 0 0 1 2.407-1.746z" class="cls-16" data-name="Path 3796" transform="translate(-336.451 -442.797)"/>
            <path id="Path_3797" d="M341.013 535.99l1.3.2q.422-.987.86-2.053c.278-.671.542-1.321.8-1.957l-.222-.035a2.1 2.1 0 0 0-2.405 1.744l-.327 2.1zm5.21-9.528c.492-1.3.978-2.63 1.474-4.039l-2.376-.367a2.106 2.106 0 0 0-2.407 1.746l-.327 2.1 3.637.562zm2.032-5.647c.426-1.237.866-2.549 1.329-3.973a5.944 5.944 0 0 1-2.679-1.176 2.167 2.167 0 0 1-.864-1.889 2.13 2.13 0 0 1 1.369-1.586 6.146 6.146 0 0 1 3.214-.289l.514.072.132-.421c.309-.991.7-2.258 1.149-3.756-.34-.039-.68-.072-1.02-.1a6.162 6.162 0 0 0-5.436 2.143 7.43 7.43 0 0 0-1.608 3.554 6.508 6.508 0 0 0 3.9 7.424zm4.559-14.347a414.05 414.05 0 0 0 1.185-4.085l-5.478-.854a2.1 2.1 0 0 0-2.407 1.746l-.327 2.1 7.027 1.1zm2.321-8.158q.54-1.976 1.1-4.1l-6.412-1a2.1 2.1 0 0 0-2.407 1.744l-.327 2.1 8.051 1.257zm1.558-5.9c.342-1.343.684-2.718 1.022-4.115l-1.461-.221.186-.368c.851-1.678 2.056-4.471-.643-5.1l-.822 5.269-4.579-.713.112-.336c.706-2.112 2.428-5.085-.926-5.787l-1.564 10.021 8.676 1.353zm2.639-11.2l-9.541-1.511.327-2.1a2.1 2.1 0 0 1 2.405-1.746l6.671 1.04.987.16q-.4 2.076-.849 4.155zm1.6-8.262c.241-1.409.463-2.806.66-4.179l-7.775-1.231a2.1 2.1 0 0 0-2.405 1.744l-.329 2.1 9.85 1.566zm.921-6.086a79.174 79.174 0 0 0 .739-10.675c-1.661-4.052-8.545-3.806-9.514 2.4l-1.055 6.763 9.83 1.514zm-.542-4.337l-6.856-1.066.046-.3c.3-1.935 1.531-4.028 3.756-3.865a3.336 3.336 0 0 1 2.464 1.446 4.645 4.645 0 0 1 .641 3.492z" class="cls-17" data-name="Path 3797" transform="translate(-336.451 -442.796)"/>
            <g id="Group_382" data-name="Group 382" transform="translate(25.764)">
                <path id="Path_3798" d="M371.8 553.672h-11.389c-3.333 0-3.611-2.72-3.815-5.875a186.647 186.647 0 0 0-2.486-20.964c-.141-.891 1.182-2.075 1.071-2.986-.5-4.171-2.338-9.729-2.615-16.648-.511-12.781 11.965-21.356 12.059-24.526.162-5.52.268-16.381.288-19.494 0-.3.039-11.116.048-12.77a2.446 2.446 0 0 1 1.06-2.409 49.988 49.988 0 0 1 11.546 0 2.442 2.442 0 0 1 1.06 2.409c.011 1.654.048 12.472.05 12.77.018 3.113.14 13.972.288 19.494.081 3 6.292 6.14 4.341 10.212-3.1-4.359-6.3-7.564-6.277-9.1.085-6.478.13-27.253.044-33.725a1.356 1.356 0 0 0-.577-1.165 60.815 60.815 0 0 0-9.4 0 1.355 1.355 0 0 0-.579 1.165c-.086 6.472-.04 27.247.044 33.725.04 3.018-12.384 12.509-12.005 24.542.23 7.279 2.549 12.07 3.192 16.467.171 1.169-1.075 2.328-.908 3.526.665 4.807 1.283 10.251 1.746 19.472 0 2.123 1.68 3.29 3.92 3.29h18.582c2.238 0 3.918-1.167 3.918-3.29.465-9.221 1.081-14.665 1.748-19.472.165-1.2-1.08-2.358-.91-3.526.34-2.33 1.152-4.771 1.874-7.632 1.108.358 1.51 2.135 1.3 3.146-.259 1.272-.481 2.45-.612 3.534-.11.912 1.217 2.1 1.071 2.986a187.546 187.546 0 0 0-2.486 20.964c-.107 1.593-.335 2.24-1.036 2.832a8.8 8.8 0 0 1-4.85 1.542c-1.974.1-.307 1.5-2.106 1.5z" class="cls-18" data-name="Path 3798" transform="translate(-352.551 -447.665)"/>
                <g id="Group_381" data-name="Group 381" transform="translate(2.99 1.659)">
                    <g id="Group_374" data-name="Group 374" transform="translate(11.683)">
                        <path id="Path_3799" d="M365.107 455.393h-4.142a.419.419 0 0 1-.43-.4v-.333a.4.4 0 1 0 0-.807v-1.365c0-.147.345-.29.211-.347-.248-.108-.243-1.562-.028-1.727.1-.081-.184-.193-.184-.331v-1.113a.418.418 0 0 1 .428-.4h8.288a.418.418 0 0 1 .428.4v1.108c0 .138-.29.25-.186.331.215.165.222 1.619-.028 1.727-.132.057.213.2.213.347v1.365a.4.4 0 1 0 0 .807v.333a.42.42 0 0 1-.43.4z" class="cls-19" data-name="Path 3799" transform="translate(-360.535 -448.568)"/>
                        <path id="Path_3800" d="M363.184 449.985H361.1a.247.247 0 0 1-.239-.254v-.6a.247.247 0 0 1 .239-.256h2.08a.119.119 0 0 1 .114.121v.779h3.734v-.779a.119.119 0 0 1 .114-.121h1.41a.249.249 0 0 1 .241.256v.6a.248.248 0 0 1-.241.254h-5.372z" class="cls-20" data-name="Path 3800" transform="translate(-360.259 -448.314)"/>
                        <path id="Path_3801" d="M363.184 452.064H361.2a.33.33 0 0 1-.335-.325v-.63a.329.329 0 0 1 .335-.325h1.985a.113.113 0 0 1 .114.11v.93h3.734v-.93a.113.113 0 0 1 .114-.11h1.316a.33.33 0 0 1 .335.325v.63a.332.332 0 0 1-.335.325h-5.278z" class="cls-20" data-name="Path 3801" transform="translate(-360.259 -446.712)"/>
                        <path id="Path_3802" d="M360.979 451.767h2.205c.062 0 .114.121.114.272v.14h3.74v-.119c0-.142.052-.255.114-.255h1.536c.062 0 .114.114.114.255v.064c0 .141-.051.255-.114.255h-7.7c-.062 0-.114-.121-.114-.272v-.068c-.009-.151.042-.272.105-.272z" class="cls-20" data-name="Path 3802" transform="translate(-360.259 -445.888)"/>
                        <path id="Path_3803" d="M362.658 448.867H365c.062 0 .114.033.114.074v.537c0 .04-.051.073-.114.073h-2.343c-.062 0-.114-.033-.114-.073v-.537c.001-.041.057-.074.115-.074z" class="cls-21" data-name="Path 3803" transform="translate(-358.852 -448.318)"/>
                        <path id="Path_3804" d="M362.658 450.746H365c.062 0 .114.035.114.077v.733c0 .042-.051.077-.114.077h-2.343c-.062 0-.114-.035-.114-.077v-.733c.001-.042.057-.077.115-.077z" class="cls-21" data-name="Path 3804" transform="translate(-358.852 -446.743)"/>
                        <path id="Path_3805" d="M362.658 451.671H365c.062 0 .114.068.114.151v.037a.135.135 0 0 1-.114.149h-2.343a.135.135 0 0 1-.114-.149v-.037c.001-.083.057-.151.115-.151z" class="cls-21" data-name="Path 3805" transform="translate(-358.852 -445.969)"/>
                        <path id="Path_3806" d="M362.692 450.663c-.092-.4 4.658-.741 4.737-.338.059.299-4.657.687-4.737.338z" class="cls-22" data-name="Path 3806" transform="translate(-358.73 -447.248)"/>
                        <path id="Path_3807" d="M360.776 450.468c-.029-.39 8.08-.987 8.11-.6s-8.081.988-8.11.6z" class="cls-22" data-name="Path 3807" transform="translate(-360.333 -447.583)"/>
                        <path id="Path_3808" d="M363.977 450.465a2.847 2.847 0 0 1-1.321-.029 2.9 2.9 0 0 1 1.294-.287 2.854 2.854 0 0 1 1.319.028 2.864 2.864 0 0 1-1.292.288z" class="cls-23" data-name="Path 3808" transform="translate(-358.758 -447.282)"/>
                        <path id="Path_3809" d="M362.363 450.668c-.8.085-1.455.059-1.476-.053s.612-.272 1.408-.355 1.455-.059 1.474.053-.611.273-1.406.355z" class="cls-20" data-name="Path 3809" transform="translate(-360.24 -447.192)"/>
                        <path id="Path_3810" d="M362.265 450.069c-.724.07-1.323.042-1.34-.062s.555-.244 1.279-.314 1.325-.044 1.342.061-.557.246-1.281.315z" class="cls-20" data-name="Path 3810" transform="translate(-360.208 -447.66)"/>
                        <path id="Path_3811" d="M363.942 449.993a2.872 2.872 0 0 1-1.321-.051 2.829 2.829 0 0 1 1.294-.265 2.886 2.886 0 0 1 1.321.053 2.813 2.813 0 0 1-1.294.263z" class="cls-23" data-name="Path 3811" transform="translate(-358.788 -447.665)"/>
                        <path id="Path_3812" d="M360.928 452.282c-.322 0-.351.248-.349.636l.05 12.256.116.119h8.65l.14-.119.028-12.4c0-.232-.05-.494-.349-.494z" class="cls-19" data-name="Path 3812" transform="translate(-360.498 -445.457)"/>
                        <path id="Path_3813" d="M361.051 452.575c.02 2.507.077 9.648.052 12.182h1.819c.033-2.595-.075-9.661-.1-12.217 0-.162-.252-.127-.612-.142-.338-.015-1.161-.048-1.16.176zm7.22 12.182c-.028-2.523.005-9.631.027-12.14 0-.213-.45-.209-.77-.2-.356.015-.59-.02-.577.16.176 2.429.094 9.556.116 12.176z" class="cls-20" data-name="Path 3813" transform="translate(-360.103 -445.368)"/>
                        <path id="Path_3814" d="M362.756 452.9c.268.217.211 2.8.217 3.153.04 1.621.05.1.046 1.72v5.838c0 .366.248.689.886.713.412.015.8-.051.787-.447-.02-.774-.037-6.046-.057-6.822a29 29 0 0 1 .011-4.078c.134-.224.878-.493-.081-.529-.25-.011-.443-.031-.7-.024h-.1a9.523 9.523 0 0 0-1 .055c-.279.038-.419.178-.1.36z" class="cls-21" data-name="Path 3814" transform="translate(-358.906 -445.338)"/>
                    </g>
                    <path id="Path_3815" d="M381.991 485.128a62.546 62.546 0 0 0-1.147-1.678c-1.319-1.865-2.747-3.626-4.113-5.453-.746-1-2.073-2.727-2.056-4.021.063-4.87.074-9.745.081-14.615h-8.65c.007 4.87.018 9.745.083 14.615.017 1.294-1.31 3.023-2.056 4.021-1.367 1.827-2.8 3.587-4.115 5.453-3.12 4.416-5.995 9.5-5.835 15.041a44.128 44.128 0 0 0 1.555 9.113c.577 2.391 1.272 4.818 1.626 7.251.215 1.47-1.016 2.745-.908 3.534.9 6.52 1.424 12.983 1.755 19.558v.05c0 1.685 1.43 2.3 2.927 2.3h18.582c1.5 0 2.926-.612 2.926-2.3v-.05c.331-6.575.851-13.038 1.755-19.558.11-.789-1.123-2.064-.908-3.534.357-2.433 1.051-4.861 1.626-7.251l.162-.665a6.869 6.869 0 0 1-2.4-1.922c-2.435-3.073-2.156-8.086-1.783-11.765.195-1.922.474-3.832.685-5.75.085-.744.172-1.562.208-2.374z" class="cls-14" data-name="Path 3815" transform="translate(-354.178 -439.526)"/>
                    <path id="Path_3816" d="M381.412 486.767c-.586-.943-1.2-1.86-1.83-2.744-1.308-1.852-2.738-3.615-4.1-5.43-.93-1.242-2.134-3.025-2.113-4.629.064-4.868.075-9.734.083-14.6H366.5c.009 4.868.02 9.734.083 14.6.022 1.6-1.183 3.387-2.112 4.629-1.358 1.816-2.79 3.578-4.1 5.43-2.986 4.225-5.8 9.128-5.653 14.427a43.2 43.2 0 0 0 1.527 8.922c.588 2.437 1.279 4.855 1.643 7.34a4.417 4.417 0 0 1-.43 2.431 10.066 10.066 0 0 0-.476 1.11c.9 6.518 1.431 13.073 1.762 19.645v.1c0 1.086 1.033 1.307 1.935 1.307h18.582c.9 0 1.935-.221 1.935-1.307v-.1c.331-6.571.86-13.126 1.76-19.606a7.635 7.635 0 0 0-.474-1.148 4.432 4.432 0 0 1-.43-2.431c.364-2.485 1.057-4.9 1.645-7.34l.23-.952a6.761 6.761 0 0 1-1.509-1.4 8.1 8.1 0 0 1-1.263-2.334 80.253 80.253 0 0 1-.7 4.69c-.36 2.045-.776 4.078-1.055 6.149-.151 1.108-.4 1.2-1.338 1.266a112.008 112.008 0 0 1-15.291 0c-.9-.062-1.145-.134-1.288-1.2-.279-2.091-.7-4.144-1.062-6.211-1.7-9.64-1.551-14.2 2.532-22.407 1.262-2.542 4.64-4.083 7.884-3.957 2.957.114 5.8 1.687 6.833 3.732a37.917 37.917 0 0 1 3.052 7.742c.186-1.663.419-3.319.6-4.982l.079-.735zm-2.778 31.525c.8.024 1.281.068 1.167 1.222-.583 5.908-.935 10.732-1.161 16.885-.042 1.143-.72 1.865-1.415 1.406-4.519-2.986-9.038-2.812-13.556 0-.708.439-1.371-.263-1.415-1.406-.226-6.158-.579-10.986-1.165-16.934-.1-1.016.391-1.152 1.13-1.172q8.262-.237 16.414 0z" class="cls-6" data-name="Path 3816" transform="translate(-353.725 -439.526)"/>
                    <path id="Path_3817" d="M368.289 469.857c1.02-.382 1.6.41 2.358 1.3.812.961 1.417 1.83-.112.886-1.784-1.1-6.891-1.18-8.881-.022-.046.027-.606.367-.926.553-1.334.777-1.062.454-.055-.93.746-1.025 1.942-2.293 3.067-1.977a6.14 6.14 0 0 0 4.549.19z" class="cls-7" data-name="Path 3817" transform="translate(-349.451 -430.931)"/>
                    <path id="Path_3818" d="M365.036 497.211c-.272-4.392.992-9.117.535-13.9-.254-2.648-.954-11.816 7.253-9.951a12.823 12.823 0 0 1 2.328.884 8.591 8.591 0 0 0-6.445-3.1c-3.243-.127-6.621 1.415-7.884 3.957-4.083 8.211-4.23 12.766-2.532 22.407.364 2.067.783 4.12 1.062 6.211.143 1.07.384 1.141 1.288 1.2a112.008 112.008 0 0 0 15.291 0c.939-.066 1.187-.158 1.338-1.266.09-.669.195-1.334.307-2-3.097 1.714-12.027 1.518-12.541-4.442z" class="cls-24" data-name="Path 3818" transform="translate(-351.587 -429.661)"/>
                    <path id="Path_3819" d="M364.159 499.509c-.09-.737-.221-1.483-.329-2.22-.349-3.6 1.718-4.326 4.837-4.014a15.349 15.349 0 0 0 5.454-.211 3.629 3.629 0 0 1 2.712.368l.07-.724c.114-1.154-.362-1.2-1.167-1.222q-8.151-.251-16.416 0c-.739.02-1.229.156-1.13 1.173.586 5.948.939 10.776 1.165 16.934.044 1.143.708 1.845 1.415 1.406 4.519-2.812 9.038-2.986 13.556 0 .695.459 1.373-.263 1.415-1.406q.047-1.3.1-2.532c-.424.2-1.167.088-2.971-.434-3.324-.934-3.611.391-6.233.3-3.653-.135-2.124-4.509-2.478-7.418z" class="cls-24" data-name="Path 3819" transform="translate(-350.827 -412.719)"/>
                    <path id="Path_3820" d="M369.482 502.641c.037-.39-1.931-1.06-4.262-1.06s-4.135.671-4.171 1.06c-.029.326 8.404.328 8.433 0z" class="cls-13" data-name="Path 3820" transform="translate(-348.422 -404.16)"/>
                    <path id="Path_3821" d="M361.514 495.679a5.181 5.181 0 0 0 2.944 4.263 4.1 4.1 0 0 0 2.4.029c4.6-1.589 2.365-8.468 2.08-11.858-.272-3.571.274-6.748.423-10.256.088-2.084-.305-4.754-2.926-4.886a4.664 4.664 0 0 0-1.476.2 7.857 7.857 0 0 0-2.24 1.375c-1.075 2.468-.807 5.8-.671 7.229.458 4.787-.806 9.512-.534 13.904z" class="cls-25" data-name="Path 3821" transform="translate(-348.065 -428.13)"/>
                    <path id="Path_3822" d="M364.2 507.167c2.422.026 4.835.088 7.259.141 2.356.051 2.007-.715 2.312-2.8.8-5.467-.568-8.621-1.237-3.271-.147 1.167-.439 4.534-1.775 4.782a24.819 24.819 0 0 1-3.629.423c-1.193-.015-2.053.009-3.065-.1-1.569-.171-2.431.8.136.829zm9.032-29.335q-.3-.6-.61-1.18a11.123 11.123 0 0 0-2.519-3.6 9.916 9.916 0 0 0-3.01-1.731 6.653 6.653 0 0 0-3.148-.314c-2.367.191-.785.737-.481.731a8.64 8.64 0 0 1 2.87.237 6.914 6.914 0 0 1 2.775 1.356c1.251 1.108 1.992 3.269 2.5 5.506.238 1.057 2.62.992 1.624-1.005z" class="cls-8" data-name="Path 3822" transform="translate(-347.148 -429.819)"/>
                    <path id="Path_3823" d="M362.821 474.217c-1.454 1.426-2.082 3.96-2.8 5.871a21.827 21.827 0 0 0-1.11 9.405 101.225 101.225 0 0 0 1.048 10.572l.039.213c.244 1.343.388 4.671 2.077 4.912.222.033 4.037.29 3.251.969-.658.568-4.537.47-5.177-.252-.853-.959-1.639-5.05-1.955-6.452l-.228-1.011c-.753-3.234-2.108-8.823-1.531-12.068.068-.379.151-.746.237-1.119.509-2.075.375-3.253 1.351-5.368.142-.309.292-.6.452-.9 1.8-3.379 1.891-4.96 5.353-7.207 1.8-1.169 1.195.434.25 1.354-.386.381-.871.701-1.257 1.081z" class="cls-25" data-name="Path 3823" transform="translate(-352.403 -429.463)"/>
                    <g id="Group_375" data-name="Group 375" transform="translate(3.675 79.353)">
                        <path id="Path_3824" d="M368.711 491.768a8.531 8.531 0 0 0-.57 1.713c-.164.687-.309 1.474-.426 2.334s-.217 1.788-.294 2.751-.129 1.955-.169 2.949-.066 1.987-.072 2.94 0 1.876.015 2.723.055 1.619.1 2.286.094 1.233.164 1.648c.147-.57.288-1.237.43-1.979s.276-1.555.4-2.417.246-1.766.351-2.7.2-1.875.274-2.819.132-1.884.169-2.793.05-1.784.039-2.6-.044-1.584-.114-2.266a11.7 11.7 0 0 0-.297-1.77z" class="cls-7" data-name="Path 3824" transform="translate(-346.964 -491.733)"/>
                        <path id="Path_3825" d="M366.994 491.766a8.488 8.488 0 0 0-.537 1.713 23.316 23.316 0 0 0-.375 2.337c-.1.86-.176 1.79-.233 2.753s-.092 1.959-.108 2.955-.022 1.985-.011 2.942.035 1.876.072 2.727.086 1.621.143 2.284.123 1.233.2 1.649c.134-.568.268-1.239.391-1.981s.241-1.555.349-2.416.206-1.77.294-2.7.16-1.878.215-2.823.1-1.884.114-2.791.013-1.788-.018-2.609-.081-1.588-.164-2.269a11.879 11.879 0 0 0-.332-1.771z" class="cls-7" data-name="Path 3825" transform="translate(-348.181 -491.735)"/>
                        <path id="Path_3826" d="M365.3 491.763a8.458 8.458 0 0 0-.5 1.715c-.134.689-.243 1.479-.323 2.341s-.143 1.792-.18 2.758-.048 1.959-.048 2.955.02 1.99.053 2.948.077 1.878.129 2.727.121 1.624.191 2.293.151 1.233.233 1.648c.125-.57.241-1.239.351-1.983s.211-1.556.3-2.42.169-1.773.235-2.7.118-1.878.154-2.826.055-1.885.055-2.8-.024-1.79-.068-2.609-.118-1.588-.213-2.273a11.8 11.8 0 0 0-.369-1.774z" class="cls-6" data-name="Path 3826" transform="translate(-349.419 -491.737)"/>
                        <path id="Path_3827" d="M363.616 491.76a8.3 8.3 0 0 0-.465 1.718 23.454 23.454 0 0 0-.277 2.341c-.062.864-.1 1.8-.118 2.762s-.006 1.961.016 2.959a94.86 94.86 0 0 0 .299 5.684c.071.849.151 1.628.235 2.3s.176 1.231.27 1.652c.112-.57.215-1.244.309-1.988s.178-1.558.25-2.424.132-1.773.18-2.707.079-1.882.1-2.828.018-1.889 0-2.8-.064-1.794-.129-2.615-.145-1.588-.257-2.277a12.156 12.156 0 0 0-.413-1.777z" class="cls-6" data-name="Path 3827" transform="translate(-350.673 -491.74)"/>
                        <path id="Path_3828" d="M361.952 491.757a8.424 8.424 0 0 0-.426 1.722 23.271 23.271 0 0 0-.23 2.343c-.044.864-.066 1.8-.062 2.766s.037 1.963.079 2.964.1 2 .175 2.953.154 1.886.244 2.736.182 1.628.283 2.3.2 1.237.3 1.654c.1-.572.188-1.242.266-1.988s.145-1.564.2-2.428.1-1.777.123-2.711.04-1.883.037-2.83-.024-1.893-.064-2.8-.1-1.8-.176-2.617-.18-1.591-.307-2.279a12.561 12.561 0 0 0-.442-1.785z" class="cls-6" data-name="Path 3828" transform="translate(-351.943 -491.742)"/>
                        <path id="Path_3829" d="M360.3 491.754a8.3 8.3 0 0 0-.391 1.726 23.216 23.216 0 0 0-.18 2.349c-.026.862-.026 1.8 0 2.768s.072 1.966.136 2.966.147 2 .239 2.959.193 1.887.3 2.74.217 1.63.333 2.3.226 1.239.34 1.656c.086-.573.16-1.244.222-1.994s.112-1.562.149-2.43.059-1.779.068-2.711 0-1.887-.022-2.839-.062-1.893-.121-2.806-.138-1.8-.237-2.621-.213-1.593-.353-2.282a12.593 12.593 0 0 0-.483-1.781z" class="cls-7" data-name="Path 3829" transform="translate(-353.223 -491.745)"/>
                        <path id="Path_3830" d="M358.653 491.751a8.161 8.161 0 0 0-.357 1.726c-.079.691-.119 1.487-.13 2.35s.009 1.8.055 2.771.118 1.97.2 2.969.186 2 .3 2.962.233 1.889.358 2.742.255 1.632.382 2.3.252 1.242.371 1.658c.077-.572.134-1.244.182-1.988s.085-1.568.1-2.437.022-1.781.011-2.714-.04-1.889-.085-2.841-.1-1.895-.178-2.81-.175-1.8-.288-2.624-.25-1.6-.4-2.282a13.149 13.149 0 0 0-.521-1.782z" class="cls-7" data-name="Path 3830" transform="translate(-354.514 -491.747)"/>
                        <path id="Path_3831" d="M357.019 491.75a7.971 7.971 0 0 0-.324 1.724c-.064.693-.088 1.489-.081 2.354s.05 1.8.116 2.769.156 1.972.261 2.973.228 2 .36 2.962.272 1.889.415 2.744.287 1.634.428 2.306.278 1.24.408 1.659c.062-.568.112-1.244.143-1.992s.046-1.566.046-2.435-.017-1.781-.046-2.716-.079-1.891-.141-2.841-.142-1.9-.239-2.814-.209-1.8-.342-2.624-.283-1.6-.45-2.286a13.484 13.484 0 0 0-.554-1.783z" class="cls-13" data-name="Path 3831" transform="translate(-355.813 -491.748)"/>
                        <path id="Path_3832" d="M370.446 491.769a9.016 9.016 0 0 0-.608 1.713c-.18.684-.336 1.474-.472 2.332s-.254 1.786-.351 2.749-.169 1.955-.231 2.95-.1 1.985-.132 2.939a76.05 76.05 0 0 0 .004 5.008c.029.667.07 1.228.132 1.646.158-.568.316-1.235.472-1.979s.309-1.553.452-2.413.283-1.768.408-2.7.237-1.876.333-2.817.173-1.882.23-2.788.088-1.786.092-2.608-.013-1.584-.066-2.264a11.9 11.9 0 0 0-.263-1.768z" class="cls-13" data-name="Path 3832" transform="translate(-345.763 -491.732)"/>
                        <path id="Path_3833" d="M356.289 491.749a23.946 23.946 0 0 0-.057 4.08c.042.864.1 1.8.186 2.771s.175 1.972.278 2.972.219 2 .333 2.966.235 1.887.353 2.742c.237 1.705.463 3.124.647 3.966.02-1.147-.011-2.692-.084-4.425-.039-.867-.081-1.785-.142-2.72s-.125-1.891-.2-2.841-.164-1.9-.257-2.815-.2-1.8-.307-2.624a33.007 33.007 0 0 0-.75-4.072z" class="cls-26" data-name="Path 3833" transform="translate(-356.178 -491.749)"/>
                        <path id="Path_3834" d="M357.907 491.751a24.154 24.154 0 0 0-.138 4.078c.022.866.062 1.8.121 2.769s.136 1.972.215 2.969.176 2.005.27 2.966.2 1.887.3 2.742c.2 1.7.4 3.12.562 3.962.046-1.145.05-2.692.009-4.427a145.972 145.972 0 0 0-.228-5.555c-.057-.95-.127-1.9-.2-2.812s-.158-1.8-.25-2.624a32.5 32.5 0 0 0-.661-4.068z" class="cls-27" data-name="Path 3834" transform="translate(-354.861 -491.747)"/>
                        <path id="Path_3835" d="M359.536 491.753a23.846 23.846 0 0 0-.226 4.074c.006.864.026 1.8.066 2.769s.1 1.968.154 2.966.134 2 .21 2.962.154 1.887.239 2.738c.165 1.7.333 3.12.483 3.96.07-1.147.1-2.69.1-4.422 0-.867-.007-1.781-.028-2.712s-.046-1.889-.084-2.841-.083-1.9-.14-2.81-.121-1.8-.2-2.619a32.777 32.777 0 0 0-.574-4.065z" class="cls-27" data-name="Path 3835" transform="translate(-353.555 -491.746)"/>
                        <path id="Path_3836" d="M361.173 491.756a23.622 23.622 0 0 0-.309 4.069c-.011.864-.013 1.8.006 2.766s.055 1.966.1 2.964.088 2 .143 2.957.119 1.885.184 2.734c.13 1.7.268 3.118.4 3.955.094-1.145.158-2.683.193-4.416.017-.866.028-1.777.028-2.711s0-1.886-.022-2.836-.05-1.895-.086-2.8-.081-1.8-.14-2.621a31.869 31.869 0 0 0-.497-4.061z" class="cls-8" data-name="Path 3836" transform="translate(-352.259 -491.743)"/>
                        <path id="Path_3837" d="M362.829 491.759a23.382 23.382 0 0 0-.4 4.061c-.029.863-.052 1.8-.052 2.764s.013 1.963.033 2.959.048 2 .083 2.955.077 1.882.125 2.731c.1 1.7.206 3.109.32 3.951.118-1.145.217-2.683.285-4.412a135.316 135.316 0 0 0 .118-5.537 99.677 99.677 0 0 0-.108-5.415 31.579 31.579 0 0 0-.404-4.057z" class="cls-8" data-name="Path 3837" transform="translate(-350.98 -491.741)"/>
                        <path id="Path_3838" d="M364.5 491.762a23.783 23.783 0 0 0-.48 4.058c-.05.862-.088 1.792-.11 2.758s-.029 1.961-.029 2.957.009 2 .024 2.951.039 1.878.068 2.727c.059 1.7.138 3.108.237 3.944.14-1.139.27-2.678.377-4.4.051-.862.1-1.773.14-2.7s.07-1.884.094-2.83.035-1.889.037-2.8-.011-1.792-.035-2.613a31.286 31.286 0 0 0-.323-4.052z" class="cls-8" data-name="Path 3838" transform="translate(-349.722 -491.738)"/>
                        <path id="Path_3839" d="M366.21 491.765a24.2 24.2 0 0 0-.564 4.052c-.066.86-.125 1.79-.167 2.755s-.068 1.961-.088 2.953-.039 2-.042 2.949 0 1.873.015 2.723c.024 1.693.073 3.1.151 3.936.167-1.139.327-2.676.469-4.4.07-.862.138-1.77.2-2.7s.112-1.88.154-2.827.072-1.885.094-2.793.028-1.79.02-2.609a31.232 31.232 0 0 0-.242-4.039z" class="cls-27" data-name="Path 3839" transform="translate(-348.496 -491.736)"/>
                        <path id="Path_3840" d="M367.95 491.767a24.533 24.533 0 0 0-.647 4.048c-.086.86-.165 1.79-.228 2.753s-.11 1.957-.152 2.949-.073 1.989-.1 2.944-.038 1.873-.046 2.718c-.015 1.695.007 3.1.068 3.938.191-1.141.384-2.674.562-4.4.09-.86.176-1.766.254-2.7s.151-1.876.213-2.821.112-1.884.153-2.791.064-1.786.075-2.608a31.256 31.256 0 0 0-.152-4.03z" class="cls-27" data-name="Path 3840" transform="translate(-347.302 -491.734)"/>
                        <path id="Path_3841" d="M369.712 491.768a24.518 24.518 0 0 0-.735 4.047c-.1.858-.2 1.788-.283 2.751s-.153 1.955-.215 2.948-.118 1.988-.162 2.94-.077 1.873-.1 2.718c-.05 1.693-.057 3.1-.013 3.936.213-1.139.439-2.67.652-4.39a150.69 150.69 0 0 0 .792-8.31c.06-.909.1-1.784.13-2.6a31.4 31.4 0 0 0-.066-4.04z" class="cls-26" data-name="Path 3841" transform="translate(-346.128 -491.733)"/>
                    </g>
                    <path id="Path_3842" d="M362.3 460.428c-.075 1.645-.009 3.657.005 5.375.011 2.183-.013 4.594-.156 6.766-.042.647-.366 2.672-.32 3.062.2 1.659 2.4 1.439 3.569 1.178l.189-.042c1.478-.349.878-1.878.684-2.992a46.382 46.382 0 0 1-.25-7.518c.006-.746.088-3.912-.033-5.576-.09-1.229-1.264-.807-1.83-.785-.733.027-1.827-.208-1.858.532z" class="cls-24" data-name="Path 3842" transform="translate(-347.774 -439.151)"/>
                    <path id="Path_3843" d="M362.918 461.542c-.044 1.363-.005 2.6 0 4.026a43.489 43.489 0 0 1-.588 7.748c-.235 1.389.634 1.65 1.841 1.621 1.878-.048.845-1.895.641-3.076a35.779 35.779 0 0 1-.257-5.916 38.6 38.6 0 0 0-.035-4.33c-.1-1.005-.415-.959-.739-.941a.844.844 0 0 0-.863.868z" class="cls-28" data-name="Path 3843" transform="translate(-347.379 -438.432)"/>
                    <path id="Path_3844" d="M363.347 463.1c-.057-.739.084-3.317.485-2.249a6.864 6.864 0 0 1 .27 2.446 55.65 55.65 0 0 0 .149 8.459c.031.231.785 2.971-.052 2.527-1.136-.6-.873-4.484-.847-5.557.017-.68.039-1.36.051-2.04.017-1.208.019-2.379-.056-3.586z" class="cls-8" data-name="Path 3844" transform="translate(-346.529 -438.492)"/>
                    <path id="Path_3845" d="M362.968 461.713c-.3-.136-.292.505-.305.773-.035.776.026 1.426.044 2.187a39.636 39.636 0 0 1-.373 7.121c-.164 1.051-.386 2.176.915 2.464 1.062.233-.068-.943-.18-1.263a10.213 10.213 0 0 1 .068-2.145c.09-1.63.2-3.19.189-4.826v-1.194c.004-.446.151-2.888-.358-3.117z" class="cls-29" data-name="Path 3845" transform="translate(-347.45 -437.573)"/>
                    <g id="Group_376" data-name="Group 376" transform="translate(5.773 45.613)">
                        <path id="Path_3846" d="M360.48 497.742a16.961 16.961 0 0 1-3.161-10.128 17.358 17.358 0 0 1 2.433-9.062 10.646 10.646 0 0 1 6.074-4.883 8.11 8.11 0 0 1 4.234 0 10.658 10.658 0 0 1 6.073 4.883 16.386 16.386 0 0 1 2.124 5.651 21.869 21.869 0 0 0 .25 4.9 16.534 16.534 0 0 1-3.1 8.639c-1.384 1.821-13.545 1.821-14.927 0z" class="cls-30" data-name="Path 3846" transform="translate(-357.319 -473.389)"/>
                        <path id="Path_3847" d="M364.995 495.271c-.272-4.392.992-9.117.535-13.9-.149-1.568-.456-5.419 1.02-7.917-.243.044-.485.1-.724.162a10.647 10.647 0 0 0-6.074 4.883 17.358 17.358 0 0 0-2.433 9.061 16.961 16.961 0 0 0 3.161 10.128c.636.838 3.561 1.29 6.667 1.356a5.028 5.028 0 0 1-2.152-3.773z" class="cls-31" data-name="Path 3847" transform="translate(-357.319 -473.335)"/>
                        <path id="Path_3848" d="M361.514 495.325a5.026 5.026 0 0 0 2.15 3.773 34.443 34.443 0 0 0 4.476-.184c2.852-2.356 1.051-8.137.8-11.155-.272-3.571.274-6.748.423-10.256a8.278 8.278 0 0 0-.272-2.7 8.864 8.864 0 0 0-2.51-1.134 8.157 8.157 0 0 0-2.117-.281q-.342 0-.684.028a8.747 8.747 0 0 0-1.058.779c-1.075 2.468-.807 5.8-.671 7.229.455 4.785-.809 9.509-.537 13.901z" class="cls-32" data-name="Path 3848" transform="translate(-353.838 -473.389)"/>
                        <path id="Path_3849" d="M358.273 477.918a27.176 27.176 0 0 0-.217 6.1c.1 1.832.268 4.229.5 6.48a18.675 18.675 0 0 1-.283-12.575z" class="cls-32" data-name="Path 3849" transform="translate(-357.319 -469.595)"/>
                        <path id="Path_3850" d="M360.811 496.682a6.418 6.418 0 0 0 2.2.671 32.434 32.434 0 0 0 8.955 0 6.517 6.517 0 0 0 2.2-.661 15.99 15.99 0 0 0 2.959-9.528 16.369 16.369 0 0 0-2.284-8.54 9.681 9.681 0 0 0-5.489-4.447 7.082 7.082 0 0 0-3.716 0 9.674 9.674 0 0 0-5.489 4.447 16.371 16.371 0 0 0-2.286 8.54 15.976 15.976 0 0 0 2.953 9.519zm12.581-.419a8.841 8.841 0 0 1-1.636.423 29.613 29.613 0 0 1-8.53 0 8.65 8.65 0 0 1-1.639-.426 16.127 16.127 0 0 1-2.628-9.108 16.52 16.52 0 0 1 2.111-8.3 8.7 8.7 0 0 1 4.842-4.15 5.716 5.716 0 0 1 3.157 0 8.708 8.708 0 0 1 4.842 4.15 16.518 16.518 0 0 1 2.11 8.3 16.136 16.136 0 0 1-2.629 9.111z" class="cls-33" data-name="Path 3850" transform="translate(-356.867 -472.938)"/>
                        <path id="Path_3851" d="M365.356 474.77c.063-.237.136-.47.217-.7a9.706 9.706 0 0 0-5.428 4.431 16.371 16.371 0 0 0-2.286 8.54 15.976 15.976 0 0 0 2.953 9.519 6.416 6.416 0 0 0 2.2.671 24.505 24.505 0 0 0 2.595.265 4.822 4.822 0 0 1-.467-.7 20.631 20.631 0 0 1-1.915-.228 8.636 8.636 0 0 1-1.639-.426 16.126 16.126 0 0 1-2.628-9.107 16.52 16.52 0 0 1 2.111-8.3 9.056 9.056 0 0 1 4.287-3.965z" class="cls-34" data-name="Path 3851" transform="translate(-356.867 -472.817)"/>
                        <path id="Path_3852" d="M361.82 496.914a5.14 5.14 0 0 0 .467.7c.634.033 1.264.046 1.885.046a28.47 28.47 0 0 0 4.477-.311l.12-.02a4.677 4.677 0 0 0 .331-.781c-.268.061-.518.108-.662.134a25.717 25.717 0 0 1-4.265.309c-.779 0-1.568-.022-2.352-.081zm7.259-20.091a10.3 10.3 0 0 0-.026-1.059 8.183 8.183 0 0 0-3.023-1.588 7.082 7.082 0 0 0-3.716 0l-.061.017a8.01 8.01 0 0 0-.217.7 5.83 5.83 0 0 1 .557-.187 5.716 5.716 0 0 1 3.157 0 7.447 7.447 0 0 1 3.329 2.116z" class="cls-35" data-name="Path 3852" transform="translate(-353.549 -472.938)"/>
                        <path id="Path_3853" d="M368.482 476.227c-4.725-3.264-4.956 1.819-7.731 3.72 3.817-.8 7.242-1.218 10.113.314a6.849 6.849 0 0 0-7.834-1.542c1.733-1.3 2.946-2.887 5.452-2.492zm-8.791 13.973c2.791-.11 4.519-.36 5.643-1.051-2.437-1.051-4.807-1.779-5.643 1.051zm6.647-1.979a6.147 6.147 0 0 0 .889-2.121 11.65 11.65 0 0 1-.3 2.3c2.314.689 4.429.952 5.008-1.827.325 5.48-2.453 4.409-5.478 3.069-.981 1.779-3.01 2.093-6.77.553.325-4.3 3.561-2.961 6.647-1.979zm4.287 6.261c-3.76-4.124-6.8-2.735-8.981.3 2.084-1.799 4.896-2.226 8.981-.3z" class="cls-14" data-name="Path 3853" transform="translate(-355.332 -471.906)"/>
                        <path id="Path_3854" d="M363.008 493.131c-.011-.195-.02-.39-.028-.586a9.666 9.666 0 0 0-1.336 1.527 6.583 6.583 0 0 1 1.367-.921v-.02zm0-2.694q.03-.62.079-1.246a26.9 26.9 0 0 1-3.392.3c.586-1.986 1.931-2.22 3.525-1.817.031-.346.066-.693.1-1.04-1.9-.368-3.407-.007-3.624 2.858a12.887 12.887 0 0 0 3.313.948zm.494-11.7a28.89 28.89 0 0 1-.059-.882c-.136.048-.272.1-.41.154.138-.1.27-.208.4-.312a21.265 21.265 0 0 1-.009-1.685 12.758 12.758 0 0 1-2.672 3.225 40.67 40.67 0 0 1 2.748-.503z" class="cls-24" data-name="Path 3854" transform="translate(-355.332 -471.194)"/>
                        <path id="Path_3855" d="M361.509 493.843v.02c1.915-.956 4.361-.915 7.615.619-3.045-3.339-5.618-3.064-7.645-1.226.007.2.017.392.028.586zm8.021-3.439c-1.018.757-2.749.05-4.568-.757a3.117 3.117 0 0 1-3.457 1.5q.03-.62.079-1.246a6.3 6.3 0 0 0 2.251-.754 14.337 14.337 0 0 0-2.119-.766c.031-.346.066-.693.1-1.04a29.19 29.19 0 0 1 3.023.879 6.15 6.15 0 0 0 .889-2.121 11.65 11.65 0 0 1-.3 2.3c1.465.435 2.85.7 3.817.132.1.6.2 1.226.281 1.867zm-.465-10.3l.009-.114a6.74 6.74 0 0 0-7.134-1.43c.017.324.037.619.059.882a12.09 12.09 0 0 1 7.066.662zm-7.141-3.387c1.09-1.472 2.319-2.387 5.059-.494-2.308-.364-3.519.954-5.05 2.18a20.269 20.269 0 0 1-.009-1.682z" class="cls-25" data-name="Path 3855" transform="translate(-353.833 -471.906)"/>
                        <path id="Path_3856" d="M364.268 482.322a.1.1 0 0 1-.1.1.1.1 0 0 1-.1-.1c.006-.156-.051-.2-.143-.206a1.776 1.776 0 0 0-.27.022 1.367 1.367 0 0 1-1.187-.25 1.819 1.819 0 0 1-.469-1.415 2.407 2.407 0 0 1 .119-.656 1.622 1.622 0 0 1 .3-.55.975.975 0 0 1 .807-.349.78.78 0 0 1 .52.287 2.1 2.1 0 0 1 .4.709 2.443 2.443 0 0 1 .132.862 1.209 1.209 0 0 1-.351.862.831.831 0 0 1-.252.156.935.935 0 0 1-.584.028 1.03 1.03 0 0 1-.5-.3.876.876 0 0 1-.169-.266.1.1 0 1 1 .186-.073.7.7 0 0 0 .13.208.841.841 0 0 0 .406.241.738.738 0 0 0 .459-.02.592.592 0 0 0 .191-.119 1.014 1.014 0 0 0 .287-.724 2.2 2.2 0 0 0-.121-.787 1.838 1.838 0 0 0-.357-.64.591.591 0 0 0-.382-.222.785.785 0 0 0-.647.283 1.383 1.383 0 0 0-.263.481 2.228 2.228 0 0 0-.108.6 1.616 1.616 0 0 0 .4 1.255 1.2 1.2 0 0 0 1.031.2 1.834 1.834 0 0 1 .3-.024c.219.011.349.1.336.413zm6.924-.4a.1.1 0 0 1-.138.022.1.1 0 0 1-.026-.14 2.1 2.1 0 0 0 .344-1.04v-.009a.862.862 0 0 1-.134-.018.31.31 0 0 1-.154-.083.19.19 0 0 1-.048-.173.388.388 0 0 1 .119-.191l.035-.029a.543.543 0 0 1 .176-.081 3.251 3.251 0 0 0-.145-.735c-.068-.21-.151-.314-.217-.344l-.024-.006-.007.017a.374.374 0 0 0 .1.277.1.1 0 0 1-.024.14.1.1 0 0 1-.14-.024.552.552 0 0 1-.123-.448.215.215 0 0 1 .116-.143.23.23 0 0 1 .187 0 .721.721 0 0 1 .329.465 3.665 3.665 0 0 1 .153.759 1.455 1.455 0 0 1 .254-.005 1.257 1.257 0 0 1 .491.125.92.92 0 0 0 .316-.544.906.906 0 0 0-.053-.509.565.565 0 0 0-.288-.311.68.68 0 0 0-.7.213.1.1 0 0 1-.13-.152.86.86 0 0 1 .908-.245.757.757 0 0 1 .4.417 1.106 1.106 0 0 1 .066.623 1.112 1.112 0 0 1-.342.625l.018.018a.521.521 0 0 1 .048.059.907.907 0 0 1 .079.572 1.016 1.016 0 0 0 .11.685.251.251 0 0 0 .252.114.177.177 0 0 0 .1-.073.09.09 0 0 0 .011-.083c-.018-.046-.085-.09-.222-.11a.1.1 0 1 1 .028-.2.442.442 0 0 1 .38.232.285.285 0 0 1-.029.268.376.376 0 0 1-.22.156.44.44 0 0 1-.458-.18 1.155 1.155 0 0 1-.158-.823.8.8 0 0 0-.04-.443l-.031-.037-.035-.031a1.476 1.476 0 0 1-.469.193 2.3 2.3 0 0 1-.279.05v.035a2.3 2.3 0 0 1-.379 1.139zm.191-1.365v-.171a.3.3 0 0 0-.072.037l-.013.011a.192.192 0 0 0-.062.085.1.1 0 0 0 .051.022.488.488 0 0 0 .1.015zm.2-.215v.2c.068-.009.143-.022.226-.04a1.394 1.394 0 0 0 .305-.112 1.244 1.244 0 0 0-.3-.057 1.56 1.56 0 0 0-.23.006zm-7.215-1.064c-.079.072-.134.094-.167.086l-.017-.011a.1.1 0 0 1-.017-.037.2.2 0 0 1 .061-.18.276.276 0 0 1 .147-.081.163.163 0 0 1 .121.037c.158.127.116.338.077.527-.011.048-.02.094-.026.132a3.575 3.575 0 0 0 .057 2.031.4.4 0 0 0 .382.235.721.721 0 0 0 .432-.222 1.914 1.914 0 0 0 .285-.349 1.34 1.34 0 0 0 .114.323.366.366 0 0 0 .367.241.529.529 0 0 0 .267-.134.459.459 0 0 0 .187-.426.29.29 0 0 0-.066-.14.285.285 0 0 0-.127-.085.33.33 0 0 0-.344.1.1.1 0 0 0 0 .141.1.1 0 0 0 .141 0 .152.152 0 0 1 .143-.055.1.1 0 0 1 .037.024.1.1 0 0 1 .02.048.266.266 0 0 1-.121.237.33.33 0 0 1-.162.088c-.063.007-.118-.044-.165-.134a1.685 1.685 0 0 1-.138-.489 4.356 4.356 0 0 0 .465-1.533 1.172 1.172 0 0 0-.118-.739.288.288 0 0 0-.143-.121.206.206 0 0 0-.191.024.663.663 0 0 0-.213.414 7.739 7.739 0 0 0-.005 1.92 2.116 2.116 0 0 1-.369.494.541.541 0 0 1-.305.171.22.22 0 0 1-.2-.134 3.435 3.435 0 0 1-.031-1.9c.005-.044.015-.085.022-.123.05-.246.1-.52-.147-.722a.351.351 0 0 0-.27-.081.469.469 0 0 0-.261.136.4.4 0 0 0-.116.364.291.291 0 0 0 .057.123.236.236 0 0 0 .121.077.394.394 0 0 0 .351-.13.1.1 0 0 0-.136-.149zm1.446 1.54a7.371 7.371 0 0 1 .037-1.54.5.5 0 0 1 .129-.29h.013c.013 0 .028.02.044.044a.973.973 0 0 1 .084.6 4.336 4.336 0 0 1-.309 1.185zm.5-.443a.1.1 0 0 1 .112-.165l.05.033v-.064a1.638 1.638 0 0 1 .314-.9 1.269 1.269 0 0 1 .643-.461.769.769 0 0 1 .527.048.985.985 0 0 1 .39.333 1.157 1.157 0 0 1 .213.706.824.824 0 0 1-.138.432.838.838 0 0 1-.45.316 1.624 1.624 0 0 1-.588.062 2.44 2.44 0 0 1-.707-.152 2.01 2.01 0 0 0 .09.436 1.3 1.3 0 0 0 .39.612.8.8 0 0 0 .456.184 1.186 1.186 0 0 0 .494-.062.605.605 0 0 0 .3-.215.324.324 0 0 0 0-.314.447.447 0 0 0-.092-.125.263.263 0 0 0-.112-.063.172.172 0 0 0-.171.053.248.248 0 0 0-.07.165.24.24 0 0 0 .013.085.077.077 0 0 0 .031.037.116.116 0 0 0 .077 0 .1.1 0 0 1 .123.072.1.1 0 0 1-.072.121.3.3 0 0 1-.221-.018.274.274 0 0 1-.123-.138.4.4 0 0 1-.028-.171.459.459 0 0 1 .129-.3.367.367 0 0 1 .356-.1.476.476 0 0 1 .2.11.6.6 0 0 1 .138.186.523.523 0 0 1-.013.509.788.788 0 0 1-.406.3 1.385 1.385 0 0 1-.577.075 1.019 1.019 0 0 1-.566-.228 1.492 1.492 0 0 1-.454-.708 2.251 2.251 0 0 1-.108-.588 1.492 1.492 0 0 1-.162-.1zm.358-.031a2.227 2.227 0 0 0 .728.171 1.474 1.474 0 0 0 .516-.052.652.652 0 0 0 .347-.241.633.633 0 0 0 .1-.329.937.937 0 0 0-.176-.579.8.8 0 0 0-.309-.268.581.581 0 0 0-.393-.033 1.071 1.071 0 0 0-.54.393 1.454 1.454 0 0 0-.27.788c0 .048-.005.1-.005.149zm1.924-1.391c.22.158.167.954.13 1.514a5.599 5.599 0 0 0-.022.448 1.43 1.43 0 0 0 .246.967.378.378 0 0 0 .377.107.865.865 0 0 0 .38-.241 1.978 1.978 0 0 0 .255-.32 1.433 1.433 0 0 0 .114.323.365.365 0 0 0 .368.241.53.53 0 0 0 .266-.134.459.459 0 0 0 .187-.427.287.287 0 0 0-.193-.224.33.33 0 0 0-.344.1.1.1 0 0 0 0 .141.1.1 0 0 0 .141 0 .153.153 0 0 1 .143-.055.1.1 0 0 1 .037.024.127.127 0 0 1 .022.048.273.273 0 0 1-.123.237.331.331 0 0 1-.162.088c-.063.007-.118-.044-.165-.134a1.688 1.688 0 0 1-.138-.487 4.378 4.378 0 0 0 .465-1.534 1.172 1.172 0 0 0-.118-.739.3.3 0 0 0-.143-.121.205.205 0 0 0-.191.024.662.662 0 0 0-.213.414 7.736 7.736 0 0 0-.006 1.92 2.172 2.172 0 0 1-.344.47.673.673 0 0 1-.287.188.189.189 0 0 1-.187-.052 1.278 1.278 0 0 1-.189-.827c0-.1.011-.257.022-.434.04-.606.1-1.466-.213-1.691a.1.1 0 0 0-.14.022.1.1 0 0 0 .024.14zm1.477 1.847a7.382 7.382 0 0 1 .037-1.54.486.486 0 0 1 .131-.29h.013c.013 0 .028.02.044.044a.973.973 0 0 1 .085.6 4.343 4.343 0 0 1-.309 1.185zm-9.231.878a.1.1 0 0 1-.127.062.1.1 0 0 1-.063-.127.511.511 0 0 1 .2-.268.4.4 0 0 1 .2-.064.343.343 0 0 1 .2.053.326.326 0 0 1 .129.176.427.427 0 0 1-.028.327.649.649 0 0 1-.289.272 1.03 1.03 0 0 1-.424.112.953.953 0 0 1-.674-.224c-.281-.244-.167-.956-.055-1.645.1-.634.2-1.246.006-1.319a.232.232 0 0 0-.186.017.279.279 0 0 0-.085.062.228.228 0 0 0-.048.075.1.1 0 0 0 0 .072.129.129 0 0 0 .07.061.117.117 0 0 0 .088-.007.1.1 0 0 1 .132.053.1.1 0 0 1-.053.132.313.313 0 0 1-.233.009.35.35 0 0 1-.182-.158.285.285 0 0 1-.009-.23.431.431 0 0 1 .088-.143.466.466 0 0 1 .14-.1.427.427 0 0 1 .344-.026c.355.129.243.823.127 1.54-.1.634-.21 1.288-.013 1.461a.758.758 0 0 0 .533.176.843.843 0 0 0 .342-.09.459.459 0 0 0 .2-.187.222.222 0 0 0 .017-.178.117.117 0 0 0-.046-.066.133.133 0 0 0-.081-.02.184.184 0 0 0-.1.033.3.3 0 0 0-.118.164zm.764.551a1.506 1.506 0 0 0 .206-1 4.359 4.359 0 0 0-.345-1.373.876.876 0 0 1-.059-.178.394.394 0 0 1 .015-.261.228.228 0 0 1 .116-.112l.042-.013a.181.181 0 0 1 .187.052.133.133 0 0 1 .029.061.157.157 0 0 1 0 .072.205.205 0 0 1-.167.147.1.1 0 0 0-.072.119.1.1 0 0 0 .121.074.4.4 0 0 0 .314-.3.328.328 0 0 0 0-.158.348.348 0 0 0-.068-.141.375.375 0 0 0-.386-.125.568.568 0 0 0-.079.026.424.424 0 0 0-.217.208.591.591 0 0 0-.031.39 1.223 1.223 0 0 0 .072.215 4.185 4.185 0 0 1 .331 1.309 1.326 1.326 0 0 1-.167.862.1.1 0 0 0 .16.121z" class="cls-9" data-name="Path 3856" transform="translate(-355.587 -468.973)"/>
                        <path id="Path_3857" d="M363.775 482.045l.017-.2c-.051 0-.1.011-.162.018a1.2 1.2 0 0 1-1.031-.2 1.616 1.616 0 0 1-.4-1.255 2.227 2.227 0 0 1 .108-.6 1.385 1.385 0 0 1 .263-.482.785.785 0 0 1 .647-.283.591.591 0 0 1 .382.222 1.689 1.689 0 0 1 .292.472c0-.138 0-.274.006-.412a1.653 1.653 0 0 0-.151-.195.78.78 0 0 0-.52-.287.975.975 0 0 0-.807.349 1.623 1.623 0 0 0-.3.55 2.408 2.408 0 0 0-.119.656 1.819 1.819 0 0 0 .469 1.415 1.367 1.367 0 0 0 1.187.25l.119-.015zm.029-.393a.77.77 0 0 1-.129.064.936.936 0 0 1-.584.028 1.029 1.029 0 0 1-.5-.3.875.875 0 0 1-.169-.266.1.1 0 1 1 .186-.074.7.7 0 0 0 .13.208.84.84 0 0 0 .406.241.74.74 0 0 0 .459-.02.6.6 0 0 0 .191-.119l.031-.028-.018.268zm-2.962-.05a.1.1 0 0 1-.127.062.1.1 0 0 1-.063-.127.511.511 0 0 1 .2-.268.4.4 0 0 1 .2-.064.343.343 0 0 1 .2.053.327.327 0 0 1 .129.176.427.427 0 0 1-.028.327.648.648 0 0 1-.289.272 1.029 1.029 0 0 1-.424.112.954.954 0 0 1-.674-.224c-.281-.244-.167-.956-.055-1.645.1-.634.2-1.246.006-1.319a.232.232 0 0 0-.186.017.282.282 0 0 0-.085.062.227.227 0 0 0-.048.075.1.1 0 0 0 0 .072.129.129 0 0 0 .07.061.117.117 0 0 0 .088-.007.1.1 0 0 1 .132.053.1.1 0 0 1-.053.132.313.313 0 0 1-.233.009.35.35 0 0 1-.182-.158.285.285 0 0 1-.009-.23.43.43 0 0 1 .088-.143.468.468 0 0 1 .14-.1.428.428 0 0 1 .344-.026c.355.129.243.823.127 1.54-.1.634-.21 1.288-.013 1.461a.758.758 0 0 0 .533.176.845.845 0 0 0 .342-.09.459.459 0 0 0 .2-.187.222.222 0 0 0 .017-.178.118.118 0 0 0-.046-.066.134.134 0 0 0-.081-.02.183.183 0 0 0-.1.033.3.3 0 0 0-.118.164zm.764.551a.1.1 0 0 1-.16-.121 1.326 1.326 0 0 0 .167-.862 4.183 4.183 0 0 0-.331-1.309 1.228 1.228 0 0 1-.072-.215.59.59 0 0 1 .031-.39.423.423 0 0 1 .217-.208.568.568 0 0 1 .079-.026.375.375 0 0 1 .386.125.347.347 0 0 1 .068.141.327.327 0 0 1 0 .158.4.4 0 0 1-.314.3.1.1 0 0 1-.121-.074.1.1 0 0 1 .072-.119.205.205 0 0 0 .167-.147.156.156 0 0 0 0-.072.134.134 0 0 0-.029-.061.181.181 0 0 0-.187-.052l-.042.013a.229.229 0 0 0-.116.112.394.394 0 0 0-.015.261.873.873 0 0 0 .059.178 4.36 4.36 0 0 1 .345 1.373 1.507 1.507 0 0 1-.203.996z" class="cls-33" data-name="Path 3857" transform="translate(-355.587 -468.902)"/>
                        <path id="Path_3858" d="M368.618 481.876v-.254l-.035.033a.331.331 0 0 1-.162.088c-.063.007-.118-.044-.165-.134a1.687 1.687 0 0 1-.138-.487 4.379 4.379 0 0 0 .465-1.534 1.172 1.172 0 0 0-.118-.739.3.3 0 0 0-.143-.121.205.205 0 0 0-.191.024.662.662 0 0 0-.213.413 7.738 7.738 0 0 0-.005 1.92 2.186 2.186 0 0 1-.344.471.674.674 0 0 1-.287.187.189.189 0 0 1-.187-.051 1.278 1.278 0 0 1-.189-.827c0-.1.011-.257.022-.434.04-.606.1-1.466-.213-1.691a.1.1 0 0 0-.14.022.1.1 0 0 0 .024.14c.221.158.167.954.13 1.514a5.599 5.599 0 0 0-.022.448 1.429 1.429 0 0 0 .246.967.378.378 0 0 0 .377.107.863.863 0 0 0 .38-.241 1.984 1.984 0 0 0 .255-.32 1.427 1.427 0 0 0 .114.323.366.366 0 0 0 .367.241.455.455 0 0 0 .175-.066zm-.006-.533a.185.185 0 0 0-.112.059.1.1 0 0 1-.142 0 .1.1 0 0 1 0-.142.367.367 0 0 1 .252-.118v.2zm-6.715-2c0 .138 0 .274-.006.412.024.053.044.11.064.167a2.2 2.2 0 0 1 .121.787 1.046 1.046 0 0 1-.255.7l-.018.268a.926.926 0 0 0 .123-.092 1.208 1.208 0 0 0 .351-.862 2.442 2.442 0 0 0-.132-.862 2.305 2.305 0 0 0-.248-.514zm-.107 2.521l-.016.2a1.15 1.15 0 0 1 .151-.007c.092 0 .149.05.143.206a.1.1 0 0 0 .1.1.1.1 0 0 0 .1-.1c.013-.312-.118-.4-.336-.413a.9.9 0 0 0-.14.005zm.573-2.641a.1.1 0 0 1 .136.149.394.394 0 0 1-.351.13.235.235 0 0 1-.121-.077.29.29 0 0 1-.057-.123.4.4 0 0 1 .116-.364.469.469 0 0 1 .261-.136.351.351 0 0 1 .27.081c.252.2.2.476.147.722-.007.039-.016.079-.022.123a3.434 3.434 0 0 0 .031 1.9.22.22 0 0 0 .2.134.541.541 0 0 0 .305-.171 2.119 2.119 0 0 0 .369-.494 7.739 7.739 0 0 1 .005-1.92.662.662 0 0 1 .213-.414.206.206 0 0 1 .191-.024.289.289 0 0 1 .143.121 1.172 1.172 0 0 1 .118.739 4.357 4.357 0 0 1-.465 1.533 1.688 1.688 0 0 0 .138.489c.048.09.1.141.165.134a.33.33 0 0 0 .162-.088.266.266 0 0 0 .121-.237.1.1 0 0 0-.02-.048.1.1 0 0 0-.037-.024.153.153 0 0 0-.143.055.1.1 0 0 1-.141 0 .1.1 0 0 1 0-.142.33.33 0 0 1 .344-.1.283.283 0 0 1 .127.084.29.29 0 0 1 .066.14.458.458 0 0 1-.187.426.528.528 0 0 1-.266.134.366.366 0 0 1-.367-.241 1.347 1.347 0 0 1-.114-.323 1.9 1.9 0 0 1-.285.349.721.721 0 0 1-.432.222.4.4 0 0 1-.382-.235 3.575 3.575 0 0 1-.057-2.031 1.9 1.9 0 0 1 .026-.132c.038-.189.081-.4-.077-.527a.163.163 0 0 0-.121-.037.278.278 0 0 0-.147.081.2.2 0 0 0-.061.18.1.1 0 0 0 .016.037l.017.011c.033.007.088-.015.167-.086zm1.446 1.54a4.334 4.334 0 0 0 .309-1.185.973.973 0 0 0-.084-.6c-.017-.024-.031-.041-.044-.044h-.013a.5.5 0 0 0-.129.29 7.372 7.372 0 0 0-.037 1.54zm.5-.443a.1.1 0 0 1 .112-.165l.05.033v-.064a1.638 1.638 0 0 1 .314-.9 1.268 1.268 0 0 1 .643-.461.768.768 0 0 1 .527.048.983.983 0 0 1 .39.333 1.157 1.157 0 0 1 .213.706.824.824 0 0 1-.138.432.838.838 0 0 1-.45.316 1.623 1.623 0 0 1-.588.062 2.438 2.438 0 0 1-.707-.152 2.011 2.011 0 0 0 .09.436 1.3 1.3 0 0 0 .39.612.8.8 0 0 0 .456.184 1.186 1.186 0 0 0 .494-.062.605.605 0 0 0 .3-.215.323.323 0 0 0 0-.314.448.448 0 0 0-.092-.125.263.263 0 0 0-.112-.062.172.172 0 0 0-.171.053.248.248 0 0 0-.07.165.238.238 0 0 0 .013.084.077.077 0 0 0 .031.037.117.117 0 0 0 .077 0 .1.1 0 0 1 .123.072.1.1 0 0 1-.072.121.3.3 0 0 1-.221-.018.274.274 0 0 1-.123-.138.405.405 0 0 1-.028-.171.459.459 0 0 1 .129-.3.367.367 0 0 1 .356-.1.474.474 0 0 1 .2.11.6.6 0 0 1 .138.186.523.523 0 0 1-.013.509.788.788 0 0 1-.406.3 1.383 1.383 0 0 1-.577.075 1.019 1.019 0 0 1-.566-.228 1.491 1.491 0 0 1-.454-.707 2.245 2.245 0 0 1-.108-.588 1.485 1.485 0 0 1-.162-.1zm.358-.031a2.215 2.215 0 0 0 .728.171 1.474 1.474 0 0 0 .516-.051.654.654 0 0 0 .347-.241.634.634 0 0 0 .1-.329.936.936 0 0 0-.176-.579.8.8 0 0 0-.309-.268.582.582 0 0 0-.393-.033 1.071 1.071 0 0 0-.54.393 1.454 1.454 0 0 0-.27.788c0 .048-.005.1-.005.149zm3.4.456a7.389 7.389 0 0 1 .037-1.54.487.487 0 0 1 .131-.29h.013c.013 0 .028.02.044.044a.973.973 0 0 1 .084.6 4.338 4.338 0 0 1-.303 1.191z" class="cls-35" data-name="Path 3858" transform="translate(-353.586 -468.928)"/>
                    </g>
                    <g id="Group_377" data-name="Group 377" transform="translate(11.929 19.836)">
                        <path id="Path_3859" d="M369.3 467.527q.022-4.082.024-8.165h-8.65q.005 4.08.026 8.165z" class="cls-36" data-name="Path 3859" transform="translate(-360.669 -459.362)"/>
                        <path id="Path_3860" d="M368.059 467.527q.022-4.082.024-8.165h-6.952q.008 4.083.026 8.165z" class="cls-37" data-name="Path 3860" transform="translate(-360.282 -459.362)"/>
                        <path id="Path_3861" d="M362.1 460.428c-.075 1.645-.009 3.657.005 5.375v1.349h3.7c0-.3.007-.6.009-.9.006-.746.088-3.912-.033-5.576-.09-1.229-1.264-.807-1.83-.785-.727.032-1.82-.203-1.851.537z" class="cls-38" data-name="Path 3861" transform="translate(-359.503 -458.987)"/>
                        <path id="Path_3862" d="M362.642 461.542c-.044 1.363-.005 2.6 0 4.026 0 .3 0 .583-.007.864h1.639l.005-.487a38.584 38.584 0 0 0-.035-4.33c-.1-1.005-.415-.959-.739-.941a.844.844 0 0 0-.863.868z" class="cls-39" data-name="Path 3862" transform="translate(-359.033 -458.268)"/>
                        <path id="Path_3863" d="M363.335 463.1c-.057-.739.085-3.317.485-2.249a6.864 6.864 0 0 1 .27 2.446 104.74 104.74 0 0 0-.085 3.194h-.612a44.65 44.65 0 0 0-.058-3.391z" class="cls-40" data-name="Path 3863" transform="translate(-358.446 -458.327)"/>
                        <path id="Path_3864" d="M362.766 461.713c-.3-.136-.292.505-.305.773-.035.776.026 1.426.044 2.187.005.305.009.6.011.9h.608v-.742c.004-.447.151-2.889-.358-3.118z" class="cls-41" data-name="Path 3864" transform="translate(-359.177 -457.409)"/>
                    </g>
                    <g id="Group_378" data-name="Group 378" transform="translate(11.929 19.836)">
                        <path id="Path_3865" d="M369.319 459.725v-.363h-8.651v.363z" class="cls-42" data-name="Path 3865" transform="translate(-360.669 -459.362)"/>
                        <path id="Path_3866" d="M368.082 459.725v-.363h-6.951v.363z" class="cls-43" data-name="Path 3866" transform="translate(-360.281 -459.362)"/>
                    </g>
                    <g id="Group_379" data-name="Group 379" transform="translate(11.948 26.865)">
                        <path id="Path_3867" d="M369.287 464.323l.005-1.136c-.22.428-.674.406-1.055.406h-6.175c-.746 0-1.141-.107-1.384-.406l.007 1.136z" class="cls-6" data-name="Path 3867" transform="translate(-360.679 -463.187)"/>
                        <path id="Path_3868" d="M368.049 464.149v-.73H361.675a4.566 4.566 0 0 1-.531-.026v.755z" class="cls-7" data-name="Path 3868" transform="translate(-360.29 -463.014)"/>
                        <path id="Path_3869" d="M362.084 463.408v.73h3.7c0-.246.006-.489.007-.73z" class="cls-6" data-name="Path 3869" transform="translate(-359.502 -463.002)"/>
                        <path id="Path_3870" d="M362.637 463.408c0 .248 0 .491-.007.73h1.639l.005-.487.007-.243z" class="cls-24" data-name="Path 3870" transform="translate(-359.045 -463.002)"/>
                        <path id="Path_3871" d="M363.984 463.408a43.44 43.44 0 0 0-.011.73h-.612c0-.244.006-.487.007-.73z" class="cls-25" data-name="Path 3871" transform="translate(-358.432 -463.002)"/>
                        <path id="Path_3872" d="M362.481 463.408c.005.246.007.489.009.73h.608v-.73z" class="cls-14" data-name="Path 3872" transform="translate(-359.17 -463.002)"/>
                    </g>
                    <path id="Path_3873" d="M369.674 474.956c-.213 1.918-.491 3.828-.687 5.75-.423 4.182-.757 11.649 4.111 13.538-7.372 3.326-4.784-14.565-3.424-19.288z" class="cls-6" data-name="Path 3873" transform="translate(-342.512 -426.463)"/>
                    <g id="Group_380" data-name="Group 380" transform="translate(25.592 53.987)">
                        <path id="Path_3874" d="M368.912 479a24.31 24.31 0 0 0 .369 7.862 18.18 18.18 0 0 1-.608 2.549c-.871-2.9-.616-7.588-.079-11.462.118.342.223.693.318 1.051z" class="cls-31" data-name="Path 3874" transform="translate(-368.104 -477.946)"/>
                        <path id="Path_3875" d="M368.234 485.825a34.049 34.049 0 0 1 .044-6.364 18.058 18.058 0 0 1-.044 6.364z" class="cls-11" data-name="Path 3875" transform="translate(-368.104 -476.677)"/>
                    </g>
                    <path id="Path_3876" d="M369.249 474.956c-.129 1.161-.281 2.321-.426 3.481a20.72 20.72 0 0 0-.211-.687c.215-1.14.439-2.106.638-2.793zm.121 15.92a6.083 6.083 0 0 0 2.775 3.131l-.074.3-.044.18a2.492 2.492 0 0 1-3.062-.994c.155-.914.291-1.785.405-2.617z" class="cls-7" data-name="Path 3876" transform="translate(-342.087 -426.463)"/>
                </g>
            </g>
            <path id="Path_3877" d="M381.356 506.143c7.494 0 13.571-.232 13.571-.516s-6.077-.516-13.571-.516-13.571.231-13.571.516 6.075.516 13.571.516z" class="cls-4" data-name="Path 3877" transform="translate(-314.025 -399.545)"/>
            <ellipse id="Ellipse_8" cx="21.957" cy=".737" class="cls-44" data-name="Ellipse 8" rx="21.957" ry=".737" transform="translate(9.359 105.109)"/>
        </g>
    </g>
</svg>
