<svg xmlns="http://www.w3.org/2000/svg" width="151.156" height="126.797" viewBox="0 0 151.156 126.797">
    <defs>
        <style>
            .cls-1{fill:#3b1008}.cls-2{fill:#c29968}.cls-3{fill:#803a17}.cls-4{fill:#751a06}.cls-10,.cls-11,.cls-12,.cls-13,.cls-14,.cls-15,.cls-16,.cls-17,.cls-18,.cls-19,.cls-20,.cls-21,.cls-22,.cls-23,.cls-24,.cls-25,.cls-26,.cls-27,.cls-28,.cls-29,.cls-30,.cls-31,.cls-32,.cls-33,.cls-34,.cls-35,.cls-36,.cls-37,.cls-38,.cls-39,.cls-4,.cls-40,.cls-41,.cls-42,.cls-43,.cls-44,.cls-45,.cls-46,.cls-47,.cls-48,.cls-49,.cls-5,.cls-50,.cls-51,.cls-52,.cls-53,.cls-54,.cls-55,.cls-56,.cls-57,.cls-58,.cls-59,.cls-6,.cls-60,.cls-61,.cls-62,.cls-63,.cls-64,.cls-65,.cls-66,.cls-67,.cls-68,.cls-69,.cls-7,.cls-8,.cls-9{fill-rule:evenodd}.cls-5{fill:#201d1f}.cls-6{fill:#250e10}.cls-7{fill:#4c4749}.cls-8{fill:#161416}.cls-9{fill:#666263}.cls-10{fill:#fe7912}.cls-11{fill:#881601}.cls-12{fill:#f33e05}.cls-13{fill:#bf2d02}.cls-14{fill:#fe5909}.cls-15{fill:#fd8636}.cls-16{fill:#fd9f5a}.cls-17{fill:#540f03}.cls-18{fill:#d12c01}.cls-19{fill:#fe5f0e}.cls-20{fill:#540f04}.cls-21{fill:#a28e6f}.cls-22{fill:#cfbf9b}.cls-23{fill:#bdaa88}.cls-24{fill:#f1e8c5}.cls-25{fill:#fcf9f0}.cls-26{fill:#181617}.cls-27{fill:#2a2629}.cls-28{fill:#262224}.cls-29{fill:#e5dab5}.cls-30{fill:#868481}.cls-31{fill:#73706f}.cls-32{fill:#ff5b0c}.cls-33{fill:#fcf4de}.cls-34{fill:#979692}.cls-35{fill:#343033}.cls-36{fill:#663716}.cls-37{fill:#3f1f0b}.cls-38{fill:#dcad7d}.cls-39{fill:#ae7a4f}.cls-40{fill:#ff690e}.cls-41{fill:#ef3604}.cls-42{fill:#ac2201}.cls-43{fill:#feb946}.cls-44{fill:#dbcca9}.cls-45{fill:#a58e6a}.cls-46{fill:#715a44}.cls-47{fill:#f9f6e8}.cls-48{fill:#f54205}.cls-49{fill:#911c02}.cls-50{fill:#fe7b10}.cls-51{fill:#f24611}.cls-52{fill:#d8380b}.cls-53{fill:#f3b06f}.cls-54{fill:#c02d05}.cls-55{fill:#aa2708}.cls-56{fill:#711b05}.cls-57{fill:#d86d34}.cls-58{fill:#c44d13}.cls-59{fill:#8b1f02}.cls-60{fill:#9f3106}.cls-61{fill:#6b1804}.cls-62{fill:#892b07}.cls-63{fill:#ccb48c}.cls-64{fill:#e8daad}.cls-65{fill:#856948}.cls-66{fill:#ccb993}.cls-67{fill:#3b3532}.cls-68{fill:#2d2827}.cls-69{fill:#e2b688}
        </style>
    </defs>
    <g id="Group_3440" data-name="Group 3440" transform="translate(-1162.605 -1010.859)">
        <g id="Group_166" data-name="Group 166" transform="translate(1197.982 1010.859)">
            <g id="Group_165" data-name="Group 165">
                <path id="Path_1434" d="M478.211 487.829a45.089 45.089 0 0 0 9.319.86 44.522 44.522 0 0 0 9.335-.86c3-.669 6.066-1.672 8.165-3.8a47.354 47.354 0 0 0 9.96-15.815 85.622 85.622 0 0 0 4.879-18.276.265.265 0 0 0 .016-.112 3.972 3.972 0 0 1-.729.73 10.284 10.284 0 0 1-1.886 1.1 28.333 28.333 0 0 1-4.076 1.45 72.426 72.426 0 0 1-8.468 1.674 132.877 132.877 0 0 1-34.363 0c-2.234-.327-4.471-.715-6.676-1.226.109 1.735 1.446 21.113 11.6 33.481a32.2 32.2 0 0 0 2.924.794z" class="cls-1" data-name="Path 1434" transform="translate(-431.678 -424.956)"/>
                <path id="Path_1435" d="M494.36 445.842a2.064 2.064 0 0 1 .213.228 1.352 1.352 0 0 0-.213-.228z" class="cls-2" data-name="Path 1435" transform="translate(-405.985 -428.293)"/>
                <path id="Path_1436" d="M494.655 446.235a1.366 1.366 0 0 0-.121-.191 1.366 1.366 0 0 1 .121.191z" class="cls-2" data-name="Path 1436" transform="translate(-405.839 -428.124)"/>
                <path id="Path_1437" d="M463.648 452.641c2.174.38 4.346.685 6.551.9a195.453 195.453 0 0 0 34.622 0 77.308 77.308 0 0 0 8.56-1.248 30.3 30.3 0 0 0 4.168-1.108 10.8 10.8 0 0 0 1.929-.921 2.388 2.388 0 0 0 1.231-1.476 3.584 3.584 0 0 0-.015-.4c-.029-.061-.029-.138-.061-.2 0-.031-.017-.053-.017-.085a2.956 2.956 0 0 0-1.11-1.132 9.946 9.946 0 0 0-1.929-.959 28.792 28.792 0 0 0-4.168-1.193 61.934 61.934 0 0 0-4.089-.768 56.027 56.027 0 0 1-6.9 1.505 91.529 91.529 0 0 1-11.82 1.044 88.319 88.319 0 0 1-11.844-.546c-.867-.1-1.718-.221-2.586-.358-8.951 3.077-11.778 5.956-12.522 6.945z" class="cls-2" data-name="Path 1437" transform="translate(-431.711 -429.794)"/>
                <path id="Path_1438" d="M482.9 445.063q5.86-.1 11.708-.57c1.049-.092 2.1-.191 3.163-.305-.2-.015-.4-.046-.579-.068a157.146 157.146 0 0 0-17.347-.851h-.092c-2.584.57-4.894 1.163-6.963 1.755 3.374.107 6.737.131 10.11.039z" class="cls-2" data-name="Path 1438" transform="translate(-424.053 -430.449)"/>
                <path id="Path_1439" d="M494.7 446.719a.264.264 0 0 1-.029.145.056.056 0 0 0 .013-.031.314.314 0 0 0 .016-.114z" class="cls-2" data-name="Path 1439" transform="translate(-405.721 -427.559)"/>
                <path id="Path_1440" d="M562.042 463.921a17.5 17.5 0 0 0-6.888-14.316 16.97 16.97 0 0 0-14.9-2.821 111.513 111.513 0 0 0-.182-3.83 1.23 1.23 0 0 0 .2-.608v-.024a1.614 1.614 0 0 0-.685-1.185 5.355 5.355 0 0 0-1.079-.676 14.149 14.149 0 0 0-2.312-.882 41.837 41.837 0 0 0-4.791-1.125c-3.221-.594-6.461-.989-9.716-1.294-6.505-.6-13.029-.844-19.551-.867-6.54-.015-13.062.191-19.586.761-3.253.289-6.505.662-9.73 1.233a46.411 46.411 0 0 0-4.818 1.1 14.9 14.9 0 0 0-2.341.889 5.973 5.973 0 0 0-1.126.7 1.829 1.829 0 0 0-.759 1.345 1.478 1.478 0 0 0 .4.981 122.99 122.99 0 0 0 .456 20.358A104.163 104.163 0 0 0 466.3 474a49.984 49.984 0 0 0-8.591 3.109 25.493 25.493 0 0 0-8.65 6.279 11.983 11.983 0 0 0-2.571 5.085 10.318 10.318 0 0 0 .5 5.87 15.68 15.68 0 0 0 3.71 5.353 4.605 4.605 0 0 0 .305.516 28.537 28.537 0 0 0 5.366 6.013 47.747 47.747 0 0 0 13.974 8c10.08 3.848 20.92 5.155 31.564 5.179 10.644-.017 21.484-1.323 31.566-5.169a47.721 47.721 0 0 0 13.972-8.007 28.768 28.768 0 0 0 5.368-6.02 20.8 20.8 0 0 0 1.415-2.547c.151-.206.32-.373.47-.57a11.936 11.936 0 0 0 2.144-5.177 9.322 9.322 0 0 0-.882-5.46 15.988 15.988 0 0 0-5.717-6.088 17.324 17.324 0 0 0 4.013-2.076 18.045 18.045 0 0 0 7.786-14.369zm-40.442-25.75a94.748 94.748 0 0 1 9.7.875 43.668 43.668 0 0 1 4.743 1.027 14.987 14.987 0 0 1 2.251.82c.669.327 1.476.792 1.536 1.422-.061.676-.867 1.11-1.536 1.444-.077.039-.153.061-.228.092a8.667 8.667 0 0 0-1.917-1.209v-.32c0 .107-.015.213-.015.311-.64-.3-1.294-.546-1.946-.775a48.14 48.14 0 0 0-4.471-1.253c-3.01-.632-6.051-1.064-9.107-1.437-4.089-.48-8.211-.691-12.331-.819 4.44-.214 8.88-.323 13.321-.178zm16.285 5.763c-.564.228-1.141.434-1.735.608v-1.527a8.555 8.555 0 0 1 1.734.919zM482.9 440.84c2.023-.3 4.074-.577 6.128-.836q6.613-.353 13.228-.342c6.081-.015 12.195.153 18.259.638 3.041.244 6.068.564 9.078 1.066 1.49.259 3 .555 4.456.957a19.738 19.738 0 0 1 2.067.685c-.016.516-.048 1.042-.061 1.566-.016 0-.016 0-.016.005a45.015 45.015 0 0 1-4.743 1.029 94.2 94.2 0 0 1-9.7.873c-6.492.189-13-.1-19.461-.538-6.48-.45-12.91-1.211-19.235-2.152-2.95-.38-5.884-.9-8.712-1.468a126.536 126.536 0 0 1 8.712-1.483zm-10.082 5.528c3.225.57 6.478.943 9.73 1.24 6.524.56 13.046.766 19.586.759 6.522-.03 13.046-.274 19.551-.873 3.255-.305 6.509-.7 9.716-1.286a45.842 45.842 0 0 0 4.638-1.088c-.153 3.332-.4 6.654-.746 9.96a1.505 1.505 0 0 0-.211-.676 1.336 1.336 0 0 0-.121-.191.71.71 0 0 0-.106-.143 2.076 2.076 0 0 0-.213-.228 4.543 4.543 0 0 0-.518-.449 10.036 10.036 0 0 0-1.915-1.049 30.428 30.428 0 0 0-4.151-1.376 61.367 61.367 0 0 0-3.238-.7c1.231-.388 2.463-.8 3.65-1.307l-.046-.213c-2.1.448-4.212.776-6.325 1.042a97.483 97.483 0 0 0-2.632-.38 148.019 148.019 0 0 0-34.818 0c-.775.1-1.549.213-2.325.334l-.579-.092-.031.189c-1.9.3-3.784.661-5.655 1.134a28.044 28.044 0 0 0-4.137 1.369 10.343 10.343 0 0 0-1.931 1.049 3.129 3.129 0 0 0-1.079 1.246c-.334-3.095-.548-6.2-.685-9.321a46.618 46.618 0 0 0 4.594 1.049zm9.868 3.832a45.876 45.876 0 0 0 8.043 2c.867.138 1.718.259 2.586.358a88.306 88.306 0 0 0 11.844.546 91.55 91.55 0 0 0 11.814-1.049 56.028 56.028 0 0 0 6.9-1.505c1.367.213 2.736.463 4.089.768a28.787 28.787 0 0 1 4.168 1.193 9.935 9.935 0 0 1 1.93.959 2.956 2.956 0 0 1 1.11 1.132c0 .031.016.053.016.085.031.061.031.138.061.2s.031.136.044.211a.581.581 0 0 0-.013.153.04.04 0 0 0-.017.037 2.388 2.388 0 0 1-1.231 1.476 10.8 10.8 0 0 1-1.929.921 30.29 30.29 0 0 1-4.168 1.108 77.289 77.289 0 0 1-8.56 1.248 195.444 195.444 0 0 1-34.622 0 83.501 83.501 0 0 1-6.551-.9c-.671-.114-1.354-.213-2.023-.351a28.526 28.526 0 0 1-4.151-1.115 9.965 9.965 0 0 1-1.946-.913 3.313 3.313 0 0 1-1.049-.979 27.602 27.602 0 0 0-.121-1.079 2.838 2.838 0 0 1 1.139-1.233 10.058 10.058 0 0 1 1.931-.959 29.513 29.513 0 0 1 4.166-1.193c2.164-.49 4.354-.837 6.544-1.119zm19.371-1.086a157.142 157.142 0 0 1 17.347.851c.184.022.38.053.579.068-1.064.114-2.113.213-3.163.3q-5.838.477-11.708.57c-3.374.092-6.737.068-10.111-.039-.531-.022-1.064-.015-1.612-.039-3.071-.143-6.158-.379-9.214-.8.184-.022.349-.046.531-.068a157.387 157.387 0 0 1 17.257-.851zm33.162 6.485a.264.264 0 0 0 .029-.145.248.248 0 0 1-.017.1.074.074 0 0 1-.008.046zm-65.259 1.345a10.369 10.369 0 0 0 1.915 1.086 29.731 29.731 0 0 0 4.151 1.461c.654.165 1.308.327 1.963.47l.257 4.067c-.531-.1-1.064-.175-1.6-.281a29.051 29.051 0 0 1-4.091-1.117 10.866 10.866 0 0 1-1.9-.913 3.554 3.554 0 0 1-.928-.836 106.867 106.867 0 0 1-.671-4.91 3.474 3.474 0 0 0 .908.972zm.579 4.949a9.581 9.581 0 0 0 1.869 1.1 29.146 29.146 0 0 0 4.074 1.45c.594.16 1.187.3 1.794.448 2.205.511 4.442.9 6.676 1.226a132.894 132.894 0 0 0 34.363 0 72.453 72.453 0 0 0 8.468-1.674 28.351 28.351 0 0 0 4.076-1.45 10.278 10.278 0 0 0 1.885-1.1 3.975 3.975 0 0 0 .73-.73.266.266 0 0 1-.016.112 85.633 85.633 0 0 1-4.879 18.276 47.356 47.356 0 0 1-9.96 15.815c-2.1 2.128-5.168 3.131-8.165 3.8a44.525 44.525 0 0 1-9.335.86 45.086 45.086 0 0 1-9.319-.86 30.662 30.662 0 0 1-2.92-.8 12.847 12.847 0 0 1-5.247-3 46.9 46.9 0 0 1-9.944-15.815 84.689 84.689 0 0 1-4.9-18.276c0-.051-.017-.1-.017-.143a3.648 3.648 0 0 0 .771.76zm-6.235-18.428c.077.077.151.151.228.219a5.848 5.848 0 0 0 1.126.693 15.679 15.679 0 0 0 2.341.889l.09.024c0 11.723 1.384 23.566 5.55 34.674a46.218 46.218 0 0 0 10.035 16.329 12.676 12.676 0 0 0 4.166 2.768 25.042 25.042 0 0 0 4.668 1.468 48.778 48.778 0 0 0 19.233 0 25.624 25.624 0 0 0 4.67-1.468 12.554 12.554 0 0 0 4.151-2.76 46.276 46.276 0 0 0 10.05-16.337c4.2-11.168 5.565-23.089 5.533-34.872a.1.1 0 0 1 .046-.007 15.081 15.081 0 0 0 2.312-.889 5.124 5.124 0 0 0 1.079-.676 2.412 2.412 0 0 0 .4-.426 172.122 172.122 0 0 1-2.479 20.26 101.44 101.44 0 0 1-5.776 20.078c-2.709 6.347-6.2 12.384-11.039 17.081-2.023 2.014-5.232 3.141-8.455 3.839a56.564 56.564 0 0 1-20.207-.007c-3.223-.691-6.446-1.825-8.437-3.832-4.851-4.714-8.334-10.734-11.039-17.089a100.109 100.109 0 0 1-5.794-20.078 173.013 173.013 0 0 1-2.448-19.882zm78.296 10.187a9.466 9.466 0 0 1 8.211 2.872 8.8 8.8 0 0 1 2.007 8.683 10.062 10.062 0 0 1-6.081 6.248 10.387 10.387 0 0 1-8.165-.594c.425-2.387.79-4.8 1.049-7.2.1-.88.153-1.762.226-2.637a1.74 1.74 0 0 0 .305-.153 3.751 3.751 0 0 0 .943-.829 7.094 7.094 0 0 0 1.248-2.128 6.2 6.2 0 0 0 .257-4.262zm-15.188 50.205a4.979 4.979 0 0 1 .592 3.214 112.03 112.03 0 0 1-12.346 1.817c-2.707.25-5.443.412-8.181.509a47.222 47.222 0 0 0 5.673-.858 30.094 30.094 0 0 0 5.443-1.726 15.189 15.189 0 0 0 5.048-3.383c.47-.5.928-1.018 1.367-1.529.243.114.487.221.731.366a4.721 4.721 0 0 1 1.668 1.59zm-31.064 5.5c-.364-.017-.746-.017-1.11-.039a120.752 120.752 0 0 1-18.108-2.167 5.136 5.136 0 0 1 .456-3.056 4.771 4.771 0 0 1 1.992-1.832c.334.386.684.79 1.049 1.161a15.155 15.155 0 0 0 5.046 3.392 30.48 30.48 0 0 0 5.445 1.726 45.461 45.461 0 0 0 5.225.812zm-46.698-16.136a7.5 7.5 0 0 1-.669-4.3 9.774 9.774 0 0 1 1.794-4.227 24.785 24.785 0 0 1 7.512-6.515 58.788 58.788 0 0 1 8.044-4.006 80.177 80.177 0 0 0 3.025 10.506 55.408 55.408 0 0 0 7.922 14.817 8.181 8.181 0 0 0-.64.82 7.174 7.174 0 0 0-1.185 3.232 6.446 6.446 0 0 0 .533 3.139c.044.1.1.175.151.274-.364-.075-.744-.136-1.11-.22a61.619 61.619 0 0 1-18.777-6.9c-2.768-1.725-5.323-3.898-6.6-6.62zm96.685 11.594a50.428 50.428 0 0 1-13.821 6.728 83.886 83.886 0 0 1-15.1 3.284 111.933 111.933 0 0 1-15.51.919 113.462 113.462 0 0 1-15.508-.91 83.672 83.672 0 0 1-15.1-3.286 50.274 50.274 0 0 1-13.821-6.735c-.38-.266-.759-.555-1.125-.844a49.916 49.916 0 0 0 7.586 3.664A82.907 82.907 0 0 0 474.1 510.8a118.237 118.237 0 0 0 20.92 2.9c14.034.562 28.267-.654 41.706-5.237a56.812 56.812 0 0 0 9.732-4.357 38.735 38.735 0 0 0 3.679-2.486 32.068 32.068 0 0 1-3.802 3.195zm8.5-17.888a8.153 8.153 0 0 1 .336 4.7 9.774 9.774 0 0 1-2.171 4.156 24.414 24.414 0 0 1-7.907 5.809 58.985 58.985 0 0 1-9.411 3.626c-2.22.639-4.471 1.17-6.737 1.657.046-.121.123-.228.167-.357a6.25 6.25 0 0 0 .4-3.339 7.679 7.679 0 0 0-1.478-3.275 7.119 7.119 0 0 0-.728-.823 55.838 55.838 0 0 0 7.6-14.406c.029-.09.061-.182.09-.265.031-.009.092-.017.121-.024a5.461 5.461 0 0 0 1.141-.358 6.289 6.289 0 0 0 1.931-1.292 7.036 7.036 0 0 0 1.261-1.689.027.027 0 0 0 .017-.029 18.8 18.8 0 0 0 10.477-.548 16.351 16.351 0 0 1 4.89 6.457zm-15.8-10.2l-1.566-.669c.351-1.444.669-2.889.943-4.341a9.546 9.546 0 0 0 3.253 2 10.581 10.581 0 0 0 10.995-2.578 10.85 10.85 0 0 0 2.812-5.252 11.45 11.45 0 0 0-3.284-10.741 10.8 10.8 0 0 0-10.552-2.518l-.562.184.153.516v.013l.031.116.03.046a5 5 0 0 1 .378 4.173 7.333 7.333 0 0 1-.972 2.053 3.282 3.282 0 0 1-.761.8.289.289 0 0 1-.044.031 126.094 126.094 0 0 0 .364-13.76 16.5 16.5 0 0 1 14.277 3.58 15.992 15.992 0 0 1 5.5 13.443 15.51 15.51 0 0 1-7.42 11.951 14.994 14.994 0 0 1-13.572.958z" class="cls-3" data-name="Path 1440" transform="translate(-446.269 -436.293)"/>
            </g>
        </g>
        <g id="Group_325" data-name="Group 325" transform="translate(1162.605 1027.514)">
            <path id="Path_3386" d="M471.122 506.151c13.492 0 24.432-.463 24.432-1.035s-10.94-1.035-24.432-1.035-24.432.463-24.432 1.035 10.938 1.035 24.432 1.035z" class="cls-4" data-name="Path 3386" transform="translate(-410.539 -396.162)"/>
            <g id="Group_264" data-name="Group 264" transform="translate(22.12)">
                <path id="Path_3387" d="M457.746 554.726c-2.1-.09-3.284.456-4.772-1.224-.961-1.084-3.767-1.034-5.474-1.544h22.447c2.4 0 4.2-1.25 4.2-3.523-4.192-17.767-1.22-31.033.3-49.149 0-12.9-11.28-16.181-11.237-19.413.09-6.939.14-25.016.046-31.948a1.446 1.446 0 0 0-.619-1.248 61.263 61.263 0 0 0-9.765 0 1.446 1.446 0 0 0-.619 1.248c-.094 6.932-.044 25.009.046 31.948.042 3.232-11.237 6.516-11.237 19.413q.088 1.061.184 2.1c-2.01.011-2.051.232-2.163-2.558-.548-13.691 11.044-16.756 11.144-20.152.175-5.914.289-17.546.309-20.88 0-.32.042-7.733.053-9.5a2.619 2.619 0 0 1 1.136-2.582c.324-.232 3.06-.351 6.031-.358s5.71.127 6.031.358a2.619 2.619 0 0 1 1.136 2.582c.011 1.77.051 9.183.053 9.5.02 3.334.134 14.966.309 20.88.1 3.4 11.691 6.461 11.143 20.152-.759 18.924-3.359 30.814-.145 49.6.572 3.339-.515 6.29-4.085 6.29zm-15.021-13.614c-2.867.426-2.545-.171-3 3.458-.246 1.955-.145 3.8 1.764 4.888a3.728 3.728 0 0 1 .136-2.226 80.37 80.37 0 0 0 1.1-6.12z" class="cls-4" data-name="Path 3387" transform="translate(-439.055 -445.356)"/>
                <g id="Group_263" data-name="Group 263" transform="translate(3.119 1.783)">
                    <path id="Path_3388" d="M451.385 453.634h-4.291a.441.441 0 0 1-.447-.432v-.355a.433.433 0 1 0 0-.866v-1.461c0-.158.358-.311.221-.371-.259-.116-.252-1.674-.029-1.851.11-.086-.191-.208-.191-.355v-1.185a.439.439 0 0 1 .445-.432h8.586a.439.439 0 0 1 .445.432v1.185c0 .147-.3.268-.191.355.222.176.23 1.735-.03 1.851-.138.061.221.213.221.371v1.463a.433.433 0 1 0 0 .866v.355a.441.441 0 0 1-.447.432z" class="cls-5" data-name="Path 3388" transform="translate(-435.813 -446.326)"/>
                    <path id="Path_3389" d="M449.394 447.843h-2.156a.261.261 0 0 1-.248-.272v-.649a.262.262 0 0 1 .248-.272h2.156a.125.125 0 0 1 .118.131v.834h4.309v-.834a.125.125 0 0 1 .118-.131h1.022a.262.262 0 0 1 .248.272v.649a.261.261 0 0 1-.248.272h-5.566z" class="cls-6" data-name="Path 3389" transform="translate(-435.527 -446.055)"/>
                    <path id="Path_3390" d="M449.394 450.069h-2.058a.348.348 0 0 1-.346-.347v-.676a.348.348 0 0 1 .346-.347h2.058a.118.118 0 0 1 .118.118v1h4.309v-1a.118.118 0 0 1 .118-.118h.924a.348.348 0 0 1 .345.347v.676a.348.348 0 0 1-.345.347h-5.469z" class="cls-6" data-name="Path 3390" transform="translate(-435.527 -444.339)"/>
                    <path id="Path_3391" d="M447.108 449.752h2.286c.064 0 .118.131.118.29v.151h4.317v-.129c0-.151.053-.274.118-.274h1.152c.064 0 .118.123.118.274v.07c0 .151-.053.274-.118.274h-7.983c-.064 0-.118-.13-.118-.292v-.074c-.008-.16.045-.29.11-.29z" class="cls-6" data-name="Path 3391" transform="translate(-435.527 -443.456)"/>
                    <path id="Path_3392" d="M448.928 446.645h2.428c.064 0 .118.037.118.081v.573c0 .044-.053.081-.118.081h-2.428c-.064 0-.118-.037-.118-.081v-.573c0-.044.053-.081.118-.081z" class="cls-7" data-name="Path 3392" transform="translate(-434.002 -446.059)"/>
                    <path id="Path_3393" d="M448.928 448.658h2.428c.064 0 .118.037.118.083v.787c0 .044-.053.081-.118.081h-2.428c-.064 0-.118-.037-.118-.081v-.787c0-.046.053-.083.118-.083z" class="cls-7" data-name="Path 3393" transform="translate(-434.002 -444.372)"/>
                    <path id="Path_3394" d="M448.928 449.649h2.428c.064 0 .118.074.118.16v.042c0 .088-.053.16-.118.16h-2.428c-.064 0-.118-.072-.118-.16v-.042c0-.086.053-.16.118-.16z" class="cls-7" data-name="Path 3394" transform="translate(-434.002 -443.542)"/>
                    <path id="Path_3395" d="M448.884 448.568c-.1-.432 4.826-.792 4.907-.36.062.32-4.825.735-4.907.36z" class="cls-8" data-name="Path 3395" transform="translate(-433.942 -444.913)"/>
                    <path id="Path_3396" d="M446.9 448.361c-.029-.417 8.372-1.059 8.4-.641s-8.371 1.056-8.4.641z" class="cls-8" data-name="Path 3396" transform="translate(-435.604 -445.272)"/>
                    <path id="Path_3397" d="M450.3 448.357a2.88 2.88 0 0 1-1.369-.029 2.9 2.9 0 0 1 1.34-.309 2.842 2.842 0 0 1 1.369.031 2.938 2.938 0 0 1-1.34.307z" class="cls-9" data-name="Path 3397" transform="translate(-433.905 -444.95)"/>
                    <path id="Path_3398" d="M448.541 448.575c-.825.09-1.509.064-1.527-.057s.632-.292 1.457-.38 1.509-.063 1.527.059-.633.29-1.457.378z" class="cls-6" data-name="Path 3398" transform="translate(-435.507 -444.852)"/>
                    <path id="Path_3399" d="M448.441 447.933c-.75.075-1.371.046-1.389-.066s.577-.263 1.327-.338 1.371-.046 1.389.066-.577.263-1.327.338z" class="cls-6" data-name="Path 3399" transform="translate(-435.475 -445.353)"/>
                    <path id="Path_3400" d="M450.259 447.853a2.857 2.857 0 0 1-1.369-.057c-.009-.094.592-.22 1.34-.281a2.862 2.862 0 0 1 1.369.057 2.871 2.871 0 0 1-1.34.281z" class="cls-9" data-name="Path 3400" transform="translate(-433.935 -445.359)"/>
                    <path id="Path_3401" d="M447.056 450.3c-.334 0-.364.266-.362.682l.051 7.959.055.127h9.117l.055-.127.029-8.11c0-.248-.053-.531-.364-.531z" class="cls-5" data-name="Path 3401" transform="translate(-435.775 -442.995)"/>
                    <path id="Path_3402" d="M447.183 450.619c.022 2.683.079 5.517.053 8.229h1.885c.035-2.779-.077-5.53-.1-8.268 0-.175-.261-.136-.634-.152-.349-.015-1.2-.051-1.2.191zm7.479 8.229c-.026-2.7.007-5.5.029-8.185 0-.23-.465-.224-.8-.209-.369.015-.612-.024-.6.169.182 2.6.1 5.419.12 8.225z" class="cls-6" data-name="Path 3402" transform="translate(-435.365 -442.899)"/>
                    <path id="Path_3403" d="M449.108 450.965c.279.233.221 3 .226 3.378.042 1.737.051.1.048 1.843v1.437c0 .391.257.739.919.763.426.015.825-.055.814-.478-.022-.829-.037-1.659-.061-2.49a32.314 32.314 0 0 1 .013-4.366c.14-.241.91-.529-.084-.57-.259-.011-.459-.031-.724-.024h-.1a8.9 8.9 0 0 0-1.036.061c-.29.039-.436.189-.107.384z" class="cls-7" data-name="Path 3403" transform="translate(-433.992 -442.866)"/>
                    <path id="Path_3404" d="M451.745 455.256v.505c.009 5.318.022 10.64.092 15.958.016 1.343-1.1 2.474-2.051 3.356-1.257 1.169-2.571 2.233-3.776 3.462a17.038 17.038 0 0 0-5.259 12.566c.059.715.123 1.43.188 2.145h5.092c1.281.04 2.484.16 3.236 1.382a50.048 50.048 0 0 1 5.191 12.033c1.613 5.526 3.027 13.772.443 19.182-2.058 4.309-7.569 6.1-12.452 6.943a79.09 79.09 0 0 1-1.4 7.615c.057 1.657 1.422 2.352 3.074 2.352h24.4c1.652 0 3.017-.695 3.074-2.352a84.575 84.575 0 0 1-2.056-23.147c.171-4.223.57-8.433 1.007-12.638.467-4.5.968-9 1.347-13.514a17.038 17.038 0 0 0-5.259-12.566c-1.206-1.23-2.519-2.294-3.776-3.462-.948-.882-2.067-2.012-2.051-3.356.07-5.318.083-10.64.094-15.958v-.505l-.009-.182h-9.117z" class="cls-10" data-name="Path 3404" transform="translate(-440.752 -438.998)"/>
                    <path id="Path_3405" d="M441.33 491.061q.091 1.092.193 2.187h4.024c1.281.04 2.485.16 3.236 1.382a50.04 50.04 0 0 1 5.191 12.033c1.614 5.526 3.027 13.772.443 19.182-1.906 3.99-6.772 5.818-11.357 6.739a80.522 80.522 0 0 1-1.426 7.906c.11 1 1.112 1.2 2 1.2h24.4c.893 0 1.895-.206 2-1.2A86.155 86.155 0 0 1 468 517.213c.171-4.247.572-8.479 1.011-12.706.465-4.48.965-8.959 1.342-13.446a15.977 15.977 0 0 0-4.956-11.781c-1.184-1.207-2.5-2.277-3.741-3.427a5.709 5.709 0 0 1-2.236-4.148c.068-5.19.084-11.441.092-16.631h-7.336c.007 5.19.024 11.441.092 16.631a5.705 5.705 0 0 1-2.238 4.148c-1.237 1.15-2.556 2.22-3.74 3.427a15.976 15.976 0 0 0-4.96 11.781z" class="cls-11" data-name="Path 3405" transform="translate(-440.268 -438.998)"/>
                    <path id="Path_3406" d="M455.949 455.005h-9.228l.056.127h9.116z" class="cls-6" data-name="Path 3406" transform="translate(-435.751 -439.055)"/>
                    <path id="Path_3407" d="M444.333 520.11q-.19 1.775-.446 3.583c-1.4 9.826 3.346.1 13.985 2.089 7.5 1.4 8.391 6.248 6.908-3.731-1.522-13.082-.542-21.907.257-34.789.084-1.376.178-2.657.253-3.866.211-3.4.45-6.347-.121-9.222-.911-3.225-6.136-4.7-9.251-4.964-3.319-.283-6.283-.211-9.078 1.68l-.219.147a15.625 15.625 0 0 0-1.891 1.562c-1.112 1.066-1.207 2.082-1.314 3.536a39.036 39.036 0 0 0 .079 5.371h.357c1.281.04 2.485.16 3.236 1.382a50.047 50.047 0 0 1 5.191 12.033c1.613 5.526 3.027 13.772.443 19.182-1.495 3.131-4.813 4.932-8.389 6.007z" class="cls-12" data-name="Path 3407" transform="translate(-438.572 -427.258)"/>
                    <g id="Group_261" data-name="Group 261" transform="translate(11.412 16.956)">
                        <path id="Path_3408" d="M449.1 456.66a66 66 0 0 0-.07 7.108c0 .452.006.9.011 1.356.035 2.073-.064 3.672-.217 5.721l-.033.432c-.184 2.161-.371 2.108-1.5 3.806-1.481 2.222 2.468 2.788 3.865 2.758.934-.026 4.353-.217 4.177-1.685-.092-.779-1.2-2.069-1.536-3.131-.542-2.073-.318-5.344-.434-7.584-.141-2.156.051-4.012.042-6.11-.006-1.156-.007-3.583-1.54-3.747a2.953 2.953 0 0 0-2.666.781l-.075.176z" class="cls-13" data-name="Path 3408" transform="translate(-446.962 -455.553)"/>
                        <path id="Path_3409" d="M449.046 457.655c-.121 4.89.507 10.383-.667 15.124-.452 2.349 1.018 2.086 2.869 1.843 2.271-.3.884-1.3.577-2.948l-.028-.149c-.316-2.394-.231-5.05-.3-7.479-.035-1.3.255-6.206-.423-6.948-.428-.47-1.713-.522-1.966.312z" class="cls-14" data-name="Path 3409" transform="translate(-445.844 -454.541)"/>
                        <path id="Path_3410" d="M448.787 457.9c.428-1.191.812-.116.871.514a57.154 57.154 0 0 1 .094 6.941c-.064 1.026-.809 7.632-.318 8.165.761.544 2.374.325 2.874.671-.013.557-4.039 1.867-4.39-.13l-.026-.263a18.382 18.382 0 0 1 .581-3.016l.028-.246a72.195 72.195 0 0 0 .286-12.636z" class="cls-15" data-name="Path 3410" transform="translate(-446.183 -454.038)"/>
                        <path id="Path_3411" d="M449.589 459.838c.233-5.469 1.2-2.751 1.081.638a41.808 41.808 0 0 0 .127 4.725c.132 1.9.074 3.824.187 5.706.11 1 .478 1.588.584 2.345.151 1.064-1.266.908-1.676-1.226l-.033-.23-.059-.505c-.189-2.236.005-4.651-.05-6.939-.036-1.509-.113-3.007-.161-4.514z" class="cls-16" data-name="Path 3411" transform="translate(-444.761 -454.573)"/>
                    </g>
                    <path id="Path_3412" d="M457.1 468.055c1.562-.41 2.453.439 3.611 1.4 1.242 1.029 2.168 1.961-.175.948-2.729-1.18-10.545-1.263-13.591-.024-.072.029-.93.4-1.417.594-2.043.832-1.626.487-.085-1 1.141-1.1 2.973-2.457 4.692-2.117a13.171 13.171 0 0 0 6.965.199z" class="cls-17" data-name="Path 3412" transform="translate(-437.917 -428.335)"/>
                    <path id="Path_3413" d="M452.99 474.993c1.821-3.848 9.576-3.479 12.215-.627l-.037-.191c-.911-3.225-6.136-4.7-9.251-4.964-3.319-.283-6.283-.211-9.078 1.68l-.219.147a15.631 15.631 0 0 0-1.891 1.562c-1.112 1.066-1.207 2.082-1.314 3.536a39.308 39.308 0 0 0 .079 5.371h.356c1.281.04 2.485.16 3.236 1.382a50.051 50.051 0 0 1 5.191 12.033c.083.283.165.573.246.869-.327-7.242-1.488-16.666.465-20.8zm-8.657 45.117q-.19 1.775-.446 3.583c-1.4 9.826 3.346.1 13.985 2.089 7.18 1.342 8.3 5.84 7.084-2.532-.994 1.9-4.094-1.516-6.693-1.442-4.467.127-6.487-1.2-6.915-5.668a15.281 15.281 0 0 1-7.015 3.97z" class="cls-18" data-name="Path 3413" transform="translate(-438.572 -427.258)"/>
                    <path id="Path_3414" d="M456.556 477.629c-.645-6.239-3.628-6.945-7.077-5.041q-.069.124-.132.254c-1.953 4.133-.792 13.557-.465 20.8 1.5 5.495 2.648 13.178.2 18.312a8.449 8.449 0 0 1-1.375 2.036 12.837 12.837 0 0 0 .2 1.351c2.183 1.79 5.153 2.464 6.987.086 1.54-2 .539-8.328.349-10.982-.166-8.634 2.168-18.545 1.313-26.816z" class="cls-19" data-name="Path 3414" transform="translate(-434.928 -425.106)"/>
                    <path id="Path_3415" d="M449.659 469.936c-1.365-.739-.917-.987.432-1a21.169 21.169 0 0 1 6.294 1.082 7.714 7.714 0 0 1 3.641 2.677 5.23 5.23 0 0 1 .617 1.158l.167.448c1.378 4.453.1 14.463-.2 19.47-.5 9-1.3 15.064-.309 24.252.673 6.217 1.31 8.04-5.473 5.938-2.613-.81-2.181-1.42.527-1.187 6.057.52 2.837-4.693 2.852-8.97.03-7.687.246-14.714.562-22.381.156-3.78.252-7.5.209-11.285-.149-4.973-.829-8.532-6.336-9.631-1.003-.196-1.961-.424-2.983-.571z" class="cls-16" data-name="Path 3415" transform="translate(-433.984 -427.383)"/>
                    <path id="Path_3416" d="M447.612 469.8c2.7.428-.035 1.382-1.259 3.914a8.565 8.565 0 0 0-.728 2.141c-.531 2.677-.606 3.881-1.147 3.944-.6.07-1.632-1.284-1.5-3.85.136-2.687 1.139-4.693 4.636-6.149zm-2.231 51.953c-.09 1.77-.242 3.486 1.7 2.183 1.738-1.108 2.659-.922 4.614-.878.564.013 2.139.061 2.365.676-.39.443-2.218.436-2.834.472a6.843 6.843 0 0 0-3.135.735c-.855.4-3.133 1.753-3.951 1.687-1.009-.331-.318-3.332.25-4.844.486-1.291 1.034-1.265.991-.034z" class="cls-15" data-name="Path 3416" transform="translate(-438.898 -426.665)"/>
                    <path id="Path_3417" d="M457.464 501.951c.044-.5-2.455-1.347-5.414-1.347s-5.254.851-5.3 1.347c-.039.41 10.675.413 10.714 0z" class="cls-20" data-name="Path 3417" transform="translate(-435.728 -400.858)"/>
                    <path id="Path_3418" d="M442.674 474.186a70.756 70.756 0 0 1 24.843 0 .548.548 0 0 1 .454.579l-1.047 15.973a.544.544 0 0 1-.421.5 48.5 48.5 0 0 1-11.408 1.387q-.791 0-1.577-.027-.143-.524-.289-1.024a50.045 50.045 0 0 0-5.191-12.033c-.752-1.222-1.955-1.342-3.236-1.382h-2.36l-.222-3.394a.547.547 0 0 1 .454-.579z" class="cls-10" data-name="Path 3418" transform="translate(-439.523 -423.909)"/>
                    <path id="Path_3419" d="M442.674 474.186a70.756 70.756 0 0 1 24.843 0 .548.548 0 0 1 .454.579l-1.047 15.973a.544.544 0 0 1-.421.5 48.5 48.5 0 0 1-11.408 1.387q-.791 0-1.577-.027-.143-.524-.289-1.024a50.045 50.045 0 0 0-5.191-12.033c-.752-1.222-1.955-1.342-3.236-1.382h-2.36l-.222-3.394a.547.547 0 0 1 .454-.579z" class="cls-21" data-name="Path 3419" transform="translate(-439.523 -423.909)"/>
                    <path id="Path_3420" d="M452.568 492.6q.786.028 1.577.027a48.2 48.2 0 0 0 10.4-1.152c.158-2.4.331-4.89.5-7.558.085-1.376.178-2.657.254-3.867.134-2.163.281-4.144.221-6.04a70.581 70.581 0 0 0-22.147-.092c-.035 1.386.035 2.834.132 4.243h.357c1.281.04 2.485.16 3.236 1.382a50.04 50.04 0 0 1 5.191 12.033q.137.497.279 1.024z" class="cls-22" data-name="Path 3420" transform="translate(-438.572 -423.909)"/>
                    <path id="Path_3421" d="M443.363 473.907c-.035 1.386.035 2.834.132 4.243h.357c1.281.04 2.485.16 3.236 1.382a50.04 50.04 0 0 1 5.191 12.033c.083.283.165.573.246.869-.292-6.485-1.255-14.718-.05-19.336a71.412 71.412 0 0 0-9.112.809z" class="cls-23" data-name="Path 3421" transform="translate(-438.572 -423.9)"/>
                    <path id="Path_3422" d="M456.311 476.432a13.039 13.039 0 0 0-.665-3.137q-2.688-.207-5.39-.208-.835 0-1.669.02c-1.206 4.618-.243 12.851.05 19.336l.042.154q.786.028 1.577.027a47.022 47.022 0 0 0 5.392-.312c.552-5.464 1.17-10.963.663-15.88z" class="cls-24" data-name="Path 3422" transform="translate(-434.684 -423.909)"/>
                    <path id="Path_3423" d="M456.883 473.8c.373 5-.492 12.215-.735 16.225-.018.349-.039.693-.059 1.033q-.962.226-1.93.412.069-1.874.149-3.793c.156-3.78.252-7.5.21-11.285-.031-1.059-.088-2.055-.21-2.977q1.292.172 2.575.385z" class="cls-25" data-name="Path 3423" transform="translate(-429.521 -423.633)"/>
                    <path id="Path_3424" d="M442.725 474.348l.2 2.99c.151 0 .278 0 .382-.013.888-.079.3-.524.2-1.953q1.078-.174 2.111-.325c.024-.395.051-.777.088-1.148q-1.282.165-2.558.379-.212.033-.424.072zm23.823 1.064l.07-1.064-.1-.018c.014.353.025.715.03 1.082z" class="cls-26" data-name="Path 3424" transform="translate(-439.099 -423.229)"/>
                    <path id="Path_3425" d="M456.042 474.1q-1.814-.242-3.638-.391c.062.241.118.494.169.761 1.141.09 2.31.217 3.523.384a35.212 35.212 0 0 0-.053-.754zm-.176 15.194a41.2 41.2 0 0 1-3.571.742l-.085.825q1.817-.218 3.617-.573z" class="cls-27" data-name="Path 3425" transform="translate(-431.153 -423.387)"/>
                    <path id="Path_3426" d="M444.3 475.3c2.47-.362 4.769-.632 7.033-.777.042-.318.092-.627.147-.923a70.358 70.358 0 0 0-7.092.553q-.055.557-.088 1.147zm7.388 15.821l-.009-.167a.759.759 0 0 0 .009.163z" class="cls-28" data-name="Path 3426" transform="translate(-437.779 -423.481)"/>
                    <path id="Path_3427" d="M442.971 473.767q1.268-.207 2.541-.369c-.436 2.284-.537 3.324-1.038 3.381-.531.063-1.4-.992-1.503-3.012z" class="cls-29" data-name="Path 3427" transform="translate(-438.893 -423.648)"/>
                    <path id="Path_3428" d="M455.993 474.577a13.15 13.15 0 0 0-.169-.761q-2.834-.234-5.678-.233c-.623 0-1.248.007-1.871.026-.055.3-.1.6-.147.923a54.887 54.887 0 0 1 7.865.046zm-7.52 16.385l.009.167a1.16 1.16 0 0 0 .031.14q.816.03 1.632.029a46.28 46.28 0 0 0 5.485-.329l.085-.825a38.355 38.355 0 0 1-5.61.445c-.624 0-1.586-.217-1.631.373z" class="cls-7" data-name="Path 3428" transform="translate(-434.573 -423.493)"/>
                    <path id="Path_3429" d="M456.923 474.309q.022.529.031 1.081l-.939 14.325q-.915.215-1.836.4l.039-.994q.524-.132 1.06-.272c.3-4.629.279-9.326.583-13.957q-.716-.113-1.413-.211a35.212 35.212 0 0 0-.053-.754q1.267.167 2.528.382z" class="cls-30" data-name="Path 3429" transform="translate(-429.505 -423.208)"/>
                    <path id="Path_3430" d="M445.065 475.081q-.835.124-1.7.263a4.771 4.771 0 0 1-.338-1.1c.75-.123 1.505-.235 2.259-.335-.086.459-.153.846-.221 1.172z" class="cls-31" data-name="Path 3430" transform="translate(-438.845 -423.219)"/>
                    <g id="Group_262" data-name="Group 262" transform="translate(8.032 52.28)">
                        <path id="Path_3431" d="M445.123 475.486a22.57 22.57 0 0 1 5.32.452c.017-.362.037-.717.064-1.062a12.208 12.208 0 0 0-5.384.61zm5.3 1.125c-.007.276-.011.555-.015.838-2.58.533-4.795.6-5.131-1.812.838 1.74 2.878 1.578 5.145.974zm8.455.656a2.462 2.462 0 0 1 .34.658 3.376 3.376 0 0 0-.436-2.257c.042.528.076 1.06.1 1.6zm-8.2 7.621a5.779 5.779 0 0 0-1.415.729q.179.46.347.923c.377-.167.753-.331 1.141-.483l-.074-1.169zm-.562 3.095c.252-.028.5-.061.753-.092l-.073-1.136c-.336.062-.68.13-1.033.209q.182.507.353 1.018zm8.282-.5a12.435 12.435 0 0 1 1.421.292 14.829 14.829 0 0 0-1.393-.592z" class="cls-12" data-name="Path 3431" transform="translate(-445.123 -474.775)"/>
                        <path id="Path_3432" d="M450.869 487.891l-.073-1.136c-.336.062-.68.13-1.033.209q.182.507.353 1.018c.252-.028.5-.061.753-.092zm-1.259-1.351c.377-.167.753-.331 1.141-.483l-.074-1.169a5.779 5.779 0 0 0-1.415.729q.179.46.347.923zm.8-9.091c0-.283.007-.562.015-.838-2.27.6-4.309.766-5.147-.974.336 2.415 2.551 2.343 5.133 1.812zm.037-1.511a22.57 22.57 0 0 0-5.32-.452 12.208 12.208 0 0 1 5.384-.61c-.029.346-.051.7-.068 1.062z" class="cls-18" data-name="Path 3432" transform="translate(-445.123 -474.775)"/>
                        <path id="Path_3433" d="M448.1 474.83q-.039.518-.064 1.062a5.7 5.7 0 0 1 1.038.368c-.357.108-.711.211-1.06.3-.007.276-.013.555-.015.838.667-.138 1.362-.307 2.053-.472a4.033 4.033 0 0 1 1.029 2.075 5.5 5.5 0 0 0-.375-2.229c2.433-.56 4.741-.93 5.761.445a33.419 33.419 0 0 0-.1-1.6c-1.007-1.367-3.556-.546-6.2.3a3.482 3.482 0 0 0-2.071-1.086zm.171 10.012l.074 1.169a13.227 13.227 0 0 1 6.709-.878c-3.392-.855-5.392-.774-6.783-.29zm.118 1.867l.074 1.136a26.636 26.636 0 0 1 7.529-.408l.028-.3a13.892 13.892 0 0 0-7.632-.428z" class="cls-32" data-name="Path 3433" transform="translate(-442.715 -474.729)"/>
                    </g>
                    <path id="Path_3434" d="M460.544 477.985a.19.19 0 0 1 .358-.125.384.384 0 0 0 .042.094.472.472 0 0 0 .112-.228.385.385 0 0 0-.057-.356.33.33 0 0 0-.127-.086.362.362 0 0 0-.158-.022.228.228 0 0 0-.193.109 2.228 2.228 0 0 0-.074.906c.02.711.042 1.476-.614 1.674a6.835 6.835 0 0 1-.006 1.4.717.717 0 0 1-.085.285.634.634 0 0 1-.29.27.711.711 0 0 1-.371.061.808.808 0 0 1-.3-.094.629.629 0 0 1-.333-.52.586.586 0 0 1 .048-.259.527.527 0 0 1 .173-.213.693.693 0 0 1 .671-.037.19.19 0 0 1-.136.354.338.338 0 0 0-.314-.009.142.142 0 0 0-.048.057.192.192 0 0 0-.015.086.253.253 0 0 0 .138.208.417.417 0 0 0 .153.048.345.345 0 0 0 .175-.027.257.257 0 0 0 .12-.11.375.375 0 0 0 .04-.138 6.5 6.5 0 0 0 0-1.323 1.437 1.437 0 0 1-.985-.746q.014-.411.022-.816c.031.083.064.167.1.25a1.58 1.58 0 0 0 .8.915c-.011-.072-.026-.142-.04-.209a4.6 4.6 0 0 0-.667-1.6c-.072-.1-.134-.191-.189-.261v-.511a2 2 0 0 1 .5.562 4.983 4.983 0 0 1 .724 1.733c.018.086.035.173.05.263.32-.169.3-.743.287-1.277a2.386 2.386 0 0 1 .118-1.094.6.6 0 0 1 .5-.309.758.758 0 0 1 .318.046.725.725 0 0 1 .279.191.747.747 0 0 1 .141.693.867.867 0 0 1-.22.415.417.417 0 0 1-.208.114.329.329 0 0 1-.263-.059.6.6 0 0 1-.195-.292zm-13.821 1.161c.031.013.061.028.09.042a1.314 1.314 0 0 0 .549-.781 1.155 1.155 0 0 0-.068-.726.922.922 0 0 0-.452-.469 1.05 1.05 0 0 0-1.057.211 27.68 27.68 0 0 0-.191-.327 1.386 1.386 0 0 1 1.4-.232 1.3 1.3 0 0 1 .645.66 1.534 1.534 0 0 1 .092.965 1.671 1.671 0 0 1-.6.935l.042.051a.824.824 0 0 1 .062.693 44.38 44.38 0 0 0-.511-1.024zm.816 1.667a.575.575 0 0 1 .454.356.57.57 0 0 1-.055.472l-.013.024c-.127-.287-.255-.57-.386-.853zm1.428-3.016a.189.189 0 0 1 .338.169.676.676 0 0 1-.686.4.8.8 0 0 1-.463-.211.591.591 0 0 1-.2-.474.745.745 0 0 1 .527-.584 2.292 2.292 0 0 1 1.34-.05c.063.015.125.031.186.051 0 .134 0 .268.007.4a2.379 2.379 0 0 0-.281-.088 1.914 1.914 0 0 0-1.1.029c-.206.09-.29.186-.3.27a.217.217 0 0 0 .079.167.394.394 0 0 0 .235.108.313.313 0 0 0 .314-.2zm1.108 1.538l-.017-.439a2.229 2.229 0 0 0-.355-.125 1.582 1.582 0 0 0-1.562.279 1.276 1.276 0 0 0-.345.583 1.52 1.52 0 0 0-.031.689A1.938 1.938 0 0 0 449 481.77a1.15 1.15 0 0 0 .182.055.733.733 0 0 0 .529-.064.93.93 0 0 0 .39-.487 1.535 1.535 0 0 0 .057-.171l-.017-.312a.169.169 0 0 0-.092-.051.192.192 0 0 0-.226.143 1.651 1.651 0 0 1-.073.252.557.557 0 0 1-.222.3.378.378 0 0 1-.265.024.945.945 0 0 1-.121-.039 1.562 1.562 0 0 1-1-1.162 1.191 1.191 0 0 1 .022-.524.891.891 0 0 1 .241-.41 1.23 1.23 0 0 1 1.207-.187 1.631 1.631 0 0 1 .463.199z" class="cls-27" data-name="Path 3434" transform="translate(-436.695 -420.827)"/>
                    <path id="Path_3435" d="M450.158 481.105l-.017-.312a.169.169 0 0 0-.092-.051.192.192 0 0 0-.226.143 1.651 1.651 0 0 1-.073.252.557.557 0 0 1-.222.3.378.378 0 0 1-.265.024.945.945 0 0 1-.121-.039 1.562 1.562 0 0 1-1-1.162 1.191 1.191 0 0 1 .022-.524.891.891 0 0 1 .241-.41 1.23 1.23 0 0 1 1.207-.187 1.631 1.631 0 0 1 .467.2l-.017-.439a2.229 2.229 0 0 0-.355-.125 1.582 1.582 0 0 0-1.562.279 1.276 1.276 0 0 0-.345.583 1.52 1.52 0 0 0-.031.689A1.938 1.938 0 0 0 449 481.77a1.15 1.15 0 0 0 .182.055.733.733 0 0 0 .529-.064.93.93 0 0 0 .39-.487 1.678 1.678 0 0 0 .057-.171zm-.138-3.6l-.007-.4a1.965 1.965 0 0 0-.186-.051 2.292 2.292 0 0 0-1.34.05.745.745 0 0 0-.527.584.591.591 0 0 0 .2.474.8.8 0 0 0 .463.211.676.676 0 0 0 .686-.4.189.189 0 0 0-.338-.169.313.313 0 0 1-.314.2.394.394 0 0 1-.235-.108.217.217 0 0 1-.079-.167c.007-.084.092-.18.3-.27a1.914 1.914 0 0 1 1.1-.029 2.281 2.281 0 0 1 .281.088zm-3.3 1.639c.031.013.061.028.09.042a1.314 1.314 0 0 0 .549-.781 1.155 1.155 0 0 0-.068-.726.922.922 0 0 0-.452-.469 1.05 1.05 0 0 0-1.057.211 27.68 27.68 0 0 0-.191-.327 1.386 1.386 0 0 1 1.4-.232 1.3 1.3 0 0 1 .645.66 1.534 1.534 0 0 1 .092.965 1.671 1.671 0 0 1-.6.935l.042.051a.824.824 0 0 1 .062.693 44.38 44.38 0 0 0-.511-1.024zm.816 1.667a.575.575 0 0 1 .454.356.57.57 0 0 1-.055.472l-.013.024c-.122-.284-.252-.563-.383-.85z" class="cls-27" data-name="Path 3435" transform="translate(-436.695 -420.827)"/>
                    <path id="Path_3436" d="M448 477.048l.007.4a1.7 1.7 0 0 1 .3.152.875.875 0 0 1 .344.382.709.709 0 0 1 .029.459l-.018.073c-.031.121-.088.349-.147.625a2.041 2.041 0 0 0-.47-.3l.017.439a1.636 1.636 0 0 1 .243.182c.042.037.083.077.125.121a4.771 4.771 0 0 0-.1 1.327.889.889 0 0 0 .34.684.378.378 0 0 0 .356.018.585.585 0 0 0 .252-.23 1.214 1.214 0 0 0 .029-1.084 3.392 3.392 0 0 0-.478-.827c.075-.377.158-.708.2-.862l.018-.075a1.11 1.11 0 0 0-.05-.7 1.279 1.279 0 0 0-.485-.549 2.093 2.093 0 0 0-.516-.239zm.129 3.69a.188.188 0 0 1 .051.174 2.312 2.312 0 0 1-.035.138l-.017-.312zm8.334-1.557c.011-.274.018-.546.024-.818a3.124 3.124 0 0 1-.193-.834c-.011-.162-.033-.285-.027-.283a.633.633 0 0 1 .231.209v-.511a.479.479 0 0 0-.121-.059c-.349-.108-.494.189-.461.667a3.811 3.811 0 0 0 .329 1.218 3.466 3.466 0 0 0 .219.41zm-7.718.827a3.339 3.339 0 0 1 .219.437.835.835 0 0 1 0 .739.224.224 0 0 1-.081.084h-.017c-.061-.037-.119-.162-.154-.41a3.372 3.372 0 0 1 .035-.851zm.858 1.7a.189.189 0 0 1-.2-.182.186.186 0 0 1 .18-.2.354.354 0 0 0 .149-.039.463.463 0 0 0 .2-.3 2.075 2.075 0 0 0 .051-.63 7.242 7.242 0 0 0-.606-2.4 1.634 1.634 0 0 1-.244-.691.291.291 0 0 1 .173-.289.416.416 0 0 1 .283 0 2.1 2.1 0 0 1 .65.41 4.6 4.6 0 0 1 1.092 1.738 7.027 7.027 0 0 1 .417 1.665 3.046 3.046 0 0 0 .173-.788 6.332 6.332 0 0 0-.176-2.034 1.294 1.294 0 0 1 .011-.75.624.624 0 0 1 .222-.3.517.517 0 0 1 .369-.083 1 1 0 0 1 .529.287.189.189 0 1 1-.257.277.639.639 0 0 0-.322-.189.148.148 0 0 0-.1.02.265.265 0 0 0-.081.118.925.925 0 0 0 0 .527 6.676 6.676 0 0 1 .184 2.161 2.334 2.334 0 0 1-.568 1.474l-.316.3v-.436a6.232 6.232 0 0 0-.43-2.115 4.208 4.208 0 0 0-.989-1.591 1.915 1.915 0 0 0-.465-.314 2.255 2.255 0 0 0 .186.423 7.719 7.719 0 0 1 .651 2.565 2.4 2.4 0 0 1-.064.75.824.824 0 0 1-.386.533.723.723 0 0 1-.311.083zm4.291-3.874a3.482 3.482 0 0 1 .377 2.071 3.853 3.853 0 0 1-.246 1.081 3.1 3.1 0 0 0 .818.388.7.7 0 0 0 .822-.353 1.808 1.808 0 0 0 .22-.754 3.145 3.145 0 0 0-.061-.954 2.21 2.21 0 0 0-1.737-1.893h-.033a.826.826 0 0 0-.735.277 1.428 1.428 0 0 0-.318.757l-.005.046c-.04.39.026.593.127.676a.146.146 0 0 0 .1.037.186.186 0 0 0 .108-.038.216.216 0 0 0 .083-.217.318.318 0 0 0-.059-.143c-.246-.272-.083-.656.281-.254a.7.7 0 0 1 .147.322.583.583 0 0 1-.228.6.588.588 0 0 1-.324.112.521.521 0 0 1-.347-.123 1.113 1.113 0 0 1-.261-1.009l.005-.046a1.81 1.81 0 0 1 .41-.963 1.187 1.187 0 0 1 1.058-.4h.033a2.575 2.575 0 0 1 2.062 2.189 3.545 3.545 0 0 1 .066 1.07 2.214 2.214 0 0 1-.272.91 1.057 1.057 0 0 1-1.233.527 3.351 3.351 0 0 1-.9-.415 1.24 1.24 0 0 1-.287.334.829.829 0 0 1-.068.048.684.684 0 0 1-.752.081.645.645 0 0 1-.29-.526.671.671 0 0 1 .231-.559.745.745 0 0 1 .816-.018c.061.029.127.064.195.1a3.6 3.6 0 0 0 .195-.917 3.081 3.081 0 0 0-.32-1.832c-.1-.154.187-.412.32-.206zm-.56 3.528a.9.9 0 0 0 .2-.232 1.705 1.705 0 0 0-.189-.1c-.21-.1-.344-.088-.419-.028a.292.292 0 0 0-.09.244.266.266 0 0 0 .107.22c.07.041.186.031.353-.075z" class="cls-7" data-name="Path 3436" transform="translate(-434.681 -420.772)"/>
                    <path id="Path_3437" d="M446.741 458.277q.011 3.275.033 6.549a22.2 22.2 0 0 0 9.067 0q.025-3.278.033-6.551a29.894 29.894 0 0 0-9.133.002z" class="cls-24" data-name="Path 3437" transform="translate(-435.735 -436.609)"/>
                    <path id="Path_3438" d="M454.512 465c.017-2.249.029-4.576.035-6.847a29.833 29.833 0 0 0-7.31 0c.005 2.271.018 4.6.035 6.847a22.157 22.157 0 0 0 7.24 0z" class="cls-21" data-name="Path 3438" transform="translate(-435.32 -436.609)"/>
                    <path id="Path_3439" d="M448.052 458.005c.013 1.251.066 2.5.064 3.775 0 .452.005.9.011 1.356.013.731.009 1.406-.009 2.06a22.123 22.123 0 0 0 4.37-.018c-.006-.614-.013-1.2-.04-1.726-.125-1.924.015-3.607.039-5.44a29.751 29.751 0 0 0-4.435-.007z" class="cls-22" data-name="Path 3439" transform="translate(-434.637 -436.609)"/>
                    <path id="Path_3440" d="M448.7 457.942c-.005 2.382.11 4.875.07 7.334a21.909 21.909 0 0 0 2.431-.035c-.009-.735-.017-1.463-.037-2.172-.024-.867.1-3.337-.02-5.107q-1.223-.062-2.444-.02z" class="cls-24" data-name="Path 3440" transform="translate(-434.098 -436.609)"/>
                    <path id="Path_3441" d="M449.232 457.93v.006a57.141 57.141 0 0 1 .094 6.941c-.005.094-.017.231-.033.406a20.426 20.426 0 0 1-.856-.041 63.826 63.826 0 0 0-.037-7.281c.278-.014.555-.024.832-.031z" class="cls-33" data-name="Path 3441" transform="translate(-434.346 -436.605)"/>
                    <path id="Path_3442" d="M449.589 458.826c.013-.327.029-.625.05-.9.34.007.678.022 1.016.04.026.463.033.97.015 1.492a41.808 41.808 0 0 0 .127 4.725c.024.338.04.678.055 1.018-.367.033-.733.055-1.1.07.009-.652.015-1.3 0-1.937-.038-1.503-.115-3.001-.163-4.508z" class="cls-25" data-name="Path 3442" transform="translate(-433.35 -436.605)"/>
                    <path id="Path_3443" d="M446.742 458.51v.641c.3-.02.608-.039.911-.055v-.68c-.305.028-.608.059-.912.094zm8.216.586c.3.017.608.035.911.055v-.641c-.3-.035-.606-.066-.911-.094v.68zm-8.192 4.1v.607c.3.046.608.088.911.125v-.658a45.337 45.337 0 0 1-.911-.074zm8.167.732c.3-.037.608-.079.911-.125v-.607c-.3.028-.606.053-.911.075z" class="cls-9" data-name="Path 3443" transform="translate(-435.734 -436.198)"/>
                    <path id="Path_3444" d="M449.274 458.329c.017.246.031.5.044.744-.287 0-.575.007-.862.013-.009-.244-.02-.489-.033-.735.283-.011.566-.018.851-.022zm.063 5.142l-.02.744a31.374 31.374 0 0 1-.867-.029l.026-.731c.285.007.572.012.86.016z" class="cls-34" data-name="Path 3444" transform="translate(-434.326 -436.271)"/>
                    <path id="Path_3445" d="M449.589 458.493l.007-.164c.36.006.722.017 1.082.033 0 .239 0 .483-.009.731a62.334 62.334 0 0 0-1.062-.018c-.005-.195-.013-.388-.018-.582zm1.176 4.947l.031.415c.005.1.013.2.018.307q-.526.033-1.055.048v-.742q.504-.009 1.006-.028z" class="cls-34" data-name="Path 3445" transform="translate(-433.35 -436.271)"/>
                    <path id="Path_3446" d="M454.311 461.542a3.242 3.242 0 0 0-1.22-1.117 46.07 46.07 0 0 0-.013.989 8.877 8.877 0 0 1 1.233.129zm-5.515-.66a3.731 3.731 0 0 1-1.325.074 3 3 0 0 0 1.329.693v-.23-.537zm5.721 3.095v-.656a48.79 48.79 0 0 1-1.376.079c.007.23.013.467.018.711.45-.033.9-.079 1.354-.134zm-5.7-.568q-.777-.033-1.555-.088v.656q.775.094 1.547.149v-.717zm5.726-4.263v-.68q-.695-.063-1.391-.1a42.61 42.61 0 0 1-.022.72c.47.015.941.037 1.411.061zm-5.8-.788c-.5.028-1.005.062-1.507.108v.68a64.294 64.294 0 0 1 1.522-.064l-.013-.725z" class="cls-35" data-name="Path 3446" transform="translate(-435.319 -436.248)"/>
                    <path id="Path_3447" d="M448.109 460.908v.767a3.149 3.149 0 0 0 .7.068c0-.336 0-.673-.005-1.011-.232.066-.465.127-.695.176zm1.562.766c.4-.053.836-.127 1.314-.178l-.051-1.281a7.1 7.1 0 0 0-1.268.263q.008.6.005 1.2zm2.275-.239h.445c0-.333.006-.661.013-.989a2.493 2.493 0 0 0-.474-.173c0 .388.006.772.017 1.158zm-3.888-3.052l.016.724c.228-.007.458-.013.687-.018-.009-.244-.02-.489-.033-.735-.224.007-.447.018-.671.029zm1.566.693q.634-.006 1.266 0c-.006-.195-.013-.388-.018-.583l.007-.164a40.24 40.24 0 0 0-1.3 0c.017.246.031.5.044.744zm2.328.02c.165 0 .329.009.492.015.009-.239.017-.48.022-.72a77.378 77.378 0 0 0-.505-.026c0 .239 0 .483-.009.731zm-3.822 4.339v.717c.21.015.419.027.628.037l.026-.731c-.217-.006-.434-.015-.651-.022zm1.492.783q.711.014 1.421-.005v-.743q-.7.011-1.4 0l-.02.744zm2.475-.053c.127-.009.252-.017.379-.028a70.86 70.86 0 0 0-.018-.711c-.136.007-.274.013-.41.016l.031.415c.005.103.013.204.021.307z" class="cls-7" data-name="Path 3447" transform="translate(-434.632 -436.274)"/>
                    <path id="Path_3448" d="M448.978 461.674c.4-.053.836-.127 1.314-.178l-.051-1.281a6.93 6.93 0 0 0-1.268.263q.008.6.006 1.2zm-.048-2.6h1.266c-.006-.193-.013-.388-.018-.583l.007-.164q-.65-.011-1.3 0c.017.246.031.5.044.744zm0 5.142q.711.014 1.421-.005v-.743q-.7.011-1.4 0l-.023.75z" class="cls-9" data-name="Path 3448" transform="translate(-433.938 -436.274)"/>
                    <path id="Path_3449" d="M449.326 459.5q.008.6.006 1.2a7.229 7.229 0 0 1-.862.07c0-.338 0-.674-.006-1.013.287-.089.575-.177.862-.257z" class="cls-34" data-name="Path 3449" transform="translate(-434.292 -435.293)"/>
                    <path id="Path_3450" d="M450.619 459.424c0 .388.006.772.017 1.158-.342 0-.66.028-.961.061l-.051-1.281a2.967 2.967 0 0 1 .995.062z" class="cls-34" data-name="Path 3450" transform="translate(-433.321 -435.42)"/>
                </g>
            </g>
            <path id="Path_3451" d="M487.954 534.383a5.838 5.838 0 0 1 3.052 4.326c.6 3.866-1.557 5.7-4.26 5.02-4.651-1.18-19.481-5.993-21.64-2.144-.943-3.177 6.5-3.618 8.767-3.374 4.061.441 9.674 3.214 13.424 2.9 2.508-.209.65-4.644.007-5.191a6.126 6.126 0 0 0-2.483-1c-2.2-.547-2.435-1.165-.634-2.417a5.216 5.216 0 0 0 2.433-4.647 93.524 93.524 0 0 1-2.407-17.454 3.015 3.015 0 0 0-3.66-2.689c-1.446.211-4.162.344-1.911-1.7 1.79-1.628 3.343-3.425 3.664-5.7.108-.77.2-2.8-.79-3.238-.763-.333-.426-.81-.167-1.99a9.319 9.319 0 0 0 .112-3.631 179.22 179.22 0 0 1-3.108-21.31c-.208-2.475-2.389-.084-1.437-3.841.744-2.94-.147-6.436-.6-9.975-.176-1.362-.215-1.4-1.876-1.478-5.046-.233-19.135 2.678-19.869 3.025 2.834-4.115 16.447-5.285 21.032-5.954a2.75 2.75 0 0 1 3.317 2.165c-.393 3.646 1.228 9.174.427 12.176-.812 3.036 1.917 1.239 1.814 4.42-.261 8.051 1.461 14.737 2.909 21.462.513 2.382-1.408 3.832-.16 6.132 1.562 2.88-.044 5.449-1.733 7.364-1.479 1.676 4.5.292 4.328 4.1-.338 7.31 1.687 13.257 2.979 18.763.241 1.647-1.073 2.986-2.347 4.05-1.978 1.647.179 1.493.817 1.83z" class="cls-36" data-name="Path 3451" transform="translate(-403.939 -439.889)"/>
            <path id="Path_3452" d="M464.636 535.822l9.31-1.334 13.34 3.376-.165-1.422c-1.172-1.29-1.358-1.042-2.714-1.371l-8.481-2.053 7.577-4.225c2.652-1.479 1.781-3.04 1.415-5.557l-11.847 6.992-6.577.2c-2.734.463-2.174 3.343-1.856 5.4zm9.508-81.181l-17.833 2.027c-1.761.2-1.941 1.823-1.9 3.065.072 2.1-.228 5.758.856 7.575 2.271 3.81 11.006 3.618 11.155-1.865 2.45 3.964 10.591 3.108 9.141-3.922l-1.42-6.88zm-9.207 5.989c.377 2.6-.342 4.464-3.177 4.864-3.144.445-5.849.02-5.039-3.9l8.185-1.185.031.224zm1.5-.45l6.4-.935c.314 2.17.391 4.245-2.3 4.651-2.758.415-3.753-1.264-4.107-3.716zm9.822 9.095l1.646 6.68c1.694 6.888-6.981 9.326-9.275 3.616.377 3.006-1.336 2.95-4.96 3.923-.731-2.694-2.808-4.083-.028-4.875 3.9-1.112 4-.2 3.51-3.6l-7.952 1.163c-3.236-3.187-3.679-4.873 1-5.333l16.061-1.575zM469 474.751l.173 1.189c.577 3.988 6.562 3.282 5.961-.871l-.173-1.189-5.961.871zm9.383 7.74c-4.932.877.419 6.68-.779 8.24-.391.511-1.623.581-2.27.671l-.031-.224c-.643-4.431-2.1-8.325-7.2-7.538s-1.628 6.186-2.913 13.614l11.875-1.737c2.44-.356 3.589-2.31 3-5.076l-1.687-7.95zm-4.552 9.146l-6.764.93c-.092-2.251-.154-4.339 2.514-4.715a3.965 3.965 0 0 1 4.217 3.558l.033.228zm9.339 17.765l-19.222 2.823c-.085-3.332 1.566-4.976 3.914-7.189l5.68-5.057-8.571 1.253c-.153-1.081-.417-2.96 1.138-3.118l14.948-1.516c.417 2.768-1.444 4.412-3.368 6.182l-6.878 6.178 8.8-1.286a3.921 3.921 0 0 1 3.4.754l.154.978zm-.825 1.871l1.527 5.982c1.52 5.956-2.5 7.768-7.948 8.563-2.826.413-7.492 1.351-10.092.009-2.927-1.513-1.922-6.974-1.9-9.653.009-1.16.068-3.075 1.858-3.253l16.554-1.648zm-1.13 4.572l-15.267 2.222c-.175 1.018-.314 2.315.467 3.144 1.47 1.564 6.636.513 8.757.235 1.823-.239 5.338-.8 6.151-2.654a6.053 6.053 0 0 0-.107-2.947z" class="cls-37" data-name="Path 3452" transform="translate(-404.074 -437.578)"/>
            <path id="Path_3453" d="M465.206 535.2l9.308-1.334 12.215 3.091c-.169-1.148-.158-2.122-1.753-2.508l-8.485-2.053 7.571-4.225a1.909 1.909 0 0 0 1.1-1.918l-.47-3.212-11.061 6.566-6.575.9c-2.733.465-2.17 2.641-1.851 4.693zm9.4-81.181l-17.879 2.6a2.2 2.2 0 0 0-1.845 2.488c.075 2.106-.221 5.757.865 7.575 2.281 3.817 10.236 3.662 11.054-1.268l.1-.6.318.515c1.61 2.6 9.525 3.3 8.391-4.462l-1-6.855zm-9.2 5.989c.38 2.6-.338 4.464-3.172 4.864-3.144.445-5.849.02-5.042-3.9l8.181-1.185.033.224zm1.5-.45l6.4-.935c.318 2.17.4 4.245-2.288 4.651-2.758.415-3.754-1.264-4.113-3.716zm9.837 9.095l1 6.856c1.025 7.02-6.316 9.15-8.617 3.44.382 3.006-1.332 2.949-4.954 3.923-.735-2.694-2.733-3.569.048-4.361 3.9-1.112 3.92-.719 3.422-4.115l-7.95 1.163c-3.24-3.186-3-3.975 1.643-4.655l15.407-2.253zm-7.257 5.476l.174 1.189c.583 3.988 6.568 3.282 5.96-.871l-.175-1.189-5.96.871zm9.295 8.468c-4.554.877.5 5.976-.667 7.512-.391.513-1.625.581-2.269.671l-.033-.224c-.647-4.431-2.238-7.647-7.33-6.86s-1.494 5.508-2.769 12.935l11.873-1.736c2.44-.357 2.551-3.029 2.266-4.977l-1.07-7.321zm-4.44 8.418l-6.763.93c-.1-2.251-.16-4.337 2.507-4.716a3.972 3.972 0 0 1 4.223 3.558l.033.228zm8.284 17.925l-18.138 2.663c-.09-3.332 1.558-4.977 3.9-7.189l5.673-5.057-8.569 1.253c-.154-1.081-.243-2.216 1.13-2.418l14.133-2.066c.423 2.768-.724 3.96-2.644 5.73l-7.294 6.557 9.326-1.364a2.156 2.156 0 0 1 2.479 1.891zm.257 1.711l.908 6.232c.886 6.086-1.862 7.518-7.308 8.314-2.826.414-7.49 1.353-10.093.009-2.929-1.512-1.931-6.972-1.913-9.653a2.342 2.342 0 0 1 1.845-2.5l16.561-2.4zm-1.125 4.572l-15.264 2.222c-.173 1.018-.311 2.317.471 3.146 1.474 1.562 6.638.511 8.758.233 1.823-.239 5.337-.8 6.145-2.654a6.033 6.033 0 0 0-.11-2.944z" class="cls-38" data-name="Path 3453" transform="translate(-403.682 -438.097)"/>
            <path id="Path_3454" d="M478.127 536.53l1.7.43c-.169-1.148-.158-2.122-1.753-2.508l-1.143-.278q.6 1.285 1.2 2.356zm-3.159-7.134l2.19-1.222a1.909 1.909 0 0 0 1.1-1.918l-.47-3.212-4.146 2.463a93.63 93.63 0 0 0 1.325 3.89zm-1.68-5.026q-.618-2-1.215-4.2a4.419 4.419 0 0 0 2.891-2 6.036 6.036 0 0 0-.11-2.948l-3.909.57q-.507-2.07-.992-4.267l6.026-.875.908 6.232c.654 4.491-.671 6.447-3.6 7.485zm-3.7-14.527q-.232-1.081-.456-2.191l4.113-.6a2.156 2.156 0 0 1 2.479 1.891l-6.136.9zm-1.112-5.524q-.664-3.5-1.272-7.219l6.652-.972c.423 2.768-.724 3.96-2.644 5.73l-2.736 2.461zm-1.536-8.874q-.331-2.106-.641-4.271l1.141-.156-.033-.228a4.365 4.365 0 0 0-1.542-2.755q-.264-1.985-.509-4.008c2.2.976 3.106 3.462 3.554 6.531l.033.224c.645-.09 1.878-.158 2.269-.671 1.169-1.536-3.887-6.636.667-7.512l1.07 7.321c.285 1.948.174 4.62-2.266 4.977l-3.743.548zm-1.823-13.452c2.92 1.053 6.459-1.465 5.726-6.481l-1-6.856-5.927.867q.168 2.158.368 4.361l4.262-.623.174 1.189a2.984 2.984 0 0 1-4.061 3.326l.011.1q.212 2.076.449 4.118zm-1.38-14.9q-.135-1.9-.243-3.76a5.5 5.5 0 0 0 .623-.059c2.687-.406 2.606-2.481 2.288-4.651l-3.128.458q-.1-2.233-.158-4.394l4.581-.667 1 6.855c.733 5.002-2.292 6.488-4.966 6.225z" class="cls-39" data-name="Path 3454" transform="translate(-396.779 -438.097)"/>
            <g id="Group_324" data-name="Group 324" transform="translate(.261 56.942)">
                <path id="Path_3455" d="M436.583 476.342c-.6.018-1.874-.046-2.488.95-.059.094-.116.189-.173.283h23.087a1.726 1.726 0 0 1 1.74 1c5.364 9.6 7.808 22.414 4.184 27.883-2.4 3.619-8.22 5.561-15.947 5.594-7.727-.033-13.549-1.975-15.947-5.594-3.624-5.469-1.18-18.281 4.184-27.883a1.433 1.433 0 0 1 .373-.515c-.647-.112-1.847-.2-2.229.47-4.782 8.428-8.229 22.052-4.861 29.107 1.944 4.07 7.492 6.1 15.545 6.95 1.7.441 1.863 7.542.035 8.977-1.794 1.406-7.814 3.993-11.43 4.063-1.573.031-1.127 1.3-.288 1.3H461.6c.838 0 1.285-1.264-.287-1.3-3.618-.07-9.637-2.657-11.432-4.063-1.828-1.435-1.667-8.536.035-8.977 8.053-.851 13.6-2.88 15.545-6.95 3.521-7.373-.483-22.065-5.587-30.344-.616-1-1.885-.932-2.49-.95z" class="cls-36" data-name="Path 3455" transform="translate(-427.16 -476.342)"/>
                <g id="Group_323" data-name="Group 323" transform="translate(3.072 2.145)">
                    <g id="Group_268" data-name="Group 268">
                        <g id="Group_265" data-name="Group 265">
                            <path id="Path_3456" d="M445.586 510.163c4.7 0 12.314-.851 15.188-5.188 1.648-2.486 1.709-6.413 1.454-9.277a44.459 44.459 0 0 0-3.266-12.662 47.181 47.181 0 0 0-2.409-5 .853.853 0 0 0-.945-.529h-20.043a.854.854 0 0 0-.946.529 47.144 47.144 0 0 0-2.409 5 44.391 44.391 0 0 0-3.264 12.662c-.257 2.863-.2 6.79 1.452 9.277 2.874 4.337 10.491 5.188 15.188 5.188z" class="cls-40" data-name="Path 3456" transform="translate(-428.832 -477.509)"/>
                            <path id="Path_3457" d="M455.44 478.239a46.3 46.3 0 0 1 2.266 4.73 42.96 42.96 0 0 1 3.2 12.4c.239 2.646.208 6.414-1.3 8.692-2.648 4-10.034 4.78-14.429 4.78s-11.781-.783-14.429-4.78c-1.511-2.279-1.542-6.046-1.3-8.692a43.02 43.02 0 0 1 3.2-12.4 45.933 45.933 0 0 1 2.268-4.73.442.442 0 0 1 .4-.235h5.3a.456.456 0 0 1 .434.594 60.644 60.644 0 0 0-1.073 3.839 61.908 61.908 0 0 0-1.735 11.337c-.123 2.334-.149 5.772.707 7.952 1.257 3.2 4.629 4.372 7.825 4.372s6.568-1.176 7.825-4.372c.856-2.18.831-5.618.706-7.952a61.759 61.759 0 0 0-1.733-11.337 59.336 59.336 0 0 0-1.073-3.839.456.456 0 0 1 .434-.594h2.124a.445.445 0 0 1 .383.235z" class="cls-41" data-name="Path 3457" transform="translate(-428.417 -477.094)"/>
                            <path id="Path_3458" d="M455.655 481.717a70.855 70.855 0 0 1 1.389 10.655c.14 2.834.129 6.739-.842 9.376a8.636 8.636 0 0 1-2.089 3.252 7.311 7.311 0 0 0 3.627-2.694c1.211-1.95 1.172-5.68.983-7.933a46.362 46.362 0 0 0-3.058-12.625l-.011-.03zm-18.386 23.593c-3.459-2.639-3.506-8.222-3.141-12.9a77.271 77.271 0 0 1 1.726-11.057q.119-.518.244-1.035c.38-1.573-1.452-1.053-1.836-.153q-.6 1.4-1.117 2.845a49.015 49.015 0 0 0-2.668 11.169c-.213 1.992-.36 5.293.47 7.018.987 2.053 3.453 3.603 6.322 4.113z" class="cls-42" data-name="Path 3458" transform="translate(-427.593 -475.999)"/>
                            <path id="Path_3459" d="M437.756 480.682a109.81 109.81 0 0 0-.759 10.03 35.4 35.4 0 0 0 .311 6.713c.629 3.089 2.382 3.692 3.42 3.692s2.793-.6 3.422-3.692a35.414 35.414 0 0 0 .309-6.713 109.81 109.81 0 0 0-.759-10.03c-.241-1.9-1.577-1.948-2.926-1.968-1.374-.02-2.774.028-3.018 1.968z" class="cls-43" data-name="Path 3459" transform="translate(-422.013 -476.502)"/>
                        </g>
                        <g id="Group_266" data-name="Group 266" transform="translate(.009)">
                            <path id="Path_3460" d="M462.327 497.45c-.017-.612-.053-1.2-.1-1.751a44.457 44.457 0 0 0-3.266-12.662 47.156 47.156 0 0 0-2.409-5 .853.853 0 0 0-.945-.529h-20.046a.854.854 0 0 0-.946.529 47.15 47.15 0 0 0-2.409 5 44.391 44.391 0 0 0-3.264 12.662 24.68 24.68 0 0 0-.1 1.751z" class="cls-44" data-name="Path 3460" transform="translate(-428.837 -477.509)"/>
                            <path id="Path_3461" d="M455.435 478.239a46.275 46.275 0 0 1 2.266 4.73 42.958 42.958 0 0 1 3.2 12.4c.048.52.083 1.082.1 1.67h-5.665c.037-1.165 0-2.306-.05-3.262a61.743 61.743 0 0 0-1.733-11.337 59.336 59.336 0 0 0-1.073-3.839.456.456 0 0 1 .434-.594h2.124a.445.445 0 0 1 .4.235zm-26.1 18.8c.017-.588.053-1.151.1-1.67a43.022 43.022 0 0 1 3.2-12.4 45.964 45.964 0 0 1 2.268-4.73.443.443 0 0 1 .4-.235h5.3a.456.456 0 0 1 .434.594 60.644 60.644 0 0 0-1.073 3.839 61.908 61.908 0 0 0-1.735 11.337c-.05.956-.085 2.1-.048 3.262z" class="cls-45" data-name="Path 3461" transform="translate(-428.421 -477.094)"/>
                            <path id="Path_3462" d="M455.641 481.717a70.851 70.851 0 0 1 1.389 10.655 46.8 46.8 0 0 1 .05 3.567h1.72c-.017-.568-.05-1.1-.09-1.568a46.358 46.358 0 0 0-3.058-12.625l-.011-.03zm-25.314 14.222h3.639c0-1.193.061-2.387.149-3.526a77.253 77.253 0 0 1 1.726-11.057q.119-.518.244-1.035c.38-1.573-1.452-1.053-1.836-.153q-.6 1.4-1.117 2.845a49.014 49.014 0 0 0-2.668 11.169 30.085 30.085 0 0 0-.137 1.757z" class="cls-46" data-name="Path 3462" transform="translate(-427.589 -475.999)"/>
                            <path id="Path_3463" d="M437.757 480.682a109.81 109.81 0 0 0-.759 10.03 43.793 43.793 0 0 0 .156 5.73h7.146a43.793 43.793 0 0 0 .156-5.73 109.81 109.81 0 0 0-.759-10.03c-.241-1.9-1.577-1.948-2.925-1.968-1.372-.02-2.772.028-3.015 1.968z" class="cls-47" data-name="Path 3463" transform="translate(-422.023 -476.502)"/>
                        </g>
                        <g id="Group_267" data-name="Group 267" transform="translate(.009 18.722)">
                            <path id="Path_3464" d="M462.327 488.915a27.268 27.268 0 0 0-.061-1.218c-.276.459-.842.437-1.316.437H430.6c-.93 0-1.395-.116-1.7-.437-.028.393-.05.8-.061 1.218z" class="cls-48" data-name="Path 3464" transform="translate(-428.837 -487.697)"/>
                            <path id="Path_3465" d="M460.967 487.949q.022.386.033.788h-5.665c.007-.263.013-.524.015-.781h5.186c.14 0 .287 0 .432-.008zm-31.634.788c.007-.281.02-.559.037-.827a5.934 5.934 0 0 0 .811.046h7.979c0 .257.006.518.015.781z" class="cls-42" data-name="Path 3465" transform="translate(-428.421 -487.519)"/>
                            <path id="Path_3466" d="M457.092 487.935c0 .257-.005.518-.013.781h1.72c-.009-.27-.02-.531-.035-.781zm-26.718 0h3.6c-.005.259-.007.52-.005.781h-3.639c.01-.268.026-.531.045-.781z" class="cls-49" data-name="Path 3466" transform="translate(-427.589 -487.498)"/>
                            <path id="Path_3467" d="M437.03 487.935c.02.268.046.531.075.781h7.148c.029-.25.055-.513.075-.781z" class="cls-50" data-name="Path 3467" transform="translate(-421.974 -487.498)"/>
                        </g>
                    </g>
                    <g id="Group_289" data-name="Group 289" transform="translate(22.386)">
                        <g id="Group_272" data-name="Group 272">
                            <g id="Group_269" data-name="Group 269">
                                <path id="Path_3468" d="M442.714 509.424c3.2-.709 6.261-2.042 7.856-4.449 1.648-2.486 1.709-6.413 1.454-9.277a44.459 44.459 0 0 0-3.266-12.662 47.18 47.18 0 0 0-2.409-5 .853.853 0 0 0-.945-.529h-4.39c.277 2.773.579 5.542.866 8.315.437 4.2.836 8.415 1.007 12.638a93.261 93.261 0 0 1-.173 10.964z" class="cls-51" data-name="Path 3468" transform="translate(-441.014 -477.509)"/>
                                <path id="Path_3469" d="M444.895 478.239a46.307 46.307 0 0 1 2.266 4.73 42.96 42.96 0 0 1 3.2 12.4c.239 2.646.208 6.414-1.3 8.692-1.4 2.113-4.124 3.328-7.029 4q.124-1.9.167-3.806a6.12 6.12 0 0 0 1.845-2.529c.856-2.18.831-5.618.706-7.952a61.738 61.738 0 0 0-1.733-11.337 59.336 59.336 0 0 0-1.073-3.839.456.456 0 0 1 .434-.594h2.122a.445.445 0 0 1 .395.235z" class="cls-52" data-name="Path 3469" transform="translate(-440.258 -477.094)"/>
                                <path id="Path_3470" d="M444.8 480.621a70.848 70.848 0 0 1 1.389 10.655c.14 2.834.129 6.739-.842 9.376a8.633 8.633 0 0 1-2.089 3.251 7.311 7.311 0 0 0 3.628-2.694c1.211-1.95 1.172-5.68.983-7.933a46.356 46.356 0 0 0-3.058-12.625z" class="cls-42" data-name="Path 3470" transform="translate(-439.13 -474.902)"/>
                            </g>
                            <g id="Group_270" data-name="Group 270">
                                <path id="Path_3471" d="M452.126 497.45c-.017-.612-.053-1.2-.1-1.751a44.459 44.459 0 0 0-3.266-12.662 47.18 47.18 0 0 0-2.409-5 .853.853 0 0 0-.945-.529h-4.39c.277 2.773.579 5.542.866 8.315.4 3.868.772 7.742.961 11.625z" class="cls-53" data-name="Path 3471" transform="translate(-441.014 -477.509)"/>
                                <path id="Path_3472" d="M444.895 478.239a46.307 46.307 0 0 1 2.266 4.73 42.96 42.96 0 0 1 3.2 12.4c.048.52.083 1.082.1 1.67h-5.665c.037-1.165 0-2.306-.05-3.262a61.738 61.738 0 0 0-1.733-11.337 59.336 59.336 0 0 0-1.073-3.839.456.456 0 0 1 .434-.594h2.126a.445.445 0 0 1 .395.232z" class="cls-45" data-name="Path 3472" transform="translate(-440.258 -477.094)"/>
                                <path id="Path_3473" d="M444.1 480.621a70.828 70.828 0 0 1 1.389 10.655 46.8 46.8 0 0 1 .05 3.567h1.72c-.017-.568-.05-1.1-.09-1.568a46.36 46.36 0 0 0-3.058-12.625z" class="cls-46" data-name="Path 3473" transform="translate(-438.427 -474.902)"/>
                            </g>
                            <g id="Group_271" data-name="Group 271" transform="translate(1.786 18.722)">
                                <path id="Path_3474" d="M451.312 488.915a27.268 27.268 0 0 0-.061-1.218c-.276.459-.842.437-1.316.437h-7.95c.015.259.028.52.041.781z" class="cls-54" data-name="Path 3474" transform="translate(-441.986 -487.697)"/>
                                <path id="Path_3475" d="M449.114 487.931q.022.386.033.788h-5.665c.007-.263.013-.524.015-.781h5.186c.139 0 .286.002.431-.007z" class="cls-42" data-name="Path 3475" transform="translate(-440.733 -487.501)"/>
                                <path id="Path_3476" d="M444.9 487.935c0 .257-.005.518-.013.781h1.72c-.009-.27-.02-.531-.035-.781z" class="cls-49" data-name="Path 3476" transform="translate(-439.558 -487.498)"/>
                            </g>
                        </g>
                        <g id="Group_276" data-name="Group 276" transform="translate(1.068)">
                            <g id="Group_273" data-name="Group 273">
                                <path id="Path_3477" d="M443.306 509.159c2.8-.761 5.362-2.049 6.777-4.184 1.648-2.486 1.709-6.413 1.454-9.277a44.457 44.457 0 0 0-3.266-12.662 47.15 47.15 0 0 0-2.409-5 .853.853 0 0 0-.944-.529H441.6c.274 2.736.571 5.471.854 8.205.439 4.227.84 8.459 1.011 12.706a94.107 94.107 0 0 1-.159 10.741z" class="cls-52" data-name="Path 3477" transform="translate(-441.595 -477.509)"/>
                                <path id="Path_3478" d="M444.895 478.239a46.307 46.307 0 0 1 2.266 4.73 42.96 42.96 0 0 1 3.2 12.4c.239 2.646.208 6.414-1.3 8.692-1.224 1.849-3.464 3.01-5.952 3.725q.143-2.324.167-4.66a6.19 6.19 0 0 0 .768-1.4c.856-2.18.831-5.618.706-7.952a61.738 61.738 0 0 0-1.733-11.337 59.336 59.336 0 0 0-1.073-3.839.456.456 0 0 1 .434-.594h2.122a.445.445 0 0 1 .395.235z" class="cls-55" data-name="Path 3478" transform="translate(-441.326 -477.094)"/>
                                <path id="Path_3479" d="M444.8 480.621a70.848 70.848 0 0 1 1.389 10.655c.14 2.834.129 6.739-.842 9.376a8.633 8.633 0 0 1-2.089 3.251 7.311 7.311 0 0 0 3.628-2.694c1.211-1.95 1.172-5.68.983-7.933a46.356 46.356 0 0 0-3.058-12.625z" class="cls-56" data-name="Path 3479" transform="translate(-440.198 -474.902)"/>
                            </g>
                            <g id="Group_274" data-name="Group 274">
                                <path id="Path_3480" d="M451.64 497.45a29.77 29.77 0 0 0-.1-1.751 44.457 44.457 0 0 0-3.266-12.662 47.15 47.15 0 0 0-2.409-5 .853.853 0 0 0-.944-.529H441.6c.274 2.736.571 5.471.854 8.205.406 3.905.778 7.814.969 11.735z" class="cls-57" data-name="Path 3480" transform="translate(-441.595 -477.509)"/>
                                <path id="Path_3481" d="M444.895 478.239a46.307 46.307 0 0 1 2.266 4.73 42.96 42.96 0 0 1 3.2 12.4c.048.52.083 1.082.1 1.67h-5.665c.037-1.165 0-2.306-.05-3.262a61.738 61.738 0 0 0-1.733-11.337 59.336 59.336 0 0 0-1.073-3.839.456.456 0 0 1 .434-.594h2.126a.445.445 0 0 1 .395.232z" class="cls-58" data-name="Path 3481" transform="translate(-441.326 -477.094)"/>
                                <path id="Path_3482" d="M444.1 480.621a70.828 70.828 0 0 1 1.389 10.655 46.8 46.8 0 0 1 .05 3.567h1.72c-.017-.568-.05-1.1-.09-1.568a46.36 46.36 0 0 0-3.058-12.625z" class="cls-46" data-name="Path 3482" transform="translate(-439.495 -474.902)"/>
                            </g>
                            <g id="Group_275" data-name="Group 275" transform="translate(1.783 18.722)">
                                <path id="Path_3483" d="M450.827 488.915a27.268 27.268 0 0 0-.061-1.218c-.276.459-.842.437-1.316.437h-6.886c.015.259.027.52.04.781z" class="cls-55" data-name="Path 3483" transform="translate(-442.565 -487.697)"/>
                                <path id="Path_3484" d="M449.114 487.931q.022.386.033.788h-5.665c.007-.263.013-.524.015-.781h5.186c.139 0 .286.002.431-.007z" class="cls-59" data-name="Path 3484" transform="translate(-441.797 -487.501)"/>
                                <path id="Path_3485" d="M444.9 487.935c0 .257-.005.518-.013.781h1.72c-.009-.27-.02-.531-.035-.781z" class="cls-49" data-name="Path 3485" transform="translate(-440.622 -487.498)"/>
                            </g>
                        </g>
                        <g id="Group_280" data-name="Group 280" transform="translate(4.681 .015)">
                            <g id="Group_277" data-name="Group 277">
                                <path id="Path_3486" d="M444.577 508.1a9.239 9.239 0 0 0 3.859-3.129c1.648-2.487 1.709-6.414 1.454-9.277a44.463 44.463 0 0 0-3.266-12.662 47.144 47.144 0 0 0-2.409-5c-.2-.353-.353-.478-.654-.515.839 10.453 1.658 20.225 1.016 30.583z" class="cls-40" data-name="Path 3486" transform="translate(-443.561 -477.517)"/>
                                <path id="Path_3487" d="M443.623 478.29a46.214 46.214 0 0 1 2.108 4.44 42.96 42.96 0 0 1 3.2 12.4c.239 2.646.208 6.414-1.3 8.692a8.007 8.007 0 0 1-3.039 2.587c.496-9.509-.197-18.548-.969-28.119z" class="cls-41" data-name="Path 3487" transform="translate(-443.509 -476.869)"/>
                                <path id="Path_3488" d="M444.1 480.621a70.828 70.828 0 0 1 1.389 10.655c.14 2.834.129 6.739-.842 9.376-.1.283-.219.555-.345.818-.015.529-.033 1.058-.053 1.591a5.9 5.9 0 0 0 1.937-1.852c1.211-1.95 1.172-5.68.983-7.933a46.36 46.36 0 0 0-3.058-12.625z" class="cls-42" data-name="Path 3488" transform="translate(-443.108 -474.917)"/>
                            </g>
                            <g id="Group_278" data-name="Group 278">
                                <path id="Path_3489" d="M449.993 497.443c-.017-.612-.053-1.2-.1-1.751a44.463 44.463 0 0 0-3.266-12.662 47.144 47.144 0 0 0-2.409-5c-.2-.353-.353-.478-.654-.515.549 6.814 1.088 13.34 1.216 19.926z" class="cls-44" data-name="Path 3489" transform="translate(-443.561 -477.517)"/>
                                <path id="Path_3490" d="M443.623 478.29a46.214 46.214 0 0 1 2.108 4.44 42.96 42.96 0 0 1 3.2 12.4c.048.52.083 1.082.1 1.67h-4.3c-.125-6.133-.599-12.207-1.108-18.51z" class="cls-45" data-name="Path 3490" transform="translate(-443.509 -476.869)"/>
                                <path id="Path_3491" d="M444.1 480.621a70.828 70.828 0 0 1 1.389 10.655 46.8 46.8 0 0 1 .05 3.567h1.72c-.017-.568-.05-1.1-.09-1.568a46.36 46.36 0 0 0-3.058-12.625z" class="cls-46" data-name="Path 3491" transform="translate(-443.108 -474.917)"/>
                            </g>
                            <g id="Group_279" data-name="Group 279" transform="translate(1.2 18.708)">
                                <path id="Path_3492" d="M449.446 488.915a27.268 27.268 0 0 0-.061-1.218c-.276.459-.842.437-1.316.437h-3.855c.006.259.013.52.017.781z" class="cls-48" data-name="Path 3492" transform="translate(-444.214 -487.697)"/>
                                <path id="Path_3493" d="M448.5 487.931q.022.386.033.788h-4.3c0-.261-.011-.522-.017-.781h3.855c.138 0 .285.002.429-.007z" class="cls-42" data-name="Path 3493" transform="translate(-444.214 -487.501)"/>
                                <path id="Path_3494" d="M444.9 487.935c0 .257-.005.518-.013.781h1.72c-.009-.27-.02-.531-.035-.781z" class="cls-49" data-name="Path 3494" transform="translate(-443.652 -487.498)"/>
                            </g>
                        </g>
                        <g id="Group_284" data-name="Group 284" transform="translate(4.681 .015)">
                            <g id="Group_281" data-name="Group 281">
                                <path id="Path_3495" d="M444.577 508.1a9.239 9.239 0 0 0 3.859-3.129c1.648-2.487 1.709-6.414 1.454-9.277a44.463 44.463 0 0 0-3.266-12.662 47.144 47.144 0 0 0-2.409-5c-.2-.353-.353-.478-.654-.515.839 10.453 1.658 20.225 1.016 30.583z" class="cls-51" data-name="Path 3495" transform="translate(-443.561 -477.517)"/>
                                <path id="Path_3496" d="M443.623 478.29a46.214 46.214 0 0 1 2.108 4.44 42.96 42.96 0 0 1 3.2 12.4c.239 2.646.208 6.414-1.3 8.692a8.007 8.007 0 0 1-3.039 2.587c.496-9.509-.197-18.548-.969-28.119z" class="cls-52" data-name="Path 3496" transform="translate(-443.509 -476.869)"/>
                                <path id="Path_3497" d="M444.1 480.621a70.828 70.828 0 0 1 1.389 10.655c.14 2.834.129 6.739-.842 9.376-.1.283-.219.555-.345.818-.015.529-.033 1.058-.053 1.591a5.9 5.9 0 0 0 1.937-1.852c1.211-1.95 1.172-5.68.983-7.933a46.36 46.36 0 0 0-3.058-12.625z" class="cls-59" data-name="Path 3497" transform="translate(-443.108 -474.917)"/>
                            </g>
                            <g id="Group_282" data-name="Group 282">
                                <path id="Path_3498" d="M449.993 497.443c-.017-.612-.053-1.2-.1-1.751a44.463 44.463 0 0 0-3.266-12.662 47.144 47.144 0 0 0-2.409-5c-.2-.353-.353-.478-.654-.515.549 6.814 1.088 13.34 1.216 19.926z" class="cls-53" data-name="Path 3498" transform="translate(-443.561 -477.517)"/>
                                <path id="Path_3499" d="M443.623 478.29a46.214 46.214 0 0 1 2.108 4.44 42.96 42.96 0 0 1 3.2 12.4c.048.52.083 1.082.1 1.67h-4.3c-.125-6.133-.599-12.207-1.108-18.51z" class="cls-57" data-name="Path 3499" transform="translate(-443.509 -476.869)"/>
                                <path id="Path_3500" d="M444.1 480.621a70.828 70.828 0 0 1 1.389 10.655 46.8 46.8 0 0 1 .05 3.567h1.72c-.017-.568-.05-1.1-.09-1.568a46.36 46.36 0 0 0-3.058-12.625z" class="cls-60" data-name="Path 3500" transform="translate(-443.108 -474.917)"/>
                            </g>
                            <g id="Group_283" data-name="Group 283" transform="translate(1.2 18.708)">
                                <path id="Path_3501" d="M449.446 488.915a27.268 27.268 0 0 0-.061-1.218c-.276.459-.842.437-1.316.437h-3.855c.006.259.013.52.017.781z" class="cls-54" data-name="Path 3501" transform="translate(-444.214 -487.697)"/>
                                <path id="Path_3502" d="M448.5 487.931q.022.386.033.788h-4.3c0-.261-.011-.522-.017-.781h3.855c.138 0 .285.002.429-.007z" class="cls-55" data-name="Path 3502" transform="translate(-444.214 -487.501)"/>
                                <path id="Path_3503" d="M444.9 487.935c0 .257-.005.518-.013.781h1.72c-.009-.27-.02-.531-.035-.781z" class="cls-61" data-name="Path 3503" transform="translate(-443.652 -487.498)"/>
                            </g>
                        </g>
                        <g id="Group_288" data-name="Group 288" transform="translate(4.03)">
                            <g id="Group_285" data-name="Group 285">
                                <path id="Path_3504" d="M444.153 508.422a13.152 13.152 0 0 0 1.981-1.005c.18-7-.206-14.277-.406-21.214-.048-1.685-.244-4.07-.393-6.623q-.4-.78-.823-1.542a.853.853 0 0 0-.945-.529h-.36c.774 8.534 1.167 17.507 1.213 26-.018 1.553-.1 3.06-.241 4.607z" class="cls-52" data-name="Path 3504" transform="translate(-443.207 -477.509)"/>
                                <path id="Path_3505" d="M443.776 478.239q.907 1.643 1.676 3.361c.108 1.6.208 3.056.239 4.188.191 6.572.546 13.45.43 20.106a11.024 11.024 0 0 1-1.918 1.086c.1-1.3.165-2.573.18-3.881-.044-8.2-.412-16.835-1.132-25.1h.127a.445.445 0 0 1 .398.24z" class="cls-55" data-name="Path 3505" transform="translate(-443.17 -477.094)"/>
                                <path id="Path_3506" d="M444.338 480.621c.4 1.933.724 3.892.969 5.86q-.05-1.45-.092-2.885a35.7 35.7 0 0 0-.022-.608 56.107 56.107 0 0 0-.843-2.338l-.011-.029zm1.292 16.519a14.957 14.957 0 0 1-.744 3.512 8.937 8.937 0 0 1-1.027 1.994c-.011.265-.024.529-.039.792a7.538 7.538 0 0 0 1.843-1.29c.013-1.662-.002-3.334-.033-5.008z" class="cls-56" data-name="Path 3506" transform="translate(-442.693 -474.902)"/>
                            </g>
                            <g id="Group_286" data-name="Group 286">
                                <path id="Path_3507" d="M445.335 479.58q-.4-.78-.823-1.542a.853.853 0 0 0-.945-.529h-.36c.592 6.526.961 13.31 1.123 19.94h1.762c-.1-3.784-.257-7.562-.364-11.246-.047-1.685-.244-4.07-.393-6.623z" class="cls-57" data-name="Path 3507" transform="translate(-443.207 -477.509)"/>
                                <path id="Path_3508" d="M443.776 478.239q.907 1.643 1.676 3.361c.108 1.6.208 3.056.239 4.188.107 3.685.265 7.463.364 11.247h-1.762c-.154-6.323-.5-12.785-1.042-19.031h.127a.445.445 0 0 1 .398.235z" class="cls-58" data-name="Path 3508" transform="translate(-443.17 -477.094)"/>
                                <path id="Path_3509" d="M444.1 480.621c.4 1.933.724 3.892.969 5.86q-.05-1.45-.092-2.885a35.7 35.7 0 0 0-.022-.608 56.107 56.107 0 0 0-.843-2.338z" class="cls-62" data-name="Path 3509" transform="translate(-442.457 -474.902)"/>
                            </g>
                            <g id="Group_287" data-name="Group 287" transform="translate(1.103 19.159)">
                                <path id="Path_3510" d="M445.568 487.935h-1.761l.02.781h1.762z" class="cls-48" data-name="Path 3510" transform="translate(-443.807 -487.935)"/>
                                <path id="Path_3511" d="M445.589 488.716h-1.762l-.02-.781h1.761z" class="cls-59" data-name="Path 3511" transform="translate(-443.807 -487.935)"/>
                            </g>
                        </g>
                    </g>
                    <g id="Group_322" data-name="Group 322" transform="translate(25.007)">
                        <g id="Group_305" data-name="Group 305">
                            <g id="Group_292" data-name="Group 292">
                                <g id="Group_290" data-name="Group 290">
                                    <path id="Path_3512" d="M449.491 488.61a49.91 49.91 0 0 0-1.928-5.574 47.162 47.162 0 0 0-2.409-5 .853.853 0 0 0-.945-.529h-1.77l.623 9.528a.546.546 0 0 0 .421.5 50.1 50.1 0 0 0 6.008 1.075z" class="cls-51" data-name="Path 3512" transform="translate(-442.44 -477.509)"/>
                                    <path id="Path_3513" d="M444.429 478.239a46.339 46.339 0 0 1 2.266 4.73 49.444 49.444 0 0 1 1.794 5.1q-2.5-.339-4.964-.934-.295-1.717-.678-3.414l-.375-5.721h1.558a.445.445 0 0 1 .399.239z" class="cls-52" data-name="Path 3513" transform="translate(-442.413 -477.094)"/>
                                    <path id="Path_3514" d="M444.1 480.621c.333 1.623.617 3.264.844 4.914q.416.074.832.143a52.5 52.5 0 0 0-1.665-5.028z" class="cls-42" data-name="Path 3514" transform="translate(-441.048 -474.902)"/>
                                </g>
                                <g id="Group_291" data-name="Group 291">
                                    <path id="Path_3515" d="M449.491 488.61a49.91 49.91 0 0 0-1.928-5.574 47.162 47.162 0 0 0-2.409-5 .853.853 0 0 0-.945-.529h-1.77l.623 9.528a.546.546 0 0 0 .421.5 50.1 50.1 0 0 0 6.008 1.075z" class="cls-53" data-name="Path 3515" transform="translate(-442.44 -477.509)"/>
                                    <path id="Path_3516" d="M444.429 478.239a46.339 46.339 0 0 1 2.266 4.73 49.444 49.444 0 0 1 1.794 5.1q-2.5-.339-4.964-.934-.295-1.717-.678-3.414l-.375-5.721h1.558a.445.445 0 0 1 .399.239z" class="cls-45" data-name="Path 3516" transform="translate(-442.413 -477.094)"/>
                                    <path id="Path_3517" d="M444.1 480.621c.333 1.623.617 3.264.844 4.914q.416.074.832.143a52.5 52.5 0 0 0-1.665-5.028z" class="cls-46" data-name="Path 3517" transform="translate(-441.048 -474.902)"/>
                                </g>
                            </g>
                            <g id="Group_295" data-name="Group 295">
                                <g id="Group_293" data-name="Group 293">
                                    <path id="Path_3518" d="M449.491 488.61a49.91 49.91 0 0 0-1.928-5.574 47.162 47.162 0 0 0-2.409-5 .853.853 0 0 0-.945-.529h-1.77l.623 9.528a.546.546 0 0 0 .421.5 50.1 50.1 0 0 0 6.008 1.075z" class="cls-52" data-name="Path 3518" transform="translate(-442.44 -477.509)"/>
                                    <path id="Path_3519" d="M444.429 478.239a46.339 46.339 0 0 1 2.266 4.73 49.444 49.444 0 0 1 1.794 5.1q-2.5-.339-4.964-.934-.295-1.717-.678-3.414l-.375-5.721h1.558a.445.445 0 0 1 .399.239z" class="cls-55" data-name="Path 3519" transform="translate(-442.413 -477.094)"/>
                                    <path id="Path_3520" d="M444.1 480.621c.333 1.623.617 3.264.844 4.914q.416.074.832.143a52.5 52.5 0 0 0-1.665-5.028z" class="cls-56" data-name="Path 3520" transform="translate(-441.048 -474.902)"/>
                                </g>
                                <g id="Group_294" data-name="Group 294">
                                    <path id="Path_3521" d="M449.491 488.61a49.91 49.91 0 0 0-1.928-5.574 47.162 47.162 0 0 0-2.409-5 .853.853 0 0 0-.945-.529h-1.77l.623 9.528a.546.546 0 0 0 .421.5 50.1 50.1 0 0 0 6.008 1.075z" class="cls-63" data-name="Path 3521" transform="translate(-442.44 -477.509)"/>
                                    <path id="Path_3522" d="M444.429 478.239a46.339 46.339 0 0 1 2.266 4.73 49.444 49.444 0 0 1 1.794 5.1q-2.5-.339-4.964-.934-.295-1.717-.678-3.414l-.375-5.721h1.558a.445.445 0 0 1 .399.239z" class="cls-21" data-name="Path 3522" transform="translate(-442.413 -477.094)"/>
                                    <path id="Path_3523" d="M444.1 480.621c.333 1.623.617 3.264.844 4.914q.416.074.832.143a52.5 52.5 0 0 0-1.665-5.028z" class="cls-46" data-name="Path 3523" transform="translate(-441.048 -474.902)"/>
                                </g>
                            </g>
                            <g id="Group_298" data-name="Group 298" transform="translate(2.06 .015)">
                                <g id="Group_296" data-name="Group 296">
                                    <path id="Path_3524" d="M448.552 488.6a49.918 49.918 0 0 0-1.928-5.574 47.144 47.144 0 0 0-2.409-5c-.2-.353-.353-.478-.654-.515.285 3.532.568 6.989.79 10.416q2.09.43 4.201.673z" class="cls-40" data-name="Path 3524" transform="translate(-443.561 -477.517)"/>
                                    <path id="Path_3525" d="M443.623 478.29a46.214 46.214 0 0 1 2.108 4.44 49.435 49.435 0 0 1 1.794 5.1q-1.618-.221-3.225-.548a589.251 589.251 0 0 0-.677-8.992z" class="cls-41" data-name="Path 3525" transform="translate(-443.509 -476.869)"/>
                                    <path id="Path_3526" d="M444.1 480.621c.333 1.623.617 3.264.844 4.914q.416.074.832.143a52.5 52.5 0 0 0-1.665-5.028z" class="cls-42" data-name="Path 3526" transform="translate(-443.108 -474.917)"/>
                                </g>
                                <g id="Group_297" data-name="Group 297">
                                    <path id="Path_3527" d="M448.552 488.6a49.918 49.918 0 0 0-1.928-5.574 47.144 47.144 0 0 0-2.409-5c-.2-.353-.353-.478-.654-.515.285 3.532.566 6.989.79 10.416q2.09.43 4.201.673z" class="cls-44" data-name="Path 3527" transform="translate(-443.561 -477.517)"/>
                                    <path id="Path_3528" d="M443.623 478.29a46.214 46.214 0 0 1 2.108 4.44 49.435 49.435 0 0 1 1.794 5.1q-1.618-.221-3.225-.548a589.251 589.251 0 0 0-.677-8.992z" class="cls-45" data-name="Path 3528" transform="translate(-443.509 -476.869)"/>
                                    <path id="Path_3529" d="M444.1 480.621c.333 1.623.617 3.264.844 4.914q.416.074.832.143a52.5 52.5 0 0 0-1.665-5.028z" class="cls-46" data-name="Path 3529" transform="translate(-443.108 -474.917)"/>
                                </g>
                            </g>
                            <g id="Group_301" data-name="Group 301" transform="translate(2.06 .015)">
                                <g id="Group_299" data-name="Group 299">
                                    <path id="Path_3530" d="M448.552 488.6a49.918 49.918 0 0 0-1.928-5.574 47.144 47.144 0 0 0-2.409-5c-.2-.353-.353-.478-.654-.515.285 3.532.568 6.989.79 10.416q2.09.43 4.201.673z" class="cls-51" data-name="Path 3530" transform="translate(-443.561 -477.517)"/>
                                    <path id="Path_3531" d="M443.623 478.29a46.214 46.214 0 0 1 2.108 4.44 49.435 49.435 0 0 1 1.794 5.1q-1.618-.221-3.225-.548a589.251 589.251 0 0 0-.677-8.992z" class="cls-52" data-name="Path 3531" transform="translate(-443.509 -476.869)"/>
                                    <path id="Path_3532" d="M444.1 480.621c.333 1.623.617 3.264.844 4.914q.416.074.832.143a52.5 52.5 0 0 0-1.665-5.028z" class="cls-59" data-name="Path 3532" transform="translate(-443.108 -474.917)"/>
                                </g>
                                <g id="Group_300" data-name="Group 300">
                                    <path id="Path_3533" d="M448.552 488.6a49.918 49.918 0 0 0-1.928-5.574 47.144 47.144 0 0 0-2.409-5c-.2-.353-.353-.478-.654-.515.285 3.532.566 6.989.79 10.416q2.09.43 4.201.673z" class="cls-64" data-name="Path 3533" transform="translate(-443.561 -477.517)"/>
                                    <path id="Path_3534" d="M443.623 478.29a46.214 46.214 0 0 1 2.108 4.44 49.435 49.435 0 0 1 1.794 5.1q-1.618-.221-3.225-.548a589.251 589.251 0 0 0-.677-8.992z" class="cls-63" data-name="Path 3534" transform="translate(-443.509 -476.869)"/>
                                    <path id="Path_3535" d="M444.1 480.621c.333 1.623.617 3.264.844 4.914q.416.074.832.143a52.5 52.5 0 0 0-1.665-5.028z" class="cls-65" data-name="Path 3535" transform="translate(-443.108 -474.917)"/>
                                </g>
                            </g>
                            <g id="Group_304" data-name="Group 304" transform="translate(1.409)">
                                <g id="Group_302" data-name="Group 302">
                                    <path id="Path_3536" d="M445.789 488.158q-.033-.981-.061-1.955c-.048-1.685-.244-4.07-.393-6.623q-.4-.78-.823-1.542a.853.853 0 0 0-.945-.529h-.36c.307 3.378.553 6.823.742 10.282.612.134 1.224.257 1.84.367z" class="cls-52" data-name="Path 3536" transform="translate(-443.207 -477.509)"/>
                                    <path id="Path_3537" d="M443.776 478.239q.907 1.643 1.676 3.361c.108 1.6.208 3.056.239 4.188q.028.973.061 1.955a48.256 48.256 0 0 1-1.84-.367 293.667 293.667 0 0 0-.662-9.372h.127a.445.445 0 0 1 .399.235z" class="cls-55" data-name="Path 3537" transform="translate(-443.17 -477.094)"/>
                                    <path id="Path_3538" d="M444.1 480.621c.333 1.623.617 3.264.844 4.914l.094.016q-.033-.981-.061-1.955a35.7 35.7 0 0 0-.022-.608 56.107 56.107 0 0 0-.843-2.338z" class="cls-56" data-name="Path 3538" transform="translate(-442.457 -474.902)"/>
                                </g>
                                <g id="Group_303" data-name="Group 303">
                                    <path id="Path_3539" d="M445.335 479.58q-.4-.78-.823-1.542a.853.853 0 0 0-.945-.529h-.36c.307 3.378.553 6.823.742 10.282.612.134 1.224.257 1.84.367q-.033-.981-.061-1.955c-.047-1.685-.244-4.07-.393-6.623z" class="cls-66" data-name="Path 3539" transform="translate(-443.207 -477.509)"/>
                                    <path id="Path_3540" d="M443.776 478.239q.907 1.643 1.676 3.361c.108 1.6.208 3.056.239 4.188q.028.973.061 1.955a50.273 50.273 0 0 1-1.84-.366c-.173-3.15-.393-6.288-.662-9.374h.127a.445.445 0 0 1 .399.236z" class="cls-21" data-name="Path 3540" transform="translate(-443.17 -477.094)"/>
                                    <path id="Path_3541" d="M444.1 480.621c.333 1.623.617 3.264.844 4.914l.094.016q-.033-.981-.061-1.955a35.7 35.7 0 0 0-.022-.608 56.107 56.107 0 0 0-.843-2.338z" class="cls-65" data-name="Path 3541" transform="translate(-442.457 -474.902)"/>
                                </g>
                            </g>
                        </g>
                        <g id="Group_321" data-name="Group 321" transform="translate(.983)">
                            <g id="Group_308" data-name="Group 308">
                                <g id="Group_306" data-name="Group 306">
                                    <path id="Path_3542" d="M448.758 487.629a41.29 41.29 0 0 0-.272-.864c-1.433-.246-2.839-.584-4.245-.952-.18-2.753-.244-5.53-.331-8.3h-.936c.195 3.2.366 6.669.529 9.174a48.934 48.934 0 0 0 5.255.942z" class="cls-51" data-name="Path 3542" transform="translate(-442.975 -477.509)"/>
                                    <path id="Path_3543" d="M447.445 486.159q.154.461.3.921-2.15-.311-4.265-.812c-.149-2.27-.3-5.331-.474-8.264h.579a.438.438 0 0 1 .333.145c.073 2.422.142 4.844.3 7.25 1.069.281 2.143.544 3.227.76z" class="cls-52" data-name="Path 3543" transform="translate(-442.95 -477.094)"/>
                                    <path id="Path_3544" d="M444.4 482.214q.086.5.16 1c.23.044.458.084.687.125q-.149-.5-.309-1z" class="cls-42" data-name="Path 3544" transform="translate(-441.784 -473.568)"/>
                                </g>
                                <g id="Group_307" data-name="Group 307">
                                    <path id="Path_3545" d="M448.758 487.629a41.29 41.29 0 0 0-.272-.864c-1.433-.246-2.839-.584-4.245-.952-.18-2.753-.244-5.53-.331-8.3h-.936c.195 3.2.366 6.669.529 9.174a48.934 48.934 0 0 0 5.255.942z" class="cls-53" data-name="Path 3545" transform="translate(-442.975 -477.509)"/>
                                    <path id="Path_3546" d="M447.445 486.159q.154.461.3.921-2.15-.311-4.265-.812c-.149-2.27-.3-5.331-.474-8.264h.579a.438.438 0 0 1 .333.145c.073 2.422.142 4.844.3 7.25 1.069.281 2.143.544 3.227.76z" class="cls-45" data-name="Path 3546" transform="translate(-442.95 -477.094)"/>
                                    <path id="Path_3547" d="M444.4 482.214q.086.5.16 1c.23.044.458.084.687.125q-.149-.5-.309-1z" class="cls-46" data-name="Path 3547" transform="translate(-441.784 -473.568)"/>
                                </g>
                            </g>
                            <g id="Group_311" data-name="Group 311">
                                <g id="Group_309" data-name="Group 309">
                                    <path id="Path_3548" d="M448.758 487.629a41.29 41.29 0 0 0-.272-.864c-1.433-.246-2.839-.584-4.245-.952-.18-2.753-.244-5.53-.331-8.3h-.936c.195 3.2.366 6.669.529 9.174a48.934 48.934 0 0 0 5.255.942z" class="cls-52" data-name="Path 3548" transform="translate(-442.975 -477.509)"/>
                                    <path id="Path_3549" d="M447.445 486.159q.154.461.3.921-2.15-.311-4.265-.812c-.149-2.27-.3-5.331-.474-8.264h.579a.438.438 0 0 1 .333.145c.073 2.422.142 4.844.3 7.25 1.069.281 2.143.544 3.227.76z" class="cls-55" data-name="Path 3549" transform="translate(-442.95 -477.094)"/>
                                    <path id="Path_3550" d="M444.4 482.214q.086.5.16 1c.23.044.458.084.687.125q-.149-.5-.309-1z" class="cls-56" data-name="Path 3550" transform="translate(-441.784 -473.568)"/>
                                </g>
                                <g id="Group_310" data-name="Group 310">
                                    <path id="Path_3551" d="M448.758 487.629a41.29 41.29 0 0 0-.272-.864c-1.433-.246-2.839-.584-4.245-.952-.18-2.753-.244-5.53-.331-8.3h-.936c.195 3.2.366 6.669.529 9.174a48.934 48.934 0 0 0 5.255.942z" class="cls-9" data-name="Path 3551" transform="translate(-442.975 -477.509)"/>
                                    <path id="Path_3552" d="M447.445 486.159q.154.461.3.921-2.15-.311-4.265-.812c-.149-2.27-.3-5.331-.474-8.264h.579a.438.438 0 0 1 .333.145c.073 2.422.142 4.844.3 7.25 1.069.281 2.143.544 3.227.76z" class="cls-67" data-name="Path 3552" transform="translate(-442.95 -477.094)"/>
                                    <path id="Path_3553" d="M444.4 482.214q.086.5.16 1c.23.044.458.084.687.125q-.149-.5-.309-1z" class="cls-46" data-name="Path 3553" transform="translate(-441.784 -473.568)"/>
                                </g>
                            </g>
                            <g id="Group_314" data-name="Group 314" transform="translate(1.731 8.426)">
                                <g id="Group_312" data-name="Group 312">
                                    <path id="Path_3554" d="M447.969 483.788a41.29 41.29 0 0 0-.272-.864 48.123 48.123 0 0 1-3.78-.831l.072 1.031q1.973.414 3.98.664z" class="cls-40" data-name="Path 3554" transform="translate(-443.917 -482.094)"/>
                                    <path id="Path_3555" d="M446.681 482.734q.155.46.3.921-1.505-.218-2.992-.529l-.072-1.031c.917.234 1.836.453 2.764.639z" class="cls-41" data-name="Path 3555" transform="translate(-443.917 -482.094)"/>
                                    <path id="Path_3556" d="M444.4 482.214q.086.5.16 1c.23.044.458.084.687.125q-.149-.5-.309-1z" class="cls-42" data-name="Path 3556" transform="translate(-443.515 -481.993)"/>
                                </g>
                                <g id="Group_313" data-name="Group 313">
                                    <path id="Path_3557" d="M447.969 483.788a41.29 41.29 0 0 0-.272-.864 48.123 48.123 0 0 1-3.78-.831l.072 1.031q1.973.414 3.98.664z" class="cls-44" data-name="Path 3557" transform="translate(-443.917 -482.094)"/>
                                    <path id="Path_3558" d="M446.681 482.734q.155.46.3.921-1.505-.218-2.992-.529l-.072-1.031c.917.234 1.836.453 2.764.639z" class="cls-45" data-name="Path 3558" transform="translate(-443.917 -482.094)"/>
                                    <path id="Path_3559" d="M444.4 482.214q.086.5.16 1c.23.044.458.084.687.125q-.149-.5-.309-1z" class="cls-46" data-name="Path 3559" transform="translate(-443.515 -481.993)"/>
                                </g>
                            </g>
                            <g id="Group_317" data-name="Group 317" transform="translate(1.731 8.426)">
                                <g id="Group_315" data-name="Group 315">
                                    <path id="Path_3560" d="M447.969 483.788a41.29 41.29 0 0 0-.272-.864 48.123 48.123 0 0 1-3.78-.831l.072 1.031q1.973.414 3.98.664z" class="cls-51" data-name="Path 3560" transform="translate(-443.917 -482.094)"/>
                                    <path id="Path_3561" d="M446.681 482.734q.155.46.3.921-1.505-.218-2.992-.529l-.072-1.031c.917.234 1.836.453 2.764.639z" class="cls-52" data-name="Path 3561" transform="translate(-443.917 -482.094)"/>
                                    <path id="Path_3562" d="M444.4 482.214q.086.5.16 1c.23.044.458.084.687.125q-.149-.5-.309-1z" class="cls-59" data-name="Path 3562" transform="translate(-443.515 -481.993)"/>
                                </g>
                                <g id="Group_316" data-name="Group 316">
                                    <path id="Path_3563" d="M447.969 483.788a41.29 41.29 0 0 0-.272-.864 48.123 48.123 0 0 1-3.78-.831l.072 1.031q1.973.414 3.98.664z" class="cls-34" data-name="Path 3563" transform="translate(-443.917 -482.094)"/>
                                    <path id="Path_3564" d="M446.681 482.734q.155.46.3.921-1.505-.218-2.992-.529l-.072-1.031c.917.234 1.836.453 2.764.639z" class="cls-9" data-name="Path 3564" transform="translate(-443.917 -482.094)"/>
                                    <path id="Path_3565" d="M444.4 482.214q.086.5.16 1c.23.044.458.084.687.125q-.149-.5-.309-1z" class="cls-68" data-name="Path 3565" transform="translate(-443.515 -481.993)"/>
                                </g>
                            </g>
                            <g id="Group_320" data-name="Group 320" transform="translate(.426)">
                                <g id="Group_318" data-name="Group 318">
                                    <path id="Path_3566" d="M445.758 487.2l-.028-.961q-.843-.2-1.683-.423c-.18-2.753-.244-5.53-.331-8.3h-.509c.277 3.06.505 6.176.687 9.308.62.132 1.241.257 1.864.376z" class="cls-52" data-name="Path 3566" transform="translate(-443.207 -477.509)"/>
                                    <path id="Path_3567" d="M445.693 485.821l.028.961a51.645 51.645 0 0 1-1.863-.38 293.536 293.536 0 0 0-.607-8.4h.127a.438.438 0 0 1 .333.145c.073 2.422.141 4.844.3 7.25q.84.222 1.682.424z" class="cls-55" data-name="Path 3567" transform="translate(-443.17 -477.094)"/>
                                    <path id="Path_3568" d="M444.4 482.214c.055.334.107.669.158 1l.2.039-.028-.961z" class="cls-56" data-name="Path 3568" transform="translate(-442.209 -473.568)"/>
                                </g>
                                <g id="Group_319" data-name="Group 319">
                                    <path id="Path_3569" d="M443.716 477.511h-.509c.277 3.06.505 6.178.687 9.308.619.14 1.24.265 1.863.38l-.028-.961q-.843-.2-1.683-.423c-.179-2.754-.246-5.531-.33-8.304z" class="cls-9" data-name="Path 3569" transform="translate(-443.207 -477.509)"/>
                                    <path id="Path_3570" d="M445.693 485.821l.028.961a51.645 51.645 0 0 1-1.863-.38 293.536 293.536 0 0 0-.607-8.4h.127a.438.438 0 0 1 .333.145c.073 2.422.141 4.844.3 7.25q.84.222 1.682.424z" class="cls-67" data-name="Path 3570" transform="translate(-443.17 -477.094)"/>
                                    <path id="Path_3571" d="M444.4 482.214c.055.334.107.669.158 1l.2.039-.028-.961z" class="cls-68" data-name="Path 3571" transform="translate(-442.209 -473.568)"/>
                                </g>
                            </g>
                        </g>
                    </g>
                </g>
                <path id="Path_3572" d="M437.411 508.354h6.524c1.088 0 .99-.531.243-.665-3.681-.667-3.73-4.113-3.6-8.51.059-2-.818-1.507-.818-.109 0 2.235.665 7.437-2.3 8.407-1.593.523-2.609.877-.049.877z" class="cls-69" data-name="Path 3572" transform="translate(-419.878 -458.327)"/>
            </g>
            <path id="Path_3573" d="M444.9 506.027c9.879 0 17.888-.362 17.888-.807s-8.009-.809-17.888-.809-17.886.362-17.886.809 8.011.807 17.886.807z" class="cls-36" data-name="Path 3573" transform="translate(-427.018 -395.886)"/>
        </g>
    </g>
</svg>
