<svg xmlns="http://www.w3.org/2000/svg" width="139.682" height="115.43" viewBox="0 0 139.682 115.43">
    <defs>
        <style>
            .cls-1{fill:#3b1008}.cls-2{fill:#c29968}.cls-3{fill:#803a17}.cls-4{fill:#cdc9bf}.cls-5{fill:#0f0466}.cls-6{fill:#fff}.cls-7{fill:#d60a11}.cls-8{fill:#12067b}.cls-9{fill:#fa0009}.cls-10{fill:#f7050a}
        </style>
    </defs>
    <g id="Group_3453" data-name="Group 3453" transform="translate(-512.178 -1416.456)">
        <g id="Group_142" data-name="Group 142" transform="translate(512.178 1416.456)">
            <g id="Group_141" data-name="Group 141">
                <path id="Path_1350" d="M87.859 658.126a47.9 47.9 0 0 0 9.931.915 47.371 47.371 0 0 0 9.947-.915c3.192-.713 6.463-1.783 8.7-4.05a50.457 50.457 0 0 0 10.613-16.85 91.218 91.218 0 0 0 5.2-19.474.3.3 0 0 0 .017-.119 4.207 4.207 0 0 1-.777.778 10.92 10.92 0 0 1-2.01 1.167 30.238 30.238 0 0 1-4.341 1.546 76.833 76.833 0 0 1-9.023 1.783 141.33 141.33 0 0 1-36.615 0c-2.38-.347-4.763-.761-7.112-1.3.114 1.849 1.54 22.5 12.362 35.675 1.017.333 2.072.609 3.108.844z" class="cls-1" data-name="Path 1350" transform="translate(-38.277 -591.134)"/>
                <path id="Path_1351" d="M105.068 613.388a2.3 2.3 0 0 1 .224.243 1.5 1.5 0 0 0-.224-.243z" class="cls-2" data-name="Path 1351" transform="translate(-10.901 -594.69)"/>
                <path id="Path_1352" d="M105.382 613.806a1.43 1.43 0 0 0-.129-.2 1.43 1.43 0 0 1 .129.2z" class="cls-2" data-name="Path 1352" transform="translate(-10.746 -594.51)"/>
                <path id="Path_1353" d="M72.343 620.633c2.315.4 4.631.73 6.979.956a176.964 176.964 0 0 0 18.439.818 177.412 177.412 0 0 0 18.452-.818 82.479 82.479 0 0 0 9.12-1.329 32.462 32.462 0 0 0 4.44-1.182 11.466 11.466 0 0 0 2.058-.981 2.554 2.554 0 0 0 1.312-1.571 3.639 3.639 0 0 0-.017-.428c-.031-.066-.031-.147-.066-.211 0-.033-.017-.057-.017-.09a3.17 3.17 0 0 0-1.182-1.207 10.63 10.63 0 0 0-2.058-1.02 30.532 30.532 0 0 0-4.438-1.272 66.073 66.073 0 0 0-4.359-.819 59.222 59.222 0 0 1-7.354 1.6 97.6 97.6 0 0 1-12.588 1.119 94.046 94.046 0 0 1-12.619-.583 63.808 63.808 0 0 1-2.757-.382c-9.541 3.276-12.553 6.347-13.345 7.4z" class="cls-2" data-name="Path 1353" transform="translate(-38.314 -596.291)"/>
                <path id="Path_1354" d="M92.858 612.558a195.23 195.23 0 0 0 12.474-.606c1.117-.1 2.236-.2 3.368-.325-.211-.015-.419-.048-.616-.072a167.419 167.419 0 0 0-18.483-.908h-.1a122.827 122.827 0 0 0-7.419 1.871c3.596.113 7.18.137 10.776.04z" class="cls-2" data-name="Path 1354" transform="translate(-30.154 -596.988)"/>
                <path id="Path_1355" d="M105.434 614.322a.279.279 0 0 1-.031.154.054.054 0 0 0 .015-.033.352.352 0 0 0 .016-.121z" class="cls-2" data-name="Path 1355" transform="translate(-10.62 -593.908)"/>
                <path id="Path_1356" d="M177.185 632.65a18.644 18.644 0 0 0-7.34-15.253 18.085 18.085 0 0 0-15.877-3.007c-.048-1.36-.1-2.72-.193-4.079a1.329 1.329 0 0 0 .21-.649v-.026a1.715 1.715 0 0 0-.73-1.262 5.75 5.75 0 0 0-1.15-.722 15.41 15.41 0 0 0-2.461-.939 44.527 44.527 0 0 0-5.105-1.2c-3.435-.632-6.884-1.053-10.352-1.378-6.933-.64-13.884-.9-20.834-.923-6.968-.017-13.917.2-20.869.809-3.466.309-6.934.706-10.368 1.314a50.024 50.024 0 0 0-5.134 1.174 16.136 16.136 0 0 0-2.5.948 6.46 6.46 0 0 0-1.2.744 1.95 1.95 0 0 0-.809 1.433 1.569 1.569 0 0 0 .421 1.046 131.083 131.083 0 0 0 .487 21.692 111.154 111.154 0 0 0 1.781 11.01 53.38 53.38 0 0 0-9.153 3.313 27.208 27.208 0 0 0-9.218 6.691 12.8 12.8 0 0 0-2.74 5.419 11.023 11.023 0 0 0 .537 6.254 16.669 16.669 0 0 0 3.951 5.7 5.4 5.4 0 0 0 .325.551 30.434 30.434 0 0 0 5.719 6.406 50.847 50.847 0 0 0 14.889 8.531c10.741 4.1 22.293 5.493 33.633 5.517 11.34-.017 22.892-1.408 33.635-5.508a50.878 50.878 0 0 0 14.887-8.53 30.665 30.665 0 0 0 5.719-6.415 22.261 22.261 0 0 0 1.509-2.714c.16-.219.34-.4.5-.606a12.689 12.689 0 0 0 2.284-5.517 9.931 9.931 0 0 0-.939-5.816 17.022 17.022 0 0 0-6.092-6.489 18.451 18.451 0 0 0 4.278-2.211 19.24 19.24 0 0 0 8.299-15.308zm-43.1-27.436a100.9 100.9 0 0 1 10.337.933 46.165 46.165 0 0 1 5.054 1.093 15.992 15.992 0 0 1 2.4.873c.713.349 1.573.843 1.637 1.516-.064.72-.924 1.182-1.637 1.538-.081.042-.162.066-.243.1a9.234 9.234 0 0 0-2.042-1.29v-.34c0 .114-.015.228-.015.333a23.515 23.515 0 0 0-2.075-.827c-1.573-.535-3.161-.956-4.765-1.336-3.207-.673-6.447-1.134-9.7-1.531-4.357-.511-8.749-.737-13.139-.875 4.731-.226 9.463-.342 14.193-.187zm17.351 6.14a19.259 19.259 0 0 1-1.847.649v-1.626a9.176 9.176 0 0 1 1.853.977zm-58.583-3.3c2.156-.323 4.342-.616 6.529-.891q7.048-.375 14.095-.366c6.48-.015 12.994.164 19.457.68 3.24.261 6.465.6 9.672 1.136 1.588.276 3.192.59 4.749 1.02a20.935 20.935 0 0 1 2.2.73c-.017.551-.05 1.11-.066 1.67-.017 0-.017 0-.017.005a47.884 47.884 0 0 1-5.054 1.1 100.385 100.385 0 0 1-10.337.93c-6.917.2-13.852-.1-20.736-.573-6.9-.48-13.755-1.288-20.5-2.293-3.142-.4-6.268-.963-9.284-1.564a134.076 134.076 0 0 1 9.298-1.58zm-10.741 5.888c3.435.608 6.9 1.005 10.368 1.321 6.952.6 13.9.818 20.869.81 6.95-.033 13.9-.292 20.834-.932 3.468-.325 6.934-.746 10.352-1.369a49.421 49.421 0 0 0 4.941-1.16q-.243 5.323-.794 10.613a1.6 1.6 0 0 0-.226-.721 1.423 1.423 0 0 0-.129-.2.7.7 0 0 0-.116-.154 2.3 2.3 0 0 0-.224-.242 4.964 4.964 0 0 0-.553-.478 10.636 10.636 0 0 0-2.04-1.119 32.549 32.549 0 0 0-4.423-1.466c-1.15-.283-2.3-.526-3.451-.744 1.312-.414 2.624-.86 3.888-1.393l-.05-.228c-2.235.478-4.488.825-6.739 1.11a85.715 85.715 0 0 0-2.8-.4 157.884 157.884 0 0 0-37.1 0c-.827.112-1.652.226-2.479.357-.209-.033-.4-.066-.616-.1l-.033.2c-2.023.316-4.032.7-6.026 1.207a29.778 29.778 0 0 0-4.407 1.457 10.9 10.9 0 0 0-2.058 1.119 3.31 3.31 0 0 0-1.149 1.327c-.357-3.3-.584-6.61-.73-9.931a49.451 49.451 0 0 0 4.897 1.12zm10.513 4.083a48.98 48.98 0 0 0 8.571 2.13c.924.147 1.832.276 2.757.382a94.087 94.087 0 0 0 12.619.583 97.62 97.62 0 0 0 12.588-1.119 59.156 59.156 0 0 0 7.354-1.6 66.08 66.08 0 0 1 4.359.82 30.539 30.539 0 0 1 4.438 1.272 10.624 10.624 0 0 1 2.058 1.02 3.17 3.17 0 0 1 1.182 1.207c0 .033.017.057.017.09.035.064.035.145.066.211s.033.145.048.224a.6.6 0 0 0-.015.163.044.044 0 0 0-.017.04 2.554 2.554 0 0 1-1.312 1.571 11.461 11.461 0 0 1-2.058.981 32.452 32.452 0 0 1-4.44 1.182 82.435 82.435 0 0 1-9.12 1.329 177.412 177.412 0 0 1-18.452.818 176.964 176.964 0 0 1-18.439-.818 91.43 91.43 0 0 1-6.979-.955c-.715-.121-1.444-.228-2.156-.373a30.436 30.436 0 0 1-4.423-1.191 10.408 10.408 0 0 1-2.073-.972 3.507 3.507 0 0 1-1.119-1.044c-.033-.382-.081-.763-.129-1.151a3.014 3.014 0 0 1 1.215-1.314 10.765 10.765 0 0 1 2.056-1.02 31.242 31.242 0 0 1 4.44-1.272c2.306-.519 4.639-.888 6.97-1.189zm20.642-1.158a167.39 167.39 0 0 1 18.483.908c.2.024.4.057.616.072-1.132.123-2.251.226-3.368.325a194.5 194.5 0 0 1-12.474.606c-3.6.1-7.18.073-10.774-.041-.568-.024-1.134-.016-1.718-.04-3.271-.155-6.56-.4-9.819-.851l.568-.072a167.9 167.9 0 0 1 18.388-.908zm35.335 6.91a.278.278 0 0 0 .031-.154.283.283 0 0 1-.016.112.072.072 0 0 1-.009.047zm-69.535 1.433a10.851 10.851 0 0 0 2.042 1.158 31.474 31.474 0 0 0 4.421 1.557c.7.178 1.395.349 2.091.5l.276 4.335c-.568-.107-1.136-.188-1.7-.3a30.659 30.659 0 0 1-4.357-1.191 11.493 11.493 0 0 1-2.023-.972 3.774 3.774 0 0 1-.991-.891 118.274 118.274 0 0 1-.713-5.232 3.686 3.686 0 0 0 .959 1.041zm.616 5.274a10.314 10.314 0 0 0 1.992 1.167 31.072 31.072 0 0 0 4.342 1.545 61.3 61.3 0 0 0 1.911.478c2.349.544 4.732.957 7.112 1.3a141.316 141.316 0 0 0 36.616 0 76.845 76.845 0 0 0 9.023-1.783 30.237 30.237 0 0 0 4.341-1.545 10.924 10.924 0 0 0 2.01-1.167 4.213 4.213 0 0 0 .777-.777.3.3 0 0 1-.017.119 91.215 91.215 0 0 1-5.2 19.474 50.456 50.456 0 0 1-10.613 16.85c-2.236 2.268-5.507 3.337-8.7 4.05a47.371 47.371 0 0 1-9.947.915 47.9 47.9 0 0 1-9.931-.915 32.887 32.887 0 0 1-3.111-.851 13.712 13.712 0 0 1-5.59-3.2 49.981 49.981 0 0 1-10.594-16.85 90.184 90.184 0 0 1-5.217-19.474c0-.055-.017-.1-.017-.154a3.816 3.816 0 0 0 .818.823zm-6.643-19.636c.083.081.162.16.243.233a6.431 6.431 0 0 0 1.2.739 16.7 16.7 0 0 0 2.5.946l.1.026c0 12.491 1.476 25.11 5.914 36.945a49.278 49.278 0 0 0 10.693 17.4 13.527 13.527 0 0 0 4.44 2.949 26.669 26.669 0 0 0 4.973 1.562 51.981 51.981 0 0 0 20.494 0 27.284 27.284 0 0 0 4.975-1.562 13.394 13.394 0 0 0 4.423-2.942 49.281 49.281 0 0 0 10.705-17.401c4.471-11.9 5.93-24.6 5.9-37.156a.115.115 0 0 1 .05-.007 16.015 16.015 0 0 0 2.461-.95 5.283 5.283 0 0 0 1.15-.719 2.411 2.411 0 0 0 .421-.456 183.568 183.568 0 0 1-2.641 21.589 108 108 0 0 1-6.154 21.394c-2.885 6.763-6.612 13.195-11.763 18.2-2.154 2.147-5.574 3.346-9.008 4.091a51.023 51.023 0 0 1-10.772.965 51.482 51.482 0 0 1-10.76-.972c-3.433-.737-6.867-1.944-8.99-4.083-5.169-5.022-8.878-11.438-11.761-18.21a106.589 106.589 0 0 1-6.173-21.394 183.516 183.516 0 0 1-2.615-21.181zm83.419 10.855a10.084 10.084 0 0 1 8.747 3.06 9.378 9.378 0 0 1 2.139 9.253 10.712 10.712 0 0 1-6.48 6.658 11.063 11.063 0 0 1-8.7-.632c.452-2.543.842-5.112 1.117-7.672.114-.939.164-1.878.243-2.81a2 2 0 0 0 .325-.162 4.081 4.081 0 0 0 1-.884 7.547 7.547 0 0 0 1.329-2.268 6.606 6.606 0 0 0 .285-4.537zM140.28 675.2a5.3 5.3 0 0 1 .632 3.426 119.62 119.62 0 0 1-13.156 1.937c-2.883.266-5.8.437-8.716.542a50.413 50.413 0 0 0 6.042-.913 32.167 32.167 0 0 0 5.8-1.841 16.159 16.159 0 0 0 5.379-3.6c.5-.535.989-1.086 1.459-1.628a8.466 8.466 0 0 1 .777.388 5.067 5.067 0 0 1 1.783 1.689zm-33.1 5.857c-.39-.017-.8-.017-1.183-.041a128.562 128.562 0 0 1-19.3-2.31 5.482 5.482 0 0 1 .487-3.256 5.1 5.1 0 0 1 2.126-1.95c.357.414.73.842 1.119 1.239a16.128 16.128 0 0 0 5.377 3.613 32.652 32.652 0 0 0 5.8 1.841 48.585 48.585 0 0 0 5.575.867zm-49.753-17.19a7.977 7.977 0 0 1-.713-4.585 10.4 10.4 0 0 1 1.911-4.5 26.371 26.371 0 0 1 8-6.941 63 63 0 0 1 8.575-4.271 85.454 85.454 0 0 0 3.223 11.2 59.1 59.1 0 0 0 8.44 15.789 8.747 8.747 0 0 0-.68.873 7.656 7.656 0 0 0-1.264 3.446 6.907 6.907 0 0 0 .568 3.343c.048.107.114.187.162.292-.388-.081-.794-.145-1.183-.235-7.031-1.514-14-3.741-20.007-7.354-2.947-1.836-5.671-4.154-7.031-7.053zm103.02 12.353a53.676 53.676 0 0 1-14.725 7.169 89.439 89.439 0 0 1-16.087 3.5 119.691 119.691 0 0 1-16.526.979 120.939 120.939 0 0 1-16.524-.972A89.093 89.093 0 0 1 80.5 683.4a53.538 53.538 0 0 1-14.727-7.178c-.4-.283-.81-.59-1.2-.9a53.055 53.055 0 0 0 8.084 3.905 88.274 88.274 0 0 0 10.824 3.37 126.131 126.131 0 0 0 22.291 3.093c14.955.6 30.119-.7 44.44-5.581a60.394 60.394 0 0 0 10.368-4.642 41.643 41.643 0 0 0 3.922-2.648 34.273 34.273 0 0 1-4.054 3.405zm9.058-19.06a8.709 8.709 0 0 1 .357 5.006 10.38 10.38 0 0 1-2.315 4.431 25.989 25.989 0 0 1-8.428 6.191 63.008 63.008 0 0 1-10.026 3.863c-2.365.68-4.765 1.248-7.178 1.766.05-.13.13-.243.178-.38a6.665 6.665 0 0 0 .423-3.558 8.193 8.193 0 0 0-1.573-3.49 7.91 7.91 0 0 0-.777-.877 59.5 59.5 0 0 0 8.1-15.35c.033-.1.066-.195.1-.281.033-.009.1-.016.129-.026a5.672 5.672 0 0 0 1.217-.382 6.66 6.66 0 0 0 2.056-1.376 7.491 7.491 0 0 0 1.345-1.8.033.033 0 0 0 .017-.033 20.041 20.041 0 0 0 11.162-.583 17.434 17.434 0 0 1 5.214 6.882zm-16.832-10.86l-1.673-.713a87.27 87.27 0 0 0 1-4.625 10.143 10.143 0 0 0 3.468 2.13 11.268 11.268 0 0 0 11.713-2.746 11.57 11.57 0 0 0 3-5.6 12.2 12.2 0 0 0-3.5-11.445 11.52 11.52 0 0 0-11.243-2.683l-.6.2.162.551v.015l.035.121.031.05a5.333 5.333 0 0 1 .4 4.447 7.884 7.884 0 0 1-1.036 2.187 3.544 3.544 0 0 1-.81.851.2.2 0 0 1-.048.031 134.288 134.288 0 0 0 .388-14.663 17.588 17.588 0 0 1 15.214 3.817 17.044 17.044 0 0 1 5.864 14.321 16.524 16.524 0 0 1-7.907 12.735 15.977 15.977 0 0 1-14.458 1.019z" class="cls-3" data-name="Path 1356" transform="translate(-53.825 -603.214)"/>
            </g>
        </g>
        <g id="Group_386" data-name="Group 386" transform="translate(546.207 1492.774)">
            <path id="Path_3878" d="M121.942 680.967c-16.533-10-33.067 10-49.6 0V647.63c16.532 10 33.065-10 49.6 0z" class="cls-4" data-name="Path 3878" transform="translate(-72.343 -644.743)"/>
            <g id="Group_385" data-name="Group 385" transform="translate(.415 .409)">
                <path id="Path_3879" d="M121.355 680.141c-16.261-9.369-32.525 9.824-48.786.48V648.1c16.261 9.347 32.525-9.848 48.786-.479z" class="cls-5" data-name="Path 3879" transform="translate(-72.569 -644.966)"/>
                <path id="Path_3880" d="M96.962 646.535c-.978.3-1.955.592-2.933.875a105.184 105.184 0 0 1-9.264 8.1 41.891 41.891 0 0 1-9.266-7.338 20.157 20.157 0 0 1-2.931-1.39v1.956a45.024 45.024 0 0 0 9.264 8.8 21.308 21.308 0 0 1-9.264 3.55v1.953a19.951 19.951 0 0 0 2.931 1.388 29.775 29.775 0 0 0 9.266-5.013 60.014 60.014 0 0 0 9.264 4.252c.978-.283 1.955-.579 2.933-.875v-1.953a92.021 92.021 0 0 1-9.266-3.765c3.089-2.6 6.176-5.594 9.266-8.587z" class="cls-6" data-name="Path 3880" transform="translate(-72.569 -643.651)"/>
                <path id="Path_3881" d="M72.569 646.67v.978a43.626 43.626 0 0 0 12.2 10.682v-.978a43.624 43.624 0 0 1-12.2-10.682z" class="cls-7" data-name="Path 3881" transform="translate(-72.569 -643.538)"/>
                <path id="Path_3882" d="M91.4 657.284a72.455 72.455 0 0 1-12.2-5.333v.977a72.449 72.449 0 0 0 12.2 5.331z" class="cls-7" data-name="Path 3882" transform="translate(-67.009 -639.114)"/>
                <path id="Path_3883" d="M72.569 658.062q.733.422 1.466.768c3.576-.695 7.154-2.688 10.73-5.37v-.978c-4.065 3.05-8.131 5.207-12.196 5.58z" class="cls-7" data-name="Path 3883" transform="translate(-72.569 -638.668)"/>
                <path id="Path_3884" d="M89.938 646.978a118.377 118.377 0 0 1-10.732 9.51v.978A134.185 134.185 0 0 0 91.4 646.535q-.732.223-1.462.443z" class="cls-7" data-name="Path 3884" transform="translate(-67.009 -643.651)"/>
                <g id="Group_384" data-name="Group 384" transform="translate(0 5.475)">
                    <path id="Path_3885" d="M96.962 652.013a66.123 66.123 0 0 1-11.18 2.7V648q-1.014.119-2.032.167v6.708a19.925 19.925 0 0 1-11.18-2.617v2.847a19.955 19.955 0 0 0 11.18 2.617v6.708q1.017-.047 2.032-.169v-6.707a66.145 66.145 0 0 0 11.18-2.7z" class="cls-7" data-name="Path 3885" transform="translate(-72.569 -647.896)"/>
                    <path id="Path_3886" d="M82.933 648.118v5.893a19.739 19.739 0 0 1-10.364-2.639v.812a19.925 19.925 0 0 0 11.18 2.617v-6.708c-.272.014-.544.023-.816.025z" class="cls-6" data-name="Path 3886" transform="translate(-72.569 -647.82)"/>
                    <path id="Path_3887" d="M72.569 652.683a19.743 19.743 0 0 0 10.364 2.641v5.893c.272 0 .544-.011.816-.024v-6.707a19.955 19.955 0 0 1-11.18-2.617z" class="cls-6" data-name="Path 3887" transform="translate(-72.569 -644.658)"/>
                    <path id="Path_3888" d="M90.939 651.734a66.1 66.1 0 0 1-11.18 2.7v6.708c.272-.031.542-.068.814-.107v-5.894a71.766 71.766 0 0 0 10.366-2.589z" class="cls-6" data-name="Path 3888" transform="translate(-66.546 -644.771)"/>
                    <path id="Path_3889" d="M90.939 651.249a72.045 72.045 0 0 1-10.366 2.589v-5.893c-.272.037-.542.073-.814.107v6.708a66.105 66.105 0 0 0 11.18-2.7z" class="cls-6" data-name="Path 3889" transform="translate(-66.546 -647.945)"/>
                </g>
                <path id="Path_3890" d="M98.548 652.493a.028.028 0 0 0-.02-.022c-.338-.119-.68-.23-1.018-.327q-.16-.53-.316-1.057c-.006-.018-.033-.026-.039-.011-.1.294-.211.592-.316.889-.34-.086-.68-.16-1.02-.226a.013.013 0 0 0-.018.011.021.021 0 0 0 .007.024c.274.252.549.511.823.777l-.314.9.007.024c.007.007.017.011.024.006q.413-.207.825-.4c.276.272.551.553.825.84l.013.009h.013l.007-.02c-.1-.357-.209-.715-.316-1.07.276-.118.549-.226.825-.329a.015.015 0 0 0 .008-.018z" class="cls-7" data-name="Path 3890" transform="translate(-53.11 -639.853)"/>
                <path id="Path_3891" d="M99.762 652.938a.031.031 0 0 0-.018-.024q-.83-.336-1.659-.582-.254-.866-.511-1.722c-.006-.018-.033-.026-.039-.011-.171.48-.342.963-.511 1.446a19.786 19.786 0 0 0-1.659-.32.016.016 0 0 0-.018.013l.006.024q.67.587 1.341 1.22l-.513 1.472.007.024.011.007h.013q.673-.356 1.341-.664.673.667 1.343 1.389l.011.009a.016.016 0 0 0 .022-.015v-.015a778.24 778.24 0 0 0-.513-1.742c.448-.18.895-.344 1.343-.489a.014.014 0 0 0 .003-.02zm-.842-.024c-.276.1-.549.211-.825.329.107.355.211.713.316 1.069l-.007.02h-.013l-.013-.009a38.709 38.709 0 0 0-.825-.84q-.411.187-.825.4c-.007.005-.017 0-.024-.006l-.007-.024.314-.9a36.704 36.704 0 0 0-.823-.777.021.021 0 0 1-.007-.024.013.013 0 0 1 .018-.011c.34.066.68.14 1.02.226.1-.3.211-.6.316-.89.006-.015.033-.007.039.011l.316 1.057c.338.1.68.208 1.018.327a.028.028 0 0 1 .02.022.015.015 0 0 1-.008.02z" class="cls-6" data-name="Path 3891" transform="translate(-53.49 -640.253)"/>
                <path id="Path_3892" d="M93.466 649.457c-.127.4-.255.792-.382 1.189l.009.022h.024q.5-.391.992-.762c.333.235.662.476.994.722l.013.005h.011l.007-.022-.38-1.174c.331-.239.663-.468.994-.693l.007-.024a.027.027 0 0 0-.02-.016c-.41-.018-.818-.028-1.228-.026l-.379-1.163a.021.021 0 0 0-.039 0l-.38 1.178q-.612.022-1.228.073a.02.02 0 0 0-.018.017c0 .007 0 .016.007.022.33.21.665.428.996.652z" class="cls-7" data-name="Path 3892" transform="translate(-55.904 -642.845)"/>
                <path id="Path_3893" d="M96.97 648.9a.022.022 0 0 0-.02-.019q-.932-.083-1.865-.084-.287-.888-.575-1.768a.021.021 0 0 0-.039 0q-.289.89-.577 1.79c-.621.028-1.244.079-1.865.147a.024.024 0 0 0-.018.018l.006.021q.755.465 1.511.968-.289.9-.577 1.814a.017.017 0 0 0 .009.022h.022q.755-.609 1.509-1.172.755.532 1.511 1.114l.011.005a.021.021 0 0 0 .022-.02l-.005-.015c-.191-.6-.382-1.192-.573-1.784q.755-.535 1.509-1.016zm-.842.235c-.331.224-.663.454-.994.693l.38 1.174-.007.022h-.011l-.013-.005a60.526 60.526 0 0 0-.994-.722q-.5.372-.992.762h-.024l-.009-.022c.127-.4.255-.794.382-1.189a51.498 51.498 0 0 0-.994-.656c-.006-.005-.011-.015-.007-.022a.02.02 0 0 1 .018-.017q.615-.052 1.228-.073l.38-1.178a.021.021 0 0 1 .039 0l.379 1.163c.41 0 .818.007 1.228.026a.027.027 0 0 1 .02.016z" class="cls-6" data-name="Path 3893" transform="translate(-56.284 -643.244)"/>
                <path id="Path_3894" d="M90.614 653.247l-.38-1.077c-.006-.015-.033-.007-.039.009l-.379 1.257c-.408.1-.818.2-1.226.312a.032.032 0 0 0-.02.02.017.017 0 0 0 .007.022c.331.152.662.309.992.465l-.379 1.264a.018.018 0 0 0 .006.02.023.023 0 0 0 .026-.005q.5-.488.992-.965c.331.16.663.325.994.494h.011l.011-.007a.021.021 0 0 0 .009-.024l-.38-1.084.992-.932.009-.024a.018.018 0 0 0-.02-.013 81.88 81.88 0 0 0-1.226.268z" class="cls-7" data-name="Path 3894" transform="translate(-59.166 -638.936)"/>
                <path id="Path_3895" d="M93.077 652.966a.016.016 0 0 0-.018-.011q-.934.168-1.867.379-.287-.822-.577-1.641c-.006-.015-.033-.007-.039.009l-.575 1.915c-.623.153-1.244.318-1.865.489a.028.028 0 0 0-.02.022l.007.02c.5.226 1.005.458 1.509.695-.191.641-.384 1.281-.577 1.924l.009.018.024-.005q.753-.747 1.509-1.474c.5.245 1.005.5 1.509.761h.011a.026.026 0 0 0 .02-.024l-.006-.013c-.191-.548-.382-1.1-.575-1.645q.755-.711 1.511-1.4zm-.843.454q-.5.46-.992.932l.38 1.084a.022.022 0 0 1-.009.024l-.011.007h-.011a45.863 45.863 0 0 0-.994-.494q-.5.477-.992.965a.022.022 0 0 1-.026.005.018.018 0 0 1-.006-.02c.127-.421.252-.844.379-1.264-.331-.156-.662-.312-.992-.465a.017.017 0 0 1-.007-.022.032.032 0 0 1 .02-.02c.408-.108.818-.213 1.226-.312l.379-1.257c.006-.017.033-.024.039-.009l.38 1.077c.41-.094.818-.182 1.228-.264a.018.018 0 0 1 .02.013z" class="cls-6" data-name="Path 3895" transform="translate(-59.547 -639.337)"/>
                <path id="Path_3896" d="M94.67 658.673l-.441-1.356a.023.023 0 0 0-.04 0l-.443 1.376q-.717.03-1.433.1a.029.029 0 0 0-.02.019.02.02 0 0 0 .007.022c.388.244.774.5 1.161.757l-.445 1.391.007.022h.024c.388-.307.774-.607 1.161-.895.386.272.774.553 1.16.845h.026l.007-.022-.445-1.373a36.07 36.07 0 0 1 1.161-.8.021.021 0 0 0 .007-.022.023.023 0 0 0-.02-.016 18.497 18.497 0 0 0-1.434-.048z" class="cls-7" data-name="Path 3896" transform="translate(-56.048 -634.63)"/>
                <path id="Path_3897" d="M97.34 658.926c0-.009-.011-.018-.02-.018-.691-.068-1.38-.1-2.071-.1q-.32-.989-.64-1.964a.023.023 0 0 0-.04 0q-.32.992-.64 1.994-1.036.05-2.071.178a.026.026 0 0 0-.02.018l.007.02q.838.507 1.676 1.06l-.641 2.02.009.022h.024q.838-.681 1.676-1.31.838.59 1.676 1.24h.013a.019.019 0 0 0 .022-.018l-.006-.013-.638-1.988q.838-.59 1.676-1.116zm-.842.226c-.388.257-.774.526-1.161.8l.445 1.373-.007.022h-.026a42.47 42.47 0 0 0-1.16-.845c-.388.288-.774.588-1.161.895h-.024l-.007-.022q.221-.7.445-1.391a46.76 46.76 0 0 0-1.161-.757.02.02 0 0 1-.007-.022.029.029 0 0 1 .02-.018q.717-.066 1.433-.1.223-.689.443-1.376a.023.023 0 0 1 .04 0q.221.675.441 1.356c.48 0 .957.011 1.435.04a.023.023 0 0 1 .02.017.021.021 0 0 1-.006.028z" class="cls-6" data-name="Path 3897" transform="translate(-56.428 -635.03)"/>
            </g>
        </g>
        <g id="Group_389" data-name="Group 389" transform="translate(602.258 1492.774)">
            <path id="Path_3898" d="M152.444 680.967c-16.533-10-33.067 10-49.6 0V647.63c16.533 10 33.067-10 49.6 0z" class="cls-4" data-name="Path 3898" transform="translate(-102.844 -644.743)"/>
            <g id="Group_388" data-name="Group 388" transform="translate(.406 .412)">
                <path id="Path_3899" d="M151.849 680.136c-16.261-9.354-32.523 9.841-48.784.482v-32.524c16.262 9.359 32.523-9.835 48.784-.481z" class="cls-8" data-name="Path 3899" transform="translate(-103.065 -644.967)"/>
                <path id="Path_3900" d="M127.456 646.54c-.978.3-1.953.592-2.931.875a105.139 105.139 0 0 1-9.264 8.1 41.844 41.844 0 0 1-9.261-7.347 19.955 19.955 0 0 1-2.931-1.389v1.953a45.076 45.076 0 0 0 9.264 8.81 21.268 21.268 0 0 1-9.264 3.543v1.953A20.2 20.2 0 0 0 106 664.43a29.784 29.784 0 0 0 9.265-5.01 59.7 59.7 0 0 0 9.264 4.254c.978-.283 1.953-.577 2.931-.873v-1.955a91.963 91.963 0 0 1-9.264-3.765c3.087-2.6 6.176-5.594 9.264-8.588z" class="cls-6" data-name="Path 3900" transform="translate(-103.065 -643.65)"/>
                <path id="Path_3901" d="M103.065 646.67v.976a43.637 43.637 0 0 0 12.2 10.69v-.978a43.6 43.6 0 0 1-12.2-10.688z" class="cls-9" data-name="Path 3901" transform="translate(-103.065 -643.541)"/>
                <path id="Path_3902" d="M121.9 657.289a72.289 72.289 0 0 1-12.195-5.335v.978a72.451 72.451 0 0 0 12.195 5.335z" class="cls-9" data-name="Path 3902" transform="translate(-97.505 -639.115)"/>
                <path id="Path_3903" d="M103.065 658.058q.733.422 1.465.768c3.578-.691 7.154-2.681 10.732-5.362v-.978c-4.067 3.047-8.132 5.202-12.197 5.572z" class="cls-9" data-name="Path 3903" transform="translate(-103.065 -638.669)"/>
                <path id="Path_3904" d="M120.432 646.981a118.138 118.138 0 0 1-10.73 9.51v.977A134.9 134.9 0 0 0 121.9 646.54c-.492.147-.981.296-1.468.441z" class="cls-9" data-name="Path 3904" transform="translate(-97.505 -643.65)"/>
                <g id="Group_387" data-name="Group 387" transform="translate(0 5.477)">
                    <path id="Path_3905" d="M127.456 652.019a66.088 66.088 0 0 1-11.179 2.694v-6.708q-1.017.121-2.034.167v6.708a19.923 19.923 0 0 1-11.179-2.622v2.842a19.912 19.912 0 0 0 11.179 2.624v6.707q1.017-.047 2.034-.167v-6.704a66.275 66.275 0 0 0 11.179-2.694z" class="cls-10" data-name="Path 3905" transform="translate(-103.065 -647.899)"/>
                    <path id="Path_3906" d="M113.429 648.121v5.893a19.732 19.732 0 0 1-10.364-2.646v.814a19.924 19.924 0 0 0 11.179 2.622V648.1c-.272.01-.544.017-.815.021z" class="cls-6" data-name="Path 3906" transform="translate(-103.065 -647.823)"/>
                    <path id="Path_3907" d="M103.065 652.68a19.714 19.714 0 0 0 10.364 2.646v5.9c.272 0 .542-.011.814-.022v-6.707a19.912 19.912 0 0 1-11.179-2.624z" class="cls-6" data-name="Path 3907" transform="translate(-103.065 -644.664)"/>
                    <path id="Path_3908" d="M121.433 651.739a66.257 66.257 0 0 1-11.179 2.694v6.708c.272-.033.542-.068.814-.108v-5.893a71.976 71.976 0 0 0 10.364-2.587z" class="cls-6" data-name="Path 3908" transform="translate(-97.042 -644.772)"/>
                    <path id="Path_3909" d="M121.433 651.254a71.7 71.7 0 0 1-10.364 2.587v-5.894c-.272.039-.542.075-.814.107v6.708a66.088 66.088 0 0 0 11.179-2.694z" class="cls-6" data-name="Path 3909" transform="translate(-97.042 -647.948)"/>
                </g>
                <path id="Path_3910" d="M116.426 663.956a.025.025 0 0 0-.013-.031 48.623 48.623 0 0 1-2.525-1.027q.813-1.343 1.626-2.724a.03.03 0 0 0 0-.036.025.025 0 0 0-.035 0 50.928 50.928 0 0 1-2.745 1.47q-.447-1.345-.895-2.7a.033.033 0 0 0-.059.005q-.449 1.431-.9 2.85a29.148 29.148 0 0 1-2.742-1.064.03.03 0 0 0-.035.007.03.03 0 0 0 0 .037q.813 1.279 1.626 2.5c-.842.5-1.681.956-2.523 1.358a.026.026 0 0 0-.015.031.036.036 0 0 0 .026.026 22.766 22.766 0 0 0 2.922.386l-.4 2.909a.026.026 0 0 0 .018.029.026.026 0 0 0 .035-.005q1.009-1.067 2.021-2.216a75.885 75.885 0 0 0 2.02 1.889.027.027 0 0 0 .024.007l.011-.006a.038.038 0 0 0 .018-.035l-.4-2.845c.974-.22 1.948-.485 2.922-.781a.033.033 0 0 0 .018-.034z" class="cls-6" data-name="Path 3910" transform="translate(-99.612 -633.308)"/>
                <path id="Path_3911" d="M125.167 660.151l.741-1.123a.03.03 0 0 0 0-.037.032.032 0 0 0-.035-.009c-.415.158-.832.327-1.248.505l-.41-1.246c-.007-.024-.05-.022-.059 0-.134.434-.272.867-.408 1.3a36.13 36.13 0 0 0-1.248-.34.032.032 0 0 0-.035.013.031.031 0 0 0 0 .037q.369.51.739 1.027c-.382.266-.766.542-1.149.822a.04.04 0 0 0-.015.035.028.028 0 0 0 .028.02q.664-.036 1.33-.04-.094.67-.184 1.34a.025.025 0 0 0 .018.029.036.036 0 0 0 .035-.009c.307-.355.614-.7.919-1.046q.46.452.921.921a.022.022 0 0 0 .022.009h.013a.034.034 0 0 0 .018-.033l-.184-1.316q.664-.083 1.33-.131a.029.029 0 0 0 .026-.024.025.025 0 0 0-.015-.031 45.715 45.715 0 0 0-1.15-.673z" class="cls-6" data-name="Path 3911" transform="translate(-87.173 -633.862)"/>
                <path id="Path_3912" d="M121.034 654.146c.246-.434.491-.862.737-1.292a.033.033 0 0 0 0-.037.03.03 0 0 0-.035 0q-.626.383-1.248.783c-.136-.39-.274-.777-.41-1.165-.009-.022-.05-.011-.059.017l-.41 1.38q-.623-.066-1.248-.125a.04.04 0 0 0-.035.02.033.033 0 0 0 0 .037l.737.9q-.573.5-1.147 1.009a.043.043 0 0 0-.015.037.023.023 0 0 0 .028.017q.664-.135 1.329-.263-.091.689-.184 1.375c0 .015.005.026.018.027a.038.038 0 0 0 .035-.016q.46-.612.921-1.219c.307.241.614.485.921.73.006.007.013.007.022.006l.013-.006a.045.045 0 0 0 .018-.037q-.094-.639-.184-1.279.664-.223 1.329-.434a.044.044 0 0 0 .028-.029.026.026 0 0 0-.015-.029q-.573-.208-1.146-.407z" class="cls-6" data-name="Path 3912" transform="translate(-90.637 -638.722)"/>
                <path id="Path_3913" d="M123.4 650.089l-.184 1.341a.027.027 0 0 0 .018.031.037.037 0 0 0 .035-.011q.46-.529.919-1.046c.307.3.614.61.921.923a.034.034 0 0 0 .022.009h.013a.031.031 0 0 0 .018-.033l-.184-1.318c.443-.053.886-.1 1.33-.127a.032.032 0 0 0 .026-.024.028.028 0 0 0-.015-.033q-.573-.353-1.149-.674.372-.568.741-1.123a.03.03 0 0 0 0-.037.032.032 0 0 0-.035-.011c-.415.16-.832.327-1.248.507-.136-.417-.274-.833-.41-1.246-.007-.025-.05-.022-.059 0-.134.432-.272.867-.408 1.3a32.155 32.155 0 0 0-1.248-.342.03.03 0 0 0-.035.015.03.03 0 0 0 0 .036c.246.338.492.682.739 1.026-.382.268-.766.542-1.149.823a.035.035 0 0 0-.015.033.029.029 0 0 0 .028.022q.658-.03 1.329-.041z" class="cls-6" data-name="Path 3913" transform="translate(-87.173 -643.099)"/>
                <path id="Path_3914" d="M130.006 654.234a.043.043 0 0 0-.015-.037q-.573-.56-1.147-1.077c.246-.294.493-.584.739-.867a.028.028 0 0 0 0-.035.04.04 0 0 0-.035-.022c-.415.011-.833.037-1.248.079-.136-.461-.274-.921-.41-1.378-.007-.028-.05-.037-.059-.015q-.2.584-.408 1.172-.626-.375-1.248-.711c-.015-.007-.029-.005-.035 0a.028.028 0 0 0 0 .035c.246.41.492.823.739 1.244-.384.151-.766.316-1.149.491a.022.022 0 0 0-.015.029.039.039 0 0 0 .026.028c.445.1.888.215 1.33.344l-.182 1.286a.044.044 0 0 0 .017.037.037.037 0 0 0 .037 0q.458-.394.919-.761.46.6.921 1.224a.062.062 0 0 0 .022.017h.013a.021.021 0 0 0 .018-.026c-.062-.46-.121-.919-.184-1.378.443.094.888.2 1.329.333a.021.021 0 0 0 .025-.012z" class="cls-6" data-name="Path 3914" transform="translate(-84.094 -640.023)"/>
                <path id="Path_3915" d="M124.993 654.674l-.323-.8a.03.03 0 0 0-.055 0c-.108.267-.217.531-.323.8-.287.025-.572.057-.856.092a.051.051 0 0 0-.028.024.029.029 0 0 0 .011.031q.328.259.654.527c-.068.279-.136.559-.2.84a.029.029 0 0 0 .011.029.03.03 0 0 0 .035 0c.241-.158.485-.312.728-.465q.364.226.73.459l.015.005.018-.005a.025.025 0 0 0 .011-.029l-.2-.838c.219-.18.435-.358.654-.531a.033.033 0 0 0 .009-.033.035.035 0 0 0-.026-.022c-.295-.033-.578-.058-.865-.084z" class="cls-6" data-name="Path 3915" transform="translate(-86.026 -637.518)"/>
            </g>
        </g>
    </g>
</svg>
