<svg xmlns="http://www.w3.org/2000/svg" width="123.367" height="113.612" viewBox="0 0 123.367 113.612">
    <defs>
        <style>
            .cls-1{fill:#3b1008}.cls-2{fill:#c29968}.cls-3{fill:#803a17}.cls-4{fill:#cdc9bf}.cls-5{fill:#2f983e}.cls-6{fill:#fff}.cls-7{fill:#ff5c0d}
        </style>
    </defs>
    <g id="Group_3452" data-name="Group 3452" transform="translate(-666.695 -1416.456)">
        <g id="Group_144" data-name="Group 144" transform="translate(666.695 1416.456)">
            <g id="Group_143" data-name="Group 143">
                <path id="Path_1357" d="M171.944 658.126a47.89 47.89 0 0 0 9.929.915 47.36 47.36 0 0 0 9.947-.915c3.192-.713 6.465-1.783 8.7-4.05a50.428 50.428 0 0 0 10.613-16.85 91.332 91.332 0 0 0 5.2-19.474.3.3 0 0 0 .017-.119 4.217 4.217 0 0 1-.779.778 10.966 10.966 0 0 1-2.009 1.167 30.316 30.316 0 0 1-4.341 1.546 76.862 76.862 0 0 1-9.025 1.783 141.316 141.316 0 0 1-36.614 0c-2.382-.347-4.763-.761-7.114-1.3.116 1.849 1.54 22.5 12.364 35.675 1.021.333 2.074.609 3.112.844z" class="cls-1" data-name="Path 1357" transform="translate(-122.362 -591.134)"/>
                <path id="Path_1358" d="M189.151 613.388a2.142 2.142 0 0 1 .226.243 1.438 1.438 0 0 0-.226-.243z" class="cls-2" data-name="Path 1358" transform="translate(-94.985 -594.69)"/>
                <path id="Path_1359" d="M189.466 613.806a1.445 1.445 0 0 0-.13-.2 1.445 1.445 0 0 1 .13.2z" class="cls-2" data-name="Path 1359" transform="translate(-94.83 -594.51)"/>
                <path id="Path_1360" d="M156.426 620.633c2.315.4 4.633.73 6.981.956a176.95 176.95 0 0 0 18.437.818 177.447 177.447 0 0 0 18.454-.818 82.542 82.542 0 0 0 9.12-1.329 32.534 32.534 0 0 0 4.44-1.182 11.45 11.45 0 0 0 2.056-.981 2.548 2.548 0 0 0 1.312-1.571 3.649 3.649 0 0 0-.017-.428c-.031-.066-.031-.147-.064-.211 0-.033-.017-.057-.017-.09a3.175 3.175 0 0 0-1.183-1.207 10.667 10.667 0 0 0-2.056-1.02 30.49 30.49 0 0 0-4.44-1.272 66.015 66.015 0 0 0-4.357-.819 59.294 59.294 0 0 1-7.354 1.6 97.6 97.6 0 0 1-12.588 1.119 94.061 94.061 0 0 1-12.621-.583 63.718 63.718 0 0 1-2.755-.382c-9.542 3.276-12.554 6.347-13.348 7.4z" class="cls-2" data-name="Path 1360" transform="translate(-122.398 -596.291)"/>
                <path id="Path_1361" d="M176.94 612.558a195.23 195.23 0 0 0 12.474-.606c1.119-.1 2.236-.2 3.37-.325-.211-.015-.421-.048-.616-.072a167.43 167.43 0 0 0-18.485-.908h-.1a122.447 122.447 0 0 0-7.419 1.871c3.598.113 7.18.137 10.776.04z" class="cls-2" data-name="Path 1361" transform="translate(-114.237 -596.988)"/>
                <path id="Path_1362" d="M189.517 614.322a.278.278 0 0 1-.031.154.054.054 0 0 0 .015-.033.352.352 0 0 0 .016-.121z" class="cls-2" data-name="Path 1362" transform="translate(-94.705 -593.908)"/>
                <path id="Path_1363" d="M261.268 632.65a18.634 18.634 0 0 0-7.34-15.253 18.082 18.082 0 0 0-15.876-3.007c-.048-1.36-.1-2.72-.195-4.079a1.312 1.312 0 0 0 .211-.649v-.026a1.715 1.715 0 0 0-.73-1.262 5.8 5.8 0 0 0-1.15-.722 15.363 15.363 0 0 0-2.462-.939 44.5 44.5 0 0 0-5.1-1.2c-3.435-.632-6.886-1.053-10.353-1.378-6.932-.64-13.884-.9-20.834-.923-6.967-.017-13.917.2-20.867.809-3.466.309-6.934.706-10.37 1.314a50.246 50.246 0 0 0-5.134 1.174 16.116 16.116 0 0 0-2.494.948 6.4 6.4 0 0 0-1.2.744 1.951 1.951 0 0 0-.81 1.433 1.57 1.57 0 0 0 .423 1.046 131.086 131.086 0 0 0 .485 21.692 110.63 110.63 0 0 0 1.783 11.01 53.4 53.4 0 0 0-9.155 3.318 27.219 27.219 0 0 0-9.216 6.691 12.781 12.781 0 0 0-2.74 5.419 11.007 11.007 0 0 0 .537 6.254 16.644 16.644 0 0 0 3.951 5.7 5.079 5.079 0 0 0 .325.551 30.381 30.381 0 0 0 5.719 6.406 50.8 50.8 0 0 0 14.889 8.531c10.741 4.1 22.293 5.493 33.633 5.517 11.34-.017 22.892-1.408 33.633-5.508a50.863 50.863 0 0 0 14.889-8.53 30.716 30.716 0 0 0 5.719-6.415 22.251 22.251 0 0 0 1.507-2.714c.162-.219.34-.4.5-.606a12.711 12.711 0 0 0 2.284-5.517 9.931 9.931 0 0 0-.939-5.816 17.021 17.021 0 0 0-6.092-6.489 18.439 18.439 0 0 0 4.276-2.211 19.231 19.231 0 0 0 8.293-15.313zm-43.093-27.436a100.82 100.82 0 0 1 10.335.933 46.107 46.107 0 0 1 5.055 1.093 15.971 15.971 0 0 1 2.4.873c.715.349 1.573.843 1.637 1.516-.064.72-.923 1.182-1.637 1.538-.081.042-.16.066-.241.1a9.2 9.2 0 0 0-2.043-1.29v-.34c0 .114-.015.228-.015.333a23.477 23.477 0 0 0-2.073-.827c-1.573-.535-3.161-.956-4.765-1.336-3.207-.673-6.447-1.134-9.7-1.531-4.359-.511-8.749-.737-13.139-.875 4.723-.226 9.454-.342 14.186-.187zm17.351 6.14a19.472 19.472 0 0 1-1.849.649v-1.626a9.241 9.241 0 0 1 1.849.977zm-58.583-3.3c2.154-.323 4.341-.616 6.529-.891q7.048-.375 14.095-.366c6.48-.015 12.992.164 19.457.68 3.24.261 6.465.6 9.672 1.136 1.588.276 3.192.59 4.747 1.02a20.654 20.654 0 0 1 2.2.73c-.017.551-.05 1.11-.064 1.67-.016 0-.016 0-.016.005a47.82 47.82 0 0 1-5.055 1.1 100.3 100.3 0 0 1-10.335.93c-6.919.2-13.852-.1-20.738-.573-6.9-.48-13.753-1.288-20.494-2.293-3.142-.4-6.27-.963-9.284-1.564a132.424 132.424 0 0 1 9.286-1.58zm-10.743 5.892c3.436.608 6.9 1.005 10.37 1.321 6.95.6 13.9.818 20.867.81 6.95-.033 13.9-.292 20.834-.932 3.468-.325 6.935-.746 10.353-1.369a49.423 49.423 0 0 0 4.942-1.16c-.164 3.549-.421 7.09-.794 10.613a1.648 1.648 0 0 0-.226-.721 1.441 1.441 0 0 0-.13-.2.7.7 0 0 0-.114-.154 2.134 2.134 0 0 0-.226-.242 4.943 4.943 0 0 0-.551-.478 10.649 10.649 0 0 0-2.042-1.119 32.465 32.465 0 0 0-4.423-1.466 65.322 65.322 0 0 0-3.449-.744c1.312-.414 2.624-.86 3.888-1.393l-.05-.228c-2.235.478-4.488.825-6.739 1.11a85.715 85.715 0 0 0-2.8-.4 157.884 157.884 0 0 0-37.1 0c-.827.112-1.654.226-2.479.357-.211-.033-.4-.066-.616-.1l-.033.2c-2.023.316-4.034.7-6.026 1.207a29.8 29.8 0 0 0-4.409 1.457 10.88 10.88 0 0 0-2.056 1.119 3.329 3.329 0 0 0-1.15 1.327c-.356-3.3-.583-6.61-.73-9.931a49.454 49.454 0 0 0 4.889 1.116zm10.515 4.083a48.981 48.981 0 0 0 8.571 2.13c.924.147 1.83.276 2.755.382a94.1 94.1 0 0 0 12.621.583 97.62 97.62 0 0 0 12.588-1.119 59.228 59.228 0 0 0 7.354-1.6 66.02 66.02 0 0 1 4.357.82 30.5 30.5 0 0 1 4.44 1.272 10.66 10.66 0 0 1 2.056 1.02 3.175 3.175 0 0 1 1.183 1.207c0 .033.017.057.017.09.033.064.033.145.064.211s.033.145.05.224a.532.532 0 0 0-.017.163.044.044 0 0 0-.017.04 2.548 2.548 0 0 1-1.312 1.571 11.445 11.445 0 0 1-2.056.981 32.523 32.523 0 0 1-4.44 1.182 82.5 82.5 0 0 1-9.12 1.329 177.447 177.447 0 0 1-18.454.818 176.951 176.951 0 0 1-18.437-.818 91.481 91.481 0 0 1-6.981-.955c-.713-.121-1.443-.228-2.156-.373a30.413 30.413 0 0 1-4.421-1.191 10.376 10.376 0 0 1-2.075-.972 3.52 3.52 0 0 1-1.117-1.044 29.376 29.376 0 0 0-.13-1.151 3.036 3.036 0 0 1 1.215-1.314 10.728 10.728 0 0 1 2.058-1.02 31.284 31.284 0 0 1 4.438-1.272c2.302-.523 4.634-.892 6.966-1.193zm20.641-1.158a167.4 167.4 0 0 1 18.485.908c.195.024.4.057.616.072a170.2 170.2 0 0 1-3.37.325 194.5 194.5 0 0 1-12.474.606c-3.6.1-7.178.073-10.772-.041-.568-.024-1.136-.016-1.718-.04-3.273-.155-6.562-.4-9.819-.851l.568-.072a167.9 167.9 0 0 1 18.388-.908zm35.335 6.91a.278.278 0 0 0 .031-.154.282.282 0 0 1-.017.112.072.072 0 0 1-.015.043zm-69.534 1.433a10.893 10.893 0 0 0 2.04 1.158 31.5 31.5 0 0 0 4.423 1.557c.7.178 1.393.349 2.089.5l.276 4.335c-.566-.107-1.134-.188-1.7-.3a30.591 30.591 0 0 1-4.357-1.191 11.446 11.446 0 0 1-2.025-.972 3.8 3.8 0 0 1-.989-.891 112.597 112.597 0 0 1-.713-5.232 3.686 3.686 0 0 0 .956 1.037zm.616 5.274a10.316 10.316 0 0 0 1.992 1.167 31.051 31.051 0 0 0 4.335 1.545 61.3 61.3 0 0 0 1.911.478c2.35.544 4.732.957 7.114 1.3a141.3 141.3 0 0 0 36.614 0 76.874 76.874 0 0 0 9.025-1.783 30.316 30.316 0 0 0 4.341-1.545 10.969 10.969 0 0 0 2.009-1.167 4.222 4.222 0 0 0 .779-.777.3.3 0 0 1-.017.119 91.329 91.329 0 0 1-5.2 19.474 50.427 50.427 0 0 1-10.613 16.85c-2.235 2.268-5.507 3.337-8.7 4.05a47.36 47.36 0 0 1-9.947.915 47.9 47.9 0 0 1-9.929-.915 32.723 32.723 0 0 1-3.111-.851 13.688 13.688 0 0 1-5.59-3.2 49.952 49.952 0 0 1-10.594-16.85 90.3 90.3 0 0 1-5.219-19.474c0-.055-.017-.1-.017-.154a3.869 3.869 0 0 0 .816.819zm-6.643-19.636c.081.081.162.16.243.233a6.373 6.373 0 0 0 1.2.739 16.678 16.678 0 0 0 2.494.946l.1.026c0 12.491 1.474 25.11 5.914 36.945a49.272 49.272 0 0 0 10.692 17.4 13.527 13.527 0 0 0 4.44 2.949 26.685 26.685 0 0 0 4.975 1.562 51.972 51.972 0 0 0 20.492 0 27.256 27.256 0 0 0 4.976-1.562 13.394 13.394 0 0 0 4.423-2.942 49.281 49.281 0 0 0 10.708-17.408c4.471-11.9 5.928-24.6 5.9-37.156a.115.115 0 0 1 .05-.007 15.964 15.964 0 0 0 2.462-.95 5.327 5.327 0 0 0 1.15-.719 2.472 2.472 0 0 0 .421-.456 183.947 183.947 0 0 1-2.641 21.589 108.124 108.124 0 0 1-6.154 21.394c-2.885 6.763-6.612 13.195-11.763 18.2-2.156 2.147-5.574 3.346-9.008 4.091a60.323 60.323 0 0 1-21.532-.008c-3.435-.737-6.867-1.944-8.99-4.083-5.169-5.022-8.88-11.438-11.763-18.21a106.834 106.834 0 0 1-6.173-21.394 183.917 183.917 0 0 1-2.617-21.177zm83.419 10.855a10.086 10.086 0 0 1 8.747 3.06 9.383 9.383 0 0 1 2.139 9.253 10.715 10.715 0 0 1-6.482 6.658 11.064 11.064 0 0 1-8.7-.632c.454-2.543.844-5.112 1.119-7.672.112-.939.162-1.878.243-2.81a2.083 2.083 0 0 0 .325-.162 4.081 4.081 0 0 0 1-.884 7.586 7.586 0 0 0 1.329-2.268 6.616 6.616 0 0 0 .279-4.541zM224.362 675.2a5.288 5.288 0 0 1 .632 3.426 119.488 119.488 0 0 1-13.156 1.937c-2.883.266-5.8.437-8.716.542a50.442 50.442 0 0 0 6.044-.913 32.212 32.212 0 0 0 5.8-1.841 16.159 16.159 0 0 0 5.379-3.6c.5-.535.989-1.086 1.457-1.628a8.5 8.5 0 0 1 .779.388 5.046 5.046 0 0 1 1.781 1.689zm-33.1 5.857c-.388-.017-.794-.017-1.182-.041a128.5 128.5 0 0 1-19.3-2.31 5.482 5.482 0 0 1 .485-3.256 5.113 5.113 0 0 1 2.123-1.952c.357.414.73.842 1.117 1.239a16.153 16.153 0 0 0 5.379 3.613 32.653 32.653 0 0 0 5.8 1.841 48.618 48.618 0 0 0 5.58.869zm-49.753-17.19a7.992 7.992 0 0 1-.713-4.585 10.419 10.419 0 0 1 1.911-4.5 26.393 26.393 0 0 1 8-6.941 63.132 63.132 0 0 1 8.571-4.271 85.185 85.185 0 0 0 3.223 11.2 59.044 59.044 0 0 0 8.44 15.789 8.473 8.473 0 0 0-.68.873 7.634 7.634 0 0 0-1.261 3.441 6.907 6.907 0 0 0 .568 3.343c.048.107.112.187.16.292-.388-.081-.792-.145-1.182-.235-7.031-1.514-14-3.741-20.008-7.354-2.944-1.831-5.665-4.149-7.027-7.048zM244.53 676.22a53.713 53.713 0 0 1-14.727 7.169 89.405 89.405 0 0 1-16.087 3.5 119.664 119.664 0 0 1-16.524.979 120.965 120.965 0 0 1-16.526-.972 89.126 89.126 0 0 1-16.087-3.5 53.564 53.564 0 0 1-14.727-7.178c-.4-.283-.809-.59-1.2-.9a52.973 52.973 0 0 0 8.084 3.905 88.171 88.171 0 0 0 10.824 3.37 126.107 126.107 0 0 0 22.291 3.093c14.953.6 30.119-.7 44.438-5.581a60.475 60.475 0 0 0 10.37-4.642 41.633 41.633 0 0 0 3.922-2.648 34.417 34.417 0 0 1-4.049 3.409zm9.056-19.06a8.677 8.677 0 0 1 .357 5.006 10.359 10.359 0 0 1-2.315 4.431 25.981 25.981 0 0 1-8.426 6.191 63.075 63.075 0 0 1-10.026 3.863c-2.367.68-4.765 1.248-7.18 1.766.051-.13.132-.243.18-.38a6.665 6.665 0 0 0 .421-3.558 8.15 8.15 0 0 0-1.573-3.49 7.714 7.714 0 0 0-.775-.877 59.505 59.505 0 0 0 8.1-15.35c.031-.1.064-.195.1-.281.035-.009.1-.016.13-.026a5.738 5.738 0 0 0 1.217-.382 6.682 6.682 0 0 0 2.056-1.376 7.481 7.481 0 0 0 1.343-1.8.033.033 0 0 0 .017-.033 20.046 20.046 0 0 0 11.164-.583 17.412 17.412 0 0 1 5.212 6.882zm-16.829-10.86l-1.669-.713a87.27 87.27 0 0 0 1-4.625 10.142 10.142 0 0 0 3.468 2.13 11.268 11.268 0 0 0 11.713-2.746 11.552 11.552 0 0 0 3-5.6 12.2 12.2 0 0 0-3.5-11.445 11.52 11.52 0 0 0-11.243-2.683l-.6.2.162.551v.015l.033.121.031.05a5.327 5.327 0 0 1 .406 4.447 7.842 7.842 0 0 1-1.038 2.187 3.5 3.5 0 0 1-.809.851.2.2 0 0 1-.048.031 134.753 134.753 0 0 0 .388-14.663 17.583 17.583 0 0 1 15.212 3.817 17.039 17.039 0 0 1 5.864 14.321 16.522 16.522 0 0 1-7.906 12.735 15.977 15.977 0 0 1-14.464 1.019z" class="cls-3" data-name="Path 1363" transform="translate(-137.909 -603.214)"/>
            </g>
        </g>
        <g id="Group_391" data-name="Group 391" transform="translate(713.559 1479.954)">
            <path id="Path_3916" d="M226.962 684.181c-21.185-12.814-42.367 12.814-63.552 0v-42.715c21.185 12.814 42.367-12.814 63.552 0z" class="cls-4" data-name="Path 3916" transform="translate(-163.41 -637.767)"/>
            <g id="Group_390" data-name="Group 390" transform="translate(.529 .52)">
                <path id="Path_3917" d="M184.533 684.4c-6.946 1.424-13.891 1.494-20.835-2.5v-41.668c6.945 4 13.889 3.923 20.835 2.5z" class="cls-5" data-name="Path 3917" transform="translate(-163.698 -636.222)"/>
                <path id="Path_3918" d="M195.871 680.2c-6.946 1.422-13.891 4.2-20.835 5.623v-41.666c6.945-1.424 13.889-4.2 20.835-5.625z" class="cls-6" data-name="Path 3918" transform="translate(-154.201 -637.646)"/>
                <path id="Path_3919" d="M207.209 683.112c-6.945-4-13.893-3.931-20.837-2.507v-41.669c6.945-1.422 13.893-1.49 20.837 2.507z" class="cls-7" data-name="Path 3919" transform="translate(-144.705 -638.05)"/>
            </g>
        </g>
    </g>
</svg>
