<svg xmlns="http://www.w3.org/2000/svg" width="123.367" height="113.612" viewBox="0 0 123.367 113.612">
    <defs>
        <style>
            .cls-1{fill:#3b1008}.cls-2{fill:#c29968}.cls-3{fill:#803a17}.cls-4{fill:#cdc9bf}.cls-5{fill:#fa0a04}.cls-6{fill:#fff}
        </style>
    </defs>
    <g id="Group_3451" data-name="Group 3451" transform="translate(-821.213 -1416.456)">
        <g id="Group_146" data-name="Group 146" transform="translate(821.213 1416.456)">
            <g id="Group_145" data-name="Group 145">
                <path id="Path_1364" d="M256.026 658.126a47.908 47.908 0 0 0 9.931.915 47.359 47.359 0 0 0 9.947-.915c3.192-.713 6.463-1.783 8.7-4.05a50.457 50.457 0 0 0 10.613-16.85 91.216 91.216 0 0 0 5.2-19.474.3.3 0 0 0 .017-.119 4.15 4.15 0 0 1-.777.778 10.964 10.964 0 0 1-2.009 1.167 30.339 30.339 0 0 1-4.342 1.546 76.753 76.753 0 0 1-9.023 1.783 141.33 141.33 0 0 1-36.615 0c-2.38-.347-4.763-.761-7.112-1.3.114 1.849 1.54 22.5 12.362 35.675a34.93 34.93 0 0 0 3.108.844z" class="cls-1" data-name="Path 1364" transform="translate(-206.445 -591.134)"/>
                <path id="Path_1365" d="M273.235 613.388a2.534 2.534 0 0 1 .226.243 1.608 1.608 0 0 0-.226-.243z" class="cls-2" data-name="Path 1365" transform="translate(-179.068 -594.69)"/>
                <path id="Path_1366" d="M273.549 613.806a1.432 1.432 0 0 0-.129-.2 1.432 1.432 0 0 1 .129.2z" class="cls-2" data-name="Path 1366" transform="translate(-178.913 -594.51)"/>
                <path id="Path_1367" d="M240.51 620.633c2.315.4 4.631.73 6.981.956a176.951 176.951 0 0 0 18.437.818 177.41 177.41 0 0 0 18.452-.818 82.573 82.573 0 0 0 9.122-1.329 32.506 32.506 0 0 0 4.438-1.182 11.406 11.406 0 0 0 2.06-.978 2.548 2.548 0 0 0 1.312-1.571 3.649 3.649 0 0 0-.017-.428c-.031-.066-.031-.147-.064-.211 0-.033-.017-.057-.017-.09a3.188 3.188 0 0 0-1.183-1.207 10.664 10.664 0 0 0-2.056-1.02 30.622 30.622 0 0 0-4.44-1.272 66.073 66.073 0 0 0-4.359-.819 59.151 59.151 0 0 1-7.354 1.6 97.6 97.6 0 0 1-12.588 1.119 94.047 94.047 0 0 1-12.619-.583 63.808 63.808 0 0 1-2.757-.382c-9.542 3.273-12.558 6.344-13.348 7.397z" class="cls-2" data-name="Path 1367" transform="translate(-206.481 -596.291)"/>
                <path id="Path_1368" d="M261.025 612.558a195.23 195.23 0 0 0 12.474-.606c1.117-.1 2.236-.2 3.368-.325-.209-.015-.419-.048-.616-.072a167.419 167.419 0 0 0-18.483-.908h-.1a122.535 122.535 0 0 0-7.421 1.871c3.6.113 7.182.137 10.778.04z" class="cls-2" data-name="Path 1368" transform="translate(-198.321 -596.988)"/>
                <path id="Path_1369" d="M273.6 614.322a.278.278 0 0 1-.031.154.054.054 0 0 0 .015-.033.353.353 0 0 0 .016-.121z" class="cls-2" data-name="Path 1369" transform="translate(-178.788 -593.908)"/>
                <path id="Path_1370" d="M345.352 632.65a18.645 18.645 0 0 0-7.34-15.253 18.082 18.082 0 0 0-15.876-3.007c-.05-1.36-.1-2.72-.195-4.079a1.331 1.331 0 0 0 .211-.649v-.026a1.717 1.717 0 0 0-.731-1.262 5.787 5.787 0 0 0-1.149-.722 15.429 15.429 0 0 0-2.462-.939 44.531 44.531 0 0 0-5.105-1.2c-3.433-.632-6.884-1.053-10.352-1.378-6.933-.64-13.883-.9-20.834-.923-6.967-.017-13.917.2-20.868.809-3.466.309-6.932.706-10.368 1.314a50.134 50.134 0 0 0-5.134 1.174 16.141 16.141 0 0 0-2.5.948 6.453 6.453 0 0 0-1.2.744 1.946 1.946 0 0 0-.81 1.433 1.578 1.578 0 0 0 .421 1.046 131.081 131.081 0 0 0 .487 21.692 111.141 111.141 0 0 0 1.781 11.01 53.437 53.437 0 0 0-9.153 3.313 27.209 27.209 0 0 0-9.218 6.691 12.779 12.779 0 0 0-2.738 5.419 11.006 11.006 0 0 0 .535 6.254 16.673 16.673 0 0 0 3.953 5.7 4.8 4.8 0 0 0 .325.551 30.425 30.425 0 0 0 5.717 6.406 50.833 50.833 0 0 0 14.891 8.531c10.739 4.1 22.291 5.493 33.631 5.517 11.342-.017 22.894-1.408 33.635-5.508a50.831 50.831 0 0 0 14.887-8.53 30.666 30.666 0 0 0 5.719-6.415 22.252 22.252 0 0 0 1.509-2.714c.16-.219.34-.4.5-.606a12.691 12.691 0 0 0 2.286-5.517 9.96 9.96 0 0 0-.939-5.816 17.05 17.05 0 0 0-6.092-6.489 18.476 18.476 0 0 0 4.276-2.211 19.236 19.236 0 0 0 8.3-15.308zm-43.093-27.436a100.914 100.914 0 0 1 10.335.933 46.293 46.293 0 0 1 5.056 1.093 15.978 15.978 0 0 1 2.4.873c.713.349 1.573.843 1.637 1.516-.064.72-.924 1.182-1.637 1.538-.081.042-.162.066-.243.1a9.239 9.239 0 0 0-2.042-1.29v-.34c0 .114-.015.228-.015.333a23.272 23.272 0 0 0-2.075-.827c-1.571-.535-3.159-.956-4.763-1.336-3.207-.673-6.446-1.134-9.7-1.531-4.357-.511-8.749-.737-13.137-.875 4.72-.226 9.452-.342 14.184-.187zm17.351 6.14a19.479 19.479 0 0 1-1.849.649v-1.626a9.245 9.245 0 0 1 1.849.977zm-58.585-3.3c2.156-.323 4.342-.616 6.531-.891q7.046-.375 14.095-.366c6.48-.015 12.992.164 19.455.68 3.24.261 6.465.6 9.672 1.136 1.588.276 3.192.59 4.749 1.02a20.806 20.806 0 0 1 2.2.73c-.017.551-.05 1.11-.064 1.67-.016 0-.016 0-.016.005a48.02 48.02 0 0 1-5.056 1.1 100.394 100.394 0 0 1-10.335.93c-6.919.2-13.852-.1-20.738-.573-6.9-.48-13.755-1.288-20.5-2.293-3.141-.4-6.268-.963-9.282-1.564a133.31 133.31 0 0 1 9.289-1.58zm-10.741 5.888c3.436.608 6.9 1.005 10.368 1.321 6.952.6 13.9.818 20.868.81 6.95-.033 13.9-.292 20.834-.932 3.468-.325 6.935-.746 10.352-1.369a49.578 49.578 0 0 0 4.943-1.16q-.245 5.323-.8 10.613a1.6 1.6 0 0 0-.226-.721 1.415 1.415 0 0 0-.129-.2.7.7 0 0 0-.114-.154 2.518 2.518 0 0 0-.226-.242 4.951 4.951 0 0 0-.553-.478 10.632 10.632 0 0 0-2.04-1.119 32.539 32.539 0 0 0-4.423-1.466c-1.15-.283-2.3-.526-3.451-.744 1.312-.414 2.626-.86 3.889-1.393l-.05-.228c-2.235.478-4.487.825-6.739 1.11a85.328 85.328 0 0 0-2.8-.4 157.9 157.9 0 0 0-37.1 0 112.9 112.9 0 0 0-2.479.357l-.614-.1-.035.2c-2.023.316-4.032.7-6.024 1.207a29.731 29.731 0 0 0-4.409 1.457 10.882 10.882 0 0 0-2.056 1.119 3.314 3.314 0 0 0-1.15 1.327c-.357-3.3-.584-6.61-.73-9.931a49.454 49.454 0 0 0 4.894 1.12zm10.516 4.088a48.923 48.923 0 0 0 8.569 2.13c.924.147 1.832.276 2.756.382a94.088 94.088 0 0 0 12.619.583 97.62 97.62 0 0 0 12.588-1.119 59.082 59.082 0 0 0 7.354-1.6 66.08 66.08 0 0 1 4.359.82 30.628 30.628 0 0 1 4.44 1.272 10.661 10.661 0 0 1 2.056 1.02 3.189 3.189 0 0 1 1.183 1.207c0 .033.016.057.016.09.033.064.033.145.064.211s.033.145.048.224a.6.6 0 0 0-.015.163.044.044 0 0 0-.017.04 2.548 2.548 0 0 1-1.312 1.571 11.4 11.4 0 0 1-2.058.981 32.5 32.5 0 0 1-4.438 1.182 82.53 82.53 0 0 1-9.122 1.329 208.406 208.406 0 0 1-36.889 0 91.413 91.413 0 0 1-6.981-.955c-.713-.121-1.444-.228-2.156-.373a30.435 30.435 0 0 1-4.423-1.191 10.412 10.412 0 0 1-2.073-.972 3.527 3.527 0 0 1-1.119-1.044c-.033-.382-.081-.763-.129-1.151a3.025 3.025 0 0 1 1.215-1.314 10.765 10.765 0 0 1 2.056-1.02 31.306 31.306 0 0 1 4.44-1.272c2.303-.524 4.634-.893 6.969-1.194zm20.641-1.158a167.39 167.39 0 0 1 18.483.908c.2.024.406.057.616.072-1.132.123-2.251.226-3.368.325a194.5 194.5 0 0 1-12.474.606c-3.6.1-7.178.073-10.774-.041-.566-.024-1.134-.016-1.718-.04-3.271-.155-6.56-.4-9.817-.851l.566-.072a167.911 167.911 0 0 1 18.389-.908zm35.335 6.91a.278.278 0 0 0 .031-.154.283.283 0 0 1-.016.112.071.071 0 0 1-.016.042zm-69.533 1.433a10.891 10.891 0 0 0 2.04 1.158 31.416 31.416 0 0 0 4.423 1.557c.7.178 1.393.349 2.09.5l.276 4.335c-.568-.107-1.136-.188-1.7-.3a30.681 30.681 0 0 1-4.359-1.191 11.494 11.494 0 0 1-2.023-.972 3.8 3.8 0 0 1-.989-.891 112.597 112.597 0 0 1-.713-5.232 3.631 3.631 0 0 0 .953 1.036zm.614 5.274a10.274 10.274 0 0 0 1.994 1.167 31.05 31.05 0 0 0 4.341 1.545 61.3 61.3 0 0 0 1.911.478c2.348.544 4.732.957 7.112 1.3a141.316 141.316 0 0 0 36.615 0 76.763 76.763 0 0 0 9.023-1.783 30.334 30.334 0 0 0 4.342-1.545 10.97 10.97 0 0 0 2.009-1.167 4.161 4.161 0 0 0 .777-.777.3.3 0 0 1-.017.119 91.2 91.2 0 0 1-5.2 19.474 50.456 50.456 0 0 1-10.612 16.85c-2.236 2.268-5.508 3.337-8.7 4.05a47.358 47.358 0 0 1-9.947.915 47.911 47.911 0 0 1-9.931-.915 32.887 32.887 0 0 1-3.111-.851 13.713 13.713 0 0 1-5.59-3.2 49.983 49.983 0 0 1-10.594-16.85 90.188 90.188 0 0 1-5.217-19.474c0-.055-.017-.1-.017-.154a3.861 3.861 0 0 0 .81.818zm-6.641-19.636c.081.081.16.16.243.233a6.424 6.424 0 0 0 1.2.739 16.7 16.7 0 0 0 2.5.946l.1.026c0 12.491 1.476 25.11 5.915 36.945a49.247 49.247 0 0 0 10.692 17.4 13.527 13.527 0 0 0 4.44 2.949 26.712 26.712 0 0 0 4.973 1.562 51.981 51.981 0 0 0 20.494 0 27.285 27.285 0 0 0 4.975-1.562 13.376 13.376 0 0 0 4.423-2.942 49.314 49.314 0 0 0 10.71-17.408c4.471-11.9 5.928-24.6 5.9-37.156a.115.115 0 0 1 .05-.007 16.035 16.035 0 0 0 2.462-.95 5.313 5.313 0 0 0 1.149-.719 2.484 2.484 0 0 0 .423-.456 183.577 183.577 0 0 1-2.643 21.589 108 108 0 0 1-6.154 21.394c-2.885 6.763-6.61 13.195-11.761 18.2-2.156 2.147-5.575 3.346-9.008 4.091a60.324 60.324 0 0 1-21.532-.008c-3.435-.737-6.869-1.944-8.99-4.083-5.169-5.022-8.88-11.438-11.763-18.21a106.593 106.593 0 0 1-6.173-21.394 183.527 183.527 0 0 1-2.627-21.178zm83.417 10.855a10.089 10.089 0 0 1 8.749 3.06 9.382 9.382 0 0 1 2.137 9.253 10.713 10.713 0 0 1-6.48 6.658 11.064 11.064 0 0 1-8.7-.632 112.22 112.22 0 0 0 1.117-7.672c.114-.939.164-1.878.242-2.81a1.93 1.93 0 0 0 .325-.162 4.08 4.08 0 0 0 1-.884 7.506 7.506 0 0 0 1.329-2.268 6.605 6.605 0 0 0 .279-4.542zM308.446 675.2a5.3 5.3 0 0 1 .632 3.426 119.554 119.554 0 0 1-13.156 1.937c-2.883.266-5.8.437-8.716.542a50.5 50.5 0 0 0 6.044-.913 32.211 32.211 0 0 0 5.8-1.841 16.134 16.134 0 0 0 5.377-3.6c.5-.535.989-1.086 1.459-1.628a8.234 8.234 0 0 1 .777.388 5.036 5.036 0 0 1 1.783 1.689zm-33.1 5.857c-.388-.017-.794-.017-1.183-.041a128.563 128.563 0 0 1-19.3-2.31 5.481 5.481 0 0 1 .487-3.256 5.108 5.108 0 0 1 2.121-1.952c.357.414.731.842 1.119 1.239a16.153 16.153 0 0 0 5.379 3.613 32.654 32.654 0 0 0 5.8 1.841 48.49 48.49 0 0 0 5.579.869zM225.6 663.871a7.976 7.976 0 0 1-.713-4.585 10.419 10.419 0 0 1 1.911-4.5 26.371 26.371 0 0 1 8-6.941 63 63 0 0 1 8.569-4.271 85.461 85.461 0 0 0 3.223 11.2 59.051 59.051 0 0 0 8.442 15.789 8.241 8.241 0 0 0-.68.873 7.634 7.634 0 0 0-1.264 3.446 6.886 6.886 0 0 0 .566 3.343c.05.107.114.187.162.292-.388-.081-.794-.145-1.183-.235-7.031-1.514-14-3.741-20.007-7.354-2.947-1.84-5.671-4.158-7.026-7.057zm103.021 12.353a53.715 53.715 0 0 1-14.727 7.169 89.406 89.406 0 0 1-16.087 3.5 119.673 119.673 0 0 1-16.526.979 120.938 120.938 0 0 1-16.524-.972 89.093 89.093 0 0 1-16.087-3.5 53.564 53.564 0 0 1-14.727-7.178c-.4-.283-.809-.59-1.2-.9a52.993 52.993 0 0 0 8.086 3.905 88.25 88.25 0 0 0 10.822 3.37 126.127 126.127 0 0 0 22.293 3.093c14.953.6 30.117-.7 44.438-5.581a60.394 60.394 0 0 0 10.368-4.642 41.652 41.652 0 0 0 3.922-2.648 34.414 34.414 0 0 1-4.055 3.405zm9.056-19.06a8.694 8.694 0 0 1 .357 5.006 10.38 10.38 0 0 1-2.315 4.431 26 26 0 0 1-8.426 6.191 63.028 63.028 0 0 1-10.028 3.863c-2.365.68-4.763 1.248-7.178 1.766.05-.13.13-.243.18-.38a6.664 6.664 0 0 0 .421-3.558 8.192 8.192 0 0 0-1.573-3.49 8.069 8.069 0 0 0-.775-.877 59.558 59.558 0 0 0 8.1-15.35c.031-.1.064-.195.1-.281.033-.009.1-.016.13-.026a5.688 5.688 0 0 0 1.215-.382 6.668 6.668 0 0 0 2.058-1.376 7.528 7.528 0 0 0 1.343-1.8.033.033 0 0 0 .017-.033 20.047 20.047 0 0 0 11.164-.583 17.41 17.41 0 0 1 5.206 6.878zM320.84 646.3l-1.669-.713a87.27 87.27 0 0 0 1-4.625 10.159 10.159 0 0 0 3.468 2.13 11.272 11.272 0 0 0 11.715-2.746 11.566 11.566 0 0 0 3-5.6 12.2 12.2 0 0 0-3.5-11.445 11.52 11.52 0 0 0-11.243-2.683l-.6.2.164.551v.015l.033.121.031.05a5.32 5.32 0 0 1 .4 4.447 7.886 7.886 0 0 1-1.036 2.187 3.546 3.546 0 0 1-.81.851.2.2 0 0 1-.048.031 134.294 134.294 0 0 0 .39-14.663 17.586 17.586 0 0 1 15.212 3.817 17.04 17.04 0 0 1 5.864 14.321 16.527 16.527 0 0 1-7.906 12.735 15.98 15.98 0 0 1-14.465 1.019z" class="cls-3" data-name="Path 1370" transform="translate(-221.993 -603.214)"/>
            </g>
        </g>
        <g id="Group_394" data-name="Group 394" transform="translate(865.189 1479.954)">
            <path id="Path_3920" d="M309.475 684.181c-21.185-12.814-42.367 12.816-63.552 0v-42.715c21.185 12.816 42.367-12.816 63.552 0z" class="cls-4" data-name="Path 3920" transform="translate(-245.923 -637.767)"/>
            <g id="Group_393" data-name="Group 393" transform="translate(.526 .524)">
                <path id="Path_3921" d="M308.721 683.119c-20.837-11.995-41.675 12.6-62.512.616v-41.673c20.837 11.985 41.675-12.61 62.512-.616z" class="cls-5" data-name="Path 3921" transform="translate(-246.209 -638.052)"/>
                <g id="Group_392" data-name="Group 392" transform="translate(15.523 15.251)">
                    <path id="Path_3922" d="M273.827 660.148a12.081 12.081 0 0 1-6.156 4.585c-4.567 1.395-8.282-1.584-8.282-6.169 0-4.55 3.716-9 8.282-10.394a6.583 6.583 0 0 1 6.156.9.021.021 0 0 0 .022 0 .047.047 0 0 0 .031-.039.022.022 0 0 0-.011-.018c-1.926-2.483-5.214-3.238-8.8-2.235-5.745 1.681-10.418 6.733-10.418 12.446 0 5.776 4.673 10.071 10.418 8.389a15.144 15.144 0 0 0 8.8-7.448.027.027 0 0 0-.007-.039.035.035 0 0 0-.035.022z" class="cls-6" data-name="Path 3922" transform="translate(-254.656 -646.351)"/>
                    <path id="Path_3923" d="M274.083 648.3a.023.023 0 0 0-.033-.006c-1.189.59-2.38 1.23-3.569 1.9q-1.1-1.254-2.205-2.475a.025.025 0 0 0-.033 0 .036.036 0 0 0-.02.031v3.75c-1.191.706-2.38 1.434-3.569 2.174a.044.044 0 0 0-.02.035.022.022 0 0 0 .02.022c1.189.035 2.378.079 3.569.145v3.753a.023.023 0 0 0 .02.024h.009a.048.048 0 0 0 .024-.018q1.1-1.811 2.205-3.595c1.189.1 2.38.239 3.569.421a.039.039 0 0 0 .033-.017.033.033 0 0 0 0-.037q-1.1-1.326-2.205-2.608 1.1-1.753 2.205-3.464a.028.028 0 0 0 0-.035z" class="cls-6" data-name="Path 3923" transform="translate(-246.298 -645.209)"/>
                </g>
            </g>
        </g>
    </g>
</svg>
