<svg xmlns="http://www.w3.org/2000/svg" width="123.365" height="113.468" viewBox="0 0 123.365 113.468">
    <defs>
        <style>
            .cls-1{fill:#3b1008}.cls-2{fill:#c29968}.cls-3{fill:#803a17}.cls-4{fill:#cdc9bf}.cls-5{fill:#170b7f}.cls-6{fill:#fff}.cls-7{fill:#fa0009}
        </style>
    </defs>
    <g id="Group_3450" data-name="Group 3450" transform="translate(-975.73 -1416.456)">
        <g id="Group_148" data-name="Group 148" transform="translate(975.73 1416.456)">
            <g id="Group_147" data-name="Group 147">
                <path id="Path_1371" d="M340.11 658.126a47.9 47.9 0 0 0 9.931.915 47.37 47.37 0 0 0 9.947-.915c3.192-.713 6.463-1.783 8.7-4.05a50.484 50.484 0 0 0 10.612-16.85 91.217 91.217 0 0 0 5.2-19.474.3.3 0 0 0 .017-.119 4.266 4.266 0 0 1-.777.778 10.921 10.921 0 0 1-2.01 1.167 30.32 30.32 0 0 1-4.341 1.546 76.84 76.84 0 0 1-9.023 1.783 141.331 141.331 0 0 1-36.616 0c-2.382-.347-4.763-.761-7.112-1.3.114 1.849 1.538 22.5 12.362 35.675 1.019.333 2.074.609 3.11.844z" class="cls-1" data-name="Path 1371" transform="translate(-290.528 -591.134)"/>
                <path id="Path_1372" d="M357.318 613.388a2.145 2.145 0 0 1 .226.243 1.438 1.438 0 0 0-.226-.243z" class="cls-2" data-name="Path 1372" transform="translate(-263.153 -594.69)"/>
                <path id="Path_1373" d="M357.633 613.806a1.432 1.432 0 0 0-.129-.2 1.432 1.432 0 0 1 .129.2z" class="cls-2" data-name="Path 1373" transform="translate(-262.997 -594.51)"/>
                <path id="Path_1374" d="M324.593 620.633c2.317.4 4.633.73 6.981.956a208.474 208.474 0 0 0 36.891 0 82.541 82.541 0 0 0 9.12-1.329 32.458 32.458 0 0 0 4.44-1.182 11.467 11.467 0 0 0 2.058-.981 2.559 2.559 0 0 0 1.312-1.571 3.636 3.636 0 0 0-.017-.428c-.033-.066-.033-.147-.066-.211 0-.033-.017-.057-.017-.09a3.169 3.169 0 0 0-1.182-1.207 10.678 10.678 0 0 0-2.058-1.02 30.489 30.489 0 0 0-4.44-1.272 66.015 66.015 0 0 0-4.357-.819 59.224 59.224 0 0 1-7.354 1.6 97.6 97.6 0 0 1-12.588 1.119 94.047 94.047 0 0 1-12.619-.583 63.808 63.808 0 0 1-2.757-.382c-9.54 3.276-12.553 6.347-13.347 7.4z" class="cls-2" data-name="Path 1374" transform="translate(-290.565 -596.291)"/>
                <path id="Path_1375" d="M345.109 612.558a195.06 195.06 0 0 0 12.472-.606c1.119-.1 2.236-.2 3.37-.325-.211-.015-.419-.048-.616-.072a167.42 167.42 0 0 0-18.483-.908h-.1a122.827 122.827 0 0 0-7.419 1.871c3.596.113 7.178.137 10.776.04z" class="cls-2" data-name="Path 1375" transform="translate(-282.405 -596.988)"/>
                <path id="Path_1376" d="M357.686 614.322a.266.266 0 0 1-.033.154.051.051 0 0 0 .016-.033.351.351 0 0 0 .017-.121z" class="cls-2" data-name="Path 1376" transform="translate(-262.872 -593.908)"/>
                <path id="Path_1377" d="M429.435 632.65a18.638 18.638 0 0 0-7.335-15.25 18.084 18.084 0 0 0-15.877-3.007c-.048-1.36-.1-2.72-.193-4.079a1.329 1.329 0 0 0 .209-.649v-.026a1.715 1.715 0 0 0-.73-1.262 5.75 5.75 0 0 0-1.15-.722 15.413 15.413 0 0 0-2.461-.939 44.618 44.618 0 0 0-5.1-1.2c-3.435-.632-6.886-1.053-10.352-1.378-6.934-.64-13.885-.9-20.833-.923-6.968-.017-13.919.2-20.869.809-3.466.309-6.934.706-10.368 1.314a50.026 50.026 0 0 0-5.134 1.174 16.065 16.065 0 0 0-2.5.948 6.458 6.458 0 0 0-1.2.744 1.95 1.95 0 0 0-.809 1.433 1.569 1.569 0 0 0 .421 1.046 131.289 131.289 0 0 0 .485 21.692 111.165 111.165 0 0 0 1.783 11.01 53.382 53.382 0 0 0-9.153 3.313 27.208 27.208 0 0 0-9.218 6.691 12.8 12.8 0 0 0-2.74 5.419 11.022 11.022 0 0 0 .537 6.254 16.669 16.669 0 0 0 3.951 5.7 5.4 5.4 0 0 0 .325.551 30.384 30.384 0 0 0 5.719 6.406 50.847 50.847 0 0 0 14.889 8.531c10.741 4.1 22.293 5.493 33.633 5.517 11.34-.017 22.892-1.408 33.635-5.508a50.877 50.877 0 0 0 14.887-8.53 30.662 30.662 0 0 0 5.719-6.415 21.993 21.993 0 0 0 1.507-2.714c.162-.219.34-.4.5-.606a12.69 12.69 0 0 0 2.284-5.517 9.931 9.931 0 0 0-.939-5.816 17.021 17.021 0 0 0-6.092-6.489 18.49 18.49 0 0 0 4.278-2.211 19.234 19.234 0 0 0 8.291-15.311zm-43.093-27.436a100.817 100.817 0 0 1 10.335.933 46.108 46.108 0 0 1 5.056 1.093 15.991 15.991 0 0 1 2.4.873c.713.349 1.571.843 1.637 1.516-.066.72-.924 1.182-1.637 1.538-.083.042-.162.066-.243.1a9.232 9.232 0 0 0-2.042-1.29v-.34c0 .114-.017.228-.017.333a23.477 23.477 0 0 0-2.073-.827c-1.573-.535-3.161-.956-4.765-1.336-3.207-.673-6.446-1.134-9.7-1.531-4.359-.511-8.749-.737-13.139-.875 4.725-.226 9.457-.342 14.187-.187zm17.351 6.14a19.455 19.455 0 0 1-1.847.649v-1.626a9.228 9.228 0 0 1 1.847.977zm-58.583-3.3c2.156-.323 4.342-.616 6.529-.891q7.048-.375 14.095-.366c6.48-.015 12.994.164 19.457.68 3.24.261 6.465.6 9.672 1.136 1.588.276 3.192.59 4.748 1.02a20.772 20.772 0 0 1 2.2.73c-.017.551-.05 1.11-.064 1.67-.017 0-.017 0-.017.005a47.821 47.821 0 0 1-5.056 1.1 100.3 100.3 0 0 1-10.335.93c-6.917.2-13.852-.1-20.736-.573-6.9-.48-13.755-1.288-20.5-2.293-3.142-.4-6.27-.963-9.284-1.564a133.067 133.067 0 0 1 9.291-1.58zm-10.741 5.888c3.435.608 6.9 1.005 10.368 1.321 6.95.6 13.9.818 20.869.81 6.948-.033 13.9-.292 20.833-.932 3.466-.325 6.933-.746 10.352-1.369a49.423 49.423 0 0 0 4.941-1.16q-.243 5.323-.794 10.613a1.623 1.623 0 0 0-.226-.721 1.432 1.432 0 0 0-.129-.2.7.7 0 0 0-.116-.154 2.137 2.137 0 0 0-.226-.242 4.95 4.95 0 0 0-.551-.478 10.633 10.633 0 0 0-2.04-1.119 32.636 32.636 0 0 0-4.423-1.466c-1.15-.283-2.3-.526-3.451-.744 1.312-.414 2.624-.86 3.889-1.393l-.05-.228c-2.235.478-4.488.825-6.739 1.11a85.715 85.715 0 0 0-2.8-.4 157.886 157.886 0 0 0-37.1 0c-.827.112-1.652.226-2.479.357-.211-.033-.4-.066-.616-.1l-.033.2c-2.023.316-4.032.7-6.026 1.207a29.783 29.783 0 0 0-4.407 1.457 10.836 10.836 0 0 0-2.058 1.119 3.311 3.311 0 0 0-1.149 1.327c-.356-3.3-.584-6.61-.731-9.931a49.492 49.492 0 0 0 4.891 1.12zm10.513 4.083a48.978 48.978 0 0 0 8.571 2.13c.924.147 1.832.276 2.757.382a94.089 94.089 0 0 0 12.619.583 97.619 97.619 0 0 0 12.588-1.119 59.153 59.153 0 0 0 7.354-1.6 66.02 66.02 0 0 1 4.357.82 30.5 30.5 0 0 1 4.44 1.272 10.678 10.678 0 0 1 2.058 1.02 3.17 3.17 0 0 1 1.182 1.207c0 .033.017.057.017.09.033.064.033.145.066.211.017.072.033.145.048.224a.6.6 0 0 0-.015.163.044.044 0 0 0-.017.04 2.559 2.559 0 0 1-1.312 1.571 11.463 11.463 0 0 1-2.058.981 32.447 32.447 0 0 1-4.44 1.182 82.5 82.5 0 0 1-9.12 1.329 208.428 208.428 0 0 1-36.891 0 91.687 91.687 0 0 1-6.981-.955c-.713-.121-1.443-.228-2.154-.373a30.371 30.371 0 0 1-4.423-1.191 10.472 10.472 0 0 1-2.075-.972 3.521 3.521 0 0 1-1.117-1.044c-.033-.382-.081-.763-.129-1.151a3.022 3.022 0 0 1 1.213-1.314 10.786 10.786 0 0 1 2.058-1.02 31.245 31.245 0 0 1 4.44-1.272c2.3-.519 4.632-.888 6.964-1.189zm20.642-1.158a167.388 167.388 0 0 1 18.483.908c.2.024.4.057.616.072a170.2 170.2 0 0 1-3.37.325c-4.146.34-8.31.533-12.472.606-3.6.1-7.18.073-10.774-.041-.568-.024-1.134-.016-1.718-.04-3.271-.155-6.562-.4-9.819-.851l.568-.072a167.9 167.9 0 0 1 18.388-.908zm35.333 6.91a.265.265 0 0 0 .033-.154.282.282 0 0 1-.017.112.066.066 0 0 1-.016.047zm-69.534 1.433a10.846 10.846 0 0 0 2.042 1.158 31.473 31.473 0 0 0 4.421 1.557c.7.178 1.395.349 2.091.5l.276 4.335c-.568-.107-1.136-.188-1.7-.3a30.664 30.664 0 0 1-4.357-1.191 11.512 11.512 0 0 1-2.025-.972 3.8 3.8 0 0 1-.989-.891 118.274 118.274 0 0 1-.713-5.232 3.684 3.684 0 0 0 .955 1.041zm.616 5.274a10.316 10.316 0 0 0 1.992 1.167 31.078 31.078 0 0 0 4.342 1.545 61.3 61.3 0 0 0 1.911.478c2.349.544 4.73.957 7.112 1.3a141.317 141.317 0 0 0 36.616 0 76.845 76.845 0 0 0 9.023-1.783 30.32 30.32 0 0 0 4.341-1.545 10.926 10.926 0 0 0 2.01-1.167 4.275 4.275 0 0 0 .777-.777.3.3 0 0 1-.017.119 91.2 91.2 0 0 1-5.2 19.474 50.484 50.484 0 0 1-10.612 16.85c-2.236 2.268-5.507 3.337-8.7 4.05a47.371 47.371 0 0 1-9.947.915 47.9 47.9 0 0 1-9.931-.915 32.887 32.887 0 0 1-3.111-.851 13.7 13.7 0 0 1-5.59-3.2 49.98 49.98 0 0 1-10.594-16.85 90.184 90.184 0 0 1-5.217-19.474c0-.055-.017-.1-.017-.154a3.815 3.815 0 0 0 .812.823zm-6.639-19.63c.083.081.162.16.242.233a6.429 6.429 0 0 0 1.2.739 16.623 16.623 0 0 0 2.5.946l.1.026c0 12.491 1.476 25.11 5.914 36.945a49.276 49.276 0 0 0 10.693 17.4 13.518 13.518 0 0 0 4.438 2.949 26.726 26.726 0 0 0 4.975 1.562 51.981 51.981 0 0 0 20.494 0 27.281 27.281 0 0 0 4.975-1.562 13.394 13.394 0 0 0 4.423-2.942 49.28 49.28 0 0 0 10.708-17.408c4.471-11.9 5.93-24.6 5.9-37.156a.115.115 0 0 1 .05-.007 16.018 16.018 0 0 0 2.461-.95 5.282 5.282 0 0 0 1.15-.719 2.47 2.47 0 0 0 .421-.456 183.529 183.529 0 0 1-2.641 21.589 108 108 0 0 1-6.154 21.394c-2.885 6.763-6.612 13.195-11.763 18.2-2.154 2.147-5.574 3.346-9.008 4.091a60.324 60.324 0 0 1-21.532-.008c-3.433-.737-6.867-1.944-8.99-4.083-5.169-5.022-8.878-11.438-11.761-18.21a106.706 106.706 0 0 1-6.174-21.394 183.85 183.85 0 0 1-2.621-21.179zm83.419 10.855a10.084 10.084 0 0 1 8.747 3.06 9.382 9.382 0 0 1 2.139 9.253 10.712 10.712 0 0 1-6.48 6.658 11.063 11.063 0 0 1-8.7-.632c.452-2.543.842-5.112 1.117-7.672.112-.939.162-1.878.243-2.81a2.078 2.078 0 0 0 .325-.162 4.083 4.083 0 0 0 1-.884 7.547 7.547 0 0 0 1.329-2.268 6.606 6.606 0 0 0 .276-4.543zM392.531 675.2a5.312 5.312 0 0 1 .632 3.426 119.617 119.617 0 0 1-13.156 1.937c-2.883.266-5.8.437-8.716.542a50.413 50.413 0 0 0 6.042-.913 32.213 32.213 0 0 0 5.8-1.841 16.161 16.161 0 0 0 5.379-3.6c.5-.535.989-1.086 1.459-1.628.257.121.518.233.777.388a5.067 5.067 0 0 1 1.783 1.689zm-33.1 5.857c-.389-.017-.8-.017-1.183-.041a128.563 128.563 0 0 1-19.3-2.31 5.482 5.482 0 0 1 .485-3.256 5.114 5.114 0 0 1 2.123-1.952c.356.414.73.842 1.117 1.239a16.153 16.153 0 0 0 5.379 3.613 32.655 32.655 0 0 0 5.8 1.841 48.582 48.582 0 0 0 5.58.869zm-49.753-17.19a7.976 7.976 0 0 1-.713-4.585 10.374 10.374 0 0 1 1.911-4.5 26.386 26.386 0 0 1 8-6.941 63.132 63.132 0 0 1 8.571-4.271 85.47 85.47 0 0 0 3.223 11.2 59.046 59.046 0 0 0 8.44 15.789 8.756 8.756 0 0 0-.68.873 7.655 7.655 0 0 0-1.264 3.446 6.907 6.907 0 0 0 .568 3.343c.048.107.112.187.162.292-.39-.081-.794-.145-1.183-.235-7.031-1.514-14-3.741-20.007-7.354-2.945-1.836-5.667-4.154-7.027-7.053zM412.7 676.224a53.678 53.678 0 0 1-14.725 7.169 89.46 89.46 0 0 1-16.089 3.5 119.664 119.664 0 0 1-16.524.979 120.941 120.941 0 0 1-16.524-.972 89.092 89.092 0 0 1-16.087-3.5 53.54 53.54 0 0 1-14.727-7.178c-.406-.283-.81-.59-1.2-.9a53.049 53.049 0 0 0 8.084 3.905 88.17 88.17 0 0 0 10.824 3.37 126.129 126.129 0 0 0 22.291 3.093c14.955.6 30.119-.7 44.44-5.581a60.526 60.526 0 0 0 10.368-4.642 41.652 41.652 0 0 0 3.922-2.648 34.28 34.28 0 0 1-4.053 3.405zm9.058-19.06a8.709 8.709 0 0 1 .357 5.006 10.365 10.365 0 0 1-2.315 4.43 25.981 25.981 0 0 1-8.426 6.191 63.006 63.006 0 0 1-10.026 3.863c-2.365.68-4.765 1.248-7.178 1.766.05-.13.131-.243.178-.38a6.664 6.664 0 0 0 .421-3.558 8.169 8.169 0 0 0-1.571-3.49 7.925 7.925 0 0 0-.777-.877 59.5 59.5 0 0 0 8.1-15.35c.033-.1.066-.195.1-.281.033-.009.1-.016.129-.026a5.7 5.7 0 0 0 1.216-.382 6.661 6.661 0 0 0 2.056-1.376 7.542 7.542 0 0 0 1.345-1.8.033.033 0 0 0 .017-.033 20.041 20.041 0 0 0 11.162-.583 17.433 17.433 0 0 1 5.211 6.879zM404.924 646.3l-1.669-.713a87.27 87.27 0 0 0 1-4.625 10.143 10.143 0 0 0 3.468 2.13 11.268 11.268 0 0 0 11.713-2.746 11.57 11.57 0 0 0 3-5.6 12.208 12.208 0 0 0-3.5-11.445 11.521 11.521 0 0 0-11.243-2.683l-.6.2.162.551v.015l.033.121.033.05a5.333 5.333 0 0 1 .4 4.447 7.886 7.886 0 0 1-1.036 2.187 3.543 3.543 0 0 1-.81.851.2.2 0 0 1-.048.031 134.292 134.292 0 0 0 .388-14.663 17.583 17.583 0 0 1 15.212 3.817 17.046 17.046 0 0 1 5.866 14.321 16.529 16.529 0 0 1-7.907 12.735 15.976 15.976 0 0 1-14.462 1.019z" class="cls-3" data-name="Path 1377" transform="translate(-306.076 -603.214)"/>
            </g>
        </g>
        <g id="Group_396" data-name="Group 396" transform="translate(1024.537 1479.811)">
            <path id="Path_3924" d="M396.188 684.1c-21.185-12.814-42.367 12.814-63.552 0v-42.712c21.185 12.814 42.367-12.814 63.552 0z" class="cls-4" data-name="Path 3924" transform="translate(-332.636 -637.689)"/>
            <g id="Group_395" data-name="Group 395" transform="translate(.529 .521)">
                <path id="Path_3925" d="M353.759 684.325c-6.945 1.424-13.891 1.494-20.835-2.5v-41.67c6.945 3.993 13.891 3.923 20.835 2.5z" class="cls-5" data-name="Path 3925" transform="translate(-332.924 -636.144)"/>
                <path id="Path_3926" d="M365.1 680.125c-6.946 1.422-13.891 4.2-20.835 5.625v-41.671c6.945-1.424 13.889-4.2 20.835-5.625z" class="cls-6" data-name="Path 3926" transform="translate(-323.427 -637.569)"/>
                <path id="Path_3927" d="M376.436 683.037c-6.946-4-13.893-3.931-20.837-2.508v-41.67c6.944-1.424 13.891-1.49 20.837 2.506z" class="cls-7" data-name="Path 3927" transform="translate(-313.93 -637.972)"/>
            </g>
        </g>
    </g>
</svg>
