<svg xmlns="http://www.w3.org/2000/svg" width="123.365" height="113.468" viewBox="0 0 123.365 113.468">
    <defs>
        <style>
            .cls-1{fill:#3b1008}.cls-2{fill:#c29968}.cls-3{fill:#803a17}.cls-4{fill:#cdc9bf}.cls-5{fill:#fff}.cls-6{fill:#cc0616}
        </style>
    </defs>
    <g id="Group_3449" data-name="Group 3449" transform="translate(-1130.248 -1416.456)">
        <g id="Group_150" data-name="Group 150" transform="translate(1130.248 1416.456)">
            <g id="Group_149" data-name="Group 149">
                <path id="Path_1378" d="M424.193 658.126a47.917 47.917 0 0 0 9.931.915 47.359 47.359 0 0 0 9.947-.915c3.192-.713 6.463-1.783 8.7-4.05a50.426 50.426 0 0 0 10.612-16.85 91.319 91.319 0 0 0 5.2-19.474.3.3 0 0 0 .017-.119 4.212 4.212 0 0 1-.779.778 10.972 10.972 0 0 1-2.009 1.167 30.252 30.252 0 0 1-4.342 1.546 76.75 76.75 0 0 1-9.023 1.783 141.331 141.331 0 0 1-36.616 0c-2.38-.347-4.761-.761-7.112-1.3.116 1.849 1.54 22.5 12.364 35.675 1.017.333 2.074.609 3.11.844z" class="cls-1" data-name="Path 1378" transform="translate(-374.613 -591.134)"/>
                <path id="Path_1379" d="M441.4 613.388a2.31 2.31 0 0 1 .226.243 1.51 1.51 0 0 0-.226-.243z" class="cls-2" data-name="Path 1379" transform="translate(-347.236 -594.69)"/>
                <path id="Path_1380" d="M441.717 613.806a1.437 1.437 0 0 0-.13-.2 1.437 1.437 0 0 1 .13.2z" class="cls-2" data-name="Path 1380" transform="translate(-347.081 -594.51)"/>
                <path id="Path_1381" d="M408.677 620.633c2.316.4 4.633.73 6.981.956a208.472 208.472 0 0 0 36.891 0 82.54 82.54 0 0 0 9.12-1.329 32.53 32.53 0 0 0 4.44-1.182 11.454 11.454 0 0 0 2.056-.981 2.549 2.549 0 0 0 1.312-1.571 3.616 3.616 0 0 0-.017-.428c-.031-.066-.031-.147-.064-.211 0-.033-.017-.057-.017-.09a3.175 3.175 0 0 0-1.183-1.207 10.669 10.669 0 0 0-2.056-1.02 30.556 30.556 0 0 0-4.44-1.272 66.015 66.015 0 0 0-4.357-.819 59.294 59.294 0 0 1-7.354 1.6A97.6 97.6 0 0 1 437.4 614.2a94.047 94.047 0 0 1-12.619-.583 63.29 63.29 0 0 1-2.755-.382c-9.543 3.274-12.555 6.345-13.349 7.398z" class="cls-2" data-name="Path 1381" transform="translate(-374.649 -596.291)"/>
                <path id="Path_1382" d="M429.191 612.558a195.23 195.23 0 0 0 12.474-.606c1.119-.1 2.236-.2 3.37-.325-.211-.015-.421-.048-.616-.072a167.453 167.453 0 0 0-18.485-.908h-.1a122.447 122.447 0 0 0-7.419 1.871c3.598.113 7.185.137 10.776.04z" class="cls-2" data-name="Path 1382" transform="translate(-366.488 -596.988)"/>
                <path id="Path_1383" d="M441.768 614.322a.278.278 0 0 1-.031.154.054.054 0 0 0 .015-.033.352.352 0 0 0 .016-.121z" class="cls-2" data-name="Path 1383" transform="translate(-346.956 -593.908)"/>
                <path id="Path_1384" d="M513.519 632.65a18.64 18.64 0 0 0-7.34-15.253 18.082 18.082 0 0 0-15.876-3.007c-.048-1.36-.1-2.72-.195-4.079a1.314 1.314 0 0 0 .211-.649v-.026a1.715 1.715 0 0 0-.729-1.262 5.857 5.857 0 0 0-1.15-.722 15.358 15.358 0 0 0-2.462-.939 44.436 44.436 0 0 0-5.1-1.2c-3.433-.632-6.884-1.053-10.352-1.378-6.932-.64-13.884-.9-20.834-.923-6.967-.017-13.917.2-20.867.809-3.466.309-6.933.706-10.37 1.314a50.253 50.253 0 0 0-5.134 1.174 16.2 16.2 0 0 0-2.5.948 6.443 6.443 0 0 0-1.2.744 1.951 1.951 0 0 0-.811 1.433 1.57 1.57 0 0 0 .423 1.046 131.093 131.093 0 0 0 .485 21.692 110.639 110.639 0 0 0 1.783 11.01 53.4 53.4 0 0 0-9.155 3.313 27.227 27.227 0 0 0-9.218 6.691 12.8 12.8 0 0 0-2.738 5.419 11.006 11.006 0 0 0 .537 6.254 16.643 16.643 0 0 0 3.951 5.7 4.806 4.806 0 0 0 .325.551 30.384 30.384 0 0 0 5.719 6.406 50.8 50.8 0 0 0 14.889 8.531c10.739 4.1 22.291 5.493 33.633 5.517 11.34-.017 22.892-1.408 33.633-5.508a50.864 50.864 0 0 0 14.889-8.53 30.654 30.654 0 0 0 5.717-6.415 22.005 22.005 0 0 0 1.509-2.714c.162-.219.34-.4.5-.606a12.711 12.711 0 0 0 2.284-5.517 9.93 9.93 0 0 0-.939-5.816 17.021 17.021 0 0 0-6.092-6.489 18.438 18.438 0 0 0 4.276-2.211 19.231 19.231 0 0 0 8.298-15.308zm-43.093-27.436a100.87 100.87 0 0 1 10.335.933 46.2 46.2 0 0 1 5.055 1.093 15.972 15.972 0 0 1 2.4.873c.713.349 1.573.843 1.637 1.516-.064.72-.924 1.182-1.637 1.538-.081.042-.16.066-.241.1a9.246 9.246 0 0 0-2.043-1.29v-.34c0 .114-.015.228-.015.333a23.477 23.477 0 0 0-2.073-.827c-1.573-.535-3.161-.956-4.765-1.336-3.207-.673-6.447-1.134-9.7-1.531-4.359-.511-8.751-.737-13.139-.875 4.723-.226 9.453-.342 14.185-.187zm17.351 6.14a19.477 19.477 0 0 1-1.849.649v-1.626a9.241 9.241 0 0 1 1.849.977zm-58.583-3.3c2.154-.323 4.341-.616 6.529-.891q7.048-.375 14.095-.366c6.48-.015 12.992.164 19.455.68 3.24.261 6.465.6 9.673 1.136 1.586.276 3.19.59 4.747 1.02a20.665 20.665 0 0 1 2.2.73c-.017.551-.05 1.11-.064 1.67-.016 0-.016 0-.016.005a47.924 47.924 0 0 1-5.055 1.1 100.35 100.35 0 0 1-10.335.93c-6.919.2-13.852-.1-20.738-.573-6.9-.48-13.753-1.288-20.494-2.293-3.142-.4-6.27-.963-9.284-1.564a132.552 132.552 0 0 1 9.287-1.58zm-10.743 5.888c3.437.608 6.9 1.005 10.37 1.321 6.95.6 13.9.818 20.867.81 6.95-.033 13.9-.292 20.834-.932 3.468-.325 6.935-.746 10.352-1.369a49.345 49.345 0 0 0 4.943-1.16 174.57 174.57 0 0 1-.8 10.613 1.622 1.622 0 0 0-.224-.721 1.439 1.439 0 0 0-.13-.2.7.7 0 0 0-.114-.154 2.321 2.321 0 0 0-.226-.242 4.946 4.946 0 0 0-.551-.478 10.649 10.649 0 0 0-2.042-1.119 32.469 32.469 0 0 0-4.423-1.466 65.322 65.322 0 0 0-3.449-.744c1.312-.414 2.624-.86 3.888-1.393l-.05-.228c-2.234.478-4.487.825-6.739 1.11a85.715 85.715 0 0 0-2.8-.4 157.9 157.9 0 0 0-37.1 0c-.825.112-1.652.226-2.477.357l-.616-.1-.033.2c-2.025.316-4.034.7-6.026 1.207a29.8 29.8 0 0 0-4.409 1.457 10.885 10.885 0 0 0-2.056 1.119 3.315 3.315 0 0 0-1.15 1.327c-.357-3.3-.584-6.61-.73-9.931a49.454 49.454 0 0 0 4.891 1.12zm10.515 4.083a48.979 48.979 0 0 0 8.571 2.13c.923.147 1.83.276 2.755.382a94.086 94.086 0 0 0 12.619.583 97.621 97.621 0 0 0 12.59-1.119 59.232 59.232 0 0 0 7.354-1.6 66.02 66.02 0 0 1 4.357.82 30.566 30.566 0 0 1 4.44 1.272 10.659 10.659 0 0 1 2.056 1.02 3.175 3.175 0 0 1 1.183 1.207c0 .033.017.057.017.09.033.064.033.145.064.211s.033.145.048.224a.6.6 0 0 0-.015.163.044.044 0 0 0-.017.04 2.548 2.548 0 0 1-1.312 1.571 11.45 11.45 0 0 1-2.056.981 32.526 32.526 0 0 1-4.44 1.182 82.5 82.5 0 0 1-9.12 1.329 208.426 208.426 0 0 1-36.891 0 91.481 91.481 0 0 1-6.981-.955c-.713-.121-1.443-.228-2.156-.373a30.414 30.414 0 0 1-4.421-1.191 10.379 10.379 0 0 1-2.075-.972 3.519 3.519 0 0 1-1.117-1.044c-.033-.382-.083-.763-.13-1.151a3.036 3.036 0 0 1 1.215-1.314 10.763 10.763 0 0 1 2.056-1.02 31.376 31.376 0 0 1 4.44-1.272c2.3-.519 4.634-.888 6.966-1.189zm20.641-1.158a167.422 167.422 0 0 1 18.485.908c.195.024.4.057.616.072a170.2 170.2 0 0 1-3.37.325 194.5 194.5 0 0 1-12.474.606c-3.6.1-7.178.073-10.772-.041-.568-.024-1.136-.016-1.72-.04-3.271-.155-6.56-.4-9.817-.851l.568-.072a167.9 167.9 0 0 1 18.388-.908zm35.335 6.91a.279.279 0 0 0 .031-.154.283.283 0 0 1-.016.112.072.072 0 0 1-.016.047zm-69.534 1.433a10.9 10.9 0 0 0 2.04 1.158 31.5 31.5 0 0 0 4.423 1.557c.7.178 1.393.349 2.089.5l.276 4.335c-.566-.107-1.134-.188-1.7-.3a30.681 30.681 0 0 1-4.359-1.191 11.5 11.5 0 0 1-2.023-.972 3.8 3.8 0 0 1-.989-.891 112.597 112.597 0 0 1-.713-5.232 3.688 3.688 0 0 0 .956 1.041zm.616 5.274a10.311 10.311 0 0 0 1.992 1.167 31.053 31.053 0 0 0 4.341 1.545 61.3 61.3 0 0 0 1.911.478c2.35.544 4.732.957 7.112 1.3a141.317 141.317 0 0 0 36.616 0 76.765 76.765 0 0 0 9.023-1.783 30.254 30.254 0 0 0 4.342-1.545 10.972 10.972 0 0 0 2.009-1.167 4.224 4.224 0 0 0 .779-.777.3.3 0 0 1-.017.119 91.326 91.326 0 0 1-5.2 19.474 50.426 50.426 0 0 1-10.612 16.85c-2.237 2.268-5.508 3.337-8.7 4.05a47.359 47.359 0 0 1-9.947.915 47.923 47.923 0 0 1-9.931-.915 32.848 32.848 0 0 1-3.109-.851 13.707 13.707 0 0 1-5.592-3.2 50.009 50.009 0 0 1-10.594-16.85 90.4 90.4 0 0 1-5.217-19.474c0-.055-.017-.1-.017-.154a3.867 3.867 0 0 0 .81.823zm-6.643-19.636c.081.081.162.16.243.233a6.414 6.414 0 0 0 1.2.739 16.769 16.769 0 0 0 2.5.946l.1.026c0 12.491 1.474 25.11 5.914 36.945a49.245 49.245 0 0 0 10.691 17.4 13.527 13.527 0 0 0 4.44 2.949 26.713 26.713 0 0 0 4.973 1.562 51.982 51.982 0 0 0 20.494 0 27.255 27.255 0 0 0 4.976-1.562 13.394 13.394 0 0 0 4.423-2.942 49.307 49.307 0 0 0 10.708-17.408c4.471-11.9 5.928-24.6 5.9-37.156a.115.115 0 0 1 .05-.007 15.957 15.957 0 0 0 2.462-.95 5.372 5.372 0 0 0 1.15-.719 2.541 2.541 0 0 0 .421-.456 183.969 183.969 0 0 1-2.641 21.589 108.138 108.138 0 0 1-6.156 21.394c-2.883 6.763-6.61 13.195-11.761 18.2-2.156 2.147-5.574 3.346-9.008 4.091a60.323 60.323 0 0 1-21.532-.008c-3.435-.737-6.867-1.944-8.99-4.083-5.169-5.022-8.88-11.438-11.763-18.21a106.59 106.59 0 0 1-6.173-21.394 183.937 183.937 0 0 1-2.622-21.173zm83.419 10.861a10.086 10.086 0 0 1 8.747 3.06 9.377 9.377 0 0 1 2.137 9.253 10.708 10.708 0 0 1-6.48 6.658 11.064 11.064 0 0 1-8.7-.632c.454-2.543.844-5.112 1.119-7.672.112-.939.162-1.878.241-2.81a1.929 1.929 0 0 0 .325-.162 4.058 4.058 0 0 0 1.005-.884 7.584 7.584 0 0 0 1.329-2.268 6.628 6.628 0 0 0 .277-4.543zM476.613 675.2a5.288 5.288 0 0 1 .632 3.426 119.493 119.493 0 0 1-13.156 1.937c-2.883.266-5.8.437-8.716.542a50.446 50.446 0 0 0 6.044-.913 32.212 32.212 0 0 0 5.8-1.841 16.159 16.159 0 0 0 5.379-3.6c.5-.535.989-1.086 1.457-1.628a8.488 8.488 0 0 1 .779.388 5.045 5.045 0 0 1 1.781 1.689zm-33.1 5.857c-.388-.017-.794-.017-1.182-.041a128.505 128.505 0 0 1-19.3-2.31 5.467 5.467 0 0 1 .485-3.256 5.113 5.113 0 0 1 2.122-1.952c.357.414.73.842 1.117 1.239a16.153 16.153 0 0 0 5.379 3.613 32.652 32.652 0 0 0 5.8 1.841 48.558 48.558 0 0 0 5.581.869zm-49.753-17.19a7.991 7.991 0 0 1-.713-4.585 10.418 10.418 0 0 1 1.911-4.5 26.369 26.369 0 0 1 8-6.941 63.13 63.13 0 0 1 8.571-4.271 85.192 85.192 0 0 0 3.223 11.2 59.046 59.046 0 0 0 8.44 15.789 8.238 8.238 0 0 0-.68.873 7.635 7.635 0 0 0-1.264 3.446 6.885 6.885 0 0 0 .568 3.343c.048.107.112.187.16.292-.388-.081-.792-.145-1.182-.235-7.031-1.514-14-3.741-20.008-7.354-2.941-1.836-5.663-4.154-7.024-7.053zm103.021 12.353a53.713 53.713 0 0 1-14.727 7.169 89.4 89.4 0 0 1-16.087 3.5 119.665 119.665 0 0 1-16.524.979 120.949 120.949 0 0 1-16.526-.972 89.092 89.092 0 0 1-16.087-3.5 53.562 53.562 0 0 1-14.727-7.178c-.4-.283-.809-.59-1.2-.9a52.97 52.97 0 0 0 8.084 3.905 88.245 88.245 0 0 0 10.822 3.37 126.128 126.128 0 0 0 22.293 3.093c14.953.6 30.117-.7 44.438-5.581a60.394 60.394 0 0 0 10.368-4.642 41.417 41.417 0 0 0 3.923-2.648 34.412 34.412 0 0 1-4.048 3.409zm9.056-19.06a8.679 8.679 0 0 1 .357 5.006 10.38 10.38 0 0 1-2.316 4.431 25.98 25.98 0 0 1-8.426 6.191 63.075 63.075 0 0 1-10.026 3.863c-2.367.68-4.765 1.248-7.18 1.766.05-.13.132-.243.18-.38a6.665 6.665 0 0 0 .421-3.558 8.173 8.173 0 0 0-1.573-3.49 7.713 7.713 0 0 0-.776-.877 59.5 59.5 0 0 0 8.1-15.35c.031-.1.064-.195.1-.281.033-.009.1-.016.13-.026a5.687 5.687 0 0 0 1.215-.382 6.67 6.67 0 0 0 2.057-1.373 7.48 7.48 0 0 0 1.343-1.8.033.033 0 0 0 .017-.033 20.046 20.046 0 0 0 11.164-.583 17.413 17.413 0 0 1 5.215 6.879zm-16.829-10.86l-1.669-.713a87.27 87.27 0 0 0 1-4.625 10.134 10.134 0 0 0 3.466 2.13 11.27 11.27 0 0 0 11.715-2.746 11.552 11.552 0 0 0 3-5.6 12.2 12.2 0 0 0-3.5-11.445 11.519 11.519 0 0 0-11.243-2.683l-.6.2.162.551v.015l.033.121.031.05a5.32 5.32 0 0 1 .4 4.447 7.788 7.788 0 0 1-1.036 2.187 3.537 3.537 0 0 1-.809.851.2.2 0 0 1-.048.031 134.761 134.761 0 0 0 .388-14.663 17.583 17.583 0 0 1 15.212 3.817 17.039 17.039 0 0 1 5.864 14.321 16.527 16.527 0 0 1-7.906 12.735 15.977 15.977 0 0 1-14.46 1.019z" class="cls-3" data-name="Path 1384" transform="translate(-390.16 -603.214)"/>
            </g>
        </g>
        <g id="Group_398" data-name="Group 398" transform="translate(1183.734 1479.811)">
            <path id="Path_3928" d="M482.818 684.1c-21.185-12.814-42.367 12.814-63.552 0v-42.712c21.185 12.814 42.367-12.814 63.552 0z" class="cls-4" data-name="Path 3928" transform="translate(-419.266 -637.689)"/>
            <g id="Group_397" data-name="Group 397" transform="translate(.526 .515)">
                <path id="Path_3929" d="M482.064 656.438c-12.849-7.4-25.7-.882-38.547 2.391v-17.71a57.089 57.089 0 0 1-6.252 1.262v17.711c-5.9.812-11.809.355-17.713-3.041v6.249c5.9 3.4 11.809 3.856 17.713 3.041v17.711a56.657 56.657 0 0 0 6.252-1.264v-17.71c12.849-3.275 25.7-9.791 38.547-2.393z" class="cls-5" data-name="Path 3929" transform="translate(-419.552 -635.331)"/>
                <path id="Path_3930" d="M437.264 660.9v-17.709c-5.9.814-11.807.355-17.71-3.04v17.712c5.903 3.395 11.805 3.852 17.71 3.037z" class="cls-6" data-name="Path 3930" transform="translate(-419.55 -636.141)"/>
                <path id="Path_3931" d="M432.593 661.467c12.849-3.273 25.7-9.789 38.547-2.391v-17.711c-12.849-7.4-25.7-.882-38.547 2.393z" class="cls-6" data-name="Path 3931" transform="translate(-408.628 -637.969)"/>
                <path id="Path_3932" d="M432.593 656.8v17.71c12.849-3.273 25.7-9.789 38.547-2.391V654.4c-12.849-7.394-25.698-.877-38.547 2.4z" class="cls-6" data-name="Path 3932" transform="translate(-408.628 -627.046)"/>
                <path id="Path_3933" d="M437.264 656.232c-5.9.814-11.807.355-17.71-3.04V670.9c5.9 3.394 11.805 3.852 17.71 3.039z" class="cls-6" data-name="Path 3933" transform="translate(-419.55 -625.217)"/>
            </g>
        </g>
    </g>
</svg>
