<svg xmlns="http://www.w3.org/2000/svg" id="Group_174" width="123.354" height="88.548" data-name="Group 174" viewBox="0 0 123.354 88.548">
    <defs>
        <style>
            .cls-1{fill:#3b1008}.cls-2{fill:#fff}.cls-3{fill:#803a17}.cls-4{fill:#98cba6}
        </style>
    </defs>
    <g id="Group_173" data-name="Group 173">
        <path id="Path_1473" d="M246.117 193.23a25.586 25.586 0 0 1-3.644 1.312c-1.393.375-2.8.682-4.228.956a93.8 93.8 0 0 1-18.628 1.768 89.045 89.045 0 0 1-22.081-2.5 28.973 28.973 0 0 0 9.477 14.79c.956.307 1.928.568 2.9.779a54.772 54.772 0 0 0 19.861 0c3.192-.713 6.48-1.784 8.7-4.052a47.771 47.771 0 0 0 9.429-14.124.414.414 0 0 1-.1.079 8.061 8.061 0 0 1-1.686.992z" class="cls-1" data-name="Path 1473" transform="translate(-160.321 -143.352)"/>
        <path id="Path_1474" d="M228.865 173.245a1.73 1.73 0 0 1 .5 1.149c.017-.176.033-.357.048-.533a3.7 3.7 0 0 0-.548-.616z" class="cls-2" data-name="Path 1474" transform="translate(-134.077 -159.199)"/>
        <path id="Path_1475" d="M229.233 173.967a1.684 1.684 0 0 1-.21.665 1.627 1.627 0 0 0 .162-.228c.015-.145.032-.304.048-.437z" class="cls-2" data-name="Path 1475" transform="translate(-133.944 -158.594)"/>
        <path id="Path_1476" d="M229.332 173.879v.031h.017c0-.016-.017-.016-.017-.031z" class="cls-2" data-name="Path 1476" transform="translate(-133.686 -158.668)"/>
        <path id="Path_1477" d="M211.765 171.876c6.884.47 13.817.8 20.734.584 1.459-.081 2.915-.164 4.359-.276-2.124-.373-4.28-.665-6.432-.908a168.55 168.55 0 0 0-18.321-.906 92.539 92.539 0 0 0-4.925 1.134c1.52.144 3.045.277 4.585.372z" class="cls-2" data-name="Path 1477" transform="translate(-152.242 -161.607)"/>
        <path id="Path_1478" d="M257.4 175.738a2.505 2.505 0 0 0-1.312-1.766 10.887 10.887 0 0 0-2.089-1.02 32.912 32.912 0 0 0-4.488-1.279c-.048-.017-.1-.017-.16-.033-2.284.34-4.585.616-6.886.842-6.919.632-13.884.891-20.832.924-4.344 0-8.668-.1-13.009-.309a74.384 74.384 0 0 0-5.217 2.2c2.949.373 5.928.584 8.909.73 4.164.178 8.328.195 12.491.081a178.52 178.52 0 0 0 12.474-.616 99.061 99.061 0 0 0 12.36-1.685l.05.228a52.179 52.179 0 0 1-12.248 3.3 99.592 99.592 0 0 1-12.586 1.119 94.5 94.5 0 0 1-12.619-.584 54.955 54.955 0 0 1-9.931-2.042 41.578 41.578 0 0 0-6.919 4.179c2.512.454 5.055.779 7.6 1.038a183.931 183.931 0 0 0 18.647.825 183.757 183.757 0 0 0 18.628-.825 84.31 84.31 0 0 0 9.218-1.345 33.146 33.146 0 0 0 4.488-1.2 12.322 12.322 0 0 0 2.073-.989 2.532 2.532 0 0 0 1.36-1.685z" class="cls-2" data-name="Path 1478" transform="translate(-162.115 -160.543)"/>
        <path id="Path_1479" d="M300.632 195.037a18.686 18.686 0 0 0-7.321-15.26 18.162 18.162 0 0 0-15.892-3c-.048-1.36-.1-2.722-.195-4.083a1.135 1.135 0 0 0 .211-.649v-.015a1.791 1.791 0 0 0-.73-1.281 5.7 5.7 0 0 0-1.15-.711 15.24 15.24 0 0 0-2.461-.941 47.378 47.378 0 0 0-5.105-1.2c-3.416-.63-6.884-1.053-10.35-1.376-6.933-.647-13.884-.906-20.832-.923-6.968-.017-13.917.21-20.867.809-3.466.309-6.932.7-10.368 1.312a43.242 43.242 0 0 0-5.118 1.184 14.565 14.565 0 0 0-2.51.939 6.326 6.326 0 0 0-1.2.746 1.948 1.948 0 0 0-.809 1.441 1.556 1.556 0 0 0 .421 1.038 131.054 131.054 0 0 0 .485 21.69c.423 3.677 1 7.371 1.783 11a54.526 54.526 0 0 0-9.153 3.321 27.2 27.2 0 0 0-9.218 6.689 12.913 12.913 0 0 0-2.738 5.412 10.867 10.867 0 0 0 .551 6.252 16.214 16.214 0 0 0 3.936 5.7c.114.193.211.371.325.549a30.8 30.8 0 0 0 5.717 6.415 50.7 50.7 0 0 0 14.889 8.536c10.739 4.1 22.289 5.493 33.629 5.509 11.34-.017 22.89-1.41 33.631-5.509a50.689 50.689 0 0 0 14.887-8.536 31.183 31.183 0 0 0 5.734-6.4 23.5 23.5 0 0 0 1.492-2.72c.16-.211.34-.39.5-.616a12.473 12.473 0 0 0 2.284-5.509 9.912 9.912 0 0 0-.939-5.814 17.106 17.106 0 0 0-6.073-6.48 19.264 19.264 0 0 0 12.553-17.528zm-43.09-27.442a99.815 99.815 0 0 1 10.335.939 44.92 44.92 0 0 1 5.054 1.1 15.18 15.18 0 0 1 2.4.86c.713.356 1.571.858 1.637 1.522-.066.73-.924 1.183-1.637 1.54-.083.031-.147.064-.226.1a10.57 10.57 0 0 0-2.058-1.3v-.323c0 .114-.015.211-.015.323a24.796 24.796 0 0 0-2.075-.825 48.231 48.231 0 0 0-4.763-1.329c-3.207-.68-6.447-1.15-9.7-1.54-4.357-.5-8.749-.744-13.137-.875 4.723-.226 9.455-.34 14.185-.193zm17.349 6.14a14.323 14.323 0 0 1-1.847.649c0-.537.017-1.071 0-1.621a9.361 9.361 0 0 1 1.847.971zm-58.577-3.289c2.156-.323 4.341-.614 6.529-.889 4.7-.261 9.4-.357 14.093-.357 6.5-.017 12.992.16 19.455.663 3.24.276 6.463.616 9.67 1.149a48.322 48.322 0 0 1 4.749 1.022c.744.211 1.489.437 2.2.713-.017.566-.05 1.117-.066 1.685h-.017a44.857 44.857 0 0 1-5.054 1.084c-1.476.244-2.948.4-4.44.537a86.45 86.45 0 0 0-7.9-1.362 154.036 154.036 0 0 0-18.726-1.1c-5.12.017-10.225.228-15.31.73-1.733-.226-3.468-.47-5.184-.73-3.142-.4-6.268-.972-9.282-1.555 3.015-.619 6.14-1.169 9.283-1.591zm54.9 12.134a12.319 12.319 0 0 1-2.073.989 33.148 33.148 0 0 1-4.488 1.2 84.315 84.315 0 0 1-9.218 1.345 183.748 183.748 0 0 1-18.628.825 183.921 183.921 0 0 1-18.647-.825c-2.543-.259-5.087-.584-7.6-1.038-.533-.1-1.068-.193-1.619-.307a32.992 32.992 0 0 1-4.471-1.2 11.775 11.775 0 0 1-2.089-.989 2.508 2.508 0 0 1-1.362-1.669v-.111a2.51 2.51 0 0 1 1.312-1.766 10.906 10.906 0 0 1 2.091-1.02 32.207 32.207 0 0 1 4.227-1.215c2.431.34 4.861.632 7.29.858 2.626.226 5.234.39 7.858.5 4.341.211 8.665.309 13.009.309 6.948-.033 13.913-.292 20.832-.924 2.3-.226 4.6-.5 6.886-.842.064.017.112.017.16.033a32.9 32.9 0 0 1 4.488 1.279 10.892 10.892 0 0 1 2.089 1.02 2.505 2.505 0 0 1 1.312 1.766v.1a2.533 2.533 0 0 1-1.359 1.681zm-15.745-7.307c2.152.243 4.307.535 6.432.908-1.444.112-2.9.195-4.359.276-6.917.211-13.85-.114-20.734-.584-1.54-.1-3.063-.228-4.585-.371q-3.719-.317-7.387-.777c3.984-.244 7.968-.373 11.972-.357h.34a168.555 168.555 0 0 1 18.321.904zm17.1 5.524a1.73 1.73 0 0 0-.5-1.149 5.788 5.788 0 0 0-.763-.7 10.891 10.891 0 0 0-2.073-1.119 29.835 29.835 0 0 0-3.791-1.281c.86-.129 1.7-.243 2.543-.388a51.12 51.12 0 0 0 4.941-1.15c-.081 1.749-.176 3.5-.309 5.25-.01.18-.027.36-.043.54zm-67-4.455c.73.13 1.476.21 2.205.325a27.433 27.433 0 0 0-3.42 1.165 11 11 0 0 0-2.073 1.119 2.6 2.6 0 0 0-1.264 1.845 164.978 164.978 0 0 1-.34-5.572c1.623.471 3.26.811 4.896 1.118zm-9.071-3.095a3.056 3.056 0 0 0 .243.228 7.408 7.408 0 0 0 1.2.744 18.155 18.155 0 0 0 2.51.939.671.671 0 0 1 .081.017c0 12.491 1.474 25.127 5.914 36.952a49.592 49.592 0 0 0 10.69 17.4 13.384 13.384 0 0 0 4.44 2.949 26.406 26.406 0 0 0 4.973 1.571 51.974 51.974 0 0 0 20.492 0 27.324 27.324 0 0 0 4.975-1.571 13.026 13.026 0 0 0 4.423-2.949 49.212 49.212 0 0 0 10.708-17.4 98.747 98.747 0 0 0 5.765-30.891c-.226 2.573-1.6 17.493-4.633 26.062a2.82 2.82 0 0 0-.923-1.376 8.9 8.9 0 0 0-1.733-1.132 23.4 23.4 0 0 0-3.872-1.507 63.181 63.181 0 0 0-8.1-1.718 122.74 122.74 0 0 0-33.047 0 63.184 63.184 0 0 0-8.1 1.718c-.209.064-.421.145-.632.211a23.221 23.221 0 0 0-3.24 1.3 9.014 9.014 0 0 0-1.733 1.132 2.852 2.852 0 0 0-.923 1.428 96.644 96.644 0 0 1-3.629-15.131c-.616-3.725-1.02-7.468-1.312-11.243a2.654 2.654 0 0 0 1.2 1.8 11.659 11.659 0 0 0 2.073 1.167 31.76 31.76 0 0 0 4.454 1.573c.47.112.941.224 1.393.323 2.608.632 5.232 1.084 7.873 1.457a148.1 148.1 0 0 0 18.761 1.2 151.517 151.517 0 0 0 18.79-1.2 86.337 86.337 0 0 0 9.251-1.781 34.015 34.015 0 0 0 4.454-1.573 11.168 11.168 0 0 0 2.073-1.167 3.557 3.557 0 0 0 1.005-1.132 1.686 1.686 0 0 0 .209-.665c-.017.129-.031.292-.048.437.195-.309.259-.5.4-.568v-.031c.083-1.944.13-3.905.13-5.833 0-.017.017-.017.033-.017a16.536 16.536 0 0 0 2.461-.939 6.43 6.43 0 0 0 1.15-.73 2.927 2.927 0 0 0 .437-.452 183.241 183.241 0 0 1-2.657 21.578 106.591 106.591 0 0 1-6.154 21.4c-2.885 6.77-6.61 13.185-11.761 18.191-2.154 2.156-5.574 3.354-9.006 4.1a60.094 60.094 0 0 1-21.53 0c-3.435-.746-6.851-1.944-8.99-4.1-5.169-5.006-8.878-11.421-11.761-18.191a106.917 106.917 0 0 1-6.156-21.4 180.629 180.629 0 0 1-2.619-21.18zm68.363 41.164a47.769 47.769 0 0 1-9.429 14.124c-2.22 2.268-5.507 3.339-8.7 4.052a54.77 54.77 0 0 1-19.861 0 31.047 31.047 0 0 1-2.9-.779 14.049 14.049 0 0 1-5.814-3.273 49.893 49.893 0 0 1-10.594-16.846c-.309-.761-.568-1.54-.842-2.317a.919.919 0 0 0 .129.145 7.759 7.759 0 0 0 1.733 1.184 23.844 23.844 0 0 0 3.872 1.6c.34.1.68.193 1.02.292l1.02 4.421a89.048 89.048 0 0 0 22.081 2.5 93.8 93.8 0 0 0 18.628-1.768c4.715-.987 8.133-2.251 9.688-3.433a.252.252 0 0 1-.027.098zm2.72-5.362a1.856 1.856 0 0 1-.323.292 9.646 9.646 0 0 1-1.764 1 22.942 22.942 0 0 1-3.888 1.215 59.337 59.337 0 0 1-8.084 1.378 146.309 146.309 0 0 1-16.394.858 149.872 149.872 0 0 1-16.4-.858 63.672 63.672 0 0 1-7.45-1.231c-.211-.05-.423-.081-.632-.147a24.539 24.539 0 0 1-3.889-1.215 9.088 9.088 0 0 1-1.766-1 5.175 5.175 0 0 1-.437-.39c-.195-.535-.388-1.053-.568-1.571a2.56 2.56 0 0 1 .972-1.378 8.54 8.54 0 0 1 1.751-1.053 25.3 25.3 0 0 1 3.207-1.1c.226-.064.454-.145.682-.195a62.154 62.154 0 0 1 8.082-1.489 143.992 143.992 0 0 1 32.868 0 61.919 61.919 0 0 1 8.1 1.489 25.013 25.013 0 0 1 3.888 1.3 8.691 8.691 0 0 1 1.758 1.046 2.623 2.623 0 0 1 .97 1.347c-.225.599-.435 1.167-.679 1.702zM279.93 184.1a10.072 10.072 0 0 1 8.731 3.047 9.429 9.429 0 0 1 2.154 9.249 10.732 10.732 0 0 1-6.48 6.658 11.128 11.128 0 0 1-8.714-.616c.469-2.558.842-5.118 1.134-7.678.1-.941.145-1.88.226-2.819a.915.915 0 0 0 .325-.162 3.525 3.525 0 0 0 1-.875 7.82 7.82 0 0 0 1.345-2.27 6.7 6.7 0 0 0 .279-4.534zm-16.2 53.475a5.352 5.352 0 0 1 .632 3.436 116.872 116.872 0 0 1-13.154 1.928c-2.883.274-5.8.452-8.716.549a48.418 48.418 0 0 0 6.044-.924 30.831 30.831 0 0 0 5.8-1.828 15.836 15.836 0 0 0 5.379-3.613c.5-.518.989-1.07 1.457-1.621a7 7 0 0 1 .779.39 5.082 5.082 0 0 1 1.778 1.683zm-33.095 5.866c-.388-.017-.779-.017-1.183-.033a128.8 128.8 0 0 1-19.294-2.315 5.632 5.632 0 0 1 .487-3.256 5 5 0 0 1 2.121-1.944c.357.4.73.825 1.119 1.231a16.154 16.154 0 0 0 5.377 3.613 31.293 31.293 0 0 0 5.8 1.828 43.914 43.914 0 0 0 5.573.876zm-49.749-17.19a7.986 7.986 0 0 1-.713-4.583 10.321 10.321 0 0 1 1.911-4.5 26.656 26.656 0 0 1 8-6.952 63.809 63.809 0 0 1 8.569-4.26 86.065 86.065 0 0 0 3.223 11.2 59.157 59.157 0 0 0 8.44 15.793 6.011 6.011 0 0 0-.682.877 7.5 7.5 0 0 0-1.246 3.433 6.8 6.8 0 0 0 .549 3.337c.05.114.114.195.162.292-.388-.081-.794-.129-1.167-.226-7.046-1.507-14.012-3.743-20.021-7.356-2.942-1.837-5.664-4.155-7.025-7.055zM283.9 238.612a53.924 53.924 0 0 1-14.725 7.161 88.952 88.952 0 0 1-16.085 3.5 119.66 119.66 0 0 1-16.524.972 119.8 119.8 0 0 1-16.524-.956 89.294 89.294 0 0 1-16.085-3.516 53.911 53.911 0 0 1-14.725-7.161c-.4-.29-.81-.6-1.2-.906a53.783 53.783 0 0 0 8.084 3.9 88.854 88.854 0 0 0 10.822 3.37 125.273 125.273 0 0 0 22.291 3.095c14.951.6 30.116-.7 44.435-5.574a61.052 61.052 0 0 0 10.366-4.649 38.484 38.484 0 0 0 3.922-2.656 33.649 33.649 0 0 1-4.052 3.42zm9.056-19.066a8.715 8.715 0 0 1 .356 5.006 10.476 10.476 0 0 1-2.315 4.44 25.823 25.823 0 0 1-8.426 6.171 62.019 62.019 0 0 1-10.026 3.872c-2.365.682-4.763 1.246-7.178 1.766.05-.129.132-.244.2-.373a6.861 6.861 0 0 0 .4-3.563 8.594 8.594 0 0 0-2.349-4.374 59.36 59.36 0 0 0 8.1-15.341c.031-.1.064-.195.1-.292a.3.3 0 0 0 .129-.017 6.215 6.215 0 0 0 1.216-.373 6.576 6.576 0 0 0 2.056-1.393 7.271 7.271 0 0 0 1.343-1.8c.018 0 .018-.017.035-.033a19.762 19.762 0 0 0 11.145-.582 17.564 17.564 0 0 1 5.212 6.886zm-16.831-10.853l-1.652-.73c.357-1.522.7-3.062.987-4.616a10.654 10.654 0 0 0 3.484 2.139 11.3 11.3 0 0 0 11.7-2.755 11.448 11.448 0 0 0 3-5.59 12.175 12.175 0 0 0-3.5-11.452 11.52 11.52 0 0 0-11.25-2.689l-.6.195.162.566.033.13.033.048a5.253 5.253 0 0 1 .4 4.438 7.346 7.346 0 0 1-1.036 2.189 3.446 3.446 0 0 1-.81.858c-.017.017-.033.017-.048.033a130.332 130.332 0 0 0 .388-14.661 17.537 17.537 0 0 1 15.212 3.824 16.993 16.993 0 0 1 5.864 14.3 16.441 16.441 0 0 1-7.907 12.733 15.99 15.99 0 0 1-14.463 1.039z" class="cls-3" data-name="Path 1479" transform="translate(-177.284 -165.602)"/>
        <path id="Path_1480" d="M197.835 174.019c.794.309 1.621.568 2.431.827a54.957 54.957 0 0 0 9.931 2.042 94.5 94.5 0 0 0 12.619.584 99.59 99.59 0 0 0 12.586-1.119 52.178 52.178 0 0 0 12.248-3.3l-.05-.228a99.056 99.056 0 0 1-12.36 1.685c-4.148.357-8.312.549-12.474.616-4.162.114-8.326.1-12.491-.081-2.981-.145-5.96-.357-8.909-.73a119.774 119.774 0 0 1-3.5-.518z" class="cls-3" data-name="Path 1480" transform="translate(-160.07 -159.554)"/>
        <path id="Path_1481" d="M251.5 189.765a8.692 8.692 0 0 0-1.749-1.053 25.009 25.009 0 0 0-3.889-1.3 61.92 61.92 0 0 0-8.1-1.489 143.994 143.994 0 0 0-32.868 0 62.154 62.154 0 0 0-8.082 1.489c-.228.05-.456.13-.682.195.6 4.067 1.15 6.838 1.362 7.858a63.666 63.666 0 0 0 7.45 1.231 149.86 149.86 0 0 0 16.4.858 146.3 146.3 0 0 0 16.394-.858 59.338 59.338 0 0 0 8.084-1.378 22.943 22.943 0 0 0 3.888-1.215 9.645 9.645 0 0 0 1.764-1 1.856 1.856 0 0 0 .323-.292c.244-.535.454-1.1.68-1.7a2.623 2.623 0 0 0-.975-1.346z" class="cls-4" data-name="Path 1481" transform="translate(-161.495 -149.365)"/>
        <path id="Path_1482" d="M257.946 173.9c-.145.066-.21.259-.4.568a1.622 1.622 0 0 1-.162.228 3.557 3.557 0 0 1-1.005 1.132 11.169 11.169 0 0 1-2.073 1.167 34.022 34.022 0 0 1-4.454 1.573 86.336 86.336 0 0 1-9.251 1.781 151.52 151.52 0 0 1-18.79 1.2 148.108 148.108 0 0 1-18.761-1.2c-2.641-.373-5.265-.825-7.873-1.457a199.864 199.864 0 0 0 1.716 17.658c.211-.066.423-.147.632-.211a63.184 63.184 0 0 1 8.1-1.718 122.735 122.735 0 0 1 33.047 0 63.181 63.181 0 0 1 8.1 1.718 23.407 23.407 0 0 1 3.872 1.507 8.9 8.9 0 0 1 1.733 1.132 2.82 2.82 0 0 1 .923 1.376c3.028-8.569 4.407-23.489 4.633-26.062.017-.261.033-.391.033-.391z" class="cls-4" data-name="Path 1482" transform="translate(-162.3 -158.653)"/>
    </g>
</svg>
