<svg xmlns="http://www.w3.org/2000/svg" width="123.365" height="113.468" viewBox="0 0 123.365 113.468">
    <defs>
        <style>
            .cls-1{fill:#3b1008}.cls-2{fill:#c29968}.cls-3{fill:#803a17}.cls-4{fill:#cdc9bf}.cls-5{fill:#287924}.cls-6{fill:#fe8023}.cls-7{fill:#fff}.cls-8{fill:#140060}
        </style>
    </defs>
    <g id="Group_3448" data-name="Group 3448" transform="translate(-1284.766 -1416.456)">
        <g id="Group_152" data-name="Group 152" transform="translate(1284.766 1416.456)">
            <g id="Group_151" data-name="Group 151">
                <path id="Path_1385" d="M508.277 658.126a47.907 47.907 0 0 0 9.931.915 47.372 47.372 0 0 0 9.948-.915c3.192-.713 6.463-1.783 8.7-4.05a50.457 50.457 0 0 0 10.612-16.85 91.206 91.206 0 0 0 5.2-19.474.3.3 0 0 0 .017-.119 4.152 4.152 0 0 1-.777.778 10.977 10.977 0 0 1-2.009 1.167 30.338 30.338 0 0 1-4.343 1.546 76.83 76.83 0 0 1-9.023 1.783 141.331 141.331 0 0 1-36.616 0c-2.38-.347-4.763-.761-7.112-1.3.114 1.849 1.54 22.5 12.362 35.675 1.021.333 2.074.609 3.11.844z" class="cls-1" data-name="Path 1385" transform="translate(-458.696 -591.134)"/>
                <path id="Path_1386" d="M525.486 613.388a2.547 2.547 0 0 1 .226.243 1.6 1.6 0 0 0-.226-.243z" class="cls-2" data-name="Path 1386" transform="translate(-431.319 -594.69)"/>
                <path id="Path_1387" d="M525.8 613.806a1.447 1.447 0 0 0-.129-.2 1.447 1.447 0 0 1 .129.2z" class="cls-2" data-name="Path 1387" transform="translate(-431.164 -594.51)"/>
                <path id="Path_1388" d="M492.761 620.633c2.316.4 4.631.73 6.979.956a208.474 208.474 0 0 0 36.891 0 82.579 82.579 0 0 0 9.122-1.329 32.507 32.507 0 0 0 4.438-1.182 11.407 11.407 0 0 0 2.058-.981 2.554 2.554 0 0 0 1.312-1.571 3.629 3.629 0 0 0-.017-.428c-.031-.066-.031-.147-.064-.211 0-.033-.016-.057-.016-.09a3.187 3.187 0 0 0-1.183-1.207 10.668 10.668 0 0 0-2.056-1.02 30.627 30.627 0 0 0-4.44-1.272 66.073 66.073 0 0 0-4.359-.819 59.149 59.149 0 0 1-7.354 1.6 97.6 97.6 0 0 1-12.588 1.119 94.052 94.052 0 0 1-12.619-.583 63.548 63.548 0 0 1-2.756-.382c-9.542 3.276-12.556 6.347-13.348 7.4z" class="cls-2" data-name="Path 1388" transform="translate(-458.732 -596.291)"/>
                <path id="Path_1389" d="M513.276 612.558c4.162-.074 8.327-.266 12.474-.606 1.117-.1 2.236-.2 3.368-.325-.209-.015-.419-.048-.616-.072a167.418 167.418 0 0 0-18.483-.908h-.1a122.827 122.827 0 0 0-7.419 1.871c3.6.113 7.18.137 10.776.04z" class="cls-2" data-name="Path 1389" transform="translate(-450.572 -596.988)"/>
                <path id="Path_1390" d="M525.852 614.322a.278.278 0 0 1-.031.154.054.054 0 0 0 .015-.033.352.352 0 0 0 .016-.121z" class="cls-2" data-name="Path 1390" transform="translate(-431.039 -593.908)"/>
                <path id="Path_1391" d="M597.6 632.65a18.645 18.645 0 0 0-7.34-15.253 18.084 18.084 0 0 0-15.877-3.007c-.048-1.36-.1-2.72-.193-4.079a1.331 1.331 0 0 0 .21-.649v-.026a1.715 1.715 0 0 0-.73-1.262 5.785 5.785 0 0 0-1.148-.722 15.426 15.426 0 0 0-2.462-.939 44.524 44.524 0 0 0-5.105-1.2c-3.435-.632-6.884-1.053-10.352-1.378-6.933-.64-13.884-.9-20.834-.923-6.968-.017-13.917.2-20.869.809-3.466.309-6.932.706-10.368 1.314a50.144 50.144 0 0 0-5.134 1.174 16.129 16.129 0 0 0-2.5.948 6.521 6.521 0 0 0-1.2.744 1.951 1.951 0 0 0-.809 1.433 1.569 1.569 0 0 0 .421 1.046 131.087 131.087 0 0 0 .487 21.692 111.123 111.123 0 0 0 1.781 11.01 53.433 53.433 0 0 0-9.154 3.313 27.208 27.208 0 0 0-9.218 6.691 12.778 12.778 0 0 0-2.738 5.419 11.006 11.006 0 0 0 .535 6.254 16.65 16.65 0 0 0 3.953 5.7 4.8 4.8 0 0 0 .325.551 30.377 30.377 0 0 0 5.717 6.406 50.832 50.832 0 0 0 14.891 8.531c10.739 4.1 22.291 5.493 33.631 5.517 11.342-.017 22.892-1.408 33.635-5.508a50.83 50.83 0 0 0 14.887-8.53 30.66 30.66 0 0 0 5.719-6.415 22.289 22.289 0 0 0 1.509-2.714c.16-.219.34-.4.5-.606a12.668 12.668 0 0 0 2.284-5.517 9.931 9.931 0 0 0-.939-5.816 17.03 17.03 0 0 0-6.09-6.489 18.473 18.473 0 0 0 4.276-2.211 19.236 19.236 0 0 0 8.299-15.308zm-43.09-27.436a100.918 100.918 0 0 1 10.335.933 46.171 46.171 0 0 1 5.054 1.093 15.926 15.926 0 0 1 2.4.873c.713.349 1.573.843 1.637 1.516-.064.72-.924 1.182-1.637 1.538-.081.042-.162.066-.243.1a9.236 9.236 0 0 0-2.042-1.29v-.34c0 .114-.015.228-.015.333a23.272 23.272 0 0 0-2.075-.827c-1.573-.535-3.161-.956-4.763-1.336-3.209-.673-6.448-1.134-9.7-1.531-4.357-.511-8.749-.737-13.139-.875 4.724-.226 9.456-.342 14.188-.187zm17.349 6.14a19.249 19.249 0 0 1-1.847.649v-1.626a9.173 9.173 0 0 1 1.847.977zm-58.583-3.3c2.156-.323 4.342-.616 6.531-.891q7.046-.375 14.093-.366c6.481-.015 12.994.164 19.457.68 3.24.261 6.465.6 9.672 1.136 1.588.276 3.192.59 4.749 1.02a20.808 20.808 0 0 1 2.2.73c-.017.551-.05 1.11-.066 1.67-.016 0-.016 0-.016.005a47.891 47.891 0 0 1-5.054 1.1 100.4 100.4 0 0 1-10.335.93c-6.919.2-13.854-.1-20.738-.573-6.9-.48-13.755-1.288-20.5-2.293-3.143-.4-6.268-.963-9.284-1.564a133.368 133.368 0 0 1 9.291-1.58zm-10.741 5.888c3.436.608 6.9 1.005 10.368 1.321 6.952.6 13.9.818 20.869.81 6.95-.033 13.9-.292 20.834-.932 3.468-.325 6.934-.746 10.352-1.369a49.416 49.416 0 0 0 4.942-1.16q-.243 5.323-.794 10.613a1.6 1.6 0 0 0-.226-.721 1.423 1.423 0 0 0-.129-.2.694.694 0 0 0-.114-.154 2.522 2.522 0 0 0-.226-.242 4.951 4.951 0 0 0-.553-.478 10.635 10.635 0 0 0-2.04-1.119 32.547 32.547 0 0 0-4.423-1.466c-1.15-.283-2.3-.526-3.451-.744 1.312-.414 2.624-.86 3.889-1.393l-.049-.228c-2.235.478-4.488.825-6.739 1.11a85.715 85.715 0 0 0-2.8-.4 157.9 157.9 0 0 0-37.1 0 112.9 112.9 0 0 0-2.479.357c-.209-.033-.4-.066-.616-.1l-.033.2c-2.023.316-4.032.7-6.024 1.207a29.727 29.727 0 0 0-4.409 1.457 10.9 10.9 0 0 0-2.058 1.119 3.324 3.324 0 0 0-1.148 1.327c-.357-3.3-.584-6.61-.729-9.931a49.444 49.444 0 0 0 4.886 1.12zm10.515 4.083a48.919 48.919 0 0 0 8.569 2.13c.924.147 1.832.276 2.756.382a94.086 94.086 0 0 0 12.619.583 97.626 97.626 0 0 0 12.588-1.119 59.084 59.084 0 0 0 7.354-1.6 66.08 66.08 0 0 1 4.359.82 30.631 30.631 0 0 1 4.44 1.272 10.663 10.663 0 0 1 2.056 1.02 3.19 3.19 0 0 1 1.184 1.207c0 .033.016.057.016.09.033.064.033.145.065.211.016.072.033.145.048.224a.6.6 0 0 0-.015.163.044.044 0 0 0-.017.04 2.553 2.553 0 0 1-1.312 1.571 11.4 11.4 0 0 1-2.06.981 32.5 32.5 0 0 1-4.438 1.182 82.54 82.54 0 0 1-9.122 1.329 208.428 208.428 0 0 1-36.891 0 91.498 91.498 0 0 1-6.979-.955c-.715-.121-1.444-.228-2.156-.373a30.436 30.436 0 0 1-4.423-1.191 10.409 10.409 0 0 1-2.073-.972 3.508 3.508 0 0 1-1.119-1.044c-.033-.382-.081-.763-.129-1.151a3.024 3.024 0 0 1 1.215-1.314 10.765 10.765 0 0 1 2.056-1.02 31.311 31.311 0 0 1 4.44-1.272c2.303-.519 4.636-.888 6.969-1.189zm20.641-1.158a167.388 167.388 0 0 1 18.483.908c.2.024.406.057.616.072a169.38 169.38 0 0 1-3.369.325 194.5 194.5 0 0 1-12.474.606c-3.6.1-7.178.073-10.774-.041-.566-.024-1.134-.016-1.718-.04-3.271-.155-6.56-.4-9.817-.851l.566-.072a167.9 167.9 0 0 1 18.388-.908zm35.335 6.91a.277.277 0 0 0 .031-.154.28.28 0 0 1-.017.112.072.072 0 0 1-.014.047zm-69.536 1.433a10.92 10.92 0 0 0 2.042 1.158 31.474 31.474 0 0 0 4.421 1.557c.7.178 1.395.349 2.091.5l.276 4.335c-.568-.107-1.136-.188-1.7-.3a30.613 30.613 0 0 1-4.359-1.191 11.492 11.492 0 0 1-2.023-.972 3.768 3.768 0 0 1-.989-.891 115.375 115.375 0 0 1-.715-5.232 3.689 3.689 0 0 0 .956 1.041zm.616 5.274a10.318 10.318 0 0 0 1.992 1.167 31.158 31.158 0 0 0 4.342 1.545 61.3 61.3 0 0 0 1.911.478c2.349.544 4.732.957 7.112 1.3a141.317 141.317 0 0 0 36.616 0 76.843 76.843 0 0 0 9.021-1.774 30.337 30.337 0 0 0 4.342-1.545 10.976 10.976 0 0 0 2.009-1.167 4.161 4.161 0 0 0 .777-.777.3.3 0 0 1-.017.119 91.207 91.207 0 0 1-5.2 19.474 50.457 50.457 0 0 1-10.612 16.85c-2.237 2.268-5.508 3.337-8.7 4.05a47.372 47.372 0 0 1-9.948.915 47.914 47.914 0 0 1-9.931-.915 33.052 33.052 0 0 1-3.111-.851 13.713 13.713 0 0 1-5.59-3.2 49.979 49.979 0 0 1-10.594-16.85 90.186 90.186 0 0 1-5.217-19.474c0-.055-.017-.1-.017-.154a3.82 3.82 0 0 0 .815.814zm-6.641-19.636c.081.081.16.16.241.233a6.491 6.491 0 0 0 1.2.739 16.692 16.692 0 0 0 2.5.946l.1.026c0 12.491 1.476 25.11 5.915 36.945a49.243 49.243 0 0 0 10.692 17.4 13.527 13.527 0 0 0 4.44 2.949 26.707 26.707 0 0 0 4.972 1.562 51.982 51.982 0 0 0 20.494 0 27.281 27.281 0 0 0 4.974-1.562 13.4 13.4 0 0 0 4.423-2.942 49.282 49.282 0 0 0 10.708-17.408c4.471-11.9 5.93-24.6 5.9-37.156a.115.115 0 0 1 .05-.007 16.032 16.032 0 0 0 2.462-.95 5.311 5.311 0 0 0 1.148-.719 2.477 2.477 0 0 0 .423-.456 183.985 183.985 0 0 1-2.643 21.589 107.994 107.994 0 0 1-6.154 21.394c-2.885 6.763-6.61 13.195-11.763 18.2-2.154 2.147-5.574 3.346-9.006 4.091a60.324 60.324 0 0 1-21.541 0c-3.435-.737-6.869-1.944-8.99-4.083-5.171-5.022-8.88-11.438-11.763-18.21a106.588 106.588 0 0 1-6.173-21.394 183.5 183.5 0 0 1-2.609-21.181zm83.417 10.855a10.084 10.084 0 0 1 8.747 3.06 9.379 9.379 0 0 1 2.139 9.253 10.713 10.713 0 0 1-6.48 6.658 11.064 11.064 0 0 1-8.7-.632c.452-2.543.842-5.112 1.117-7.672.114-.939.164-1.878.242-2.81a1.923 1.923 0 0 0 .325-.162 4.086 4.086 0 0 0 1-.884 7.545 7.545 0 0 0 1.329-2.268 6.606 6.606 0 0 0 .281-4.537zM560.7 675.2a5.3 5.3 0 0 1 .632 3.426 119.563 119.563 0 0 1-13.156 1.937c-2.883.266-5.8.437-8.716.542a50.5 50.5 0 0 0 6.044-.913 32.215 32.215 0 0 0 5.8-1.841 16.155 16.155 0 0 0 5.377-3.6c.5-.535.989-1.086 1.459-1.628a8.469 8.469 0 0 1 .777.388 5.036 5.036 0 0 1 1.783 1.689zm-33.1 5.857c-.388-.017-.8-.017-1.184-.041a128.566 128.566 0 0 1-19.3-2.31 5.484 5.484 0 0 1 .487-3.256 5.11 5.11 0 0 1 2.121-1.952c.356.414.73.842 1.119 1.239a16.145 16.145 0 0 0 5.377 3.613 32.653 32.653 0 0 0 5.8 1.841 48.588 48.588 0 0 0 5.58.869zm-49.753-17.19a7.976 7.976 0 0 1-.713-4.585 10.419 10.419 0 0 1 1.911-4.5 26.371 26.371 0 0 1 8-6.941 63 63 0 0 1 8.569-4.271 85.436 85.436 0 0 0 3.223 11.2 59.048 59.048 0 0 0 8.442 15.789 8.5 8.5 0 0 0-.682.873 7.631 7.631 0 0 0-1.263 3.446 6.885 6.885 0 0 0 .566 3.343c.048.107.114.187.162.292-.388-.081-.794-.145-1.183-.235-7.031-1.514-14-3.741-20.007-7.354-2.943-1.836-5.666-4.154-7.026-7.053zm103.022 12.353a53.713 53.713 0 0 1-14.727 7.169 89.437 89.437 0 0 1-16.087 3.5 119.672 119.672 0 0 1-16.526.979A120.937 120.937 0 0 1 517 686.9a89.093 89.093 0 0 1-16.087-3.5 53.567 53.567 0 0 1-14.727-7.178c-.4-.283-.81-.59-1.2-.9a53.045 53.045 0 0 0 8.084 3.905 88.267 88.267 0 0 0 10.83 3.373 126.131 126.131 0 0 0 22.291 3.093c14.955.6 30.119-.7 44.44-5.581A60.4 60.4 0 0 0 581 675.47a41.629 41.629 0 0 0 3.922-2.648 34.4 34.4 0 0 1-4.054 3.402zm9.056-19.06a8.691 8.691 0 0 1 .357 5.006 10.381 10.381 0 0 1-2.315 4.431 25.987 25.987 0 0 1-8.427 6.191 63.014 63.014 0 0 1-10.026 3.863c-2.365.68-4.765 1.248-7.178 1.766.05-.13.13-.243.178-.38a6.664 6.664 0 0 0 .423-3.558 8.193 8.193 0 0 0-1.573-3.49 7.914 7.914 0 0 0-.777-.877 59.511 59.511 0 0 0 8.1-15.35c.031-.1.064-.195.1-.281.033-.009.1-.016.129-.026a5.672 5.672 0 0 0 1.216-.382 6.669 6.669 0 0 0 2.058-1.376 7.529 7.529 0 0 0 1.343-1.8.033.033 0 0 0 .017-.033 20.04 20.04 0 0 0 11.162-.583 17.4 17.4 0 0 1 5.212 6.882zm-16.834-10.86l-1.669-.713a87.27 87.27 0 0 0 1-4.625 10.144 10.144 0 0 0 3.468 2.13 11.272 11.272 0 0 0 11.715-2.746 11.582 11.582 0 0 0 3-5.6 12.2 12.2 0 0 0-3.5-11.445 11.52 11.52 0 0 0-11.243-2.683l-.6.2.164.551v.015l.033.121.031.05a5.334 5.334 0 0 1 .4 4.447 7.885 7.885 0 0 1-1.036 2.187 3.547 3.547 0 0 1-.81.851.2.2 0 0 1-.048.031 134.3 134.3 0 0 0 .388-14.663 17.588 17.588 0 0 1 15.214 3.817 17.045 17.045 0 0 1 5.864 14.321 16.524 16.524 0 0 1-7.907 12.735 15.976 15.976 0 0 1-14.464 1.019z" class="cls-3" data-name="Path 1391" transform="translate(-474.243 -603.214)"/>
            </g>
        </g>
        <g id="Group_400" data-name="Group 400" transform="translate(1339.746 1479.811)">
            <path id="Path_3934" d="M567.714 684.1c-21.185-12.814-42.367 12.814-63.552 0v-42.712c21.185 12.814 42.367-12.814 63.552 0z" class="cls-4" data-name="Path 3934" transform="translate(-504.162 -637.689)"/>
            <g id="Group_399" data-name="Group 399" transform="translate(.527 .511)">
                <path id="Path_3935" d="M566.965 670.456c-20.839-12.005-41.674 12.592-62.514.614v-14.064c20.839 11.976 41.675-12.62 62.514-.614z" class="cls-5" data-name="Path 3935" transform="translate(-504.447 -625.38)"/>
                <path id="Path_3936" d="M566.965 655.434c-20.839-12.005-41.674 12.59-62.514.614V641.98c20.839 11.978 41.675-12.619 62.514-.614z" class="cls-6" data-name="Path 3936" transform="translate(-504.447 -637.967)"/>
                <path id="Path_3937" d="M566.966 662.567c-20.839-12.007-41.678 12.594-62.517.61v-13.543c20.839 11.983 41.678-12.617 62.517-.61z" class="cls-7" data-name="Path 3937" transform="translate(-504.449 -631.553)"/>
                <path id="Path_3938" d="M529.754 651.638c-.413-3.034-3.291-4.418-6.428-3.043s-5.348 4.842-4.936 7.866 3.291 4.418 6.432 3.043 5.343-4.843 4.932-7.866zm-.678 1.307a.405.405 0 0 0-.316.334.207.207 0 0 0 .237.254c-.022.121-.051.246-.079.369-.873-.04-1.748-.07-2.621-.1-.413.042-.829.085-1.242.129.007-.037.015-.075.018-.112q.628-.146 1.257-.289c.919-.323 1.838-.641 2.757-.948-.001.118-.008.243-.012.362zm-10 2.209a.412.412 0 0 0 .316-.335.209.209 0 0 0-.241-.254c.022-.121.051-.246.079-.369q1.309.061 2.62.1l1.246-.132a1.063 1.063 0 0 0-.018.112c-.419.1-.84.195-1.259.292-.919.322-1.836.639-2.753.946a3.952 3.952 0 0 1 .005-.361zm.075 1.286a.4.4 0 0 0 .241-.388.215.215 0 0 0-.316-.158 5.874 5.874 0 0 1-.009-.351q1.376-.311 2.753-.651.631-.232 1.262-.467v.055a.2.2 0 0 0 .011.048l-1.246.617q-1.309.819-2.62 1.619c-.027-.106-.055-.214-.08-.324zm7.183-3.234l-1.261.465v-.053a.2.2 0 0 0-.011-.05c.413-.206.829-.41 1.242-.614q1.309-.821 2.621-1.621c.028.107.057.217.079.327a.392.392 0 0 0-.237.386.212.212 0 0 0 .312.158c.008.116.015.235.015.351q-1.386.311-2.764.65zm2.471-2.206c.037.1.075.2.108.309-.9.443-1.8.9-2.7 1.356q-.6.383-1.191.768c-.015-.029-.033-.057-.048-.086l1.138-.9q1.155-1.1 2.308-2.181a2.883 2.883 0 0 1 .169.266.362.362 0 0 0-.147.414c.058.124.22.148.363.054zm-.983-.941a.285.285 0 0 0 .391-.057 1.853 1.853 0 0 1 .189.246q-1.227.976-2.457 1.968c-.349.34-.7.68-1.049 1.022a.571.571 0 0 0-.064-.068l.952-1.116 1.841-2.6c.083.061.165.123.243.191a.31.31 0 0 0-.046.41zm-.873-.619a.339.339 0 0 0 .4-.163c.09.051.176.106.263.167q-1.028 1.218-2.053 2.45c-.278.4-.557.8-.832 1.2-.029-.013-.055-.029-.086-.04q.356-.631.709-1.263.626-1.417 1.246-2.832c.1.029.2.064.3.1-.096.153-.072.32.053.377zm-1.07-.3a.4.4 0 0 0 .371-.257 3 3 0 0 1 .314.072l-1.507 2.762-.553 1.3a.92.92 0 0 0-.1-.008l.415-1.323q.281-1.434.564-2.867c.114-.005.23 0 .344 0-.059.16.01.301.153.318zm-1.439-.2a.2.2 0 0 0 .248.237.419.419 0 0 0 .32-.335c.118-.013.233-.02.347-.024q-.427 1.439-.858 2.878l-.239 1.316c-.04.005-.072.007-.112.015l.09-1.286-.151-2.707c.115-.034.242-.07.356-.096zm-.987.61a.416.416 0 0 0 .252-.388c.114-.044.237-.084.351-.121l-.147 2.8c.03.412.057.825.087 1.237l-.053.018c-.018.008-.04.022-.057.031-.081-.389-.162-.781-.241-1.17q-.43-1.18-.858-2.363c.114-.064.23-.125.347-.184a.211.211 0 0 0 .32.138zm-1.191.678a.369.369 0 0 0 .158-.415c.11-.07.226-.138.34-.2l.568 2.527.408 1.069-.1.075-.557-.968q-.752-.929-1.5-1.862c.1-.086.2-.175.312-.259.067.116.229.134.372.031zm-1.066.936a.312.312 0 0 0 .053-.412c.1-.1.2-.188.305-.278q.62 1.045 1.242 2.086l.709.836c-.028.029-.06.061-.088.092-.277-.233-.553-.469-.831-.7q-1.025-.612-2.053-1.231c.09-.112.173-.217.267-.32a.287.287 0 0 0 .4-.075zm-.873 1.128a.264.264 0 0 0-.046-.382c.072-.11.158-.222.239-.333q.921.761 1.841 1.509l.956.544c-.022.033-.046.07-.068.107l-1.047-.392c-.82-.171-1.641-.345-2.459-.525.057-.12.121-.241.189-.357a.348.348 0 0 0 .397-.173zm-.621 1.248c.061-.162 0-.307-.147-.331a7.34 7.34 0 0 1 .169-.362q1.152.425 2.308.831l1.138.213a1.29 1.29 0 0 0-.04.114l-1.2-.053c-.9.079-1.8.154-2.7.219.033-.127.068-.248.1-.371a.386.386 0 0 0 .37-.262zm-.366 3.563a3.524 3.524 0 0 1-.1-.311q1.351-.667 2.7-1.356c.4-.253.8-.511 1.195-.768a.641.641 0 0 0 .044.086l-1.138.9q-1.155 1.1-2.308 2.181a2.969 2.969 0 0 1-.169-.267.357.357 0 0 0 .147-.413c-.061-.129-.226-.155-.369-.055zm.987.941a.286.286 0 0 0-.4.059 2.635 2.635 0 0 1-.189-.246q1.227-.976 2.459-1.97l1.047-1.023a.8.8 0 0 0 .068.07q-.477.56-.956 1.115l-1.841 2.6a3 3 0 0 1-.239-.191.312.312 0 0 0 .053-.416zm.873.619a.337.337 0 0 0-.4.164c-.09-.051-.177-.108-.267-.165q1.029-1.221 2.053-2.45c.277-.4.557-.8.834-1.209a.294.294 0 0 0 .084.04q-.353.634-.709 1.264-.62 1.42-1.242 2.832c-.1-.027-.2-.062-.305-.1.1-.152.075-.321-.044-.378zm1.066.3a.4.4 0 0 0-.37.259 3.166 3.166 0 0 1-.312-.073q.753-1.378 1.5-2.76l.557-1.3a.928.928 0 0 0 .1.009c-.136.441-.276.882-.412 1.323l-.568 2.869h-.34c.058-.171-.01-.312-.154-.331zm1.443.2a.206.206 0 0 0-.252-.237.417.417 0 0 0-.32.333 4.672 4.672 0 0 1-.347.028q.43-1.439.858-2.88.119-.659.241-1.318a1.042 1.042 0 0 0 .11-.013l-.087 1.284q.075 1.353.147 2.709c-.116.031-.235.065-.349.09zm.983-.61a.411.411 0 0 0-.248.388 8.215 8.215 0 0 1-.355.119l.151-2.8-.09-1.237a.287.287 0 0 0 .054-.023.413.413 0 0 0 .059-.029l.239 1.171q.43 1.18.858 2.361c-.114.064-.23.127-.347.184a.211.211 0 0 0-.32-.138zm1.191-.68a.366.366 0 0 0-.154.414c-.114.075-.23.143-.344.208l-.564-2.527c-.136-.356-.276-.713-.412-1.07a6.56 6.56 0 0 0 .1-.079c.186.325.369.649.553.974q.755.926 1.507 1.858c-.1.088-.208.177-.314.261-.066-.127-.226-.144-.371-.043zm1.07-.934a.313.313 0 0 0-.057.412c-.1.094-.2.187-.3.277-.415-.7-.829-1.393-1.246-2.088-.235-.279-.472-.557-.709-.836a.843.843 0 0 0 .09-.09c.276.235.551.469.829.7q1.025.612 2.053 1.233a9.056 9.056 0 0 1-.263.318.288.288 0 0 0-.397.071zm.873-1.13a.263.263 0 0 0 .046.382c-.076.114-.16.224-.243.333q-.921-.758-1.841-1.507c-.32-.18-.636-.362-.956-.544.022-.035.048-.07.068-.108l1.049.4c.818.169 1.639.344 2.457.524a5.126 5.126 0 0 1-.189.358.338.338 0 0 0-.391.159zm.617-1.244a.225.225 0 0 0 .147.329 6.525 6.525 0 0 1-.169.362q-1.152-.425-2.308-.829c-.377-.073-.755-.143-1.134-.215.015-.037.026-.075.04-.114.4.017.8.033 1.195.053.9-.079 1.8-.154 2.7-.217-.029.123-.068.248-.1.368a.392.392 0 0 0-.37.26z" class="cls-8" data-name="Path 3938" transform="translate(-492.813 -629.51)"/>
            </g>
        </g>
    </g>
</svg>
