<svg xmlns="http://www.w3.org/2000/svg" width="138.813" height="105.044" viewBox="0 0 138.813 105.044">
    <defs>
        <style>
            .cls-1{fill:#3b1008}.cls-2{fill:#c29968}.cls-3{fill:#803a17}.cls-4{fill:#b48a28}.cls-5{fill:#d5af49}.cls-6{fill:#815c18}.cls-7{fill:#100e0f}.cls-8{fill:#e1bd67}.cls-10,.cls-12,.cls-8,.cls-9{fill-rule:evenodd}.cls-9{fill:#f4d67d}.cls-10{fill:#9f3e0d}.cls-11{fill:#cb6834}.cls-12{fill:#67280a}
        </style>
    </defs>
    <g id="Group_3457" data-name="Group 3457" transform="translate(-837.889 -1859.771)">
        <g id="Group_18" data-name="Group 18" transform="translate(837.889 1859.771)">
            <g id="Group_17" data-name="Group 17">
                <path id="Path_447" d="M256.026 1311.6a47.908 47.908 0 0 0 9.931.915 47.372 47.372 0 0 0 9.947-.915c3.192-.713 6.463-1.783 8.7-4.05a50.455 50.455 0 0 0 10.613-16.85 91.207 91.207 0 0 0 5.2-19.474.3.3 0 0 0 .017-.119 4.154 4.154 0 0 1-.777.777 10.971 10.971 0 0 1-2.009 1.167 30.391 30.391 0 0 1-4.342 1.545 76.866 76.866 0 0 1-9.023 1.783 141.359 141.359 0 0 1-36.615 0c-2.38-.348-4.763-.761-7.112-1.3.114 1.849 1.54 22.5 12.362 35.675 1.019.337 2.072.613 3.108.846z" class="cls-1" data-name="Path 447" transform="translate(-206.445 -1244.611)"/>
                <path id="Path_448" d="M273.235 1266.864a2.448 2.448 0 0 1 .226.242 1.588 1.588 0 0 0-.226-.242z" class="cls-2" data-name="Path 448" transform="translate(-179.068 -1248.167)"/>
                <path id="Path_449" d="M273.549 1267.283a1.58 1.58 0 0 0-.129-.2 1.58 1.58 0 0 1 .129.2z" class="cls-2" data-name="Path 449" transform="translate(-178.913 -1247.986)"/>
                <path id="Path_450" d="M240.51 1274.109c2.315.4 4.631.729 6.981.956a177.068 177.068 0 0 0 18.437.817 177.528 177.528 0 0 0 18.452-.817 82.574 82.574 0 0 0 9.122-1.329 32.478 32.478 0 0 0 4.438-1.181 11.4 11.4 0 0 0 2.058-.981 2.549 2.549 0 0 0 1.312-1.571 3.64 3.64 0 0 0-.017-.428c-.031-.066-.031-.148-.064-.212 0-.033-.017-.057-.017-.09a3.189 3.189 0 0 0-1.183-1.207 10.656 10.656 0 0 0-2.056-1.02 30.677 30.677 0 0 0-4.44-1.272 66.734 66.734 0 0 0-4.359-.819 59.119 59.119 0 0 1-7.354 1.6 97.945 97.945 0 0 1-12.588 1.119 94.037 94.037 0 0 1-12.619-.583 63.808 63.808 0 0 1-2.757-.382c-9.54 3.277-12.556 6.347-13.346 7.4z" class="cls-2" data-name="Path 450" transform="translate(-206.481 -1249.767)"/>
                <path id="Path_451" d="M261.025 1266.034a195.23 195.23 0 0 0 12.474-.606c1.117-.1 2.236-.2 3.368-.325-.209-.015-.419-.05-.616-.072a166.943 166.943 0 0 0-18.483-.908h-.1a121.793 121.793 0 0 0-7.421 1.871c3.6.113 7.182.137 10.778.04z" class="cls-2" data-name="Path 451" transform="translate(-198.321 -1250.464)"/>
                <path id="Path_452" d="M273.6 1267.8a.278.278 0 0 1-.031.154.054.054 0 0 0 .015-.033.353.353 0 0 0 .016-.121z" class="cls-2" data-name="Path 452" transform="translate(-178.788 -1247.384)"/>
                <path id="Path_453" d="M345.352 1286.126a18.646 18.646 0 0 0-7.34-15.253 18.083 18.083 0 0 0-15.876-3.006c-.05-1.36-.1-2.72-.195-4.08a1.331 1.331 0 0 0 .211-.649v-.026a1.717 1.717 0 0 0-.731-1.262 5.794 5.794 0 0 0-1.149-.722 15.446 15.446 0 0 0-2.462-.939 44.556 44.556 0 0 0-5.105-1.2c-3.433-.632-6.884-1.055-10.352-1.378-6.933-.64-13.883-.9-20.834-.923-6.967-.016-13.917.2-20.868.809-3.466.308-6.932.705-10.368 1.314a50.069 50.069 0 0 0-5.134 1.174 15.95 15.95 0 0 0-2.5.948 6.455 6.455 0 0 0-1.2.744 1.946 1.946 0 0 0-.81 1.433 1.581 1.581 0 0 0 .421 1.046 131.08 131.08 0 0 0 .487 21.692 111.133 111.133 0 0 0 1.781 11.009 53.444 53.444 0 0 0-9.153 3.314 27.2 27.2 0 0 0-9.218 6.691 12.776 12.776 0 0 0-2.738 5.419 11 11 0 0 0 .535 6.253 16.7 16.7 0 0 0 3.953 5.7 4.828 4.828 0 0 0 .325.551 30.469 30.469 0 0 0 5.717 6.406 50.832 50.832 0 0 0 14.891 8.531c10.739 4.1 22.291 5.493 33.631 5.517 11.342-.017 22.894-1.408 33.635-5.508a50.814 50.814 0 0 0 14.887-8.531 30.7 30.7 0 0 0 5.719-6.415 22.257 22.257 0 0 0 1.509-2.715c.16-.219.34-.4.5-.606a12.688 12.688 0 0 0 2.286-5.517 9.959 9.959 0 0 0-.939-5.816 17.05 17.05 0 0 0-6.092-6.489 18.472 18.472 0 0 0 4.276-2.211 19.235 19.235 0 0 0 8.3-15.305zm-43.093-27.437a100.349 100.349 0 0 1 10.335.934 46.249 46.249 0 0 1 5.056 1.093 16.039 16.039 0 0 1 2.4.873c.713.349 1.573.843 1.637 1.516-.064.72-.924 1.182-1.637 1.538-.081.042-.162.066-.243.1a9.25 9.25 0 0 0-2.042-1.29v-.34c0 .114-.015.228-.015.333a22.974 22.974 0 0 0-2.075-.827c-1.571-.535-3.159-.956-4.763-1.336-3.207-.672-6.446-1.134-9.7-1.531-4.357-.511-8.749-.737-13.137-.875 4.72-.226 9.452-.342 14.184-.187zm17.351 6.14a19.514 19.514 0 0 1-1.849.649v-1.626a9.262 9.262 0 0 1 1.849.977zm-58.585-3.295c2.156-.324 4.342-.616 6.531-.892q7.046-.375 14.095-.366c6.48-.015 12.992.163 19.455.68 3.24.261 6.465.6 9.672 1.136 1.588.276 3.192.59 4.749 1.02a20.749 20.749 0 0 1 2.2.729c-.017.551-.05 1.11-.064 1.669-.016 0-.016 0-.016.007a48.533 48.533 0 0 1-5.056 1.1 100.343 100.343 0 0 1-10.335.93c-6.919.2-13.852-.105-20.738-.573-6.9-.48-13.755-1.289-20.5-2.294-3.141-.4-6.268-.963-9.282-1.564 3.021-.616 6.149-1.17 9.289-1.581zm-10.741 5.888c3.436.608 6.9 1.005 10.368 1.321 6.952.6 13.9.818 20.868.81 6.95-.033 13.9-.292 20.834-.932 3.468-.325 6.935-.746 10.352-1.37a49.051 49.051 0 0 0 4.943-1.158q-.245 5.323-.8 10.613a1.6 1.6 0 0 0-.226-.721 1.575 1.575 0 0 0-.129-.2.729.729 0 0 0-.114-.152 2.518 2.518 0 0 0-.226-.242 4.924 4.924 0 0 0-.553-.478 10.622 10.622 0 0 0-2.04-1.119 32.556 32.556 0 0 0-4.423-1.466c-1.15-.283-2.3-.526-3.451-.745 1.312-.413 2.626-.86 3.889-1.393l-.05-.228c-2.235.478-4.487.825-6.739 1.11a85.328 85.328 0 0 0-2.8-.4 157.857 157.857 0 0 0-37.1 0c-.825.112-1.652.226-2.479.356l-.614-.1-.035.2c-2.023.316-4.032.7-6.024 1.207a29.716 29.716 0 0 0-4.409 1.457 10.872 10.872 0 0 0-2.056 1.119 3.314 3.314 0 0 0-1.15 1.327c-.357-3.3-.584-6.61-.73-9.931a50.138 50.138 0 0 0 4.894 1.115zm10.515 4.083a48.874 48.874 0 0 0 8.569 2.13c.924.147 1.832.276 2.756.383a94.119 94.119 0 0 0 12.619.583 97.969 97.969 0 0 0 12.588-1.119 59.05 59.05 0 0 0 7.354-1.6 66.08 66.08 0 0 1 4.359.82 30.612 30.612 0 0 1 4.44 1.272 10.66 10.66 0 0 1 2.056 1.02 3.19 3.19 0 0 1 1.183 1.207c0 .033.016.057.016.09.033.064.033.145.064.212s.033.145.048.224a.6.6 0 0 0-.015.164.044.044 0 0 0-.017.041 2.549 2.549 0 0 1-1.312 1.571 11.429 11.429 0 0 1-2.058.981 32.48 32.48 0 0 1-4.438 1.182 82.6 82.6 0 0 1-9.122 1.329 208.452 208.452 0 0 1-36.889 0 91.415 91.415 0 0 1-6.981-.956c-.713-.121-1.444-.228-2.156-.373a30.4 30.4 0 0 1-4.423-1.191 10.425 10.425 0 0 1-2.073-.972 3.532 3.532 0 0 1-1.119-1.044c-.033-.382-.081-.763-.129-1.151a3.025 3.025 0 0 1 1.215-1.314 10.764 10.764 0 0 1 2.056-1.02 31.289 31.289 0 0 1 4.44-1.272c2.304-.524 4.635-.895 6.97-1.197zm20.641-1.158a166.973 166.973 0 0 1 18.483.908c.2.022.406.057.616.071-1.132.121-2.251.226-3.368.326-4.148.34-8.312.532-12.474.606-3.6.1-7.178.073-10.774-.041-.566-.024-1.134-.016-1.718-.04-3.271-.154-6.56-.4-9.817-.851.195-.024.373-.05.566-.071a167.381 167.381 0 0 1 18.389-.908zm35.335 6.91a.277.277 0 0 0 .031-.154.282.282 0 0 1-.016.112.071.071 0 0 1-.015.042zm-69.533 1.433a10.889 10.889 0 0 0 2.04 1.158 31.423 31.423 0 0 0 4.423 1.557c.7.178 1.393.349 2.09.5l.276 4.333c-.568-.1-1.136-.187-1.7-.3a30.985 30.985 0 0 1-4.359-1.191 11.514 11.514 0 0 1-2.023-.972 3.8 3.8 0 0 1-.989-.891 112.597 112.597 0 0 1-.713-5.232 3.63 3.63 0 0 0 .954 1.039zm.614 5.274a10.281 10.281 0 0 0 1.994 1.167 31.026 31.026 0 0 0 4.341 1.545 61.3 61.3 0 0 0 1.911.478c2.348.544 4.732.957 7.112 1.305a141.373 141.373 0 0 0 36.615 0 76.864 76.864 0 0 0 9.023-1.783 30.31 30.31 0 0 0 4.342-1.545 10.979 10.979 0 0 0 2.009-1.167 4.155 4.155 0 0 0 .777-.777.294.294 0 0 1-.017.119 91.207 91.207 0 0 1-5.2 19.474 50.457 50.457 0 0 1-10.612 16.85c-2.236 2.267-5.508 3.337-8.7 4.05a47.37 47.37 0 0 1-9.947.915 47.923 47.923 0 0 1-9.931-.915 32.887 32.887 0 0 1-3.111-.851 13.713 13.713 0 0 1-5.59-3.2 49.983 49.983 0 0 1-10.594-16.85 90.191 90.191 0 0 1-5.217-19.474c0-.055-.017-.1-.017-.154a3.854 3.854 0 0 0 .811.814zm-6.641-19.635c.081.08.16.16.243.233a6.419 6.419 0 0 0 1.2.739 16.908 16.908 0 0 0 2.5.946l.1.026c0 12.491 1.476 25.11 5.915 36.945a49.247 49.247 0 0 0 10.692 17.4 13.529 13.529 0 0 0 4.44 2.95 26.748 26.748 0 0 0 4.973 1.562 51.984 51.984 0 0 0 20.494 0 27.308 27.308 0 0 0 4.975-1.562 13.378 13.378 0 0 0 4.423-2.942 49.313 49.313 0 0 0 10.71-17.408c4.471-11.9 5.928-24.6 5.9-37.156a.116.116 0 0 1 .05-.007 16.03 16.03 0 0 0 2.462-.95 5.321 5.321 0 0 0 1.149-.718 2.489 2.489 0 0 0 .423-.456 183.583 183.583 0 0 1-2.643 21.589 108 108 0 0 1-6.154 21.394c-2.885 6.762-6.61 13.194-11.761 18.2-2.156 2.146-5.575 3.346-9.008 4.091a60.325 60.325 0 0 1-21.532-.008c-3.435-.737-6.869-1.944-8.99-4.083-5.169-5.022-8.88-11.438-11.763-18.209a106.6 106.6 0 0 1-6.173-21.394 183.532 183.532 0 0 1-2.626-21.181zm83.417 10.855a10.09 10.09 0 0 1 8.749 3.06 9.382 9.382 0 0 1 2.137 9.253 10.713 10.713 0 0 1-6.48 6.658 11.063 11.063 0 0 1-8.7-.632 112.22 112.22 0 0 0 1.117-7.672c.114-.939.164-1.878.242-2.81a1.916 1.916 0 0 0 .325-.162 4.071 4.071 0 0 0 1-.884 7.5 7.5 0 0 0 1.329-2.267 6.607 6.607 0 0 0 .28-4.543zm-16.184 53.5a5.3 5.3 0 0 1 .632 3.425 119.525 119.525 0 0 1-13.156 1.937c-2.883.266-5.8.438-8.716.542a50.516 50.516 0 0 0 6.044-.913 32.24 32.24 0 0 0 5.8-1.841 16.129 16.129 0 0 0 5.377-3.6c.5-.535.989-1.086 1.459-1.628a8.327 8.327 0 0 1 .777.388 5.034 5.034 0 0 1 1.781 1.686zm-33.1 5.857c-.388-.017-.794-.017-1.183-.04a128.611 128.611 0 0 1-19.3-2.31 5.481 5.481 0 0 1 .487-3.256 5.109 5.109 0 0 1 2.121-1.952c.357.414.731.842 1.119 1.239a16.152 16.152 0 0 0 5.379 3.613 32.683 32.683 0 0 0 5.8 1.841 48.464 48.464 0 0 0 5.577.86zm-49.748-17.194a7.977 7.977 0 0 1-.713-4.585 10.419 10.419 0 0 1 1.911-4.5 26.371 26.371 0 0 1 8-6.941 63 63 0 0 1 8.569-4.271 85.451 85.451 0 0 0 3.223 11.2 59.057 59.057 0 0 0 8.442 15.789 8.032 8.032 0 0 0-.68.873 7.637 7.637 0 0 0-1.264 3.444 6.89 6.89 0 0 0 .566 3.345c.05.107.114.188.162.292-.388-.081-.794-.145-1.183-.235-7.031-1.515-14-3.741-20.007-7.354-2.947-1.84-5.671-4.157-7.026-7.057zm103.017 12.353a53.715 53.715 0 0 1-14.727 7.169 89.384 89.384 0 0 1-16.087 3.5 119.616 119.616 0 0 1-16.526.98 120.929 120.929 0 0 1-16.524-.972 89.052 89.052 0 0 1-16.087-3.5 53.544 53.544 0 0 1-14.727-7.177c-.4-.283-.809-.59-1.2-.9a53.016 53.016 0 0 0 8.086 3.905 88.313 88.313 0 0 0 10.822 3.37 126.1 126.1 0 0 0 22.293 3.093c14.953.6 30.117-.7 44.438-5.581a60.37 60.37 0 0 0 10.368-4.642 41.653 41.653 0 0 0 3.922-2.648 34.41 34.41 0 0 1-4.051 3.403zm9.056-19.061a8.694 8.694 0 0 1 .357 5.006 10.382 10.382 0 0 1-2.315 4.431 26 26 0 0 1-8.426 6.191 63.05 63.05 0 0 1-10.028 3.862c-2.365.68-4.763 1.248-7.178 1.766.05-.13.13-.243.18-.381a6.663 6.663 0 0 0 .421-3.558 8.194 8.194 0 0 0-1.573-3.49 7.894 7.894 0 0 0-.775-.876 59.557 59.557 0 0 0 8.1-15.35c.031-.1.064-.195.1-.281.033-.009.1-.016.13-.026a5.7 5.7 0 0 0 1.215-.382 6.675 6.675 0 0 0 2.058-1.376 7.517 7.517 0 0 0 1.343-1.8.03.03 0 0 0 .017-.031 20.045 20.045 0 0 0 11.164-.583 17.413 17.413 0 0 1 5.21 6.878zm-16.833-10.863l-1.669-.713c.373-1.54.713-3.078 1-4.626a10.155 10.155 0 0 0 3.468 2.13 11.273 11.273 0 0 0 11.715-2.746 11.566 11.566 0 0 0 3-5.6 12.2 12.2 0 0 0-3.5-11.445 11.52 11.52 0 0 0-11.243-2.683l-.6.2.164.551v.015l.033.121.031.05a5.32 5.32 0 0 1 .4 4.447 7.886 7.886 0 0 1-1.036 2.187 3.537 3.537 0 0 1-.81.851.21.21 0 0 1-.048.031 134.3 134.3 0 0 0 .39-14.663 17.586 17.586 0 0 1 15.212 3.817 17.039 17.039 0 0 1 5.864 14.321 16.528 16.528 0 0 1-7.906 12.735 15.981 15.981 0 0 1-14.465 1.02z" class="cls-3" data-name="Path 453" transform="translate(-221.993 -1256.689)"/>
            </g>
        </g>
        <g id="Group_77" data-name="Group 77" transform="translate(901.936 1918.188)">
            <path id="Path_658" d="M294.11 1315.819l-3.074-.838-1.511-.638a29.618 29.618 0 0 1-3.973-1.828c-1.8-.948-3.493-2.047-5.294-2.974a16.09 16.09 0 0 1-1.95-1.191 47.6 47.6 0 0 1-4.923-3.466 21.3 21.3 0 0 0-2.374-1.632 2.053 2.053 0 0 0-.628-.278 7.333 7.333 0 0 0-2.172-.548c-.206.05-.41-.184-.93.245a2.025 2.025 0 0 1-1.654.428 2.593 2.593 0 0 1-1.858-1.775 5.366 5.366 0 0 1-.6-2.376c0-.638.125-1.261.18-1.895a5.757 5.757 0 0 1 .875-2.222c.4-.61 1.536-1.042 2.122-.54a4.6 4.6 0 0 1 .875.968 6.655 6.655 0 0 0 2.034 1.827 6.3 6.3 0 0 0 4.432.656l2.266-.728a18.844 18.844 0 0 0 2.992-1.852c.467-.314.952-.606 1.446-.876.671-.366 1.318-.767 1.974-1.154l3.337-1.742a28.22 28.22 0 0 1 6.336-1.946 1.593 1.593 0 0 0 .187-.041 24.636 24.636 0 0 1 5.237-.781 35.123 35.123 0 0 1 7.156.075c.855.121 1.435.072 2.269.234l6.017 1.347a37.877 37.877 0 0 1 8.113 3.615c.583.351 1.049.88 1.6 1.283a18.33 18.33 0 0 1 2.163 2.074c.452.553.895 1.116 1.341 1.674.316.4.16.9.1 1.354-.07.546-2.042 1.619-2.549 2.01a19.965 19.965 0 0 0-3.345 3.374 1.416 1.416 0 0 0-.175.253 20.512 20.512 0 0 1-5.491 6.469 6.464 6.464 0 0 1-1.654.985 19.685 19.685 0 0 1-2.711 1.169 38.128 38.128 0 0 1-9.585 1.689 44.607 44.607 0 0 1-5.677-.325c-.307-.037-.617-.046-.924-.085z" class="cls-4" data-name="Path 658" transform="translate(-251.548 -1288.478)"/>
            <path id="Path_659" d="M271.293 1299.387q-1.315-.364-2.632-.724c-1.8-.745-2.246-1.285-4 .25a6.465 6.465 0 0 1-.215-3.841c.112-.491.257-.083.777.371 2.946 2.573 3.155 2.433 5.388 2.593a7.215 7.215 0 0 0 4.75-.959c2.565-1.417 5.311-2.685 7.849-3.98 1.139-.581 8.009-3.089 10.346-3.286a73.892 73.892 0 0 0-8.442 3.346c-.753.34-1.959.639-2.674.974-2.088.978-3.453 1.926-4.489 2.507l-2.951 1.827c2.687-.581 4.328-1.481 7.014-2.062.366-.079 2.262-.1 2.628-.18.9-.195 1.74-.748 2.586-.974 1.459-.388 3.01-.724 4.407-1.164.276-.086.527-.164.757-.23a15.8 15.8 0 0 1 4.3-.461c.094.115-2.644.525-3.4.8a51.2 51.2 0 0 1-5.193 1.363c-1.007.357-1.911.954-3.056 1.254-.6.158-2.179.027-2.88.149-2.027.351-3.4 1.555-5.136 1.963 2.894-.469 2.536-.979 5.414-1.534 2.709-.523 8.644-1.091 11.335-1.7-2.7.82-8.622 1.672-11.368 2.329-1.825.435-2.459.621-3.433.924-2.19.684 10.236.873 11.789.777 2.538-.154 4.976-1.056 7.465-1.584l4.328-.309c-4.063.882-8.045 2.292-12.186 2.648-3.933.338-8.187-.281-12.136-.5-1.128-.061-2.679-.072-.568.362 1.417.29.836.211-.235.333-1.2.136-2.632.165-.423.61 2.644.531 5.513.972 8.128 1.5 2.172.439 3.148.733.138.579a62.839 62.839 0 0 1-9.857-1.867 15.739 15.739 0 0 1-4.126-2.106zm19.187 7.968a17.223 17.223 0 0 0 4.414.37c3.03-.03 7.088-.9 5.511-.124-.662.324-2.179.129-3.492.248-1.817.162-3.539.544-4.7.314-2-.393-3.039-.728-1.731-.809z" class="cls-5" data-name="Path 659" transform="translate(-250.635 -1287.362)"/>
            <path id="Path_660" d="M279.493 1291.907c-2.249.6-2.284.285-.647-.246.579-.189 1.579-.347 2.474-.584a18.02 18.02 0 0 1 4.335-.754c2.124-.029 2.29-.549 4.4-.261 5.368.735-2.183.755-3.7.759a28.382 28.382 0 0 0-6.856 1.086z" class="cls-5" data-name="Path 660" transform="translate(-239.375 -1287.223)"/>
            <path id="Path_661" d="M280.768 1293.375c-1.665.441-1.689.211-.48-.182.43-.14 1.169-.257 1.832-.432a15.369 15.369 0 0 1 3.484-.418 43.953 43.953 0 0 1 5.421-.178c1.029.132.535.426-.424.461-1.231.044-3.271.026-3.477.033a38 38 0 0 0-6.356.715z" class="cls-5" data-name="Path 661" transform="translate(-237.916 -1285.44)"/>
            <path id="Path_662" d="M269.258 1302.169c-.375-.675.511-.329.978-.208 3.1.807 6.334 2.123 9.639 2.338a130.73 130.73 0 0 0 25.654-.439c2.881-.382 3.03-2.745 5.676-3.947 1.16-.525 1.1-1.286-.158-1.088-2.681.425-5.145 1.736-7.718 2.606l-5.6.289-7.946 1.005-11.526-1.593c12.856-.327 18.156-.992 28.2-3.265 1.955-.441 2.56-1.022 4.965-1.6.678-.162-1.955-3.6-1.341-3.739 1.988-.031 7.727 3.122 8.907 5.558-.006 0-.064.329-.029.324-5.528 4.8-5.044 4.95-7.242 8.055a10.82 10.82 0 0 1-5.572 4.365c-1.628.777-3.435 1.117-7.975 1.7-.926.119-2.488.075-3.609.239a21.14 21.14 0 0 1-7-.721c-2.742-.733-5.614-2.257-8.37-3.4-3.209-1.336-5.592-3.514-6.849-4.238-1.18-.979-1.9-1.263-3.076-2.242zm23.634 6.443c6.391-.36 9.609-2.508 8.747-2.87-.976.062-1.9-.2-2.88-.138-1.834.116-4.506.748-6.568.862a56.319 56.319 0 0 1-9.113-.577c-.717-.092-4.269-1.15-4.614-1.046.566.347 4.155 1.874 4.578 2.018 3.291 1.108 5.879 1.975 9.85 1.751zm-9.841-15.567c-.2.311-2.11.541-3.549 1.158-1.828.787-3.319 1.18-3.543 1.577 2.545-.524 6.9-2.152 10.815-3.144 1.207-.307 2.582-.248 3.58-.467a59.174 59.174 0 0 1 10.769-.627 69.045 69.045 0 0 1 7.656 1.07c-1.452-2.7-9.185-2.4-18.038-1.437-2.7.294-4.747 1.351-7.689 1.871zm-6.869 5.1c3.095-.976 12.333-2.02 15.425-3a69.7 69.7 0 0 1 9.763-.917 50.9 50.9 0 0 1 8.349.717c-4.681.184-6.435.568-11.116.751-5.524 1.011-16.954 2.622-22.421 2.444z" class="cls-6" data-name="Path 662" transform="translate(-246.523 -1286.799)"/>
            <path id="Path_663" d="M294.11 1315.819l-3.074-.838-1.511-.638a29.618 29.618 0 0 1-3.973-1.828c-1.8-.948-3.493-2.047-5.294-2.974a16.09 16.09 0 0 1-1.95-1.191 47.6 47.6 0 0 1-4.923-3.466 21.3 21.3 0 0 0-2.374-1.632 2.053 2.053 0 0 0-.628-.278 7.333 7.333 0 0 0-2.172-.548c-.206.05-.41-.184-.93.245a2.025 2.025 0 0 1-1.654.428 2.593 2.593 0 0 1-1.858-1.775 5.366 5.366 0 0 1-.6-2.376c0-.638.125-1.261.18-1.895a5.757 5.757 0 0 1 .875-2.222c.4-.61 1.536-1.042 2.122-.54a4.6 4.6 0 0 1 .875.968 6.655 6.655 0 0 0 2.034 1.827 6.3 6.3 0 0 0 4.432.656l2.266-.728a18.844 18.844 0 0 0 2.992-1.852c.467-.314.952-.606 1.446-.876.671-.366 1.318-.767 1.974-1.154l3.337-1.742a28.22 28.22 0 0 1 6.336-1.946 1.593 1.593 0 0 0 .187-.041 24.636 24.636 0 0 1 5.237-.781 35.123 35.123 0 0 1 7.156.075c.855.121 1.435.072 2.269.234l6.017 1.347a37.877 37.877 0 0 1 8.113 3.615c.583.351 1.049.88 1.6 1.283a18.33 18.33 0 0 1 2.163 2.074c.452.553.895 1.116 1.341 1.674.316.4.16.9.1 1.354-.07.546-2.042 1.619-2.549 2.01a19.965 19.965 0 0 0-3.345 3.374 1.416 1.416 0 0 0-.175.253 20.512 20.512 0 0 1-5.491 6.469 6.464 6.464 0 0 1-1.654.985 19.685 19.685 0 0 1-2.711 1.169 38.128 38.128 0 0 1-9.585 1.689 44.607 44.607 0 0 1-5.677-.325c-.307-.037-.617-.046-.924-.085zm.7-1.057a23.78 23.78 0 0 0 3.319.278c2.317-.083 4.225-.158 6.551-.452a14.832 14.832 0 0 0 4.421-.88 34.481 34.481 0 0 0 3.367-1.187c.164-.075.281-.206.434-.292a10.691 10.691 0 0 0 2.782-2.023 20.09 20.09 0 0 0 3.33-4.357 9.664 9.664 0 0 1 1.283-1.911 14.369 14.369 0 0 1 2.117-1.8c.415-.368.474-.279 1.031-.759.513-.443 1.729-1.167 1.6-1.932-.028-.174 0-.323-.125-.468-.1-.116-.2-.226-.29-.347a19.757 19.757 0 0 0-3.707-3.683 6.86 6.86 0 0 0-1.011-.753 27.475 27.475 0 0 0-6.011-2.667c-1.031-.25-6.121-1.481-6.911-1.476l-1.893-.217c-.559-.07-1.123-.085-1.685-.116a32.679 32.679 0 0 0-6.489-.063c-.821.083-1.643.162-2.461.272a35.676 35.676 0 0 0-4 .991 51.552 51.552 0 0 0-6.04 2.264c-2.442 1.1-3.966 2.446-6.118 3.635a11.11 11.11 0 0 1-1.672.857c-.849.3-1.025.79-2.633.989-2.613.32-3.422.3-5.746-1.016a4.907 4.907 0 0 1-1.876-1.876c-.3-.641-.956-.68-1.176-.307a3.827 3.827 0 0 0-.693 1.5 10.916 10.916 0 0 0-.2 1.483 8.169 8.169 0 0 0 .665 2.973c.34.759 1.36.505 1.935.18a3.3 3.3 0 0 1 2.593.053 12.89 12.89 0 0 1 2.567.994c.726.485 1.312 1.127 2.007 1.645a44.69 44.69 0 0 0 5.318 3.607c.851.5 1.726.948 2.564 1.465a40.894 40.894 0 0 0 4.916 2.664c1.95.7 3.83 1.58 5.792 2.248a10.933 10.933 0 0 0 2.135.483zm12.6-7.053c-.443-.106-1-.1-1.494-.171a10.89 10.89 0 0 0-3.594.138 5.654 5.654 0 0 1-1.005.193c-1.158.16-2.279.5-3.451.547l-3.28-.011a1.326 1.326 0 0 0-.142-.006 6.39 6.39 0 0 1-2-.23c-1.839-.36-4.822-.851-6.406-1.683l-2.837-1.106a.367.367 0 0 0-.09-.03 6.407 6.407 0 0 1-2.156-.967c-.237-.147-.255-.362 0-.263.325.127.656.241.979.373.375.154.775.224 1.156.364.544.2 1.1.373 1.63.6a15.887 15.887 0 0 0 2.4.9c.43.066.36.324.671.41l3.12.656c.776.116 1.523.412 2.312.45a7.334 7.334 0 0 0 1.939.114c.764-.1 1.507.084 2.257-.027a28.98 28.98 0 0 0 3.688-.588 7.413 7.413 0 0 1 2.391-.351 21.611 21.611 0 0 1 2.306.007 10.707 10.707 0 0 0 1.141.061c.279.006.551.059.831.066l2.854.037a7.361 7.361 0 0 0 1.33-.245 12.014 12.014 0 0 0 2.847-1.062 3.43 3.43 0 0 0 1.106-.963c.535-.748 1.213-1.2 1.586-1.708a9.773 9.773 0 0 1 3.892-2.656c.373-.108.487.313.233.414l-2.113 1.141a6.66 6.66 0 0 0-1.47 1.384c-.314.381-1.351 1.209-1.476 1.542a10.828 10.828 0 0 1-1.9 1.647 7.715 7.715 0 0 1-3.953 1.038 13.094 13.094 0 0 1-3.295-.015zm-14.475-3.756c-.138-.02-.481-.005-.487-.206-.009-.347 1.152-.2 1.3-.2a32.653 32.653 0 0 0 4.791-.3c1.128-.07 2.213-.406 3.337-.512a17.977 17.977 0 0 1 2.635-.138c.667.035 1.332-.009 2-.011a30.843 30.843 0 0 0 6.222-1.235 5.237 5.237 0 0 0 2.143-.932c.248-.107.483-.241.724-.364l1.211-.423a9.636 9.636 0 0 1 3.365-.56c.347.007.7.042 1.044.073.257.022.277.217-.013.276a11.563 11.563 0 0 0-4.173.559l-.991.4a16.1 16.1 0 0 1-2.279 1.119c-.465.134-.919.307-1.386.433l-3.291.783c-3.012.612-4.067.165-5.829.382l-1.281.063a43.17 43.17 0 0 1-4.464.7 5.01 5.01 0 0 0-1.229.108 14.044 14.044 0 0 1-3.348-.026v.011zm9.1 8.806a6.506 6.506 0 0 0-2.258-.167 8.94 8.94 0 0 1-1.819.178 21.6 21.6 0 0 0-2.5-.342 1.978 1.978 0 0 1-.261-.026c-1.759-.287-2.255.007-4.067-.779-.577-.252-.636-.634-.4-.565l2.944.686c.338.042.676.1 1.013.158.358.063 1.071-.019 1.424.061.5.11 1.011.1 1.512.184.889.142 1.759-.368 3.025-.052 2.733.68 3.423.024 6-.228.608-.061 3.9-.882 4.618-1.053a29.51 29.51 0 0 0 2.962-1.094c.516-.178.814-.439.957-.237.112.158-.05.331-.2.384a13.731 13.731 0 0 1-1.277.513 1.922 1.922 0 0 0-.333.125 9.641 9.641 0 0 1-2.242.709l-2.869.876a40.278 40.278 0 0 1-4.629.726 4.349 4.349 0 0 1-1.612-.059zm6.173-19.639c1.2.149 5.541.785 6.294 1.073a18.962 18.962 0 0 1 2 .526c1.435.546 4.087 1.358 5.267 2.238.175.13.8.366.759.652-.035.23-.244.212-.39.1a22.857 22.857 0 0 0-4.712-2.2c-.52-.169-1.044-.326-1.564-.5a8.351 8.351 0 0 0-2.356-.641c-1.3-.189-2.593-.483-3.911-.571l-1.871-.191c-.2-.015-.39-.066-.588-.087l-2.211-.107c-.739-.048-1.476 0-2.214-.018-.057 0-1.009.073-.972-.107.051-.25.849-.248 1.042-.263a26.3 26.3 0 0 1 5.427.094zm9.234 4.111a.44.44 0 0 1-.316-.005 8.616 8.616 0 0 0-3.743-.274 30.437 30.437 0 0 1-5.307.408c-.224-.013-.441.042-.665.033a37.518 37.518 0 0 0-5.013.193l-3.348.463c-.255.035-.226.162-.5.23-.564.14-1.149.162-1.709.314-1.422.387-1.27-.232-.833-.276.919-.09 1.806-.354 2.716-.494a41.289 41.289 0 0 1 6.338-.854c.546-.024 1.092-.068 1.641-.04l1.617-.01a31.884 31.884 0 0 0 4.883-.382 8.676 8.676 0 0 1 4.241.695zm-39.234 1.012c1.909-.621 3.729-1.388 5.64-2 .3-.1.6-.2.9-.309.6-.226 3.729-.944 4.368-1.075a8.982 8.982 0 0 0 1.738-.566 10.573 10.573 0 0 1 3.5-.752c.252-.009 1.036-.231.978.188-.029.22-.419.162-.584.156a12.227 12.227 0 0 0-3.306.645 49.814 49.814 0 0 1-5.987 1.65l-3.183.911a72.46 72.46 0 0 0-3.185 1.062 1.11 1.11 0 0 1-.877.085zm9.118 12.145a16.248 16.248 0 0 1-3.049-1.365 25.1 25.1 0 0 1-2.869-1.592l-1.753-1.012c-.134-.086-1.36-.693-1.206-.969.075-.134.261-.06.364 0l3.091 1.74c.77.419 4.276 2.226 5.07 2.525.083.031 1.292.341.776.63a.613.613 0 0 1-.424.044zm.07-10.809c-.233-.017-.13-.325.154-.3a7.5 7.5 0 0 0 1.637-.056c.913-.1 1.836-.115 2.745-.248.621-.092 1.251-.073 1.867-.195l.469-.072c.322.031.116.351-.088.428a7.464 7.464 0 0 1-1.918.29c-1.617.175-3.238.132-4.866.147zm-.09 3.7c-.592-.089-2.946-.393-3.256-.777-.142-.179-.068-.274.145-.208a31.2 31.2 0 0 0 4.89.833c.391.036.419.4.129.412a13.58 13.58 0 0 1-1.907-.254v-.006zm18.04 3.343a11.311 11.311 0 0 0-2.3-.011c-.36-.042-.164-.37.14-.39.505-.033 1.007-.12 1.516-.109l1.066.059c.272.063.461.437.094.481a2.818 2.818 0 0 1-.52-.031zm-3.146 5.271c-.52-.083-.6-.4-.018-.454.415-.038.836-.02 1.251-.088a3.682 3.682 0 0 1 1.036-.089c.439.129-.182.634-1.463.641-.268 0-.538-.007-.807-.011zm11.936-3.132c-.367-.088-.151-.4.1-.476a16.34 16.34 0 0 0 1.533-.645c.191-.079.575-.409.658 0 .037.184-.156.341-.307.406a7.026 7.026 0 0 1-1.986.713zm-4.227-2.132c-.25-.033-.382-.413-.068-.474a2.454 2.454 0 0 1 .522 0c.75.015 1.694-.318 1.45.18l-.294.221a7.719 7.719 0 0 1-1.61.073zm3.7-.946c-.5-.1.1-.5.274-.594.739-.391.851-.785 1.119-.562.4.336-.7 1.093-1.393 1.156zm-29.631-6.287a.184.184 0 1 1 .011.368c-.094.011-.191 0-.285.007l-1.942.151c-.266-.04-.123-.307.1-.334a14.977 14.977 0 0 1 2.121-.191zm32.71 6.353a.249.249 0 0 1 .187.395c-.108.131-.99 1.276-1.24.759-.127-.263.208-.256.656-.888.094-.132.215-.307.4-.266zm-37.441-3.646c-.371-.061-.274-.252 0-.27a8.482 8.482 0 0 1 2.038.009c.12.04.349.355-.325.323l-1.709-.063zm40.7.72c-.013.147-.329.4-.421.548-.32.507-1.068.437-.6-.171.628-.827 1.08-.755 1.025-.377zm-12.568-.823c-.185-.016-.452-.314.129-.38a11.411 11.411 0 0 0 1.406-.235c.287-.07.314.266.1.337a5.715 5.715 0 0 1-1.636.279zm3.49 7.493c-.346-.052-.325-.326-.055-.393a6.066 6.066 0 0 1 1.086-.252c.358-.011.366.447-.024.518a3.091 3.091 0 0 1-1.007.127zm-10.708-6.959c-.267-.033-.34-.311-.05-.377a6.872 6.872 0 0 1 1.279-.241c.314 0 .243.383-.016.429l-1.213.189zm-34.3-2.926c.423.052.575.5.132.619-.243.064-.693.267-.842-.036-.2-.4.463-.6.709-.583zm22.881 10.727c.323.1.663.207 1 .322.263.088.03.671-1.1.11-.311-.156-.311-.52.1-.432zm29.322-4.151c-.314.522-.432.454-.766.794-.265.272-.4-.1-.228-.307.2-.226.41-.441.592-.68s.4-.052.4.193zm-9.745 4.971c-.347-.073-.136-.387.1-.443s.95-.335 1.1-.092a.217.217 0 0 1-.158.322l-1.04.213zm-21.324.555c-.211-.084-.761-.226-.695-.542.094-.446.777-.062.959.057.261.171-.009.523-.265.485zm1.54-1.834c-.719-.116-.538-.8-.1-.713.849.178.608.79.1.713zm-22.835-8.356c-.566-.075-.38-.651.235-.705.487-.044.559.735-.235.705zm56.595-1.371c-.575-.1-.248-.807.4-.661.364.081.345.684-.4.661zm-25.275-3.1c.31.05.582.555-.489.562-.491 0-.373-.7.489-.562zm20.709 4.852c-.829-.134.239-1.112.544-.544.176.331-.311.573-.544.544zm-16.884-8.661c.206.018.386.289.143.312-.277.026-1.1.265-1.3.142-.241-.147.112-.292.239-.316l.917-.138zm10.4 15.144c-.316-.048-.435-.356-.055-.449.184-.044.816-.229.843.118.028.327-.559.369-.788.331zm-35.077-5.2c.882.237.515.879.053.66-.654-.307-.527-.678-.053-.66zm32.852 3.308c-.064.373-.842.415-.9.015-.064-.461.985-.5.9-.015zm2.646-6.14c.469.11.335.667-.191.724-.463.051-.485-.715.191-.724zm10.953-1.27c-.548-.076-.347-.757.349-.572.322.085.413.636-.349.572zm-31.928 7.3c.195.042.456.088.412.351-.066.415-1 .215-.923-.18.048-.247.311-.208.513-.177v.006zm1.211-7.862c-.219-.018-.362-.292-.094-.36l.917-.092c.222.057.149.347-.055.371l-.768.081zm-23.577 1.91c.193.037.474.088.408.333-.075.275-.588.153-.794.132-.355-.035-.255-.476.165-.473.086 0 .173.006.221.008zm33.662 5.794c.377.057.412.568-.272.6a.291.291 0 0 1-.086-.574 1.168 1.168 0 0 1 .358-.024zm-16.342-6.577c-.485-.084-.412-.329-.178-.346.342-.024 1.064-.171 1.038.165a.146.146 0 0 1-.149.152 3.163 3.163 0 0 1-.711.028zm30.544-2.286c.594.127.29.511.11.507-.208-.005-.72.042-.722-.265s.4-.277.612-.243zm-15.629 16.519c.507.077.265.7-.331.586-.452-.088-.25-.652.331-.586zm-.662-3.653c-.467-.068-.382-.658.178-.63.485.024.318.729-.178.63zm-29.978-9.363c.82.1.583.919-.279.345-.45-.3-.1-.406.279-.345zm48.441-3.685c.915.118.312 1.024-.261.432a.258.258 0 0 1 .173-.436.274.274 0 0 1 .088 0zm-2.3 6.715c-.272.6-1.005.433-.733.038.243-.351.72-.529.733-.038zm-6.228 1.753c-.463-.085-.268-.693.217-.632s.309.728-.217.632zm-2.376 7.527c-.391-.06-.362-.577.305-.58.415 0 .362.685-.305.58zm-10.262 1.25c-.18-.063-.419-.121-.377-.36.068-.384.847-.266.8.118-.028.221-.235.245-.423.243zm-1.345-.711c.619.255.072.862-.432.452-.254-.206-.05-.493.432-.452zm4.883-2.722c-.56-.132-.064-.625.568-.428.239.075.331.538-.568.428zm-15.466-.206c-.167-.024-.614-.168-.573-.393.074-.421 1.018-.077.873.274-.048.115-.164.139-.3.12zm10.01-13.05a.468.468 0 0 1-.761.107c-.257-.45.866-.641.761-.107zm23.961 6.857c-.6-.092.094-1 .423-.619.2.233-.151.667-.423.619zm-12.932 6.47c.292.053.379.516-.474.531a.218.218 0 0 1-.1-.408 1.748 1.748 0 0 1 .573-.123zm-29.118-5.647c1.138.395.417 1.055-.2.292-.154-.189 0-.3.2-.292zm35.95-.64c-.051.415-.781.469-.713 0 .05-.351.77-.478.713 0zm-23.083-1.125c-.4-.044-.23-.264.009-.294.123-.015 1.143-.123.989.263-.046.116-.862.04-1 .037v-.006zm-7.2-1.667c.259.09.713.007.581.248a.36.36 0 0 1-.417.131c-.182-.057-.79-.055-.779-.3.009-.209.447-.09.616-.077zm5.4 9.594c.651.1.191.906-.355.437-.266-.228-.035-.487.355-.437zm34.344-10.662c.061-.393.8-.417.706.031-.073.37-.779.447-.706-.031zm-57.346-2.429a.339.339 0 0 1-.107.669.339.339 0 0 1 .107-.669zm13.49 7.865c.825.25.524 1.018-.226.359-.224-.2-.074-.408.226-.359zm30.915-15.372c.7.077.362.8-.322.423-.244-.136-.131-.493.322-.423zm-42.586 6.459a.336.336 0 0 1-.665-.081.336.336 0 0 1 .665.081zm38.9 15.979c-.45-.114-.424-.592.237-.528.355.033.358.614-.237.528zm-7.727-3.6c.458.042.366.691-.149.572-.448-.107-.318-.634.149-.572zm5.989-8.181c.505.062.36.628-.129.59-.283-.022-.516-.52.129-.59zm7.068 3.828c-.419-.079-.4-.572.059-.61a.311.311 0 1 1-.059.61zm-2.321-5.175c.465.077.261.7-.241.584-.421-.1-.209-.656.241-.584zm-10.168 13.715c.143.039.318.064.325.252.02.531-1.123.226-.706-.169a.409.409 0 0 1 .38-.082zm6.752-12.279c.447.068.41.6-.386.457-.237-.042-.3-.529.386-.457zm-13.88 9.188c-.175-.044-.419-.1-.373-.323.063-.318.878-.235.809.145-.044.232-.265.191-.436.178zm26.843-6.728c-.1.556-.855.338-.625-.072.171-.305.7-.349.625.072zm-22.109-14.114c.628.318-.469.809-.581.36-.073-.3.347-.41.581-.36zm2.479 12.572a.386.386 0 0 1-.643.153c-.336-.458.753-.733.643-.153zm-6.015 8.137c.167.035.4.05.379.276-.035.321-.529.173-.719.107a.208.208 0 0 1 .064-.4 2.214 2.214 0 0 1 .276.021zm6.005-3.35c-.428-.06-.237-.509.323-.526.368-.011.384.6-.323.526zm1.477-.889c.52.066.162.842-.353.524-.336-.207.094-.557.353-.524zm21.651-5.293c.406.057.167.693-.261.6s-.206-.665.261-.6zM302 1290.035c.676.195.046.691-.357.454a.252.252 0 0 1 .158-.47c.055 0 .11.009.2.016zm17.664 10.422c-.627-.278.05-.748.384-.492s-.09.505-.384.492zm.3-2.643c.6.068.336.849-.221.515-.274-.165-.075-.551.221-.515zm-48.531 3.611c.654.149.43.654.088.544-.66-.211-.522-.61-.088-.544zm33.442 9.461c-.43-.068-.167-.618.43-.491.132.027.437.446-.43.491zm11.217-2.443c.645.143-.263.969-.481.461-.107-.248.272-.493.481-.461zm.886-7.29c-.057.474-.937.292-.643-.16.156-.24.684-.178.643.16zm.922-6.316c-.627-.09-.334-.752.263-.458.294.144.11.509-.263.458zm-11.8 1.724c-.643-.141-.134-.735.408-.406.281.168-.028.444-.408.406zm-3.124 16.636c.538.085.312.689-.18.55-.312-.087-.305-.563.18-.55zm17.315-18.128c.182.077.458.182.336.433-.242.5-1.253-.459-.336-.433zm-7.193 14.1c-.47-.057-.265-.588.261-.559.38.02.257.573-.261.559zm-1.088.849c-.044.289-.6.45-.706.132-.125-.379.775-.619.706-.132zm-2.63-14.468c-.447-.057-.191-.68.32-.505a.255.255 0 0 1-.037.5 2.371 2.371 0 0 1-.283.009zm4.916.048c.474.04.529.6-.231.472-.342-.057-.243-.55.231-.472zm-48.128.932a.313.313 0 0 1-.623-.07.313.313 0 0 1 .623.07zm50.257 6.673c.044-.248.5-.559.645-.252.119.248-.307.656-.54.476a.233.233 0 0 1-.1-.224zm-13.8-2.178c-.05.307-.581.323-.671.046-.147-.447.748-.527.671-.046zm18.967-3.108c.555.059.323.713-.164.537-.34-.125-.222-.546.164-.537zm-6.186 4.734c.43.081.154.663-.206.61-.445-.068-.167-.678.206-.61zm1.353-3.292c-.408-.053-.329-.538.257-.531.333 0 .357.544-.257.531zm-21.973 10.918c-.533-.107-.195-.708.228-.518.347.154.215.558-.228.518zm15.615.441c-.4-.049-.305-.509.215-.568.333-.039.406.529-.215.568zm.531-18.921a.283.283 0 1 1 .077-.557c.436.085.369.641-.077.557zm-7.3 6.518a.374.374 0 0 1-.59.186c-.259-.25.108-.513.351-.507a.274.274 0 0 1 .239.321zm-30.331 4.5c.068-.5.831-.055.632.3-.174.309-.608-.064-.632-.3zm25.172-12.983c.487.068.3.562-.123.549-.369-.013-.424-.557.123-.549zm-6.459 1.011c.564.079.248.5-.206.559-.384.046-.281-.553.206-.559zm11.083-.239c-.165-.022-.327-.182-.2-.36a.436.436 0 0 1 .645.011c.2.316-.237.373-.445.349zm8.394 4.4c-.505-.207-.151-.645.346-.443a.238.238 0 0 1-.092.453c-.079 0-.158-.007-.254-.011zm-10.078 1.816c-.491-.017-.334-.695.3-.456.222.083.246.485-.3.456zm-5.906 10.76c-.513-.09-.16-.641.3-.48.41.141.138.511-.3.48zm19.152-7.665c-.037.172-.614.492-.753.244-.219-.39.84-.658.753-.244zm-11.8 1.79c.4.07.274.517-.125.553-.456.04-.368-.638.125-.553zm7.617 10.144c.415.066.211.625-.2.562s-.206-.628.2-.562zm13.624-12.143a.308.308 0 0 1-.6-.116.308.308 0 0 1 .6.116zm-25.22 11.946c-.707-.3.43-.785.5-.278.033.247-.294.311-.5.278zm-4.807 1.878c.571.169.132.715-.346.4-.3-.2-.033-.458.346-.4zm21.973-20.683c-.055.389-.689.2-.645-.129.051-.38.695-.219.645.129zm1.779 12.272c-.055.355-.662.375-.6-.037s.662-.362.6.037zm-21.227-2.1c-.5-.066-.261-.606.231-.491a.236.236 0 0 1 .017.465 1.8 1.8 0 0 1-.248.026zm5.263 10.795c.47.068.279.586-.108.509-.494-.1-.346-.59.108-.509zm9.528-17.394c-.469-.07-.279-.641.213-.511.353.092.226.559-.213.511zm-.945 7.636c-.45-.072-.195-.684.259-.524.266.094.259.522-.259.524zm-23.77 4.581c.318.081.59.3.272.5a.523.523 0 0 1-.56-.185c-.094-.219.108-.333.289-.316zm13.1-11.94c.452.074.127.576-.285.495-.366-.072-.239-.581.285-.495zm3.923 13.184c-.3-.038-.417-.505.311-.459.233.015.452.45-.311.459zm-1.863.171c-.489-.13-.094-.531.358-.461.261.042.257.548-.358.461zm-22.39-5.249c.652.246.108.853-.265.416a.26.26 0 0 1 .265-.416zm9.425-5.862c-.687-.314.452-.693.544-.308.066.278-.373.3-.544.308zm17.868-7.757c-.073.321-.715.255-.638-.109.068-.327.731-.3.638.109zm3.606 9.7c.391.053.2.441-.178.509-.421.075-.421-.609.178-.509zm-17.555 12.362c.268.068.426.3.184.483-.4.3-.895-.5-.184-.483zm-8.567-5.318c-.689-.115-.171-.882.281-.366.23.263-.088.355-.281.366zm21.144-9.56c-.461-.081-.2-.685.244-.513a.26.26 0 0 1 .035.458.663.663 0 0 1-.279.055zm3.9 11.228c.037-.379.809-.3.6.121-.13.268-.645.252-.6-.121zm-17.428.226a.286.286 0 0 1 .048-.57c.4.039.432.627-.048.57zm9.5 3.714c-.572-.088-.329-.678.151-.487.335.132.171.5-.151.487zm16.9-12.8c-.447-.077-.112-.7.285-.52.345.16-.011.568-.285.52zm-20.637 11.049c-.129-.042-.377-.077-.355-.268.024-.23.4-.178.553-.169a.214.214 0 0 1 .044.417.731.731 0 0 1-.243.021zm16.888-12.687c-.516-.061-.173-.654.3-.48.342.125 0 .5-.3.48zm-5.754 6.737c-.72-.108.051-.737.375-.364.186.215-.195.408-.375.364zm-13.5-2.94c-.059.388-.877.178-.592-.2.18-.241.649-.134.592.2zm19.542-.759a.257.257 0 0 1-.007-.513c.515-.1.538.594.007.513zm-9.736-11.335c-.57-.123-.173-.715.277-.4.1.07.309.4-.277.4zm4.987 5.618c-.4-.066-.334-.526.305-.428a.2.2 0 0 1 .029.391.94.94 0 0 1-.334.037zm8.769 8.817c-.072.386-.629.388-.572 0 .053-.349.651-.417.572 0zm-28.919-7.288c-.537-.086-.165-.673.235-.478.331.158.068.533-.235.478zm22.914 8.143a.292.292 0 0 1-.579-.079c.046-.288.649-.357.579.079zm.469 2.025c-.4-.072-.017-.764.345-.474.283.228-.033.526-.345.474zm1.476-15.4c-.4-.057-.412-.594 0-.535s.406.592 0 .535zm-1.43 6.342c.4.066.167.594-.182.546-.406-.055-.18-.6.182-.546zm.2-5.978c-.386-.06-.3-.546.079-.526.412.022.428.524-.079.526zm-48.261 4.612c-.336-.044-.4-.645 0-.589.373.05.4.641 0 .589zm48.248 13.6c-.4-.044-.147-.485.145-.573a.219.219 0 0 1 .279.25.488.488 0 0 1-.424.324zm-13.376 2.023c-.037.318-.669.311-.627-.063.039-.349.665-.279.627.063zm-7.726-5.936c-.634-.075-.505-.564.068-.465a.235.235 0 0 1-.048.467h-.02zm1.435-.312c.6.087.186.726-.206.461-.248-.166-.127-.445.206-.461zm-3.936 5.142a.264.264 0 1 1-.063.522c-.423-.057-.36-.577.063-.522zm22.539-.509c-.4-.077-.151-.621.219-.537s.121.6-.219.537zm-4.028-3.159l-.042-.007c-.448-.12-.035-.713.4-.375.254.2-.052.43-.355.382zm-41.147-7.825c-.046.419-.818.278-.583-.114.14-.23.619-.215.583.114zm20.7 1.851c-.557-.09-.226-.711.222-.456.263.149.1.474-.222.456zm1.454.07c-.643-.112-.189-.724.257-.39.206.154.114.413-.257.39zm-5.344 7.568c-.61-.259-.208-.849.248-.359.16.173-.02.41-.248.359zm30.889-2.834c-.05.34-.678.364-.6-.018.057-.3.663-.379.6.018zm-42.566-6.024c-.741-.167-.2-.81.191-.39.184.2.079.437-.191.39zm43.325-2.168c.421.049.226.479-.193.529-.351.04-.29-.557.193-.529zm-11.576 14.4c-.369-.062-.261-.515.074-.509.443.007.417.559-.074.509zm-.867-17.063c-.5-.057-.215-.511.287-.413.351.07.228.47-.287.413zm-8.514 9.844c-.068.373-.661.212-.588-.106s.66-.274.588.106zm.287 5.107c-.772-.255.417-.81.417-.244 0 .24-.22.272-.417.244zm23.945-16.943c-.592-.1-.189-.856.222-.419a.241.241 0 0 1-.222.419zm-40.954 9.262c-.351-.039-.413-.608 0-.55.388.055.39.594 0 .55zm39.525-5.3c-.454-.068-.29-.653.151-.5a.261.261 0 0 1-.151.5zm2.883-.857c-.423-.077-.369-.583.086-.509a.259.259 0 1 1-.086.509zm-8.475-4.907c-.533-.123-.191-.731.2-.435.265.2.134.487-.2.435zm5.594.7c.48.074.254.71-.171.454-.279-.167-.158-.5.171-.454zm-20.407 2.77c.544.084.132.614-.255.452-.32-.134-.061-.505.255-.452zm-20.9 9.01c-.662-.2-.377-.871.208-.338.165.152 0 .371-.208.338zM316 1294.261a.27.27 0 0 1 .081-.534c.384.053.378.614-.081.534zm8.086 4.228a.285.285 0 0 1-.566-.068.285.285 0 0 1 .566.068zm-14.145 10.122c-.458-.055-.241-.514.167-.479a.229.229 0 0 1 .039.452 1.266 1.266 0 0 1-.206.027zm-4.9-2.817c-.555-.07-.336-.612.145-.439a.226.226 0 0 1-.075.443.29.29 0 0 1-.07 0zm-11.98-2.83c-.4-.062-.263-.532.14-.5.377.027.27.564-.14.5zm25.817-2.051c.059-.334.612-.259.57.059-.05.369-.641.334-.57-.059zm-12.54 7.391c-.652-.3.127-.737.318-.364.116.225-.1.4-.318.364zm-5.364-2.449a.283.283 0 0 1-.559-.09.283.283 0 0 1 .559.09zm6.007.871a.28.28 0 0 1 .106-.549.28.28 0 0 1-.106.549zm13.419-4.219a.27.27 0 0 1 .1-.531c.428.068.25.592-.1.531zm-20.233 9.163c-.165-.026-.45-.092-.261-.3.142-.152.713-.183.663.138-.031.2-.272.167-.4.164zm12.45-15.472c-.4-.059-.257-.505.1-.5.4.006.3.568-.1.5zm-5.351 14.288c-.437-.059-.108-.7.314-.443.289.173-.09.476-.314.443zm-10.993 1.084c-.553-.11-.233-.584.215-.423.217.077.237.456-.215.423zm-4.475 1.615c-.053.338-.623.2-.586-.1.042-.359.638-.221.586.1zm-6.362-5.085c.408.069.369.652-.064.5-.355-.121-.285-.562.064-.5zm18.281-4.521a.274.274 0 1 1-.066.544.274.274 0 0 1 .066-.544zm10.791.526a.273.273 0 0 1-.544-.055.273.273 0 0 1 .544.055zm-33.774 1.93a.253.253 0 1 1 .068-.5c.393.083.349.572-.068.5zm2.174 3.391c-.342-.042-.406-.6-.035-.548.336.042.413.6.035.548zm34.487-12.686c-.553-.086-.136-.735.228-.422.228.2.05.464-.228.422zm-11.223-1.626c.358.09.154.506-.206.469s-.232-.535.206-.469zm10.828 12.95c-.5-.059-.026-.818.318-.463.136.142-.213.491-.318.463zm-8.444-12.1c.481.074.29.476-.088.46-.294-.011-.353-.46.088-.46zm-13.779-5.564c.3.037.318.389-.165.467-.34.055-.325-.522.165-.467zm7.729 20.071c.382.081.292.454-.057.436-.371-.02-.447-.41-.132-.443a1.664 1.664 0 0 1 .189.007zm10.4-18.332c-.349-.063-.338-.555.009-.5.384.055.373.572-.009.5zm5.9 6.849c-.627-.084.039-.783.277-.38a.255.255 0 0 1-.277.38zm-15.058 6.274c.505.07.031.735-.3.423-.206-.195.055-.456.3-.423zm1.255 2.519c.388.063.246.548-.156.465-.357-.076-.176-.526.156-.465zm-19.733-.614c.443.042.255.683-.2.4-.3-.189-.1-.443.2-.4zm-14.38-6.833c.34.061.423.564.011.494-.349-.059-.373-.559-.011-.494zm37.828 12.206a.262.262 0 0 1 .518.079.262.262 0 0 1-.518-.079zm-10.843-11.24c.448.083.151.6-.176.468-.305-.123-.142-.527.176-.468zm-.75 6.243c-.456-.074-.092-.647.289-.4.278.178-.062.439-.289.4zm14.69-4.025a.264.264 0 0 1 .064-.524.264.264 0 0 1-.064.524zm-33.587 1.286c-.5-.053-.5-.56-.151-.472.254.064.645.516.151.472zm22.445-3.317c-.658-.248.4-.665.439-.234.02.227-.261.256-.439.234zm12.362 8.248c-.068.294-.63.3-.542-.055.066-.276.621-.281.542.055zm-9.692-1.492c-.338-.064-.2-.515.153-.456.38.064.189.521-.153.456zm-28.432-4.04c-.568-.178-.167-.9.239-.3.118.173-.044.346-.239.3zm43.692-7.128a.244.244 0 1 1 .059-.483c.342.061.353.544-.059.483zm-11.994 1.343a.258.258 0 0 1 .079-.509.258.258 0 0 1-.079.509zm.752 9.6c.357.048.362.409-.013.439-.443.037-.412-.5.013-.439zm8.944-5.418c-.355-.066-.186-.548.11-.5.342.052.237.57-.11.5zm-30.891-.373c-.384-.051-.3-.522.051-.469s.311.517-.051.469zm27.381-1.608a.259.259 0 0 1 .083-.511.259.259 0 0 1-.083.511zm-30.548-5.339c-.355-.053-.136-.524.154-.492.334.036.191.544-.154.492zm13.009 1.351c.515.147-.371.689-.448.255-.048-.265.246-.294.448-.255zm25.645 3.684a.245.245 0 1 1 .1-.478c.4.066.2.522-.1.478zm-39.107-3.84c-.362-.046-.167-.531.162-.482.346.053.149.522-.162.482zm22.868 4.785c-.491-.087-.018-.691.27-.388.175.184-.033.428-.27.388zm11.18-4.886c-.408-.092-.29-.515.211-.362.3.09.2.425-.211.362zm-16.434 9.829a.238.238 0 1 1 .094-.467c.39.048.206.511-.094.467zm-6.281-.055a.241.241 0 1 1-.075.475.241.241 0 1 1 .075-.475zm-13.147-2.181c-.7-.232-.362-.678.151-.313.165.118.07.346-.151.313zm1.81 4.713c-.347-.059-.322-.548.015-.474.307.066.327.529-.015.474zm24.731-3.139a.246.246 0 0 1-.487-.07.246.246 0 0 1 .487.07zm5.013 6.426a.245.245 0 0 1 .055-.487.245.245 0 0 1-.055.487zm-41.9-11.511a.225.225 0 1 1 .037-.447c.338.053.347.5-.037.447zm36.573 10.212c-.311-.048-.224-.484.114-.43.375.059.193.476-.114.43zm-17.434-8.99a.239.239 0 0 1-.472-.072.239.239 0 0 1 .472.072zm18.509 2.905a.24.24 0 0 1-.474-.075.24.24 0 0 1 .474.075zm.346-14.009a.237.237 0 1 1-.1.462.237.237 0 0 1 .1-.462zm1.58 9.077c-.331-.05-.182-.47.134-.426s.191.474-.134.426zm-10.953-2.345c-.559-.093.017-.708.3-.287.112.167-.163.318-.3.287zm12.14 2.955a.237.237 0 0 1 .081-.466.237.237 0 0 1-.081.466zm-27.938 6.34c.322.053.331.5-.009.438-.316-.055-.3-.489.009-.437zm22.794-10.162c-.035.283-.531.274-.489-.046.039-.3.522-.213.489.046zm-21.71-.663c-.035.3-.52.3-.476-.029.039-.285.505-.23.476.029zm19.955 18.423a.211.211 0 1 1 .059-.415c.368.052.292.465-.059.415zm-12.252-11.934a.237.237 0 0 1-.037.472.237.237 0 0 1 .037-.472zm30.277-6.226c-.049.3-.513.2-.461-.088a.235.235 0 0 1 .461.088zm-18.121 14.59a.233.233 0 0 1 .461.068.233.233 0 0 1-.461-.068zm-7.51-8.674a.233.233 0 0 1-.059.461.233.233 0 0 1 .059-.461zm-1.544 2.346a.218.218 0 1 1-.057.432.218.218 0 0 1 .057-.432zm9.589-12.892a.218.218 0 1 1 .077-.428.218.218 0 0 1-.077.428zm16.32 11.567a.223.223 0 0 1-.077.439c-.268-.06-.2-.489.077-.439zm-18.31 5.45c-.54-.2.329-.6.336-.189 0 .189-.184.2-.336.189zm5.476-2.643a.221.221 0 0 1 .055-.437.221.221 0 1 1-.055.437zm-26.527-.963a.216.216 0 0 1-.428-.042.216.216 0 0 1 .428.042zm9.881-6.211a.213.213 0 0 1-.419-.07.213.213 0 1 1 .419.07zm-3.852 3.4c.292.043.3.442-.015.4-.279-.042-.27-.436.015-.4zm20.335 8.991c.311.055.116.425-.13.369s-.151-.419.13-.369z" class="cls-7" data-name="Path 663" transform="translate(-251.548 -1288.478)"/>
            <path id="Path_664" d="M276.477 1324.839a28.672 28.672 0 0 1-2.407-.844 22.352 22.352 0 0 1-2.224-.91 32.432 32.432 0 0 1-3.565-1.959c-.353-.23-.73-.419-1.093-.628-1.187-.687-3.317-2.284-4.523-3.126a30.282 30.282 0 0 1-3.043-2.942 4.933 4.933 0 0 1-1.035-1.209 15.75 15.75 0 0 1-1.479-3.479c-.3-.9-.086-.853-.193-1.426-.353-1.889.742-3.087.807-3.674.072-.651 1.647-1.645 2.194-1.867.213-.088.423-.182.625-.29a18.992 18.992 0 0 1 6.582-1.785 22.6 22.6 0 0 1 4.348.021 4.554 4.554 0 0 1 .8.068.5.5 0 0 0 .366-.081c.639-.375 1.345-.61 2-.943a9.034 9.034 0 0 1 3.414-.673 10.967 10.967 0 0 1 2.181.155 24.536 24.536 0 0 1 3.55.68 11.986 11.986 0 0 1 2.205.746c.417.231.634-.248 2.273-.278.43-.009.858.044 1.284.037a17.917 17.917 0 0 1 2.249.349 7.269 7.269 0 0 1 3.425 1.453.472.472 0 0 0 .382.072 9.845 9.845 0 0 1 3.582.351 3.675 3.675 0 0 1 1.635.774c.213.2.377.189.526.417a2.985 2.985 0 0 0 1.06.936 19.431 19.431 0 0 1 4.664 2.922l2.573 2.084a3.69 3.69 0 0 0 1.586.777 8.135 8.135 0 0 0 2.152-.1 13.048 13.048 0 0 1 2.014-.326c.388.022.64.522.663.862a8.887 8.887 0 0 1-.627 4.706c-.322.638-.7 1.75-1.393 2.082-1.226.586-1.7-1-2.949-.854a5.861 5.861 0 0 0-2.861.866 17.5 17.5 0 0 0-3.469 2.773 19.262 19.262 0 0 1-1.755 1.608 14.766 14.766 0 0 1-4.355 2.466 47.184 47.184 0 0 1-5.228 1.272 39.69 39.69 0 0 1-5.153.268 29.3 29.3 0 0 1-3.165-.042c-.57-.042-1.136-.127-1.705-.175a30.443 30.443 0 0 1-4.862-.583 31.46 31.46 0 0 1-2.067-.555z" class="cls-4" data-name="Path 664" transform="translate(-256.845 -1279.59)"/>
            <path id="Path_665" d="M258.036 1304.492a13.957 13.957 0 0 0 1.522 3.913 24.681 24.681 0 0 0 2.42 2.786 29.256 29.256 0 0 0 1.924 2.375c2.44 2.166 7.851 3.435 11.013 4.047a44.33 44.33 0 0 0 7.983 1.032c1.946 0 3.607-.474 5.574-.476a56.84 56.84 0 0 0 6.867-.022 30.8 30.8 0 0 0 10.307-3.532c1.283-.669 2.9-.709 4.146-1.216a2.605 2.605 0 0 0 1.634-1.52c.316-.709-1.762-.678-3.341-1.761-1.106-1.013-1.84-1.757-2.973-2.69-.426-.353-1.768-1.211-2.4-1.68-.66-.487-.5-1.027-1.014-1.365a7.391 7.391 0 0 1-1.4-.915c-10.111-1.114-19.066-1.817-29.179-2.933-1.038.155-2.78-.11-5.348.184-3.673.419-7.81 1.812-7.733 3.774z" class="cls-8" data-name="Path 665" transform="translate(-255.848 -1278.379)"/>
            <path id="Path_666" d="M259.409 1304.583a12.629 12.629 0 0 0 1.378 3.543 22.4 22.4 0 0 0 2.19 2.523 26.486 26.486 0 0 0 1.744 2.15c2.209 1.963 7.108 3.109 9.971 3.664a40.219 40.219 0 0 0 7.229.935c1.762 0 3.267-.43 5.046-.432a51.256 51.256 0 0 0 6.219-.021 27.853 27.853 0 0 0 9.335-3.2c1.16-.6 2.624-.639 3.752-1.1a2.352 2.352 0 0 0 1.479-1.375c.287-.643-1.6-.615-3.025-1.6-1-.917-1.667-1.589-2.692-2.437-.386-.32-1.6-1.095-2.174-1.52-.6-.441-.452-.93-.917-1.238a6.681 6.681 0 0 1-1.27-.827c-9.157-1.009-17.267-1.647-26.422-2.655-.941.14-2.519-.1-4.844.165-3.326.381-7.07 1.641-7 3.418z" class="cls-9" data-name="Path 666" transform="translate(-254.698 -1277.989)"/>
            <path id="Path_667" d="M263.2 1313.6a4.95 4.95 0 0 1-1.764-2.19l3-1.45c-3.245-1.621-5.307-2.266-4.842-4.054.162-.621 1.082-1.241 1.74-2.275 4.126-1.308 3.288-1.255 8.032-1.171 4.712-4.17 8.707-3.01 14.615-1.641.476-.145 1.349-.3 1.817-.47 1.608.237 1.968.391 3.576.629 1.051.493 2.5.575 3.548 1.068 1.3.036 2.249.432 3.55.468 1.147.776 2.007.834 3.152 1.612.051.774.636 1.764.687 2.54-.634 1.454-1.336 1.154-2.056 1.661l-2.894.98-2.541 1.446 2.417.028c1.676-.6 3.254-1.658 5.03-1.8a4.484 4.484 0 0 1 3.321 1.13 3.728 3.728 0 0 1 .888 2.865 2.761 2.761 0 0 1-1.171 2.043c-.963.638-2.224.625-3.335.937q-1.18.675-2.36 1.354-1.836.512-3.67 1.029a18.118 18.118 0 0 1-5.408-.652c-1.683.108-2.891.641-4.131.533-2.349-.208-4.164-.677-6.448-.923-.628-.16-3.161.48-4.078.268a52.22 52.22 0 0 1-8.913-2.606c-1.011-.507-.75-.852-1.761-1.36zm10.186-3.054l-3.466-.217c.29.1-.206.23.112.366 1.65.709 4.412 1.766 5.914 2.31 1.742-.8 2.836-2.321 4.576-3.119l-1.123-1.477c.152-3.865 1.161-1.854 2.031-3.517-.391.219-2.944-.145-5.01-.463 1.981 1.824 1.95 3.14 1.472 4.182-.533 1.161-1.766 1.944-4.506 1.935z" class="cls-10" data-name="Path 667" transform="translate(-254.6 -1279.198)"/>
            <path id="Path_668" d="M259.1 1305.39c-.134 2.068 1.16 3.242.979 3.627 10.644 10.2 24.022 13.042 36.994 8.448 2.586-.916 4.782-3.28 7.242-4.9a20.069 20.069 0 0 1 3.637-1.707 18.008 18.008 0 0 1 2.591-.445c.254-.044 1 1.248 1.171 1.158s1.123-1.974.776-2.431c-.083-.112-1.143.544-1.27.54-.577-.013-2.3.376-2.124.276l-15.517 5.028c-5.162-.129-10.339-.289-15.5-.417l-10.089-2.218q-2.255-1.064-4.512-2.124l-4.377-4.833z" class="cls-6" data-name="Path 668" transform="translate(-254.96 -1274.311)"/>
            <path id="Path_669" d="M263.451 1301.767c-.711-.017-1.2 1.248-2.326 1.082-.312.612-.709-.11-.491.755.066.261.91-.038 1.172-.4.408-.557.358.061.594-.057 1.108-.549 1.033-1.264 2.086-.4.195.158 1.387-.985.033-1.274a4.6 4.6 0 0 1-1.068.3z" class="cls-11" data-name="Path 669" transform="translate(-253.724 -1277.598)"/>
            <path id="Path_670" d="M264.381 1302.686c-1.143-.265-.542.423-1.724-.018-.5-.187-.355 1.119 1.34.62.614-.182.3.849 1.953.518.36-.071.463.461.581-.408.125-.932-1.5-.489-1.959-.637-.134-.044-.029-.037-.191-.074z" class="cls-11" data-name="Path 670" transform="translate(-252.188 -1276.628)"/>
            <path id="Path_671" d="M282 1306.726c-1.143-.265-.542.425-1.724-.016-.5-.189-.355 1.117 1.34.617.614-.18.3.851 1.952.52.36-.074.465.459.583-.41.125-.93-1.5-.487-1.959-.636-.134-.044-.029-.039-.191-.076zm-16.8 4.9c-1.145-.265-.542.423-1.726-.018-.5-.187-.355 1.119 1.34.62.614-.182.3.849 1.953.518.36-.071.463.461.581-.408.127-.93-1.5-.489-1.959-.637-.134-.043-.029-.037-.189-.074zm10.646 3.181l1.114-1.573c1.033-.448 1.711-1.439 2.786-1.594 1.92-.279 3.519-.81 5.371-.49a6.937 6.937 0 0 1 2.621.711c-.244.145-.485.3-.724.454a7.622 7.622 0 0 0-1.178 1.283q-.143.678-.289 1.356c.335-.581.987-.932 1.321-1.512.882-.393 1.43-1.318 2.332-1.41a12.491 12.491 0 0 1 4.756.414 8.737 8.737 0 0 1 2.97 1.813c.279.23.364.715.546 1.071-.007-.639.344-1.543-.022-1.92a8.962 8.962 0 0 0-3.944-2.154 7.7 7.7 0 0 0-3.611.057 9.458 9.458 0 0 0-1.461.485 9.238 9.238 0 0 0-4.037-1.557 12.868 12.868 0 0 0-4.64.188 8.143 8.143 0 0 0-2.959 1.088c-.522.32-.957 1.459-1.4 1.906.149.461.3.923.448 1.384a9.979 9.979 0 0 0-2.628-2.591 8.169 8.169 0 0 0-3.539-.906c-.527-.066-1.623-.822-2.744-1.042a7.833 7.833 0 0 0-3.284.189 8.519 8.519 0 0 0-1.672.868c-.125.228-.481.253-.606.481-.369.676-.094.843.18.487.928-1.2 3.106-1.786 4.725-1.617a13.938 13.938 0 0 1 2.707 1.024c1.123.189.957.643 1.5.827.384.129 1.446-.083 2.133.276 1.193.623 2.165 2.994 3.052 3.982.27.3.254.788.379 1.182.143-.61.766-1.365.43-1.83-.448-.623-.2-.693-.634-1.329zm-15.2-9.872c.491.129.73-.6.958-.691 1.626-.614 3.592-1.391 4.7-1.287a23.085 23.085 0 0 1 3.091.833c1.915.323 3.047.257 4.712 1.128a9.207 9.207 0 0 1 2.65 2.446c.27.3.254.788.38 1.181.143-.61.765-1.365.43-1.83-1.011-1.4-1.246-1.244-2.782-2.073a15.906 15.906 0 0 0-4.956-1.213c-.527-.066-1.744-.66-2.867-.879a7.8 7.8 0 0 0-3.282.187 22.309 22.309 0 0 0-3.26 1.592c-.4.268-.287.564.224.6zm18.285 3.161c.309-.465.893-1.632 1.378-1.807a11.266 11.266 0 0 1 3.13-1.022 21.91 21.91 0 0 1 6.3.583 14.558 14.558 0 0 1 4.092 1.937c.391.243.553.735.829 1.1-.075-.649.294-1.551-.226-1.944a11.272 11.272 0 0 0-3.043-1.2c-.8-.3-1.871-.676-2.692-.885a12.359 12.359 0 0 0-4.611-.274 9.956 9.956 0 0 0-3.5.885 7.462 7.462 0 0 0-1.419 1.257q-.119.681-.241 1.362zm-9.378-6.621l-.228.86c4.473-2.606 6.195-2.683 11.48-1.426.6.345.309.024.9.369-.035.652.445 1.408.408 2.062a3.262 3.262 0 0 1 1.41-1.255c3.378-1.334 7.431 1.027 9.337 1.823.294-1.669 6.042 1.544 6.674 1.893-1.4-3.078-3.824-2.725-7.288-3.554l-5.741-1.842-3.523.421c-5.838-2.27-7.8-2.552-13.433.649zm-1.612 3.062c-1.075-.241-.731 1.042-.035.731.436-.193.321.871 1.338.165.167-.116 1.63.587.759-.72a.968.968 0 0 0-1.25-.209c-.314.309-.671.066-.812.033zm11.419 8.106c.485.158.8.542.693.858s-.579.443-1.064.285-.877.013-.774-.3.658-1 1.145-.841zm6.1-6.653c.559.132 2.205.008 1.2.553s-.994.522-1.494.36a5.492 5.492 0 0 1-1.362-.529c-.079-.108.577-.123.608-.221.083-.253.492-.3 1.051-.163zm-11.71-4.186c-.1.314-.581.443-1.066.285s-.875.013-.774-.3c.467-1.433 2.073-.7 1.84.018zm23.831 9.137c-1.077-.241-.732 1.042-.037.732.436-.193.322.871 1.338.167.169-.117 1.63.584.759-.722a.963.963 0 0 0-1.248-.208c-.314.307-.673.064-.812.031zm-9.78 3.387c.485.158.8.542.693.856s-.579.445-1.064.287-.877.013-.774-.3.658-1 1.145-.84zm2.47-.762c.56.132 2.205.007 1.2.553s-.994.522-1.492.36a5.39 5.39 0 0 1-1.362-.529c-.081-.109.575-.121.606-.22.083-.252.492-.3 1.051-.164z" class="cls-11" data-name="Path 671" transform="translate(-254.044 -1279.586)"/>
            <path id="Path_672" d="M264.771 1308.943q-.86-.3-1.722-.61c1.948-.231 10.155-.705 7.775-3.951 1.081-.23 2.45 1.468 3.179 2.374.518.641 1.106.979.707 1.7a3.256 3.256 0 0 1-2.558 1.34c-2.591.231-4.783-.715-7.382-.855zm15.581-8.22c-.173.032-2.788-1.069-2.637-.985 1.226.68-.68 1.663-1.937 1.885-1.573.281-3.278.505-4.851.785 1.874.347 7.872 2.582 8.723 1.913.548-.43.847-.169.735-.886-.057-.358-.406-.531-.237-.88.2-.412.588-1.342.2-1.833zm17.149 4.9a7.055 7.055 0 0 0-3.374-2.286c.009.669.43 1.47.029 2.007-.32.426-1.132.351-1.595.086-.419-.237-.386-.882-.579-1.325l-.842 1.344c.827.538 1.213 1 2.04 1.538 0 .48.007 1.428.011 1.91 1.1-.594 2.8-1 3.462-1.494s1.285-1.055.847-1.779zm1.235 6.766c-.039-.164.656-.052.617-.215-.042-.182-.816-.641-.858-.823-.029-.132.735-.347.706-.48-.1-.413-.989-.746-1.084-1.16l2.663.741c.336.732.669 1.463 1.005 2.194q-.549 1.1-1.093 2.2l-3.063.723-1.924-3.406c.674.052 1.426.607 2.1.658.335.026.6-.454.93-.428zm-11.287 4.3c.753-.09-1.511-.993.153-1.386 1.165-.276 2.411-.094 3.758-.608.979-.373-.118-.994-.195-1.623-.057-.469 1.077-.917.73-1.391 3.348 1.367 3.593.869 4.223 4.1-3.108 1.63-5.517 2.025-8.668.908zm-11.421-.055c-.465-.393-1.132-2.764-1.6-3.159.731.183 2.51 3.029 3.782 2.341a11.606 11.606 0 0 0 2.507-1.389c.123-.1-.608-.4-.47-.509.311-.239.792.195 1.139-.048 1.76-1.226 2.92-2.239 4.032-2.316.384.358-.224.406-.752 1.272a3.018 3.018 0 0 0 .083 2.933c-.14.812 2.483 1.209 2.343 2.021-.956.116-4.6-.038-5.559.076a4.346 4.346 0 0 0-1.167-.346c-1.582-.228-2.395-.015-4.342-.877zm5.715-7.369c-.573-.2-2.009.147-2.584-.057.753-.09-.092-.228 1.571-.621 1.165-.275 4.4-.283 5.748-.783 1.132-.417.469-1.371.492-1.919.007-.2-2.442-.193-.246-.577 1.253.223 3.607.7 4.063 1.467s.906 1.645.474 2.428-3.1 1.009-3.957 1.456c-2.312-.333-2.646-1.47-5.563-1.393zm-18.6 5.007c-1.476-.9-1.47-1.441-1.058-1.395 1.9.476 9.578 3.238 8.507-.643a4.918 4.918 0 0 1 2.979 2.415l-.419 2.437q-1.433.174-2.869.346l-7.139-3.159z" class="cls-12" data-name="Path 672" transform="translate(-252.653 -1279.049)"/>
            <path id="Path_673" d="M276.477 1324.839a28.672 28.672 0 0 1-2.407-.844 22.53 22.53 0 0 1-2.224-.91 32.432 32.432 0 0 1-3.565-1.959c-.353-.23-.73-.419-1.093-.628-1.187-.687-3.317-2.284-4.523-3.126a30.282 30.282 0 0 1-3.043-2.942 4.933 4.933 0 0 1-1.035-1.209 15.75 15.75 0 0 1-1.479-3.479c-.3-.9-.086-.853-.193-1.426-.353-1.889.742-3.087.807-3.674.072-.651 1.647-1.645 2.194-1.867.213-.088.423-.182.625-.29a18.992 18.992 0 0 1 6.582-1.785 22.6 22.6 0 0 1 4.348.021 4.554 4.554 0 0 1 .8.068.5.5 0 0 0 .366-.081c.639-.375 1.345-.61 2-.943a9.034 9.034 0 0 1 3.414-.673 10.967 10.967 0 0 1 2.181.155 24.8 24.8 0 0 1 3.55.68 11.986 11.986 0 0 1 2.205.746c.417.231.634-.248 2.273-.278.43-.009.858.044 1.284.037a17.917 17.917 0 0 1 2.249.349 7.269 7.269 0 0 1 3.425 1.453.472.472 0 0 0 .382.072 9.845 9.845 0 0 1 3.582.351 3.675 3.675 0 0 1 1.635.774c.213.2.377.189.526.417a2.985 2.985 0 0 0 1.06.936 19.431 19.431 0 0 1 4.664 2.922l2.573 2.084a3.69 3.69 0 0 0 1.586.777 8.135 8.135 0 0 0 2.152-.1 13.048 13.048 0 0 1 2.014-.326c.388.022.64.522.663.862a8.887 8.887 0 0 1-.627 4.706c-.322.638-.7 1.75-1.393 2.082-1.226.586-1.7-1-2.949-.854a5.861 5.861 0 0 0-2.861.866 17.5 17.5 0 0 0-3.469 2.773 19.262 19.262 0 0 1-1.755 1.608 14.766 14.766 0 0 1-4.355 2.466 47.184 47.184 0 0 1-5.228 1.272 39.69 39.69 0 0 1-5.153.268 29.3 29.3 0 0 1-3.165-.042c-.57-.042-1.136-.127-1.705-.175a30.443 30.443 0 0 1-4.862-.583 31.46 31.46 0 0 1-2.067-.555zm19.314-14.065c2.08.489.63.252 3.234-.763.467-.182.959-.289 1.428-.461a9.24 9.24 0 0 1 2.163-.406c.211-.162.472.176.807.121a3.074 3.074 0 0 1 1.373.428 3.937 3.937 0 0 1 1.707 1.83c.628 1.667.492 2.523-.864 3.758-.265.242-.535.242-.7.345a5.74 5.74 0 0 1-1.25.459c-.5.166-1.97.149-2.231.516-.752 1.063-2.565 1.41-3.631 1.875-1.477.645-2.339.41-3.837.395-1.123-.009-2.159-.615-2.76-.566l-.728.039c-.419.149-3.216.272-3.817.322-2.819.229-2.922-.38-4.368-.507a7.6 7.6 0 0 1-1.362-.213 2.676 2.676 0 0 0-1.075-.011 7.355 7.355 0 0 1-2.091.424 10.353 10.353 0 0 1-2.571-.287 6.776 6.776 0 0 1-1.024-.209 15.7 15.7 0 0 0-1.977-.4l-1.944-.47a12.515 12.515 0 0 1-3.306-1.378c-.209-.169-.419-.149-.718-.408a9.385 9.385 0 0 1-1.538-1.306c-.266-.316-.546-.621-.79-.954a11.945 11.945 0 0 1-1.474-1.577 17.285 17.285 0 0 1-2.58-4.262 6.4 6.4 0 0 1-.208-1.194c-.107-.864.761-1.281 1.415-1.573a19.619 19.619 0 0 1 4.6-1.448 6.442 6.442 0 0 1 1.327-.255c.351.053.979-.3 2.253-.322 1.744-.031 2.078.672 2.3.235.057-.112.461-.726.305-.834-.294-.2-.32-.039-.607-.066a13 13 0 0 0-4.451-.038 37.073 37.073 0 0 0-4.138 1.016 13.26 13.26 0 0 0-3.464 1.556c-.235.147-.368.4-.557.472-.505.189-.176 1.358-.057 1.672a23.3 23.3 0 0 0 2.507 4.563c.489.731 1.15 1.04 1.873 1.85.1.118.228.222.327.346a9.034 9.034 0 0 0 2.349 2.437 9.915 9.915 0 0 0 1.944 1.042 7.66 7.66 0 0 0 1.75.6 13.889 13.889 0 0 1 1.737.655 27.381 27.381 0 0 0 4.787 1.246c.289.053.583.082.866.162.809.224 2.475.3 2.725.382l2.562.218a28.356 28.356 0 0 0 4.71.063c.4-.029.794-.02 1.187-.066a15.631 15.631 0 0 1 3.041-.112 18.44 18.44 0 0 0 2.4.12 22.049 22.049 0 0 0 7.511-1.331 8.392 8.392 0 0 1 1.448-.54c.52-.119 1.851-.847 2.521-1 .638-.147.812-.455 1.345-.645a32.209 32.209 0 0 1 3.668-1.192 20.845 20.845 0 0 1 2.81-.5c.318-.009.632.031.95.05.447.027.52.632.469.976a4.264 4.264 0 0 1-.248.794.235.235 0 0 1-.463-.05 1.256 1.256 0 0 0-.7-1.022c-.616-.175-.4-.294-.7-.305a17.773 17.773 0 0 0-2.31.538 14.386 14.386 0 0 0-3.051 1c-1.246.615-2.578.961-3.833 1.571-1.161.564-2.124.774-3.036 1.187a16.246 16.246 0 0 1-4.752.873l-2.927.12a38.135 38.135 0 0 0-7.437-.114l-2.26-.057a49.389 49.389 0 0 0-4.941-.281l-2.058-.359c-.667-.189-1.226-.164-2.111-.469-.915-.314-2.282-.742-3.089-1.117-.7-.325-1.413-.447-2.141-.792a11.437 11.437 0 0 1-3.5-2.134c-.84-.618-1.347-1.864-2.246-2.573l-.948-.794a8.688 8.688 0 0 1-1.373-1.755 12.617 12.617 0 0 1-1.47-2.5 5.521 5.521 0 0 1-.461-1.494.093.093 0 0 0-.05-.081l-.369 1.689a14.65 14.65 0 0 0 1.27 4.2l.967 1.667a20.89 20.89 0 0 0 2.2 2.106 24.033 24.033 0 0 0 2.1 1.676c.851.6 1.632 1.288 2.529 1.821.362.215.713.444 1.077.656.132.077.213.2.353.276a39.71 39.71 0 0 0 5.094 2.505c.369.119.724.283 1.081.435a38.435 38.435 0 0 0 5.2 1.639c.886.149 1.783.2 2.67.329.967.135 1.944.153 2.914.267a36.242 36.242 0 0 0 7.2-.132l3.787-.856c.542-.123 1.079-.278 1.623-.383 2.376-.45 5.092-2.426 6.726-4.173.9-.961 1.2-1.024 1.874-1.685a2.134 2.134 0 0 1 .555-.41 21.584 21.584 0 0 1 4.761-1.79c.441-.119 1.318.153 1.369.809.031.41.54.952.884.507a6.223 6.223 0 0 0 .968-2.429c0-.3.265-.408.329-.662a4.273 4.273 0 0 0-.044-2.778.169.169 0 0 0-.2-.083 7.786 7.786 0 0 0-1.161.255 5.56 5.56 0 0 1-3.778-.075 5 5 0 0 1-1.147-.794c-.4-.31-.7-.74-1.13-1.018-.112-.072-.217-.158-.325-.24a41.6 41.6 0 0 0-4.4-2.784c-.509-.3.213 1.036-1.527 1.935l-.748.408c-.079.164-1.283.474-1.869.8-.555.3-1.193.365-1.729.719a9.315 9.315 0 0 1-1.279.544zm-24.987-.465a2.121 2.121 0 0 0 .911.149c.154-.035 3.56.5 4.166.384a7.615 7.615 0 0 0 2.1-.6 3.713 3.713 0 0 0 1.768-1.241c.312-.392.1-.682.27-1.06.3-.65-.11-1.172-.307-1.762-.1-.287-.781-.75-1.038-.887a11.056 11.056 0 0 0-2.507-1.022l-1.207-.261a3.155 3.155 0 0 1-.658-.1c-.724-.265-1.417-.055-1.816-.277a3.712 3.712 0 0 0-.658-.333c-2.051-.652-2.4-.812-4.41-.287-.663.175-.8.459-1.3.581a8.588 8.588 0 0 0-2.7 1.275l-.445.419a2.543 2.543 0 0 0-.592.7 1.159 1.159 0 0 0 .038 1.432c.017.019.029.039.044.057a7.353 7.353 0 0 0 1.922 1.689 9.755 9.755 0 0 0 2.586 1.009c.369.11.961-.173 1.689-.171a6.709 6.709 0 0 1 2.143.309zm22.278-4.809a8.636 8.636 0 0 0-.954-.209c-.491-.055-1.059-.3-1.643-.393a11.3 11.3 0 0 0-4.767-.043c-.594.182-1.15.456-1.737.66a4.852 4.852 0 0 0-.766.469 2.834 2.834 0 0 0-1.2 1.318c-.314.924-.632 1.448.572 2.348.908.68 1.964.175 2.983.291a16.22 16.22 0 0 1 3.945.729 3.505 3.505 0 0 1 1.2.625c.29.267.564-.02.639.052.21.2 1.053-.268 1.577-.3a7.01 7.01 0 0 1 1.3-.245c.314 0 .779-.183.856-.167.336.072.706-.371 1.224-.52.827-.235 1.509-1.659.908-2.374-1.005-1.195-1.637-1.248-2.916-1.784-.412-.173-.842-.287-1.226-.459zm-14.293 7.692c-.132.423-.23.467.051.866a12.837 12.837 0 0 1 .6 1.159 9.347 9.347 0 0 0 .524.985c.4.47.112.724.761 1.065a9.149 9.149 0 0 0 2.79.662 13.834 13.834 0 0 0 5.111.063c.45-.077 1.108-.063 1.375-.3.312-.278-.428-.309-1.053-1.077a2.29 2.29 0 0 1-.764-2.01c.1-1.551 1.7-1.943 2.308-2.549.072-.072.66-.268-.182-.632l-1.316-.55a15.92 15.92 0 0 0-2.619-.478 11.379 11.379 0 0 0-2.257.064 5.044 5.044 0 0 0-2.78.474 6.233 6.233 0 0 0-1.83 1.035c-.121.158-.356.259-.437.43a2.774 2.774 0 0 0-.281.792zm-8.556 3.259l3.093.784a34.228 34.228 0 0 0 3.361.664 3.63 3.63 0 0 0 2.157-.274c.342-.057.9-.386.676-.954l-.669-1.474a3.7 3.7 0 0 0-.627-1.061 6.557 6.557 0 0 0-4.262-2.253c-1.07-.184-2.146-.739-2.983-.9-.7-.136-2.813-.532-3.391-.277a11.531 11.531 0 0 0-2.429.945c-.243.178-.487.116-.764.3-.518.345-.07.93.3 1.187.287.2.285.386.511.58a12.223 12.223 0 0 0 2.33 1.6c.246.112.5.2.743.323a11.434 11.434 0 0 0 1.955.811zm26.494-4.868a5.1 5.1 0 0 0-2.249-.336 12.9 12.9 0 0 0-1.4.278 8.44 8.44 0 0 0-2.547 1.029c-.461.344-.492.02-1.468 1.139-.162.184-.289.4-.465.572-.467.47.241.823.208 1.205a3.494 3.494 0 0 0 .983 1.512 5.583 5.583 0 0 0 1.786.967 10.884 10.884 0 0 0 2.293.513 23.491 23.491 0 0 0 2.9-.053c.364-.171.921-.158 1.4-.356a5.289 5.289 0 0 0 1.562-.737c.513-.412 1.024-.583 1.163-1.533a.889.889 0 0 0 .024-.445 2.917 2.917 0 0 0-.351-.853 5.2 5.2 0 0 0-.448-.753 5.826 5.826 0 0 0-1.615-1.492c-.568-.222-1.128-.469-1.773-.656zm-17.57-6.8a9.455 9.455 0 0 0 3.7.476 9.282 9.282 0 0 1 1.829-.419c.242 0 .375-.316.272-.522a1.7 1.7 0 0 1-.145-1.663c.2-.959.752-.987.439-1.18a17.521 17.521 0 0 0-4.8-1.319 4.709 4.709 0 0 0-.845-.134 23.778 23.778 0 0 0-2.446.018l-2.264.73a12.18 12.18 0 0 0-2.08 1c-.356.217-1.1 1.019-.807 1.136a3.348 3.348 0 0 0 1.68.447c.764-.112 1 .154 1.656.325l2.823.768c.3.121.6.21.989.34zm25.163 5.28a6.049 6.049 0 0 0-1.737-.265 28.333 28.333 0 0 0-2.889.461 17.557 17.557 0 0 0-1.77.788c-.32.1-.447.47.208.728a5.962 5.962 0 0 1 2.891 2.112c.687.808.083 2.04 1.5 1.788a7.259 7.259 0 0 0 3.03-.974c.764-.673.561-1.1.821-1.869a.977.977 0 0 0-.088-.827 9.786 9.786 0 0 0-.8-1.156 2.809 2.809 0 0 0-1.174-.787zm-10.578-4.752l1.205.283c.226.055.241.052.366-.138.266-.4.364-2.121-.792-2.6l-1.268-.706a7.706 7.706 0 0 0-2.168-.685 12.73 12.73 0 0 0-4.094.123 2.957 2.957 0 0 0-1.575.955c-.733.658.2 1.45.092 1.729-.123.331.4.412.768.184a8.72 8.72 0 0 1 2.619-.248 14.387 14.387 0 0 1 4.021.8c.263.089.518.2.827.3zm2.01-2.023a4 4 0 0 0 .334 1.29c.208.469-.167.908-.4 1.292l1.216.9a.712.712 0 0 1 .173.125c.906.82.684 1.354.853 2.277.033.18.678-.086.8-.114l1.148-.392a3.83 3.83 0 0 0 1.8-1.06c1.013-.922.274-2.582-.138-2.518a.193.193 0 0 1-.165-.083 6.875 6.875 0 0 0-3.054-1.47 17.862 17.862 0 0 0-2.567-.248zm-29.474 7.191l-1.073-.391c-2.856-1.148-2.444-1.808-3.176-2.443a1.522 1.522 0 0 1-.406-1.058 2.248 2.248 0 0 1 .371-1.139c.757-1.265 2.293-1.61 2.284-1.772a16.607 16.607 0 0 0-3.934 1.5c-.254.138-.266.441-.356.689a.447.447 0 0 0 .005.347 19.3 19.3 0 0 0 1.518 2.992 21.167 21.167 0 0 0 1.432 2.079c.248.316.529.231.7.441.263.321.252-.171.772-.413a19.127 19.127 0 0 0 1.863-.834zm6.347.639c1.171.583 3.624.695 4.063 1.059l1.207.8c.571.281.63-.585 1.152-1.219.239-.292.632-.077 1.077-.584a.684.684 0 0 1 .261-.2c.487-.193.943-.458 1.446-.612.2-.062.132-.171.3-.2.38-.064-.891-.246-.77-1.573a2.907 2.907 0 0 1 .353-1.479 10.2 10.2 0 0 1 1.06-1.267l-.007-.053a15.256 15.256 0 0 1-3.242-.318c.276.268.763.594.88.923a2.869 2.869 0 0 1 .215 1.948 4.313 4.313 0 0 1-.4.963 2.99 2.99 0 0 1-.783.853 10.211 10.211 0 0 1-1.744.865 4.072 4.072 0 0 1-2 .314 1.666 1.666 0 0 0-.7.022 14.074 14.074 0 0 1-2.369-.245zm41.109 4.328c-.121-.6-.937-.3-.274.121a.183.183 0 0 0 .274-.121zm-15.436 6.118c-.072.253-.581.283-.8.323a9.635 9.635 0 0 1-1.895.327 1.876 1.876 0 0 0-1.057.178 5.85 5.85 0 0 0-1.025.36 4.928 4.928 0 0 1-2.246.62c-.452.06-.516-.3-.02-.445a8.551 8.551 0 0 0 1.939-.626 16.739 16.739 0 0 1 3.17-.717c.6-.057 1.251-.344 1.672-.353a.253.253 0 0 1 .259.333zm-12.006 1.5c1.512.392 3.848-.417 3.846.27a.31.31 0 0 1-.342.26l-1.9.055a10.564 10.564 0 0 1-2.51-.086c-1.354-.288-2.158.2-2.172-.277a.229.229 0 0 1 .208-.248 4.448 4.448 0 0 1 .827-.07c.531.042 1.062 0 1.593.05.152.014.314-.063.448.046zm-8.424-.537c.73.263 1.8.173 1.772.641-.02.274-.494.09-.663.066a3.614 3.614 0 0 1-1.794-.467c-.233-.187-.208-.494.186-.4.167.044.333.1.5.155zm22.835-2.157c.325.114.147.566-.16.564-.176 0-.483.283-.807.368-.261.07-.526.119-.79.169s-.441-.265-.25-.32c.388-.106 1.658-.889 2.007-.781zm-2.876 2.51c-.353-.12-.235-.437.175-.562.244-.074.625-.238.877-.133.274.116.088.438-.114.518a2.128 2.128 0 0 1-.937.177zm-17.983-1.845c-.459-.116-.325-.632.142-.535.38.077.873-.044.922.279.075.48-.86.29-1.064.255zm14.47.23a.241.241 0 0 1 .011-.478c.211-.05.895-.2 1.066-.031.191.195.013.4-.2.428l-.873.081zm-21.638-1.88c.2.094.643.22.539.518-.153.436-1.323.011-1.09-.443.114-.219.36-.134.551-.075zm-2.839-1.044c.724.184.77.768.34.667-.221-.052-1.068-.136-.941-.548.083-.272.4-.162.6-.12zm17.1 4.2c-.439-.138-.52-.588.38-.642a.314.314 0 0 1 .134.606 1.036 1.036 0 0 1-.514.035zm-1.568 2.177c-.6-.189-.252-.771.537-.558.255.068.463.724-.537.558zm-3.47-3.4c-.48-.156-.27-.831.59-.507.456.171.145.65-.59.507zm-7.023-1.4c.54.153.266.84-.435.566a.309.309 0 0 1 .108-.607c.108 0 .217.026.327.041zm10.267 1.306a.281.281 0 0 1 .039-.555c.246-.015.695-.071.729.276.039.388-.542.314-.768.279zm18.766-3c.482.162.2.748-.371.724-.342-.015-.437-.474.184-.715a.266.266 0 0 1 .187-.009zm-1.527 1.281a.529.529 0 0 1-.6.292c-.412-.174-.123-.632.2-.713a.337.337 0 0 1 .4.421zm-13.906 1.748c-.634-.292.073-.884.491-.548.334.268-.046.684-.491.548zm-4.293-.548c.434.125.353.663-.515.523-.309-.051-.3-.714.515-.523zm-22.59-7.11c.717.384.224.8-.068.717-.531-.16-.417-.851.068-.717zm25.551 6.97c.562.176.162.847-.369.59-.367-.178-.182-.744.369-.59zm-1.849 1.5c-.118.414-.937.311-.788-.16a.413.413 0 0 1 .788.16zm5.912 2.294c-.4-.129-.3-.625.375-.535.546.074.37.706-.375.535zm5.956-3.644c-.094.325-.985.371-.924-.059.035-.239.537-.239.715-.246a.229.229 0 0 1 .21.3zm-29.386-2.821a.362.362 0 0 1-.693-.207.362.362 0 0 1 .693.207zm24.845 3.49c-.461-.156-.184-.748.318-.595a.306.306 0 0 1 .035.575.668.668 0 0 1-.353.02zm-21.522-.584c-.54-.158-.086-.961.327-.559.321.314.1.683-.327.559zm3.729.906c-.134-.072-.314-.138-.263-.329.07-.257.542-.114.73-.088.265.037.3.382-.062.447a1.32 1.32 0 0 1-.4-.029zm30.1-3.6c-.478-.149.044-.759.439-.572.445.211-.044.7-.439.572zm-21.423 4.1a.344.344 0 0 1-.658-.2.344.344 0 1 1 .658.2zm10.668 1.353c-.09.307-.757.342-.777-.029-.022-.408.932-.481.777.029zm-28.533-6.456a.341.341 0 0 1 .213-.647.341.341 0 0 1-.213.647zm18.612 7.417c-.548-.175-.217-.687.3-.54.351.1.209.682-.3.54zm-11.033-3.949c.439.127.43.511.13.594-.5.138-.821-.717-.13-.594zm-10.092-6.245a.335.335 0 0 1-.638-.2.335.335 0 0 1 .638.2zm33.069 8.617c.1-.3.768-.349.689.036-.1.482-.836.381-.689-.036zm-15.616-.73a.292.292 0 0 1 .018-.575c.614-.1.6.728-.018.575zm-9.231-3.3a.289.289 0 1 1-.142.557c-.448-.136-.32-.706.142-.557zm27.1 1.2c.445.132.131.693-.254.58-.412-.119-.079-.678.254-.58zm9.293-5.789c.086-.272.6-.263.669.009.107.426-.825.489-.669-.009zm-31.966 6.533c-.6-.16-.09-.941.346-.3.042.063.118.12.064.208a.353.353 0 0 1-.41.088zm27.5-12.992c.112-.347.72-.187.61.131-.132.382-.744.275-.61-.131zm-25.516 13.072a.289.289 0 0 1 .16-.555c.478.127.237.665-.16.555zm33.243-7.56c-.138.369-.717.158-.568-.2s.695-.139.568.2zm-9.366 7.459a.292.292 0 0 1-.169.559.292.292 0 0 1 .169-.559zm-1.389-1.189a.29.29 0 0 1-.189.548.29.29 0 0 1 .189-.548zm3.1.164c-.121.36-.693.256-.573-.1.09-.274.7-.263.573.1zm4.7-6.777c.327.1.206.489-.184.47-.342-.015-.274-.562.184-.47zm1.147.048c.57.147-.085.674-.344.322-.186-.254.162-.384.344-.322zm-47.423.2c-.445-.178-.208-.788.255-.324.193.193-.024.408-.255.324zm38.457 8.665a.265.265 0 0 1-.5-.164.265.265 0 0 1 .5.164zm9.288-9.9c.309.092.184.6-.145.487a.255.255 0 0 1 .145-.487zm-1.672-.435a.238.238 0 0 1-.459-.122.238.238 0 0 1 .459.122zm-26.94 11.853c-.259-.03-.075-.458.176-.393s.312.432-.059.4l-.118-.011zm23.743-15.161a.169.169 0 1 1-.118.316.169.169 0 1 1 .118-.316zm-37.385-.509c.6.175.318.926-.327.7-.41-.143-.425-.842.327-.7zm9.778.307c-.8-.254-.2-1.1.494-.487a.307.307 0 0 1-.23.522 1.706 1.706 0 0 1-.265-.035zm-3.1 2c-.592-.233-.311-.889.307-.664.476.173.246.836-.307.664zm2.28-4.62c-.2-.079-.5-.177-.423-.442.116-.4 1.106-.118.987.3-.075.261-.351.208-.562.141v.006zm.333 1.171c-.673-.145-.147-.967.485-.465.25.2.042.647-.485.465zm-5.346 1.931a.373.373 0 0 1 .231-.709.373.373 0 0 1-.231.709zm2.962.1c-.665-.3.02-.912.391-.557.294.281-.022.689-.391.557zm4.4-.024c-.483-.224-.209-.783.34-.559.364.151.279.753-.34.559zm-13.8.077c-.553-.169-.263-.8.268-.575.43.18.182.715-.268.575zm7.911.963c-.141.336-.755.252-.739-.125.02-.456.891-.347.739.125zm-3.958-.073c-.474-.116-.287-.728.21-.551.421.151.233.689-.21.551zm7.013.5c-.447-.162-.283-.684.176-.561a.3.3 0 1 1-.176.561zm-6.638-1.672a.322.322 0 0 1 .182-.617.322.322 0 1 1-.182.617zm5.671-3.3c-.127-.07-.32-.151-.27-.347.092-.357.818-.175.711.193-.05.167-.213.235-.441.154zm.919 2.4c-.607-.275-.134-.75.34-.412.164.116.224.513-.34.412zm.566 1.106c-.125.375-.759.133-.643-.213s.77-.164.643.213zm.906.7a.285.285 0 1 1 .219-.523c.448.2.211.674-.219.523zm-6.039-.132c.3.1.36.454.075.548-.38.126-.709-.439-.283-.555a.331.331 0 0 1 .208.007zm-4.863-.057c-.119.4-.753.125-.638-.2s.752-.178.638.2zm12.95-1.665a.311.311 0 0 1 .193-.59.311.311 0 0 1-.193.59zm-1.463-1.509c-.509-.127-.318-.853.279-.39.261.2.024.465-.279.39zm-10.4 3.387c-.1.376-.713.156-.608-.164.1-.3.711-.213.608.164zm10.9-2.678c.465.132.075.722-.3.369-.243-.228.035-.448.3-.369zm-14.791.527a.272.272 0 0 1-.149.522c-.318-.085-.169-.608.149-.522zm9.758-.6a.263.263 0 0 1-.156.5.263.263 0 0 1 .156-.5zm1.941-.254a.23.23 0 1 1 .147-.43.23.23 0 1 1-.147.43zm14.257 3.214c.527.166.222.816-.334.656-.494-.142-.292-.831.334-.656zm2.321 1.052c-.116.373-.858.252-.811-.171.057-.487.97-.367.811.171zm2.909-1.022c-.108.346-.917.224-.845-.183s1-.316.845.183zm-1.926.542c.158-.411.913-.219.72.252-.175.423-.864.116-.72-.252zm.741-1.546c-.524-.167-.171-.823.333-.582.386.185.195.72-.333.582zm-4.791.439c-.456-.143-.158-.868.386-.514.329.213-.116.6-.386.514zm6.4-.691a.337.337 0 0 1-.21.64.337.337 0 0 1 .21-.64zm-6.945 1.281a.327.327 0 0 1-.619-.209.327.327 0 0 1 .619.209zm2.244-1.494a.321.321 0 1 1-.6-.221.321.321 0 0 1 .6.221zm.4 1.407c-.5-.147-.171-.888.36-.448a.258.258 0 0 1-.132.45 1.528 1.528 0 0 1-.228 0zm-4.976.008c-.573-.177-.074-.772.283-.542s.081.608-.283.542zm9.982-.271a.327.327 0 0 1-.211.618.327.327 0 0 1 .211-.618zm-3.865-1.341a.329.329 0 0 1-.627-.2.329.329 0 0 1 .627.2zm-7.56 1.378a.294.294 0 0 1-.566-.156.294.294 0 1 1 .566.156zm7.72-.121a.276.276 0 0 1 .505.222.276.276 0 0 1-.505-.222zm-9.115-.493a.246.246 0 1 1-.167.459.246.246 0 0 1 .167-.459zm10.092-1.52a.256.256 0 0 1-.491-.143.256.256 0 0 1 .491.143zm-9.986 9.361c.492.156.358.835-.142.728-.709-.149-.623-.9.142-.728zm4.341-2.5c-.169.5-1.163.248-.851-.312a.472.472 0 0 1 .851.312zm-2.9 3.429c-.549-.189-.338-.869.224-.709.584.167.355.908-.224.709zm3.049-.48c-.457-.147-.274-.724.287-.7s.412.93-.287.7zm-.864-1.163c-.476-.145-.29-.768.334-.64.469.1.268.825-.334.64zm-1.272.481a.309.309 0 0 1 .022-.612.338.338 0 1 1-.022.612zm1.09.656a1.41 1.41 0 0 1 .182.109c.413.325-.386.788-.614.343-.149-.288.145-.523.432-.452zm-5.1-.763c.68.244-.011 1.016-.391.388-.154-.253.127-.483.391-.388zm2.3-.055c-.458-.151-.2-.592.2-.575s.327.75-.2.575zm1.689-1.395c-.119.412-.754.18-.645-.184s.763-.226.645.184zm1.865-1.8c-.524-.155-.246-.733.224-.5.366.186.129.59-.224.5zm1.92-1a.268.268 0 0 1-.507-.173.268.268 0 0 1 .507.173zm-14.191 3.164c.564.167.377.845-.29.735a.38.38 0 0 1 .024-.75 1.615 1.615 0 0 1 .266.015zm1.792.95c-.544-.14-.364-.9.3-.67.478.167.261.845-.3.67zm.917 1.288c-.527-.125-.261-.81.287-.676a.361.361 0 0 1-.1.713 1.279 1.279 0 0 1-.186-.036zm-4.078-3.137a.339.339 0 0 1-.136-.616c.491-.307 1.053.513.384.638a.47.47 0 0 1-.248-.022zm-3.247 1.841c-.8-.283-.254-.928.336-.5.263.189.1.619-.336.5zm-3.192-1.318c-.162-.082-.388-.189-.327-.413.1-.39.928-.2.86.2-.046.274-.325.237-.533.209zm4.842.625c-.561-.255-.184-.851.325-.573.344.188.206.684-.325.573zm-3.13-.533c.643.2.237.879-.4.458a.281.281 0 0 1 .195-.511 2.118 2.118 0 0 1 .208.047v.006zm5.654 2.264c-.564-.165-.237-.808.36-.5.285.147.206.562-.36.5zm1.1-2.541c-.559-.177-.009-.97.425-.417.246.316-.182.467-.425.417zm-6.54-.945c.5.165.171.844-.281.5a.287.287 0 0 1 .281-.5zm6.95 3.67c-.413-.09-.255-.614.34-.467.323.079.219.645-.34.467zm-3.326-.7c-.448-.162-.29-.66.187-.519.4.12.232.66-.187.519zm-2.518-2.275a.286.286 0 0 1-.162.547.286.286 0 0 1 .162-.547zm8.128 1.612a.264.264 0 0 1-.509-.136.264.264 0 0 1 .509.136zm18.129 1.906c-.2-.071-.349-.419-.092-.542.575-.277 1.314-.044.886.38a.863.863 0 0 1-.794.162zm-1.027-.963c-.436-.134-.443-.785.584-.564a.318.318 0 0 1-.075.625 2.492 2.492 0 0 1-.509-.061zm-.742 1.077c-.617-.248-.141-.851.362-.549.228.138.217.653-.362.549zm3.986-1.027c.4.118.233.6-.244.615s-.384-.825.244-.615zm1.132-.382c-.43-.147-.195-.647.143-.709.493-.094.4.741-.143.709zm-2.674-2.589c.443.151.156.733-.382.564a.271.271 0 0 1 .027-.533.894.894 0 0 1 .355-.031zm1.564 1.937c.448.178.132.684-.277.615-.5-.083-.232-.72.277-.615zm-5.052 1.032c-.649-.325.018-.891.456-.415.233.254-.2.5-.456.415zm-1.273-.9c.612.25.094.913-.322.487-.241-.247-.051-.531.322-.487zm5.6-.637c-.171.41-.963.141-.649-.269a.434.434 0 0 1 .627.028.256.256 0 0 1 .022.241zm-6.915 1.854c-.561-.243-.334-.691.193-.522.384.123.213.645-.193.522zm4.739-1.5c-.437-.151-.044-.649.4-.5.5.175 0 .632-.4.5zm3.063-.375a.263.263 0 0 1-.042-.48c.276-.16.827.156.476.39a.582.582 0 0 1-.434.09zm-8.755.393c.349.119.241.676-.147.544-.364-.125-.272-.687.147-.544zm7.635.711a.289.289 0 0 1-.561-.139c.1-.351.658-.209.561.139zm-4.754.835c.5.143.055.751-.34.325-.222-.241.132-.406.34-.325zm3.552-4.034a.266.266 0 1 1 .164-.505.266.266 0 1 1-.164.505zm-13.623-8.588c-.421-.141-.235-.715.3-.65.465.057.384.779-.3.65zm-1.783-1.93c-.575-.189-.171-.887.353-.514.213.154.221.6-.353.514zm-2.462 1.533c-.612-.183-.04-.856.406-.4.285.288-.167.487-.406.4zm4.728-1.716a.32.32 0 0 1-.206.6.32.32 0 0 1 .206-.6zm-1.5 1.671c.456.176.026.751-.436.423-.233-.166-.134-.5.436-.423zm2.349-.555a.313.313 0 0 1-.6-.187.313.313 0 1 1 .6.188zm-1.847-.577c.448.122.07.766-.421.408a.23.23 0 0 1 .1-.412 1.344 1.344 0 0 1 .322 0zm-9.413-.662c.143-.434.886-.1.533.235-.232.219-.641.1-.533-.235zm1.138-.127c-.382-.114-.16-.59.248-.52.38.064.129.636-.248.52zm6.555 1.5c-.535-.167-.25-.61.228-.434.233.087.27.5-.228.434zm-.1.445c.425.123-.068.733-.428.307-.23-.272.132-.392.428-.307zm-5.559-1.3a.276.276 0 0 1-.533-.145c.09-.325.636-.195.533.145zm30.02 8.674c-.112.4-.893.327-.783-.143.083-.355.8-.353.783.143zm-3.392 2.369c-.513-.154 0-.786.437-.545.4.22-.024.6-.437.545zm.792 1.106c-.469-.107-.178-.529.233-.559a.3.3 0 0 1 .062.6.963.963 0 0 1-.3-.037zm2.782-.989c-.459-.139-.167-.735.292-.56.419.158 0 .614-.292.56zm-5.293-2.109c.13-.353.849-.133.614.226-.195.3-.744.186-.614-.226zm1.518.531c.575.152-.057.8-.367.441-.22-.255.09-.526.367-.441zm3.7.454a.29.29 0 0 1 .169-.554.29.29 0 0 1-.169.554zm-1.314 1.516a.289.289 0 1 1 .546.188.289.289 0 0 1-.546-.188zm-4.666-2.907a.284.284 0 1 1-.538-.178c.116-.3.658-.175.538.178zm4.043-.818c-.393-.116-.217-.577.165-.481a.255.255 0 1 1-.165.481zm1.2 2.738a.269.269 0 0 1-.507-.182.269.269 0 0 1 .507.182zm-1.4.415c.092-.28.6-.189.511.121-.107.355-.629.235-.511-.121zm.351-1.213c-.1.294-.63.226-.527-.122.088-.294.625-.169.527.122zm-11.915-8.889c-.141.4-.821.18-.676-.242s.825-.184.676.242zm-2.249-.07c-.237-.066-.375-.433-.088-.573.259-.128.652.07.57.384-.063.231-.272.251-.481.189zm4.339 1.11c-.228-.07-.423-.274-.256-.5.235-.318.911.012.647.375a.347.347 0 0 1-.391.125zm-1.49-1.656c-.5-.237-.257-.6 0-.606.586-.021.627.735 0 .606zm1.645-.015c.458.177.283.691-.191.564a.3.3 0 1 1 .191-.564zm-5.824.49a.289.289 0 0 1 .189-.545.289.289 0 0 1-.189.545zm-.922-.288c.292.108.25.689-.123.566-.3-.1-.23-.7.123-.566zm5.741.641a.25.25 0 0 1-.478-.145.25.25 0 1 1 .478.145zm-6.792-.409a.215.215 0 0 1 .145-.4.215.215 0 0 1-.145.4zm14.1 4.401a.351.351 0 0 1-.676-.184.351.351 0 0 1 .676.184zm-.29-1.342c.43.121.149.675-.279.564s-.162-.691.279-.564zm-1.637-.908c-.4-.116-.263-.5.066-.564.47-.088.505.652-.066.564zm-1.213.382c-.548-.261.136-.751.478-.338.217.263-.1.45-.478.338zm1.948 1.722a.311.311 0 0 1-.586-.208.311.311 0 0 1 .586.208zm-1.99-3.96c-.11.332-.759.184-.634-.182.1-.3.768-.215.634.182zm4.684 2.253a.289.289 0 0 1-.535-.221.289.289 0 0 1 .535.221zm-.645.972a.278.278 0 0 1-.176.528.278.278 0 0 1 .176-.528zm-2.554-.647c.329.183.213.546-.158.454-.415-.1-.259-.584.158-.454zm-1.47-1.5c-.441-.2-.136-.54.235-.375.283.126.145.485-.232.367v.007zm5.123 1.875a.249.249 0 0 1-.476-.149.249.249 0 0 1 .476.149zm-38.635 2.975a.307.307 0 1 1-.169.59.307.307 0 0 1 .169-.59zm-1.547-1.224c-.318-.1-.237-.583.09-.478s.312.606-.09.478zm18.919 1.112a.285.285 0 0 1 .544.167.285.285 0 0 1-.544-.167zm-.766.816c-.366-.108-.235-.489.09-.45a.234.234 0 1 1-.09.45z" class="cls-7" data-name="Path 673" transform="translate(-256.845 -1279.59)"/>
        </g>
    </g>
</svg>
