<svg xmlns="http://www.w3.org/2000/svg" width="129.502" height="104.363" viewBox="0 0 129.502 104.363">
    <defs>
        <style>
            .cls-1{fill:#3b1008}.cls-2{fill:#c29968}.cls-3{fill:#803a17}.cls-4{fill:#96b11c}.cls-5{fill:#77851f}.cls-6{fill:#b0c84b;fill-rule:evenodd}.cls-7{fill:#100e0f}
        </style>
    </defs>
    <g id="Group_3456" data-name="Group 3456" transform="translate(-992.406 -1859.771)">
        <g id="Group_20" data-name="Group 20" transform="translate(992.406 1859.771)">
            <g id="Group_19" data-name="Group 19">
                <path id="Path_454" d="M340.11 1311.6a47.9 47.9 0 0 0 9.931.915 47.382 47.382 0 0 0 9.947-.915c3.192-.713 6.463-1.783 8.7-4.05a50.482 50.482 0 0 0 10.612-16.85 91.208 91.208 0 0 0 5.2-19.474.3.3 0 0 0 .017-.119 4.27 4.27 0 0 1-.777.777 10.927 10.927 0 0 1-2.01 1.167 30.372 30.372 0 0 1-4.341 1.545 76.953 76.953 0 0 1-9.023 1.783 141.36 141.36 0 0 1-36.616 0c-2.382-.348-4.763-.761-7.112-1.3.114 1.849 1.538 22.5 12.362 35.675 1.019.337 2.074.613 3.11.846z" class="cls-1" data-name="Path 454" transform="translate(-290.528 -1244.611)"/>
                <path id="Path_455" d="M357.318 1266.864a2.083 2.083 0 0 1 .226.242 1.422 1.422 0 0 0-.226-.242z" class="cls-2" data-name="Path 455" transform="translate(-263.153 -1248.167)"/>
                <path id="Path_456" d="M357.633 1267.283a1.58 1.58 0 0 0-.129-.2 1.58 1.58 0 0 1 .129.2z" class="cls-2" data-name="Path 456" transform="translate(-262.997 -1247.986)"/>
                <path id="Path_457" d="M324.593 1274.109c2.317.4 4.633.729 6.981.956a208.537 208.537 0 0 0 36.891 0 82.542 82.542 0 0 0 9.12-1.329 32.43 32.43 0 0 0 4.44-1.181 11.458 11.458 0 0 0 2.058-.981A2.561 2.561 0 0 0 385.4 1270a3.627 3.627 0 0 0-.017-.428c-.033-.066-.033-.148-.066-.212 0-.033-.017-.057-.017-.09a3.17 3.17 0 0 0-1.182-1.207 10.671 10.671 0 0 0-2.058-1.02 30.544 30.544 0 0 0-4.44-1.272 66.675 66.675 0 0 0-4.357-.819 59.192 59.192 0 0 1-7.354 1.6 97.947 97.947 0 0 1-12.588 1.119 94.036 94.036 0 0 1-12.619-.583 63.808 63.808 0 0 1-2.757-.382c-9.545 3.28-12.558 6.35-13.352 7.403z" class="cls-2" data-name="Path 457" transform="translate(-290.565 -1249.767)"/>
                <path id="Path_458" d="M345.109 1266.034a195.06 195.06 0 0 0 12.472-.606c1.119-.1 2.236-.2 3.37-.325-.211-.015-.419-.05-.616-.072a166.943 166.943 0 0 0-18.483-.908h-.1a122.08 122.08 0 0 0-7.419 1.871c3.596.113 7.178.137 10.776.04z" class="cls-2" data-name="Path 458" transform="translate(-282.405 -1250.464)"/>
                <path id="Path_459" d="M357.686 1267.8a.266.266 0 0 1-.033.154.051.051 0 0 0 .016-.033.352.352 0 0 0 .017-.121z" class="cls-2" data-name="Path 459" transform="translate(-262.872 -1247.384)"/>
                <path id="Path_460" d="M429.435 1286.126a18.639 18.639 0 0 0-7.338-15.253 18.085 18.085 0 0 0-15.877-3.006c-.048-1.36-.1-2.72-.193-4.08a1.329 1.329 0 0 0 .209-.649v-.026a1.715 1.715 0 0 0-.73-1.262 5.757 5.757 0 0 0-1.15-.722 15.429 15.429 0 0 0-2.461-.939 44.643 44.643 0 0 0-5.1-1.2c-3.435-.632-6.886-1.055-10.352-1.378-6.934-.64-13.885-.9-20.833-.923-6.968-.016-13.919.2-20.869.809-3.466.308-6.934.705-10.368 1.314a49.962 49.962 0 0 0-5.134 1.174 15.875 15.875 0 0 0-2.5.948 6.46 6.46 0 0 0-1.2.744 1.951 1.951 0 0 0-.809 1.433 1.573 1.573 0 0 0 .421 1.046 131.289 131.289 0 0 0 .485 21.692 111.157 111.157 0 0 0 1.783 11.009 53.389 53.389 0 0 0-9.153 3.314 27.2 27.2 0 0 0-9.218 6.691 12.8 12.8 0 0 0-2.74 5.419 11.021 11.021 0 0 0 .537 6.253 16.692 16.692 0 0 0 3.951 5.7 5.433 5.433 0 0 0 .325.551 30.428 30.428 0 0 0 5.719 6.406 50.846 50.846 0 0 0 14.889 8.531c10.741 4.1 22.293 5.493 33.633 5.517 11.34-.017 22.892-1.408 33.635-5.508a50.86 50.86 0 0 0 14.887-8.531 30.694 30.694 0 0 0 5.719-6.415 22 22 0 0 0 1.507-2.715c.162-.219.34-.4.5-.606a12.688 12.688 0 0 0 2.284-5.517 9.929 9.929 0 0 0-.939-5.816 17.022 17.022 0 0 0-6.092-6.489 18.486 18.486 0 0 0 4.278-2.211 19.233 19.233 0 0 0 8.294-15.305zm-43.093-27.437a100.254 100.254 0 0 1 10.335.934 46.065 46.065 0 0 1 5.056 1.093 16.051 16.051 0 0 1 2.4.873c.713.349 1.571.843 1.637 1.516-.066.72-.924 1.182-1.637 1.538-.083.042-.162.066-.243.1a9.243 9.243 0 0 0-2.042-1.29v-.34c0 .114-.017.228-.017.333a23.173 23.173 0 0 0-2.073-.827c-1.573-.535-3.161-.956-4.765-1.336-3.207-.672-6.446-1.134-9.7-1.531-4.359-.511-8.749-.737-13.139-.875 4.725-.226 9.457-.342 14.187-.187zm17.351 6.14a19.489 19.489 0 0 1-1.847.649v-1.626a9.245 9.245 0 0 1 1.847.977zm-58.583-3.295c2.156-.324 4.342-.616 6.529-.892q7.048-.375 14.095-.366c6.48-.015 12.994.163 19.457.68 3.24.261 6.465.6 9.672 1.136 1.588.276 3.192.59 4.748 1.02a20.715 20.715 0 0 1 2.2.729c-.017.551-.05 1.11-.064 1.669-.017 0-.017 0-.017.007a48.329 48.329 0 0 1-5.056 1.1 100.248 100.248 0 0 1-10.335.93c-6.917.2-13.852-.105-20.736-.573-6.9-.48-13.755-1.289-20.5-2.294-3.142-.4-6.27-.963-9.284-1.564 3.021-.616 6.148-1.17 9.291-1.581zm-10.741 5.888c3.435.608 6.9 1.005 10.368 1.321 6.95.6 13.9.818 20.869.81 6.948-.033 13.9-.292 20.833-.932 3.466-.325 6.933-.746 10.352-1.37a48.9 48.9 0 0 0 4.941-1.158q-.243 5.323-.794 10.613a1.623 1.623 0 0 0-.226-.721 1.6 1.6 0 0 0-.129-.2.732.732 0 0 0-.116-.152 2.137 2.137 0 0 0-.226-.242 4.923 4.923 0 0 0-.551-.478 10.623 10.623 0 0 0-2.04-1.119 32.653 32.653 0 0 0-4.423-1.466c-1.15-.283-2.3-.526-3.451-.745 1.312-.413 2.624-.86 3.889-1.393l-.05-.228c-2.235.478-4.488.825-6.739 1.11a85.715 85.715 0 0 0-2.8-.4 157.842 157.842 0 0 0-37.1 0c-.827.112-1.652.226-2.479.356l-.616-.1-.033.2c-2.023.316-4.032.7-6.026 1.207a29.768 29.768 0 0 0-4.407 1.457 10.826 10.826 0 0 0-2.058 1.119 3.31 3.31 0 0 0-1.149 1.327c-.356-3.3-.584-6.61-.731-9.931a50.177 50.177 0 0 0 4.891 1.115zm10.513 4.083a48.93 48.93 0 0 0 8.571 2.13c.924.147 1.832.276 2.757.383a94.119 94.119 0 0 0 12.619.583 97.968 97.968 0 0 0 12.588-1.119 59.121 59.121 0 0 0 7.354-1.6 66.02 66.02 0 0 1 4.357.82 30.481 30.481 0 0 1 4.44 1.272 10.677 10.677 0 0 1 2.058 1.02 3.172 3.172 0 0 1 1.182 1.207c0 .033.017.057.017.09.033.064.033.145.066.212.017.071.033.145.048.224a.6.6 0 0 0-.015.164.044.044 0 0 0-.017.041 2.56 2.56 0 0 1-1.312 1.571 11.492 11.492 0 0 1-2.058.981 32.429 32.429 0 0 1-4.44 1.182 82.571 82.571 0 0 1-9.12 1.329 208.474 208.474 0 0 1-36.891 0 91.69 91.69 0 0 1-6.981-.956c-.713-.121-1.443-.228-2.154-.373a30.332 30.332 0 0 1-4.423-1.191 10.486 10.486 0 0 1-2.075-.972 3.525 3.525 0 0 1-1.117-1.044c-.033-.382-.081-.763-.129-1.151a3.022 3.022 0 0 1 1.213-1.314 10.785 10.785 0 0 1 2.058-1.02 31.228 31.228 0 0 1 4.44-1.272c2.3-.524 4.632-.895 6.964-1.197zm20.642-1.158a166.972 166.972 0 0 1 18.483.908c.2.022.4.057.616.071-1.134.121-2.251.226-3.37.326-4.146.34-8.31.532-12.472.606-3.6.1-7.18.073-10.774-.041-.568-.024-1.134-.016-1.718-.04-3.271-.154-6.562-.4-9.819-.851.2-.024.373-.05.568-.071a167.372 167.372 0 0 1 18.388-.908zm35.333 6.91a.265.265 0 0 0 .033-.154.281.281 0 0 1-.017.112.066.066 0 0 1-.016.042zm-69.534 1.433a10.844 10.844 0 0 0 2.042 1.158 31.48 31.48 0 0 0 4.421 1.557c.7.178 1.395.349 2.091.5l.276 4.333c-.568-.1-1.136-.187-1.7-.3a30.968 30.968 0 0 1-4.357-1.191 11.533 11.533 0 0 1-2.025-.972 3.8 3.8 0 0 1-.989-.891 118.274 118.274 0 0 1-.713-5.232 3.682 3.682 0 0 0 .955 1.039zm.616 5.274a10.324 10.324 0 0 0 1.992 1.167 31.053 31.053 0 0 0 4.342 1.545 61.3 61.3 0 0 0 1.911.478c2.349.544 4.73.957 7.112 1.305a141.374 141.374 0 0 0 36.616 0 76.946 76.946 0 0 0 9.023-1.783 30.3 30.3 0 0 0 4.341-1.545 10.935 10.935 0 0 0 2.01-1.167 4.269 4.269 0 0 0 .777-.777.294.294 0 0 1-.017.119 91.2 91.2 0 0 1-5.2 19.474 50.485 50.485 0 0 1-10.612 16.85c-2.236 2.267-5.507 3.337-8.7 4.05a47.383 47.383 0 0 1-9.947.915 47.912 47.912 0 0 1-9.931-.915 32.887 32.887 0 0 1-3.111-.851 13.7 13.7 0 0 1-5.59-3.2 49.98 49.98 0 0 1-10.594-16.85 90.187 90.187 0 0 1-5.217-19.474c0-.055-.017-.1-.017-.154a3.808 3.808 0 0 0 .812.814zm-6.639-19.634c.083.08.162.16.242.233a6.424 6.424 0 0 0 1.2.739 16.824 16.824 0 0 0 2.5.946l.1.026c0 12.491 1.476 25.11 5.914 36.945a49.276 49.276 0 0 0 10.693 17.4 13.521 13.521 0 0 0 4.438 2.95 26.762 26.762 0 0 0 4.975 1.562 51.984 51.984 0 0 0 20.494 0 27.3 27.3 0 0 0 4.975-1.562 13.4 13.4 0 0 0 4.423-2.942 49.279 49.279 0 0 0 10.708-17.408c4.471-11.9 5.93-24.6 5.9-37.156a.117.117 0 0 1 .05-.007 16.013 16.013 0 0 0 2.461-.95 5.291 5.291 0 0 0 1.15-.718 2.474 2.474 0 0 0 .421-.456 183.535 183.535 0 0 1-2.641 21.589 108 108 0 0 1-6.154 21.394c-2.885 6.762-6.612 13.194-11.763 18.2-2.154 2.146-5.574 3.346-9.008 4.091a60.326 60.326 0 0 1-21.532-.008c-3.433-.737-6.867-1.944-8.99-4.083-5.169-5.022-8.878-11.438-11.761-18.209a106.71 106.71 0 0 1-6.174-21.394 183.855 183.855 0 0 1-2.621-21.182zm83.419 10.855a10.084 10.084 0 0 1 8.747 3.06 9.382 9.382 0 0 1 2.139 9.253 10.712 10.712 0 0 1-6.48 6.658 11.062 11.062 0 0 1-8.7-.632c.452-2.543.842-5.112 1.117-7.672.112-.939.162-1.878.243-2.81a2.062 2.062 0 0 0 .325-.162 4.074 4.074 0 0 0 1-.884 7.543 7.543 0 0 0 1.329-2.267 6.607 6.607 0 0 0 .276-4.544zm-16.184 53.5a5.311 5.311 0 0 1 .632 3.425 119.588 119.588 0 0 1-13.156 1.937c-2.883.266-5.8.438-8.716.542a50.425 50.425 0 0 0 6.042-.913 32.242 32.242 0 0 0 5.8-1.841 16.156 16.156 0 0 0 5.379-3.6c.5-.535.989-1.086 1.459-1.628.257.121.518.234.777.388a5.066 5.066 0 0 1 1.779 1.685zm-33.1 5.857c-.389-.017-.8-.017-1.183-.04a128.611 128.611 0 0 1-19.3-2.31 5.482 5.482 0 0 1 .485-3.256 5.115 5.115 0 0 1 2.123-1.952c.356.414.73.842 1.117 1.239a16.152 16.152 0 0 0 5.379 3.613 32.684 32.684 0 0 0 5.8 1.841 48.556 48.556 0 0 0 5.576.859zm-49.753-17.189a7.977 7.977 0 0 1-.713-4.585 10.374 10.374 0 0 1 1.911-4.5 26.386 26.386 0 0 1 8-6.941 63.125 63.125 0 0 1 8.571-4.271 85.46 85.46 0 0 0 3.223 11.2 59.052 59.052 0 0 0 8.44 15.789 8.52 8.52 0 0 0-.68.873 7.658 7.658 0 0 0-1.264 3.444 6.911 6.911 0 0 0 .568 3.345c.048.107.112.188.162.292-.39-.081-.794-.145-1.183-.235-7.031-1.515-14-3.741-20.007-7.354-2.949-1.846-5.671-4.163-7.031-7.063zM412.7 1329.7a53.678 53.678 0 0 1-14.725 7.169 89.438 89.438 0 0 1-16.089 3.5 119.607 119.607 0 0 1-16.524.98 120.931 120.931 0 0 1-16.524-.972 89.052 89.052 0 0 1-16.087-3.5 53.52 53.52 0 0 1-14.727-7.177c-.406-.283-.81-.59-1.2-.9a53.073 53.073 0 0 0 8.084 3.905 88.233 88.233 0 0 0 10.824 3.37 126.1 126.1 0 0 0 22.291 3.093c14.955.6 30.119-.7 44.44-5.581a60.5 60.5 0 0 0 10.368-4.642 41.653 41.653 0 0 0 3.922-2.648 34.275 34.275 0 0 1-4.053 3.403zm9.058-19.061a8.709 8.709 0 0 1 .357 5.006 10.367 10.367 0 0 1-2.317 4.431 25.982 25.982 0 0 1-8.426 6.191 63.028 63.028 0 0 1-10.026 3.862c-2.365.68-4.765 1.248-7.178 1.766.05-.13.131-.243.178-.381a6.663 6.663 0 0 0 .421-3.558 8.171 8.171 0 0 0-1.571-3.49 7.756 7.756 0 0 0-.777-.876 59.5 59.5 0 0 0 8.1-15.35c.033-.1.066-.195.1-.281.033-.009.1-.016.129-.026a5.709 5.709 0 0 0 1.216-.382 6.668 6.668 0 0 0 2.056-1.376 7.53 7.53 0 0 0 1.345-1.8.03.03 0 0 0 .017-.031 20.04 20.04 0 0 0 11.162-.583 17.435 17.435 0 0 1 5.213 6.878zm-16.833-10.863l-1.669-.713c.373-1.54.713-3.078 1-4.626a10.139 10.139 0 0 0 3.468 2.13 11.269 11.269 0 0 0 11.713-2.746 11.569 11.569 0 0 0 3-5.6 12.209 12.209 0 0 0-3.5-11.445 11.521 11.521 0 0 0-11.237-2.676l-.6.2.162.551v.015l.033.121.033.05a5.333 5.333 0 0 1 .4 4.447 7.886 7.886 0 0 1-1.036 2.187 3.535 3.535 0 0 1-.81.851.211.211 0 0 1-.048.031 134.295 134.295 0 0 0 .388-14.663 17.583 17.583 0 0 1 15.212 3.817 17.045 17.045 0 0 1 5.866 14.321 16.529 16.529 0 0 1-7.907 12.735 15.977 15.977 0 0 1-14.469 1.013z" class="cls-3" data-name="Path 460" transform="translate(-306.076 -1256.689)"/>
            </g>
        </g>
        <path id="Path_674" d="M360.051 1320.469l1.5-.8c1.126-.467 1.272-1.1 3.04-1.237a5.891 5.891 0 0 0 .693-.13c.45-.086-.112-.8-.2-1.663a5.464 5.464 0 0 1 .978-4.414.744.744 0 0 0 .18-.535 8.319 8.319 0 0 1 .845-3.819c.259-.546.537-1.079.847-1.6.288-.482.072-2.49 1.613-4.087a1.514 1.514 0 0 0 .406-.8c.6-3.086 1.735-3.19 1.772-4.931.07-3.275 1.025-3.423 1.1-4.373a9.165 9.165 0 0 1 .531-3.47c.334-.674-.248-2.115.557-4.377.193-.544.357-1.358 1.29-.9a6.626 6.626 0 0 1 2.154 2.132c.439.557.583 1.545 1.231 1.832a2.974 2.974 0 0 1 1.013.579 4.958 4.958 0 0 1 1.029 1.718c.182.463 0 1.393.3 1.523.459.2 1.779 2.247 1.522 2.906-.224.573.364.7.5 1.386a6.886 6.886 0 0 1-.072 3.446c-.2.689-.573.9-.5 1.781a9.849 9.849 0 0 1 .028 2.22 9.663 9.663 0 0 0-.108 1.85c.147.32.474.1.533-.145a4.09 4.09 0 0 1 .5-.968 1.459 1.459 0 0 1 1.279-.783c.906-.053 1.314.193 1.5.084l1.242-.3a4.1 4.1 0 0 1 3.466 1.163c.4.5.943.134 2.253.7a7.853 7.853 0 0 1 2.764 1.808c1.308 1.171 1.68 2.584 2.145 2.65a4.523 4.523 0 0 1 1.253.215 6.6 6.6 0 0 1 2.1 1.137 5.262 5.262 0 0 1 .911.9 9.491 9.491 0 0 0 .674.934c.638.823.544-.4 3.141 1.713a2.343 2.343 0 0 1 .654 1.8c-.079.252-.129.733.136.9a7.876 7.876 0 0 1 2.6 3.135c.676 2.034.132.6 1.577 2.459a7.774 7.774 0 0 1 1.459 2.556l.042 1.327a3.019 3.019 0 0 1-1.711 2.384 5.172 5.172 0 0 1-3.668.733c-2.459-.213-1.235.13-3.111.434l-2.347.169a1.164 1.164 0 0 0-.693.2 6.24 6.24 0 0 1-4.249.867.526.526 0 0 0-.131 0c-.661.11-1.262-.1-1.573.087-1.509.917-2.718.557-2.8 1.042-.066.415 1.27.816 2.073 1.819.448.561.56.344.915.469.311.108 1.375.345 1.522.647l.834.831a1.289 1.289 0 0 1-.266 1.09 3.841 3.841 0 0 1-2.968 1.117l-3.006.163a34.533 34.533 0 0 1-4.96-.54.537.537 0 0 0-.151-.046c-.838.053-3.4-1.107-4.148-1.463-.922-.439-1.823-.924-2.738-1.38a43.2 43.2 0 0 1-3.8-2.516 89.804 89.804 0 0 0-2.839-1.877c-.667-.421-.375-1.073-.954.268a9.22 9.22 0 0 1-1.908 2.951 4.636 4.636 0 0 1-2.249 1.459 5.566 5.566 0 0 1-3.008.25c-.424-.112-.665.5-2.082.647a8.842 8.842 0 0 1-2.94-.09c-1.062-.165-1.029.777-2.5.934-.75.077-1.479.228-2.236.241-.911.018-1.65 1.419-4.4 1.077-.294-.037-.627-.156-.867.076a1.941 1.941 0 0 1-.838.516 5.328 5.328 0 0 1-3.244.112c-1-.255-1.981-1.16-2.426-1.1a7.216 7.216 0 0 1-1.273.132c-2.181-.1-2.578-.968-3.027-.836a8.215 8.215 0 0 1-1.285.231 4.335 4.335 0 0 1-.494-.031 3.189 3.189 0 0 1-1.832-.537c-.665-.437-1.511-.954-1.568-1.838a7.249 7.249 0 0 1 .417-2.565c.147-.537.391-.831.257-1.059a4.791 4.791 0 0 1 .221-3.016c.981-2.172 1.909-1.632 1.941-2.238a3.877 3.877 0 0 1 .454-1.861c.52-.983 1.2-2.25 2.424-2.413.573-.077.129-.277.252-1.04a4.394 4.394 0 0 1 2.257-2.9c1.213-.828 1.694-.224 1.779-.716a3.859 3.859 0 0 1 2.238-2.968c2.093-.8 1.667.155 2.677-1.431a7.45 7.45 0 0 1 1.127-1.2c.43-.421 1.042-.452 1.349-.779.13-.14.292.007.327-.268a10 10 0 0 1 .665-2.656c.134-.327.511-.6.73-.95a3.028 3.028 0 0 1 2.946-1.251 1.707 1.707 0 0 0 1.338-.141 10.193 10.193 0 0 1 1.062-.62 1.681 1.681 0 0 1 1.674-.029c1.579 1.038 1.163 1.16 1.832 2.558.278.579 1.659.32 2.117 1.652.149.438-.187 1.518.287 1.821.243.154.413 1.294.41 1.573a14.98 14.98 0 0 1-.537 3.271 7.137 7.137 0 0 1-1.838 3.152 12.84 12.84 0 0 1-1.784 1.455c-.147.094-.151.132-.167.423z" class="cls-4" data-name="Path 674" transform="translate(709.373 625.285)"/>
        <path id="Path_675" d="M359.254 1308.134c-.073-.731.412-1.52.36-2.915-.092-2.51-1.652-.59-2.768-.075-.932.432-.882 2.018-1.126 2.036a2.666 2.666 0 0 0-2.406 1.323c-.932 1.1 1.047 2.527-.781 1.418-1.36-.827-1.6-1.457-1.634.132-.026 1.2 1.863.691-.832 1.2-.891.167-1.285.32-1.242 1.391 0 .129-1.266.3-1.88 1.235a20.77 20.77 0 0 1-2.766 2.856 18.859 18.859 0 0 1-2.4 1.505c-1.013.487-2.365 2.37-4.126 3.194-1.009.473-.13.66.627.344a39.467 39.467 0 0 0 4.66-2.343c1.783-1 3.3-1.232 4.877-2.777a12.96 12.96 0 0 1 3.488-1.694c3.234-1.016 2.643-2.37 4.609-4.252a13.081 13.081 0 0 1 3.117-2.18 1.244 1.244 0 0 0 .222-.4zm12.59 10.9c.127 1.3 1.862 2.477 2.94 2.924 1.773.735 2.562 1.942 4.05 2.582 2.157.926 6.314 3.091 8.683 2.3.149-.05.873-2.584-1.007-3.446-.742-.34-1.512.524-3.688-.564-1.005-.5-1.838-2.514-3.673-2.641-1.963-.136-3.806-1.261-5.583-1.314-.176-.006-1.689.491-1.722.154zm-30.612 6.4a7.165 7.165 0 0 0-2.611.077c-1.926.449 1.391 1.433 2.975.779 1.626-.672 2 2.759 4.6.473 1.592-1.4.1-.1 3.282-.3 1.11-.072 3.062-1.428 3.293-1.318 2.2 1.04 3.152-1.033 3.646-.737.134.081 3.561.7 3.587.7.465-.041 4.592-1.512 4.829-1.977.369-.724 1.906-2.19 1.11-2.97-1.27-1.244-2.376-.61-4.113.035-.436.162-2.253-3.131-2.913-2.81-.375.182.4 3.989.079 4.123-.775.327-2.424-1.65-3.119-1.419a32.439 32.439 0 0 1-4.884 1.5c-3.242.808-5.892 2.635-8.6 2.725-.342.013-.268 1.2-1.165 1.123zm26.948-12.419c.715-.27 1.231-1.347 1.9-1.654 3.084-1.409 4.221-1.88 7.964-1.757.458.015 1.411 1.512.739 1.6-.116.561-1.9 1.411-2.433 1.553-2.126.568-.838-.389-2.837 1.244a23.466 23.466 0 0 1-3.2 1.656c-.851.292-1.575.891-1.639-.48-.011-.251.884-1.417-.415-1.878-.145-.051-.149-.261-.085-.285zm14.06-3.234c-1.042 3.484-4.287 2.955-.726 4.065.979.305.5 3.317 2.611 5.43 3.141 3.14 1.584 5.461 5.263 2.571.026-.02 3.53-.77 4.17-1.031 3.82-1.564 4.034-1.4 7.944-2.282 1.1-.25 1.867-.4 2.944-.623-.724 0-.564-3.885-6.84-1.252-1.63.684-4.078-1.705-6.333-1.729-2.411-.026-4.361-1.536-6.231-2.711-.9-.564-.368-2.189 2.139-2.328 5.232-.292-1.244-1.614-1.88-2.635-2.049-3.287-2.3-3.179-2.606-7.213-.224-2.983-1.29-.34-3.4-1.209-2.312-.956-.594 5.235-1.573 6.849-.485.8 3.378 2.027 3.9 2.894.154.254.4.926.612 1.2zm-10.64-16.348a14.008 14.008 0 0 1-1.283 2.185 23.954 23.954 0 0 0-2.53 4.091c-.39.792-.766.943-.952 1.49a9.994 9.994 0 0 1-2.069 4.177c-.658.814.134 2.108.939 2.392 1.176.417 1.481-.27 2.249-1.264.943-1.224 1.024-2.787 1.937-4.331a11.6 11.6 0 0 1 .827-1.483 42.671 42.671 0 0 0 2.075-5.371c-.015-.75-1.093-2.067-1.193-1.885zm6.606 20.253c-.156.009-4.548 1.507-4.778 1.722-1.351 1.249-3.754 1.073-2.3 1.939.755.448 2.806-1.007 4.745-.59a12.508 12.508 0 0 0 3.08 1.867c.02.007 2.143 1.909 2.156 1.383a12.518 12.518 0 0 0 .718-1.6c.224-.975-.412-1.547-.673-2.723a12.743 12.743 0 0 0-2.758-1.891c-.072 0-.171-.1-.191-.1z" class="cls-5" data-name="Path 675" transform="translate(712.4 633.846)"/>
        <path id="Path_676" d="M376.358 1289.587c-.3-.441-.976-2.657-.559-3.089.726-.752 2.338 2.386 1.474 2.953-.695.458-.776.34-.915.136zm-12.042 26.948a6.7 6.7 0 0 0-2.949 1.054c-.237.162-.809.421-.707.862.307.079 1.667-.735 2.35-.379.527.276 1.231-.338 1.751-.47.255-.066.7-.344.706-.6.015-.6-.86-.511-1.15-.467zm7.325-21.224c-.035-.529.279-2.8.673-2.983.684-.316.632 3.211-.074 3.3-.57.072-.581-.07-.6-.316zm9.758 21.078c-.494-.191-2.319-1.619-2.225-2.213.165-1.031 3.282.62 2.9 1.579-.309.772-.443.722-.674.634zm-38.727 4.842c-.526.064-2.808-.34-3-.908-.34-.989 3.187-1 3.3.031.09.827-.051.845-.3.877zm56.958-6.923c-.413.331-2.565 1.191-3.03.811-.809-.661 2.185-2.525 2.823-1.713.513.656.4.746.208.9zm-28.419-1.711a8.548 8.548 0 0 1 3.069-1.185c1.871.349.878 2.108-1.628 1.85-.386-.04-2.819.776-1.887-.237.384-.417.074-.077.386-.353l.061-.075zm-32.411 13.787c-.526.065-2.808-.338-3-.908-.338-.987 3.188-.995 3.3.033.09.825-.051.845-.3.875zm24.061-2.247c-.494-.19-2.321-1.619-2.225-2.213.164-1.029 3.282.619 2.9 1.579-.309.774-.443.724-.674.634zm16.688-29.568c.3.7-.3 1.09-.349 1.481-.463 3.641-1.9-.356-2.034-.565-.355-.56-.121-1.415-.162-2.3-.022-.5-.748-.865-.21-1.544-.015-.061-.48-.285.447-.6 2.519-.849-.252 1.917 1.884 2.782a2.749 2.749 0 0 1 .424.746zm-25.156 10.466c-1.275.2-2.262 4.206-.654 5.2.43.266.5.255.93-.584.329-.643.107-2.236 1.183-1.976.513.125-.312.957 1.34-.745.208-.215.686.195 1.15-1.148.059-.022.5.252.265-.7-.257-1.046-1.288-3.466-1.171-.45.018.463-1.713.695-2.189.355a2.766 2.766 0 0 0-.855.044zm-3.054 4.894c-1.022-.689-2.4.241-1.4 1.237a17.374 17.374 0 0 0 2.043 1.922c.9-1.307-.487-1.737-.435-2.857 0-.046-.1-.28-.208-.3zm45.429 10.954c-.531.009-2.758-.632-2.892-1.217-.233-1.018 8.773-.656 8.779.375 0 .832-5.638.836-5.886.841zm-20.679-19.132c.279-.45 2.025-1.975 2.591-1.77.981.354-1.224 3.106-2.095 2.551-.7-.447-.627-.57-.5-.781zM350.78 1326.5c-.329.417-7.52 2.308-8.022 1.975-.29-.191 4.692-1.893 6.219-3 .978-.711 1.88-1.564 2.806-2.263 1.959-1.482 4.243-2.577 4.578-2.252.314.3-2.677 1.727-4.262 3.117a3.767 3.767 0 0 0-1.319 2.427zm41.085-20.994c.779.489.56 1.38.316 2.078-.193.545-1.253.4-2.032.673-.706.246-1.323.358-1.535-.589-.237-1.064 1.755-1.051 1.626-1.215-.706-.9-1.033-.312-2.4-.869-1.224-.5-1.005-.537.178-1.086 1.818-.845 2.08-.087 3.55.733.029.016.27.255.3.274zm-22.126-5.351a7.493 7.493 0 0 1 .518-2.687 3.686 3.686 0 0 1 1.071-1.385c.149-.068.474.189.425.443-.061.305-.529.669-.652 1.262-.241 1.158-.4 2.637-.764 2.685-.57.072-.581-.072-.6-.318zm2.839-10.113c-.086-.375.013-1.983.389-2.112.654-.224.937 2.274.239 2.336-.564.051-.588-.05-.628-.224zm-27.762 26.953a8.531 8.531 0 0 0-3.269-.38c-1.722.807-.32 2.262 2.042 1.384.364-.136 2.924.045 1.768-.7-.478-.307-.09-.057-.463-.244l-.077-.057zm52.331-6.739c-.551-.241-3.852-.875-4.581-.535-2.415 1.132-.45 3.172 2.861 1.94.509-.189 4.1.065 2.477-.983-.669-.43-.127-.079-.647-.344l-.11-.079zm-41.992 14.444c-.182-.3-.417-1.931 0-2.33.72-.694 1.6 1.518.79 2.089-.652.461-.7.382-.788.241zm-9.4-12.138c-.906.16-1.04 1.066-1.077 1.807-.027.577 1.011.842 1.63 1.389.56.494 1.09.831 1.643.033.619-.895-1.229-1.636-1.049-1.738.992-.566 1.075.1 2.554.1 1.321 0 1.134-.116.244-1.071-1.365-1.469-1.895-.866-3.565-.66-.035 0-.346.134-.38.14z" class="cls-6" data-name="Path 676" transform="translate(711.205 627.955)"/>
        <path id="Path_677" d="M378.71 1327.38a.374.374 0 0 1 .007.748.374.374 0 1 1-.007-.748zm-18.66-6.911l1.5-.8c1.126-.467 1.272-1.1 3.04-1.237a5.891 5.891 0 0 0 .693-.13c.45-.086-.112-.8-.2-1.663a5.464 5.464 0 0 1 .978-4.414.744.744 0 0 0 .18-.535 8.319 8.319 0 0 1 .845-3.819c.259-.546.537-1.079.847-1.6.288-.482.072-2.49 1.613-4.087a1.514 1.514 0 0 0 .406-.8c.6-3.086 1.735-3.19 1.772-4.931.07-3.275 1.025-3.423 1.1-4.373a9.165 9.165 0 0 1 .531-3.47c.334-.674-.248-2.115.557-4.377.193-.544.357-1.358 1.29-.9a6.626 6.626 0 0 1 2.154 2.132c.439.557.583 1.545 1.231 1.832a2.974 2.974 0 0 1 1.013.579 4.958 4.958 0 0 1 1.029 1.718c.182.463 0 1.393.3 1.523.459.2 1.779 2.247 1.522 2.906-.224.573.364.7.5 1.386a6.886 6.886 0 0 1-.072 3.446c-.2.689-.573.9-.5 1.781a9.849 9.849 0 0 1 .028 2.22 9.663 9.663 0 0 0-.108 1.85c.147.32.474.1.533-.145a4.09 4.09 0 0 1 .5-.968 1.459 1.459 0 0 1 1.279-.783c.906-.053 1.314.193 1.5.084l1.242-.3a4.1 4.1 0 0 1 3.466 1.163c.4.5.943.134 2.253.7a7.853 7.853 0 0 1 2.764 1.808c1.308 1.171 1.68 2.584 2.145 2.65a4.523 4.523 0 0 1 1.253.215 6.6 6.6 0 0 1 2.1 1.137 5.262 5.262 0 0 1 .911.9 9.491 9.491 0 0 0 .674.934c.638.823.544-.4 3.141 1.713a2.343 2.343 0 0 1 .654 1.8c-.079.252-.129.733.136.9a7.876 7.876 0 0 1 2.6 3.135c.676 2.034.132.6 1.577 2.459a7.774 7.774 0 0 1 1.459 2.556l.042 1.327a3.019 3.019 0 0 1-1.711 2.384 5.172 5.172 0 0 1-3.668.733c-2.459-.213-1.235.13-3.111.434l-2.347.169a1.164 1.164 0 0 0-.693.2 6.24 6.24 0 0 1-4.249.867.526.526 0 0 0-.131 0c-.661.11-1.262-.1-1.573.087-1.509.917-2.718.557-2.8 1.042-.066.415 1.27.816 2.073 1.819.448.561.56.344.915.469.311.108 1.375.345 1.522.647l.834.831a1.289 1.289 0 0 1-.266 1.09 3.841 3.841 0 0 1-2.968 1.117l-3.006.163a34.533 34.533 0 0 1-4.96-.54.537.537 0 0 0-.151-.046c-.838.053-3.4-1.107-4.148-1.463-.922-.439-1.823-.924-2.738-1.38a43.2 43.2 0 0 1-3.8-2.516 89.804 89.804 0 0 0-2.839-1.877c-.667-.421-.375-1.073-.954.268a9.22 9.22 0 0 1-1.908 2.951 4.636 4.636 0 0 1-2.249 1.459 5.566 5.566 0 0 1-3.008.25c-.424-.112-.665.5-2.082.647a8.842 8.842 0 0 1-2.94-.09c-1.062-.165-1.029.777-2.5.934-.75.077-1.479.228-2.236.241-.911.018-1.65 1.419-4.4 1.077-.294-.037-.627-.156-.867.076a1.941 1.941 0 0 1-.838.516 5.328 5.328 0 0 1-3.244.112c-1-.255-1.981-1.16-2.426-1.1a7.216 7.216 0 0 1-1.273.132c-2.181-.1-2.578-.968-3.027-.836a8.215 8.215 0 0 1-1.285.231 4.335 4.335 0 0 1-.494-.031 3.189 3.189 0 0 1-1.832-.537c-.665-.437-1.511-.954-1.568-1.838a7.249 7.249 0 0 1 .417-2.565c.147-.537.391-.831.257-1.059a4.791 4.791 0 0 1 .221-3.016c.981-2.172 1.909-1.632 1.941-2.238a3.877 3.877 0 0 1 .454-1.861c.52-.983 1.2-2.25 2.424-2.413.573-.077.129-.277.252-1.04a4.394 4.394 0 0 1 2.257-2.9c1.213-.828 1.694-.224 1.779-.716a3.859 3.859 0 0 1 2.238-2.968c2.093-.8 1.667.155 2.677-1.431a7.45 7.45 0 0 1 1.127-1.2c.43-.421 1.042-.452 1.349-.779.13-.14.292.007.327-.268a10 10 0 0 1 .665-2.656c.134-.327.511-.6.73-.95a3.028 3.028 0 0 1 2.946-1.251 1.707 1.707 0 0 0 1.338-.141 10.193 10.193 0 0 1 1.062-.62 1.681 1.681 0 0 1 1.674-.029c1.579 1.038 1.163 1.16 1.832 2.558.278.579 1.659.32 2.117 1.652.149.438-.187 1.518.287 1.821.243.154.413 1.294.41 1.573a14.98 14.98 0 0 1-.537 3.271 7.137 7.137 0 0 1-1.838 3.152 12.84 12.84 0 0 1-1.784 1.455c-.147.094-.151.132-.167.423zm5.43 13.643a3.129 3.129 0 0 0 .844-.066c2.157-.634 2.744-.733 3.839-2.63a11.986 11.986 0 0 0 1.15-2.885 4.057 4.057 0 0 0-.511-2.845c-.46-.961-.849-.974-.871-1.363a9.124 9.124 0 0 0-.662-2.788 3.578 3.578 0 0 0-1.645-1.764l-1.518-.384c-.391.077-.991 0-1.538.114-3.052.632-3.743 2.417-4.93 2.282-.2-.022-.812-.292-.867-.478-.108-.358-.478-.755-.09-1.3.255-.364.4-.735.682-.785.807-.147 1.213-.827 1.775-1.208a19.538 19.538 0 0 0 1.869-3.435 13.066 13.066 0 0 0 .549-2.606.793.793 0 0 0-.667-.882c-.4 0-.2-.469-.307-1.143-.086-.549 0-1.468-.858-1.345-.266.039-.72.121-.86-.177-.505-1.093-.162-1.4-1.193-2.668-.5-.61-1.726.024-2.225.351-.366.239-.9.129-1.34.29-.662.243-1.455-.255-2.826 1.288a5.245 5.245 0 0 0-.461.906 1.842 1.842 0 0 0-.243.979c.009.515-.081 1.028-.042 1.544.015.2-.162.276-.322.316a5.23 5.23 0 0 0-2.437 1.307c-1.077 1.608-.581 1.489-1.863 1.575a6 6 0 0 0-.913.221 2.813 2.813 0 0 0-2.156 1.9 3.492 3.492 0 0 0-.195 1.1c.018.223.015.221-.2.276a6.6 6.6 0 0 0-2.856 1.476 1.767 1.767 0 0 0-.428.455c-.814 1.608.336 2.1-.362 2.426A4.511 4.511 0 0 0 338.5 1324a3.992 3.992 0 0 0-.882 2.775c.042.233 0 .255-.158.331a2.846 2.846 0 0 0-1.8 1.628c-.844 1.965.649 2.207.279 2.573a2.67 2.67 0 0 0-.948 2 3.21 3.21 0 0 0 .246 1.736 1.721 1.721 0 0 0 2 .917 5.2 5.2 0 0 0 1.132-.187 1.3 1.3 0 0 1 1.332.118 3.682 3.682 0 0 0 1.329.522c1.828.561 2.933-.523 3.253.081a3.1 3.1 0 0 0 1.182.788 5.813 5.813 0 0 0 2.13.36c1.876-.329 1.913-1.116 2.977-.873a5.22 5.22 0 0 0 3.378-.847c.533-.526 1.123.063 2.606-.349 1.665-.461 1.639-.77 2.79-1.108.568-.167.57.272 1.588.278a5.14 5.14 0 0 0 2.582-.4 2.048 2.048 0 0 1 .921-.325 3.9 3.9 0 0 0 1.055.1zm32.361-13.531v.042c.961.16 2.181 0 3.1.2 1.046.226 2.137.277 3.157.606.614.2 1.237.37 1.847.583a12.042 12.042 0 0 1 3.056 1.645c.119.09.706.7.522.869-.131.119-.6-.432-.811-.542-.347-.182-.667-.408-1.033-.561-1.356-.569-1.661-1.1-3.378-1.443-.581-.115-1.154-.279-1.746-.34a35.049 35.049 0 0 0-4.379-.375c-.463.011-.926-.016-1.388.033-1.25.134-5.884-1-7.336-1.288a31.247 31.247 0 0 1-3.7-1.031c-.237-.077.029.563-.529 1.27a3.85 3.85 0 0 1-1.941 1.638.277.277 0 0 0 0 .527 7.666 7.666 0 0 1 2.44 1.345 1.648 1.648 0 0 1 .77 1.5 1.7 1.7 0 0 1-.142.763c-.224.412.042.684-.134 1.038-.228.459.538.509.761.691a5.932 5.932 0 0 1 1.88 2.2c.1.4.706.673 1.057.719a9.489 9.489 0 0 0 4.771-1.073c1.15-.579.474-.141 2.336.006a6.925 6.925 0 0 0 3.117-.522 9.537 9.537 0 0 0 .963-.458c.742-.121.474.015 1 .026 1.827.042 3.605-1.24 4.464-.845a3.007 3.007 0 0 0 1.547.088 5.1 5.1 0 0 0 2.644-1.044 1.655 1.655 0 0 0 .456-2.071 9.281 9.281 0 0 0-2.492-3.28c-.281-.2-.053-.661-.4-1.371l-.77-1.334a7.328 7.328 0 0 0-1.794-1.591c-.68-.353-.215-.682-.221-1.209a2.089 2.089 0 0 0-.7-1.724 2.739 2.739 0 0 0-2.286-.427c-.241.05-.3-.3-.38-.474-.246-.542-.573-1.04-.834-1.573a2.255 2.255 0 0 0-1.345-1.138 10.315 10.315 0 0 0-2.948-.384c-.316.009-.162-.239-.445-.875a9.478 9.478 0 0 0-2.712-3.247 3.283 3.283 0 0 0-1.148-.478c-2.02-.777-1.965-.068-2.417-.8a3.15 3.15 0 0 0-1.941-1.194c-1.31-.324-2.042.7-2.519.441a1.56 1.56 0 0 0-2.038.693c-.546 1.244-.555 1.231-1.77 1.9-1.275.7-.533 1.121-.457 1.6a12.473 12.473 0 0 1-.035 2.327 8.209 8.209 0 0 1-.4 2.442c-.195.742-.494.958-.546 1.351-.042.309.388.313.8.476 1.544.61 3.547 1.452 4.085 3.194a.3.3 0 0 0 .259.217c2.378.568 4.723 1.24 7.136 1.65l3.749.579c.481.077.72-.36 1.389-.634.287-.116.243-.3.434-.349.281-.068.452-.276.711-.375a32.963 32.963 0 0 1 4.14-1.478c.456-.092.529.577.112.706-.165.052-.34.075-.509.116a14.9 14.9 0 0 0-3.038 1.051l-2.049.981zm-15.892-23.77a3.675 3.675 0 0 0-.527-2.132.338.338 0 0 1-.072-.221 4.257 4.257 0 0 0-.518-1.793c-.4-.6-1.033-.961-.959-1.514l-.38-1.549c-.432-1.549-2-1.454-2.185-1.941a15.455 15.455 0 0 0-.81-1.787 3.948 3.948 0 0 0-.978-1.077c-.4-.349-.568 0-.755-.051-.081-.02-.108.03-.129.094a3.519 3.519 0 0 0-.336 1.544 14.646 14.646 0 0 0 .154 1.665c.116.47-.7 1.885-.641 3.122l.1 1.226c.184.674-.658.59-1.081 2.934-.255 1.415.358 1.82-.2 2.705a11.01 11.01 0 0 0-1.007 1.766 9.14 9.14 0 0 0-.676 2.3c-.044.327-.509.536-.783.985-.1.165-.156.353-.261.513a5.74 5.74 0 0 0-.763 2.236c.02.719-1.059 1.9-1.308 2.582-.263.709-.908 2.594-.5 3.32.075.134-.349.491-.687 1.171a5.114 5.114 0 0 0-.358 3.916 5.012 5.012 0 0 0 2.067 2.889.414.414 0 0 0 .586-.312 10.585 10.585 0 0 1 .741-2.121 6.314 6.314 0 0 1 .7-1.283c.29-.426.831-.625.719-.893a10.512 10.512 0 0 1 .441-2.906c.226-.7.515-1.374.724-2.077l.6-1.365 1.036-2.8c.371-1.5.877-2.96 1.194-4.471a20.822 20.822 0 0 0 .474-4.048l-.031-2.251a20.688 20.688 0 0 0-.053-2.435 17.416 17.416 0 0 1-.108-1.751c0-.472-.154-1.042.07-1.094.268-.061.327.485.355.643a41.118 41.118 0 0 1 .318 8.362l-.358 2.084a6.882 6.882 0 0 0-.261 1.246l-1.288 4.418c-.268.656-.538 1.308-.794 1.968-.2.52-.36 1.057-.57 1.575l-.623 1.663a19.65 19.65 0 0 0-.391 2.13c-.079.241.11.733.437.553.842-.465 2.837-1.288 3.846-1.106a13.768 13.768 0 0 0 1.426.184c.945.073 1.051 1.009 1.823.849.917-.191 1.261-1.477 1.468-2.251a15.625 15.625 0 0 0 .235-3.359c.031-.4-.257-1.895-.176-3 .044-.61.167-1.209.226-1.818a11.1 11.1 0 0 0-.006-3.179c-.136-.913.84-1.859.842-4.061zm10.024 40.073a23.378 23.378 0 0 0 3.381-.325 1.169 1.169 0 0 0 .643-.331.562.562 0 0 0 .116-.39c.02-.213-.917-.494-1.073-.524-2.372-.434-.467.136-3.08-2.087a14.493 14.493 0 0 0-3.216-1.952c-.415-.158-.393-1.586-1.331-2.367a3.363 3.363 0 0 0-.834-.661c-.768-.349-1.255-.36-1.084-.889.492-1.535.581-1.974-.5-3.209-.481-.551-1.206-.593-1.5-.924a2.775 2.775 0 0 0-1.145-.544 2.143 2.143 0 0 0-1.479.046 18.925 18.925 0 0 0-2.79.976c-1.325.59-2.7 1.036-3.98 1.731-.494.268-1.04-.184-.11-.524a3.648 3.648 0 0 1 .937-.318c.276-.024.505-.287.88-.445.45-.187.908-.36 1.354-.557a35.95 35.95 0 0 1 3.482-1.509c.586-.114.941-.353 1.389-.454a3.4 3.4 0 0 0 2.764-2.657 1.6 1.6 0 0 0-.628-1.625 11.183 11.183 0 0 0-1.691-1.263c-1.084-.52-2.352-1.264-3.6-.864-.369.12-.175-.356-.858-.588a5.408 5.408 0 0 0-1.56-.494l-1.9.177a7.757 7.757 0 0 0-2.712 1.209c-.7.52-2.056 1.889-2.088 2.85 0 .156-.862 1.768-.432 2.374a6.03 6.03 0 0 1 .741 1.834c.171.572.186 1.8.57 2.172a3.338 3.338 0 0 1 1.228 2.773.5.5 0 0 0 .035.281 2.614 2.614 0 0 0 .522.715c1.332 1.092 2.711 1.674 4.059 2.685.524.391 1.066.757 1.615 1.114l2.551 1.446a48.052 48.052 0 0 0 6.022 2.481c1.239.287 2.5.331 3.756.513a7.826 7.826 0 0 0 1.54.123zm-51.565-12.961a1.034 1.034 0 0 1 1.009.048 6.074 6.074 0 0 0 1.373.384c.772.25 1.494.641 2.275.862a30.421 30.421 0 0 1 2.788 1.268 7 7 0 0 1 1.1.647c.6.444.972-.022 1.415-.357l.866-.834a16.886 16.886 0 0 1 2.066-1.8c.311-.191.6-.474.235-.786-1.382-1.169-1.5-.889-2.9-1.812-1.193-.789-2.56-1.241-3.8-1.933-.342-.189-.792-.281-.991-.639-.219-.4.629-.18.764-.118.643.294 1.288.581 1.928.884a18.759 18.759 0 0 1 4.133 2.389 10.339 10.339 0 0 0 2.025 1.176c1.059-.085.985.145 2.078-.384.47-.228.143-.875-.09-1.165-.419-.524-.821-1.064-1.27-1.564-.577-.647-1.059-1.367-1.634-2.012-.437-.49-.792-1.044-1.218-1.54-.162-.187-.733-.786-.741-1.033-.011-.332.349-.07.454.031.684.664 1.266 1.421 1.924 2.11.728.763 1.281 1.68 1.975 2.474l1.159 1.862a.933.933 0 0 0 .882.538c.178-.029.373-.1.524.033.13.116-.18.2-.255.224-.849.244-1.645.623-2.5.847-2.016.529-2.7 1.646-4.236 2.747-2.288 1.641-.772 1.229-3.479 2.5-.505.237-.992.515-1.5.737-.553.237-1.1.5-1.636.766-.733.37-1.492.682-2.249 1a37.875 37.875 0 0 0-5.237 2.848c-.838.516-1.013.044-.676-.173a20.05 20.05 0 0 1 3.392-2.167c1.672-.634 3.155-1.683 4.793-2.405l2.984-1.461c.22-.125.446-.463.175-.647a35.844 35.844 0 0 0-5.59-2.417 6.26 6.26 0 0 1-2.314-1.126zm21.912 6.217a8.638 8.638 0 0 1-.963 3.743c-.068.152-.324.152-.265-.065a13.829 13.829 0 0 0 .5-2.988 12.517 12.517 0 0 0-.564-3.966 9.332 9.332 0 0 0-.954-1.437c-.978-1.389-1.7-1.307-1.356-1.592s1.22.438 1.422.682a7.837 7.837 0 0 1 2.183 5.621zm-7.079-.913c-.007.584-.219 4.607-.656 5-.263.233-.583-.013-.474-.5a25.823 25.823 0 0 0 .526-4.62l-.066-1.722c-.081-.8.713-.445.671 1.843zm-4.605 1.766a16.511 16.511 0 0 1-.963 4.385c-.222.639-.792.358-.456-.476a18.473 18.473 0 0 0 .941-4.282c.052-.392.478-.206.478.114v.259zm-2.282 4.15c-.039 1.448-1.167 1.055-.924.458a2.15 2.15 0 0 1 .345-.779c.309-.3.526-.009.579.322zm5.265-1.257c-.053.318-.092.763-.572.693-.419-.061-.353-.6-.276-.917.136-.549.882-.492.847.224zm14.907-2.324c.028 1.209-.952 1-.8.448.123-.459.018-1.053.439-1.06.336-.006.346.347.362.612zm-16.69 3c-.077 1.13-1.125.877-.95.209.086-.331.222-.783.651-.674a.436.436 0 0 1 .3.465zm-1.354-9.958c-.009.985-1.6.156-1.1-.456.32-.389 1.1.14 1.1.456zm4.5-4.076a.4.4 0 0 1-.6.366c-1.2-.728-.445-1.119-.2-1.044s.836.371.8.678zm-8.17 15.032c-.1 1.125-1.182.805-.989.22.329-1 1-.766.989-.22zm4.907-11.579c-.414.005-1.029-.564-.671-.948.279-.3.7.011.924.226a.428.428 0 0 1-.254.722zm15.324 7.9c.011 1.1-1.255.783-.717-.4.255-.561.748-.1.717.4zm-8.966-12.972c0 .66-.823.73-.992-.075-.136-.654.871-.807.992.075zm-10.842 6.279c-1.185-.155-.878-.948-.414-.886 1.266.169.959.906.414.886zm18.709 4.251c-.04-.651.8-.737.928.2.072.538-.9.808-.928-.2zm.562-8.091c-.121 0-1.1-.472-.831-.9.259-.4 1.023.114 1.15.421a.347.347 0 0 1-.32.476zm-2.812 11.339c-.048 1.113-1.022.865-.867.274.066-.257.112-.72.45-.748a.457.457 0 0 1 .417.474zm-4.146-14.577c0 .838-.992.765-.893-.143.057-.516.86-.6.893.143zm10.489 10.995c.011.292-.285.634-.577.458-.362-.218-.5-1.016.053-1.081.36-.04.527.316.524.623zm-21.464 4.576c-.709-.02-.357-1.281.186-1.152.522.122.281 1.136-.186 1.152zm-3.867-7.3c.875-.059.822.979.188.843-1.069-.23-.63-.814-.267-.843h.079zm17.072-13.595c.061-.651.847-.746.917-.037a.464.464 0 1 1-.917.037zm-1.027 18.417c-.017.246-.077.57-.412.538-.513-.05-.414-1.2.04-1.206.329 0 .358.4.371.667zm-6.255-9.289c-.005.656-.871.379-1.062-.129-.245-.653.943-.485 1.062.129zm-2.345-1.823c.357-.009.792.373.568.728-.454.719-1.656-.728-.568-.728zm-4.666 13.344c-.149 1.066-.983.849-.838.318.072-.263.18-.81.551-.733a.376.376 0 0 1 .287.415zm9.971-19.266a.568.568 0 0 1 .408.877c-.356.413-.827-.1-.8-.5a.379.379 0 0 1 .393-.373zm1.623 14.007c-.07.8-1.06.535-.8-.257.134-.408.8-.474.8.257zm.131-13.532a.472.472 0 0 1 .943.04.472.472 0 0 1-.943-.04zm-2.235 19.224c.074-.285.195-.674.621-.5.579.239.07 1.159-.413.93a.415.415 0 0 1-.208-.432zm-15.166 1.807c-.8 0-.382-1.211.171-.97.41.18.23.957-.171.97zm18.185-6.4c.031-.243.1-.515.4-.509.546.011.568.994.026 1.022-.294.015-.419-.246-.419-.513zm-4.162-7.634a.463.463 0 0 1 0 .924.463.463 0 0 1 0-.924zm4.848-9.194a.562.562 0 0 1 .45.755c-.255.5-.876.13-.842-.408a.381.381 0 0 1 .391-.347zm7.861 16.921c0 .755-1.2.472-.7-.4.255-.443.695.013.7.4zm-6.9-14.213c.017.779-1.084.616-.759-.18a.391.391 0 0 1 .759.18zm-23.085 17.3c-.759-.121-.5-.854.107-.831s.459.9-.107.831zm19.16-.621c.026.754-1.137.537-.733-.279.21-.423.733-.255.733.279zm2.341-15.091c0-.66.742-.689.787-.053.042.616-.75.708-.787.053zm5.421 15.493c-.1.8-1.064.417-.706-.354.143-.307.691-.305.706.354zm-11.592-.682c.005.746-1.077.559-.627-.447.162-.366.629-.084.627.447zm-10.673 3.966c-.6-.015-.434-1.031.1-.948s.379.992-.1.948zm19.988-13.864c.013.693-1.11.408-.926-.167.138-.432.9-.239.926.167zm-17.21 5.677c1.224.272.459 1.325-.261.538-.2-.22 0-.512.261-.538zm11.7-10.941c.009-.608.834-.457.8.2-.026.542-.785.474-.8-.2zm-17.537 14.04c.544 0 .65.7.193.788-.684.132-.9-.811-.193-.788zm24.1-1.648c.031-.691.853-.559.768.091-.072.535-.768.465-.768-.091zm-7.977 3.907a.423.423 0 1 1-.843.009.423.423 0 0 1 .843-.009zm-7.318-6.513c-.862-.228-.658-.839-.235-.823.546.02.832.845.235.823zm2.9 5.84c.617 0 .391 1.066-.132.915-.437-.127-.3-.9.132-.915zm-9.78-1.823c-.009.641-1.228.237-.82-.334.261-.366.825-.02.82.334zm2.461 4.815c.044-.215.09-.551.388-.542.5.015.39 1.062-.11.983-.186-.029-.294-.185-.278-.441zm-1.889-12.542c1.007.173.59 1.161-.224.584a.324.324 0 0 1 .224-.584zm.555 5.452c-.858-.07-.448-1.138.219-.641a.343.343 0 0 1-.219.641zm10.568-12.639a.577.577 0 0 1 .505.483c0 .5-.6.412-.814.065a.365.365 0 0 1 .309-.547zm-2.534.935c.334 0 .669.581.393.818-.3.257-.895-.309-.7-.656a.309.309 0 0 1 .305-.162zm12.917 9.811c.357-.011.467.452.338.719-.222.45-.7.022-.706-.349a.383.383 0 0 1 .367-.37zm-20.806 3.321a.4.4 0 0 1-.809 0 .4.4 0 1 1 .809 0zm14.02-12.25c.035.691-.68.428-.72-.14-.037-.522.673-.494.72.14zm2.168 15.773c.007.476-.785.544-.794.079a.4.4 0 1 1 .794-.079zm-14.762-4.253a.387.387 0 0 1-.774.009.387.387 0 0 1 .774-.009zm19.257 2.215a.351.351 0 1 1-.7.051c-.086-.6.7-.68.7-.051zm.27-9.418c-.522 0-.636-.757-.072-.746.424.009.513.744.072.746zm-23.95 13.821a.384.384 0 0 1-.037-.765.384.384 0 0 1 .037.765zm11.789-17.068c-.285-.011-.443-.536-.2-.722.421-.321 1 .737.2.722zm1.263.739c0 .557-.728.332-.735-.038-.011-.513.753-.474.735.038zm5.721 12.327a.368.368 0 0 1-.737.006.368.368 0 0 1 .737-.006zm-17.333-2.9a.373.373 0 0 1-.744.024.373.373 0 0 1 .744-.024zm3.249-3.977c-.713-.041-.434-.982.184-.577a.313.313 0 0 1-.184.577zm4.881-2.106c.759.107.25 1.1-.268.49a.3.3 0 0 1 .268-.49zm-1.494 1.365c-.013.459-.722.231-.726-.114-.007-.482.743-.332.726.114zm12.264 9.212c0 .754-.895.468-.566-.118a.3.3 0 0 1 .566.118zm-11.715-1.489a.308.308 0 0 1-.015-.616.308.308 0 1 1 .015.616zm7.193 2.851a.261.261 0 0 1-.522 0 .261.261 0 0 1 .522 0zm38.391-5.6c0 .48-.47.238-.608-.013a32.046 32.046 0 0 0-3.414-4.091c-.614-.487-1.729-1.828-2.571-2.536l-1.145-1.112c-.246-.426.276-.3.592-.1a19.738 19.738 0 0 1 2.516 2.205 30.076 30.076 0 0 1 3.846 4.164 5.056 5.056 0 0 1 .785 1.477zm-11.91-13.532c.024-.506 4.023-2.11 4.374-2.249a40.6 40.6 0 0 1 5.349-1.436c.476-.077.7.445.112.627-.754.232-1.461.294-2.288.538a45.3 45.3 0 0 0-5.8 2.187c-.217.094-.423.338-.674.311-.213-.022-1.106.77-1.075.022zm7.395 3.99c-.481-.044-.388-.586.011-.834 2.1-1.316 6.013-2.156 8.466-2.819l1.715-.474c.215-.017.52.323.2.417a73.422 73.422 0 0 0-8.234 2.591.547.547 0 0 0-.1.044c-.709.434-1.652.6-1.854.976a.212.212 0 0 1-.206.1zm7.764 3.727c.208 0 .4.22.524.366.252.307 2.213 2.767 2.124 3.21a.3.3 0 0 1-.524.149l-1.715-2.411c-.156-.2-.684-.787-.687-1.038a.251.251 0 0 1 .277-.276zm-14.216-9.795a.345.345 0 0 1-.2.29c-.243.121-1.07.61-1.312.524a.345.345 0 0 1-.107-.606 2.835 2.835 0 0 1 1.141-.619.392.392 0 0 1 .474.411zm12.463 14.986c.013.56-.665.408-.847.053-.123-.239-.408-.557-.406-.834.007-.638.9-.47 1.229.64a.937.937 0 0 1 .024.141zm-10.352-5.334a.382.382 0 0 1-.652.259c-1.233-1.036-.7-1.349-.388-1.246.272.09 1.053.7 1.04.987zm2.821-5.181c-.017.4-.592.553-.9.656a.417.417 0 0 1-.41-.683c.3-.289 1.307-.632 1.31.027zm8.709 9.789c-.005.4-.445.4-.618.114-.244-.41-.88-.958-.54-1.259.461-.412 1.077.877 1.158 1.145zm-9.473-.522c-.3-.006-1.09-.764-.649-1.156.6-.535 1.58 1.154.649 1.156zm-5.092-16.574c-.557-.029-.522-.948.559-1.02.382-.026.735.579-.5 1.017a.294.294 0 0 1-.062 0zm3.822 5.873c.4-.033.487.375.2.618-1.108.928-1.262.09-.992-.22a1.093 1.093 0 0 1 .794-.4zm8.354 2.823c1.033.1-.04 1.459-.575.932-.384-.377.132-.952.575-.932zm-10.118-8.81c.485 0 .794.625-.41.945-.485.13-.825-.774.41-.945zm17.811 17.107a.382.382 0 0 1-.555.345c-.594-.265-.513-1.525.145-1.1a1.261 1.261 0 0 1 .41.757zm-3.326.066c.412.048.9.766.456 1.062-.358.237-.709-.217-.84-.513a.405.405 0 0 1 .384-.549zm-6.108 1.557c.017.648-.895.522-1.02-.221-.075-.456.4-.737.946-.024a.4.4 0 0 1 .074.245zm-3.631-.774c-.02.83-1.437.193-.945-.456.322-.425.954.016.945.456zm-4.7-15.389c-.557.017-.641-.687.232-.91.617-.158.768.886-.232.91zm4.64-1.342c-.215 0-.391.015-.452-.213-.114-.426.711-.6.937-.592a.339.339 0 0 1 .158.64 1.838 1.838 0 0 1-.643.165zm1.38 5.265c-.005.41-.972.779-1.176.305-.252-.588 1.178-.917 1.176-.305zm14.766 9.192c.4-.026.741.829.338 1.048-.562.308-1.1-1.027-.338-1.048zm-16.752-10.147c-.009.423-.878.689-1.06.252-.222-.534 1.051-1 1.06-.252zm7.68 4.679c-.579-.065-.511-.8.134-.937a.377.377 0 0 1 .459.311.622.622 0 0 1-.594.627zm-2.089 5.533c0 .61-.719.487-.976-.185-.153-.4.279-.708.866-.024a.4.4 0 0 1 .11.209zm9.578-5.735c.546.009.57.673-.083.844-.6.156-.774-.855.083-.844zm-5.967 6.805c-.6-.127-.577-1.129-.013-.956.524.158.652.958.013.956zm-5.384-11.01c0 .4-.761.637-.959.217-.276-.586.963-.906.959-.217zm16.725 10.6a.46.46 0 1 1-.053-.919c.549.006.588.913.053.919zm-1.1.2a.451.451 0 0 1-.9-.02.451.451 0 0 1 .9.02zm-19.242-1.742c-.006.932-1.338.074-.766-.419.331-.284.733.1.766.419zm1.033 1.582c.018.6-.81.583-.862-.14-.033-.481.719-.59.862.14zm-6.968-15.056c-.033.314-.8.676-1 .237-.232-.52 1.022-.935 1-.237zm10.379 7.551c0 .349-.636.606-.864.281-.38-.544.864-1.117.864-.281zm-6.47-4.646c.336 0 .6.36.283.617-.854.7-1.251-.637-.283-.617zm10.857 13.753c.391 0 .656.634.314.869-.573.393-1.049-.873-.314-.869zm4.394-7.465a.443.443 0 0 1 .04-.884.443.443 0 0 1-.04.884zm-3.743-1.974c-.022.663-1.178.592-.888-.081.158-.367.873-.36.888.081zm-12.406 2.307c.57.051.606 1.078-.033.882-.417-.13-.513-.931.033-.882zm1.136 2.848c-.04.456-.643.43-.821-.059a.368.368 0 0 1 .461-.48.633.633 0 0 1 .36.538zm14.152 1.558c-.018.471-.592.493-.8-.013a.371.371 0 0 1 .628-.379.718.718 0 0 1 .175.391zm-7.8-9.988a.423.423 0 0 1 .843.026.423.423 0 0 1-.843-.026zm-11.1-6.853c-.252 0-.244-.16-.29-.346-.028-.116-.092-.237.042-.329.788-.546 1.09.549.248.674zm21.8 18.4a.4.4 0 0 1-.8 0 .4.4 0 0 1 .8 0zm-16.984-15.473c-.009.607-1.2.406-.8-.114.208-.265.807-.368.8.114zm3.58 17.115a.387.387 0 0 1-.024-.774.387.387 0 0 1 .024.774zm-3.861-6.151c.013-.529.774-.289.755.149-.02.548-.763.29-.755-.149zm-1.784-7.351c.592.009.436.579 0 .687-.417.1-.695-.6 0-.687zm18.114 10.238a.373.373 0 0 1-.746.013.373.373 0 0 1 .746-.013zm-13.395-10.173c.013-.5.873-.334.763-.05-.208.539-.768.509-.763.05zm-.382 14.336c.015-.432.713-.382.7.044a.349.349 0 0 1-.7-.044zm5.258-5.254a.339.339 0 0 1-.017.678.339.339 0 0 1 .017-.678zm-3.006-.373a.341.341 0 0 1-.039-.678.341.341 0 0 1 .039.678zm-5.055-13.932a.333.333 0 0 1-.665.02.333.333 0 0 1 .665-.02zm13.327 8.115a.3.3 0 1 1-.6.011.3.3 0 1 1 .6-.011zm-3.727-3.508a.2.2 0 0 1 0 .4.2.2 0 0 1 0-.4zm-20.857-2.569c-.548 0-.665-.342.114-.772a9.5 9.5 0 0 0 1.073-.65c.865-.647 1.3.042.761.419-.4.285-1.432 1.031-1.948 1zm3.558-19.064a.86.86 0 0 1-.305.537 11.3 11.3 0 0 1-1.658 1.439.308.308 0 0 1-.349-.5c.434-.353.8-.781 1.272-1.092.36-.239.742-.777.9-.716s.141.195.141.336zm-4.829 17.964c-.516 0-.509-.6-.112-.781.252-.12.923-.5 1.187-.423a.412.412 0 0 1 .013.775 3.2 3.2 0 0 1-1.088.428zm5.495-17.037c.428-.022.491.3.246.515-.2.18-1.42 1.362-1.492.68-.04-.375.667-.783.917-1.044.1-.107.2-.191.329-.151zm-2.073 18.64c-.261-.007-.873-.487.709-1.022.469-.158.634.37.292.66a2.558 2.558 0 0 1-1 .362zm-.97-5.017c-.577-.024-.674-.763.226-1.092.43-.158 1.121.538-.129 1.077a.3.3 0 0 1-.1.015zm-7.231 4.295c.033-.739 1.182.248 1.275.564.068.231-.171.489-.364.384-.382-.206-.825-.489-.911-.948zm7.174-8.97a.469.469 0 0 1 .329.7c-.456.6-1.323.215-.987-.358a.887.887 0 0 1 .658-.345zm-.505 2.534c.584-.006.638.538-.4.953-.406.162-.93-.524.4-.953zm-4.045 3.681c-.013.647-.707.625-1.053-.088-.274-.56.524-.719.992-.062a.311.311 0 0 1 .061.151zm4.394.764c-.651-.055-.535-.827.309-.945.452-.064.7.682-.309.945zm-1.75-1.036c-.377.022-.48-.717.305-.917.6-.151.812.882-.305.917zm-5.278 7.507c-.009.5-.654.447-.954-.156-.158-.32.22-.583.505-.487a.991.991 0 0 1 .448.643zm4.491-13.808c-.27-.094-.779-.182-.643-.607.176-.542 1.251-.07.968.428a.367.367 0 0 1-.325.178zm-2.319 8.349c-.007.713-1.189.259-.891-.291.226-.417.9-.1.891.291zm5.3-10.078c-.538-.07-.424-.838.244-.838.579 0 .342.88-.244.838zm1.9 9.449c-.6.013-.331-.687.156-.816.557-.145.662.783-.156.816zm-10.776 7.433c.037-.816 1.259.009.729.46-.314.266-.742-.129-.729-.46zm-.656-1.042a.5.5 0 0 1-.248-.853c.533-.34 1.011.864.248.853zm6.763-16.591c.781.055.612.959-.116.741a.377.377 0 0 1 .116-.741zm3.539-3.653c0 .368-.636.6-.808.234-.259-.54.814-.845.808-.234zm-4.116 6.818c.529-.018.693.877.1.783-.481-.077-.619-.764-.1-.783zm-.952 4.293c-.011.505-.625.342-.774-.006a.339.339 0 0 1 .329-.469.527.527 0 0 1 .445.474zm4.828-14.778c.013.536-.95.525-.783.036.131-.382.77-.566.783-.036zm-.728 9.488c-.515.005-.316-.732.079-.739.489-.009.493.731-.079.739zm-6.56 8.075c-.3.015-.639-.491-.391-.716.217-.2.513.073.636.264a.294.294 0 0 1-.244.452zm8.918 2.343a.365.365 0 0 1 .007.73.365.365 0 0 1-.007-.73zm.384-1.52a.317.317 0 0 1 .634 0 .317.317 0 0 1-.634 0zm-4.609 11.746c.529-.013.551.57.053.733-1.15.375-1.882 1.22-2.191.715-.329-.542 1.874-1.464 2.137-1.448zm5.362 7.489c-.015.86-1.819-.253-2.023-.711-.153-.344.2-.461.7-.2.345.184.68.386 1.042.535a.381.381 0 0 1 .277.373zm-5.956-4.227c.312-.011 1.459.772.851 1.222-.391.291-.934-.209-1.185-.474a.461.461 0 0 1 .334-.748zm1.976-.162a3.046 3.046 0 0 1 1.081.6c.34.373-.1.765-.522.584-.371-.16-1.29-.549-.814-1.081a.306.306 0 0 1 .255-.108zm1.85 5.566a2.428 2.428 0 0 1-1.229-.781c-.167-.351.209-.592.505-.443.371.188.871.375 1.04.788a.311.311 0 0 1-.316.436zm-4.015-9.637a.347.347 0 0 1-.2.3c-.476.232-1.1.664-1.327.242-.263-.5.755-.834 1.081-.919a.37.37 0 0 1 .443.38zm15.572 14.09c-1.018-.009-1.5-.548-1.02-.8a2.666 2.666 0 0 1 1.251.145c.362.178.224.636-.232.65zm-11.219-15.6c-.022.371-1.092.875-1.327.354-.208-.457.513-.7.834-.79a.407.407 0 0 1 .492.436zm3.78 7.205c-.02.8-1.577.206-1.294-.377.195-.4.8-.121 1.086.011a.37.37 0 0 1 .208.366zm-.713 3.236c1.334.16.7 1.584-.443.63-.329-.274.011-.645.443-.63zm10.157 5.323c-.279-.024-.59-.121-.575-.461.027-.651 1.3-.465 1.233.09-.039.311-.393.382-.658.371zm-13.637-19.081c.511-.031.81.373.452.6-.73.465-1.6-.07-1.024-.456a1.245 1.245 0 0 1 .572-.144zm-.54 2.3c-.5 0-.719-.8.377-.873a.384.384 0 0 1 .2.709 1.687 1.687 0 0 1-.573.164zm-2.067.838c-.612 0-.63-.689.4-.9.338-.068.862.566-.4.9zm11.2 14.188c1.1.1.961.926.518.825-.281-.066-1.013-.127-.935-.538.035-.182.171-.285.417-.287zm-6.322-5.167c-.266-.013-.821-.287-.667-.667.344-.855 1.86.663.667.667zm-1.036-3.247c.97.163.809 1.048.257.928-.717-.158-.891-.877-.257-.928zm-.393-.9c-.888-.027-.621-1.057.209-.821.34.094.469.744-.209.821zm-4.673-6.163c-.018.3-.847.728-1.068.389-.36-.553 1.084-1.126 1.068-.389zm1.367 10.945c-1.077-.149-.36-1.459.331-.647a.394.394 0 0 1-.331.647zm2.733-7.606c-.627.016-.509-.766.27-.875.371-.051.724.606-.27.875zm5.4 10.414a.7.7 0 0 1-.546-.386c-.167-.49.419-.656.8-.349a.416.416 0 0 1-.257.735zm-7.218-9.755c-.579.013-.548-.788.316-.843.222-.015.82.513-.316.843zm.213 5.835c-.939-.228-.419-1.3.314-.713a.41.41 0 0 1-.314.713zm4.067-4.6c-.884.011-.544-.965.176-.76.413.116.413.709-.176.76zm-.342 8.078c.022.563-.733.34-.952.085-.316-.37.305-.781.864-.281a.308.308 0 0 1 .088.2zm6.518-1.466c.831.1.448 1.046-.278.74a.378.378 0 0 1 .017-.682 1.835 1.835 0 0 1 .261-.059zm-11.427-13.178c.632-.009.515.84-.149.845-.491.006-.559-.7.149-.845zm8.547 16.635c-1.1.015-.573-1.382.263-.52.23.235.018.515-.265.52zm-9.977-6.165c-.015.749-1.226.2-.831-.331.226-.3.853-.042.831.331zm11.822 2.172c-.755-.121-.373-1 .344-.674.421.191.175.684-.344.674zm4.607 3.767c.015.542-.63.485-.851.129-.314-.5.829-.777.851-.129zm-6.845-6.5c.891.035.474 1.1-.217.682a.368.368 0 0 1 .217-.682zm-1.737 5.965c-.726-.075-.838-.715-.379-.773.533-.068 1.073.768.379.773zm-4.561-7.678c-.389.006-.781-.522-.309-.717.68-.279.987.7.309.717zm2.836-8.757c-.849-.024-.222-1.049.277-.683.254.185.142.632-.277.683zm-8.9 6.542c-.447-.028-.393-.588.057-.755a.346.346 0 0 1 .408.509.638.638 0 0 1-.465.246zm4.113-2.69c.345.005.6.542-.233.688-.489.086-.469-.7.233-.687zm-4.251.621c-.015.509-.818.588-.792.044.02-.4.8-.476.792-.044z" class="cls-7" data-name="Path 677" transform="translate(709.373 625.285)"/>
    </g>
</svg>
