<svg xmlns="http://www.w3.org/2000/svg" width="125.947" height="106.44" viewBox="0 0 125.947 106.44">
    <defs>
        <style>
            .cls-1{fill:#3b1008}.cls-2{fill:#c29968}.cls-3{fill:#803a17}.cls-4{fill:#603425}.cls-4,.cls-5,.cls-6,.cls-7{fill-rule:evenodd}.cls-5{fill:#a04615}.cls-6{fill:#c66227}.cls-7{fill:#905742}.cls-8{fill:#100e0f}
        </style>
    </defs>
    <g id="Group_3455" data-name="Group 3455" transform="translate(-1146.924 -1859.771)">
        <g id="Group_22" data-name="Group 22" transform="translate(1146.924 1859.771)">
            <g id="Group_21" data-name="Group 21">
                <path id="Path_461" d="M424.193 1311.6a47.917 47.917 0 0 0 9.931.915 47.371 47.371 0 0 0 9.947-.915c3.192-.713 6.463-1.783 8.7-4.05a50.425 50.425 0 0 0 10.612-16.85 91.31 91.31 0 0 0 5.2-19.474.3.3 0 0 0 .017-.119 4.216 4.216 0 0 1-.779.777 10.978 10.978 0 0 1-2.009 1.167 30.3 30.3 0 0 1-4.342 1.545 76.863 76.863 0 0 1-9.023 1.783 141.36 141.36 0 0 1-36.616 0c-2.38-.348-4.761-.761-7.112-1.3.116 1.849 1.54 22.5 12.364 35.675a32.89 32.89 0 0 0 3.11.846z" class="cls-1" data-name="Path 461" transform="translate(-374.613 -1244.611)"/>
                <path id="Path_462" d="M441.4 1266.864a2.238 2.238 0 0 1 .226.242 1.492 1.492 0 0 0-.226-.242z" class="cls-2" data-name="Path 462" transform="translate(-347.236 -1248.167)"/>
                <path id="Path_463" d="M441.717 1267.283a1.585 1.585 0 0 0-.13-.2 1.585 1.585 0 0 1 .13.2z" class="cls-2" data-name="Path 463" transform="translate(-347.081 -1247.986)"/>
                <path id="Path_464" d="M408.677 1274.109c2.316.4 4.633.729 6.981.956a208.534 208.534 0 0 0 36.891 0 82.542 82.542 0 0 0 9.12-1.329 32.5 32.5 0 0 0 4.44-1.181 11.446 11.446 0 0 0 2.056-.981 2.55 2.55 0 0 0 1.312-1.571 3.607 3.607 0 0 0-.017-.428c-.031-.066-.031-.148-.064-.212 0-.033-.017-.057-.017-.09a3.176 3.176 0 0 0-1.183-1.207 10.661 10.661 0 0 0-2.056-1.02 30.611 30.611 0 0 0-4.44-1.272 66.675 66.675 0 0 0-4.357-.819 59.261 59.261 0 0 1-7.354 1.6 97.943 97.943 0 0 1-12.59 1.119 94.037 94.037 0 0 1-12.619-.583 63.29 63.29 0 0 1-2.755-.382c-9.542 3.277-12.554 6.347-13.348 7.4z" class="cls-2" data-name="Path 464" transform="translate(-374.649 -1249.767)"/>
                <path id="Path_465" d="M429.191 1266.034a195.23 195.23 0 0 0 12.474-.606c1.119-.1 2.236-.2 3.37-.325-.211-.015-.421-.05-.616-.072a166.976 166.976 0 0 0-18.485-.908h-.1a121.705 121.705 0 0 0-7.419 1.871c3.598.113 7.185.137 10.776.04z" class="cls-2" data-name="Path 465" transform="translate(-366.488 -1250.464)"/>
                <path id="Path_466" d="M441.768 1267.8a.278.278 0 0 1-.031.154.054.054 0 0 0 .015-.033.352.352 0 0 0 .016-.121z" class="cls-2" data-name="Path 466" transform="translate(-346.956 -1247.384)"/>
                <path id="Path_467" d="M513.519 1286.126a18.641 18.641 0 0 0-7.34-15.253 18.083 18.083 0 0 0-15.876-3.006c-.048-1.36-.1-2.72-.195-4.08a1.314 1.314 0 0 0 .211-.649v-.026a1.716 1.716 0 0 0-.729-1.262 5.864 5.864 0 0 0-1.15-.722 15.374 15.374 0 0 0-2.462-.939 44.461 44.461 0 0 0-5.1-1.2c-3.433-.632-6.884-1.055-10.352-1.378-6.932-.64-13.884-.9-20.834-.923-6.967-.016-13.917.2-20.867.809-3.466.308-6.933.705-10.37 1.314a50.188 50.188 0 0 0-5.134 1.174 16.008 16.008 0 0 0-2.5.948 6.446 6.446 0 0 0-1.2.744 1.952 1.952 0 0 0-.811 1.433 1.574 1.574 0 0 0 .423 1.046 131.093 131.093 0 0 0 .485 21.692 110.631 110.631 0 0 0 1.783 11.009 53.407 53.407 0 0 0-9.155 3.314 27.22 27.22 0 0 0-9.218 6.691 12.8 12.8 0 0 0-2.738 5.419 11 11 0 0 0 .537 6.253 16.666 16.666 0 0 0 3.951 5.7 4.832 4.832 0 0 0 .325.551 30.428 30.428 0 0 0 5.719 6.406 50.8 50.8 0 0 0 14.889 8.531c10.739 4.1 22.291 5.493 33.633 5.517 11.34-.017 22.892-1.408 33.633-5.508a50.847 50.847 0 0 0 14.889-8.531 30.687 30.687 0 0 0 5.717-6.415 22.01 22.01 0 0 0 1.509-2.715c.162-.219.34-.4.5-.606a12.708 12.708 0 0 0 2.284-5.517 9.929 9.929 0 0 0-.939-5.816 17.022 17.022 0 0 0-6.092-6.489 18.434 18.434 0 0 0 4.276-2.211 19.23 19.23 0 0 0 8.298-15.305zm-43.093-27.437a100.306 100.306 0 0 1 10.335.934 46.16 46.16 0 0 1 5.055 1.093 16.033 16.033 0 0 1 2.4.873c.713.349 1.573.843 1.637 1.516-.064.72-.924 1.182-1.637 1.538-.081.042-.16.066-.241.1a9.257 9.257 0 0 0-2.043-1.29v-.34c0 .114-.015.228-.015.333a23.173 23.173 0 0 0-2.073-.827c-1.573-.535-3.161-.956-4.765-1.336-3.207-.672-6.447-1.134-9.7-1.531-4.359-.511-8.751-.737-13.139-.875 4.723-.226 9.453-.342 14.185-.187zm17.351 6.14a19.511 19.511 0 0 1-1.849.649v-1.626a9.258 9.258 0 0 1 1.849.977zm-58.583-3.295c2.154-.324 4.341-.616 6.529-.892q7.048-.375 14.095-.366c6.48-.015 12.992.163 19.455.68 3.24.261 6.465.6 9.673 1.136 1.586.276 3.19.59 4.747 1.02a20.609 20.609 0 0 1 2.2.729c-.017.551-.05 1.11-.064 1.669-.016 0-.016 0-.016.007a48.434 48.434 0 0 1-5.055 1.1 100.3 100.3 0 0 1-10.335.93c-6.919.2-13.852-.105-20.738-.573-6.9-.48-13.753-1.289-20.494-2.294-3.142-.4-6.27-.963-9.284-1.564 3.017-.616 6.144-1.17 9.287-1.581zm-10.743 5.888c3.437.608 6.9 1.005 10.37 1.321 6.95.6 13.9.818 20.867.81 6.95-.033 13.9-.292 20.834-.932 3.468-.325 6.935-.746 10.352-1.37a48.823 48.823 0 0 0 4.943-1.158 174.57 174.57 0 0 1-.8 10.613 1.622 1.622 0 0 0-.224-.721 1.6 1.6 0 0 0-.13-.2.731.731 0 0 0-.114-.152 2.321 2.321 0 0 0-.226-.242 4.92 4.92 0 0 0-.551-.478 10.64 10.64 0 0 0-2.042-1.119 32.486 32.486 0 0 0-4.423-1.466 66.354 66.354 0 0 0-3.449-.745c1.312-.413 2.624-.86 3.888-1.393l-.05-.228c-2.234.478-4.487.825-6.739 1.11a85.715 85.715 0 0 0-2.8-.4 157.855 157.855 0 0 0-37.1 0c-.825.112-1.652.226-2.477.356l-.616-.1-.033.2c-2.025.316-4.034.7-6.026 1.207a29.788 29.788 0 0 0-4.409 1.457 10.875 10.875 0 0 0-2.056 1.119 3.314 3.314 0 0 0-1.15 1.327c-.357-3.3-.584-6.61-.73-9.931a50.138 50.138 0 0 0 4.891 1.115zm10.515 4.083a48.93 48.93 0 0 0 8.571 2.13c.923.147 1.83.276 2.755.383a94.117 94.117 0 0 0 12.619.583 97.969 97.969 0 0 0 12.59-1.119 59.2 59.2 0 0 0 7.354-1.6 66.02 66.02 0 0 1 4.357.82 30.551 30.551 0 0 1 4.44 1.272 10.659 10.659 0 0 1 2.056 1.02 3.177 3.177 0 0 1 1.183 1.207c0 .033.017.057.017.09.033.064.033.145.064.212s.033.145.048.224a.6.6 0 0 0-.015.164.044.044 0 0 0-.017.041 2.549 2.549 0 0 1-1.312 1.571 11.479 11.479 0 0 1-2.056.981 32.508 32.508 0 0 1-4.44 1.182 82.573 82.573 0 0 1-9.12 1.329 208.473 208.473 0 0 1-36.891 0 91.484 91.484 0 0 1-6.981-.956c-.713-.121-1.443-.228-2.156-.373a30.375 30.375 0 0 1-4.421-1.191 10.392 10.392 0 0 1-2.075-.972 3.524 3.524 0 0 1-1.117-1.044c-.033-.382-.083-.763-.13-1.151a3.037 3.037 0 0 1 1.215-1.314 10.763 10.763 0 0 1 2.056-1.02 31.36 31.36 0 0 1 4.44-1.274c2.3-.522 4.634-.893 6.966-1.195zm20.641-1.158a167 167 0 0 1 18.485.908c.195.022.4.057.616.071-1.134.121-2.251.226-3.37.326-4.148.34-8.312.532-12.474.606-3.6.1-7.178.073-10.772-.041-.568-.024-1.136-.016-1.72-.04-3.271-.154-6.56-.4-9.817-.851.195-.024.373-.05.568-.071a167.367 167.367 0 0 1 18.388-.908zm35.335 6.91a.278.278 0 0 0 .031-.154.282.282 0 0 1-.016.112.072.072 0 0 1-.016.042zm-69.534 1.433a10.9 10.9 0 0 0 2.04 1.158 31.5 31.5 0 0 0 4.423 1.557c.7.178 1.393.349 2.089.5l.276 4.333c-.566-.1-1.134-.187-1.7-.3a30.985 30.985 0 0 1-4.359-1.191 11.516 11.516 0 0 1-2.023-.972 3.8 3.8 0 0 1-.989-.891 112.597 112.597 0 0 1-.713-5.232 3.686 3.686 0 0 0 .956 1.039zm.616 5.274a10.319 10.319 0 0 0 1.992 1.167 31.029 31.029 0 0 0 4.341 1.545 61.3 61.3 0 0 0 1.911.478c2.35.544 4.732.957 7.112 1.305a141.374 141.374 0 0 0 36.616 0 76.866 76.866 0 0 0 9.023-1.783 30.231 30.231 0 0 0 4.342-1.545 10.981 10.981 0 0 0 2.009-1.167 4.218 4.218 0 0 0 .779-.777.3.3 0 0 1-.017.119 91.328 91.328 0 0 1-5.2 19.474 50.427 50.427 0 0 1-10.612 16.85c-2.237 2.267-5.508 3.337-8.7 4.05a47.372 47.372 0 0 1-9.947.915 47.935 47.935 0 0 1-9.931-.915 32.848 32.848 0 0 1-3.109-.851 13.708 13.708 0 0 1-5.592-3.2 50.01 50.01 0 0 1-10.594-16.85 90.4 90.4 0 0 1-5.217-19.474c0-.055-.017-.1-.017-.154a3.86 3.86 0 0 0 .81.814zm-6.643-19.635c.081.08.162.16.243.233a6.409 6.409 0 0 0 1.2.739 16.974 16.974 0 0 0 2.5.946l.1.026c0 12.491 1.474 25.11 5.914 36.945a49.245 49.245 0 0 0 10.691 17.4 13.53 13.53 0 0 0 4.44 2.95 26.748 26.748 0 0 0 4.973 1.562 51.985 51.985 0 0 0 20.494 0 27.278 27.278 0 0 0 4.976-1.562 13.4 13.4 0 0 0 4.423-2.942 49.306 49.306 0 0 0 10.708-17.408c4.471-11.9 5.928-24.6 5.9-37.156a.117.117 0 0 1 .05-.007 15.952 15.952 0 0 0 2.462-.95 5.381 5.381 0 0 0 1.15-.718 2.546 2.546 0 0 0 .421-.456 183.975 183.975 0 0 1-2.641 21.589 108.142 108.142 0 0 1-6.156 21.394c-2.883 6.762-6.61 13.194-11.761 18.2-2.156 2.146-5.574 3.346-9.008 4.091a60.325 60.325 0 0 1-21.532-.008c-3.435-.737-6.867-1.944-8.99-4.083-5.169-5.022-8.88-11.438-11.763-18.209a106.594 106.594 0 0 1-6.173-21.394 183.942 183.942 0 0 1-2.622-21.181zm83.419 10.855a10.086 10.086 0 0 1 8.747 3.06 9.377 9.377 0 0 1 2.137 9.253 10.708 10.708 0 0 1-6.48 6.658 11.063 11.063 0 0 1-8.7-.632c.454-2.543.844-5.112 1.119-7.672.112-.939.162-1.878.241-2.81a1.915 1.915 0 0 0 .325-.162 4.049 4.049 0 0 0 1.005-.884 7.58 7.58 0 0 0 1.329-2.267 6.629 6.629 0 0 0 .277-4.543zm-16.186 53.5a5.287 5.287 0 0 1 .632 3.425 119.464 119.464 0 0 1-13.156 1.937c-2.883.266-5.8.438-8.716.542a50.459 50.459 0 0 0 6.044-.913 32.24 32.24 0 0 0 5.8-1.841 16.155 16.155 0 0 0 5.379-3.6c.5-.535.989-1.086 1.457-1.628a8.587 8.587 0 0 1 .779.388 5.044 5.044 0 0 1 1.78 1.686zm-33.1 5.857c-.388-.017-.794-.017-1.182-.04a128.553 128.553 0 0 1-19.3-2.31 5.467 5.467 0 0 1 .485-3.256 5.114 5.114 0 0 1 2.122-1.952c.357.414.73.842 1.117 1.239a16.152 16.152 0 0 0 5.379 3.613 32.682 32.682 0 0 0 5.8 1.841 48.532 48.532 0 0 0 5.58.86zm-49.753-17.189a7.992 7.992 0 0 1-.713-4.585 10.418 10.418 0 0 1 1.911-4.5 26.369 26.369 0 0 1 8-6.941 63.123 63.123 0 0 1 8.571-4.271 85.182 85.182 0 0 0 3.223 11.2 59.052 59.052 0 0 0 8.44 15.789 8.029 8.029 0 0 0-.68.873 7.638 7.638 0 0 0-1.264 3.444 6.889 6.889 0 0 0 .568 3.345c.048.107.112.188.16.292-.388-.081-.792-.145-1.182-.235-7.031-1.515-14-3.741-20.008-7.354-2.942-1.845-5.664-4.162-7.025-7.062zm103.022 12.348a53.713 53.713 0 0 1-14.727 7.169 89.383 89.383 0 0 1-16.087 3.5 119.608 119.608 0 0 1-16.524.98 120.939 120.939 0 0 1-16.526-.972 89.051 89.051 0 0 1-16.087-3.5 53.542 53.542 0 0 1-14.732-7.177c-.4-.283-.809-.59-1.2-.9a52.993 52.993 0 0 0 8.084 3.905 88.308 88.308 0 0 0 10.822 3.37 126.1 126.1 0 0 0 22.293 3.093c14.953.6 30.117-.7 44.438-5.581a60.37 60.37 0 0 0 10.368-4.642 41.418 41.418 0 0 0 3.923-2.648 34.408 34.408 0 0 1-4.045 3.403zm9.056-19.061a8.679 8.679 0 0 1 .357 5.006 10.382 10.382 0 0 1-2.316 4.431 25.981 25.981 0 0 1-8.426 6.191 63.1 63.1 0 0 1-10.026 3.862c-2.367.68-4.765 1.248-7.18 1.766.05-.13.132-.243.18-.381a6.663 6.663 0 0 0 .421-3.558 8.175 8.175 0 0 0-1.573-3.49 7.553 7.553 0 0 0-.776-.876 59.5 59.5 0 0 0 8.1-15.35c.031-.1.064-.195.1-.281.033-.009.1-.016.13-.026a5.7 5.7 0 0 0 1.215-.382 6.676 6.676 0 0 0 2.058-1.376 7.469 7.469 0 0 0 1.343-1.8.03.03 0 0 0 .017-.031 20.045 20.045 0 0 0 11.164-.583 17.416 17.416 0 0 1 5.212 6.878zm-16.831-10.863l-1.669-.713c.373-1.54.713-3.078 1-4.626a10.13 10.13 0 0 0 3.466 2.13 11.271 11.271 0 0 0 11.715-2.746 11.551 11.551 0 0 0 3-5.6 12.2 12.2 0 0 0-3.5-11.445 11.52 11.52 0 0 0-11.243-2.683l-.6.2.162.551v.015l.033.121.031.05a5.32 5.32 0 0 1 .4 4.447 7.788 7.788 0 0 1-1.036 2.187 3.528 3.528 0 0 1-.809.851.213.213 0 0 1-.048.031 134.763 134.763 0 0 0 .388-14.663 17.583 17.583 0 0 1 15.212 3.817 17.038 17.038 0 0 1 5.864 14.321 16.528 16.528 0 0 1-7.906 12.735 15.978 15.978 0 0 1-14.46 1.02z" class="cls-3" data-name="Path 467" transform="translate(-390.16 -1256.689)"/>
            </g>
        </g>
        <path id="Path_678" d="M440.89 1314.462a5.218 5.218 0 0 0 .426-.542 3.33 3.33 0 0 1 1.382-1.143c.516-.287 1.04-.559 1.58-.8a5.065 5.065 0 0 1 1.477-.346c1.643-.208 4.743-.09 5.552 1.635a5.9 5.9 0 0 1 .7 1.909.577.577 0 0 1-.009.269 14.849 14.849 0 0 0-.439 1.773 7.247 7.247 0 0 1-1.863 3.58c-.015.015-.022.033-.048.068a.856.856 0 0 0 .408-.044 33.84 33.84 0 0 0 2.771-.854 7.018 7.018 0 0 1 3.15-.265 3.778 3.778 0 0 1 1.569.524c.285.169.362.322.261.634-.017.053-.051.1-.062.154-.022.1-.191.149-.125.253.048.077.173.109.266.153a10.794 10.794 0 0 1 1.854 1 6.627 6.627 0 0 1 2.133 2.049 8.1 8.1 0 0 1 1.014 2.457 3.713 3.713 0 0 0 .171.748.213.213 0 0 1 .011.083 3.038 3.038 0 0 1-1.514 2.626 16.862 16.862 0 0 1-5.723 1.509c-.226.037-.428.162-.66.193a.2.2 0 0 0-.169.186c-.057.562-.386.785-.912.6-.571-.195-1.183-.254-1.744-.493a.232.232 0 0 0-.123-.013 1.351 1.351 0 0 1-1.259-.461c-.691-.763-1.477-1.435-2.117-2.248a2.826 2.826 0 0 1-.242-.314 3.548 3.548 0 0 0-1.538-1.3.72.72 0 0 0-.3-.094 13.92 13.92 0 0 1-2.863-.546 28.408 28.408 0 0 1-4.7-1.669c-.243-.117-.489-.233-.73-.358a.5.5 0 0 0-.4-.006c-.972.277-1.847.8-2.821 1.084a25.673 25.673 0 0 1-2.723.777 21.357 21.357 0 0 1-4.721.469 1.337 1.337 0 0 1-1.139-.621c-.107-.169-.244-.318-.364-.482-.491-.661-1.2-2.281-.963-3.056a2.382 2.382 0 0 1 1.874-1.785c.239-.049.481-.086.715-.151a4.062 4.062 0 0 1 1.119 0 17.571 17.571 0 0 0 2.325-.22c.373-.048.741-.127 1.112-.184.123-.02.16-.077.142-.2a3.133 3.133 0 0 1 .074-1.259 2.265 2.265 0 0 0 .02-.373 2.541 2.541 0 0 1 1.15-1.792c.171-.13.36-.235.529-.371a.821.821 0 0 1 .939-.057 7.8 7.8 0 0 1 1.193.836 12.768 12.768 0 0 0 1.9 1.128.165.165 0 0 0 .208-.037c.086-.079.2-.171.147-.3a5.217 5.217 0 0 1-.028-2.611 6.631 6.631 0 0 1 .68-2.069.831.831 0 0 1 .156-.221.442.442 0 0 1 .548-.115 1.294 1.294 0 0 1 .739.7zm25.726-5.377a2.438 2.438 0 0 0-1.72.619 1.161 1.161 0 0 0-.246.281 9.223 9.223 0 0 1-1.327 1.268c-.4.318-.746.689-1.167.978a1.067 1.067 0 0 1-.755.169.849.849 0 0 0-.39.015 13.6 13.6 0 0 1-1.393.246c-.441.094-.654-.11-.669-.572a.185.185 0 0 0-.2-.191 2.1 2.1 0 0 1-1.066-.377 1 1 0 0 0-.57-.175 3.184 3.184 0 0 1-1.088-.173 4.151 4.151 0 0 1-1.751-.811 1.012 1.012 0 0 0-.4-.213 1.125 1.125 0 0 1-.553-.359 3.04 3.04 0 0 1-.726-1.538c-.325-2.736 2.689-4.752 4.875-5.517.142-.048.165-.086.083-.226-.2-.342-.1-.555.239-.728a4.16 4.16 0 0 1 2.082-.285 6.417 6.417 0 0 1 2.389.685 10.673 10.673 0 0 0 2.148.8 18.98 18.98 0 0 0 4.186.426 30.019 30.019 0 0 0 3.477-.581 11.12 11.12 0 0 0 3.242-1.186 7.236 7.236 0 0 0 .735-.476 3.061 3.061 0 0 1 .584-.274.612.612 0 0 1 .682.121 5.225 5.225 0 0 1 .86.816 1.9 1.9 0 0 1 .406 1.31 4.988 4.988 0 0 0 .029.641 1.492 1.492 0 0 1-.691 1.36c-.866.592-1.832 1-2.734 1.516a17.677 17.677 0 0 1-4.532 1.766 28.535 28.535 0 0 1-3.26.617c-.226.029-.458.027-.774.044zm12.976 14.29c.195.1.393.189.588.294a1.1 1.1 0 0 1 .59.59.507.507 0 0 1-.241.658 4 4 0 0 1-2.251.5c-.924-.064-3.157-1.172-3.521-2.084-.165-.413-.447-.783-.617-1.2-.031-.079-.1-.062-.158-.064-.542-.013-1.084-.02-1.626-.041-1.136-.04-2.257-.229-3.379-.38-1.67-.224-5.959-1.32-7.362-2.343a1.95 1.95 0 0 1-.856-1.049c-.07-.292-.189-.568-.263-.854a3.821 3.821 0 0 1-.134-1.783 1.784 1.784 0 0 1 1.647-1.325 6.155 6.155 0 0 1 2.139.5 9.9 9.9 0 0 0 1.395.355c1.251.276 2.527.417 3.793.593a18.287 18.287 0 0 0 2.418.116 3.458 3.458 0 0 0 1.229-.182 2.949 2.949 0 0 0 1.318-1.119 5.93 5.93 0 0 1 2.168-1.788 3.352 3.352 0 0 1 1.739-.252.387.387 0 0 1 .362.3 3.037 3.037 0 0 1 .142.542c.007.153.1.211.244.234a4.6 4.6 0 0 0 1.143-.048 8.376 8.376 0 0 1 2.347.13 4.936 4.936 0 0 1 1.731.643 1.092 1.092 0 0 1 .432.491 1.294 1.294 0 0 0 .6.588 5.023 5.023 0 0 1 .95.592 1.857 1.857 0 0 1 .314 2.078.889.889 0 0 0-.134.413 9.458 9.458 0 0 1-.559 1.9 2.176 2.176 0 0 1-.978 1.1 14.794 14.794 0 0 1-3.052 1.334 9.508 9.508 0 0 1-2.148.507l-.007.053zm-46.533-23.359a5.108 5.108 0 0 1 .873.1 17.947 17.947 0 0 0 2.9-.07 23.613 23.613 0 0 0 4.352-.873 7.278 7.278 0 0 0 .917-.344 1.187 1.187 0 0 0 .421-.193c.074-.072.145-.147.1-.254a2.414 2.414 0 0 1 .017-1.375c.026-.2.07-.4.108-.6a5.278 5.278 0 0 1 1.047-2.286 1.017 1.017 0 0 1 1.525-.314.514.514 0 0 0 .542.008 14.394 14.394 0 0 1 2.093-.885 5 5 0 0 1 1.965-.166c.408.033.816.11 1.224.118a3.624 3.624 0 0 1 1.263.4c.147.057.281.151.428.213a1.9 1.9 0 0 1 1.106 1.077 5.161 5.161 0 0 1 .472 1.74.383.383 0 0 1 0 .165c-.276.584-.38 1.266-.956 1.678-.068.05-.14.1-.121.2a2.638 2.638 0 0 1-.968 2.321 2.978 2.978 0 0 1-.752.593c-.178.1-.169.257-.18.412s.094.213.21.255c.186.068.224.167.132.351a1.829 1.829 0 0 1-1.163.974c-.379.11-.77.184-1.16.261a4.657 4.657 0 0 1-1-.044 6.049 6.049 0 0 1-2.529-.562 1.676 1.676 0 0 0-1.15-.116.486.486 0 0 0-.14.037c-.856.489-1.812.74-2.7 1.152a.108.108 0 0 1-.039.015c-1.139.2-2.2.709-3.346.884a26.95 26.95 0 0 1-4.791.524 7.4 7.4 0 0 1-3.115-.585.52.52 0 0 1-.294-.248 1.927 1.927 0 0 1-.25-.912 1.576 1.576 0 0 1 .305-1.018.353.353 0 0 0 .07-.277 2.05 2.05 0 0 1 1.909-2.282c.25-.015.5-.052.678-.072z" class="cls-4" data-name="Path 678" transform="translate(786.201 633.278)"/>
        <path id="Path_679" d="M433.994 1314.462a5.229 5.229 0 0 0 .426-.542 3.33 3.33 0 0 1 1.382-1.143c.516-.287 1.04-.559 1.58-.8a5.065 5.065 0 0 1 1.478-.346c1.643-.208 4.743-.09 5.552 1.635a5.9 5.9 0 0 1 .7 1.909.577.577 0 0 1-.009.269 14.849 14.849 0 0 0-.439 1.773 7.246 7.246 0 0 1-1.863 3.58.426.426 0 0 0-.037.052l-3.841.627-1.7-1.705.085-2.387-1.066-1.448-1.022-.128-.937 1.237-.742-3.128a1.2 1.2 0 0 1 .459.547zm9.5 6.267q.5-.138 1-.289l-.079.138-.923.151zm7.209.494a.089.089 0 0 0 .017.044c.048.077.173.109.266.153a10.789 10.789 0 0 1 1.854 1 6.626 6.626 0 0 1 2.134 2.049 8.1 8.1 0 0 1 1.014 2.457 3.709 3.709 0 0 0 .171.748.213.213 0 0 1 .011.083 3.039 3.039 0 0 1-1.514 2.626 16.862 16.862 0 0 1-5.723 1.509l-.064.013-2.365-.285-.766-2.727-2.045-1.408.511-2.046 1.917-1.917v-1.492l.981-.682 3.6-.123zm-.092-18.781l3.479.537.682.511-.469 1.108.937 1.321 1.066 1.576-.768 1.406-1.748 1.279-.255 1.45-2.012.228a2.578 2.578 0 0 1-.741-.336 1 1 0 0 0-.57-.175 3.184 3.184 0 0 1-1.088-.173 4.152 4.152 0 0 1-1.751-.811 1.012 1.012 0 0 0-.4-.213 1.125 1.125 0 0 1-.553-.359 3.04 3.04 0 0 1-.726-1.538c-.325-2.736 2.689-4.752 4.875-5.517.142-.048.165-.086.083-.226l-.037-.07zm-5.8-.042l-.18-.1-2.984-1.279-1.277-1.235.34-1.577-.724-2.045h-1.576l-.555.809-.085-1.746.985-1.338a.638.638 0 0 0 .206-.07 14.4 14.4 0 0 1 2.093-.885 5 5 0 0 1 1.964-.166c.408.033.816.11 1.224.118a3.624 3.624 0 0 1 1.263.4c.147.057.281.151.428.213a1.9 1.9 0 0 1 1.106 1.077 5.157 5.157 0 0 1 .472 1.74.379.379 0 0 1 0 .165c-.276.584-.38 1.266-.956 1.678-.068.05-.14.1-.121.2a2.638 2.638 0 0 1-.969 2.321 2.979 2.979 0 0 1-.752.593c-.178.1-.169.257-.18.412s.094.213.209.255c.186.068.224.167.132.351a1.247 1.247 0 0 1-.061.114zm27 11l-3.789 3.431-.086.98.726 1.79.084 2.3.469.9 1.874.3 2.2.147a12.091 12.091 0 0 0 1.556-.427 14.789 14.789 0 0 0 3.052-1.334 2.176 2.176 0 0 0 .978-1.1 9.454 9.454 0 0 0 .559-1.9.888.888 0 0 1 .134-.413 1.858 1.858 0 0 0-.314-2.078 5.021 5.021 0 0 0-.95-.592 1.293 1.293 0 0 1-.6-.588 1.093 1.093 0 0 0-.432-.491 4.936 4.936 0 0 0-1.731-.643 8.376 8.376 0 0 0-2.347-.13 4.6 4.6 0 0 1-1.143.048c-.132-.021-.221-.072-.241-.2z" class="cls-5" data-name="Path 679" transform="translate(793.098 633.278)"/>
        <path id="Path_680" d="M436.168 1313.327a3.44 3.44 0 0 1-.555.375c-.085.039-.513.792.086.236.059-.053.307-.327.309-.223.006.254-.384.445-.465.721-.134.454.59-.2.336.25-.2.353.531.2.726.125 0 0 .018.039-.151.215-.322.338.367 0 .419-.011.713-.2.594-.478 1.505-.669.461-.1.017-.073.645-.053.443.013-.154-.325-.476-.333a11.517 11.517 0 0 1-1.474.086c-.158-.379-.022-.329.415-.566.485-.261 1.042-.629 1.588-.173.182.153.23.048.54.016.136-.015.917-.081.77-.314-.244-.386-.369-.107-.638-.4-.329-.36-2.056-.011-2.5.437-.243.248-.428.489-.737.34a2.516 2.516 0 0 0-.349-.057zm11.36-6.761c-.494.318-.542.568-1.068.73-.441.134-.208.353-.007.257a2.909 2.909 0 0 0 .514-.278c.175-.109.612.077 1.04-.007a4.839 4.839 0 0 1 .774-.055c.092-.009.2-.375-.52-.3-.233.026.114.059.481-.309.577-.577.487-.228.864-.445 0 0 .375-.424.314-.535-.195-.354-.915.265-1.09.412-.437.368-.888.276-1.184.452l-.119.077zm3.243-.116a1.584 1.584 0 0 0-1 .454c-.1.073.151.162-.482.158-.037 0 .075.43.82.211.421-.121.542.507.851-.233.085-.2-.14.066.169-.274.292-.321-.134-.407-.384-.329l.028.013zm-5.746.415c.233-.083.357-.7.65-.7.211 0 .408-.5.629-.589.167-.07.417-.67.682-.935.086-.086.469-.614.551-.489.044.07.4-.45-.147-.349-.305.057-.912.755-1.237 1.011s-.6.713-.933 1.038c-.153.147-.461.655-.32.875l.125.136zm-6.025 8.623a7.245 7.245 0 0 0-.612.443c.129.3.726-.224.763-.084.138.505.693-.287.792-.318s.8-.183.564-.329c-.276-.175-.63.117-.873.213-.515.2-.244.081-.634.075zm8.317 8.764c-.165-.263-.759-.246-1.04-.362 0 0-.4.136-.406.149.057.088.467.128.64.351.083.108.3.2.1.353-.112.084-.415.009-.033.4.063.064.27.167-.009.261-.143.05-.658-.052-.634.011.033.09-.007.139.136.264.461.4.507.171.948.474.145.1.158.04.323.182.018.016.415.2.228.261-.27.086-.434.011-.272.237.1.143.592-.037.775-.061.329-.042.4-.173.676-.237.4-.1.039-.173.6-.061.151.03.741-.088.142-.288a3.479 3.479 0 0 1-.38-.233c-.138-.075-.006-.081-.217-.294-.173-.175-.2-.325-.423-.463-.125-.077.436.1.206-.048a1.854 1.854 0 0 0-.474-.307c-.1-.044-.3-.166-.4-.209a.81.81 0 0 1-.479-.379zm.876-2.348c-.553-.469-1.421-.178-1.066.081.5.364.972-.031 1.544.318.186.114.5-.026 1.1.441.123.1.1-.013.375.264.109.109 1.024 1.009 1.051 1.016.024-.353.061-.2-.256-.533s-.075-.443-.149-.584a1.828 1.828 0 0 0-1.29-.887 4.009 4.009 0 0 1-.956-.05c-.158-.042-.268.005-.353-.066zm-4.721-26.411c-.178.208-1.268.154-.818.678a.441.441 0 0 0 .52.041c.152-.153.4-.427.327-.638-.006-.018-.022-.088-.029-.08zm-3.19-1.358c-.134.042-.932.288-.932.415 0 .472.706.1.16.628-.228.219.415.38.415.511 0 .458.147.164.331.566.13.287.068.386.606.309a2.175 2.175 0 0 1 .606-.075.288.288 0 0 0 .318-.329c-.134-.719-.834-.077-.943-.673-.057-.307.878-.583 1.029-.4.461.549.945-.232 1.053-.254.222-.044.526.182.526-.364 0-.408-.783-.656-1.024-.891-.154-.151-.643-.391-.853-.239-.518.376-.178.18-.364.584-.075.16-.768.068-.882.193-.02.024-.015.011-.048.022zm30.15 20.845c-.546.25-.375-.015-.935.474-.241.209-.392.136-.392.434 0 .193-.5.142-.768.5-.072.094-.52.2-.255.356s1.027-.344.99-.232c-.145.462.812.048.838-.057.072-.281.6-.233.518-.358-.066-.1-.191-.422-.07-.566.23-.272.542-.094.823-.511.1-.141-.266-.274-.608-.064-.046.028-.16.075-.142.028zm2.727-.3c-.263-.068-.849.342-1.165.4-.549.11-.1.465-.119.494-.388.505 1.185 0 1.248.007.358.048.421.167.753-.263.182-.237-.193-.544-.5-.454-.064.02-.233-.208-.215-.189zm-1.623 3.942a1.9 1.9 0 0 0-.877.266c-.164.153-.314.177-.088.313.187.11.959-.226 1.312-.261a4.779 4.779 0 0 0 1.035-.234c.562-.312.077-.549-.022-.513a5.559 5.559 0 0 1-1.36.428z" class="cls-6" data-name="Path 680" transform="translate(794.648 633.739)"/>
        <path id="Path_681" d="M450.273 1320.931c.048-.094.555-.242.724-.708a4.052 4.052 0 0 0 .068-1.343c.024.022.38-.156.535.354a2.775 2.775 0 0 1-.193 1.222c-.226.447-.888.575-.919.634-.1.195-.226.334-.276.3s-.04-.254.061-.456zm-14.01-3.6c.189.134.935.358 1.233.572s.186.356.158.395a5.866 5.866 0 0 1-1.555-.764c-.38-.272-.687-.476-.634-.551s.417.077.8.349zm-9.572 3.687c.174-.019.3 0 .3.057s-.1.1-.233.146c.1.27.2.478.287.476.233 0 .987-.18 1.353-.18s.358.182.358.228a7.066 7.066 0 0 1-1.709.283c-.2.011.046.481-.09.566-.165.1-.7-.182-.748-.294a20.447 20.447 0 0 1-.018-1.062v-.035a4.955 4.955 0 0 1 .075-1.237c.027-.007.062.042.1.129a1.016 1.016 0 0 1 .294-.048c.222-.009.4.035.4.1s-.18.124-.4.131a1.1 1.1 0 0 1-.228-.011c.077.208.164.494.252.755zm13.9-23.734c.13-.017 1.893-.737 2.1-.763s.213.077.217.1a18.067 18.067 0 0 1-2.293.845c-.263.033-.482.018-.489-.033s.2-.122.465-.155zm29.658 4.428c.195-.023.818-.316 1.127-.354s.309.18.312.235a3.915 3.915 0 0 1-1.421.511c-.391.048-.715 0-.72-.108s.311-.235.7-.283zm-32.849 15.517c.107.077.559.178.728.3a.194.194 0 0 1 .033.3c-.053.074-.737-.178-.954-.332s-.347-.341-.294-.414.272-.01.487.143zm5.39 2.625c.2.1 2.115.685 2.071.737-.022.026.085.349-.435.228a12.68 12.68 0 0 1-1.79-.746c-.2-.1-.34-.217-.3-.266s.254-.048.458.048zm-3.883-22.067c.13-.017.54-.173.746-.2s.215.077.217.1a3.251 3.251 0 0 1-.939.283c-.263.033-.481.019-.489-.035s.2-.119.465-.152zm1.9 20.753c.116.063 1.97.5 2.152.6s.129.188.118.211a18.034 18.034 0 0 1-2.36-.645c-.233-.125-.4-.265-.377-.311s.233.018.467.145zm29.359-17.4c.132-.013.566-.191.774-.213s.193.112.191.147a3 3 0 0 1-.981.309c-.265.028-.474 0-.471-.07s.222-.144.487-.173zm-35.755-1.952c.222-.041.4-.02.4.042s-.18.147-.4.188-.4.02-.4-.042.18-.147.4-.187zm-.119-.906c.23.033 1-.039 1.364.013s.329.233.322.278c0 .009-.013.017-.033.024v.018a5.9 5.9 0 0 1-1.709.281c-.469 0-.847-.074-.847-.164s.27-.143.638-.16c-.353-.072-.606-.173-.6-.248s.4-.108.862-.042zm33.648 3.977c.132.006.566-.154.774-.143a.193.193 0 0 1 .193.237c-.005.092-.717.248-.981.235s-.476-.1-.472-.187.224-.155.487-.142zm-28.793 15.709c.116.062.54.174.724.272s.129.189.116.211a3.293 3.293 0 0 1-.93-.316c-.233-.125-.4-.265-.377-.311s.233.019.467.144zm24.9-3.947c.222.066 1 .04 1.351.145s.29.28.278.322a5.751 5.751 0 0 1-1.718-.222c-.448-.134-.805-.23-.779-.316s.421-.063.869.072zm-29.45 2.3c.2.1.34.215.3.267s-.232.015-.436-.081-.34-.217-.3-.269.232-.015.436.083zm30.49-2.758c.125.038.586-.011.785.048a.194.194 0 0 1 .129.278 2.072 2.072 0 0 1-1.009-.008c-.254-.077-.437-.21-.412-.3s.254-.1.507-.02zm-34.7 6.373c.132 0 .559-.129.766-.129s.2.129.2.162a2.732 2.732 0 0 1-.968.2c-.265 0-.48-.052-.48-.116s.215-.116.48-.116zm5.805-20.991c.233 0 .97-.25 1.338-.25s.357.182.357.228a5.781 5.781 0 0 1-1.709.283c-.469 0-.838.011-.838-.081s.386-.18.853-.18zm35.592 1.736c.132-.015.566-.191.774-.213s.195.112.191.145a2.982 2.982 0 0 1-.979.311c-.265.028-.476 0-.472-.07s.222-.145.487-.173zm-42.292 19.943c.233 0 .948-.188 1.316-.188s.357.184.357.23a18.07 18.07 0 0 1-3.03.572c-.467 0-.292-.084-.292-.177a4.581 4.581 0 0 1 1.65-.437zm32.578-7.007c.127.039.586-.013.785.048a.194.194 0 0 1 .129.278 2.055 2.055 0 0 1-1.009-.01c-.254-.075-.437-.208-.412-.3s.254-.1.507-.021zm-27.183 2.277c.189.134.908.425 1.206.638s.186.357.158.393a5.779 5.779 0 0 1-1.555-.762c-.38-.272-.647-.554-.594-.627s.4.086.785.358zm32.573-1.7c.191.042.876-.026 1.18.042s.232.272.215.325a3.914 3.914 0 0 1-1.509.007c-.386-.086-.673-.239-.641-.342s.369-.12.755-.033zm-30.4-15.986c.132 0 .559-.182.766-.182a.2.2 0 0 1 .2.23c0 .09-.7.281-.968.281s-.48-.073-.48-.163.215-.166.48-.166zm4.539 21.2c.2.1.34.217.3.268s-.231.015-.435-.081-.34-.216-.3-.268.232-.014.435.081zm25.731-17.732c.222 0 1-.25 1.353-.246s.29.193.276.241a5.893 5.893 0 0 1-1.718.278c-.448 0-.8 0-.777-.091s.421-.185.867-.182zm-4.614 11.305c.213.1.943.219 1.277.369s.252.313.231.355a17.912 17.912 0 0 1-3-.72c-.428-.193-.233-.2-.2-.281a4.582 4.582 0 0 1 1.685.277zm-23.265 5.618c.167.1.838.257 1.1.419s.132.333.1.377a3.867 3.867 0 0 1-1.43-.478c-.338-.206-.562-.443-.5-.531s.388.008.726.213z" class="cls-7" data-name="Path 681" transform="translate(786.943 636.446)"/>
        <path id="Path_682" d="M450.408 1320.375a11.008 11.008 0 0 0 1.391-.518l.77-.283c.934-.474 3.409-.77 4.23-.011.167.154.551.213.777.45a2.7 2.7 0 0 1 .237.575c.028.481-.43.63-.116.735a11.612 11.612 0 0 1 3.3 1.887c.417.324.652.818 1.031 1.175a5.093 5.093 0 0 1 1.033 2.472c.04.32.25.5.075.844-.424.844-.033.989-.88 2.038a3.613 3.613 0 0 1-2.19 1.406c-.757.138-1.5.342-2.242.539a7.813 7.813 0 0 1-2.608.419c-.4-.119-.042.779-.783.8-.423.007-1.36-.4-1.875-.379-1.187.051-2.1-.845-2.87-1.626-.3-.305-.487-.706-.8-1.013a7.073 7.073 0 0 1-1.138-1.371 1.838 1.838 0 0 0-1.141-.59 10.081 10.081 0 0 1-1.571-.229 27.741 27.741 0 0 1-6.41-2.257.6.6 0 0 0-.645-.016 2.771 2.771 0 0 1-.469.152 27.109 27.109 0 0 1-2.593.97 1.681 1.681 0 0 0-.362.123 26.775 26.775 0 0 1-5.59 1.042c-.684.068-1.819.1-2.229-.577-.3-.494-.781-.9-.889-1.5-.1-.573-.766-1.1-.526-1.713.14-.355-.055-.5.417-1.143a2.711 2.711 0 0 1 2.145-1.147c.621-.125.522 0 .84-.013a23.919 23.919 0 0 0 3.543-.364c.548-.1.355-.064.355-.448 0-.8.1-.875.152-1.685a2.9 2.9 0 0 1 1.3-1.654c.641-.362.8-.924 2.427.5a10.62 10.62 0 0 0 1.88 1.128c.256.136.489-.139.382-.4a4.379 4.379 0 0 1 .165-3.519 4.632 4.632 0 0 1 .5-1.061c.531-.884 1.156-.015 1.56-.445a12.418 12.418 0 0 1 1.518-1.121 9.5 9.5 0 0 1 1.5-.809 9.166 9.166 0 0 1 2.54-.514l1.671.022a5.939 5.939 0 0 1 2.468 1.064 3.412 3.412 0 0 1 1.117 1.481c.211.606.553.538.482 1.411a12.6 12.6 0 0 1-1.369 4.287 6.559 6.559 0 0 1-.511.882zm6.028.086a2.815 2.815 0 0 0-.753-.2c-3.06-.121-4.184 1.114-6.119 1.1a7.587 7.587 0 0 0-1.3.208 14.291 14.291 0 0 1-4.578-.272 11.8 11.8 0 0 1-2.523-.621c-.165-.083-2.029-.669-2.935-1.084a12.847 12.847 0 0 1-2.953-1.729c-.342-.316-.7-.031-1.016.188-.737.516-.57.693-.8.979-.186.23-.118.762-.206 1.064-.245.836.2 1.209.853 1.669l3.457 2.185c.715.313 1.362.75 2.106.99l1.873.709a49.029 49.029 0 0 0 5.067 1.34 4.535 4.535 0 0 1 .746.242 2.4 2.4 0 0 1 1.353.865 9.242 9.242 0 0 0 .764 1.037c.41.641 1.742 2.288 2.565 2.442.706.132.829.017 1.057-.6.316-.86-.845-1.6-.983-1.889-.318-.665-1.237-.81-1.578-1.415-.461-.816.009-1.65.257-2.449.289-.926 1.516-.8 1.862-1.637a1.572 1.572 0 0 0 .162-1.169c0-.316-.513-.437-.039-.783a5.344 5.344 0 0 1 1.531-.781 9.57 9.57 0 0 1 2.132-.4zm-3.065 9.358c.129.283-.068.29-.011.507.048.182.031.387.18.536s-.087.331.193.329a10.521 10.521 0 0 0 3.027-.158l1.314-.279c.549-.177 1.722-.334 2.023-.485 2.123-1.055 1.582-1.492 1.961-1.926a1.181 1.181 0 0 0 .336-.857c-.064-.285-.167-.561-.213-.851a1.374 1.374 0 0 0-.224-.641c-1.534-2.047-.551-1.72-2.924-3.2a10.612 10.612 0 0 0-2.391-.989c-.232-.308-1.639-.347-1.933-.3-.542.09-1.8-.037-1.514.906.318 1.061.061 1.038 1.193.917.9-.1.448-1.033 2.277-.443a8.464 8.464 0 0 1 1.977.942c1.4 1.254 1.283 2.264 1.817 2.8a5.853 5.853 0 0 0 1.452 1.2c.39.123.213.5-.356.149a4.449 4.449 0 0 1-1.435-1.121c-.268-.41-.674-.469-1.016-.755a10.875 10.875 0 0 0-1.505-1.185c-2.225-1.428-3.605-.917-4.2-1.136-.257-.1-.391.989-1.341 1-.419 0-1.042.753-1.169 1.347-.1.475.147 1.636.463 1.7.417.091.851.75 1.329.991a2.773 2.773 0 0 0 1.246.522c1.016-.009 1.876-.729 2.885-.369l1.832.118c.674-.068 1.352-.073 2.021-.2a.19.19 0 0 1 .211.04l-.72.386a7.256 7.256 0 0 1-2.9.246c-.483-.016-.711-.25-1-.226-1.437.108-1.957.816-2.433.588a1.492 1.492 0 0 0-.45-.108zm-2.406-15.449l-2.042.931c-.6.361-1.395.247-2.152.7a1.116 1.116 0 0 1-.151.068 9.1 9.1 0 0 0-2.117 1.257c-.476.346.154.5-.035 1.674s.12.86.572 1.547c.263.4.6.3.9.573.36.322.518-.257.722-.449a9.984 9.984 0 0 0 3.1-4.116c.158-.459.525-.393.439-.205a15.258 15.258 0 0 1-.652 1.481 26.092 26.092 0 0 1-2.264 2.993.432.432 0 0 0 .524.618c.849-.226.724-.193 1.336-.862a3.95 3.95 0 0 0 .693-.882 18.75 18.75 0 0 0 1.33-3.062 1.512 1.512 0 0 1 .066-.623 4.123 4.123 0 0 0 .112-1.542c-.158-.2-.377-.761-.531-.86-.45-.287-.408-1.354-3.028-1.49a7.282 7.282 0 0 0-4.032.7 7.571 7.571 0 0 0-2.369 1.79c-.2.305-.437.5-.334.811a2.565 2.565 0 0 1 .169.858c.235-.062.226-.652 1.463-.739 1.268-.091 1.227 1.9 1.545 1.564a8.515 8.515 0 0 1 2.2-1.338 4.27 4.27 0 0 0 .794-.375c.276-.187 1.31-.2 1.974-.533a3.208 3.208 0 0 1 .276-.176c1.183-.461 1.2-.787 1.5-.311zm-24.783 9.615c.037.912.268.706.518 1.336.564 1.415 1.632 1.114 2 1.3a10.238 10.238 0 0 0 3-.274 39.042 39.042 0 0 0 4.344-1.159 11.663 11.663 0 0 0 1.286-.553c.45-.209-.244-.667-.428-.779-.292-.173-.6-.314-.895-.48a29.966 29.966 0 0 1-1.9-1.15c-.542-.358-.713-.208-.866-.287s-.792.18-1.005.206c-1.821.22-3.368.608-5.381.708-.507.024-.722.728-.68 1.137zm14.769-7.343a3.458 3.458 0 0 0-.645-2.027c-.235-.314-.513.656-.577.788a4.047 4.047 0 0 0-.222 2.962c.325.948-.176.969-.07 1.242.2.515.919.318 1.99.838a2.721 2.721 0 0 0 .893.254 18.091 18.091 0 0 0 2.47.428c.325 0-.384-.608-.45-.665-.781-.661-.088-1.3-.263-2.052a16.147 16.147 0 0 0-.753-2.049c-.228-.673-1.316-.408-1.632.073a8.818 8.818 0 0 0-.695 1.182c-.52 1.15-1.22 1.126-.785.632.3-.338.461-1.007.557-1.023.281-.052.182-.381.182-.583zm14.26 6.779l.867.246a9.21 9.21 0 0 1 2.926 1.751.188.188 0 0 0 .29-.237 4.784 4.784 0 0 0-1.1-1.13 3.22 3.22 0 0 1-.546-.5c-.2-.266-.487-.154-.753-.259s-1.062-.307-1.334-.134c-.114.072-.217.162-.346.259zm-2.064 8.489c.191.09 1.086.456 1.244.165a.313.313 0 0 0-.206-.375c-.2-.005-.4.019-.6 0a.4.4 0 0 0-.437.21zm1.726-10.73h1.7c.165 0 .312-.327.066-.294a7.7 7.7 0 0 0-1.764.294zm24.638 2.19c.5.242 1.58.678 1.114 1.395-.217.331-1.138.542-1.5.612a5.105 5.105 0 0 1-3.179-.722 3.336 3.336 0 0 1-1.384-1.135c-.182-.379-.64-.88-.6-1.3.024-.261-.66-.149-.823-.16-.63-.044-1.264-.013-1.893-.1a26.587 26.587 0 0 1-5.436-1.033 19.874 19.874 0 0 1-3.03-.944 4.244 4.244 0 0 1-1.839-1.3c-.524-.609-1.593-3.545.63-4.33a4.159 4.159 0 0 1 2.018.267 8.637 8.637 0 0 0 1.584.447c.934.128 1.854.331 2.793.426a13.216 13.216 0 0 0 3.923.25 6.93 6.93 0 0 0 2.5-1.655 8.412 8.412 0 0 1 1.525-1.25c.875-.619 2.483-.915 2.909.392.024.077.053.11.131.1a13.97 13.97 0 0 1 1.92-.051 7.433 7.433 0 0 1 2.558.557c1.038.555 1.075 1.1 2.113 1.72a1.883 1.883 0 0 1 1.134 2c-.018.187-.235.41-.285.649a13.878 13.878 0 0 1-.707 2.22 1.953 1.953 0 0 1-.838.985 11.639 11.639 0 0 1-3.216 1.452c-.531.142-1.053.318-1.6.408a1.378 1.378 0 0 0-.52.11zm4.416-6.573c.132 0 .641-.077.652.118.009.128-.129.139-.222.13a7.9 7.9 0 0 0-3.644.781c-1.446.643-3.027.533-4.243 1.544-1.292 1.073-.555.867-.877 2.2a.876.876 0 0 0 .645 1.051l2.1.149c1.463-.441 2.738-.393 4.585-1.2a8.7 8.7 0 0 0 1.373-.9 2.552 2.552 0 0 0 .943-1.25 17.75 17.75 0 0 0 .581-1.887 1.134 1.134 0 0 0-.261-1.041c-.737-.524-1.108-.441-1.678-1.273-.739-1.08-2.271-1.113-3.455-1.154a4.639 4.639 0 0 0-3.4 1.018c-.279.237-.539.5-.823.726l-.844.612c-.134.073-.193-.077-.094-.162l1.108-1.061c1.049-1.215 2.115-1.075 1.474-1.865-.577-.713-1.628.322-1.817.926-.2.634-.314 1.573-1.07 1.745-.6.135-1.426.591-1.54 1.243a5.372 5.372 0 0 0-.011 1.582c.132 1.106 1.36 1.229 1.388 2.222a3.226 3.226 0 0 0 .4 1.829c.373.986 1.487 1.335 2.358 1.753a3.171 3.171 0 0 0 1.7.127c.118-.011 1.17-.186.921-.4a.221.221 0 0 0-.18-.044 6.41 6.41 0 0 1-2.486-.338c-3.074-1.432-2.009-1.976-2.1-3.834-.068-1.29.075-.693-.757-1.951-.375-.57-.016-1.578.209-1.443.127.078-.3.8.017 1.257.118.172.476.814.695.814.373 0 .39.421.636.226 1.114-.878 2.744-.934 3.174-1.141.47-.228.974-.379 1.428-.641a8.8 8.8 0 0 1 3.122-.472zm-11.008.95a.94.94 0 0 1 .022-.329c.294-.73.906-1.841 1.869-1.625.263.059.265.04.366-.206l.4-1.525c-.143-.1-.774.676-.844.807a3.619 3.619 0 0 1-1.667 1.362 1.046 1.046 0 0 1-.5.134 12.72 12.72 0 0 1-2.244.127c-.505-.075-1.013-.136-1.518-.226-1.141-.2-2.562-.3-3.719-.542a27.641 27.641 0 0 1-2.817-.715 1.225 1.225 0 0 0-1.307 1.562c.188.845-.068.553.307 1.481a.838.838 0 0 0 .423.45 18.171 18.171 0 0 0 6.068 1.922 40.342 40.342 0 0 0 4.39.681 5.7 5.7 0 0 0 1.362.1c.386-.059.709.09.8 0 .393-.414-.118-.794-.458-1.015-.456-.3-.974-1.156-.864-1.308s-.046-.928-.068-1.128zm6.007 6.073c-.209-.242-.669-.046-.82-.432a2.255 2.255 0 0 0-1.411-.351 4.306 4.306 0 0 0 2.231.783zm-18.807-22.578a7.505 7.505 0 0 1 3.148 1.068 6.484 6.484 0 0 0 1.672.68l2.284.3a9.191 9.191 0 0 1 1.444.1 6.884 6.884 0 0 0 1.76-.193c1.737-.495 2.161-.247 4.076-1.166a7.309 7.309 0 0 0 1.341-.746c.371-.285.991-.586 1.4-.231a3.333 3.333 0 0 1 1.408 1.926c.051.413.3 1.529-.241 1.709a.266.266 0 0 0-.14.079c-.614.825-2.981 1.7-3.49 2.089a13.734 13.734 0 0 1-2.977 1.253 25.621 25.621 0 0 1-5.804 1.09 2.619 2.619 0 0 0-1.268.654 22.793 22.793 0 0 1-2.3 2.165c-.537.531-.8.307-1.332.478-.4.127-1.814.474-2.156-.02-.257-.371-.244-.575-.445-.573-.443.005.208-.237-.82-.349a5.881 5.881 0 0 1-2.782-.643l-1.6-1.094a2.8 2.8 0 0 1-.774-2.027l.353-1.176a5.7 5.7 0 0 1 2.069-2.635 12.254 12.254 0 0 1 2.5-1.244c.136-.053.134-.055.051-.178a.452.452 0 0 1 .193-.7 4.725 4.725 0 0 1 2.433-.614zm-1.432.91a5.36 5.36 0 0 1 1.784.524 2.868 2.868 0 0 1 1.211.864c.191.324-.492.224-.2 1.338.245.931 1.264.764 1.494 1.716a2.72 2.72 0 0 1 .173 1.448c-.141.417-.075.771-.594.956-.66.233-.731.491-1.184.864-.514.427-1.035 1.051-.63 1.722.13.215.265-.013.452 0 .45.031 1.088-.667 1.435-.945 1.187-.95 1.024-1.218 2.5-1.929.417-.2 3.078-.285 4.594-.871 1.042-.4 2.128-.687 3.152-1.132 1.125-.489 2.244-.993 3.381-1.454l1.211-.847c.079-.046.59-.406.555-.511-.1-.294.158-.542-.3-1.422a1.11 1.11 0 0 0-1.386-.414l-1.806.859a14.275 14.275 0 0 1-7.525 1.1c-.825-.145-3.567-.292-3.938-.86-.092-.139-3.183-1.533-4.381-1.005zm-4.1 6.313l2.512.086c.311 0 .616.072.93.059.722-.033 1.671.079 2.334-.022a10.084 10.084 0 0 0 1.647-.268c.174-.064.345-.18.551-.107.23.083.1-.9.1-.945-.138-1.408-1.176-.912-1.564-1.92-.243-.629-1.376-.142-1.816-.112-.051 0-1.656.313-1.632.519l-.461.149a24.263 24.263 0 0 0-3.21 1.843c-.182.147-.237-.333.445-.741.607-.362 1.145-.823 1.773-1.15a8.527 8.527 0 0 1 2.791-1.107 5.718 5.718 0 0 1 1.733-.189c.294.033.092-.314.3-.893.136-.38-.443-.4-.669-.46a3.683 3.683 0 0 0-2.349.039 4.648 4.648 0 0 0-1 .381c-.318.254-.722.366-1.031.625l-1.005.761a8.356 8.356 0 0 0-1.327 2.007 7.119 7.119 0 0 0-.4 1.174c.042.226.237.989.516 1.046a16.514 16.514 0 0 0 2.678 1.167l2.279.485c.393.094.406.342.59.358 1.365.127.682.169.961-.487.208-.491.033-.741.873-1.338.2-.145.987-.735.233-.573-2.424.524-2.622.037-3.2.171l-.893-.006a7.632 7.632 0 0 1-2.429-.373.356.356 0 0 1-.261-.178zm5.86 3.469c-.085-.281-.544-.193-.842-.233-.145-.02-.226.312-.039.32a1.989 1.989 0 0 0 .88-.086zm-.568-9.052c-.112-.186-.452-.184-.639-.226l-.952-.184c-.033.086.14.088.176.125.206.21.529.176.8.21l.617.075zm-25.222 2.565a8.784 8.784 0 0 1-4.059-.617c-.485-.222-.629-1.512-.237-2.047.325-.447-.153-1.031.612-1.926a2.965 2.965 0 0 1 2.677-.735 17.685 17.685 0 0 0 4.649-.213l2.909-.7a5.742 5.742 0 0 0 .893-.349c.25-.132.272.142.231-.384l.09-1.393a23.357 23.357 0 0 1 1-2.523c.4-.987 1.325-1.483 2.249-.8.215.158.274-.254 1.007-.53a8.818 8.818 0 0 1 2.821-.657 10.917 10.917 0 0 1 2.187.138c1.516.123 1.985 1.485 2.475 1.753.34.186.38.6.474.947.377 1.406-.481 1.994-1.007 2.973-.171.318-.307.14-.316.781a4.669 4.669 0 0 1-.73 1.52c-1.2 1.31-1.378 1.027-.862 1.341.377.23-.5 1.187-1.363 1.349a4.88 4.88 0 0 1-2.2.13c-1.312-.079-2.288-.643-2.771-.625a3.008 3.008 0 0 0-1.145.222 24.761 24.761 0 0 1-2.874 1.079c-.88.146-1.685.55-2.567.7a15.371 15.371 0 0 1-2.229.434c-.311.031-.627.016-.932.066l-.983.075zm9.051-6.635c-.32.1-.392.344-.656.478a19.972 19.972 0 0 1-3.427 1.235 23.239 23.239 0 0 1-4.765.708l-1.564-.039c-1.351-.158-1.367.415-1.819.7-.527.334-.342 1.248-.338 1.775 0 .358.211.446.526.5a17.692 17.692 0 0 0 6.518-.055c.787-.22 1.61-.23 2.38-.525.461-.177.963-.215 1.422-.41a14.918 14.918 0 0 1 2.955-1 8.375 8.375 0 0 1 2.119.239 7.944 7.944 0 0 0 2.887.077.876.876 0 0 0 .471-.153 6.874 6.874 0 0 1-1.033-.566c-.388-.312-2.161-1.25-2.277-1.72-.2-.822.23-.862.141-1.465a6.742 6.742 0 0 0-.542-2 .441.441 0 0 0-.314-.245 1.087 1.087 0 0 0-1.132.375 10.043 10.043 0 0 0-1.139 1.867c-.3-.224.233-1.237.441-1.478s-.066-.7-.112-.978a6.851 6.851 0 0 1 .077-1.907c-.334-.18-1.284 2.5-1.321 2.929-.073.849-.191 1.025.5 1.659zm1.183-2.209a1.385 1.385 0 0 1 1.365-.652c.856.006.887.935 1.1 1.728.055.213.04 1.408.208 1.466a4.144 4.144 0 0 0 .783.323c.222.03.516.278.625.26 1.152-.191 1.04-.517 1.531-.524 1.211-.017 1.354-.634 1.906-.893.614-.289.8-.73 1.158-1.274.281-.425.575-1.33.141-1.742a.175.175 0 0 1-.044-.07 3.563 3.563 0 0 0-.606-.91 2.715 2.715 0 0 0-1.67-.865 5.809 5.809 0 0 0-2.448-.131 7 7 0 0 0-2.7.954 4.33 4.33 0 0 0-.889.584c-.233.2-.366.481-.594.684-.151.132.083.821.136 1.062zm7.808 2.435a.288.288 0 0 0-.538-.146 1.516 1.516 0 0 1-1.351.618c-.217-.05-.809.29-1.343.433-.221.061-.272.311-.52.458-.739.436-.4.287-.344.515.077.3 1.1.72 1.312.838.134.073.774-.269.889-.458.1-.164 1.45-1.037 1.63-1.6l.265-.659zm-4.526 1.426c.318.008.546-.39.112-.509-.684-.189-.63-.434-.8-.258-.29.3.41.759.685.767zm-3.545-5.361c.164-.175.248-.327.371-.448.276-.268-.151-.623-.228-.362a3.358 3.358 0 0 0-.143.811zm.143 30.82c-.2.019-1.15-.028-1.036-.445.125-.459 1.536.108 1.481.344-.037.165-.325.1-.445.1zm6.6 3.771c-.007.548-.772.353-.906-.265a.276.276 0 0 1 .2-.311c.23-.073.741.366.7.575zm-.276-7.226c-.573 0-.623-.656-.072-.772a.4.4 0 1 1 .072.772zm-9.144 2.245c.2.048 1.176.111 1.068.494-.1.335-.816.011-1.178-.121-.261-.1-.195-.389.11-.373zm7.713-3.036c.689.042.371.845-.377.682-.388-.084-.338-.66.377-.682zm-10.581 1.494c-.6-.072-.832-.772-.3-.783.421-.007 1.04.785.3.783zm10.449 4.508c.277.077.877.522.535.831-.369.333-1.213-.825-.535-.831zm-1.251-.7c-.9-.134-.695-.748-.255-.682.627.092.864.709.255.682zm-1.922-1.661c-.935-.1-.572-.985.174-.585a.309.309 0 0 1-.174.585zm3.172.336c.886.086.338 1.178-.244.553a.331.331 0 0 1 .244-.553zm.081-1.494c.678.028.54.693.121.647-.625-.068-.715-.575-.121-.647zm-13.185-1.987c.007.561-1.073.084-.821-.325.173-.285.82.051.821.325zm.645.8c.007-.579 1.011-.232.816.182-.134.285-.836.136-.816-.182zm13.534.8c-.708 0-.393-.744.2-.571.4.114.244.548-.2.571zm-1.566-.066c-.763-.13-.323-.761.246-.538.186.073.4.448-.246.538zm-5.732.785c-.739-.042-.307-1.018.263-.507.23.208.02.515-.263.507zm8.384 6.073c-.011-.468.522-.235.7.041a.272.272 0 0 1-.219.4.542.542 0 0 1-.482-.443zm-6.875-6.342c.665.009.445.9-.18.526-.311-.188-.178-.524.18-.526zm1.575 1.637c.906.138.706.612.4.566-.787-.12-.86-.563-.4-.566zm5.849-4.269a.331.331 0 0 1-.005-.662.331.331 0 0 1 .005.662zm-4.223 4.127c-.48.013-.57-.607-.132-.616s.594.6.132.616zm-7.812-1.738c.518-.006.355.757-.1.588-.386-.143-.305-.584.1-.588zm-1.209.031c-.478-.009-.529-.671-.061-.608.4.053.494.614.061.608zm-4.168-2.72c-.009.443-.665.268-.654-.094.015-.417.662-.248.654.094zm2.466.739c-.391.009-.555-.583-.132-.608.366-.024.581.6.132.608zm-1.786-1.431a.293.293 0 0 1-.009.586.293.293 0 0 1 .009-.586zm11.686 4.065a.285.285 0 1 1 .02-.569.285.285 0 0 1-.02.569zm1.468-.064a.26.26 0 0 1-.52.005.26.26 0 0 1 .52-.005zm-14.852-4.24a.23.23 0 0 1-.029.459.23.23 0 0 1 .029-.459zm21.3 6.165c.41-.007.924.465.423.691-.847.386-1.171-.691-.423-.691zm-1.272 1.746c.022.557-.731.416-.921.064s.044-.7.7-.386a.376.376 0 0 1 .221.321zm5.914-.639c-.963-.1-.617-1.193.235-.674a.368.368 0 0 1-.235.674zm-1.8 1.049c-.266-.024-.627-.04-.588-.4.051-.5 1.181-.311 1.079.134-.057.242-.3.246-.491.261zm1.637.033c-.623-.018-.592-.886.472-.535.217.072.156.409-.048.458-.149.037-.3.055-.425.077zm-3.565 1.918c-.476-.017-.485-.667.12-.719a.337.337 0 0 1 .186.638 1.047 1.047 0 0 1-.305.081zm4.6-5.818c-.017.52-.724.041-.77-.252-.083-.529.785-.342.77.252zm-8.79.911c.766.142.489.677.167.689-.474.02-.8-.7-.167-.689zm3.019 2.729c-.63-.02-.456-.821.134-.637a.326.326 0 0 1-.134.637zm-.816-6.551c.482 0 .463.575.026.647-.559.094-.651-.647-.026-.647zm-1.608 5.537c.005.6-1.048.209-.7-.235a.418.418 0 0 1 .7.235zm5.079 3.056c-.562-.005-.467-.669.094-.63.445.031.436.59-.094.63zm-1.255-2.036c-.737 0-.423-.823.182-.564.373.158.21.5-.182.564zm1.676-2.53c.649.024.413.92-.163.553a.294.294 0 0 1 .163-.553zm2.946-.568c.45.015.647.808.193.715-.259-.053-.656-.729-.193-.715zm-2.911-2.391c-.583-.021-.737-.632-.278-.579.4.046.891.584.278.579zm-1.34 1.951c.616-.013.419.866-.07.6-.268-.143-.318-.614.07-.6zm5.2 1.81c.007.436-.594.375-.645-.075-.048-.43.639-.305.645.075zm-7.2 3.425c.413-.018.469.544 0 .584a.3.3 0 1 1 0-.584zm-1.2-3.479c.45.007.476.608.062.606s-.548-.616-.062-.606zm5.748-3.236c.244.006.59.5.2.553s-.632-.561-.2-.553zm-10.159-6.292c-.039.239-.4.807-.737.571-.476-.329.752-1.532.737-.571zm2.073-2.06c.024.7-.86.568-.691-.11a.35.35 0 0 1 .691.057.209.209 0 0 1 0 .053zm-4.157-.6c.529-.035.481.641-.334.7-.323.022-.505-.476.334-.7zm-.208 5.346c-.531-.013-.32-.766.11-.79.557-.029.355.8-.11.79zm1.364-1.5a.667.667 0 0 1-.478.538c-.441.048-.447-.555.075-.8a.28.28 0 0 1 .4.263zm-2.8.768c.531.013.327.8-.134.767-.5-.033-.283-.779.134-.767zm-.419-3.563c-.017-.553 1.022-.456.739.083-.152.292-.729.312-.739-.083zm3.135 4.885c0-.439.75-.607.726-.1-.018.412-.731.6-.726.1zm-5.765-6.059c.413-.011.325.494-.088.7a.272.272 0 0 1-.386-.3.6.6 0 0 1 .474-.4zm6.042-.434c-.518.013-.327-.616.217-.625.417-.005.362.612-.217.625zm.68 2.168c0-.443.667-.614.687-.14s-.685.623-.687.14zm-2.233.864a.331.331 0 1 1 .013-.661.331.331 0 0 1-.013.661zm-.525-3.955s-.428-.064-.222-.362c.272-.4 1.04-.043.649.255a.6.6 0 0 1-.426.107zm4.616 3.385c-.1.724-.535.584-.553.318-.046-.625.544-.794.553-.318zm-.588 1.729c-.006.428-.625.552-.617.1.007-.425.625-.555.617-.1zm-3.85 2.205c-.007.338-.621.522-.619.1 0-.443.628-.548.619-.1zm3.179-1.091c-.011.445-.616.487-.608.064.007-.347.617-.537.608-.064zm-5.089-3.479c.43.013.25.592-.112.6-.434 0-.329-.61.112-.6zm5.507-1.873a.317.317 0 0 1-.634 0 .317.317 0 0 1 .634 0zm-6.457 0c-.007.426-.629.447-.614.026.013-.358.621-.388.614-.026zm4.159 2.579c.009-.375.63-.513.617-.079-.011.358-.63.518-.617.079zm.252-4.069c.529-.017.417.594-.052.544-.375-.041-.323-.48.052-.544zm-3.065.876c-.525.011-.34-.54.1-.542.408 0 .322.522-.1.542zm3.672 1.039a.26.26 0 1 1-.037.518.26.26 0 0 1 .037-.518zm.963-1.169c-.005.344-.57.364-.549-.009.02-.339.557-.28.549.009zm-15.616 12.143c-.77-.069-.426-.733.619-.75.316-.006.73.634-.619.75zm1.737-.406c-.639-.006-.368-.82.38-.768.583.041.292.7-.38.768zm-4.6 1.206c-.623-.033-.426-.7.23-.649.47.041.4.653-.23.649zm2.428-1.689c-.575-.011-.382-.706.274-.686.458.015.307.643-.274.686zm1.492-.4c-.647-.046-.325-.707.215-.667.43.031.415.625-.215.667zm-2.4 1.156c.649.052.21.654-.375.607-.322-.026-.379-.579.375-.607zm-2.872 1.112a.267.267 0 0 1-.272-.176c-.1-.373.831-.575.88-.162.037.3-.356.34-.608.338zm4.159-3.038c-.408 0-.342-.588.079-.594.48-.007.355.6-.079.594zm-1.826.991a.3.3 0 1 1 .016.591.3.3 0 0 1-.016-.591zm.522-.535a.281.281 0 1 1 .037-.561c.448.007.309.568-.037.561zm10.225-6.259c0-.493.772-.427.6.139-.125.425-.6.324-.6-.139zm.173 2.49c.009.367-.619.572-.63.114-.009-.421.619-.568.63-.114zm-1.65-.3a.32.32 0 0 1 .639-.016.32.32 0 0 1-.639.016zm2.418-.674a.312.312 0 1 1-.625.011.312.312 0 0 1 .625-.011zm-1.055-.377a.273.273 0 0 1-.546-.01.273.273 0 1 1 .546.01zm1.055 2.158a.264.264 0 1 1 0-.528.264.264 0 0 1 0 .528zm38.865.071a.6.6 0 0 1-.809.4c-.619-.42.831-1.187.809-.4zm.858-.351c-.537 0-.38-.539.081-.73.559-.233.7.73-.081.73zm-2.948.641c.661.1.355.709-.171.7s-.487-.687.171-.7zm-2.611-3.2c-.492 0-.481-.717.149-.752.513-.029.441.755-.149.752zm1.277-.412c-.526.006-.5-.656.248-.707.458-.031.426.632-.248.707zm-2.615.912c-.522-.015-.45-.657.072-.752.505-.092.572.64-.072.752zm.515 3.357c.685.046.481.761-.224.606-.222-.048-.546-.505.224-.606zm7.1-2.7c.1-.717.825-.584.711-.151s-.715.726-.711.151zm-6.377 2.165c-.63-.059-.472-.485-.222-.566.707-.232.95.566.222.566zm.674.943c-.608-.031-.458-.425-.279-.513.627-.312.943.377.5.489a1.324 1.324 0 0 1-.217.024zm5.982-4.078c-.469 0-.252-.717.114-.718.487 0 .36.718-.114.718zm-1.257-1.705c-.276.007-.52-.3-.277-.529.412-.4 1.1.425.277.529zm-.823-1.092c-.548-.055-.434-.635.057-.623.445.011.461.6-.057.623zm-6.522 2.2c-.478.015-.349-.6.211-.61.476-.008.265.595-.211.61zm4.988-2.394c-.526-.006-.445-.6.022-.607.485-.005.437.54-.022.607zm2.751 3.975c-.472.015-.32-.662.1-.653s.25.641-.1.653zm-7.057 2.286c-.195-.044-.408-.086-.382-.344.037-.375.724-.287.7.061a.323.323 0 0 1-.322.283zm1.417-1.636c-.412.015-.388-.479.015-.579.452-.11.461.563-.015.579zm-3.368-.7a.312.312 0 0 1-.623 0 .312.312 0 1 1 .623 0zm6.568 1.49a.3.3 0 0 1 .009-.594.3.3 0 1 1-.009.594zm.847-4.824a.273.273 0 0 1-.544-.038.273.273 0 0 1 .544.038zm-4.736-1.736c.017.309-.54.489-.575.108-.026-.3.555-.481.575-.108zm3.185 2.7a.268.268 0 0 1-.035.535.268.268 0 0 1 .035-.535zm-2.235.108a.267.267 0 0 1 .005-.535.267.267 0 0 1-.005.535zm1.349-1.8a.247.247 0 1 1 .007-.494c.375 0 .419.509-.007.494zm5.893 2.4a.253.253 0 1 1 .02-.505.253.253 0 0 1-.02.505zm-11.41-.475a.245.245 0 1 1-.007.49.245.245 0 0 1 .007-.49zm3.3.066a.237.237 0 0 1-.472.015.237.237 0 1 1 .472-.015zm5.41 2.233c.316 0 .239.465-.061.45s-.209-.452.061-.45zm-8.9-1.47c.285 0 .283.452.013.469s-.316-.47-.013-.469zm-5.572 2.358c-1 .006-1.123-.844.145-.527.355.089.358.527-.145.527zm4.929.818c-.674 0-.746-.617-.292-.6.9.03.715.6.292.6zm-9.561-1.821c-.952-.09-.434-1.005.241-.516.252.182.029.511-.241.516zm8.532-.338c-.562 0-.54-.724.04-.645a.323.323 0 0 1-.04.645zm-1.544-.43c-.559 0-.5-.695.1-.61.437.06.34.61-.1.61zm-3.1.436c.009.455-.726.373-.733 0-.007-.421.726-.4.733 0zm4.844 1.062c-.583 0-.673-.634.026-.566a.284.284 0 1 1-.026.566zm-.732.873c-.184-.017-.478-.006-.485-.248-.011-.384.866-.333.812.052-.022.151-.173.2-.327.2zm.6-3.023a.326.326 0 0 1-.009-.652.326.326 0 0 1 .009.652zm-10.2.713c-.45-.008-.533-.612-.072-.6.43.013.513.606.072.6zm8.587-1.584c.445 0 .489.583.042.583-.465 0-.478-.579-.042-.583zm-4.655 2.9c-.412.017-.535-.54-.073-.557.432-.017.474.544.073.557zm3.249-.777a.281.281 0 1 1 .039.56c-.412.013-.511-.555-.039-.56zm-1.286-2.472c.412 0 .459.546.066.544-.425 0-.491-.544-.066-.544zm2.821 2.9c.406.042.4.533-.042.511-.461-.024-.391-.507.042-.511zm-1.648-2.615c.384-.015.426.538.048.542-.355 0-.458-.527-.048-.542zm-4.374 2.406a.272.272 0 0 1-.544.015.272.272 0 0 1 .544-.015zm5.412 1.43c-.4 0-.382-.487-.007-.48a.241.241 0 1 1 .007.48zm-4.609-12.368c-.364-.066-.309-.338.013-.432l1.268-.347c.38-.016.4.463-.1.568l-1.182.211zm8.672-2.634c-.3-.005-.349-.373.013-.566.149-.077 1.207-.516 1.312-.342.145.239-1.02.93-1.325.907zm1.955-.944c-.669.007-.4-.689.388-.818a.289.289 0 0 1 .223.505 1.292 1.292 0 0 1-.61.312zm-8.13 3.21c-.685 0-.371-.818.443-.654.419.084.322.645-.443.654zm-3.593.52c-.007.219-.685.781-.919.526-.4-.435.943-1.122.919-.526zm8.7-2.844c.2.048.382.138.195.362-.707.851-1.683-.031-.195-.362zm-2.762 1.4c.006.311-.8.627-.961.287-.211-.458.934-.7.961-.287zm-1.237-.474c-.52 0-.424-.682.257-.654.516.02.3.654-.257.654zm-3.038.11c.917.052-.38 1.068-.542.4-.068-.275.324-.4.542-.4zm5.4-1.435c.529-.03.272.544-.125.63-.5.106-.533-.61.125-.63zm-10.2 5.555c0-.261.515-.588.7-.334.307.426-.711.906-.7.334zm15.446-7.531c-.511.018-.125-.665.255-.685.428-.024.373.545-.255.685zm-13.527 2.271c-.781-.048-.57-.759.1-.538a.273.273 0 0 1-.088.538zm-.487 3.882c.441 0 .184.525-.011.669a.263.263 0 0 1-.417-.182.5.5 0 0 1 .428-.487zm8.609-2.571c-.542.044-.386-.581.143-.617.443-.03.285.562-.143.617zm3.394-3.032c.391-.022.263.476-.147.592s-.539-.572.147-.592zm-11.553.669c-.581-.027-.485-.816.176-.49.318.154.184.5-.176.49zm1.656.814c.428.018.4.555.022.545-.434-.009-.48-.564-.022-.545zm2.437 1.625c-.827-.176.274-.9.342-.292.022.2-.16.276-.342.292zm-2.518.1c.437.051.305.582-.079.531a.268.268 0 0 1 .079-.531zm-1.025-.461a.265.265 0 0 1-.009-.529.268.268 0 1 1 .009.529zm.3-1.768c-.349 0-.4-.489-.044-.487s.43.487.044.487zm11.759-1.47c.36.005.3.524-.026.5a.252.252 0 0 1 .026-.5zm1.783.413a.239.239 0 0 1-.478 0 .239.239 0 0 1 .478 0zm-11.706 1.353a.215.215 0 0 1-.43 0 .215.215 0 0 1 .43 0zm-5.038 1.88c-.548 0-.516-.652.39-.566.382.036.41.542-.39.566zm.8.3c.9.028.5.814-.3.526a.269.269 0 0 1 .055-.5 1.89 1.89 0 0 1 .243-.028zm-1.25.9c-.638-.041-.472-.4-.289-.485.617-.291 1.042.169.658.413a.674.674 0 0 1-.369.072zm-3.321 1.307c.886.044.575.728-.176.452-.334-.123-.244-.452.176-.452zm1.678-3.021c-.525.013-.366-.61.281-.571.309.018.426.391-.281.571zm0 3.735c-.156-.035-.393-.057-.4-.281-.011-.378.766-.41.777-.02.006.174-.141.3-.377.3zm-3.168-.305c-.634-.011-.651-.689.118-.509.369.086.208.485-.118.509zm1.858-5.346c.461.042.39.467-.221.595-.377.08-.331-.6.221-.595zm2.457 5a.305.305 0 1 1 .009.61.305.305 0 1 1-.009-.61zm-1.733 1.049c-.7-.014-.4-.617.25-.413.243.075.217.4-.25.413zm-.652-2.2c-.467-.006-.458-.5.009-.5s.478.51-.009.5zm2.481-2.543c.006-.323.616-.441.627-.05.009.345-.634.456-.627.05zm-3.955 1.989c.535 0 .417.606-.1.485-.382-.088-.208-.454.1-.485zm2.76-3.246c-.743-.121.27-.851.382-.331.052.237-.175.331-.382.331zm1.367-.2c-.6-.007-.406-.561.134-.458.294.055.288.434-.134.458zm-1.073 3.407a.266.266 0 1 1-.017.527c-.426-.007-.4-.538.017-.527zm-4.273.138c.617.007.406.559-.114.463-.329-.06-.266-.443.114-.463zm4.855-.753c-.568.005-.287-.649.191-.456.322.129.051.469-.191.456zm-.061 3.25a.268.268 0 0 1-.007.535.268.268 0 0 1 .007-.535zm-4.828-1.437c.015.393-.755.141-.516-.156a.307.307 0 0 1 .516.156zm-10.758-6.952c-.557.015-.382-.606.287-.687.454-.055.56.666-.287.688zm3.249.195c-.6 0-.606-.654-.033-.673.481-.013.6.623.033.673zM433.7 1304c-.757-.1-.505-.511-.292-.584.617-.212 1.024.534.292.584zm4.2-.294c-.577 0-.351-.6.274-.606s.329.581-.274.606zm1.922-.316c-.6-.027-.549-.6.143-.606.345 0 .562.529-.143.606zm6.185-1.661c-.807.006-.472-.922.173-.542.331.2.215.549-.173.542zm.059-.834c-.757-.057-.491-.862.176-.572.316.138.141.562-.176.572zm-.118-3.416c.5-.016.322.687-.1.711-.478.029-.373-.7.1-.711zm.073 2.4c-.628-.062-.4-.608.12-.614.277 0 .6.516-.12.614zm-10.109 3.5c.682 0 .463.623-.127.544-.368-.05-.357-.52.127-.544zm6.867-1.553c.674.135-.092.893-.4.482-.189-.254.136-.485.4-.482zm-1.549 1.222c-.4-.009-.432-.5-.033-.544.456-.051.5.555.033.544zm-9.2.384c.526.031.375.538-.083.5-.408-.035-.329-.5.083-.5zm11.757-5.98c-.4-.015-.259-.6.112-.566s.2.579-.112.566zm6.934 1.233c0 .391-.743.575-.743.086 0-.384.748-.577.743-.086zm-1.467-1.1c.6.057.32.619-.209.608-.366-.009-.467-.57.209-.608zm-.77-3.218c-.741 0-.248-.781.3-.507.417.209.033.5-.3.507zm.134 4.245a.315.315 0 1 1-.009.625.315.315 0 1 1 .009-.625zm3.719-.889c-.47.009-.314-.634.107-.654.448-.021.362.645-.107.654zm-5-2.271c.684.013-.162 1.126-.391.5a.373.373 0 0 1 .391-.5zm3.765 1.051c-.009-.388.676-.535.708-.13.028.353-.7.595-.708.13zm-5.875-.533c-.5-.008-.246-.757.173-.644.4.107.129.649-.173.644zm6.474-1.271c-.454 0-.423-.6.061-.564.465.037.384.564-.061.564zm-3.337 3.253a.324.324 0 0 1-.647.022.324.324 0 0 1 .647-.022zm1.944-3.637a.312.312 0 0 1-.029-.623.312.312 0 1 1 .029.623zm.592 2.852a.3.3 0 0 1-.6 0 .3.3 0 0 1 .6 0zm1.777-1.6a.3.3 0 0 1 .013-.6.3.3 0 0 1-.013.6zm-4.546 1.3a.29.29 0 0 1-.579-.009.29.29 0 0 1 .579.009zm5.2-.164a.286.286 0 0 1-.572-.005.286.286 0 1 1 .572.005zm-1.922 1.729c-.371.011-.285-.491.053-.511.38-.024.316.5-.053.511zm-4.783-3.344c0 .281-.45.391-.465.079-.015-.287.461-.428.465-.079zm2.962 5.719c.009-.34.568-.584.788-.287.386.518-.776.97-.788.287zm1.615-.948a.3.3 0 0 1 .009.608.3.3 0 0 1-.009-.608z" class="cls-8" data-name="Path 682" transform="translate(786.182 633.126)"/>
    </g>
</svg>
