<svg xmlns="http://www.w3.org/2000/svg" width="123.365" height="106.484" viewBox="0 0 123.365 106.484">
    <defs>
        <style>
            .cls-1{fill:#3b1008}.cls-2{fill:#c29968}.cls-3{fill:#803a17}.cls-4{fill:#5c3428}.cls-5{fill:#866051}.cls-6{fill:#ac8575}.cls-7{fill:#42241c}.cls-8{fill:#100e0f}
        </style>
    </defs>
    <g id="Group_3454" data-name="Group 3454" transform="translate(-1301.441 -1859.771)">
        <g id="Group_24" data-name="Group 24" transform="translate(1301.441 1859.771)">
            <g id="Group_23" data-name="Group 23">
                <path id="Path_468" d="M508.277 1311.6a47.907 47.907 0 0 0 9.931.915 47.385 47.385 0 0 0 9.948-.915c3.192-.713 6.463-1.783 8.7-4.05a50.456 50.456 0 0 0 10.612-16.85 91.2 91.2 0 0 0 5.2-19.474.3.3 0 0 0 .017-.119 4.156 4.156 0 0 1-.777.777 10.983 10.983 0 0 1-2.009 1.167 30.39 30.39 0 0 1-4.343 1.545 76.943 76.943 0 0 1-9.023 1.783 141.36 141.36 0 0 1-36.616 0c-2.38-.348-4.763-.761-7.112-1.3.114 1.849 1.54 22.5 12.362 35.675a33.22 33.22 0 0 0 3.11.846z" class="cls-1" data-name="Path 468" transform="translate(-458.696 -1244.611)"/>
                <path id="Path_469" d="M525.486 1266.864a2.46 2.46 0 0 1 .226.242 1.579 1.579 0 0 0-.226-.242z" class="cls-2" data-name="Path 469" transform="translate(-431.319 -1248.167)"/>
                <path id="Path_470" d="M525.8 1267.283a1.6 1.6 0 0 0-.129-.2 1.6 1.6 0 0 1 .129.2z" class="cls-2" data-name="Path 470" transform="translate(-431.164 -1247.986)"/>
                <path id="Path_471" d="M492.761 1274.109c2.316.4 4.631.729 6.979.956a208.536 208.536 0 0 0 36.891 0 82.581 82.581 0 0 0 9.122-1.329 32.48 32.48 0 0 0 4.438-1.181 11.4 11.4 0 0 0 2.058-.981 2.555 2.555 0 0 0 1.312-1.571 3.62 3.62 0 0 0-.017-.428c-.031-.066-.031-.148-.064-.212 0-.033-.016-.057-.016-.09a3.189 3.189 0 0 0-1.183-1.207 10.66 10.66 0 0 0-2.056-1.02 30.682 30.682 0 0 0-4.44-1.272 66.734 66.734 0 0 0-4.359-.819 59.117 59.117 0 0 1-7.354 1.6 97.947 97.947 0 0 1-12.588 1.119 94.041 94.041 0 0 1-12.619-.583 63.548 63.548 0 0 1-2.756-.382c-9.542 3.277-12.556 6.347-13.348 7.4z" class="cls-2" data-name="Path 471" transform="translate(-458.732 -1249.767)"/>
                <path id="Path_472" d="M513.276 1266.034c4.162-.073 8.327-.267 12.474-.606 1.117-.1 2.236-.2 3.368-.325-.209-.015-.419-.05-.616-.072a166.942 166.942 0 0 0-18.483-.908h-.1a122.08 122.08 0 0 0-7.419 1.871c3.6.113 7.18.137 10.776.04z" class="cls-2" data-name="Path 472" transform="translate(-450.572 -1250.464)"/>
                <path id="Path_473" d="M525.852 1267.8a.278.278 0 0 1-.031.154.054.054 0 0 0 .015-.033.352.352 0 0 0 .016-.121z" class="cls-2" data-name="Path 473" transform="translate(-431.039 -1247.384)"/>
                <path id="Path_474" d="M597.6 1286.126a18.646 18.646 0 0 0-7.34-15.253 18.085 18.085 0 0 0-15.877-3.006c-.048-1.36-.1-2.72-.193-4.08a1.331 1.331 0 0 0 .21-.649v-.026a1.715 1.715 0 0 0-.73-1.262 5.792 5.792 0 0 0-1.148-.722 15.443 15.443 0 0 0-2.462-.939 44.549 44.549 0 0 0-5.105-1.2c-3.435-.632-6.884-1.055-10.352-1.378-6.933-.64-13.884-.9-20.834-.923-6.968-.016-13.917.2-20.869.809-3.466.308-6.932.705-10.368 1.314a50.08 50.08 0 0 0-5.134 1.174 15.938 15.938 0 0 0-2.5.948 6.523 6.523 0 0 0-1.2.744 1.951 1.951 0 0 0-.809 1.433 1.572 1.572 0 0 0 .421 1.046 131.087 131.087 0 0 0 .487 21.692 111.114 111.114 0 0 0 1.781 11.009 53.44 53.44 0 0 0-9.154 3.314 27.2 27.2 0 0 0-9.218 6.691 12.775 12.775 0 0 0-2.738 5.419 11 11 0 0 0 .535 6.253 16.672 16.672 0 0 0 3.953 5.7 4.828 4.828 0 0 0 .325.551 30.421 30.421 0 0 0 5.717 6.406 50.83 50.83 0 0 0 14.891 8.531c10.739 4.1 22.291 5.493 33.631 5.517 11.342-.017 22.892-1.408 33.635-5.508a50.813 50.813 0 0 0 14.887-8.531 30.693 30.693 0 0 0 5.719-6.415 22.294 22.294 0 0 0 1.509-2.715c.16-.219.34-.4.5-.606a12.666 12.666 0 0 0 2.284-5.517 9.93 9.93 0 0 0-.939-5.816 17.031 17.031 0 0 0-6.09-6.489 18.469 18.469 0 0 0 4.276-2.211 19.235 19.235 0 0 0 8.299-15.305zm-43.09-27.436a100.354 100.354 0 0 1 10.335.934 46.128 46.128 0 0 1 5.054 1.093 15.987 15.987 0 0 1 2.4.873c.713.349 1.573.843 1.637 1.516-.064.72-.924 1.182-1.637 1.538-.081.042-.162.066-.243.1a9.247 9.247 0 0 0-2.042-1.29v-.34c0 .114-.015.228-.015.333a22.974 22.974 0 0 0-2.075-.827c-1.573-.535-3.161-.956-4.763-1.336-3.209-.672-6.448-1.134-9.7-1.531-4.357-.511-8.749-.737-13.139-.875 4.724-.227 9.456-.343 14.188-.188zm17.349 6.14a19.282 19.282 0 0 1-1.847.649v-1.626a9.189 9.189 0 0 1 1.847.976zm-58.583-3.295c2.156-.324 4.342-.616 6.531-.892q7.046-.375 14.093-.366c6.481-.015 12.994.163 19.457.68 3.24.261 6.465.6 9.672 1.136 1.588.276 3.192.59 4.749 1.02a20.751 20.751 0 0 1 2.2.729c-.017.551-.05 1.11-.066 1.669-.016 0-.016 0-.016.007a48.4 48.4 0 0 1-5.054 1.1 100.347 100.347 0 0 1-10.335.93c-6.919.2-13.854-.105-20.738-.573-6.9-.48-13.755-1.289-20.5-2.294-3.143-.4-6.268-.963-9.284-1.564 3.023-.617 6.149-1.171 9.291-1.582zm-10.741 5.888c3.436.608 6.9 1.005 10.368 1.321 6.952.6 13.9.818 20.869.81 6.95-.033 13.9-.292 20.834-.932 3.468-.325 6.934-.746 10.352-1.37a48.891 48.891 0 0 0 4.942-1.158q-.243 5.323-.794 10.613a1.6 1.6 0 0 0-.226-.721 1.585 1.585 0 0 0-.129-.2.726.726 0 0 0-.114-.152 2.522 2.522 0 0 0-.226-.242 4.925 4.925 0 0 0-.553-.478 10.626 10.626 0 0 0-2.04-1.119 32.564 32.564 0 0 0-4.423-1.466c-1.15-.283-2.3-.526-3.451-.745 1.312-.413 2.624-.86 3.889-1.393l-.049-.228c-2.235.478-4.488.825-6.739 1.11a85.715 85.715 0 0 0-2.8-.4 157.858 157.858 0 0 0-37.1 0c-.825.112-1.652.226-2.479.356l-.616-.1-.033.2c-2.023.316-4.032.7-6.024 1.207a29.712 29.712 0 0 0-4.409 1.457 10.886 10.886 0 0 0-2.058 1.119 3.324 3.324 0 0 0-1.148 1.327c-.357-3.3-.584-6.61-.729-9.931a50.128 50.128 0 0 0 4.886 1.114zm10.515 4.083a48.871 48.871 0 0 0 8.569 2.13c.924.147 1.832.276 2.756.383a94.116 94.116 0 0 0 12.625.581 97.975 97.975 0 0 0 12.588-1.119 59.053 59.053 0 0 0 7.354-1.6 66.08 66.08 0 0 1 4.359.82 30.615 30.615 0 0 1 4.44 1.272 10.663 10.663 0 0 1 2.056 1.02 3.192 3.192 0 0 1 1.184 1.207c0 .033.016.057.016.09.033.064.033.145.065.212.016.071.033.145.048.224a.6.6 0 0 0-.015.164.044.044 0 0 0-.017.041 2.554 2.554 0 0 1-1.312 1.571 11.434 11.434 0 0 1-2.058.981 32.485 32.485 0 0 1-4.438 1.182 82.613 82.613 0 0 1-9.122 1.329 208.475 208.475 0 0 1-36.891 0 91.5 91.5 0 0 1-6.979-.956c-.715-.121-1.444-.228-2.156-.373a30.4 30.4 0 0 1-4.423-1.191 10.422 10.422 0 0 1-2.073-.972 3.512 3.512 0 0 1-1.119-1.044c-.033-.382-.081-.763-.129-1.151a3.025 3.025 0 0 1 1.215-1.314 10.764 10.764 0 0 1 2.056-1.02 31.3 31.3 0 0 1 4.44-1.272c2.295-.523 4.628-.894 6.961-1.196zm20.641-1.158a166.971 166.971 0 0 1 18.483.908c.2.022.406.057.616.071-1.132.121-2.251.226-3.369.326-4.148.34-8.312.532-12.474.606-3.6.1-7.178.073-10.774-.041-.566-.024-1.134-.016-1.718-.04-3.271-.154-6.56-.4-9.817-.851.195-.024.373-.05.566-.071a167.373 167.373 0 0 1 18.388-.908zm35.335 6.91a.277.277 0 0 0 .031-.154.279.279 0 0 1-.017.112.072.072 0 0 1-.014.041zm-69.536 1.433a10.918 10.918 0 0 0 2.042 1.158 31.481 31.481 0 0 0 4.421 1.557c.7.178 1.395.349 2.091.5l.276 4.333c-.568-.1-1.136-.187-1.7-.3a30.915 30.915 0 0 1-4.359-1.191 11.513 11.513 0 0 1-2.023-.972 3.776 3.776 0 0 1-.989-.891 115.375 115.375 0 0 1-.715-5.232 3.687 3.687 0 0 0 .956 1.038zm.616 5.274a10.326 10.326 0 0 0 1.992 1.167 31.134 31.134 0 0 0 4.342 1.545 61.3 61.3 0 0 0 1.911.478c2.349.544 4.732.957 7.112 1.305a141.374 141.374 0 0 0 36.616 0 76.944 76.944 0 0 0 9.023-1.783 30.313 30.313 0 0 0 4.342-1.545 10.984 10.984 0 0 0 2.009-1.167 4.155 4.155 0 0 0 .777-.777.3.3 0 0 1-.017.119 91.209 91.209 0 0 1-5.2 19.474 50.457 50.457 0 0 1-10.612 16.85c-2.237 2.267-5.508 3.337-8.7 4.05a47.385 47.385 0 0 1-9.948.915 47.926 47.926 0 0 1-9.931-.915 33.052 33.052 0 0 1-3.111-.851 13.713 13.713 0 0 1-5.59-3.2 49.979 49.979 0 0 1-10.594-16.85 90.189 90.189 0 0 1-5.217-19.474c0-.055-.017-.1-.017-.154a3.813 3.813 0 0 0 .813.813zm-6.641-19.635c.081.08.16.16.241.233a6.486 6.486 0 0 0 1.2.739 16.9 16.9 0 0 0 2.5.946l.1.026c0 12.491 1.476 25.11 5.915 36.945a49.243 49.243 0 0 0 10.692 17.4 13.529 13.529 0 0 0 4.44 2.95 26.743 26.743 0 0 0 4.972 1.562 51.985 51.985 0 0 0 20.494 0 27.3 27.3 0 0 0 4.974-1.562 13.4 13.4 0 0 0 4.423-2.942 49.281 49.281 0 0 0 10.708-17.408c4.471-11.9 5.93-24.6 5.9-37.156a.117.117 0 0 1 .05-.007 16.026 16.026 0 0 0 2.462-.95 5.319 5.319 0 0 0 1.148-.718 2.482 2.482 0 0 0 .423-.456 183.991 183.991 0 0 1-2.643 21.589 108 108 0 0 1-6.154 21.394c-2.885 6.762-6.61 13.194-11.763 18.2-2.154 2.146-5.574 3.346-9.006 4.091A60.326 60.326 0 0 1 523 1329.2c-3.435-.737-6.869-1.944-8.99-4.083-5.171-5.022-8.88-11.438-11.763-18.209a106.592 106.592 0 0 1-6.173-21.394 183.505 183.505 0 0 1-2.609-21.184zm83.417 10.855a10.084 10.084 0 0 1 8.747 3.06 9.378 9.378 0 0 1 2.139 9.253 10.713 10.713 0 0 1-6.48 6.658 11.063 11.063 0 0 1-8.7-.632c.452-2.543.842-5.112 1.117-7.672.114-.939.164-1.878.242-2.81a1.91 1.91 0 0 0 .325-.162 4.078 4.078 0 0 0 1-.884 7.541 7.541 0 0 0 1.329-2.267 6.608 6.608 0 0 0 .281-4.544zm-16.184 53.5a5.3 5.3 0 0 1 .632 3.425 119.534 119.534 0 0 1-13.156 1.937c-2.883.266-5.8.438-8.716.542a50.509 50.509 0 0 0 6.044-.913 32.244 32.244 0 0 0 5.8-1.841 16.151 16.151 0 0 0 5.377-3.6c.5-.535.989-1.086 1.459-1.628a8.569 8.569 0 0 1 .777.388 5.035 5.035 0 0 1 1.785 1.685zm-33.1 5.857c-.388-.017-.8-.017-1.184-.04a128.614 128.614 0 0 1-19.3-2.31 5.484 5.484 0 0 1 .487-3.256 5.111 5.111 0 0 1 2.121-1.952c.356.414.73.842 1.119 1.239a16.145 16.145 0 0 0 5.377 3.613 32.682 32.682 0 0 0 5.8 1.841 48.562 48.562 0 0 0 5.582.859zm-49.753-17.189a7.977 7.977 0 0 1-.713-4.585 10.419 10.419 0 0 1 1.911-4.5 26.37 26.37 0 0 1 8-6.941 62.993 62.993 0 0 1 8.569-4.271 85.426 85.426 0 0 0 3.223 11.2 59.054 59.054 0 0 0 8.442 15.789 8.275 8.275 0 0 0-.682.873 7.634 7.634 0 0 0-1.263 3.444 6.889 6.889 0 0 0 .566 3.345c.048.107.114.188.162.292-.388-.081-.794-.145-1.183-.235-7.031-1.515-14-3.741-20.007-7.354-2.941-1.846-5.664-4.163-7.024-7.063zm103.023 12.347a53.713 53.713 0 0 1-14.727 7.169 89.415 89.415 0 0 1-16.087 3.5 119.615 119.615 0 0 1-16.526.98 120.927 120.927 0 0 1-16.524-.972 89.052 89.052 0 0 1-16.087-3.5 53.547 53.547 0 0 1-14.727-7.177c-.4-.283-.81-.59-1.2-.9a53.069 53.069 0 0 0 8.084 3.905 88.33 88.33 0 0 0 10.824 3.37 126.1 126.1 0 0 0 22.291 3.093c14.955.6 30.119-.7 44.44-5.581a60.371 60.371 0 0 0 10.371-4.641 41.629 41.629 0 0 0 3.922-2.648 34.4 34.4 0 0 1-4.054 3.402zm9.056-19.061a8.691 8.691 0 0 1 .357 5.006 10.383 10.383 0 0 1-2.315 4.431 25.987 25.987 0 0 1-8.427 6.191 63.036 63.036 0 0 1-10.026 3.862c-2.365.68-4.765 1.248-7.178 1.766.05-.13.13-.243.178-.381a6.663 6.663 0 0 0 .423-3.558 8.2 8.2 0 0 0-1.573-3.49 7.745 7.745 0 0 0-.777-.876 59.51 59.51 0 0 0 8.1-15.35c.031-.1.064-.195.1-.281.033-.009.1-.016.129-.026a5.679 5.679 0 0 0 1.216-.382 6.676 6.676 0 0 0 2.058-1.376 7.518 7.518 0 0 0 1.343-1.8.03.03 0 0 0 .017-.031 20.039 20.039 0 0 0 11.162-.583 17.4 17.4 0 0 1 5.213 6.878zm-16.833-10.863l-1.669-.713c.373-1.54.713-3.078 1-4.626a10.14 10.14 0 0 0 3.468 2.13 11.273 11.273 0 0 0 11.715-2.746 11.581 11.581 0 0 0 3-5.6 12.2 12.2 0 0 0-3.5-11.445 11.52 11.52 0 0 0-11.243-2.683l-.6.2.164.551v.015l.033.121.031.05a5.333 5.333 0 0 1 .4 4.447 7.885 7.885 0 0 1-1.036 2.187 3.539 3.539 0 0 1-.81.851.212.212 0 0 1-.048.031 134.3 134.3 0 0 0 .388-14.663 17.589 17.589 0 0 1 15.216 3.817 17.044 17.044 0 0 1 5.864 14.321 16.525 16.525 0 0 1-7.907 12.735 15.977 15.977 0 0 1-14.466 1.02z" class="cls-3" data-name="Path 474" transform="translate(-474.243 -1256.689)"/>
            </g>
        </g>
        <path id="Path_683" d="M525.363 1308.474a6.18 6.18 0 0 1-1.411-.125c-1-.285-.79.169-1.606-.948a5.106 5.106 0 0 1-1.106-2.3c-.064-.34.022-.671-.029-1.012-.094-.645.187-.871.226-1.327a3.366 3.366 0 0 1 1.259-1.432 9.014 9.014 0 0 1 1.744-.737c.351-.114.713-.162 1.068-.248a3.219 3.219 0 0 1 1.424.213 4.36 4.36 0 0 1 1.929 1.2c.373.384.689.513.827 1.093a4.13 4.13 0 0 1 .13.809c.021.562.482.388.379 1.378-.053.516-.8.834-.781 1.189.02.439-.274.6-.307.871-.04.336-.446.538-.722.663a6.352 6.352 0 0 1-3.023.711zm10.023 11.305l-.941-.084a4.27 4.27 0 0 1-1.475-.4c-.456-.138-.737-.489-1.09-.572a2.933 2.933 0 0 1-1.244-.864 3.753 3.753 0 0 1-.1-2.692 5.437 5.437 0 0 1 .366-1.485c.165-.7.516-.869.614-1.132.14-.379.937-.794 1.275-.956a7.062 7.062 0 0 1 2.459-.324.447.447 0 0 0 .14.011 7.214 7.214 0 0 1 1.211.112 4.339 4.339 0 0 1 1.472.818 9.366 9.366 0 0 1 2.012 2.949c.132.3.279.428.106.785-.382.794-1.2 1.584-1.264 1.814a3.11 3.11 0 0 1-1.257 1.464c-.592.416-1.178.269-1.384.445a1.869 1.869 0 0 1-.9.114zm-23.728-4.881c-.311-.03-.959.169-1.363-.263a2.257 2.257 0 0 0-.452-.362 6.349 6.349 0 0 1-1.132-1.1c-.149-.195-.377-.316-.524-.52s-.636-.449-.682-.64c-.073-.318-.57-.667-.742-1.377a1.037 1.037 0 0 0-.048-.152 4.774 4.774 0 0 1-.283-1.545l.024-.733a2.752 2.752 0 0 1 .448-1.347 8.538 8.538 0 0 1 1.975-1.67c1.222-.721 1.064-.285 1.467-.312l1.176.077a9.906 9.906 0 0 1 2.983.614c.478.129.629.448 1.169.48s1.024.779 1.242 1.207a6.866 6.866 0 0 1 .358 1.777c.09.585-.176.774-.224 1.222a4.605 4.605 0 0 1-1.012 2.211c-.257.327-.434.322-.56.472-.43.511-1.211.638-1.485 1.018a2.979 2.979 0 0 1-1.505.816 3.609 3.609 0 0 1-.829.125zm36.375 11.563l-1.176.086c-.386.086-.787.014-1.176.073a2.263 2.263 0 0 1-1.726-.752l-.961-.838a2.019 2.019 0 0 1-.72-2.2c.239-1.115-.294-1.61.123-2.747l.4-.8c.507-1.422 1.444-1.345 1.859-1.654a7.27 7.27 0 0 1 .582-.456 2.987 2.987 0 0 1 2.365-.581c.61.246 1.013-.208 1.943.055.59.165.5.617.921.746a2.024 2.024 0 0 1 1.246.935c.107.274.259.526.355.8a11.912 11.912 0 0 1 .61 2.663 2.743 2.743 0 0 1-.3 1.088c-.09.134.061.349 0 .619a1.911 1.911 0 0 1-.323.744c-.366.485-.764.943-1.169 1.4-.7.79-1.882.776-2.852.816zm-23.792-3.431a9.92 9.92 0 0 0-1.692.134c-.257.035-.52 0-.779.024a2.407 2.407 0 0 1-1.937-.9l-1.024-.831a2.139 2.139 0 0 1-.515-2.111c.289-1.307-.8-3.265.221-3.887a17.818 17.818 0 0 0 2.5-1.542 3.374 3.374 0 0 1 .663-.4 4.709 4.709 0 0 1 2.944-.439 5.939 5.939 0 0 1 .921.331 4.8 4.8 0 0 1 .557.355c.388.316 1.411.416 1.681 1.277a3.643 3.643 0 0 0 .167.34 10.566 10.566 0 0 1 .735 2.96 2.7 2.7 0 0 1-.232.985c-.129.23.108.423.068 1.3s-1.709 2.088-2.808 2.251c-.509.076-1.018.122-1.47.149zm25.986-8.907a10.013 10.013 0 0 0-2.79.108 2.03 2.03 0 0 1-.873.037c-.687-.127-.959-.8-1.237-.823a6.76 6.76 0 0 1-.732-.2c-.551-.024-1.038-.93-1.139-1.393a3.761 3.761 0 0 1-.228-1.977 5.5 5.5 0 0 1 .759-2.459c.283-.529.481-.526.6-.684.437-.59 1.206-.79 1.439-1.209.368-.665 2.262-1.419 2.883-1.064.877.5.4.581 1.663.842.415.086.742.568 1.17.849a4.079 4.079 0 0 0 .559.449.842.842 0 0 1 .417.441 4.631 4.631 0 0 1 .829 1.233 5.557 5.557 0 0 1 .487 2.326 2.471 2.471 0 0 1-.393 1.481 9.2 9.2 0 0 1-1.915 1.858c-.325.255-1.1.18-1.5.182z" class="cls-4" data-name="Path 683" transform="translate(854.16 639.623)"/>
        <path id="Path_684" d="M508.689 1308.679c-.141-.051-1.167-.9-1.318-.687-.031.046.359.7.38.8.064.292.847.371 1.092.371.437 0 1.613.37 1.849-.055-.226.047-.081-.435-1.1-.315a4.2 4.2 0 0 1-.9-.116zm16.791-7.222c.136-.044.3.025.3.129s-.167.2-.3.246-.248-.006-.248-.109a.337.337 0 0 1 .248-.266zm-1.6.22c.138-.044.3.026.3.129s-.165.2-.3.246-.248-.006-.248-.109a.337.337 0 0 1 .248-.266zm2.918.79c.336.151 1.128.413.952.612a5.366 5.366 0 0 1-2.308-.14c-.233-.1.186-.223.436-.379.11-.068.072-.834.125-.9.176-.2.459.651.8.8zm-3.515 1.917a6.129 6.129 0 0 1 .831-.957c.226-.189.52-.233.546-.193a9.046 9.046 0 0 1-1.2 1.483c-.1.1-.551.783-.6.691a3.469 3.469 0 0 1 .426-1.024zm24.2 1.886c.233-.075.518.046.518.223s-.285.344-.518.419-.424-.007-.424-.184a.579.579 0 0 1 .424-.458zm1.014-.845c.136-.044.3.026.3.13s-.165.2-.3.244-.248 0-.248-.109a.337.337 0 0 1 .248-.266zm-1.6.221c.136-.044.3.026.3.13s-.167.2-.3.244-.248 0-.248-.109a.337.337 0 0 1 .248-.266zm-.557 1.615c.23.286.809.888.562.981a5.355 5.355 0 0 1-1.983-1.191c-.158-.2.268-.11.561-.134.129-.009.274-.453.349-.483.119-.044.544-.008.61.165s-.217.513-.1.662zm1.674 1.3a3.793 3.793 0 0 0 .922-.438 3.444 3.444 0 0 1 1.5-.068c.042.066-.867.235-1.468.5a1.328 1.328 0 0 0-.561.5c-.1.112-.551.783-.6.693a3.694 3.694 0 0 1 .2-1.191zm-1.411 10.01a6.812 6.812 0 0 1 .878-1c.226-.189.379.086.4.127.11.177-.356.066-.413.2a4.108 4.108 0 0 1-.467 1.171c-.046.055.232.446.162.494s-.492-.244-.52-.292c-.015-.026-1.268.288-2.132.481-.513.114-1.2.731-1.189.639a3.134 3.134 0 0 1 1.034-.945 8.12 8.12 0 0 1 1.213-.2 3.11 3.11 0 0 0 .6-.138 1.271 1.271 0 0 0 .436-.535zm1.3-1.86c.171.046.294.23.226.337s-.3.1-.474.05-.252-.169-.184-.276a.415.415 0 0 1 .432-.11zm-2.94.879c.167-.053.371.033.371.16s-.2.244-.371.3-.3-.005-.3-.132a.415.415 0 0 1 .3-.327zm-1.641 1.985c.114-.037.252.022.252.108s-.138.165-.252.2-.206 0-.206-.09a.28.28 0 0 1 .206-.221zm-.024 2.455c-.033-.114.031-.25.117-.246s.16.143.193.258-.011.206-.1.2a.283.283 0 0 1-.213-.213zm2.992.487c-.044.171-.226.3-.332.228s-.1-.3-.053-.472.167-.253.274-.185a.413.413 0 0 1 .112.43zm-11.553-11.059c-.886-.281-.856.634-.193.423.454-.145-.325.555-.094.555.441 0 .469-.891 1.132-.088.221.27.195.362.724.236a.542.542 0 0 1 .132-.456c.485-.667-.936-.367-1.224-.5-.024-.011-.527-.18-.478-.165zm-.162 1.779c-.283.32.669.557-.274.608A4.741 4.741 0 0 0 532 1315.3c-.145.149.118.2.309.03.136-.121 1.422-.748 1.8-1.04 1.042-.816 1.167.713 1.924.29a.57.57 0 0 0-.294-.689c-.581-.307.313-.283-.309-.719-.233-.162-.487.281-.606.1a.2.2 0 0 0-.239-.038zm-13.983 2.779c-.1.11-.283.54-.1.742a11.642 11.642 0 0 0 3.4-.84c.085-.224-.641-.527-1.5-.472-.151.011-.314-.277-.471-.254-.107.019-.825-.846-.959-.783-.118.055.351 1.033.233 1.11a3.12 3.12 0 0 0-.6.5zm2.429-2.01c-.322.007-.5.125-.559.393-.154.722 2.883-.443.559-.393zm-3.574.935c-.164.007-.255.125-.285.391-.079.722 1.474-.441.285-.391zm1.16 4.194c.329.1.309-.241.178-.5-.353-.694-.875.289-.178.5zm-1.669-2.152c.125.1.125-.3.039-.561-.235-.693-.3.351-.039.561zm-6.215-11.125c-.342-.064-1.411 1.485-1.411 1.966 0 1.878.777-1.273 1.658-1.567.377-.127-.079-.225-.108-.351-.051-.013-.09-.038-.138-.047zm-1.678-.107c-.389-.205-.588-.174-.632.27-.033.34.9.106.641-.195-.026-.029.024-.059-.009-.075zm-1.828.9c-.1.114-.068.255.114.458.129.143.329-.062.41-.272.162-.424-.3-.45-.524-.185zm-1.364-1.1c-.283.322-1.426.184-.906.763.37.41 1.582.046 1.825-.547.167-.41 1.393-1.077 1.331-1.193-.125-.226-1.8.474-2.249.977zm24.5 8.658c-.044.169-.226.294-.333.226s-.1-.3-.053-.472.167-.254.274-.185a.412.412 0 0 1 .112.432zm.768-.649c-.084.088-.237.1-.279.024s.044-.216.129-.3.186-.1.228-.02a.289.289 0 0 1-.077.3z" class="cls-5" data-name="Path 684" transform="translate(854.484 640.572)"/>
        <path id="Path_685" d="M515.673 1315.366c-.125.215.215.22.483.147.718-.2-.219-.6-.483-.147zm-2.115-.787c-.07.215.121.219.272.145.406-.2-.121-.6-.272-.145zm7.1-12.265c-.125.215.215.221.483.147.72-.2-.217-.6-.483-.147zm19.415 4.512c-.176.176.088.3.36.353.507.1-.048-.667-.36-.353zm1.531-.491c.064.178.234.038.362-.131.239-.314-.472-.187-.362.131zm-2.481 11.135c.044.128.166.028.257-.094.171-.224-.336-.134-.257.094zm2.788-1.209c-.031.132.125.114.268.063.264-.1-.212-.3-.268-.063z" class="cls-6" data-name="Path 685" transform="translate(860.117 641.127)"/>
        <path id="Path_686" d="M523.245 1318.811c.687.584.947-1.417.873-2.94-.1-2.032-1.325-2.082-1.7-1a4.79 4.79 0 0 0 .827 3.944zm-13.312-8.1c.777.233.729-.566.421-1.174-.829-1.634-2.058.683-.421 1.174zm8.113 6.614c.777.233.728-.566.421-1.175-.829-1.634-2.06.684-.421 1.175zm5.772-12.05c.685.583 1.827-.052 1.753-1.575-.06-1.275-1.771-1.431-2.982-.891a2.637 2.637 0 0 0-1.273 1.474c-.193.559.891-.305 1.492-.274.573.031.654.963 1.011 1.266zm24.073 16.445c.687.584.946-1.417.873-2.94-.066-1.382-.654-1.849-1.143-1.665-.23.086-1.825.6-1.944.946-.164.47.757.821.864 1.5a4.248 4.248 0 0 0 1.351 2.163zm-15.163-6.292c.777.234.728-.564.419-1.172-.827-1.634-2.058.682-.419 1.172zm10.636 5.348c.777.232 2.084-.9 1.777-1.505-.606-1.2-3.931.19-3.684.961.09.281 1.47.412 1.907.544zm5.055-10.21c.687.583 1.933-.777 1.909-2.3 0-.23-.836-2.773-1-2.593s.382 3.054.217 2.962c-.627-.347-1.568-.888-2.359-.535-.719.322-.561.169-.7.571-.193.557.318.6.919.63.575.029.654.961 1.011 1.264z" class="cls-7" data-name="Path 686" transform="translate(856.418 641.471)"/>
        <path id="Path_687" d="M550.227 1314.123a10.013 10.013 0 0 0-2.79.108 2.03 2.03 0 0 1-.873.037c-.687-.127-.959-.8-1.237-.823a6.76 6.76 0 0 1-.732-.2c-.551-.024-1.038-.93-1.139-1.393a3.761 3.761 0 0 1-.228-1.977 5.5 5.5 0 0 1 .759-2.459c.283-.529.481-.526.6-.684.437-.59 1.206-.79 1.439-1.209.368-.665 2.262-1.419 2.883-1.064.877.5.4.581 1.663.842.415.086.742.568 1.17.849a4.079 4.079 0 0 0 .559.449.842.842 0 0 1 .417.441 4.631 4.631 0 0 1 .829 1.233 5.557 5.557 0 0 1 .487 2.326 2.471 2.471 0 0 1-.393 1.481 9.2 9.2 0 0 1-1.915 1.858c-.325.255-1.1.18-1.5.182zm-.331-.724a3.5 3.5 0 0 0 1.084-.134 2.891 2.891 0 0 0 1.356-.9 2.2 2.2 0 0 0 .875-1.387 4.966 4.966 0 0 0-.515-2.652c-.171-.393-.623-.649-.733-.939-.055-.144-.384-.246-.5-.362-.22-.232-.6-.456-.761-.649-.739-.888-1.169-.171-2.047-1.031-.34-.336-1.213.15-1.538.327-.226.121-.277.682-.713.961-.145.094-.316.149-.454.252a5.494 5.494 0 0 0-1.24 1.086 3.724 3.724 0 0 0-.491 1.509c0 .432-.226.765-.129 1.162.208.84.215 1.277.792 1.836.382.371.594.109 1 .171.386.059.278.3.511.522.6.571 1.4-.089 2.233.081a4.756 4.756 0 0 0 1.27.153zm-25.656 9.631a9.92 9.92 0 0 0-1.692.134c-.257.035-.52 0-.779.024a2.407 2.407 0 0 1-1.937-.9l-1.024-.831a2.139 2.139 0 0 1-.515-2.111c.289-1.307-.8-3.265.221-3.887a17.818 17.818 0 0 0 2.5-1.542 3.374 3.374 0 0 1 .663-.4 4.709 4.709 0 0 1 2.944-.439 5.939 5.939 0 0 1 .921.331 4.8 4.8 0 0 1 .557.355c.388.316 1.411.416 1.681 1.277a3.643 3.643 0 0 0 .167.34 10.566 10.566 0 0 1 .735 2.96 2.7 2.7 0 0 1-.232.985c-.129.23.108.423.068 1.3s-1.709 2.088-2.808 2.251c-.509.076-1.018.122-1.47.149zm3.49-4.822a6.77 6.77 0 0 0-.415-1.987c-.1-.32-.277-.6-.4-.917-.09-.239-.529-.426-.75-.5-.52-.173-.911-.678-1.437-.77-.287-.052-.373-.231-.719-.259a3.566 3.566 0 0 0-1.613.193l-1.773 1.09c-.434.22-.781.54-1.235.737a1.069 1.069 0 0 0-.621 1.145 9.277 9.277 0 0 1 .254 2.475c-.046.259-.125 1.055.149 1.226s.346.487.862.825l.776.6a4.437 4.437 0 0 1 .463.311c.367.375.911 0 1.319-.074a6.718 6.718 0 0 1 2.442-.13 2.979 2.979 0 0 0 1.406-.4 5.148 5.148 0 0 0 .93-1.112c.252-.583-.182-.939.079-1.253a1.767 1.767 0 0 0 .281-1.2zm20.3 8.253l-1.176.086c-.386.086-.787.014-1.176.073a2.263 2.263 0 0 1-1.726-.752l-.961-.838a2.019 2.019 0 0 1-.72-2.2c.239-1.115-.294-1.61.123-2.747l.4-.8c.507-1.422 1.444-1.345 1.859-1.654a7.27 7.27 0 0 1 .582-.456 2.987 2.987 0 0 1 2.365-.581c.61.246 1.013-.208 1.943.055.59.165.5.617.921.746a2.024 2.024 0 0 1 1.246.935c.107.274.259.526.355.8a11.912 11.912 0 0 1 .61 2.663 2.743 2.743 0 0 1-.3 1.088c-.09.134.061.349 0 .619a1.911 1.911 0 0 1-.323.744c-.366.485-.764.943-1.169 1.4-.7.79-1.882.776-2.852.816zm3.7-4.787a7.184 7.184 0 0 0-.481-2.156l-.305-.695c-.149-.577-1.457-.636-1.6-1.159a.386.386 0 0 0-.425-.337c-.728-.037-.865.338-1.251.116a1.425 1.425 0 0 0-1.413.027 21 21 0 0 0-2.19 1.467 4.966 4.966 0 0 0-1.037 2.089c-.233.469.09.97-.011 1.757-.171 1.347.075 1.088.444 1.6.3.415.753.544 1.077.911a8.1 8.1 0 0 0 .721.505c.423.346.77.019 1.2-.051a6.89 6.89 0 0 1 2.36-.176 1.746 1.746 0 0 0 .615-.017 1.339 1.339 0 0 0 .893-.514 4.858 4.858 0 0 0 1-1.757c.072-.171-.061-.224.116-.47a1.792 1.792 0 0 0 .285-1.143zm-40.08-6.775c-.311-.03-.959.169-1.363-.263a2.257 2.257 0 0 0-.452-.362 6.349 6.349 0 0 1-1.132-1.1c-.149-.195-.377-.316-.524-.52s-.636-.449-.682-.64c-.073-.318-.57-.667-.742-1.377a1.037 1.037 0 0 0-.048-.152 4.774 4.774 0 0 1-.283-1.545l.024-.733a2.752 2.752 0 0 1 .448-1.347 8.538 8.538 0 0 1 1.975-1.67c1.222-.721 1.064-.285 1.467-.312l1.176.077a9.906 9.906 0 0 1 2.983.614c.478.129.629.448 1.169.48s1.024.779 1.242 1.207a6.866 6.866 0 0 1 .358 1.777c.09.585-.176.774-.224 1.222a4.605 4.605 0 0 1-1.012 2.211c-.257.327-.434.322-.56.472-.43.511-1.211.638-1.485 1.018a2.979 2.979 0 0 1-1.505.816 3.609 3.609 0 0 1-.829.125zm-.1-.822a2.782 2.782 0 0 0 1.928-.777c.274-.412 1.448-.592 1.777-1.217a5.258 5.258 0 0 0 .86-1.792c.048-.487.3-.865.256-1.161-.055-.349-.12-.7-.167-1.048a1.4 1.4 0 0 0-.976-1.2c-.544-.083-.66-.351-.974-.443a9.874 9.874 0 0 0-2.6-.612c-.419-.007-1.077-.165-1.391-.134-.728.07-.469-.215-1.4.474a4.321 4.321 0 0 0-1.454 1.4 3.872 3.872 0 0 0-.169 1.676 6.259 6.259 0 0 0 .351 1.391c.116.34.538.68.586.853.072.268.393.353.553.558l.682.7a14.088 14.088 0 0 0 1.369 1.22c.169.21.538.108.763.1zm23.831 5.7l-.941-.084a4.27 4.27 0 0 1-1.475-.4c-.456-.138-.737-.489-1.09-.572a2.933 2.933 0 0 1-1.244-.864 3.753 3.753 0 0 1-.1-2.692 5.437 5.437 0 0 1 .366-1.485c.165-.7.516-.869.614-1.132.14-.379.937-.794 1.275-.956a7.062 7.062 0 0 1 2.459-.324.447.447 0 0 0 .14.011 7.214 7.214 0 0 1 1.211.112 4.339 4.339 0 0 1 1.472.818 9.366 9.366 0 0 1 2.012 2.949c.132.3.279.428.106.785-.382.794-1.2 1.584-1.264 1.814a3.11 3.11 0 0 1-1.257 1.464c-.592.416-1.178.269-1.384.445a1.869 1.869 0 0 1-.9.114zm-.36-7.586a4.179 4.179 0 0 0-2.3.531 2.649 2.649 0 0 0-.989 1.319c-.063.6-.366 1.209-.427 1.97a1.557 1.557 0 0 0 .039.822c.117.292.546.983.873 1.086.393.121.568.386.9.505a4.6 4.6 0 0 0 1.992.454c.746.061.9-.165 1.158-.055.4.171.862-.362 1.138-.582.329-.267.318-.448.536-.735a12.365 12.365 0 0 0 .73-1c.2-.323.581-.845.314-1.224-.233-.327-.314-.744-.568-1.055-.41-.5-.553-1.18-1.15-1.5-.263-.143-.553-.427-.858-.454l-.693-.1a5.275 5.275 0 0 1-.7.018zm-9.662-3.719a6.18 6.18 0 0 1-1.411-.125c-1-.285-.79.169-1.606-.948a5.106 5.106 0 0 1-1.106-2.3c-.064-.34.022-.671-.029-1.012-.094-.645.187-.871.226-1.327a3.366 3.366 0 0 1 1.259-1.432 9.014 9.014 0 0 1 1.744-.737c.351-.114.713-.162 1.068-.248a3.219 3.219 0 0 1 1.424.213 4.36 4.36 0 0 1 1.929 1.2c.373.384.689.513.827 1.093a4.13 4.13 0 0 1 .13.809c.021.562.482.388.379 1.378-.053.516-.8.834-.781 1.189.02.439-.274.6-.307.871-.04.336-.446.538-.722.663a6.352 6.352 0 0 1-3.023.711zm.055-.8a6.859 6.859 0 0 0 1.878-.221c.314-.077 1.393-.564 1.384-1.036a1.444 1.444 0 0 0-.057-.708c-.25-.436.991-.375.66-1.3-.083-.23-.549-.239-.834-.344-.432-.16-.853-.347-1.29-.493a1.545 1.545 0 0 1-.8-1.277c0-.094.059-.48.175-.472.084.005.112.051.114.132a1.77 1.77 0 0 0 .419.976l.834.487c.228.04 1.108.382 1.064.226a2 2 0 0 0-.917-1.354c-.869-.6-.6-.8-1.807-1.06-.65-.138-.375-.081-1.059.033a8.871 8.871 0 0 0-1.744.691 2.142 2.142 0 0 0-.821.619 3.051 3.051 0 0 0-.568 1.432 9.167 9.167 0 0 0 .164 1.384c.228.463.944 2.06 1.446 2.055.264 0 .557.182.836.189.314.01.627.059.924.039zm24.616.647l.586.015c.208-.033.757-.063.792.228.07.553-.825-.013-2.071.3a3.621 3.621 0 0 0-.836.266c-1.092.783-.257 1.65-1 2.575-.073.092-.362.536-.483.5-.206-.057-.1-.382.013-.472a1.855 1.855 0 0 0 .338-1.292c-.044-.153.029-.321.022-.478a1.485 1.485 0 0 1 .614-1.022 3.415 3.415 0 0 1 1.553-.583 2.328 2.328 0 0 1 .47-.038zm2.3 1.972c-.016.265-.207-.07-.755-.211a1.876 1.876 0 0 0-1.268-.1l-.88.178c-.472.2-.27.743-.483 1.112-.084.149-.437.906-.66.9-.163-.008.191-.359.226-.694.02-.214.138-.228.142-.638.007-.825.344-1.152 1.16-1.194a2.055 2.055 0 0 1 1.446-.022c.219.06 1.1.345 1.073.676zm-1.725 2.718c-.347 0-.507-.388-.147-.518.224-.081.518-.34.707-.072.237.334-.294.594-.56.59zm-1.187-2.154c.022-.37.722-.667.862-.351.12.274-.31.379-.447.533-.185.211-.395.073-.415-.182zm-.441-2.6c-.548-.055-.4-.643.259-.613a.291.291 0 0 1 .053.57 3.09 3.09 0 0 1-.312.044zm-2.086 2.4a.285.285 0 0 1-.5.195c-.345-.414.1-.867.38-.527a.619.619 0 0 1 .118.333zm5-2.571a.474.474 0 0 1 .406.375c.027.553-.871.239-.66-.209a.289.289 0 0 1 .253-.166zm-3.519.1c.009.211-.538.487-.693.305-.3-.342.685-.882.693-.305zm-1.746 1.377c.011-.158.009-.342.184-.373.36-.068.467.669.082.689-.206.009-.252-.162-.266-.316zm5.745-.5c.388 0 .49.6.083.608-.324.005-.493-.614-.083-.608zm.07 2.575c-.61.005-.136-.849.219-.538.2.18 0 .522-.219.538zm-2.885 1.562c-.307 0-.483-.248-.281-.443.171-.163.645-.061.561.233a.291.291 0 0 1-.279.209zm2.156-.952c-.368.033-.259-.4.046-.542.413-.186.5.55-.046.542zm-.219-4.587c0 .274-.379.265-.515.1a.251.251 0 0 1 .145-.4.337.337 0 0 1 .37.3zm-5.656 2.953c0 .426-.568.325-.474-.1.07-.316.472-.257.474.1zm3.2-3.275c-.4 0-.342-.413 0-.5a.24.24 0 0 1 .165.446.81.81 0 0 1-.162.052zm1.713 2.692c.242 0 .388.259.18.4-.187.129-.513.037-.456-.224.026-.116.121-.177.276-.178zm-2.745 2.483c.009.491-.651.2-.45-.143a.244.244 0 0 1 .45.143zm-2.08-2.817a.247.247 0 0 1-.493.009.247.247 0 1 1 .493-.009zm3.368 2.229c-.346 0-.223-.52.072-.518.327 0 .208.518-.072.518zm1.167-4.511c.006.439-.485.279-.454-.055.022-.257.39-.325.454.055zm-3-1.6c.336-.019.268.492-.077.489-.327-.006-.209-.482.077-.489zm-2.376 3.343c-.294.006-.327-.472-.046-.489.308-.019.38.479.046.489zm.439 2.751a.234.234 0 0 1 0-.468.234.234 0 0 1 0 .468zm-.849-1.837a.224.224 0 1 1 .446-.027c.011.307-.45.415-.446.027zm6.165 1.1c0 .276-.511.347-.5.031.011-.259.441-.281.5-.031zm-.575-4.658c-.011.439-.572.114-.38-.175.131-.2.384-.053.38.175zm-2.126.035c-.311 0-.254-.406.049-.4s.263.4-.049.4zm3.423 4.087c-.007-.311.452-.235.448.041s-.441.213-.448-.041zm-5.581-1.328a.218.218 0 0 1 .016-.436.218.218 0 0 1-.016.436zm2.939 2.883c.3.006.162.43-.088.423-.283-.006-.189-.426.088-.423zm1.4-.215a.213.213 0 0 1-.425 0 .213.213 0 0 1 .425 0zm-2.79-4.631a.2.2 0 0 1-.408.012.2.2 0 1 1 .408-.012zm-23.963 9.431a1.321 1.321 0 0 1 1 .384c1.025 1.5.59 1.609.643 2a6.814 6.814 0 0 1-.123 2.128c-.041.215-.419.248-.381.006l.086-.855.05-.557c-.005-.88-.1-2.02-.965-2.506a.79.79 0 0 0-.523-.079c-.5.073-1 .156-1.5.233a.708.708 0 0 0-.309.134c-.384.279-.382.281-.3.746l.36 1.226c.079.268.329.643.077.614-.43-.052-.869-1.656-.937-1.946a.69.69 0 0 1 .252-.863 1.476 1.476 0 0 1 .683-.4 13.515 13.515 0 0 1 1.889-.265zm1.156-1.308c.1-.73.706-.636.669-.25-.046.476-.184.485.424.788a.291.291 0 0 1-.191.55 1.133 1.133 0 0 1-.8-.583 3.473 3.473 0 0 1-.1-.505zm1.834 3.037c.084-.748.844-.294.526.349-.05.1-.121.432-.28.323-.189-.129-.2-.467-.246-.673zm.378-1.275c-.009.142-.011.327-.191.34-.276.018-.27-.458-.354-.827-.107-.465.547-.494.546.487zm-2.538 2.7c0 .336-.465.478-.6.165-.307-.722.5-1.066.6-.165zm1.788-4.675c.461.009.6.667.134.682-.505.015-.612-.689-.134-.682zm.768 5.2c.007.1.039.2-.037.281-.11.112-.561.145-.529-.1.062-.495.549-1.1.566-.18zm-5.23 1.25c0 .463-.7.177-.75-.213a.23.23 0 0 1 .353-.23c.136.1.4.254.4.443zm2.677-3.244c.007.338-.417.5-.505.166-.2-.755.314-.636.426-.463a.584.584 0 0 1 .079.3zm-1.206-3.459c.281-.005.514.419.259.621-.423.333-.79-.61-.259-.621zm2.288 6.151c0-.71.776-.331.474.246-.1.2-.478.266-.478-.246zm-3.2-2.8c.007.5-.685.281-.539-.186.11-.344.52-.2.539.186zm3.519 1.13c.037-.169.077-.375.294-.349.336.039.257.7-.053.689-.189-.007-.209-.189-.241-.34zm-1.562-5.031a.3.3 0 0 1-.593 0 .3.3 0 0 1 .593 0zm-1.141 4.609c.485-.007.188.875-.129.592-.18-.16-.164-.588.129-.592zm-2.338 1.884c-.009.386-.617.234-.579-.1.042-.369.586-.221.579.1zm1.874.675c-.351-.009-.382-.684-.053-.575.354.118.434.573.053.575zm-2.547-5.285c.527.005.129.862-.278.294-.2-.283.07-.261.278-.294zm3.129 2.086c-.311.013-.358-.562-.011-.566s.3.555.011.566zm2.586-.672c0-.459.586-.281.4.206-.081.21-.362.212-.4-.206zm-2.677-3.22c-.162 0-.358-.129-.268-.311.141-.283.718-.127.518.178a.266.266 0 0 1-.25.132zm-1.972 1.608a.233.233 0 0 1-.467.007.233.233 0 0 1 .467-.007zm1.4-1.266a.233.233 0 0 1-.465-.02.233.233 0 0 1 .465.02zm-.173 5.48a.224.224 0 0 1 .449-.011.224.224 0 0 1-.449.011zm2.994-3.089a.222.222 0 0 1 0-.445.222.222 0 0 1 0 .445zm-3.194-1.334a.217.217 0 0 1 0-.433.217.217 0 0 1 0 .433zm-2.494 4.094a.2.2 0 0 1 .017.4.2.2 0 0 1-.017-.4zm29.182 4.884c-.357.009-.042-.614-.094-1.055-.035-.309.1-.542.046-.954a3.235 3.235 0 0 0-.281-1.319c-.222-.536-.707-.656-.82-1.194-.13-.632.259-.921.579-1.424a2.158 2.158 0 0 1 .7-.581c.088-.057.368 0 .237.133a9.194 9.194 0 0 0-1.035 1.458.369.369 0 0 0-.05.131c-.1.39.289.213.5.658a2.572 2.572 0 0 1 .583 1.316c.026.221-.053.419-.022.634a3.591 3.591 0 0 1-.013.717 5.527 5.527 0 0 1-.121 1.292.2.2 0 0 1-.211.189zm-2.338-4.363c1.185-.046.9.667.489.521a3.932 3.932 0 0 0-1.468-.041 2.215 2.215 0 0 0-1.336.653c-.263.219-.213.725-.439.7-.435-.044.123-1.408 1.461-1.645a5.138 5.138 0 0 1 1.294-.189zm-1.1-.43c-.38.052-.158-.285.257-.377 1.164-.257 1.468-1.589 1.983-1.336.138.068-.64.818-.807 1.068a1.98 1.98 0 0 1-1.433.645zm5.7 1.889c-.005.114-.141.722-.323.625-.226-.12-.373-.871-.1-1.033s.426.18.426.408zm-3.1.819c.4.022.513.853.048.884s-.516-.884-.048-.884zm1.569-2.374c.018.656-1.193-.1-.781-.388.255-.182.776.143.781.388zm-1.5 4.275c.011.351-.546.525-.665-.206-.062-.382.544-.481.665.206zm2.5-5.669c-.011.423-.423.353-.645.166a.293.293 0 0 1 .083-.5.449.449 0 0 1 .562.338zm-.513 3.6c-.04.5-.523.447-.594-.174-.04-.366.6-.5.594.174zm-4.906 2.005c.152 0 .325.2.437.294a.243.243 0 0 1-.211.423c-.437-.11-.647-.717-.226-.717zm3.2-2.733c-.13.5-.467.29-.509.125-.191-.745.322-.641.428-.45a.587.587 0 0 1 .081.325zm1.611 2.663c.015.435-.538.5-.544.12-.007-.743.415-.511.491-.381a.492.492 0 0 1 .053.261zm-4.015-2.525a.367.367 0 0 1-.193-.575c.362-.388.777.6.193.575zm4.826 1.387c-.018.481-.566.423-.522-.027a.262.262 0 1 1 .522.027zm-.41-3.264c-.02.427-.557.291-.572-.09-.017-.4.52-.312.572.09zm-.842-.66c-.005.379-.478.268-.588.017-.182-.412.6-.443.588-.017zm-2.477 2.966c.542-.011.134.919-.138.572-.138-.174-.167-.568.138-.572zm-2.328 1.873c0 .4-.6.226-.592-.081.007-.388.592-.239.592.081zm1.034-.41a.278.278 0 0 1-.555.006.278.278 0 0 1 .555-.006zm1.09.816c.009.419-.518.287-.549-.064-.037-.4.515-.206.549.064zm4.142-3.953c-.4-.1-.147-.765.186-.527a.311.311 0 0 1-.186.527zm-4.068.728a.246.246 0 1 1 .49-.007c0 .38-.485.424-.49.007zm-2.272.734c0 .312-.5.443-.52.094-.013-.31.52-.467.52-.094zm2.409-4.33c-.393-.061-.318-.436.026-.465.382-.033.366.434-.026.465zm2.42 3.506c-.009-.379.561-.335.443.094-.077.277-.448.259-.443-.094zm.452 2.042a.226.226 0 1 1-.447.013c.009-.371.447-.384.447-.013zm-5.623-3.5c.011.338-.524.294-.517.044.009-.268.5-.419.517-.044zm1.064 1.7c.009.311-.48.408-.481.083 0-.3.472-.417.481-.083zm4.978-.356c-.272.007-.377-.485-.074-.509.27-.022.417.5.074.509zm.285 3.021c-.085.4-.491.285-.419-.059.061-.291.421-.245.419.059zm-5.756-5.03a.235.235 0 0 1 0 .469.235.235 0 0 1 0-.469zm1.636-1.047a.234.234 0 0 1-.467.012.234.234 0 0 1 .467-.012zm-.158.842a.216.216 0 0 1-.43.018.216.216 0 0 1 .43-.018zm-2.692 4.313a.2.2 0 0 1 0 .4.2.2 0 1 1 0-.4zm3.378.4a.182.182 0 0 1-.364.013.182.182 0 0 1 .364-.013zm-35.598-12.639a1.8 1.8 0 0 1 .5-1.094c.992-.77.312-1.516 1.033-2.341.143-.165.309-.312.454-.478.222-.254.439.325-.158.6a.512.512 0 0 0-.3.5 2.141 2.141 0 0 1-.127 1.459c-.776 1.046-1 .557-1.051 1.139a1.428 1.428 0 0 0 .849 1.578c.3.1-.129.4-.656-.005-.689-.531-.452-.9-.544-1.354zm-.79-1.652a5.346 5.346 0 0 1-.788.072c-1.035-.147-2.033-.851-1.709-1.051.064-.041.1.05.143.077 1.428.912 1.608.391 2.47.439.454.026.6-.345.66-.724a3.234 3.234 0 0 1 .717-1.135c.057-.05.287-.107.191.022a2.008 2.008 0 0 0-.342.669c-.368.494.116 1.632-1.342 1.632zm.255 2.185c.039.3-.252 1.061.186 1.325.4.241.617.16.628.384.02.452-.834.3-1.049-.248a11.637 11.637 0 0 1-.334-1.946c-.031-.443-.838-.564-1.163-.665-.568-.174-.481-.463-.219-.39a3.908 3.908 0 0 1 1.7.768.918.918 0 0 1 .255.771zm3.532-3.8c-.177 1.3-.68.871-.742.678a1.05 1.05 0 0 1 .456-.915c.193-.072.3 0 .287.237zm-.553 1.74c-.1.73-.737 1.047-.711.63a2.14 2.14 0 0 1 .244-.79c.119-.3.481-.2.467.16zm-3.466-.888c-.4-.086-.309-.342-.011-.5.208-.112.39-.3.526-.217.228.139.107.461-.072.586a.994.994 0 0 1-.443.132zm4.249 1.851c-.505-.085-.423-.658 0-.643.393.015.375.652 0 .643zm-2.047.524c0 .348-.184.454-.38.305-.261-.2-.145-.741.191-.649.175.048.2.193.2.344zm1.7.233c0 .177-.283.425-.408.515a.166.166 0 0 1-.244-.211c.07-.118.324-.592.505-.489a.245.245 0 0 1 .147.185zm-1.141.042c-.542-.11.018-.891.265-.493a.337.337 0 0 1-.265.493zm-4.17.243c-.314-.007-.454-.546-.066-.529s.432.536.066.529zm6.074-2.727c-.009.29-.366.41-.46.153-.176-.48.474-.626.46-.153zm-5.39-.358a.233.233 0 1 1 .017.465c-.382.022-.423-.463-.017-.465zm.243 2.835c.276.007.314.549-.007.536-.287-.013-.3-.547.007-.536zm1.544-3.92c.011.281-.492.428-.5.089-.006-.318.483-.436.5-.089zm.873 5.817c.005-.377.686-.287.48.055-.132.221-.489.235-.48-.055zm3.37-3.8c0 .454-.608.226-.417-.083.121-.193.417-.232.417.083zm-5.814-1.415c-.307-.011-.281-.344-.022-.413.336-.092.417.37.022.413zm5.337-.213a.233.233 0 0 1-.465-.006.233.233 0 0 1 .465.006zm-5.009 4.772c0 .292-.421.27-.412-.044.011-.336.415-.257.412.044zm1.079-6.441c.013.257-.459.311-.474.039s.461-.294.474-.039zm-2.6 2.334c-.253.007-.349-.426-.068-.439s.382.432.068.439zm3.2 4.588c-.318 0-.327-.4 0-.4a.2.2 0 1 1 0 .4zm-.145-6.49c.3-.011.217.4-.061.41-.3.015-.217-.4.061-.41zm1.044 5.171a.206.206 0 1 1 0 .412.206.206 0 0 1 0-.412zm21.931 3.5c.658 0 .715.27 1.141.656a3.465 3.465 0 0 1 .505 1.474c.029.245-.215.522-.465.393s-.1-.309-.138-.717c-.033-.349-.028-.711-.347-.933-.2-.14-.267-.38-.539-.406-1.387-.138-1.95 1.205-2.542 1.215a.25.25 0 0 1-.134-.463 3.969 3.969 0 0 1 2.517-1.218zm2.657 1.633a.234.234 0 1 1-.461.079c-.046-.312-.228-.568-.292-.87l-.167-.779c.048-.349.471-.055.566.377.081.366.349.948.355 1.192zm-3.212-.239c.005.36-.6.884-.862.465-.171-.271.117-.544.311-.715a.349.349 0 0 1 .551.25zm-.276-3.73c.591.026.491.637-.064.68a.334.334 0 0 1-.1-.656c.057-.013.118-.016.169-.024zm3.916 3.219a.348.348 0 0 1-.009-.7.348.348 0 0 1 .009.7zm-.753-2.332c-.369.031-.673-.665-.235-.695.461-.033.786.737.235.695zm-1.957 2.711a.346.346 0 0 1-.691-.017.346.346 0 0 1 .691.017zm0 1.112c-.077.36-.478.569-.66.235-.25-.463.663-.768.66-.235zm3.141-2.895a.329.329 0 0 1-.658.009.329.329 0 0 1 .658-.009zm-1.45.022a.321.321 0 0 1 .02-.641.321.321 0 0 1-.02.641zm-3.738-1.106c.005.279-.4.483-.555.209-.208-.357.548-.656.555-.209zm2.281.187a.28.28 0 0 1-.02-.559.28.28 0 0 1 .02.559zm-1.136.568c-.48 0-.3-.638.138-.493.325.11.138.483-.138.493zm1.542 3.837c.057.3-.581.441-.544.06.026-.272.54-.426.544-.06zm-1.727-.4a.234.234 0 0 1-.467.02.234.234 0 0 1 .467-.02zm-8.042-13.621a5.647 5.647 0 0 0 .7-.018c.386-.055 1.647.487 1.419.836s-.726-.391-1.286-.373c-.77.024-1.354-.2-2.042.294s-.665.945-1.11 1.424c-.406.443-.3-.215.424-1.134.162-.2.344-.391.505-.593a1.592 1.592 0 0 1 1.389-.435zm-.145 1.2a.33.33 0 0 1-.659 0 .33.33 0 0 1 .659 0zm0 1.373a.311.311 0 0 1-.292-.2c-.116-.3.322-.6.526-.406a.376.376 0 0 1-.233.608zm-.943-.955c0 .448-.753.47-.617.02.094-.314.617-.448.617-.02zm2.286-.254c-.371.006-.54-.552-.169-.579.437-.033.592.537.169.579zm-3.427-.8c-.38-.017-.184-.489.121-.584a.226.226 0 0 1 .281.244.525.525 0 0 1-.4.34zm.347 1.643c.4 0 .266.568-.1.557s-.211-.557.1-.557zm.2-4.174c-.41-.018-.263-.559.147-.5.292.044.292.406-.147.5zm3.462.1a.251.251 0 0 1-.393.2c-.311-.228-.026-.676.222-.476a.416.416 0 0 1 .171.279zm-5.122 1.189c-.005-.342.524-.465.52-.1s-.516.465-.52.1zm1.637.169a.23.23 0 0 1-.114-.428c.191-.132.511-.037.424.215a.345.345 0 0 1-.311.213zm2.619 2.564a.256.256 0 0 1 0-.511.256.256 0 0 1 0 .511zm-1.011-1.1a.242.242 0 1 1 .483-.009.242.242 0 0 1-.483.009zm.719 1.808c-.342.018-.116-.465.121-.465.193 0 .279.355.077.422a1.641 1.641 0 0 1-.2.043zm-3.374-4.548c.005-.292.582-.382.5-.077-.075.276-.5.425-.5.077zm4.416 3.639c.007-.349.52-.166.452.125-.074.316-.461.154-.452-.125zm-1.713-4.522a.233.233 0 0 1-.467 0 .233.233 0 0 1 .467 0zm2.3 1.674c-.549.013-.281-.775.123-.29.092.11.028.3-.123.29zm-5.2 1.33c-.006.3-.439.353-.434.044.006-.289.441-.364.434-.044zm1.992 2.514c-.314-.011-.231-.4.009-.4a.2.2 0 1 1-.009.4zm-1.988-1.483a.2.2 0 0 1-.017-.4.2.2 0 1 1 .017.4zm5.655-1.015c0 .213-.347.21-.355-.009-.007-.234.349-.217.355.009z" class="cls-8" data-name="Path 687" transform="translate(854.16 639.623)"/>
    </g>
</svg>
