<svg xmlns="http://www.w3.org/2000/svg" id="Group_51" width="113.35" height="100.698" data-name="Group 51" viewBox="0 0 113.35 100.698">
    <defs>
        <style>
            .cls-1{fill:#803a17}.cls-2{fill:#c29968}.cls-3{fill:#c35e1f}.cls-4{fill:#791b0a}.cls-5,.cls-6{fill:none}.cls-5{stroke:#803a17;stroke-miterlimit:10;stroke-width:1.408px}
        </style>
    </defs>
    <path id="Path_539" d="M203.991 1461.585a10.51 10.51 0 0 0-.939-1.442 15.009 15.009 0 0 0-9.672-5.263c-.107-.009-.061.219-.035.259.048.073.483.083.584.116.432.14.871.3 1.31.436a14.891 14.891 0 0 1 2.714 1.185 10.874 10.874 0 0 1 5.015 5.107 6.361 6.361 0 0 1 .3 3.942 7.989 7.989 0 0 1-1.97 3.492 22.114 22.114 0 0 1-7.172 4.875 56.272 56.272 0 0 1-8.532 3.043c-2.014.537-4.056.983-6.11 1.391-.208.044-.623.123-.855.165a109.671 109.671 0 0 1-11.2 1.525c-2.453.21-4.936.345-7.417.426-1.15 0-9.115-.026-10.092-.037-.331-.013-.676-.013-1.007-.031a117.692 117.692 0 0 1-16.421-1.819c-.261-.052-.759-.136-.9-.16-.331-.064-.676-.116-1.007-.185a58.815 58.815 0 0 1-17.028-5.793c-2.508-1.443-4.826-3.267-5.983-5.552a5.879 5.879 0 0 1-.608-3.613 7.892 7.892 0 0 1 1.626-3.547 22.062 22.062 0 0 1 6.814-5.469 54.354 54.354 0 0 1 6.968-3.227l-.04-.193a47.476 47.476 0 0 0-7.454 2.52 23.192 23.192 0 0 0-7.845 5.271 9.815 9.815 0 0 0-2.332 4.269 8.075 8.075 0 0 0 .458 4.927 13.17 13.17 0 0 0 3.363 4.494 3.816 3.816 0 0 0 .276.433 24.694 24.694 0 0 0 4.868 5.046 44.278 44.278 0 0 0 12.671 6.72c9.142 3.229 18.972 4.324 28.625 4.345 9.651-.013 19.483-1.11 28.625-4.339a44.273 44.273 0 0 0 12.671-6.72 24.9 24.9 0 0 0 4.866-5.052 17.143 17.143 0 0 0 1.285-2.139c.136-.173.289-.312.426-.478a9.63 9.63 0 0 0 1.944-4.344 7.322 7.322 0 0 0-.79-4.584zM195.262 1477a47.383 47.383 0 0 1-12.535 5.647 81.508 81.508 0 0 1-13.691 2.756 109.99 109.99 0 0 1-14.064.772 111.493 111.493 0 0 1-14.066-.764 81.207 81.207 0 0 1-13.691-2.758 47.2 47.2 0 0 1-12.531-5.653 22.164 22.164 0 0 1-1.022-.709 46.751 46.751 0 0 0 6.88 3.076 79.221 79.221 0 0 0 9.212 2.656 115.416 115.416 0 0 0 18.972 2.437c12.726.472 25.634-.549 37.821-4.4a53.8 53.8 0 0 0 8.824-3.657 35.85 35.85 0 0 0 3.337-2.087 28.516 28.516 0 0 1-3.446 2.684z" class="cls-1" data-name="Path 539" transform="translate(-104.516 -1388.542)"/>
    <g id="Group_50" data-name="Group 50" transform="translate(7.422)">
        <g id="Group_49" data-name="Group 49">
            <path id="Path_540" d="M151.334 1428.548a2.562 2.562 0 0 1 .235.274 1.661 1.661 0 0 0-.235-.274z" class="cls-2" data-name="Path 540" transform="translate(-72.721 -1407.531)"/>
            <path id="Path_541" d="M151.661 1429.019a1.618 1.618 0 0 0-.134-.228 1.618 1.618 0 0 1 .134.228z" class="cls-2" data-name="Path 541" transform="translate(-72.559 -1407.328)"/>
            <path id="Path_542" d="M121.927 1437.7c2.411.454 4.822.82 7.268 1.073a170.365 170.365 0 0 0 19.194.919 170.8 170.8 0 0 0 19.211-.919 79.576 79.576 0 0 0 9.5-1.494 31.854 31.854 0 0 0 4.622-1.327 11.693 11.693 0 0 0 2.143-1.1 2.828 2.828 0 0 0 1.365-1.768 4.615 4.615 0 0 0-.017-.481c-.033-.072-.033-.164-.068-.237 0-.037-.017-.063-.017-.1a3.451 3.451 0 0 0-1.231-1.358 10.667 10.667 0 0 0-2.143-1.147 29.935 29.935 0 0 0-4.622-1.43 94.229 94.229 0 0 0-12.1-2.361c-1.707-.18-3.368-.094-5.061-.268-1.93-.2-3.868-.342-5.807-.417q-1.982-.074-3.962-.081c-4.611-.015-9.2.2-13.808.413-.932.048-1.867.042-2.8.134-.965.094-1.93.192-2.9.268q-1.508.118-3.008.324a54.994 54.994 0 0 0-11.438 2.824c-.408.149-.823.274-1.231.408a15.5 15.5 0 0 0-2.644 1.779 2.24 2.24 0 0 0-.678 1.529c.011.878.9 1.516 1.579 1.942a14.574 14.574 0 0 0 2.918 1.325 38.176 38.176 0 0 0 5.735 1.55z" class="cls-3" data-name="Path 542" transform="translate(-105.921 -1410.336)"/>
            <path id="Path_543" d="M151.716 1429.6a.327.327 0 0 1-.033.173.065.065 0 0 0 .015-.037.4.4 0 0 0 .018-.136z" class="cls-2" data-name="Path 543" transform="translate(-72.428 -1406.651)"/>
            <path id="Path_544" d="M193.915 1429.544c-.175.046-.351.079-.522.132-.051-1.529-.1-3.058-.2-4.587a1.58 1.58 0 0 0 .219-.757 1.962 1.962 0 0 0-.761-1.419 5.874 5.874 0 0 0-1.2-.812 15.086 15.086 0 0 0-2.564-1.055 43.725 43.725 0 0 0-5.313-1.349c-3.576-.709-7.169-1.183-10.778-1.547-7.218-.72-14.455-1.011-21.688-1.038-7.255-.019-14.49.227-21.727.91-3.607.347-7.217.791-10.794 1.477a48.748 48.748 0 0 0-5.344 1.319 16.015 16.015 0 0 0-2.6 1.066 6.74 6.74 0 0 0-1.248.836 2.236 2.236 0 0 0-.843 1.612 1.837 1.837 0 0 0 .439 1.174 159.24 159.24 0 0 0 .505 24.384c.439 4.144 1.029 8.279 1.854 12.375a.732.732 0 0 0 .035.209 101.862 101.862 0 0 0 3.356 12.584 68.277 68.277 0 0 0 8.788 17.746c.125.228 2.268 3.1 2.547 3.315.371.464.759.947 1.163 1.393a16.835 16.835 0 0 0 5.6 4.061 32.21 32.21 0 0 0 6.04 2.067c.783.186 1.569.333 2.358.473a67.541 67.541 0 0 0 9.277.639c2.095-.04 4.467.029 6.61-.1a48.332 48.332 0 0 0 6.193-1.015c.259-.062.518-.154.777-.222a30.1 30.1 0 0 1 3.258-1.046c.671-.252 1.343-.489 2-.8a16.855 16.855 0 0 0 5.6-4.052c.524-.6 1.029-1.22 1.518-1.83.239-.274 2.417-3.148 2.547-3.38a63.666 63.666 0 0 0 5.25-9.236 77.182 77.182 0 0 0 4.217-10.256c.632-2.1 1.126-4.243 1.571-6.4a153.625 153.625 0 0 0 2.812-18.452c.246-2.986.4-5.993.5-8.99.024-.794-.07-9.268.024-9.286a2.173 2.173 0 0 0 .524-.143zm-21.215-10.182a96.979 96.979 0 0 1 10.761 1.048 45.515 45.515 0 0 1 5.261 1.229 15.718 15.718 0 0 1 2.5.983c.744.392 1.637.947 1.705 1.7-.068.812-.961 1.33-1.705 1.731-.084.046-.167.072-.252.11a9.428 9.428 0 0 0-2.126-1.45v-.382c0 .129-.015.255-.015.373a23.252 23.252 0 0 0-2.159-.928 50.774 50.774 0 0 0-4.96-1.5c-3.339-.757-6.711-1.275-10.1-1.722-4.537-.573-9.109-.827-13.68-.983 4.917-.255 9.842-.384 14.77-.209zm18.064 6.9a18.761 18.761 0 0 1-1.924.73v-1.829a9.31 9.31 0 0 1 1.921 1.099zm-60.988-3.7a263.34 263.34 0 0 1 6.8-1q7.338-.422 14.674-.41c6.746-.017 13.527.182 20.255.765 3.374.292 6.731.674 10.07 1.275a48.745 48.745 0 0 1 4.941 1.147 20.243 20.243 0 0 1 2.293.821c-.017.619-.051 1.248-.066 1.876-.018 0-.018 0-.018.007a46.815 46.815 0 0 1-5.261 1.23 96.625 96.625 0 0 1-10.761 1.045 205.375 205.375 0 0 1-21.587-.645c-7.187-.539-14.321-1.448-21.337-2.576-3.271-.456-6.527-1.085-9.664-1.759 3.13-.696 6.385-1.316 9.658-1.781zm-11.184 6.621c3.578.682 7.187 1.127 10.794 1.483 7.237.674 14.472.92 21.727.91 7.233-.035 14.47-.327 21.688-1.045 3.609-.366 7.22-.838 10.778-1.54a48.4 48.4 0 0 0 5.144-1.3 214.305 214.305 0 0 1-.827 11.928c0-.013-.009-.022-.011-.035l.011.051a.747.747 0 0 0-.015.184.049.049 0 0 0-.018.044 2.828 2.828 0 0 1-1.365 1.768 11.686 11.686 0 0 1-2.143 1.1 31.852 31.852 0 0 1-4.622 1.327 79.578 79.578 0 0 1-9.5 1.494 170.878 170.878 0 0 1-19.209.919 170.462 170.462 0 0 1-19.2-.919 88.255 88.255 0 0 1-7.268-1.074c-.742-.136-1.5-.255-2.242-.421a29.969 29.969 0 0 1-4.605-1.336 10.68 10.68 0 0 1-2.159-1.093 3.779 3.779 0 0 1-1.163-1.174 36.56 36.56 0 0 0-.136-1.292 2.109 2.109 0 0 1 .2-.4 2.365 2.365 0 0 0-.2.323c-.371-3.7-.606-7.43-.759-11.162a48.953 48.953 0 0 0 5.097 1.256zm-2.527 18.594a10.546 10.546 0 0 0 2.073 1.31 30.714 30.714 0 0 0 4.521 1.738 61.57 61.57 0 0 0 1.988.537c2.446.612 4.927 1.077 7.406 1.468a136.624 136.624 0 0 0 38.119 0 75.1 75.1 0 0 0 9.392-2.005 30.018 30.018 0 0 0 4.521-1.738 11.194 11.194 0 0 0 2.091-1.31 4.535 4.535 0 0 0 .81-.875.355.355 0 0 1-.018.136 109.078 109.078 0 0 1-5.412 21.889c-2.632 6.976-6.14 13.641-11.048 18.941-2.328 2.549-5.734 3.75-9.058 4.552a45.877 45.877 0 0 1-10.355 1.029 46.349 46.349 0 0 1-10.339-1.029 32.374 32.374 0 0 1-3.238-.956 14.072 14.072 0 0 1-5.82-3.6c-4.925-5.309-8.416-11.965-11.03-18.941a108.007 108.007 0 0 1-5.432-21.889c0-.064-.017-.118-.017-.175a4.121 4.121 0 0 0 .843.913zm-.895-1.213a135.24 135.24 0 0 1-.742-5.88 4.019 4.019 0 0 0 1 1.165 11.242 11.242 0 0 0 2.124 1.3 31.092 31.092 0 0 0 4.6 1.75c.726.2 1.452.391 2.178.562l.287 4.874c-.592-.12-1.182-.211-1.773-.338a30.233 30.233 0 0 1-4.537-1.338 11.716 11.716 0 0 1-2.106-1.093 4.06 4.06 0 0 1-1.034-1.007zm75.172 2.96a128.927 128.927 0 0 1-6.408 24.048c-3 7.6-6.882 14.832-12.244 20.459-2.244 2.413-5.8 3.762-9.379 4.6a49.188 49.188 0 0 1-11.215 1.084 49.707 49.707 0 0 1-11.2-1.093c-3.574-.827-7.15-2.185-9.359-4.589-5.381-5.645-9.243-12.856-12.244-20.468a127.309 127.309 0 0 1-6.426-24.05 222.588 222.588 0 0 1-2.716-23.809c.085.092.169.18.254.263a6.61 6.61 0 0 0 1.248.83 16.86 16.86 0 0 0 2.6 1.064l.1.028c0 14.04 1.536 28.227 6.158 41.53a56.252 56.252 0 0 0 11.131 19.558 14.013 14.013 0 0 0 4.622 3.315 26.24 26.24 0 0 0 5.179 1.757 50.178 50.178 0 0 0 21.333 0 26.882 26.882 0 0 0 5.18-1.757 13.856 13.856 0 0 0 4.6-3.306 56.3 56.3 0 0 0 11.149-19.567c4.655-13.377 6.173-27.654 6.138-41.767a.106.106 0 0 1 .051-.009 15.9 15.9 0 0 0 2.564-1.066 5.515 5.515 0 0 0 1.2-.81 2.657 2.657 0 0 0 .439-.511 222.042 222.042 0 0 1-2.759 24.262z" class="cls-1" data-name="Path 544" transform="translate(-108.555 -1417.112)"/>
            <path id="Path_545" d="M184.947 1432.2a1.659 1.659 0 0 0-.134-.228.834.834 0 0 0-.119-.174 2.706 2.706 0 0 0-.235-.272 5.249 5.249 0 0 0-.575-.536 10.9 10.9 0 0 0-2.124-1.257 32.241 32.241 0 0 0-4.6-1.648q-1.1-.292-2.2-.538l-.068-.015c-.75-.167-1.5-.3-2.249-.473q-.573-.113-1.149-.211l-.575-.1c-.162-.026-.318-.07-.48-.1s-.34-.057-.509-.084a95.322 95.322 0 0 0-2.3-.352 152.48 152.48 0 0 0-38.624 0l-.7.1c-.748.112-1.494.236-2.238.364s-1.468.25-2.2.391-1.474.3-2.207.469-1.461.347-2.183.548a29.617 29.617 0 0 0-4.589 1.639 11.189 11.189 0 0 0-2.141 1.257 4.283 4.283 0 0 0-.954 1.092 4.045 4.045 0 0 1 1.02-1 10.767 10.767 0 0 1 2.143-1.147 30.578 30.578 0 0 1 4.622-1.43 77.558 77.558 0 0 1 6.551-1.236 39.014 39.014 0 0 1 6.2-.7q1.442-.135 2.887-.243c.334-.059.737-.121 1.281-.185a10.863 10.863 0 0 1 1.878-.027q4.918-.265 9.844-.242h.1c4.888 0 9.776.194 14.657.485a55.208 55.208 0 0 1 6.959.669c2.383.448 4.76.925 7.121 1.485a29.882 29.882 0 0 1 4.622 1.43 10.665 10.665 0 0 1 2.143 1.147 3.558 3.558 0 0 1 1.176 1.279 1.55 1.55 0 0 0-.051-.157z" class="cls-1" data-name="Path 545" transform="translate(-105.845 -1410.511)"/>
            <path id="Path_546" d="M151.683 1429.772a.327.327 0 0 0 .033-.173.328.328 0 0 1-.018.126.085.085 0 0 1-.015.047z" class="cls-1" data-name="Path 546" transform="translate(-72.428 -1406.651)"/>
            <path id="Path_547" d="M138.094 1481.519a46.368 46.368 0 0 0 10.337 1.029 45.907 45.907 0 0 0 10.357-1.029c3.323-.8 6.728-2 9.056-4.552 4.908-5.3 8.417-11.965 11.048-18.941a109.23 109.23 0 0 0 5.414-21.889.392.392 0 0 0 .017-.137c-.219.329.707-6.323.421-6.077a23.571 23.571 0 0 1-3.051 1.907 16.054 16.054 0 0 1-3.315 1.233c-3.085.9-5.833.887-9 1.389a118.61 118.61 0 0 1-17.6 1.128c-6.36-.083-11.858-.092-18.233-.531-16.5-1.134-20.459-2.969-21.809-5.5-.537 3.425 5.779 45.619 23.123 51.009a32.312 32.312 0 0 0 3.235.961z" class="cls-4" data-name="Path 547" transform="translate(-105.921 -1406.689)"/>
        </g>
    </g>
    <path id="Path_548" d="M154.168 1479.4c1.516-1.621 1.606-4.072 2.558-6.029.985-2.021 2.874-2.771 4.732-3.589a30.981 30.981 0 0 0 15.923-16.69c2.558-6.318 3.385-14.231 1.307-20.85a12.565 12.565 0 0 0-3.685-5.9 9.545 9.545 0 0 0-12.123.279c-3.422 2.909-4.91 8.073-4 12.672a8.8 8.8 0 0 0 1.115-1.406c.511-.941.722-2.01 1.152-2.992 1.946-4.434 7.867-4.589 10.971-1.531 6.287 6.193 1.941 18.546-2.643 24.268-3.866 4.831-8.613 8.031-13.569 11.366-2.986 2.01-6.84 5.261-7 9.438-.123 3.284 3.175 2.76 4.881 1.325a4.337 4.337 0 0 0 .381-.361z" class="cls-5" data-name="Path 548" transform="translate(-67.331 -1411.089)"/>
    <path id="Path_549" d="M156.976 1433.973c-17.419 0-31.542-2.411-31.542-5.384 0-.509.443-1 1.217-1.467-6.981.987-11.43 2.477-11.43 4.146 0 2.973 14.122 5.384 31.542 5.384 14.437 0 26.58-1.657 30.325-3.916a148.851 148.851 0 0 1-20.112 1.237z" class="cls-2" data-name="Path 549" transform="translate(-95.549 -1408.726)"/>
    <path id="Path_550" d="M158.1 1460.761l.476.441" class="cls-6" data-name="Path 550" transform="translate(-59.627 -1380.547)"/>
</svg>
