<svg xmlns="http://www.w3.org/2000/svg" id="Group_54" width="113.352" height="100.698" data-name="Group 54" viewBox="0 0 113.352 100.698">
    <defs>
        <style>
            .cls-1{fill:#803a17}.cls-2{fill:#c29968}.cls-3{fill:#c35e1f}.cls-4{fill:#791b0a}.cls-5,.cls-6{fill:none}.cls-5{stroke:#803a17;stroke-miterlimit:10;stroke-width:1.408px}
        </style>
    </defs>
    <path id="Path_551" d="M307.843 1461.585a10.673 10.673 0 0 0-.937-1.442 15.009 15.009 0 0 0-9.673-5.263c-.107-.009-.061.219-.035.259.048.073.483.083.584.116.434.14.871.3 1.31.436a14.893 14.893 0 0 1 2.714 1.185 10.865 10.865 0 0 1 5.015 5.107 6.362 6.362 0 0 1 .305 3.942 8.011 8.011 0 0 1-1.972 3.492 22.125 22.125 0 0 1-7.17 4.875 56.366 56.366 0 0 1-8.534 3.043c-2.014.537-4.056.983-6.11 1.391-.206.044-.621.123-.853.165a109.808 109.808 0 0 1-11.2 1.525c-2.455.21-4.936.345-7.419.426-1.15 0-9.115-.026-10.092-.037-.331-.013-.676-.013-1.007-.031a117.693 117.693 0 0 1-16.421-1.819c-.259-.052-.759-.136-.9-.16-.331-.064-.674-.116-1.007-.185a58.834 58.834 0 0 1-17.028-5.793c-2.508-1.443-4.826-3.267-5.983-5.552a5.865 5.865 0 0 1-.606-3.613 7.872 7.872 0 0 1 1.626-3.547 22.054 22.054 0 0 1 6.812-5.469 54.467 54.467 0 0 1 6.968-3.227l-.04-.193a47.477 47.477 0 0 0-7.454 2.52 23.211 23.211 0 0 0-7.845 5.271 9.811 9.811 0 0 0-2.33 4.269 8.06 8.06 0 0 0 .456 4.927 13.194 13.194 0 0 0 3.363 4.494 3.839 3.839 0 0 0 .277.433 24.684 24.684 0 0 0 4.866 5.046 44.287 44.287 0 0 0 12.673 6.72c9.141 3.229 18.972 4.324 28.623 4.345 9.651-.013 19.483-1.11 28.625-4.339a44.25 44.25 0 0 0 12.671-6.72 24.856 24.856 0 0 0 4.866-5.052 17.132 17.132 0 0 0 1.284-2.139c.136-.173.289-.312.426-.478a9.63 9.63 0 0 0 1.944-4.344 7.322 7.322 0 0 0-.792-4.584zM299.114 1477a47.4 47.4 0 0 1-12.533 5.647 81.567 81.567 0 0 1-13.692 2.756 109.973 109.973 0 0 1-14.064.772 111.447 111.447 0 0 1-14.064-.764 81.191 81.191 0 0 1-13.692-2.758 47.2 47.2 0 0 1-12.533-5.653 22.164 22.164 0 0 1-1.022-.709 46.75 46.75 0 0 0 6.88 3.076 79.219 79.219 0 0 0 9.212 2.656 115.416 115.416 0 0 0 18.972 2.437c12.728.472 25.634-.549 37.821-4.4a53.667 53.667 0 0 0 8.824-3.657 35.854 35.854 0 0 0 3.337-2.087 28.521 28.521 0 0 1-3.446 2.684z" class="cls-1" data-name="Path 551" transform="translate(-208.369 -1388.542)"/>
    <g id="Group_53" data-name="Group 53" transform="translate(7.422)">
        <g id="Group_52" data-name="Group 52">
            <path id="Path_552" d="M255.188 1428.548a2.542 2.542 0 0 1 .233.274 1.74 1.74 0 0 0-.233-.274z" class="cls-2" data-name="Path 552" transform="translate(-176.573 -1407.531)"/>
            <path id="Path_553" d="M255.516 1429.019a1.646 1.646 0 0 0-.136-.228 1.646 1.646 0 0 1 .136.228z" class="cls-2" data-name="Path 553" transform="translate(-176.412 -1407.328)"/>
            <path id="Path_554" d="M225.781 1437.7a88.33 88.33 0 0 0 7.266 1.073 170.378 170.378 0 0 0 19.2.919 170.847 170.847 0 0 0 19.211-.919 79.7 79.7 0 0 0 9.5-1.494 31.925 31.925 0 0 0 4.622-1.327 11.68 11.68 0 0 0 2.141-1.1 2.837 2.837 0 0 0 1.367-1.768 4.151 4.151 0 0 0-.018-.481c-.033-.072-.033-.164-.068-.237 0-.037-.017-.063-.017-.1a3.452 3.452 0 0 0-1.231-1.358 10.653 10.653 0 0 0-2.141-1.147 30.059 30.059 0 0 0-4.622-1.43 94.29 94.29 0 0 0-12.1-2.361c-1.707-.18-3.368-.094-5.061-.268a90.187 90.187 0 0 0-5.809-.417q-1.979-.074-3.962-.081c-4.611-.015-9.2.2-13.808.413-.932.048-1.867.042-2.8.134-.967.094-1.931.192-2.9.268q-1.508.118-3.008.324a54.938 54.938 0 0 0-11.436 2.824c-.41.149-.823.274-1.233.408a15.5 15.5 0 0 0-2.644 1.779 2.248 2.248 0 0 0-.678 1.529c.011.878.9 1.516 1.579 1.942a14.62 14.62 0 0 0 2.918 1.325 38.2 38.2 0 0 0 5.732 1.55z" class="cls-3" data-name="Path 554" transform="translate(-209.774 -1410.336)"/>
            <path id="Path_555" d="M255.569 1429.6a.327.327 0 0 1-.033.173.061.061 0 0 0 .017-.037.444.444 0 0 0 .016-.136z" class="cls-2" data-name="Path 555" transform="translate(-176.281 -1406.651)"/>
            <path id="Path_556" d="M297.768 1429.544c-.173.046-.351.079-.522.132-.05-1.529-.1-3.058-.2-4.587a1.58 1.58 0 0 0 .219-.757 1.967 1.967 0 0 0-.759-1.419 5.842 5.842 0 0 0-1.2-.812 15.132 15.132 0 0 0-2.562-1.055 43.838 43.838 0 0 0-5.315-1.349c-3.576-.709-7.167-1.183-10.778-1.547-7.217-.72-14.453-1.011-21.688-1.038-7.253-.019-14.488.227-21.725.91-3.609.347-7.218.791-10.794 1.477a48.676 48.676 0 0 0-5.346 1.319 16.016 16.016 0 0 0-2.6 1.066 6.74 6.74 0 0 0-1.248.836 2.242 2.242 0 0 0-.843 1.612 1.837 1.837 0 0 0 .439 1.174 159.242 159.242 0 0 0 .505 24.384c.439 4.144 1.031 8.279 1.856 12.375a.673.673 0 0 0 .035.209 101.533 101.533 0 0 0 3.356 12.584 68.214 68.214 0 0 0 8.786 17.746c.125.228 2.268 3.1 2.547 3.315.371.464.759.947 1.163 1.393a16.834 16.834 0 0 0 5.6 4.061 32.208 32.208 0 0 0 6.04 2.067c.783.186 1.571.333 2.358.473a67.542 67.542 0 0 0 9.277.639c2.1-.04 4.467.029 6.61-.1a48.278 48.278 0 0 0 6.193-1.015c.259-.062.518-.154.777-.222a30.1 30.1 0 0 1 3.258-1.046c.671-.252 1.345-.489 2-.8a16.855 16.855 0 0 0 5.6-4.052c.524-.6 1.029-1.22 1.518-1.83.239-.274 2.418-3.148 2.547-3.38a63.845 63.845 0 0 0 5.252-9.236 77.419 77.419 0 0 0 4.216-10.256c.634-2.1 1.126-4.243 1.571-6.4a153.61 153.61 0 0 0 2.812-18.452c.246-2.986.4-5.993.5-8.99.026-.794-.068-9.268.024-9.286a2.173 2.173 0 0 0 .521-.143zm-21.216-10.183a96.947 96.947 0 0 1 10.759 1.048 45.549 45.549 0 0 1 5.263 1.229 15.793 15.793 0 0 1 2.5.983c.742.392 1.637.947 1.7 1.7-.066.812-.961 1.33-1.7 1.731-.085.046-.167.072-.252.11a9.512 9.512 0 0 0-2.126-1.45v-.382c0 .129-.017.255-.017.373a23.034 23.034 0 0 0-2.159-.928 50.775 50.775 0 0 0-4.96-1.5c-3.339-.757-6.711-1.275-10.1-1.722-4.537-.573-9.109-.827-13.68-.983 4.92-.254 9.845-.383 14.772-.208zm18.064 6.9a18.921 18.921 0 0 1-1.924.73v-1.829a9.4 9.4 0 0 1 1.924 1.1zm-60.99-3.7c2.244-.364 4.521-.691 6.8-1q7.338-.422 14.674-.41c6.746-.017 13.527.182 20.257.765 3.372.292 6.73.674 10.069 1.275a48.894 48.894 0 0 1 4.943 1.147 20.246 20.246 0 0 1 2.293.821c-.018.619-.051 1.248-.068 1.876-.017 0-.017 0-.017.007a46.851 46.851 0 0 1-5.263 1.23 96.593 96.593 0 0 1-10.759 1.045 205.41 205.41 0 0 1-21.589-.645c-7.187-.539-14.319-1.448-21.337-2.576-3.271-.456-6.527-1.085-9.664-1.759 3.135-.695 6.39-1.315 9.661-1.78zm-11.182 6.621c3.576.682 7.185 1.127 10.794 1.483 7.237.674 14.472.92 21.725.91 7.235-.035 14.472-.327 21.688-1.045 3.611-.366 7.22-.838 10.778-1.54a48.55 48.55 0 0 0 5.146-1.3 216.247 216.247 0 0 1-.829 11.928c0-.013-.009-.022-.009-.035l.009.051a.746.746 0 0 0-.015.184.052.052 0 0 0-.017.044 2.836 2.836 0 0 1-1.367 1.768 11.674 11.674 0 0 1-2.141 1.1 31.925 31.925 0 0 1-4.622 1.327 79.692 79.692 0 0 1-9.5 1.494 170.91 170.91 0 0 1-19.211.919 170.463 170.463 0 0 1-19.2-.919 88.334 88.334 0 0 1-7.266-1.074c-.744-.136-1.5-.255-2.244-.421a30.028 30.028 0 0 1-4.605-1.336 10.728 10.728 0 0 1-2.159-1.093 3.8 3.8 0 0 1-1.163-1.174c-.035-.43-.085-.857-.134-1.292a2 2 0 0 1 .195-.4 2.345 2.345 0 0 0-.195.323c-.371-3.7-.608-7.43-.761-11.162a48.869 48.869 0 0 0 5.103 1.257zm-2.529 18.594a10.506 10.506 0 0 0 2.075 1.31 30.693 30.693 0 0 0 4.519 1.738c.658.191 1.316.366 1.99.537 2.446.612 4.925 1.077 7.4 1.468a136.625 136.625 0 0 0 38.119 0 75.2 75.2 0 0 0 9.394-2.005 30 30 0 0 0 4.519-1.738 11.134 11.134 0 0 0 2.091-1.31 4.536 4.536 0 0 0 .81-.875.391.391 0 0 1-.017.136 109.2 109.2 0 0 1-5.414 21.889c-2.631 6.976-6.14 13.641-11.048 18.941-2.328 2.549-5.733 3.75-9.056 4.552a52.521 52.521 0 0 1-20.694 0 32.27 32.27 0 0 1-3.24-.956 14.072 14.072 0 0 1-5.82-3.6c-4.923-5.309-8.417-11.965-11.03-18.941a107.881 107.881 0 0 1-5.43-21.889c0-.064-.018-.118-.018-.175a4.164 4.164 0 0 0 .85.914zm-.895-1.213a138.411 138.411 0 0 1-.742-5.88 4.048 4.048 0 0 0 1 1.165 11.24 11.24 0 0 0 2.124 1.3 31.036 31.036 0 0 0 4.605 1.75c.724.2 1.45.391 2.176.562l.287 4.874c-.59-.12-1.182-.211-1.771-.338a30.168 30.168 0 0 1-4.537-1.338 11.669 11.669 0 0 1-2.108-1.093 4.09 4.09 0 0 1-1.034-1.006zm75.171 2.96a128.933 128.933 0 0 1-6.408 24.048c-3 7.6-6.882 14.832-12.244 20.459-2.244 2.413-5.8 3.762-9.378 4.6a58.236 58.236 0 0 1-22.416-.009c-3.576-.827-7.15-2.185-9.359-4.589-5.383-5.645-9.243-12.856-12.246-20.468a127.311 127.311 0 0 1-6.426-24.05A222.105 222.105 0 0 1 213 1425.7c.085.092.167.18.252.263a6.61 6.61 0 0 0 1.248.83 16.862 16.862 0 0 0 2.6 1.064l.1.028c0 14.04 1.536 28.227 6.158 41.53a56.282 56.282 0 0 0 11.131 19.558 14.012 14.012 0 0 0 4.622 3.315 26.24 26.24 0 0 0 5.179 1.757 50.187 50.187 0 0 0 21.335 0 26.907 26.907 0 0 0 5.178-1.757 13.88 13.88 0 0 0 4.605-3.306 56.29 56.29 0 0 0 11.147-19.567c4.655-13.377 6.173-27.654 6.14-41.767a.1.1 0 0 1 .051-.009 15.957 15.957 0 0 0 2.562-1.066 5.487 5.487 0 0 0 1.2-.81 2.8 2.8 0 0 0 .439-.511 222.51 222.51 0 0 1-2.756 24.268z" class="cls-1" data-name="Path 556" transform="translate(-212.408 -1417.112)"/>
            <path id="Path_557" d="M288.8 1432.2a1.686 1.686 0 0 0-.136-.228.72.72 0 0 0-.119-.174 2.693 2.693 0 0 0-.233-.272 5.425 5.425 0 0 0-.575-.536 10.954 10.954 0 0 0-2.124-1.257 32.343 32.343 0 0 0-4.605-1.648q-1.094-.292-2.2-.538l-.068-.015c-.748-.167-1.5-.3-2.249-.473q-.573-.113-1.149-.211a176.71 176.71 0 0 1-.575-.1c-.162-.026-.318-.07-.48-.1s-.34-.057-.509-.084a92.37 92.37 0 0 0-2.3-.352 152.466 152.466 0 0 0-38.622 0l-.7.1c-.748.112-1.494.236-2.238.364s-1.466.25-2.2.391-1.474.3-2.207.469-1.459.347-2.181.548a29.637 29.637 0 0 0-4.59 1.639 11.189 11.189 0 0 0-2.141 1.257 4.319 4.319 0 0 0-.954 1.092 4.022 4.022 0 0 1 1.022-1 10.753 10.753 0 0 1 2.141-1.147 30.708 30.708 0 0 1 4.622-1.43 77.453 77.453 0 0 1 6.553-1.236 38.966 38.966 0 0 1 6.2-.7q1.442-.135 2.885-.243c.336-.059.737-.121 1.281-.185a10.884 10.884 0 0 1 1.88-.027q4.918-.265 9.843-.242h.1c4.89 0 9.776.194 14.659.485a55.21 55.21 0 0 1 6.957.669c2.383.448 4.76.925 7.123 1.485a30.006 30.006 0 0 1 4.622 1.43 10.653 10.653 0 0 1 2.141 1.147 3.56 3.56 0 0 1 1.176 1.279c-.026-.048-.022-.106-.05-.157z" class="cls-1" data-name="Path 557" transform="translate(-209.698 -1410.511)"/>
            <path id="Path_558" d="M255.536 1429.772a.327.327 0 0 0 .033-.173.362.362 0 0 1-.017.126.078.078 0 0 1-.016.047z" class="cls-1" data-name="Path 558" transform="translate(-176.281 -1406.651)"/>
            <path id="Path_559" d="M241.947 1481.519a46.384 46.384 0 0 0 10.339 1.029 45.9 45.9 0 0 0 10.355-1.029c3.323-.8 6.73-2 9.056-4.552 4.908-5.3 8.417-11.965 11.05-18.941a109.349 109.349 0 0 0 5.412-21.889.392.392 0 0 0 .017-.137c-.219.329.709-6.323.423-6.077a23.593 23.593 0 0 1-3.052 1.907 16.078 16.078 0 0 1-3.313 1.233c-3.087.9-5.835.887-9.006 1.389a118.61 118.61 0 0 1-17.6 1.128c-6.358-.083-11.857-.092-18.233-.531-16.5-1.134-20.459-2.969-21.809-5.5-.537 3.425 5.779 45.619 23.125 51.009a32.274 32.274 0 0 0 3.236.961z" class="cls-4" data-name="Path 559" transform="translate(-209.774 -1406.689)"/>
        </g>
    </g>
    <path id="Path_560" d="M258.02 1479.4c1.516-1.621 1.606-4.072 2.56-6.029.983-2.021 2.872-2.771 4.73-3.589a30.982 30.982 0 0 0 15.923-16.69c2.558-6.318 3.387-14.231 1.308-20.85a12.593 12.593 0 0 0-3.684-5.9 9.547 9.547 0 0 0-12.125.279c-3.422 2.909-4.91 8.073-4 12.672a8.791 8.791 0 0 0 1.116-1.406c.511-.941.722-2.01 1.152-2.992 1.946-4.434 7.869-4.589 10.973-1.531 6.285 6.193 1.939 18.546-2.643 24.268-3.868 4.831-8.615 8.031-13.571 11.366-2.986 2.01-6.84 5.261-7 9.438-.125 3.284 3.174 2.76 4.881 1.325a4.313 4.313 0 0 0 .38-.361z" class="cls-5" data-name="Path 560" transform="translate(-171.184 -1411.089)"/>
    <path id="Path_561" d="M260.831 1433.973c-17.421 0-31.542-2.411-31.542-5.384 0-.509.441-1 1.215-1.467-6.981.987-11.43 2.477-11.43 4.146 0 2.973 14.122 5.384 31.542 5.384 14.437 0 26.582-1.657 30.327-3.916a148.873 148.873 0 0 1-20.112 1.237z" class="cls-2" data-name="Path 561" transform="translate(-199.402 -1408.726)"/>
    <path id="Path_562" d="M261.958 1460.761l.478.441" class="cls-6" data-name="Path 562" transform="translate(-163.48 -1380.547)"/>
</svg>
