<svg xmlns="http://www.w3.org/2000/svg" id="Group_170" width="123.354" height="88.548" data-name="Group 170" viewBox="0 0 123.354 88.548">
    <defs>
        <style>
            .cls-1{fill:#d9c685}.cls-2{fill:#3b1008}.cls-3{fill:#fff}.cls-4{fill:#803a17}
        </style>
    </defs>
    <g id="Group_169" data-name="Group 169">
        <path id="Path_1452" d="M294.142 199.485a149.857 149.857 0 0 0 16.394.86 146.317 146.317 0 0 0 16.4-.86 59.6 59.6 0 0 0 8.082-1.376 21.737 21.737 0 0 0 3.888-1.231 8.89 8.89 0 0 0 1.393-.746 90.438 90.438 0 0 0 3.92-14.723 2.063 2.063 0 0 0-.21.193 4.757 4.757 0 0 1-.729.763 11.439 11.439 0 0 1-1.944 1.182 29.373 29.373 0 0 1-4.26 1.555 72.439 72.439 0 0 1-8.861 1.8 136.223 136.223 0 0 1-18 1.215 139.651 139.651 0 0 1-18.015-1.2c-2.461-.375-4.925-.827-7.353-1.428a98.251 98.251 0 0 0 1.911 12.783 62.37 62.37 0 0 0 7.384 1.213z" class="cls-1" data-name="Path 1452" transform="translate(-250.69 -152.361)"/>
        <path id="Path_1453" d="M336.71 192.216c-.081.064-.178.114-.276.18a9.77 9.77 0 0 1-1.248.923 21.248 21.248 0 0 1-3.563 1.6 53.261 53.261 0 0 1-7.582 1.862 98.418 98.418 0 0 1-31.038 0 58.171 58.171 0 0 1-6.413-1.505 28.938 28.938 0 0 0 9.458 14.352 27.291 27.291 0 0 0 2.771.73 46.145 46.145 0 0 0 9.931.906 45.213 45.213 0 0 0 9.931-.906c3.192-.713 6.48-1.784 8.7-4.052a45.653 45.653 0 0 0 8.359-11.89q.56-1.141 1.069-2.284a.472.472 0 0 0-.099.084z" class="cls-2" data-name="Path 1453" transform="translate(-249.228 -143.375)"/>
        <path id="Path_1454" d="M318.342 172.771v.064l.017-.129a.16.16 0 0 1-.017.065z" class="cls-3" data-name="Path 1454" transform="translate(-222.631 -159.649)"/>
        <path id="Path_1455" d="M285.142 191.6c2.494.5 5.022.843 7.549 1.1a164.325 164.325 0 0 0 17.868.842 164.022 164.022 0 0 0 17.851-.842 73.6 73.6 0 0 0 8.814-1.343 27.551 27.551 0 0 0 4.276-1.217 9.33 9.33 0 0 0 1.976-.989 2.6 2.6 0 0 0 1.2-1.424c.112-.583.228-1.167.323-1.766.713-4.262 1.165-8.569 1.457-12.9-.081.1-.176.21-.276.325a4.4 4.4 0 0 1-.937.956 10.079 10.079 0 0 1-2.075 1.165 34.139 34.139 0 0 1-4.471 1.571 86.325 86.325 0 0 1-9.3 1.783 148.711 148.711 0 0 1-37.679 0c-2.431-.358-4.861-.763-7.259-1.3a109.056 109.056 0 0 0 .683 14.039z" class="cls-3" data-name="Path 1455" transform="translate(-251.037 -159.347)"/>
        <path id="Path_1456" d="M317.247 181.527c.017-.1.033-.18.05-.261a1.9 1.9 0 0 1-.259.454 2.048 2.048 0 0 1 .209-.193z" class="cls-3" data-name="Path 1456" transform="translate(-223.723 -152.48)"/>
        <path id="Path_1457" d="M318.342 172.7v.081a.16.16 0 0 0 .017-.064.016.016 0 0 0-.017-.017z" class="cls-1" data-name="Path 1457" transform="translate(-222.631 -159.657)"/>
        <path id="Path_1458" d="M318 172.16a1.8 1.8 0 0 1 .373.972c0-.147.016-.307.016-.47a2.575 2.575 0 0 0-.389-.502z" class="cls-1" data-name="Path 1458" transform="translate(-222.919 -160.108)"/>
        <path id="Path_1459" d="M302.5 172.883c6.884.47 13.819.779 20.736.568a100.868 100.868 0 0 0 10.335-.924c.1-.017.209-.048.307-.064a33.825 33.825 0 0 0-3.385-.908 84.6 84.6 0 0 0-9.251-1.457c-5.686-.6-11.419-.875-17.155-.908-3.677.891-7.031 1.9-10.028 2.933 2.799.291 5.618.567 8.441.76z" class="cls-1" data-name="Path 1459" transform="translate(-242.974 -162.596)"/>
        <path id="Path_1460" d="M300.95 176.407c4.164.178 8.326.195 12.491.081q6.243-.1 12.472-.6a99.338 99.338 0 0 0 12.36-1.7l.05.228a51.484 51.484 0 0 1-12.246 3.3 96.949 96.949 0 0 1-12.588 1.119 94.455 94.455 0 0 1-12.617-.584 51.76 51.76 0 0 1-11.438-2.56 69.71 69.71 0 0 0-4.651 2.641c2.253.388 4.5.7 6.788.908a179.341 179.341 0 0 0 18.695.84 179.885 179.885 0 0 0 18.711-.84 84.851 84.851 0 0 0 9.249-1.329 32.847 32.847 0 0 0 4.5-1.2 10.821 10.821 0 0 0 2.089-.987 2.59 2.59 0 0 0 1.376-1.7v-.064a2.528 2.528 0 0 0-1.329-1.783 11.642 11.642 0 0 0-2.008-.989c-.469.1-.939.211-1.41.292-3.418.632-6.884 1.053-10.352 1.376-6.917.632-13.882.908-20.832.924-5.3.015-10.578-.114-15.859-.437a95.503 95.503 0 0 0-4.376 2.04 98.536 98.536 0 0 0 10.925 1.024z" class="cls-1" data-name="Path 1460" transform="translate(-250.743 -160.92)"/>
        <path id="Path_1461" d="M318.325 172.751a1.622 1.622 0 0 1-.292.908c.1-.116.195-.228.276-.325 0-.195.016-.388.016-.583z" class="cls-1" data-name="Path 1461" transform="translate(-222.889 -159.613)"/>
        <path id="Path_1462" d="M389.607 195.037a18.662 18.662 0 0 0-7.323-15.245 18.118 18.118 0 0 0-15.89-3.012c-.048-1.36-.1-2.722-.195-4.083a1.134 1.134 0 0 0 .211-.649v-.015a1.755 1.755 0 0 0-.73-1.272 5.676 5.676 0 0 0-1.15-.713 15.939 15.939 0 0 0-2.462-.948 48.7 48.7 0 0 0-5.1-1.2c-3.418-.63-6.884-1.044-10.352-1.369-6.932-.638-13.882-.908-20.832-.93-6.967-.017-13.915.21-20.865.809-3.466.316-6.933.706-10.368 1.321a44.592 44.592 0 0 0-5.118 1.174 16.084 16.084 0 0 0-2.512.939 6.781 6.781 0 0 0-1.2.746 1.964 1.964 0 0 0-.81 1.441 1.565 1.565 0 0 0 .421 1.038 131.264 131.264 0 0 0 .487 21.69c.421 3.692 1 7.371 1.781 11.015a53.256 53.256 0 0 0-9.153 3.306 27.214 27.214 0 0 0-9.216 6.689 12.861 12.861 0 0 0-2.738 5.427 10.868 10.868 0 0 0 .551 6.254 16.5 16.5 0 0 0 3.936 5.7c.114.178.21.373.323.549a31.576 31.576 0 0 0 5.719 6.417 50.97 50.97 0 0 0 14.889 8.52c10.739 4.1 22.289 5.493 33.629 5.509 11.339-.017 22.89-1.41 33.631-5.509a50.976 50.976 0 0 0 14.885-8.52 31.656 31.656 0 0 0 5.735-6.417 21.958 21.958 0 0 0 1.49-2.72c.162-.211.34-.39.5-.6a12.559 12.559 0 0 0 2.284-5.508 9.968 9.968 0 0 0-.939-5.831 17.1 17.1 0 0 0-6.075-6.48 18.742 18.742 0 0 0 4.262-2.22 19.234 19.234 0 0 0 8.294-15.303zm-43.089-27.426a95.942 95.942 0 0 1 10.335.93 47.023 47.023 0 0 1 5.054 1.093 14.974 14.974 0 0 1 2.4.877c.715.34 1.573.842 1.637 1.522-.064.713-.922 1.167-1.637 1.538-.081.033-.145.05-.224.081a9.732 9.732 0 0 0-2.06-1.279v-.34c0 .114-.015.226-.015.323a24.757 24.757 0 0 0-2.073-.825 51.012 51.012 0 0 0-4.765-1.329c-3.2-.68-6.445-1.141-9.7-1.54-4.359-.5-8.749-.728-13.139-.875 4.724-.218 9.454-.33 14.186-.176zm17.349 6.14c-.6.241-1.2.452-1.849.647 0-.551.017-1.086 0-1.635a8.679 8.679 0 0 1 1.849.988zm-58.577-3.3c2.154-.325 4.341-.623 6.529-.9 4.7-.252 9.394-.357 14.093-.357 6.5-.017 12.992.16 19.454.671 3.24.268 6.465.608 9.672 1.141a47.656 47.656 0 0 1 4.747 1.022 20.62 20.62 0 0 1 2.2.73c-.017.549-.05 1.1-.064 1.669h-.017a43.425 43.425 0 0 1-4.293.956 34.329 34.329 0 0 0-3.743-1.2 86.455 86.455 0 0 0-9.282-1.685 161.891 161.891 0 0 0-18.807-1.1 158.36 158.36 0 0 0-18.807 1.119c-1.476.176-2.964.4-4.423.663a188.69 188.69 0 0 1-6.546-1.15 135.518 135.518 0 0 1 9.286-1.576zm56.422 8.172a1.8 1.8 0 0 0-.373-.972 4.257 4.257 0 0 0-.906-.875 11.034 11.034 0 0 0-1.749-.972c1.084-.228 2.154-.469 3.223-.794a183.702 183.702 0 0 1-.178 3.142c-.001.167-.018.327-.018.474zm-17.189-5.523a84.6 84.6 0 0 1 9.251 1.457 33.818 33.818 0 0 1 3.385.908c-.1.017-.209.048-.307.064a100.864 100.864 0 0 1-10.335.924c-6.917.211-13.852-.1-20.736-.568-2.819-.193-5.638-.469-8.44-.761q-6.075-.631-12.051-1.54c-.34-.031-.68-.1-1.038-.145.939-.13 1.863-.243 2.788-.34a176.82 176.82 0 0 1 18.742-.923c.535 0 1.069.015 1.588.015 5.73.036 11.468.309 17.153.909zm-51.918 2.85a11.016 11.016 0 0 0-1.476.827 2.56 2.56 0 0 0-1.281 1.88 2.5 2.5 0 0 1 1.345-1.8 10.252 10.252 0 0 1 1.687-.858c.549.114 1.115.243 1.667.34 3.435.6 6.9 1.005 10.368 1.312 1.669.145 3.337.259 5.006.373 5.281.323 10.561.452 15.859.437 6.95-.017 13.915-.292 20.832-.924 3.468-.323 6.934-.744 10.352-1.376.47-.081.941-.195 1.409-.292a11.638 11.638 0 0 1 2.009.989 2.528 2.528 0 0 1 1.329 1.783v.064a2.59 2.59 0 0 1-1.376 1.7 10.823 10.823 0 0 1-2.09.987 32.842 32.842 0 0 1-4.5 1.2 84.849 84.849 0 0 1-9.249 1.329 179.873 179.873 0 0 1-18.711.84 179.327 179.327 0 0 1-18.695-.84 87.107 87.107 0 0 1-6.788-.908c-.825-.145-1.652-.259-2.477-.421a32.549 32.549 0 0 1-4.487-1.2 12.048 12.048 0 0 1-2.106-.987 2.453 2.453 0 0 1-1.378-1.749 2.6 2.6 0 0 0 1.246 1.944 10.038 10.038 0 0 0 2.075 1.165 34.332 34.332 0 0 0 4.471 1.571c.68.162 1.36.34 2.04.487 2.4.533 4.828.937 7.259 1.3a148.713 148.713 0 0 0 37.679 0 86.321 86.321 0 0 0 9.3-1.783 34.134 34.134 0 0 0 4.471-1.571 10.086 10.086 0 0 0 2.075-1.165 4.406 4.406 0 0 0 .937-.956 1.622 1.622 0 0 0 .292-.908c0 .195-.017.388-.017.583-.292 4.326-.744 8.633-1.457 12.9-.1.6-.211 1.183-.324 1.766a2.6 2.6 0 0 1-1.2 1.424 9.326 9.326 0 0 1-1.975.989 27.556 27.556 0 0 1-4.276 1.217 73.591 73.591 0 0 1-8.813 1.343 189.9 189.9 0 0 1-35.719 0c-2.527-.259-5.055-.6-7.549-1.1-.423-.081-.842-.162-1.262-.241a27.575 27.575 0 0 1-4.278-1.217 9.69 9.69 0 0 1-1.976-.989 2.689 2.689 0 0 1-1.2-1.408c-.1-.6-.226-1.183-.323-1.783a138.439 138.439 0 0 1-1.669-16.993 39.26 39.26 0 0 0 2.945.721zm51.8 52.583c-2.218 2.268-5.506 3.339-8.7 4.052a45.208 45.208 0 0 1-9.931.906 46.141 46.141 0 0 1-9.931-.906 27.3 27.3 0 0 1-2.771-.73 14.528 14.528 0 0 1-5.945-3.306 47.586 47.586 0 0 1-9.2-13.671 10.792 10.792 0 0 0 .957.663 20.828 20.828 0 0 0 3.58 1.6c.371.129.761.241 1.15.357a58.165 58.165 0 0 0 6.413 1.505 98.414 98.414 0 0 0 31.038 0 53.261 53.261 0 0 0 7.582-1.862 21.248 21.248 0 0 0 3.563-1.6 9.767 9.767 0 0 0 1.248-.923c.114-.1.228-.18.323-.276l.033-.033c.031-.033.064-.048.1-.081a47.89 47.89 0 0 1-1.15 2.413 45.654 45.654 0 0 1-8.355 11.895zm-44-29.807c2.428.6 4.892 1.053 7.353 1.428a139.654 139.654 0 0 0 18.015 1.2 136.221 136.221 0 0 0 18-1.215 72.441 72.441 0 0 0 8.861-1.8 29.364 29.364 0 0 0 4.26-1.555 11.43 11.43 0 0 0 1.944-1.182 4.759 4.759 0 0 0 .73-.763 1.9 1.9 0 0 0 .259-.454 6.934 6.934 0 0 0-.05.261 90.44 90.44 0 0 1-3.92 14.723 8.888 8.888 0 0 1-1.393.746 21.736 21.736 0 0 1-3.889 1.231 59.59 59.59 0 0 1-8.082 1.376 146.321 146.321 0 0 1-16.4.86 149.857 149.857 0 0 1-16.394-.86 62.384 62.384 0 0 1-7.386-1.215c-.244-.066-.47-.1-.7-.162a23.086 23.086 0 0 1-3.887-1.231 8.33 8.33 0 0 1-1.766-.989 3.658 3.658 0 0 1-.568-.551 92.265 92.265 0 0 1-3.677-14.191 3.41 3.41 0 0 0 .972 1.216 11.088 11.088 0 0 0 1.961 1.182 29.876 29.876 0 0 0 4.26 1.571c.501.134 1.002.248 1.506.376zm-4.585 10.58a8.369 8.369 0 0 0 1.733 1.182 23.674 23.674 0 0 0 3.872 1.6c.323.1.647.18.989.276l.972 4.229c-.244-.064-.472-.114-.713-.178a18.894 18.894 0 0 1-3.6-1.248 7.17 7.17 0 0 1-1.428-.875c-.388-.858-.761-1.733-1.116-2.608s-.665-1.768-.972-2.657a1.93 1.93 0 0 0 .272.281zm-10.352-36.061a2.771 2.771 0 0 0 .242.228 6.462 6.462 0 0 0 1.2.744 16.27 16.27 0 0 0 2.512.939c.031.017.064.017.079.033 0 12.489 1.476 25.11 5.914 36.936a49.448 49.448 0 0 0 10.692 17.4 13.384 13.384 0 0 0 4.44 2.949 26.406 26.406 0 0 0 4.973 1.571 51.974 51.974 0 0 0 20.492 0 26.09 26.09 0 0 0 4.974-1.571 13.2 13.2 0 0 0 4.421-2.933 49.4 49.4 0 0 0 10.708-17.414c4.017-10.693 5.588-22.032 5.847-33.339v-.145a135.6 135.6 0 0 0 .064-3.663c0-.017.016-.017.033-.017a16.479 16.479 0 0 0 2.462-.939 5.675 5.675 0 0 0 1.15-.73 3.019 3.019 0 0 0 .437-.452 183.928 183.928 0 0 1-2.657 21.595 106.441 106.441 0 0 1-6.154 21.383c-2.885 6.77-6.61 13.185-11.761 18.208-2.156 2.139-5.574 3.337-9.008 4.083a60.093 60.093 0 0 1-21.53 0c-3.433-.746-6.851-1.944-8.988-4.083-5.169-5.022-8.878-11.438-11.761-18.208a106.324 106.324 0 0 1-6.156-21.383 180.927 180.927 0 0 1-2.616-21.19zM368.9 184.1a10.076 10.076 0 0 1 8.731 3.063 9.391 9.391 0 0 1 2.156 9.232 10.8 10.8 0 0 1-6.48 6.674 11.138 11.138 0 0 1-8.716-.632c.47-2.558.843-5.1 1.136-7.678.1-.941.145-1.863.224-2.819a.874.874 0 0 0 .325-.145 3.8 3.8 0 0 0 1-.891 7.639 7.639 0 0 0 1.347-2.27 6.688 6.688 0 0 0 .277-4.534zm-16.2 53.491a5.281 5.281 0 0 1 .632 3.42 120.858 120.858 0 0 1-13.156 1.944c-2.881.274-5.8.436-8.714.533a48.262 48.262 0 0 0 6.042-.908 32.221 32.221 0 0 0 5.8-1.845 16.029 16.029 0 0 0 5.379-3.6c.5-.537.989-1.086 1.457-1.637.259.13.535.244.777.39a4.974 4.974 0 0 1 1.783 1.704zm-33.1 5.849c-.388-.017-.777-.017-1.182-.033a130.692 130.692 0 0 1-19.294-2.3 5.663 5.663 0 0 1 .485-3.271 5.12 5.12 0 0 1 2.123-1.944c.357.4.729.843 1.117 1.248a16.129 16.129 0 0 0 5.379 3.6 32.644 32.644 0 0 0 5.8 1.845 47.146 47.146 0 0 0 5.58.856zm-49.748-17.19a7.971 7.971 0 0 1-.713-4.583 10.267 10.267 0 0 1 1.911-4.488 26.238 26.238 0 0 1 8-6.95 62.09 62.09 0 0 1 8.569-4.276 85.613 85.613 0 0 0 3.223 11.2 59.263 59.263 0 0 0 8.44 15.793 7.083 7.083 0 0 0-.68.877 7.521 7.521 0 0 0-1.248 3.433 6.918 6.918 0 0 0 .551 3.354c.048.1.112.178.162.29-.39-.1-.794-.145-1.167-.224-7.047-1.523-14.012-3.76-20.021-7.373-2.935-1.834-5.658-4.152-7.018-7.052zm103.012 12.36a53.45 53.45 0 0 1-14.725 7.161 87.581 87.581 0 0 1-16.087 3.5 117.1 117.1 0 0 1-16.522.989 119.813 119.813 0 0 1-16.524-.972 90.658 90.658 0 0 1-16.085-3.5 53.985 53.985 0 0 1-14.725-7.178c-.406-.29-.81-.6-1.2-.906a52.15 52.15 0 0 0 8.084 3.9 86.036 86.036 0 0 0 10.822 3.37 125.229 125.229 0 0 0 22.289 3.095c14.953.6 30.116-.7 44.435-5.574A59.876 59.876 0 0 0 373 237.851a41.226 41.226 0 0 0 3.922-2.639 35.1 35.1 0 0 1-4.049 3.4zm9.054-19.066a8.692 8.692 0 0 1 .357 5.006 10.455 10.455 0 0 1-2.316 4.44 25.858 25.858 0 0 1-8.424 6.188 61.854 61.854 0 0 1-10.026 3.855c-2.365.68-4.765 1.246-7.178 1.766.05-.129.13-.244.195-.373a6.84 6.84 0 0 0 .406-3.563 7.944 7.944 0 0 0-1.573-3.484 7.743 7.743 0 0 0-.777-.873 59.459 59.459 0 0 0 8.1-15.358c.031-.1.064-.178.1-.276.048-.017.1-.017.129-.033a6.256 6.256 0 0 0 1.216-.373 6.85 6.85 0 0 0 2.056-1.376 7.6 7.6 0 0 0 1.343-1.8c.017-.017.017-.033.033-.033a20.058 20.058 0 0 0 11.145-.583 17.4 17.4 0 0 1 5.223 6.872zM365.1 208.692l-1.652-.713c.357-1.538.7-3.078.987-4.633a10.145 10.145 0 0 0 3.482 2.139 11.4 11.4 0 0 0 6.173.34 11.209 11.209 0 0 0 5.524-3.095 11.417 11.417 0 0 0 3-5.59 12.174 12.174 0 0 0-3.5-11.452 11.514 11.514 0 0 0-11.243-2.672l-.6.195.163.549v.017l.033.114.031.048a5.28 5.28 0 0 1 .4 4.456 7.426 7.426 0 0 1-1.036 2.185 3.722 3.722 0 0 1-.809.86c-.017 0-.033.017-.048.031a130.98 130.98 0 0 0 .388-14.676 17.59 17.59 0 0 1 15.21 3.822 17.037 17.037 0 0 1 5.864 14.321 16.488 16.488 0 0 1-7.906 12.733 15.992 15.992 0 0 1-14.461 1.021z" class="cls-4" data-name="Path 1462" transform="translate(-266.259 -165.602)"/>
        <path id="Path_1463" d="M311.789 177.472a96.943 96.943 0 0 0 12.588-1.119 51.485 51.485 0 0 0 12.246-3.3l-.05-.228a99.339 99.339 0 0 1-12.36 1.7q-6.219.51-12.472.6c-4.164.114-8.326.1-12.491-.081a98.538 98.538 0 0 1-10.919-1.022c-.485-.079-.987-.129-1.489-.226l-.033.226c.309.114.616.211.924.309a51.763 51.763 0 0 0 11.438 2.56 94.46 94.46 0 0 0 12.618.581z" class="cls-4" data-name="Path 1463" transform="translate(-249.044 -159.554)"/>
    </g>
</svg>
