<svg xmlns="http://www.w3.org/2000/svg" id="Group_60" width="113.352" height="100.698" data-name="Group 60" viewBox="0 0 113.352 100.698">
    <defs>
        <style>
            .cls-1{fill:#803a17}.cls-2{fill:#c29968}.cls-3{fill:#c35e1f}.cls-4{fill:#791b0a}.cls-5,.cls-6{fill:none}.cls-5{stroke:#803a17;stroke-miterlimit:10;stroke-width:1.408px}
        </style>
    </defs>
    <path id="Path_575" d="M515.549 1461.585a10.5 10.5 0 0 0-.937-1.442 15.009 15.009 0 0 0-9.672-5.263c-.109-.009-.061.219-.035.259.048.073.483.083.584.116.432.14.871.3 1.31.436a14.945 14.945 0 0 1 2.714 1.185 10.882 10.882 0 0 1 5.015 5.107 6.361 6.361 0 0 1 .3 3.942 7.988 7.988 0 0 1-1.97 3.492 22.112 22.112 0 0 1-7.172 4.875 56.263 56.263 0 0 1-8.532 3.043c-2.014.537-4.056.983-6.11 1.391-.208.044-.623.123-.854.165a109.744 109.744 0 0 1-11.2 1.525c-2.453.21-4.936.345-7.417.426-1.152 0-9.115-.026-10.093-.037-.331-.013-.676-.013-1.007-.031a117.717 117.717 0 0 1-16.423-1.819 37.98 37.98 0 0 0-.9-.16c-.329-.064-.674-.116-1.005-.185a58.8 58.8 0 0 1-17.028-5.793c-2.51-1.443-4.826-3.267-5.985-5.552a5.877 5.877 0 0 1-.606-3.613 7.892 7.892 0 0 1 1.626-3.547 22.052 22.052 0 0 1 6.812-5.469 54.5 54.5 0 0 1 6.97-3.227l-.04-.193a47.476 47.476 0 0 0-7.454 2.52 23.193 23.193 0 0 0-7.845 5.271 9.815 9.815 0 0 0-2.332 4.269 8.087 8.087 0 0 0 .456 4.927 13.2 13.2 0 0 0 3.365 4.494 3.82 3.82 0 0 0 .276.433 24.694 24.694 0 0 0 4.868 5.046 44.278 44.278 0 0 0 12.671 6.72c9.141 3.229 18.972 4.324 28.625 4.345 9.651-.013 19.483-1.11 28.625-4.339a44.276 44.276 0 0 0 12.671-6.72 24.9 24.9 0 0 0 4.866-5.052 17.129 17.129 0 0 0 1.283-2.139c.138-.173.29-.312.426-.478a9.588 9.588 0 0 0 1.944-4.344 7.309 7.309 0 0 0-.79-4.584zM506.822 1477a47.38 47.38 0 0 1-12.535 5.647 81.543 81.543 0 0 1-13.687 2.753 109.99 109.99 0 0 1-14.064.772 111.458 111.458 0 0 1-14.065-.764 81.172 81.172 0 0 1-13.691-2.758 47.182 47.182 0 0 1-12.538-5.65 21.578 21.578 0 0 1-1.02-.709 46.748 46.748 0 0 0 6.88 3.076 79.292 79.292 0 0 0 9.21 2.656 115.467 115.467 0 0 0 18.972 2.437c12.728.472 25.634-.549 37.823-4.4a53.8 53.8 0 0 0 8.824-3.657 35.84 35.84 0 0 0 3.337-2.087 28.65 28.65 0 0 1-3.446 2.684z" class="cls-1" data-name="Path 575" transform="translate(-416.076 -1388.542)"/>
    <g id="Group_59" data-name="Group 59" transform="translate(7.422)">
        <g id="Group_58" data-name="Group 58">
            <path id="Path_576" d="M462.894 1428.548a2.814 2.814 0 0 1 .235.274 1.761 1.761 0 0 0-.235-.274z" class="cls-2" data-name="Path 576" transform="translate(-384.281 -1407.531)"/>
            <path id="Path_577" d="M463.221 1429.019a1.818 1.818 0 0 0-.134-.228 1.818 1.818 0 0 1 .134.228z" class="cls-2" data-name="Path 577" transform="translate(-384.119 -1407.328)"/>
            <path id="Path_578" d="M433.487 1437.7c2.411.454 4.822.82 7.268 1.073a201.065 201.065 0 0 0 38.405 0 79.577 79.577 0 0 0 9.5-1.494 31.849 31.849 0 0 0 4.622-1.327 11.754 11.754 0 0 0 2.143-1.1 2.829 2.829 0 0 0 1.365-1.768 4.615 4.615 0 0 0-.017-.481c-.033-.072-.033-.164-.068-.237 0-.037-.017-.063-.017-.1a3.479 3.479 0 0 0-1.231-1.358 10.72 10.72 0 0 0-2.143-1.147 30 30 0 0 0-4.622-1.43 94.231 94.231 0 0 0-12.1-2.361c-1.707-.18-3.368-.094-5.061-.268a90.229 90.229 0 0 0-5.807-.417q-1.982-.074-3.962-.081c-4.613-.015-9.2.2-13.808.413-.934.048-1.867.042-2.8.134-.965.094-1.93.192-2.9.268q-1.508.118-3.008.324a54.989 54.989 0 0 0-11.438 2.824c-.41.149-.823.274-1.233.408a15.5 15.5 0 0 0-2.644 1.779 2.246 2.246 0 0 0-.676 1.529c.011.878.9 1.516 1.579 1.942a14.608 14.608 0 0 0 2.916 1.325 38.255 38.255 0 0 0 5.737 1.55z" class="cls-3" data-name="Path 578" transform="translate(-417.48 -1410.336)"/>
            <path id="Path_579" d="M463.276 1429.6a.328.328 0 0 1-.033.173.065.065 0 0 0 .015-.037.4.4 0 0 0 .018-.136z" class="cls-2" data-name="Path 579" transform="translate(-383.988 -1406.651)"/>
            <path id="Path_580" d="M505.475 1429.544c-.175.046-.351.079-.524.132-.05-1.529-.1-3.058-.2-4.587a1.582 1.582 0 0 0 .221-.757 1.962 1.962 0 0 0-.761-1.419 5.875 5.875 0 0 0-1.2-.812 15.091 15.091 0 0 0-2.564-1.055 43.749 43.749 0 0 0-5.315-1.349c-3.574-.709-7.167-1.183-10.776-1.547-7.218-.72-14.455-1.011-21.69-1.038-7.253-.019-14.488.227-21.725.91-3.607.347-7.217.791-10.794 1.477a48.749 48.749 0 0 0-5.344 1.319 16.019 16.019 0 0 0-2.6 1.066 6.753 6.753 0 0 0-1.25.836 2.234 2.234 0 0 0-.842 1.612 1.837 1.837 0 0 0 .439 1.174 158.986 158.986 0 0 0 .505 24.384c.439 4.144 1.029 8.279 1.854 12.375a.732.732 0 0 0 .035.209 101.85 101.85 0 0 0 3.356 12.584 68.215 68.215 0 0 0 8.788 17.746c.125.228 2.266 3.1 2.545 3.315.371.464.761.947 1.165 1.393a16.835 16.835 0 0 0 5.6 4.061 32.2 32.2 0 0 0 6.039 2.067 42.09 42.09 0 0 0 2.36.473 67.54 67.54 0 0 0 9.277.639c2.095-.04 4.467.029 6.61-.1a48.328 48.328 0 0 0 6.193-1.015c.259-.062.518-.154.776-.222a30.139 30.139 0 0 1 3.26-1.046c.671-.252 1.343-.489 2-.8a16.855 16.855 0 0 0 5.6-4.052c.522-.6 1.029-1.22 1.518-1.83.239-.274 2.417-3.148 2.547-3.38a63.644 63.644 0 0 0 5.25-9.236 77.445 77.445 0 0 0 4.218-10.256c.632-2.1 1.125-4.243 1.571-6.4a153.573 153.573 0 0 0 2.812-18.452c.246-2.986.4-5.993.495-8.99.026-.794-.068-9.268.024-9.286a2.162 2.162 0 0 0 .527-.143zm-21.218-10.183a96.944 96.944 0 0 1 10.76 1.048 45.455 45.455 0 0 1 5.263 1.229 15.721 15.721 0 0 1 2.5.983c.742.392 1.637.947 1.705 1.7-.068.812-.963 1.33-1.705 1.731-.085.046-.167.072-.252.11a9.468 9.468 0 0 0-2.126-1.45v-.382c0 .129-.015.255-.015.373a23.256 23.256 0 0 0-2.159-.928 50.925 50.925 0 0 0-4.96-1.5c-3.339-.757-6.713-1.275-10.1-1.722-4.537-.573-9.109-.827-13.68-.983 4.919-.254 9.844-.383 14.769-.208zm18.064 6.9a18.739 18.739 0 0 1-1.924.73v-1.829a9.3 9.3 0 0 1 1.924 1.1zm-60.988-3.7a263.34 263.34 0 0 1 6.8-1q7.335-.422 14.674-.41c6.746-.017 13.525.182 20.255.765 3.374.292 6.731.674 10.069 1.275a48.673 48.673 0 0 1 4.943 1.147 20.248 20.248 0 0 1 2.293.821c-.016.619-.051 1.248-.066 1.876-.018 0-.018 0-.018.007a46.751 46.751 0 0 1-5.263 1.23 96.59 96.59 0 0 1-10.76 1.045 205.424 205.424 0 0 1-21.589-.645c-7.185-.539-14.319-1.448-21.335-2.576-3.271-.456-6.527-1.085-9.666-1.759a128.336 128.336 0 0 1 9.663-1.78zm-11.184 6.621c3.578.682 7.187 1.127 10.794 1.483 7.237.674 14.472.92 21.725.91 7.235-.035 14.472-.327 21.69-1.045 3.609-.366 7.218-.838 10.776-1.54a48.437 48.437 0 0 0 5.146-1.3q-.254 5.982-.827 11.928c0-.013-.009-.022-.011-.035l.011.051a.746.746 0 0 0-.015.184.049.049 0 0 0-.018.044 2.827 2.827 0 0 1-1.365 1.768 11.684 11.684 0 0 1-2.143 1.1 31.857 31.857 0 0 1-4.622 1.327 79.578 79.578 0 0 1-9.5 1.494 201.146 201.146 0 0 1-38.405 0 88.255 88.255 0 0 1-7.268-1.074c-.743-.136-1.5-.255-2.244-.421a29.947 29.947 0 0 1-4.6-1.336 10.678 10.678 0 0 1-2.159-1.093 3.779 3.779 0 0 1-1.163-1.174 36.56 36.56 0 0 0-.136-1.292 2.111 2.111 0 0 1 .2-.4 2.2 2.2 0 0 0-.2.323c-.371-3.7-.608-7.43-.759-11.162a48.954 48.954 0 0 0 5.093 1.257zm-2.529 18.594a10.561 10.561 0 0 0 2.075 1.31 30.717 30.717 0 0 0 4.521 1.738 61.57 61.57 0 0 0 1.988.537c2.446.612 4.927 1.077 7.4 1.468a136.625 136.625 0 0 0 38.119 0 75.058 75.058 0 0 0 9.394-2.005 30.018 30.018 0 0 0 4.521-1.738 11.193 11.193 0 0 0 2.091-1.31 4.593 4.593 0 0 0 .81-.875.354.354 0 0 1-.018.136 109.068 109.068 0 0 1-5.412 21.889c-2.631 6.976-6.14 13.641-11.048 18.941-2.328 2.549-5.735 3.75-9.058 4.552a52.521 52.521 0 0 1-20.694 0 32.379 32.379 0 0 1-3.238-.956 14.06 14.06 0 0 1-5.82-3.6c-4.925-5.309-8.416-11.965-11.03-18.941a108.01 108.01 0 0 1-5.432-21.889c0-.064-.017-.118-.017-.175a4.16 4.16 0 0 0 .848.914zm-.895-1.213a138.411 138.411 0 0 1-.742-5.88 4.052 4.052 0 0 0 1 1.165 11.24 11.24 0 0 0 2.124 1.3 31.088 31.088 0 0 0 4.6 1.75c.726.2 1.452.391 2.176.562l.287 4.874c-.59-.12-1.18-.211-1.771-.338a30.233 30.233 0 0 1-4.537-1.338 11.717 11.717 0 0 1-2.106-1.093 4.1 4.1 0 0 1-1.031-1.006zm75.173 2.96a128.93 128.93 0 0 1-6.408 24.048c-3 7.6-6.882 14.832-12.244 20.459-2.244 2.413-5.8 3.762-9.379 4.6a49.188 49.188 0 0 1-11.215 1.084 49.707 49.707 0 0 1-11.2-1.093c-3.574-.827-7.15-2.185-9.359-4.589-5.381-5.645-9.243-12.856-12.244-20.468a127.308 127.308 0 0 1-6.426-24.05 222.138 222.138 0 0 1-2.723-23.814c.085.092.167.18.252.263a6.623 6.623 0 0 0 1.25.83 16.864 16.864 0 0 0 2.6 1.064l.1.028c0 14.04 1.534 28.227 6.156 41.53a56.284 56.284 0 0 0 11.133 19.558 14.011 14.011 0 0 0 4.622 3.315 26.222 26.222 0 0 0 5.177 1.757 50.187 50.187 0 0 0 21.335 0 26.881 26.881 0 0 0 5.18-1.757 13.856 13.856 0 0 0 4.6-3.306 56.3 56.3 0 0 0 11.149-19.567c4.655-13.377 6.173-27.654 6.138-41.767a.1.1 0 0 1 .051-.009 15.909 15.909 0 0 0 2.564-1.066 5.516 5.516 0 0 0 1.2-.81 2.658 2.658 0 0 0 .439-.511 222.44 222.44 0 0 1-2.746 24.268z" class="cls-1" data-name="Path 580" transform="translate(-420.115 -1417.112)"/>
            <path id="Path_581" d="M496.508 1432.2a1.856 1.856 0 0 0-.134-.228.836.836 0 0 0-.119-.174 2.975 2.975 0 0 0-.235-.272 5.259 5.259 0 0 0-.575-.536 10.951 10.951 0 0 0-2.124-1.257 32.321 32.321 0 0 0-4.6-1.648q-1.1-.292-2.2-.538l-.07-.015c-.748-.167-1.5-.3-2.247-.473q-.573-.113-1.149-.211l-.575-.1c-.162-.026-.318-.07-.48-.1s-.34-.057-.511-.084a93.091 93.091 0 0 0-2.3-.352 152.48 152.48 0 0 0-38.624 0l-.7.1c-.748.112-1.494.236-2.238.364s-1.468.25-2.2.391-1.472.3-2.205.469-1.461.347-2.183.548a29.618 29.618 0 0 0-4.589 1.639 11.192 11.192 0 0 0-2.141 1.257 4.327 4.327 0 0 0-.956 1.092 4.083 4.083 0 0 1 1.022-1 10.716 10.716 0 0 1 2.143-1.147 30.576 30.576 0 0 1 4.622-1.43 77.258 77.258 0 0 1 6.551-1.236 38.989 38.989 0 0 1 6.2-.7q1.442-.135 2.885-.243c.336-.059.737-.121 1.283-.185a10.864 10.864 0 0 1 1.878-.027q4.918-.265 9.844-.242h.1c4.89 0 9.778.194 14.659.485a55.208 55.208 0 0 1 6.959.669c2.383.448 4.76.925 7.121 1.485a29.945 29.945 0 0 1 4.622 1.43 10.718 10.718 0 0 1 2.143 1.147 3.558 3.558 0 0 1 1.176 1.279c-.029-.048-.027-.106-.053-.157z" class="cls-1" data-name="Path 581" transform="translate(-417.406 -1410.511)"/>
            <path id="Path_582" d="M463.243 1429.772a.328.328 0 0 0 .033-.173.327.327 0 0 1-.018.126.085.085 0 0 1-.015.047z" class="cls-1" data-name="Path 582" transform="translate(-383.988 -1406.651)"/>
            <path id="Path_583" d="M449.652 1481.519a46.384 46.384 0 0 0 10.339 1.029 45.907 45.907 0 0 0 10.357-1.029c3.322-.8 6.728-2 9.056-4.552 4.908-5.3 8.416-11.965 11.048-18.941a109.231 109.231 0 0 0 5.414-21.889.393.393 0 0 0 .016-.137c-.219.329.708-6.323.421-6.077a23.576 23.576 0 0 1-3.05 1.907 16.058 16.058 0 0 1-3.315 1.233c-3.085.9-5.835.887-9 1.389a118.61 118.61 0 0 1-17.6 1.128c-6.36-.083-11.858-.092-18.233-.531-16.5-1.134-20.459-2.969-21.809-5.5-.537 3.425 5.779 45.619 23.123 51.009a32.421 32.421 0 0 0 3.233.961z" class="cls-4" data-name="Path 583" transform="translate(-417.48 -1406.689)"/>
        </g>
    </g>
    <path id="Path_584" d="M465.728 1479.4c1.516-1.621 1.606-4.072 2.558-6.029.985-2.021 2.874-2.771 4.732-3.589a30.982 30.982 0 0 0 15.923-16.69c2.558-6.318 3.385-14.231 1.306-20.85a12.564 12.564 0 0 0-3.685-5.9 9.544 9.544 0 0 0-12.123.279c-3.422 2.909-4.91 8.073-4 12.672a8.789 8.789 0 0 0 1.116-1.406c.511-.941.722-2.01 1.152-2.992 1.946-4.434 7.867-4.589 10.971-1.531 6.287 6.193 1.939 18.546-2.643 24.268-3.867 4.831-8.613 8.031-13.569 11.366-2.986 2.01-6.84 5.261-7 9.438-.123 3.284 3.176 2.76 4.881 1.325a4.619 4.619 0 0 0 .381-.361z" class="cls-5" data-name="Path 584" transform="translate(-378.891 -1411.089)"/>
    <path id="Path_585" d="M468.536 1433.973c-17.419 0-31.542-2.411-31.542-5.384 0-.509.443-1 1.217-1.467-6.981.987-11.43 2.477-11.43 4.146 0 2.973 14.122 5.384 31.542 5.384 14.437 0 26.58-1.657 30.325-3.916a148.871 148.871 0 0 1-20.112 1.237z" class="cls-2" data-name="Path 585" transform="translate(-407.109 -1408.726)"/>
    <path id="Path_586" d="M469.665 1460.761l.476.441" class="cls-6" data-name="Path 586" transform="translate(-371.186 -1380.547)"/>
</svg>
