<svg xmlns="http://www.w3.org/2000/svg" id="Group_63" width="113.35" height="100.698" data-name="Group 63" viewBox="0 0 113.35 100.698">
    <defs>
        <style>
            .cls-1{fill:#803a17}.cls-2{fill:#c29968}.cls-3{fill:#c35e1f}.cls-4{fill:#791b0a}.cls-5,.cls-6{fill:none}.cls-5{stroke:#803a17;stroke-miterlimit:10;stroke-width:1.408px}
        </style>
    </defs>
    <path id="Path_587" d="M256.8 1561.131a10.479 10.479 0 0 0-.939-1.444 15 15 0 0 0-9.672-5.262c-.107-.011-.061.217-.035.258.048.075.483.084.584.115.432.141.871.3 1.31.437a14.815 14.815 0 0 1 2.714 1.183 10.889 10.889 0 0 1 5.015 5.107 6.367 6.367 0 0 1 .3 3.944 7.986 7.986 0 0 1-1.97 3.49 22.106 22.106 0 0 1-7.171 4.875 56.019 56.019 0 0 1-8.534 3.043c-2.014.536-4.056.983-6.11 1.391-.206.046-.623.125-.855.166a109.233 109.233 0 0 1-11.2 1.526c-2.455.211-4.936.345-7.419.428-1.15 0-9.115-.026-10.092-.039-.331-.013-.676-.013-1.007-.032a117.69 117.69 0 0 1-16.421-1.819c-.259-.051-.759-.134-.9-.158-.331-.064-.676-.116-1.007-.186a58.89 58.89 0 0 1-17.028-5.794c-2.508-1.443-4.826-3.267-5.983-5.552a5.877 5.877 0 0 1-.608-3.611 7.9 7.9 0 0 1 1.626-3.549 22.034 22.034 0 0 1 6.814-5.467 54.384 54.384 0 0 1 6.968-3.229l-.04-.191a47.1 47.1 0 0 0-7.454 2.52 23.143 23.143 0 0 0-7.845 5.27 9.816 9.816 0 0 0-2.33 4.269 8.056 8.056 0 0 0 .456 4.925 13.15 13.15 0 0 0 3.363 4.493 4.023 4.023 0 0 0 .276.433 24.706 24.706 0 0 0 4.868 5.047 44.251 44.251 0 0 0 12.673 6.72c9.141 3.229 18.972 4.326 28.623 4.344 9.651-.013 19.483-1.108 28.625-4.337a44.324 44.324 0 0 0 12.671-6.72 24.922 24.922 0 0 0 4.866-5.054 17.13 17.13 0 0 0 1.285-2.137c.136-.173.289-.312.426-.479a9.631 9.631 0 0 0 1.944-4.344 7.315 7.315 0 0 0-.787-4.58zm-8.729 15.409a47.375 47.375 0 0 1-12.533 5.647 81.46 81.46 0 0 1-13.692 2.758 109.927 109.927 0 0 1-14.064.77 111.058 111.058 0 0 1-14.064-.764 81.284 81.284 0 0 1-13.692-2.757 47.182 47.182 0 0 1-12.533-5.655 22.122 22.122 0 0 1-1.022-.707 46.765 46.765 0 0 0 6.88 3.076 79.5 79.5 0 0 0 9.212 2.653A115.233 115.233 0 0 0 201.54 1584c12.726.472 25.634-.548 37.821-4.4a53.558 53.558 0 0 0 8.824-3.657 35.336 35.336 0 0 0 3.337-2.086 28.618 28.618 0 0 1-3.447 2.683z" class="cls-1" data-name="Path 587" transform="translate(-157.33 -1488.086)"/>
    <g id="Group_62" data-name="Group 62" transform="translate(7.422)">
        <g id="Group_61" data-name="Group 61">
            <path id="Path_588" d="M204.148 1528.094a2.144 2.144 0 0 1 .235.272 1.558 1.558 0 0 0-.235-.272z" class="cls-2" data-name="Path 588" transform="translate(-125.534 -1507.075)"/>
            <path id="Path_589" d="M204.475 1528.564a1.713 1.713 0 0 0-.134-.228 1.713 1.713 0 0 1 .134.228z" class="cls-2" data-name="Path 589" transform="translate(-125.373 -1506.873)"/>
            <path id="Path_590" d="M174.741 1537.244c2.411.456 4.824.822 7.268 1.075a170.837 170.837 0 0 0 19.2.919 171.254 171.254 0 0 0 19.209-.919 80.54 80.54 0 0 0 9.5-1.494 32.022 32.022 0 0 0 4.622-1.329 11.545 11.545 0 0 0 2.141-1.1 2.824 2.824 0 0 0 1.365-1.768 4.581 4.581 0 0 0-.017-.48c-.033-.073-.033-.165-.068-.237 0-.038-.017-.064-.017-.1a3.458 3.458 0 0 0-1.231-1.358 10.764 10.764 0 0 0-2.143-1.147 29.966 29.966 0 0 0-4.622-1.428 93.792 93.792 0 0 0-12.1-2.361c-1.705-.18-3.368-.1-5.059-.27a88.772 88.772 0 0 0-5.809-.415q-1.979-.077-3.962-.081c-4.611-.014-9.2.2-13.808.412-.932.048-1.867.044-2.8.134-.965.094-1.93.193-2.9.268q-1.508.121-3.008.323a55.056 55.056 0 0 0-11.438 2.824c-.408.149-.823.276-1.231.408a15.544 15.544 0 0 0-2.644 1.779 2.244 2.244 0 0 0-.678 1.531c.011.876.9 1.516 1.579 1.942a14.555 14.555 0 0 0 2.918 1.323 38.239 38.239 0 0 0 5.733 1.549z" class="cls-3" data-name="Path 590" transform="translate(-158.735 -1509.879)"/>
            <path id="Path_591" d="M204.53 1529.144a.327.327 0 0 1-.033.173.06.06 0 0 0 .017-.037.439.439 0 0 0 .016-.136z" class="cls-2" data-name="Path 591" transform="translate(-125.242 -1506.196)"/>
            <path id="Path_592" d="M246.729 1529.089c-.173.048-.351.081-.522.134-.051-1.529-.1-3.058-.2-4.587a1.581 1.581 0 0 0 .219-.757 1.968 1.968 0 0 0-.759-1.421 5.9 5.9 0 0 0-1.2-.81 14.98 14.98 0 0 0-2.562-1.055 43.547 43.547 0 0 0-5.315-1.349c-3.576-.711-7.169-1.185-10.778-1.547-7.217-.72-14.453-1.011-21.688-1.04-7.255-.018-14.49.228-21.725.912-3.609.346-7.218.792-10.794 1.476a48.3 48.3 0 0 0-5.346 1.321 15.984 15.984 0 0 0-2.6 1.064 6.649 6.649 0 0 0-1.248.838 2.238 2.238 0 0 0-.844 1.612 1.84 1.84 0 0 0 .439 1.174 159.244 159.244 0 0 0 .505 24.385c.439 4.144 1.029 8.278 1.856 12.375a.746.746 0 0 0 .033.209 101.9 101.9 0 0 0 3.356 12.583 68.284 68.284 0 0 0 8.788 17.748c.125.226 2.268 3.1 2.547 3.313.371.465.759.946 1.163 1.393a16.783 16.783 0 0 0 5.6 4.061 32.237 32.237 0 0 0 6.04 2.069c.783.184 1.569.331 2.358.47a67.194 67.194 0 0 0 9.277.64c2.1-.04 4.467.03 6.61-.1a48.926 48.926 0 0 0 6.193-1.014c.259-.065.518-.155.777-.224a30.076 30.076 0 0 1 3.258-1.046c.671-.252 1.343-.489 2-.8a16.794 16.794 0 0 0 5.6-4.052c.524-.6 1.029-1.22 1.518-1.828.239-.275 2.417-3.15 2.547-3.38a63.7 63.7 0 0 0 5.25-9.236 77.293 77.293 0 0 0 4.217-10.258c.632-2.1 1.126-4.243 1.571-6.4a153.61 153.61 0 0 0 2.812-18.452c.246-2.986.4-5.993.5-8.99.024-.794-.068-9.268.024-9.286a2.182 2.182 0 0 0 .523-.145zm-21.216-10.183a97.405 97.405 0 0 1 10.76 1.05 45.213 45.213 0 0 1 5.261 1.228 15.847 15.847 0 0 1 2.5.983c.742.391 1.636.948 1.7 1.7-.068.812-.961 1.33-1.7 1.731-.086.046-.169.073-.254.11a9.411 9.411 0 0 0-2.126-1.448v-.382c0 .128-.015.253-.015.371a23.182 23.182 0 0 0-2.159-.927 51.176 51.176 0 0 0-4.96-1.5c-3.339-.757-6.711-1.276-10.1-1.72-4.537-.575-9.109-.829-13.68-.983 4.921-.256 9.846-.385 14.773-.212zm18.062 6.9a19.473 19.473 0 0 1-1.924.73v-1.831a9.23 9.23 0 0 1 1.924 1.104zm-60.988-3.707c2.244-.362 4.521-.691 6.8-1 4.892-.283 9.782-.411 14.674-.411 6.746-.017 13.527.184 20.255.764 3.374.294 6.731.677 10.07 1.277a48.25 48.25 0 0 1 4.941 1.147 20.035 20.035 0 0 1 2.3.819c-.018.62-.053 1.248-.068 1.876-.018 0-.018 0-.018.008a47.285 47.285 0 0 1-5.261 1.231 97.545 97.545 0 0 1-10.76 1.046 205.791 205.791 0 0 1-21.589-.645c-7.187-.54-14.319-1.45-21.337-2.577-3.271-.455-6.527-1.084-9.664-1.758a132.269 132.269 0 0 1 9.657-1.776zm-11.182 6.621c3.576.682 7.185 1.128 10.794 1.485 7.235.673 14.47.919 21.725.91 7.235-.035 14.472-.329 21.688-1.046 3.609-.366 7.22-.84 10.778-1.542a48 48 0 0 0 5.144-1.3c-.169 3.99-.437 7.968-.827 11.93 0-.015-.009-.024-.009-.037l.009.053a.73.73 0 0 0-.015.182.049.049 0 0 0-.018.044 2.832 2.832 0 0 1-1.365 1.769 11.657 11.657 0 0 1-2.141 1.1 31.944 31.944 0 0 1-4.622 1.329 80.416 80.416 0 0 1-9.5 1.494 171.224 171.224 0 0 1-19.209.919 170.808 170.808 0 0 1-19.2-.919 87.91 87.91 0 0 1-7.266-1.075c-.744-.136-1.5-.256-2.244-.419a29.975 29.975 0 0 1-4.605-1.338 10.708 10.708 0 0 1-2.159-1.092 3.818 3.818 0 0 1-1.163-1.176c-.035-.428-.085-.856-.134-1.292a2 2 0 0 1 .195-.4 2.254 2.254 0 0 0-.195.324c-.373-3.7-.608-7.43-.761-11.162a48.868 48.868 0 0 0 5.095 1.263zm-2.529 18.593a10.538 10.538 0 0 0 2.073 1.312 30.716 30.716 0 0 0 4.521 1.736c.658.193 1.316.366 1.99.538 2.444.61 4.925 1.075 7.4 1.466a136.415 136.415 0 0 0 38.119 0 75.265 75.265 0 0 0 9.394-2 30 30 0 0 0 4.519-1.736 11.125 11.125 0 0 0 2.091-1.312 4.479 4.479 0 0 0 .81-.875.379.379 0 0 1-.017.136 109.236 109.236 0 0 1-5.414 21.891c-2.632 6.976-6.14 13.641-11.048 18.941-2.328 2.549-5.734 3.749-9.056 4.552a52.536 52.536 0 0 1-20.7 0 32.449 32.449 0 0 1-3.238-.957 14.064 14.064 0 0 1-5.82-3.595c-4.923-5.309-8.417-11.965-11.03-18.941a108.046 108.046 0 0 1-5.432-21.891c0-.062-.017-.117-.017-.173a4.107 4.107 0 0 0 .855.912zm-.895-1.211c-.287-1.95-.538-3.916-.742-5.883a3.975 3.975 0 0 0 1 1.165 11.148 11.148 0 0 0 2.124 1.3 31.073 31.073 0 0 0 4.605 1.75c.724.2 1.45.391 2.176.564l.287 4.872c-.592-.12-1.182-.21-1.773-.336a30.082 30.082 0 0 1-4.535-1.34 11.6 11.6 0 0 1-2.108-1.094 4.05 4.05 0 0 1-1.034-.993zm75.172 2.958a128.893 128.893 0 0 1-6.408 24.048c-3 7.6-6.882 14.833-12.244 20.459-2.244 2.413-5.8 3.762-9.378 4.6a49.223 49.223 0 0 1-11.217 1.082 49.813 49.813 0 0 1-11.2-1.092c-3.574-.829-7.149-2.187-9.357-4.591-5.383-5.644-9.243-12.856-12.246-20.468a127.289 127.289 0 0 1-6.426-24.048 222.086 222.086 0 0 1-2.714-23.811c.085.092.167.182.252.263a6.615 6.615 0 0 0 1.248.83 16.69 16.69 0 0 0 2.6 1.064l.1.03c0 14.04 1.536 28.225 6.158 41.528a56.233 56.233 0 0 0 11.131 19.558 14.051 14.051 0 0 0 4.622 3.317 26.257 26.257 0 0 0 5.179 1.755 50.1 50.1 0 0 0 21.333 0 26.892 26.892 0 0 0 5.18-1.755 13.925 13.925 0 0 0 4.605-3.308 56.278 56.278 0 0 0 11.147-19.568c4.655-13.377 6.173-27.654 6.138-41.765a.106.106 0 0 1 .053-.01 15.961 15.961 0 0 0 2.562-1.068 5.474 5.474 0 0 0 1.2-.808 2.776 2.776 0 0 0 .437-.511 221.95 221.95 0 0 1-2.756 24.274z" class="cls-1" data-name="Path 592" transform="translate(-161.369 -1516.656)"/>
            <path id="Path_593" d="M237.761 1531.747a1.609 1.609 0 0 0-.134-.227.764.764 0 0 0-.119-.173 2.463 2.463 0 0 0-.233-.272 5.367 5.367 0 0 0-.575-.537 10.911 10.911 0 0 0-2.124-1.259 32.15 32.15 0 0 0-4.605-1.646q-1.094-.292-2.2-.538l-.068-.017c-.748-.167-1.5-.3-2.249-.47q-.573-.113-1.149-.213c-.191-.033-.382-.065-.575-.1-.162-.026-.318-.07-.48-.1l-.509-.084a89.226 89.226 0 0 0-2.3-.351 152.315 152.315 0 0 0-38.624 0l-.7.1q-1.122.171-2.238.365c-.733.127-1.468.248-2.2.392s-1.474.3-2.207.467-1.459.347-2.183.549a29.482 29.482 0 0 0-4.589 1.637 11.091 11.091 0 0 0-2.141 1.259 4.312 4.312 0 0 0-.954 1.09 4.089 4.089 0 0 1 1.02-1 10.94 10.94 0 0 1 2.143-1.147 30.733 30.733 0 0 1 4.622-1.428 76.284 76.284 0 0 1 6.553-1.237 39.069 39.069 0 0 1 6.195-.706c.963-.088 1.924-.171 2.887-.24.336-.059.737-.123 1.281-.187a11.241 11.241 0 0 1 1.878-.027q4.918-.265 9.844-.243h.1c4.888 0 9.776.2 14.659.485a54.875 54.875 0 0 1 6.957.671c2.383.447 4.76.923 7.121 1.485a29.967 29.967 0 0 1 4.622 1.428 10.734 10.734 0 0 1 2.143 1.147 3.559 3.559 0 0 1 1.176 1.279 1.573 1.573 0 0 0-.045-.152z" class="cls-1" data-name="Path 593" transform="translate(-158.659 -1510.056)"/>
            <path id="Path_594" d="M204.5 1529.317a.327.327 0 0 0 .033-.173.36.36 0 0 1-.017.127.077.077 0 0 1-.016.046z" class="cls-1" data-name="Path 594" transform="translate(-125.242 -1506.196)"/>
            <path id="Path_595" d="M190.908 1581.063a46.385 46.385 0 0 0 10.339 1.029 45.915 45.915 0 0 0 10.355-1.029c3.323-.8 6.728-2 9.056-4.552 4.908-5.3 8.417-11.966 11.048-18.941a109.2 109.2 0 0 0 5.414-21.888.385.385 0 0 0 .017-.136c-.219.327.709-6.323.423-6.077a23.784 23.784 0 0 1-3.052 1.908 15.948 15.948 0 0 1-3.313 1.231c-3.087.9-5.835.889-9.006 1.391a118.841 118.841 0 0 1-17.6 1.127c-6.36-.083-11.858-.092-18.233-.531-16.5-1.134-20.459-2.968-21.809-5.495-.537 3.424 5.779 45.618 23.123 51.009a32.237 32.237 0 0 0 3.238.954z" class="cls-4" data-name="Path 595" transform="translate(-158.735 -1506.233)"/>
        </g>
    </g>
    <path id="Path_596" d="M206.982 1578.949c1.516-1.621 1.606-4.074 2.558-6.03.985-2.021 2.874-2.773 4.732-3.591a30.974 30.974 0 0 0 15.923-16.69c2.558-6.318 3.385-14.231 1.308-20.849a12.576 12.576 0 0 0-3.684-5.9 9.546 9.546 0 0 0-12.125.277c-3.422 2.909-4.91 8.075-4 12.672a8.75 8.75 0 0 0 1.115-1.406c.511-.941.722-2.011 1.152-2.99 1.946-4.436 7.869-4.589 10.973-1.531 6.285 6.193 1.939 18.544-2.643 24.267-3.868 4.831-8.615 8.031-13.571 11.368-2.986 2.009-6.84 5.259-7 9.437-.123 3.284 3.175 2.76 4.881 1.325a3.9 3.9 0 0 0 .381-.359z" class="cls-5" data-name="Path 596" transform="translate(-120.146 -1510.634)"/>
    <path id="Path_597" d="M209.79 1533.518c-17.419 0-31.542-2.411-31.542-5.384 0-.509.443-1 1.217-1.467-6.981.988-11.43 2.479-11.43 4.147 0 2.973 14.122 5.383 31.542 5.383 14.437 0 26.58-1.658 30.327-3.917a148.834 148.834 0 0 1-20.114 1.238z" class="cls-2" data-name="Path 597" transform="translate(-148.363 -1508.271)"/>
    <path id="Path_598" d="M210.919 1560.307l.476.439" class="cls-6" data-name="Path 598" transform="translate(-112.441 -1480.091)"/>
</svg>
