<svg xmlns="http://www.w3.org/2000/svg" id="Group_66" width="113.352" height="100.698" data-name="Group 66" viewBox="0 0 113.352 100.698">
    <defs>
        <style>
            .cls-1{fill:#803a17}.cls-2{fill:#c29968}.cls-3{fill:#9c3416}.cls-4{fill:#551308}.cls-5,.cls-6{fill:none}.cls-5{stroke:#803a17;stroke-miterlimit:10;stroke-width:1.408px}
        </style>
    </defs>
    <path id="Path_599" d="M360.657 1561.131a10.632 10.632 0 0 0-.937-1.444 15.007 15.007 0 0 0-9.672-5.262c-.108-.011-.062.217-.035.258.048.075.483.084.583.115.434.141.871.3 1.31.437a14.76 14.76 0 0 1 2.714 1.183 10.893 10.893 0 0 1 5.017 5.107 6.367 6.367 0 0 1 .3 3.944 7.988 7.988 0 0 1-1.972 3.49 22.106 22.106 0 0 1-7.171 4.875 56.021 56.021 0 0 1-8.534 3.043c-2.014.536-4.056.983-6.108 1.391-.208.046-.623.125-.855.166a109.332 109.332 0 0 1-11.2 1.526c-2.453.211-4.936.345-7.419.428-1.15 0-9.115-.026-10.092-.039-.331-.013-.676-.013-1.007-.032a117.692 117.692 0 0 1-16.421-1.819c-.259-.051-.757-.134-.9-.158-.331-.064-.674-.116-1.007-.186a58.892 58.892 0 0 1-17.028-5.794c-2.508-1.443-4.826-3.267-5.983-5.552a5.862 5.862 0 0 1-.606-3.611 7.882 7.882 0 0 1 1.626-3.549 22.026 22.026 0 0 1 6.812-5.467 54.292 54.292 0 0 1 6.97-3.229l-.042-.191a47.1 47.1 0 0 0-7.454 2.52 23.179 23.179 0 0 0-7.845 5.27 9.815 9.815 0 0 0-2.33 4.269 8.057 8.057 0 0 0 .456 4.925 13.177 13.177 0 0 0 3.363 4.493 3.791 3.791 0 0 0 .278.433 24.694 24.694 0 0 0 4.866 5.047 44.277 44.277 0 0 0 12.672 6.72c9.141 3.229 18.972 4.326 28.624 4.344 9.651-.013 19.483-1.108 28.625-4.337a44.3 44.3 0 0 0 12.671-6.72 24.931 24.931 0 0 0 4.868-5.054 17.328 17.328 0 0 0 1.283-2.137c.136-.173.289-.312.426-.479a9.612 9.612 0 0 0 1.944-4.344 7.315 7.315 0 0 0-.79-4.58zm-8.729 15.409a47.347 47.347 0 0 1-12.533 5.647 81.421 81.421 0 0 1-13.692 2.758 109.926 109.926 0 0 1-14.064.77 111.058 111.058 0 0 1-14.064-.764 81.284 81.284 0 0 1-13.693-2.757 47.181 47.181 0 0 1-12.533-5.655 22.676 22.676 0 0 1-1.022-.707 46.7 46.7 0 0 0 6.882 3.076 79.365 79.365 0 0 0 9.21 2.653 115.232 115.232 0 0 0 18.974 2.439c12.728.472 25.634-.548 37.821-4.4a53.428 53.428 0 0 0 8.825-3.657 35.591 35.591 0 0 0 3.339-2.086 28.774 28.774 0 0 1-3.45 2.683z" class="cls-1" data-name="Path 599" transform="translate(-261.183 -1488.086)"/>
    <g id="Group_65" data-name="Group 65" transform="translate(7.422)">
        <g id="Group_64" data-name="Group 64">
            <path id="Path_600" d="M308 1528.094a2.5 2.5 0 0 1 .235.272 1.737 1.737 0 0 0-.235-.272z" class="cls-2" data-name="Path 600" transform="translate(-229.387 -1507.075)"/>
            <path id="Path_601" d="M308.33 1528.564a1.746 1.746 0 0 0-.136-.228 1.746 1.746 0 0 1 .136.228z" class="cls-2" data-name="Path 601" transform="translate(-229.226 -1506.873)"/>
            <path id="Path_602" d="M278.6 1537.244c2.411.456 4.822.822 7.268 1.075a201.092 201.092 0 0 0 38.405 0 80.51 80.51 0 0 0 9.5-1.494 32.026 32.026 0 0 0 4.622-1.329 11.546 11.546 0 0 0 2.141-1.1 2.833 2.833 0 0 0 1.367-1.768 4.1 4.1 0 0 0-.019-.48c-.033-.073-.033-.165-.066-.237 0-.038-.018-.064-.018-.1a3.458 3.458 0 0 0-1.231-1.358 10.8 10.8 0 0 0-2.141-1.147 30.1 30.1 0 0 0-4.622-1.428 93.851 93.851 0 0 0-12.1-2.361c-1.707-.18-3.368-.1-5.061-.27a88.772 88.772 0 0 0-5.809-.415q-1.979-.077-3.96-.081c-4.613-.014-9.2.2-13.808.412-.934.048-1.867.044-2.8.134-.967.094-1.931.193-2.9.268q-1.508.121-3.008.323a55.275 55.275 0 0 0-5.881 1.127 54.7 54.7 0 0 0-5.555 1.7c-.41.149-.823.276-1.233.408a15.549 15.549 0 0 0-2.644 1.779 2.261 2.261 0 0 0-.678 1.531c.011.876.9 1.516 1.58 1.942a14.589 14.589 0 0 0 2.916 1.323 38.316 38.316 0 0 0 5.735 1.546z" class="cls-3" data-name="Path 602" transform="translate(-262.587 -1509.879)"/>
            <path id="Path_603" d="M308.383 1529.144a.327.327 0 0 1-.033.173.06.06 0 0 0 .017-.037.439.439 0 0 0 .016-.136z" class="cls-2" data-name="Path 603" transform="translate(-229.095 -1506.196)"/>
            <path id="Path_604" d="M350.581 1529.089c-.173.048-.349.081-.522.134-.05-1.529-.1-3.058-.2-4.587a1.581 1.581 0 0 0 .219-.757 1.962 1.962 0 0 0-.759-1.421 5.942 5.942 0 0 0-1.2-.81 15.058 15.058 0 0 0-2.564-1.055 43.461 43.461 0 0 0-5.315-1.349c-3.574-.711-7.167-1.185-10.778-1.547-7.216-.72-14.453-1.011-21.688-1.04-7.253-.018-14.488.228-21.725.912-3.609.346-7.218.792-10.794 1.476a48.3 48.3 0 0 0-5.346 1.321 15.967 15.967 0 0 0-2.6 1.064 6.6 6.6 0 0 0-1.25.838 2.238 2.238 0 0 0-.844 1.612 1.84 1.84 0 0 0 .439 1.174 159.025 159.025 0 0 0 .507 24.385c.437 4.144 1.029 8.278 1.854 12.375a.681.681 0 0 0 .035.209 101.9 101.9 0 0 0 3.356 12.583 68.228 68.228 0 0 0 8.788 17.748c.123.226 2.266 3.1 2.545 3.313.371.465.759.946 1.163 1.393a16.8 16.8 0 0 0 5.6 4.061 32.236 32.236 0 0 0 6.04 2.069c.783.184 1.571.331 2.358.47a67.194 67.194 0 0 0 9.277.64c2.1-.04 4.467.03 6.61-.1a49.006 49.006 0 0 0 6.195-1.014c.257-.065.516-.155.776-.224a30.213 30.213 0 0 1 3.258-1.046c.671-.252 1.345-.489 2-.8a16.8 16.8 0 0 0 5.6-4.052c.524-.6 1.029-1.22 1.518-1.828.239-.275 2.418-3.15 2.549-3.38a64.049 64.049 0 0 0 5.25-9.236 77.547 77.547 0 0 0 4.216-10.258c.634-2.1 1.126-4.243 1.571-6.4a153.635 153.635 0 0 0 2.812-18.452c.246-2.986.4-5.993.5-8.99.026-.794-.068-9.268.024-9.286a2.159 2.159 0 0 0 .525-.145zm-21.216-10.183a97.361 97.361 0 0 1 10.76 1.05 45.243 45.243 0 0 1 5.263 1.228 15.9 15.9 0 0 1 2.5.983c.742.391 1.637.948 1.7 1.7-.066.812-.961 1.33-1.7 1.731-.085.046-.167.073-.252.11a9.493 9.493 0 0 0-2.126-1.448v-.382c0 .128-.017.253-.017.371a23.182 23.182 0 0 0-2.159-.927 51.186 51.186 0 0 0-4.96-1.5c-3.339-.757-6.711-1.276-10.1-1.72-4.537-.575-9.109-.829-13.678-.983 4.918-.256 9.845-.385 14.77-.212zm18.064 6.9a19.835 19.835 0 0 1-1.924.73v-1.831a9.324 9.324 0 0 1 1.925 1.104zm-60.99-3.707c2.244-.362 4.521-.691 6.8-1 4.892-.283 9.784-.411 14.674-.411 6.746-.017 13.527.184 20.257.764 3.372.294 6.729.677 10.069 1.277a48.409 48.409 0 0 1 4.943 1.147 19.88 19.88 0 0 1 2.293.819c-.018.62-.051 1.248-.068 1.876-.016 0-.016 0-.016.008a47.316 47.316 0 0 1-5.263 1.231 97.5 97.5 0 0 1-10.76 1.046 205.809 205.809 0 0 1-21.589-.645c-7.187-.54-14.319-1.45-21.337-2.577-3.271-.455-6.526-1.084-9.664-1.758a133.1 133.1 0 0 1 9.662-1.776zm-11.182 6.621c3.576.682 7.185 1.128 10.794 1.485 7.237.673 14.472.919 21.725.91 7.235-.035 14.472-.329 21.688-1.046 3.611-.366 7.22-.84 10.778-1.542a48.133 48.133 0 0 0 5.146-1.3q-.254 5.985-.827 11.93c0-.015-.011-.024-.011-.037l.011.053a.652.652 0 0 0-.017.182.052.052 0 0 0-.017.044 2.841 2.841 0 0 1-1.367 1.769 11.656 11.656 0 0 1-2.141 1.1 31.945 31.945 0 0 1-4.622 1.329 80.388 80.388 0 0 1-9.5 1.494 201.119 201.119 0 0 1-38.405 0 87.833 87.833 0 0 1-7.268-1.075c-.742-.136-1.5-.256-2.244-.419a30.039 30.039 0 0 1-4.605-1.338 10.648 10.648 0 0 1-2.157-1.092 3.8 3.8 0 0 1-1.165-1.176c-.035-.428-.085-.856-.134-1.292a2.114 2.114 0 0 1 .2-.4 2.26 2.26 0 0 0-.2.324c-.371-3.7-.608-7.43-.761-11.162a48.872 48.872 0 0 0 5.099 1.263zm-2.529 18.593a10.5 10.5 0 0 0 2.075 1.312 30.777 30.777 0 0 0 4.519 1.736c.658.193 1.316.366 1.99.538 2.446.61 4.925 1.075 7.4 1.466a136.415 136.415 0 0 0 38.119 0 75.194 75.194 0 0 0 9.394-2 30.006 30.006 0 0 0 4.519-1.736 11.125 11.125 0 0 0 2.091-1.312 4.421 4.421 0 0 0 .81-.875.377.377 0 0 1-.017.136 109.24 109.24 0 0 1-5.414 21.891c-2.632 6.976-6.14 13.641-11.048 18.941-2.328 2.549-5.733 3.749-9.056 4.552a45.9 45.9 0 0 1-10.355 1.029 46.364 46.364 0 0 1-10.339-1.029 32.313 32.313 0 0 1-3.238-.957 14.058 14.058 0 0 1-5.822-3.595c-4.923-5.309-8.415-11.965-11.03-18.941a107.924 107.924 0 0 1-5.43-21.891c0-.062-.018-.117-.018-.173a4.2 4.2 0 0 0 .851.912zm-.895-1.211c-.287-1.95-.538-3.916-.742-5.883a4 4 0 0 0 1 1.165 11.148 11.148 0 0 0 2.124 1.3 31.155 31.155 0 0 0 4.605 1.75c.726.2 1.45.391 2.176.564l.287 4.872c-.59-.12-1.182-.21-1.772-.336a30.106 30.106 0 0 1-4.537-1.34 11.6 11.6 0 0 1-2.108-1.094 4.082 4.082 0 0 1-1.032-.993zm75.172 2.958a129.03 129.03 0 0 1-6.406 24.048c-3 7.6-6.884 14.833-12.246 20.459-2.244 2.413-5.8 3.762-9.378 4.6a49.218 49.218 0 0 1-11.215 1.082 49.8 49.8 0 0 1-11.2-1.092c-3.576-.829-7.15-2.187-9.359-4.591-5.383-5.644-9.243-12.856-12.246-20.468a127.288 127.288 0 0 1-6.426-24.048 222.1 222.1 0 0 1-2.714-23.811c.085.092.167.182.252.263a6.571 6.571 0 0 0 1.25.83 16.673 16.673 0 0 0 2.6 1.064l.1.03c0 14.04 1.534 28.225 6.156 41.528a56.265 56.265 0 0 0 11.131 19.558 14.071 14.071 0 0 0 4.622 3.317 26.259 26.259 0 0 0 5.179 1.755 50.1 50.1 0 0 0 21.335 0 26.873 26.873 0 0 0 5.179-1.755 13.907 13.907 0 0 0 4.605-3.308 56.279 56.279 0 0 0 11.147-19.568c4.655-13.377 6.173-27.654 6.14-41.765a.1.1 0 0 1 .051-.01 16.048 16.048 0 0 0 2.564-1.068 5.505 5.505 0 0 0 1.2-.808 2.786 2.786 0 0 0 .439-.511 222.4 222.4 0 0 1-2.76 24.274z" class="cls-1" data-name="Path 604" transform="translate(-265.222 -1516.656)"/>
            <path id="Path_605" d="M341.616 1531.747a1.622 1.622 0 0 0-.136-.227.756.756 0 0 0-.118-.173 2.7 2.7 0 0 0-.235-.272 5.207 5.207 0 0 0-.575-.537 10.856 10.856 0 0 0-2.124-1.259 32.149 32.149 0 0 0-4.605-1.646 56.381 56.381 0 0 0-2.2-.538l-.07-.017c-.748-.167-1.5-.3-2.249-.47-.38-.075-.764-.147-1.147-.213l-.577-.1c-.162-.026-.318-.07-.48-.1l-.509-.084a87.914 87.914 0 0 0-2.3-.351 152.3 152.3 0 0 0-38.622 0l-.7.1q-1.125.171-2.24.365c-.733.127-1.466.248-2.2.392s-1.474.3-2.207.467-1.459.347-2.181.549a29.506 29.506 0 0 0-4.59 1.637 11.092 11.092 0 0 0-2.141 1.259 4.31 4.31 0 0 0-.954 1.09 4.094 4.094 0 0 1 1.022-1 10.874 10.874 0 0 1 2.141-1.147 30.8 30.8 0 0 1 4.622-1.428 76.284 76.284 0 0 1 6.553-1.237 39.069 39.069 0 0 1 6.2-.706c.961-.088 1.922-.171 2.885-.24.336-.059.737-.123 1.281-.187a11.265 11.265 0 0 1 1.88-.027q4.918-.265 9.843-.243h.1c4.89 0 9.776.2 14.659.485a54.874 54.874 0 0 1 6.957.671c2.384.447 4.76.923 7.123 1.485a30.094 30.094 0 0 1 4.622 1.428 10.77 10.77 0 0 1 2.141 1.147 3.58 3.58 0 0 1 1.178 1.279c-.025-.045-.021-.099-.047-.152z" class="cls-1" data-name="Path 605" transform="translate(-262.512 -1510.056)"/>
            <path id="Path_606" d="M308.35 1529.317a.327.327 0 0 0 .033-.173.36.36 0 0 1-.017.127.077.077 0 0 1-.016.046z" class="cls-1" data-name="Path 606" transform="translate(-229.095 -1506.196)"/>
            <path id="Path_607" d="M294.761 1581.063a46.386 46.386 0 0 0 10.339 1.029 45.917 45.917 0 0 0 10.355-1.029c3.322-.8 6.729-2 9.058-4.552 4.908-5.3 8.415-11.966 11.048-18.941a109.2 109.2 0 0 0 5.412-21.888.386.386 0 0 0 .016-.136c-.219.327.709-6.323.423-6.077a23.785 23.785 0 0 1-3.052 1.908 15.909 15.909 0 0 1-3.313 1.231c-3.087.9-5.835.889-9.006 1.391a118.841 118.841 0 0 1-17.6 1.127c-6.358-.083-11.857-.092-18.232-.531-16.506-1.134-20.459-2.968-21.811-5.495-.537 3.424 5.779 45.618 23.125 51.009a32.343 32.343 0 0 0 3.238.954z" class="cls-4" data-name="Path 607" transform="translate(-262.588 -1506.233)"/>
        </g>
    </g>
    <path id="Path_608" d="M310.836 1578.949c1.514-1.621 1.6-4.074 2.558-6.03.983-2.021 2.874-2.773 4.73-3.591a30.974 30.974 0 0 0 15.923-16.69c2.558-6.318 3.387-14.231 1.308-20.849a12.576 12.576 0 0 0-3.684-5.9 9.546 9.546 0 0 0-12.125.277c-3.422 2.909-4.91 8.075-4 12.672a8.649 8.649 0 0 0 1.116-1.406c.511-.941.722-2.011 1.152-2.99 1.946-4.436 7.869-4.589 10.973-1.531 6.287 6.193 1.939 18.544-2.643 24.267-3.868 4.831-8.613 8.031-13.571 11.368-2.984 2.009-6.84 5.259-7 9.437-.123 3.284 3.174 2.76 4.881 1.325a4.366 4.366 0 0 0 .382-.359z" class="cls-5" data-name="Path 608" transform="translate(-223.998 -1510.634)"/>
    <path id="Path_609" d="M313.644 1533.518c-17.421 0-31.542-2.411-31.542-5.384 0-.509.441-1 1.217-1.467-6.981.988-11.43 2.479-11.43 4.147 0 2.973 14.121 5.383 31.542 5.383 14.437 0 26.58-1.658 30.325-3.917a148.824 148.824 0 0 1-20.112 1.238z" class="cls-2" data-name="Path 609" transform="translate(-252.216 -1508.271)"/>
    <path id="Path_610" d="M314.772 1560.307l.478.439" class="cls-6" data-name="Path 610" transform="translate(-216.294 -1480.091)"/>
</svg>
