<svg xmlns="http://www.w3.org/2000/svg" id="Group_57" width="113.352" height="100.698" data-name="Group 57" viewBox="0 0 113.352 100.698">
    <defs>
        <style>
            .cls-1{fill:#803a17}.cls-2{fill:#c29968}.cls-3{fill:#c35e1f}.cls-4{fill:#791b0a}.cls-5,.cls-6{fill:none}.cls-5{stroke:#803a17;stroke-miterlimit:10;stroke-width:1.408px}
        </style>
    </defs>
    <path id="Path_563" d="M464.51 1561.131a10.464 10.464 0 0 0-.937-1.444 15.007 15.007 0 0 0-9.672-5.262c-.108-.011-.061.217-.035.258.048.075.483.084.582.115.434.141.873.3 1.31.437a14.758 14.758 0 0 1 2.714 1.183 10.893 10.893 0 0 1 5.017 5.107 6.367 6.367 0 0 1 .3 3.944 7.972 7.972 0 0 1-1.972 3.49 22.105 22.105 0 0 1-7.171 4.875 55.88 55.88 0 0 1-8.534 3.043c-2.012.536-4.054.983-6.108 1.391-.208.046-.623.125-.855.166a109.264 109.264 0 0 1-11.2 1.526c-2.453.211-4.936.345-7.419.428-1.15 0-9.113-.026-10.092-.039-.329-.013-.676-.013-1.005-.032a117.72 117.72 0 0 1-16.423-1.819c-.259-.051-.757-.134-.9-.158-.329-.064-.674-.116-1.005-.186a58.852 58.852 0 0 1-17.028-5.794c-2.51-1.443-4.828-3.267-5.985-5.552a5.876 5.876 0 0 1-.606-3.611 7.9 7.9 0 0 1 1.626-3.549 22.027 22.027 0 0 1 6.812-5.467 54.288 54.288 0 0 1 6.97-3.229l-.042-.191a47.231 47.231 0 0 0-7.454 2.52 23.154 23.154 0 0 0-7.843 5.27 9.819 9.819 0 0 0-2.332 4.269 8.069 8.069 0 0 0 .456 4.925 13.2 13.2 0 0 0 3.363 4.493 4.049 4.049 0 0 0 .278.433 24.745 24.745 0 0 0 4.866 5.047 44.278 44.278 0 0 0 12.673 6.72c9.141 3.229 18.972 4.326 28.623 4.344 9.653-.013 19.485-1.108 28.625-4.337a44.3 44.3 0 0 0 12.671-6.72 24.931 24.931 0 0 0 4.868-5.054 17.115 17.115 0 0 0 1.283-2.137c.138-.173.29-.312.426-.479a9.591 9.591 0 0 0 1.944-4.344 7.315 7.315 0 0 0-.789-4.58zm-8.727 15.409a47.359 47.359 0 0 1-12.535 5.647 81.438 81.438 0 0 1-13.691 2.758 129.331 129.331 0 0 1-28.129.005 81.262 81.262 0 0 1-13.691-2.757 47.167 47.167 0 0 1-12.535-5.655 21.538 21.538 0 0 1-1.02-.707 46.767 46.767 0 0 0 6.88 3.076 79.571 79.571 0 0 0 9.21 2.653 115.233 115.233 0 0 0 18.974 2.44c12.728.472 25.634-.548 37.823-4.4a53.56 53.56 0 0 0 8.824-3.657 35.564 35.564 0 0 0 3.337-2.086 28.9 28.9 0 0 1-3.447 2.683z" class="cls-1" data-name="Path 563" transform="translate(-365.037 -1488.086)"/>
    <g id="Group_56" data-name="Group 56" transform="translate(7.423)">
        <g id="Group_55" data-name="Group 55">
            <path id="Path_564" d="M411.855 1528.094a2.5 2.5 0 0 1 .235.272 1.648 1.648 0 0 0-.235-.272z" class="cls-2" data-name="Path 564" transform="translate(-333.242 -1507.075)"/>
            <path id="Path_565" d="M412.182 1528.564a1.95 1.95 0 0 0-.134-.228 1.95 1.95 0 0 1 .134.228z" class="cls-2" data-name="Path 565" transform="translate(-333.08 -1506.873)"/>
            <path id="Path_566" d="M382.448 1537.244c2.411.456 4.822.822 7.268 1.075a201.094 201.094 0 0 0 38.405 0 80.514 80.514 0 0 0 9.5-1.494 32.02 32.02 0 0 0 4.622-1.329 11.619 11.619 0 0 0 2.143-1.1 2.829 2.829 0 0 0 1.365-1.768 4.585 4.585 0 0 0-.017-.48c-.033-.073-.033-.165-.068-.237 0-.038-.017-.064-.017-.1a3.476 3.476 0 0 0-1.233-1.358 10.8 10.8 0 0 0-2.141-1.147 30.033 30.033 0 0 0-4.622-1.428 93.858 93.858 0 0 0-12.1-2.361c-1.707-.18-3.368-.1-5.061-.27a88.772 88.772 0 0 0-5.809-.415q-1.979-.077-3.96-.081c-4.613-.014-9.2.2-13.808.412-.934.048-1.867.044-2.8.134-.965.094-1.929.193-2.9.268q-1.511.121-3.008.323a54.976 54.976 0 0 0-11.438 2.824c-.41.149-.823.276-1.233.408a15.529 15.529 0 0 0-2.644 1.779 2.25 2.25 0 0 0-.676 1.531c.011.876.9 1.516 1.578 1.942a14.59 14.59 0 0 0 2.916 1.323 38.321 38.321 0 0 0 5.738 1.549z" class="cls-3" data-name="Path 566" transform="translate(-366.442 -1509.879)"/>
            <path id="Path_567" d="M412.237 1529.144a.328.328 0 0 1-.033.173.064.064 0 0 0 .015-.037.4.4 0 0 0 .018-.136z" class="cls-2" data-name="Path 567" transform="translate(-332.949 -1506.196)"/>
            <path id="Path_568" d="M454.435 1529.089c-.175.048-.351.081-.524.134-.05-1.529-.1-3.058-.2-4.587a1.583 1.583 0 0 0 .221-.757 1.964 1.964 0 0 0-.761-1.421 5.943 5.943 0 0 0-1.2-.81 14.939 14.939 0 0 0-2.564-1.055 43.459 43.459 0 0 0-5.314-1.349c-3.574-.711-7.167-1.185-10.776-1.547-7.218-.72-14.455-1.011-21.69-1.04-7.253-.018-14.488.228-21.725.912-3.607.346-7.217.792-10.794 1.476a48.408 48.408 0 0 0-5.346 1.321 15.971 15.971 0 0 0-2.6 1.064 6.66 6.66 0 0 0-1.25.838 2.231 2.231 0 0 0-.842 1.612 1.849 1.849 0 0 0 .437 1.174 159.01 159.01 0 0 0 .507 24.385c.437 4.144 1.029 8.278 1.854 12.375a.68.68 0 0 0 .035.209 101.912 101.912 0 0 0 3.356 12.583 68.223 68.223 0 0 0 8.788 17.748c.125.226 2.266 3.1 2.545 3.313.371.465.761.946 1.165 1.393a16.784 16.784 0 0 0 5.6 4.061 32.223 32.223 0 0 0 6.039 2.069c.783.184 1.571.331 2.36.47a67.174 67.174 0 0 0 9.277.64c2.095-.04 4.467.03 6.608-.1a49.007 49.007 0 0 0 6.195-1.014c.259-.065.516-.155.776-.224a30.206 30.206 0 0 1 3.258-1.046c.671-.252 1.345-.489 2-.8a16.814 16.814 0 0 0 5.6-4.052c.522-.6 1.029-1.22 1.518-1.828.237-.275 2.417-3.15 2.547-3.38a63.868 63.868 0 0 0 5.25-9.236 77.292 77.292 0 0 0 4.216-10.258c.634-2.1 1.126-4.243 1.573-6.4a153.586 153.586 0 0 0 2.812-18.452c.245-2.986.4-5.993.494-8.99.026-.794-.068-9.268.024-9.286a2.2 2.2 0 0 0 .531-.145zm-21.218-10.183a97.361 97.361 0 0 1 10.76 1.05 45.151 45.151 0 0 1 5.263 1.228 15.827 15.827 0 0 1 2.5.983c.742.391 1.637.948 1.705 1.7-.068.812-.963 1.33-1.705 1.731-.085.046-.167.073-.252.11a9.5 9.5 0 0 0-2.126-1.448v-.382c0 .128-.017.253-.017.371a23.38 23.38 0 0 0-2.157-.927 51.211 51.211 0 0 0-4.962-1.5c-3.337-.757-6.711-1.276-10.1-1.72-4.537-.575-9.107-.829-13.678-.983 4.918-.256 9.845-.385 14.77-.212zm18.064 6.9a19.664 19.664 0 0 1-1.924.73v-1.831a9.328 9.328 0 0 1 1.925 1.104zm-60.988-3.707c2.242-.362 4.519-.691 6.8-1 4.89-.283 9.782-.411 14.674-.411 6.746-.017 13.525.184 20.255.764 3.372.294 6.73.677 10.069 1.277a48.3 48.3 0 0 1 4.943 1.147 19.888 19.888 0 0 1 2.293.819c-.017.62-.052 1.248-.068 1.876-.016 0-.016 0-.016.008a47.215 47.215 0 0 1-5.263 1.231 97.5 97.5 0 0 1-10.76 1.046 205.823 205.823 0 0 1-21.589-.645c-7.185-.54-14.319-1.45-21.335-2.577-3.271-.455-6.527-1.084-9.666-1.758a133.155 133.155 0 0 1 9.664-1.776zm-11.184 6.621c3.578.682 7.187 1.128 10.794 1.485 7.237.673 14.472.919 21.725.91 7.235-.035 14.472-.329 21.69-1.046 3.609-.366 7.218-.84 10.776-1.542a48.025 48.025 0 0 0 5.146-1.3q-.254 5.985-.827 11.93c0-.015-.009-.024-.011-.037l.011.053a.652.652 0 0 0-.017.182.052.052 0 0 0-.017.044 2.838 2.838 0 0 1-1.365 1.769 11.734 11.734 0 0 1-2.143 1.1 31.945 31.945 0 0 1-4.622 1.329 80.387 80.387 0 0 1-9.5 1.494 201.12 201.12 0 0 1-38.405 0 87.833 87.833 0 0 1-7.268-1.075c-.742-.136-1.5-.256-2.244-.419a29.952 29.952 0 0 1-4.6-1.338 10.61 10.61 0 0 1-2.159-1.092 3.8 3.8 0 0 1-1.165-1.176c-.033-.428-.085-.856-.134-1.292a2.119 2.119 0 0 1 .2-.4 2.257 2.257 0 0 0-.2.324c-.371-3.7-.608-7.43-.759-11.162a48.845 48.845 0 0 0 5.095 1.263zm-2.529 18.593a10.5 10.5 0 0 0 2.075 1.312 30.776 30.776 0 0 0 4.519 1.736c.66.193 1.318.366 1.99.538 2.446.61 4.927 1.075 7.4 1.466a136.414 136.414 0 0 0 38.119 0 75.116 75.116 0 0 0 9.394-2 30.024 30.024 0 0 0 4.521-1.736 11.24 11.24 0 0 0 2.091-1.312 4.53 4.53 0 0 0 .81-.875.343.343 0 0 1-.018.136 109.24 109.24 0 0 1-5.412 21.891c-2.633 6.976-6.14 13.641-11.048 18.941-2.328 2.549-5.735 3.749-9.058 4.552a45.9 45.9 0 0 1-10.355 1.029 46.364 46.364 0 0 1-10.339-1.029 32.447 32.447 0 0 1-3.238-.957 14.051 14.051 0 0 1-5.82-3.595c-4.925-5.309-8.417-11.965-11.03-18.941a107.922 107.922 0 0 1-5.432-21.891c0-.062-.017-.117-.017-.173a4.144 4.144 0 0 0 .849.912zm-.895-1.211c-.287-1.95-.538-3.916-.742-5.883a3.982 3.982 0 0 0 1 1.165 11.092 11.092 0 0 0 2.124 1.3 31.137 31.137 0 0 0 4.6 1.75c.726.2 1.452.391 2.176.564l.287 4.872c-.59-.12-1.182-.21-1.771-.336a30.1 30.1 0 0 1-4.537-1.34 11.582 11.582 0 0 1-2.106-1.094 4.056 4.056 0 0 1-1.03-.993zm75.173 2.958a128.889 128.889 0 0 1-6.408 24.048c-3 7.6-6.882 14.833-12.246 20.459-2.242 2.413-5.8 3.762-9.378 4.6a49.208 49.208 0 0 1-11.215 1.082 49.813 49.813 0 0 1-11.2-1.092c-3.574-.829-7.15-2.187-9.359-4.591-5.381-5.644-9.244-12.856-12.244-20.468a127.146 127.146 0 0 1-6.426-24.048 222.092 222.092 0 0 1-2.716-23.811c.085.092.167.182.252.263a6.627 6.627 0 0 0 1.25.83 16.678 16.678 0 0 0 2.6 1.064l.1.03c0 14.04 1.534 28.225 6.156 41.528a56.268 56.268 0 0 0 11.133 19.558 14.05 14.05 0 0 0 4.622 3.317 26.2 26.2 0 0 0 5.177 1.755 50.1 50.1 0 0 0 21.335 0 26.891 26.891 0 0 0 5.18-1.755 13.918 13.918 0 0 0 4.6-3.308 56.312 56.312 0 0 0 11.149-19.568c4.655-13.377 6.173-27.654 6.138-41.765a.1.1 0 0 1 .051-.01 15.912 15.912 0 0 0 2.564-1.068 5.506 5.506 0 0 0 1.2-.808 2.716 2.716 0 0 0 .439-.511 222.409 222.409 0 0 1-2.753 24.274z" class="cls-1" data-name="Path 568" transform="translate(-369.076 -1516.656)"/>
            <path id="Path_569" d="M445.469 1531.747a1.8 1.8 0 0 0-.134-.227.832.832 0 0 0-.119-.173 2.7 2.7 0 0 0-.235-.272 5.041 5.041 0 0 0-.575-.537 10.86 10.86 0 0 0-2.124-1.259 32.152 32.152 0 0 0-4.605-1.646q-1.094-.292-2.2-.538l-.07-.017c-.748-.167-1.5-.3-2.248-.47q-.573-.113-1.148-.213c-.191-.033-.384-.065-.575-.1-.164-.026-.318-.07-.48-.1l-.511-.084a88.565 88.565 0 0 0-2.3-.351 152.3 152.3 0 0 0-38.622 0l-.7.1q-1.122.171-2.24.365c-.731.127-1.466.248-2.2.392s-1.474.3-2.205.467-1.461.347-2.183.549a29.486 29.486 0 0 0-4.589 1.637 11.157 11.157 0 0 0-2.143 1.259 4.35 4.35 0 0 0-.954 1.09 4.129 4.129 0 0 1 1.022-1 10.872 10.872 0 0 1 2.141-1.147 30.8 30.8 0 0 1 4.622-1.428 76.284 76.284 0 0 1 6.553-1.237 39.094 39.094 0 0 1 6.2-.706c.961-.088 1.924-.171 2.885-.24.336-.059.737-.123 1.283-.187a11.24 11.24 0 0 1 1.878-.027q4.918-.265 9.844-.243h.1c4.89 0 9.778.2 14.659.485a54.9 54.9 0 0 1 6.959.671c2.382.447 4.758.923 7.121 1.485a30.031 30.031 0 0 1 4.622 1.428 10.77 10.77 0 0 1 2.141 1.147 3.563 3.563 0 0 1 1.178 1.279c-.024-.045-.022-.099-.048-.152z" class="cls-1" data-name="Path 569" transform="translate(-366.367 -1510.056)"/>
            <path id="Path_570" d="M412.2 1529.317a.328.328 0 0 0 .033-.173.328.328 0 0 1-.018.127.083.083 0 0 1-.015.046z" class="cls-1" data-name="Path 570" transform="translate(-332.949 -1506.196)"/>
            <path id="Path_571" d="M398.613 1581.063a46.386 46.386 0 0 0 10.339 1.029 45.915 45.915 0 0 0 10.355-1.029c3.324-.8 6.73-2 9.058-4.552 4.908-5.3 8.417-11.966 11.048-18.941a109.076 109.076 0 0 0 5.412-21.888.349.349 0 0 0 .018-.136c-.221.327.708-6.323.421-6.077a23.784 23.784 0 0 1-3.052 1.908 15.872 15.872 0 0 1-3.313 1.231c-3.085.9-5.835.889-9 1.391a118.865 118.865 0 0 1-17.6 1.127c-6.358-.083-11.857-.092-18.232-.531-16.5-1.134-20.459-2.968-21.809-5.495-.537 3.424 5.779 45.618 23.123 51.009a32.342 32.342 0 0 0 3.232.954z" class="cls-4" data-name="Path 571" transform="translate(-366.442 -1506.233)"/>
        </g>
    </g>
    <path id="Path_572" d="M414.689 1578.949c1.516-1.621 1.606-4.074 2.558-6.03.985-2.021 2.874-2.773 4.732-3.591a30.981 30.981 0 0 0 15.923-16.69c2.556-6.318 3.385-14.231 1.307-20.849a12.547 12.547 0 0 0-3.685-5.9 9.544 9.544 0 0 0-12.123.277c-3.424 2.909-4.91 8.075-4 12.672a8.757 8.757 0 0 0 1.114-1.406c.513-.941.724-2.011 1.154-2.99 1.946-4.436 7.867-4.589 10.971-1.531 6.287 6.193 1.939 18.544-2.643 24.267-3.866 4.831-8.613 8.031-13.569 11.368-2.986 2.009-6.842 5.259-7 9.437-.123 3.284 3.175 2.76 4.881 1.325a4.37 4.37 0 0 0 .38-.359z" class="cls-5" data-name="Path 572" transform="translate(-327.851 -1510.634)"/>
    <path id="Path_573" d="M417.5 1533.518c-17.419 0-31.542-2.411-31.542-5.384 0-.509.443-1 1.217-1.467-6.981.988-11.43 2.479-11.43 4.147 0 2.973 14.121 5.383 31.542 5.383 14.437 0 26.58-1.658 30.325-3.917a148.825 148.825 0 0 1-20.112 1.238z" class="cls-2" data-name="Path 573" transform="translate(-356.069 -1508.271)"/>
    <path id="Path_574" d="M418.626 1560.307l.476.439" class="cls-6" data-name="Path 574" transform="translate(-320.147 -1480.091)"/>
</svg>
