<svg xmlns="http://www.w3.org/2000/svg" id="Group_68" width="123.365" height="88.555" data-name="Group 68" viewBox="0 0 123.365 88.555">
    <defs>
        <style>
            .cls-1{fill:#3b1008}.cls-2{fill:#c29968}.cls-3{fill:#803a17}
        </style>
    </defs>
    <g id="Group_67" data-name="Group 67">
        <path id="Path_611" d="M123.243 1752.175a48.037 48.037 0 0 0 9.931.917 47.471 47.471 0 0 0 9.947-.917c3.192-.713 6.465-1.78 8.7-4.048a50.458 50.458 0 0 0 10.613-16.852 91.349 91.349 0 0 0 5.2-19.472.313.313 0 0 0 .017-.121 4.158 4.158 0 0 1-.779.777 10.846 10.846 0 0 1-2.009 1.167 30.265 30.265 0 0 1-4.341 1.546 77.357 77.357 0 0 1-9.025 1.784 141.532 141.532 0 0 1-36.614 0c-2.382-.349-4.763-.763-7.114-1.307.116 1.849 1.54 22.5 12.364 35.675a32.95 32.95 0 0 0 3.11.851z" class="cls-1" data-name="Path 611" transform="translate(-73.663 -1685.183)"/>
        <path id="Path_612" d="M140.452 1707.437a2.125 2.125 0 0 1 .226.242 1.442 1.442 0 0 0-.226-.242z" class="cls-2" data-name="Path 612" transform="translate(-46.286 -1688.74)"/>
        <path id="Path_613" d="M140.767 1707.855a1.58 1.58 0 0 0-.13-.2 1.58 1.58 0 0 1 .13.2z" class="cls-2" data-name="Path 613" transform="translate(-46.131 -1688.558)"/>
        <path id="Path_614" d="M107.727 1714.682c2.315.4 4.633.729 6.981.956a176.465 176.465 0 0 0 18.437.818 176.96 176.96 0 0 0 18.454-.818 82.628 82.628 0 0 0 9.12-1.329 32.558 32.558 0 0 0 4.44-1.182 11.582 11.582 0 0 0 2.056-.979 2.557 2.557 0 0 0 1.312-1.573 3.646 3.646 0 0 0-.017-.428c-.031-.064-.031-.147-.064-.211 0-.033-.017-.055-.017-.09a3.17 3.17 0 0 0-1.183-1.207 10.64 10.64 0 0 0-2.056-1.02 30.332 30.332 0 0 0-4.44-1.27 64.734 64.734 0 0 0-4.357-.819 60 60 0 0 1-7.354 1.6 97.944 97.944 0 0 1-12.588 1.118 94.009 94.009 0 0 1-12.621-.583 63.718 63.718 0 0 1-2.755-.382c-9.542 3.277-12.554 6.346-13.348 7.399z" class="cls-2" data-name="Path 614" transform="translate(-73.699 -1690.339)"/>
        <path id="Path_615" d="M128.241 1706.607c4.162-.074 8.326-.267 12.474-.607 1.119-.1 2.236-.2 3.37-.325-.211-.015-.421-.048-.616-.072a167.9 167.9 0 0 0-18.485-.908h-.1a123.11 123.11 0 0 0-7.419 1.873c3.598.112 7.18.132 10.776.039z" class="cls-2" data-name="Path 615" transform="translate(-65.538 -1691.037)"/>
        <path id="Path_616" d="M140.818 1708.371a.279.279 0 0 1-.031.154.055.055 0 0 0 .015-.033.351.351 0 0 0 .016-.121z" class="cls-2" data-name="Path 616" transform="translate(-46.006 -1687.957)"/>
        <path id="Path_617" d="M212.569 1726.7a18.638 18.638 0 0 0-7.34-15.253 18.082 18.082 0 0 0-15.876-3 118.17 118.17 0 0 0-.195-4.081 1.312 1.312 0 0 0 .211-.649v-.026a1.719 1.719 0 0 0-.73-1.263 5.691 5.691 0 0 0-1.15-.72 15.038 15.038 0 0 0-2.462-.939 44.17 44.17 0 0 0-5.1-1.2c-3.435-.632-6.886-1.053-10.353-1.377-6.932-.641-13.884-.9-20.834-.924-6.967-.016-13.917.2-20.867.809-3.466.309-6.934.706-10.37 1.314a50.249 50.249 0 0 0-5.134 1.174 16.158 16.158 0 0 0-2.494.948 6.413 6.413 0 0 0-1.2.745 1.955 1.955 0 0 0-.81 1.433 1.569 1.569 0 0 0 .423 1.046 131.112 131.112 0 0 0 .485 21.694 110.693 110.693 0 0 0 1.783 11.008 53.4 53.4 0 0 0-9.155 3.313 27.2 27.2 0 0 0-9.216 6.691 12.781 12.781 0 0 0-2.74 5.419 11 11 0 0 0 .537 6.253 16.64 16.64 0 0 0 3.951 5.7 4.88 4.88 0 0 0 .325.551 30.434 30.434 0 0 0 5.719 6.408 50.894 50.894 0 0 0 14.889 8.531c10.741 4.1 22.291 5.491 33.633 5.515 11.34-.016 22.892-1.407 33.633-5.507a50.856 50.856 0 0 0 14.889-8.53 30.705 30.705 0 0 0 5.719-6.416 22.073 22.073 0 0 0 1.507-2.714c.162-.218.34-.4.5-.606a12.71 12.71 0 0 0 2.284-5.517 9.93 9.93 0 0 0-.939-5.816 17.022 17.022 0 0 0-6.092-6.489 18.372 18.372 0 0 0 4.276-2.211 19.23 19.23 0 0 0 8.293-15.314zm-43.093-27.434a100.745 100.745 0 0 1 10.335.931 46.144 46.144 0 0 1 5.055 1.093 16 16 0 0 1 2.4.875c.715.347 1.573.841 1.637 1.514-.064.72-.923 1.181-1.637 1.54-.081.04-.16.064-.241.1a9.24 9.24 0 0 0-2.043-1.29v-.34c0 .116-.015.228-.015.332a23.477 23.477 0 0 0-2.073-.827c-1.573-.533-3.161-.955-4.765-1.334-3.207-.674-6.447-1.135-9.7-1.533-4.359-.511-8.749-.737-13.139-.873 4.723-.23 9.454-.344 14.186-.189zm17.351 6.14c-.6.242-1.217.463-1.849.649v-1.628a9.166 9.166 0 0 1 1.849.973zm-58.583-3.3c2.154-.324 4.341-.616 6.529-.892q7.048-.375 14.095-.365c6.48-.015 12.992.163 19.457.682 3.24.259 6.465.6 9.672 1.134 1.586.276 3.19.59 4.747 1.02a21.024 21.024 0 0 1 2.2.729c-.017.551-.05 1.11-.064 1.67-.017 0-.017 0-.017.006a47.859 47.859 0 0 1-5.055 1.1 100.815 100.815 0 0 1-10.335.932c-6.919.2-13.852-.1-20.738-.575-6.9-.48-13.753-1.288-20.494-2.292-3.142-.406-6.27-.965-9.284-1.566a131.87 131.87 0 0 1 9.287-1.581zM117.5 1708c3.436.606 6.9 1 10.37 1.319 6.95.6 13.9.818 20.867.811 6.95-.031 13.9-.292 20.834-.932 3.468-.325 6.935-.746 10.353-1.369a49.87 49.87 0 0 0 4.941-1.158 174.751 174.751 0 0 1-.8 10.613 1.623 1.623 0 0 0-.224-.723 1.586 1.586 0 0 0-.13-.2.69.69 0 0 0-.114-.154 2.136 2.136 0 0 0-.226-.242 4.921 4.921 0 0 0-.551-.478 10.733 10.733 0 0 0-2.042-1.119 32.7 32.7 0 0 0-4.423-1.466 66.342 66.342 0 0 0-3.449-.744c1.312-.414 2.624-.86 3.889-1.393l-.05-.228c-2.235.478-4.488.827-6.739 1.11a98.214 98.214 0 0 0-2.8-.4 157.928 157.928 0 0 0-37.1 0c-.827.112-1.654.226-2.479.357l-.616-.1-.033.2c-2.025.316-4.034.7-6.026 1.207a29.985 29.985 0 0 0-4.409 1.457 10.967 10.967 0 0 0-2.056 1.119 3.316 3.316 0 0 0-1.15 1.327 157.34 157.34 0 0 1-.73-9.931A50.039 50.039 0 0 0 117.5 1708zm10.515 4.081a48.8 48.8 0 0 0 8.571 2.13c.924.147 1.83.276 2.755.382a94.07 94.07 0 0 0 12.621.583 97.9 97.9 0 0 0 12.588-1.118 59.952 59.952 0 0 0 7.354-1.6c1.457.226 2.916.494 4.357.819a30.285 30.285 0 0 1 4.44 1.27 10.652 10.652 0 0 1 2.056 1.02 3.18 3.18 0 0 1 1.183 1.208c0 .035.017.057.017.09.033.064.033.147.064.212s.033.145.048.226a.579.579 0 0 0-.015.162.045.045 0 0 0-.017.041 2.557 2.557 0 0 1-1.312 1.573 11.583 11.583 0 0 1-2.056.979 32.56 32.56 0 0 1-4.44 1.182 82.659 82.659 0 0 1-9.12 1.329 176.894 176.894 0 0 1-18.454.818 176.4 176.4 0 0 1-18.437-.818 91.484 91.484 0 0 1-6.981-.956c-.713-.121-1.443-.228-2.156-.373a30.712 30.712 0 0 1-4.421-1.189 10.617 10.617 0 0 1-2.075-.972 3.549 3.549 0 0 1-1.117-1.046 29.113 29.113 0 0 0-.13-1.15 3.037 3.037 0 0 1 1.215-1.314 10.72 10.72 0 0 1 2.058-1.02 30.992 30.992 0 0 1 4.438-1.27c2.301-.528 4.635-.899 6.967-1.201zm20.641-1.157a167.871 167.871 0 0 1 18.485.908c.195.024.4.057.616.072-1.134.123-2.251.228-3.37.325-4.148.34-8.312.533-12.474.607-3.6.1-7.178.073-10.772-.039-.568-.026-1.136-.017-1.718-.042-3.273-.154-6.562-.4-9.819-.851.2-.024.373-.048.568-.072a167.945 167.945 0 0 1 18.388-.908zm35.335 6.909a.277.277 0 0 0 .031-.154.294.294 0 0 1-.017.114.067.067 0 0 1-.014.037zm-69.534 1.433a10.9 10.9 0 0 0 2.04 1.158 31.476 31.476 0 0 0 4.423 1.557c.7.178 1.393.349 2.089.5l.276 4.335c-.566-.107-1.134-.188-1.7-.3a30.754 30.754 0 0 1-4.359-1.191 11.542 11.542 0 0 1-2.023-.972 3.8 3.8 0 0 1-.989-.891 112.597 112.597 0 0 1-.713-5.232 3.681 3.681 0 0 0 .957 1.034zm.616 5.274a10.2 10.2 0 0 0 1.992 1.167 31.045 31.045 0 0 0 4.341 1.546c.632.17 1.264.325 1.911.477 2.35.544 4.732.958 7.114 1.307a141.561 141.561 0 0 0 36.614 0 77.332 77.332 0 0 0 9.025-1.784 30.312 30.312 0 0 0 4.341-1.546 10.844 10.844 0 0 0 2.009-1.167 4.165 4.165 0 0 0 .779-.777.314.314 0 0 1-.017.121 91.344 91.344 0 0 1-5.2 19.472 50.454 50.454 0 0 1-10.613 16.852c-2.235 2.267-5.507 3.335-8.7 4.048a47.478 47.478 0 0 1-9.947.917 48.037 48.037 0 0 1-9.931-.917 32.848 32.848 0 0 1-3.109-.851 13.706 13.706 0 0 1-5.59-3.2 50.013 50.013 0 0 1-10.6-16.852 90.415 90.415 0 0 1-5.217-19.472c0-.057-.017-.1-.017-.155a3.853 3.853 0 0 0 .815.812zm-6.643-19.64c.081.081.162.162.243.234a6.368 6.368 0 0 0 1.2.739 16.718 16.718 0 0 0 2.494.946l.1.026c0 12.491 1.474 25.11 5.914 36.947a49.26 49.26 0 0 0 10.692 17.4 13.531 13.531 0 0 0 4.44 2.949 26.7 26.7 0 0 0 4.975 1.562 51.987 51.987 0 0 0 20.492 0 27.26 27.26 0 0 0 4.976-1.562 13.392 13.392 0 0 0 4.423-2.942 49.316 49.316 0 0 0 10.708-17.406c4.471-11.9 5.928-24.6 5.9-37.158a.11.11 0 0 1 .05-.008 15.965 15.965 0 0 0 2.462-.95 5.337 5.337 0 0 0 1.15-.719 2.475 2.475 0 0 0 .421-.456 183.933 183.933 0 0 1-2.641 21.589 108.243 108.243 0 0 1-6.154 21.394c-2.885 6.765-6.612 13.2-11.763 18.2-2.156 2.147-5.574 3.347-9.008 4.091a50.937 50.937 0 0 1-10.774.965 51.485 51.485 0 0 1-10.758-.972c-3.435-.737-6.867-1.944-8.99-4.083-5.169-5.02-8.88-11.436-11.763-18.209a106.712 106.712 0 0 1-6.173-21.394 183.912 183.912 0 0 1-2.616-21.183zm83.419 10.855a10.085 10.085 0 0 1 8.747 3.06 9.382 9.382 0 0 1 2.139 9.253 10.715 10.715 0 0 1-6.481 6.658 11.065 11.065 0 0 1-8.7-.632c.454-2.544.844-5.113 1.119-7.671.112-.939.162-1.878.243-2.812a1.949 1.949 0 0 0 .323-.162 4.083 4.083 0 0 0 1.005-.882 7.619 7.619 0 0 0 1.329-2.27 6.626 6.626 0 0 0 .276-4.539zm-16.186 53.495a5.291 5.291 0 0 1 .632 3.425 119.4 119.4 0 0 1-13.156 1.937c-2.883.266-5.8.437-8.716.542a50.5 50.5 0 0 0 6.044-.913 32.354 32.354 0 0 0 5.8-1.84 16.186 16.186 0 0 0 5.379-3.605c.5-.534.989-1.086 1.457-1.628.259.122.52.236.779.388a5.047 5.047 0 0 1 1.781 1.697zm-33.1 5.856c-.388-.016-.794-.016-1.182-.04a128.535 128.535 0 0 1-19.3-2.308 5.478 5.478 0 0 1 .485-3.257 5.1 5.1 0 0 1 2.122-1.953c.357.413.73.844 1.117 1.239a16.184 16.184 0 0 0 5.379 3.614 32.8 32.8 0 0 0 5.8 1.84 48.617 48.617 0 0 0 5.581.868zm-49.751-17.186a7.992 7.992 0 0 1-.713-4.585 10.423 10.423 0 0 1 1.911-4.5 26.424 26.424 0 0 1 8-6.941 63.138 63.138 0 0 1 8.571-4.271 85.094 85.094 0 0 0 3.223 11.2 59.055 59.055 0 0 0 8.44 15.79 8.466 8.466 0 0 0-.68.875 7.618 7.618 0 0 0-1.264 3.443 6.894 6.894 0 0 0 .568 3.345c.048.1.112.185.16.292-.388-.083-.792-.147-1.182-.237-7.031-1.514-14-3.741-20.008-7.354-2.938-1.84-5.664-4.157-7.026-7.057zm103.021 12.353a53.71 53.71 0 0 1-14.727 7.169 89.216 89.216 0 0 1-16.087 3.5 119.626 119.626 0 0 1-16.524.98 121.288 121.288 0 0 1-16.526-.971 89.288 89.288 0 0 1-16.087-3.5 53.562 53.562 0 0 1-14.727-7.178c-.4-.283-.809-.59-1.2-.9a52.984 52.984 0 0 0 8.084 3.905 87.92 87.92 0 0 0 10.824 3.37 125.932 125.932 0 0 0 22.291 3.093c14.953.6 30.119-.7 44.438-5.581a60.473 60.473 0 0 0 10.37-4.64 41.685 41.685 0 0 0 3.922-2.65 34.407 34.407 0 0 1-4.051 3.402zm9.056-19.059a8.672 8.672 0 0 1 .356 5 10.381 10.381 0 0 1-2.315 4.431 25.981 25.981 0 0 1-8.426 6.191 62.748 62.748 0 0 1-10.026 3.863c-2.367.68-4.765 1.248-7.18 1.766.051-.13.132-.242.18-.38a6.658 6.658 0 0 0 .421-3.556 8.158 8.158 0 0 0-1.573-3.492 7.731 7.731 0 0 0-.776-.877 59.5 59.5 0 0 0 8.1-15.35c.031-.1.064-.193.1-.281.033-.009.1-.016.13-.026a5.753 5.753 0 0 0 1.217-.38 6.726 6.726 0 0 0 2.056-1.378 7.451 7.451 0 0 0 1.343-1.8.032.032 0 0 0 .017-.031 20.05 20.05 0 0 0 11.164-.584 17.4 17.4 0 0 1 5.212 6.884zm-16.831-10.864l-1.669-.713a87.27 87.27 0 0 0 1-4.625 10.1 10.1 0 0 0 3.468 2.13 11.269 11.269 0 0 0 11.713-2.745 11.545 11.545 0 0 0 3-5.6 12.2 12.2 0 0 0-3.5-11.445 11.52 11.52 0 0 0-11.243-2.683l-.6.2.162.551v.015l.033.123.031.048a5.326 5.326 0 0 1 .406 4.447 7.838 7.838 0 0 1-1.038 2.187 3.5 3.5 0 0 1-.809.851.21.21 0 0 1-.048.031 134.731 134.731 0 0 0 .388-14.661 17.577 17.577 0 0 1 15.212 3.815 17.041 17.041 0 0 1 5.864 14.323 16.523 16.523 0 0 1-7.906 12.734 15.977 15.977 0 0 1-14.464 1.017z" class="cls-3" data-name="Path 617" transform="translate(-89.21 -1697.262)"/>
    </g>
</svg>
