<svg xmlns="http://www.w3.org/2000/svg" id="Group_168" width="123.354" height="88.555" data-name="Group 168" viewBox="0 0 123.354 88.555">
    <defs>
        <style>
            .cls-1{fill:#d9c685}.cls-2{fill:#fff}.cls-3{fill:#803a17}.cls-4{fill:#3b1008}
        </style>
    </defs>
    <g id="Group_167" data-name="Group 167">
        <path id="Path_1441" d="M383.345 203.323a149.491 149.491 0 0 0 16.412.851 147.634 147.634 0 0 0 16.4-.851 59.957 59.957 0 0 0 8.067-1.376 23.134 23.134 0 0 0 3.888-1.222 8.63 8.63 0 0 0 1.459-.8 94.108 94.108 0 0 0 4.341-17.1c.34-1.992.6-3.993.827-5.994-.05.064-.081.13-.13.186-.033.048-.081.09-.114.138a3.633 3.633 0 0 1-.875.9 10.061 10.061 0 0 1-2.025 1.176 31.739 31.739 0 0 1-4.407 1.562 80.053 80.053 0 0 1-9.153 1.792 146.914 146.914 0 0 1-18.566 1.2 145.224 145.224 0 0 1-18.566-1.2c-2.494-.357-4.973-.786-7.421-1.362a155.33 155.33 0 0 0 2.641 20.924 65.561 65.561 0 0 0 7.222 1.176z" class="cls-1" data-name="Path 1441" transform="translate(-339.95 -156.194)"/>
        <path id="Path_1442" d="M380.5 177.416c1.588.153 3.174.276 4.761.388a46.073 46.073 0 0 1-7.744-2.139l.05-.226a96.023 96.023 0 0 0 12.41 1.248c4.148.178 8.327.193 12.491.088 4.164-.072 8.312-.266 12.459-.614a97.969 97.969 0 0 0 12.36-1.694l.048.226a47.266 47.266 0 0 1-8.747 2.659 82.979 82.979 0 0 0 8.731-1.273 31.4 31.4 0 0 0 4.521-1.2c.34-.121.663-.259.989-.406a9.27 9.27 0 0 0 1.718-1.084 3.875 3.875 0 0 0 .663-.753 1.885 1.885 0 0 0 .114-.437v-.09a.868.868 0 0 0-.05-.195 3.615 3.615 0 0 0-.809-1.06 51.966 51.966 0 0 1-3.986.906c-3.436.625-6.9 1.046-10.353 1.371-6.933.639-13.9.906-20.85.932-6.627.017-13.235-.2-19.847-.737a65.256 65.256 0 0 0-5.717 3.176c2.248.378 4.516.698 6.788.914z" class="cls-1" data-name="Path 1442" transform="translate(-339.757 -161.198)"/>
        <path id="Path_1443" d="M393.476 173.835c6.886.469 13.819.785 20.738.573a99.518 99.518 0 0 0 10.335-.93c1.2-.2 2.382-.447 3.565-.722a8.359 8.359 0 0 0-1.248-.753c-.259-.112-.52-.226-.777-.331a32.907 32.907 0 0 0-4.521-1.281 83.675 83.675 0 0 0-9.3-1.443 171.213 171.213 0 0 0-17.254-.908 104.793 104.793 0 0 0-14.387 4.539c4.262.521 8.54.957 12.849 1.256z" class="cls-1" data-name="Path 1443" transform="translate(-333.961 -163.554)"/>
        <path id="Path_1444" d="M407.251 171.6v-.086a.411.411 0 0 0-.033-.066.518.518 0 0 1 .033.152z" class="cls-1" data-name="Path 1444" transform="translate(-311.688 -160.699)"/>
        <path id="Path_1445" d="M407.258 171.612l-.05.261c.016-.033.033-.05.033-.073a.714.714 0 0 1 .017-.188z" class="cls-1" data-name="Path 1445" transform="translate(-311.696 -160.563)"/>
        <path id="Path_1446" d="M435.558 171.88a3.239 3.239 0 0 1-1.167 1.41 11.6 11.6 0 0 1-2.073 1.174 32.3 32.3 0 0 1-4.5 1.555 82.535 82.535 0 0 1-9.315 1.79 150.688 150.688 0 0 1-37.814 0c-2.462-.347-4.925-.761-7.356-1.319.066 2.082.195 6.636.243 8.06 2.512.47 5.041.8 7.6 1.046a174.877 174.877 0 0 0 18.419.834 177.121 177.121 0 0 0 18.421-.827 80.575 80.575 0 0 0 9.122-1.353 30.439 30.439 0 0 0 4.422-1.2 10.955 10.955 0 0 0 2.058-.981 2.582 2.582 0 0 0 1.312-1.628q.46-4.314.7-8.635c-.024.026-.057.05-.072.074z" class="cls-2" data-name="Path 1446" transform="translate(-340.076 -160.4)"/>
        <path id="Path_1447" d="M406.924 177a2.948 2.948 0 0 0 .031-.38 1.611 1.611 0 0 1-.276.7c.033-.048.081-.09.114-.138a1.816 1.816 0 0 0 .131-.182z" class="cls-2" data-name="Path 1447" transform="translate(-312.139 -156.368)"/>
        <path id="Path_1448" d="M407.333 171.6v.219l.031-.257c-.014.005-.014.02-.031.038z" class="cls-2" data-name="Path 1448" transform="translate(-311.592 -160.606)"/>
        <path id="Path_1449" d="M405.878 173.507a8.773 8.773 0 0 0 1.117-.575 3.836 3.836 0 0 0 1.053-.923 4.885 4.885 0 0 1-.452.413 9.265 9.265 0 0 1-1.718 1.085z" class="cls-2" data-name="Path 1449" transform="translate(-312.811 -160.23)"/>
        <path id="Path_1450" d="M478.582 195.046a18.7 18.7 0 0 0-7.323-15.262 18.116 18.116 0 0 0-15.9-3.006c-.031-1.36-.1-2.72-.176-4.074a1.305 1.305 0 0 0 .195-.654v-.017a1.731 1.731 0 0 0-.729-1.272 6.44 6.44 0 0 0-1.134-.722 16.887 16.887 0 0 0-2.479-.939 45.88 45.88 0 0 0-5.087-1.2c-3.436-.632-6.9-1.046-10.353-1.378-6.933-.64-13.9-.9-20.85-.923s-13.917.209-20.85.809c-3.484.309-6.933.706-10.385 1.314a49 49 0 0 0-5.12 1.174 17.033 17.033 0 0 0-2.512.956 5.958 5.958 0 0 0-1.2.737 1.971 1.971 0 0 0-.81 1.443 1.7 1.7 0 0 0 .421 1.044 129.552 129.552 0 0 0 .5 21.694 111.372 111.372 0 0 0 1.764 11 54.4 54.4 0 0 0-9.152 3.313 27.359 27.359 0 0 0-9.22 6.691 12.772 12.772 0 0 0-2.72 5.419 10.834 10.834 0 0 0 .533 6.252 16.244 16.244 0 0 0 3.938 5.7c.112.178.21.373.323.551a30.833 30.833 0 0 0 5.744 6.421 51 51 0 0 0 14.874 8.531c10.756 4.1 22.293 5.482 33.633 5.508 11.34-.017 22.892-1.408 33.633-5.508a50.751 50.751 0 0 0 14.9-8.531 31.052 31.052 0 0 0 5.721-6.415 22.374 22.374 0 0 0 1.49-2.714c.162-.211.356-.4.5-.606a12.53 12.53 0 0 0 2.284-5.509 9.955 9.955 0 0 0-.939-5.824 17.062 17.062 0 0 0-6.075-6.489 18.376 18.376 0 0 0 4.262-2.211 19.2 19.2 0 0 0 8.299-15.303zm-43.1-27.446a97.577 97.577 0 0 1 10.335.941 44.52 44.52 0 0 1 5.055 1.093 16.532 16.532 0 0 1 2.413.866c.713.349 1.573.844 1.621 1.523-.064.713-.908 1.183-1.621 1.54-.079.033-.162.055-.243.1a8.716 8.716 0 0 0-2.056-1.3v-.331a2.123 2.123 0 0 1-.017.323 25.672 25.672 0 0 0-2.075-.827 48.805 48.805 0 0 0-4.745-1.327c-3.225-.682-6.467-1.143-9.707-1.54-4.374-.5-8.764-.737-13.156-.875 4.739-.225 9.469-.331 14.201-.186zm17.351 6.14a15.744 15.744 0 0 1-1.832.649v-1.626a9.122 9.122 0 0 1 1.837.977zm-9.533 40.01a52.93 52.93 0 0 1-10.223 15.357c-2.236 2.262-5.524 3.337-8.716 4.052a54.349 54.349 0 0 1-19.863 0 89.68 89.68 0 0 1-1.115-.259q-.73-.524-1.411-1.07a14.091 14.091 0 0 1-5.848-3.28 47.055 47.055 0 0 1-9.186-13.6c.29.211.582.4.875.592a20.3 20.3 0 0 0 3.58 1.612c.373.13.763.244 1.15.356a57.315 57.315 0 0 0 6.432 1.5 97.762 97.762 0 0 0 31.025 0 53.552 53.552 0 0 0 7.582-1.856 20.779 20.779 0 0 0 3.58-1.612 8.908 8.908 0 0 0 1.248-.915c.1-.1.211-.178.323-.276a.109.109 0 0 0 .017-.033c.048-.031.081-.057.13-.088.064-.05.129-.1.193-.145a1.582 1.582 0 0 0 .228-.333zm-54.533-23.127c2.448.575 4.927 1.005 7.421 1.362a145.216 145.216 0 0 0 18.566 1.2 146.9 146.9 0 0 0 18.566-1.2 80.033 80.033 0 0 0 9.153-1.792 31.73 31.73 0 0 0 4.407-1.562 10.063 10.063 0 0 0 2.025-1.176 3.632 3.632 0 0 0 .875-.9 1.611 1.611 0 0 0 .276-.7 2.948 2.948 0 0 1-.031.38c-.228 2-.487 4-.827 5.995a94.1 94.1 0 0 1-4.341 17.1 8.628 8.628 0 0 1-1.459.8 23.134 23.134 0 0 1-3.889 1.222 59.955 59.955 0 0 1-8.067 1.376 147.627 147.627 0 0 1-16.4.851 149.492 149.492 0 0 1-16.412-.851 65.556 65.556 0 0 1-7.226-1.182c-.29-.066-.566-.121-.842-.195a24 24 0 0 1-3.888-1.222 8.519 8.519 0 0 1-1.766-1 4.361 4.361 0 0 1-.5-.461 94.957 94.957 0 0 1-4.115-16.453 137.06 137.06 0 0 1-.86-6.375 2.937 2.937 0 0 0 1.15 1.621 11.126 11.126 0 0 0 2.042 1.167 30.885 30.885 0 0 0 4.407 1.562c.582.157 1.146.294 1.73.432zm-4.017 18.687a9.225 9.225 0 0 0 1.733 1.193 25.475 25.475 0 0 0 3.872 1.588c.323.1.663.186.989.283l.972 4.221c-.226-.059-.47-.116-.7-.171a19.714 19.714 0 0 1-3.616-1.248 7.753 7.753 0 0 1-1.345-.827 50.79 50.79 0 0 1-1.15-2.657c-.34-.842-.632-1.716-.939-2.584.065.066.115.137.179.202zm65.338-23.669a2.582 2.582 0 0 1-1.312 1.628 10.949 10.949 0 0 1-2.058.981 30.43 30.43 0 0 1-4.421 1.2 80.576 80.576 0 0 1-9.122 1.353 177.135 177.135 0 0 1-18.421.827 174.882 174.882 0 0 1-18.419-.834 84.814 84.814 0 0 1-7.6-1.046c-.5-.1-1.02-.186-1.523-.3a30.8 30.8 0 0 1-4.421-1.2 10.1 10.1 0 0 1-2.058-.989 2.47 2.47 0 0 1-1.312-1.63c-.34-2.988-.568-5.993-.711-9a2.67 2.67 0 0 0 1.231 1.854 11.114 11.114 0 0 0 2.088 1.174 31.646 31.646 0 0 0 4.5 1.555c.649.171 1.3.325 1.961.47 2.431.559 4.894.972 7.356 1.319a150.69 150.69 0 0 0 37.814 0 82.527 82.527 0 0 0 9.315-1.79 32.289 32.289 0 0 0 4.5-1.555 11.6 11.6 0 0 0 2.073-1.174 3.239 3.239 0 0 0 1.167-1.41c.015-.057.015-.121.031-.169.016-.09.033-.171.05-.261a.711.711 0 0 0-.017.187V177q-.242 4.33-.696 8.64zm-16.541-14.646a83.654 83.654 0 0 1 9.3 1.443 32.9 32.9 0 0 1 4.521 1.281c.257.1.518.219.777.331a10.464 10.464 0 0 1 1.329.689c0 .017.016.024.031.033a.34.34 0 0 0-.112.031c-1.183.276-2.367.52-3.565.722a99.524 99.524 0 0 1-10.335.93c-6.919.211-13.852-.1-20.738-.573-4.309-.3-8.587-.739-12.847-1.255-2.56-.318-5.12-.658-7.646-1.029-2.479-.325-4.925-.755-7.34-1.207a84.741 84.741 0 0 1 9.041-1.4 173.266 173.266 0 0 1 18.792-.915c.52 0 1.02.007 1.54.015a171.2 171.2 0 0 1 17.248.903zm17.254 5.421v.086a.519.519 0 0 0-.033-.153 2.071 2.071 0 0 0-.632-1.15c.244-.064.5-.121.746-.195-.021.478-.054.941-.082 1.411zm-67.282-.083c3.451.616 6.9 1.013 10.385 1.321.34.024.663.048 1 .074 6.612.533 13.22.753 19.847.737 6.95-.026 13.917-.292 20.85-.932 3.451-.325 6.917-.746 10.353-1.371a51.966 51.966 0 0 0 3.986-.906.831.831 0 0 1 .129-.033 2.048 2.048 0 0 1 .68 1.093.872.872 0 0 1 .05.195v.09a1.885 1.885 0 0 1-.114.437 2.461 2.461 0 0 1-.211.34 3.835 3.835 0 0 1-1.053.923 8.778 8.778 0 0 1-1.117.575c-.325.147-.649.285-.989.406a31.394 31.394 0 0 1-4.521 1.2 82.979 82.979 0 0 1-8.731 1.273 47.265 47.265 0 0 0 8.747-2.659l-.048-.226a97.972 97.972 0 0 1-12.36 1.694c-4.147.347-8.3.542-12.459.614-4.164.1-8.343.09-12.491-.088a96.027 96.027 0 0 1-12.41-1.248l-.05.226a46.067 46.067 0 0 0 7.744 2.139 185.763 185.763 0 0 1-4.761-.388 97.699 97.699 0 0 1-6.788-.915c-.827-.138-1.671-.254-2.479-.423a31.394 31.394 0 0 1-4.521-1.2 11.287 11.287 0 0 1-2.106-.981 2.485 2.485 0 0 1-1.376-1.709v-.074a1.847 1.847 0 0 1 .551-1.132c1.406.382 2.832.69 4.258.948zm10.741-5.881c2.17-.331 4.342-.623 6.529-.9q7.046-.378 14.093-.366c6.5-.015 12.994.171 19.459.68 3.24.27 6.48.61 9.672 1.143 1.6.268 3.192.592 4.747 1.013.744.219 1.49.447 2.22.73-.033.551-.048 1.11-.081 1.669l-.017.007c-.423.123-.842.211-1.262.309a.6.6 0 0 1-.1-.073 11.442 11.442 0 0 0-2.089-1.127 31.926 31.926 0 0 0-4.5-1.472 84.29 84.29 0 0 0-9.3-1.67 157.776 157.776 0 0 0-18.875-1.1 159.711 159.711 0 0 0-18.875 1.1 84.3 84.3 0 0 0-9.3 1.67c-.195.048-.356.112-.549.16-.342-.074-.7-.129-1.055-.2 3.023-.608 6.136-1.16 9.278-1.573zm-15.06 4.918a1.715 1.715 0 0 0-.5 1.141 30.693 30.693 0 0 1-.081-1.288c.196.049.391.09.581.147zm-4.763-2.13c.081.081.162.16.243.233a6.883 6.883 0 0 0 1.2.746 16.728 16.728 0 0 0 2.512.939l.1.026c0 12.491 1.457 25.117 5.9 36.954a49.336 49.336 0 0 0 10.708 17.39 13.323 13.323 0 0 0 4.423 2.951 27.171 27.171 0 0 0 4.973 1.569 52.363 52.363 0 0 0 20.5 0 26.39 26.39 0 0 0 4.973-1.569 13.335 13.335 0 0 0 4.44-2.942 49.524 49.524 0 0 0 10.71-17.408c4.228-11.315 5.75-23.361 5.864-35.318v-.219c.017-.542.031-1.077.031-1.619a.091.091 0 0 1 .033-.007 16.739 16.739 0 0 0 2.479-.95 5.522 5.522 0 0 0 1.134-.72 2.062 2.062 0 0 0 .437-.454 180.266 180.266 0 0 1-2.657 21.589 105.481 105.481 0 0 1-6.156 21.394c-2.883 6.763-6.608 13.195-11.744 18.2-2.172 2.146-5.575 3.354-9.025 4.091a60.447 60.447 0 0 1-21.514 0c-3.451-.737-6.871-1.952-9.008-4.091-5.153-5.013-8.88-11.438-11.763-18.2a106.723 106.723 0 0 1-6.156-21.394 181.185 181.185 0 0 1-2.632-21.191zm83.438 10.86a10.118 10.118 0 0 1 8.749 3.052 9.459 9.459 0 0 1 2.139 9.253 10.725 10.725 0 0 1-6.481 6.658 11.054 11.054 0 0 1-8.7-.632c.454-2.543.825-5.1 1.117-7.663.1-.939.164-1.88.245-2.819a1.484 1.484 0 0 0 .323-.164 4.312 4.312 0 0 0 1-.882 8.129 8.129 0 0 0 1.329-2.268 6.674 6.674 0 0 0 .279-4.535zm-16.184 53.49a5.391 5.391 0 0 1 .616 3.425 118.443 118.443 0 0 1-13.139 1.937c-2.9.276-5.814.437-8.731.549a51.161 51.161 0 0 0 6.042-.923 32.582 32.582 0 0 0 5.816-1.84 15.966 15.966 0 0 0 5.362-3.6c.5-.527.989-1.077 1.474-1.628a7.98 7.98 0 0 1 .761.388 5.3 5.3 0 0 1 1.799 1.692zm-33.115 5.864c-.388-.024-.777-.024-1.183-.039a129.324 129.324 0 0 1-19.279-2.31 5.358 5.358 0 0 1 .487-3.256 4.921 4.921 0 0 1 2.106-1.953c.371.413.73.834 1.119 1.24a16.084 16.084 0 0 0 5.379 3.6 31.514 31.514 0 0 0 5.816 1.84 50.036 50.036 0 0 0 5.555.878zm-49.753-17.2a7.976 7.976 0 0 1-.713-4.578 10.328 10.328 0 0 1 1.913-4.5 26.489 26.489 0 0 1 8-6.948 64.842 64.842 0 0 1 8.586-4.271 83.162 83.162 0 0 0 3.207 11.2 59.21 59.21 0 0 0 8.442 15.8c-.226.283-.47.559-.68.875a7.557 7.557 0 0 0-1.248 3.442 6.852 6.852 0 0 0 .549 3.337c.05.107.116.195.164.292-.39-.081-.779-.145-1.167-.226-7.033-1.516-14.014-3.743-20.025-7.364-2.944-1.832-5.651-4.156-7.028-7.056zm103.023 12.356a53.641 53.641 0 0 1-14.711 7.169 89.18 89.18 0 0 1-16.105 3.508 119.076 119.076 0 0 1-16.524.97 120.654 120.654 0 0 1-16.524-.97 88.674 88.674 0 0 1-16.089-3.5 54.019 54.019 0 0 1-14.727-7.167c-.4-.292-.792-.6-1.2-.908a53 53 0 0 0 8.084 3.905 88.449 88.449 0 0 0 10.822 3.368 126.162 126.162 0 0 0 22.293 3.095c14.953.6 30.134-.7 44.44-5.581a58.674 58.674 0 0 0 10.368-4.642 42.872 42.872 0 0 0 3.936-2.648 33.99 33.99 0 0 1-4.063 3.401zm9.071-19.06a8.975 8.975 0 0 1 .357 5.006 10.665 10.665 0 0 1-2.332 4.44 25.954 25.954 0 0 1-8.426 6.18 62.135 62.135 0 0 1-10.028 3.872 106.61 106.61 0 0 1-7.176 1.757c.064-.129.129-.241.195-.379a6.813 6.813 0 0 0 .4-3.549 8.084 8.084 0 0 0-1.555-3.492c-.244-.316-.52-.6-.777-.884a59.5 59.5 0 0 0 8.084-15.35c.031-.1.064-.186.1-.283a.489.489 0 0 0 .129-.024 5.711 5.711 0 0 0 1.215-.373 6.684 6.684 0 0 0 2.058-1.386 8.235 8.235 0 0 0 1.362-1.79c0-.017.015-.031.015-.04a19.974 19.974 0 0 0 11.147-.584 17.321 17.321 0 0 1 5.232 6.878zm-16.849-10.85l-1.652-.722c.373-1.531.7-3.078 1.005-4.618a10.074 10.074 0 0 0 3.466 2.123 11.079 11.079 0 0 0 6.173.34 11.305 11.305 0 0 0 5.542-3.085 11.529 11.529 0 0 0 2.981-5.588 12.18 12.18 0 0 0-3.5-11.454 11.517 11.517 0 0 0-11.243-2.683l-.6.2.162.557v.009l.033.121.048.05a5.326 5.326 0 0 1 .39 4.447 7.49 7.49 0 0 1-1.036 2.187 3.288 3.288 0 0 1-.812.858.163.163 0 0 0-.048.031 129.856 129.856 0 0 0 .388-14.661 17.554 17.554 0 0 1 15.214 3.808 17.053 17.053 0 0 1 5.881 14.321 16.545 16.545 0 0 1-7.922 12.735 15.985 15.985 0 0 1-14.47 1.024z" class="cls-3" data-name="Path 1450" transform="translate(-355.234 -165.599)"/>
        <path id="Path_1451" d="M425.87 192.279c-.1.114-.195.211-.195.219-.1.066-.195.114-.276.178a8.913 8.913 0 0 1-1.248.915 20.776 20.776 0 0 1-3.58 1.612 53.549 53.549 0 0 1-7.582 1.856 97.762 97.762 0 0 1-31.025 0 57.331 57.331 0 0 1-6.432-1.5 29 29 0 0 0 9.429 14.323q.681.546 1.411 1.07c.371.088.744.176 1.115.259a54.349 54.349 0 0 0 19.863 0c3.192-.715 6.48-1.79 8.716-4.052a52.93 52.93 0 0 0 10.225-15.359 1.584 1.584 0 0 1-.228.333l-.193.146z" class="cls-4" data-name="Path 1451" transform="translate(-338.23 -143.651)"/>
    </g>
</svg>
