<svg xmlns="http://www.w3.org/2000/svg" id="Group_172" width="123.354" height="88.555" data-name="Group 172" viewBox="0 0 123.354 88.555">
    <defs>
        <style>
            .cls-1{fill:#3b1008}.cls-2{fill:#fff}.cls-3{fill:#d9c685}.cls-4{fill:#803a17}
        </style>
    </defs>
    <g id="Group_171" data-name="Group 171">
        <path id="Path_1464" d="M477.683 215.568a47.22 47.22 0 0 0 9.931.906 46.243 46.243 0 0 0 9.931-.906c3.192-.713 6.481-1.784 8.716-4.052a50.423 50.423 0 0 0 10.6-16.848 78.518 78.518 0 0 0 2.9-8.747 1.828 1.828 0 0 1-.178.176 3.883 3.883 0 0 1-.551.616 10.414 10.414 0 0 1-1.847 1.183 25.073 25.073 0 0 1-4.034 1.588 67.719 67.719 0 0 1-8.44 1.814 122.118 122.118 0 0 1-34.362 0c-2.317-.373-4.633-.81-6.9-1.41 3.37 15.359 9.624 22.956 11.487 24.95a27.908 27.908 0 0 0 2.747.73z" class="cls-1" data-name="Path 1464" transform="translate(-428.098 -148.576)"/>
        <path id="Path_1465" d="M523.6 174.388c-.081.066-.16.147-.241.211a11.931 11.931 0 0 1-2.075 1.167 31.789 31.789 0 0 1-4.488 1.555 78.438 78.438 0 0 1-9.267 1.783 152.458 152.458 0 0 1-18.825 1.215 155.4 155.4 0 0 1-18.827-1.2 95.993 95.993 0 0 1-7.727-1.408 114.9 114.9 0 0 0 1.281 16.541l.048.437s6.935 2.85 31.722 2.187c21.5-.566 26.1-4.747 26.927-5.833q.582-2.721 1.02-5.443c.68-4 1.1-8.053 1.393-12.1a4.2 4.2 0 0 1-.941.888z" class="cls-2" data-name="Path 1465" transform="translate(-429.19 -158.982)"/>
        <path id="Path_1466" d="M479.741 172.585c6.884.469 13.819.794 20.736.583 3.111-.162 6.206-.356 9.284-.777a27.54 27.54 0 0 0-2.058-.5 80.721 80.721 0 0 0-9.251-1.457c-5.572-.583-11.2-.875-16.8-.908-3.175.761-6.107 1.6-8.813 2.481 2.301.22 4.601.431 6.902.578z" class="cls-3" data-name="Path 1466" transform="translate(-420.226 -162.314)"/>
        <path id="Path_1467" d="M479.142 176.3c4.148.176 8.326.193 12.491.081q6.246-.1 12.458-.6a99.061 99.061 0 0 0 12.362-1.7l.048.226a52.066 52.066 0 0 1-12.248 3.306 96.6 96.6 0 0 1-12.571 1.117 94.349 94.349 0 0 1-12.638-.584 53.686 53.686 0 0 1-10.886-2.365c-2.867 1.36-4.828 2.479-5.7 3 2.413.437 4.861.746 7.29.972a176.069 176.069 0 0 0 18.7.827 175.607 175.607 0 0 0 18.68-.827 80.123 80.123 0 0 0 9.251-1.345 30.662 30.662 0 0 0 4.488-1.182 11.77 11.77 0 0 0 2.089-.989 1.84 1.84 0 0 0 .048-3.549 12.025 12.025 0 0 0-2.089-1.036c-.34-.112-.7-.21-1.036-.323a3.234 3.234 0 0 0-.226.048c-3.436.632-6.9 1.055-10.353 1.378-6.933.632-13.9.889-20.85.924q-7.313.022-14.629-.375c-1.8.73-3.4 1.443-4.828 2.091 3.36.478 6.745.737 10.149.905z" class="cls-3" data-name="Path 1467" transform="translate(-428.925 -160.807)"/>
        <path id="Path_1468" d="M496.289 173.04z" class="cls-3" data-name="Path 1468" transform="translate(-400.582 -159.367)"/>
        <path id="Path_1469" d="M495.584 175.357a4.2 4.2 0 0 0 .941-.889c.031-.456.064-.908.1-1.364a3.58 3.58 0 0 0-.649-.761 1.865 1.865 0 0 1 .6 1.281 2.25 2.25 0 0 1-.992 1.733z" class="cls-3" data-name="Path 1469" transform="translate(-401.173 -159.95)"/>
        <path id="Path_1470" d="M458.306 174.984a11.335 11.335 0 0 0 2.073 1.167 30.968 30.968 0 0 0 4.473 1.555c.518.145 1.036.259 1.555.39a96.517 96.517 0 0 0 7.727 1.408 155.389 155.389 0 0 0 18.827 1.2 152.449 152.449 0 0 0 18.825-1.215 78.431 78.431 0 0 0 9.267-1.783 31.769 31.769 0 0 0 4.488-1.555 11.93 11.93 0 0 0 2.075-1.167c.081-.064.16-.145.241-.211a2.25 2.25 0 0 0 .989-1.733 2.461 2.461 0 0 1-1.377 1.749 11.753 11.753 0 0 1-2.089.989 30.645 30.645 0 0 1-4.488 1.182 80.121 80.121 0 0 1-9.251 1.345 175.6 175.6 0 0 1-18.68.827 176.059 176.059 0 0 1-18.7-.827 85.381 85.381 0 0 1-7.29-.972c-.649-.114-1.3-.226-1.944-.373a31.3 31.3 0 0 1-4.5-1.182 12.361 12.361 0 0 1-2.091-.989 2.507 2.507 0 0 1-1.376-1.749 2.592 2.592 0 0 0 1.246 1.944z" class="cls-4" data-name="Path 1470" transform="translate(-433.445 -159.367)"/>
        <path id="Path_1471" d="M567.555 195.036a18.665 18.665 0 0 0-7.323-15.245 18.12 18.12 0 0 0-15.894-3.014c-.031-1.36-.1-2.722-.177-4.082a1.284 1.284 0 0 0 .193-.649v-.015a1.739 1.739 0 0 0-.728-1.274 6.381 6.381 0 0 0-1.136-.72 17.532 17.532 0 0 0-2.477-.941 46.394 46.394 0 0 0-5.087-1.2c-3.437-.63-6.9-1.044-10.353-1.378-6.934-.638-13.9-.9-20.85-.921s-13.918.209-20.85.809c-3.484.309-6.935.706-10.385 1.321a44.644 44.644 0 0 0-5.12 1.174 16.66 16.66 0 0 0-2.512.939 6.707 6.707 0 0 0-1.2.746 1.951 1.951 0 0 0-.81 1.443 1.649 1.649 0 0 0 .421 1.036 129.485 129.485 0 0 0 .5 21.692 111.551 111.551 0 0 0 1.766 11.017 54.067 54.067 0 0 0-9.153 3.306 27.344 27.344 0 0 0-9.218 6.691 12.814 12.814 0 0 0-2.722 5.427 10.863 10.863 0 0 0 .535 6.254 16.5 16.5 0 0 0 3.936 5.7c.114.178.211.357.323.535a30.386 30.386 0 0 0 5.735 6.415 50.579 50.579 0 0 0 14.872 8.538c10.758 4.1 22.294 5.493 33.635 5.509 11.338-.017 22.89-1.41 33.633-5.509a51.056 51.056 0 0 0 14.9-8.521 31.592 31.592 0 0 0 5.721-6.417 22.187 22.187 0 0 0 1.488-2.72c.164-.211.359-.39.5-.6a12.565 12.565 0 0 0 2.284-5.524 9.92 9.92 0 0 0-.941-5.814 16.948 16.948 0 0 0-6.061-6.478 19.263 19.263 0 0 0 12.557-17.53zM524.46 167.6a98.95 98.95 0 0 1 10.335.932 48.209 48.209 0 0 1 5.055 1.093 17.751 17.751 0 0 1 2.415.875c.713.349 1.573.851 1.621 1.514-.066.73-.908 1.183-1.621 1.54a4.57 4.57 0 0 0-.242.1 8.929 8.929 0 0 0-2.058-1.279v-.34a2.022 2.022 0 0 1-.017.323 24.574 24.574 0 0 0-2.073-.827c-1.556-.526-3.159-.956-4.747-1.329-3.225-.68-6.465-1.141-9.7-1.54-4.375-.5-8.764-.737-13.156-.875 4.728-.228 9.458-.332 14.188-.187zm17.351 6.149c-.584.243-1.2.452-1.83.647v-1.636a8.71 8.71 0 0 1 1.83.989zm-58.581-3.3c2.17-.333 4.341-.623 6.527-.9 4.7-.252 9.4-.357 14.095-.357 6.5-.017 12.994.16 19.459.671 3.24.259 6.48.608 9.672 1.141a46.146 46.146 0 0 1 4.747 1.024c.744.209 1.49.436 2.2.711-.017.568-.031 1.117-.064 1.685h-.017a48.238 48.238 0 0 1-5.055 1.1l-.4.05a37.306 37.306 0 0 0-2.608-.777 82.291 82.291 0 0 0-9.267-1.685 158.728 158.728 0 0 0-18.792-1.1 162.136 162.136 0 0 0-18.794 1.1c-.825.112-1.652.228-2.477.357-2.885-.4-5.735-.908-8.507-1.441 3.026-.611 6.137-1.163 9.281-1.576zm39.2 3.264a80.723 80.723 0 0 1 9.251 1.457 31.5 31.5 0 0 1 2.058.5c-3.078.421-6.173.616-9.284.777-6.917.211-13.852-.114-20.736-.583-2.3-.147-4.6-.358-6.9-.583a304.038 304.038 0 0 1-12.312-1.509c.162-.031.324-.048.485-.064a172.3 172.3 0 0 1 18.729-.923c.632 0 1.264.015 1.911.015 5.608.041 11.231.333 16.803.916zm-50.9 2.429c-.116.05-.244.083-.358.13a11.822 11.822 0 0 0-2.073 1.117 2.616 2.616 0 0 0-1.281 1.88 2.5 2.5 0 0 1 1.345-1.8 10.916 10.916 0 0 1 2.091-1.036c.224-.081.452-.129.68-.209.176.033.371.081.551.112 3.449.6 6.9 1.005 10.385 1.312q3.109.27 6.221.437 7.313.389 14.629.375c6.948-.035 13.917-.292 20.85-.924 3.449-.323 6.917-.746 10.353-1.378.064-.017.145-.033.226-.048.34.114.7.211 1.037.323a12.027 12.027 0 0 1 2.089 1.036 2.478 2.478 0 0 1 1.329 1.8 1.865 1.865 0 0 0-.6-1.281 4.773 4.773 0 0 0-.682-.6 10.7 10.7 0 0 0-2.073-1.117c-.212-.1-.436-.162-.663-.259 1.424-.276 2.852-.584 4.26-1-.048 1.248-.129 2.494-.193 3.74l-.1 1.364c-.292 4.048-.713 8.1-1.393 12.1q-.439 2.721-1.02 5.443c-.829 1.086-5.428 5.267-26.927 5.833-24.786.663-31.722-2.187-31.722-2.187l-.048-.437c-.34-.066-.682-.114-1.005-.195a27.09 27.09 0 0 1-4.212-1.215 11.046 11.046 0 0 1-1.944-.989 2.929 2.929 0 0 1-1.07-1.15c-.356-1.685-.68-3.385-.956-5.1a138.481 138.481 0 0 1-1.669-16.995c1.304.376 2.613.664 3.947.921zm7.047 25.615l.792 4.26c-.388-.1-.775-.162-1.167-.259a24.888 24.888 0 0 1-4.065-1.215 9.674 9.674 0 0 1-1.847-.987 4.755 4.755 0 0 1-.729-.665 81.771 81.771 0 0 1-1.279-5.3 3.444 3.444 0 0 0 .873 1.068 10.067 10.067 0 0 0 1.911 1.169 26.2 26.2 0 0 0 4.181 1.571c.443.134.895.248 1.334.361zm-6.45 1.976a11 11 0 0 0 1.832 1.184 26.276 26.276 0 0 0 4.041 1.59c.518.145 1.036.276 1.555.4 2.27.6 4.585 1.036 6.9 1.41a122.119 122.119 0 0 0 34.363 0 67.721 67.721 0 0 0 8.44-1.814 25.076 25.076 0 0 0 4.034-1.588 10.409 10.409 0 0 0 1.847-1.184 3.876 3.876 0 0 0 .551-.616 1.811 1.811 0 0 0 .178-.176 78.49 78.49 0 0 1-2.9 8.747 50.423 50.423 0 0 1-10.6 16.848c-2.235 2.268-5.524 3.339-8.716 4.052a46.239 46.239 0 0 1-9.931.906 47.215 47.215 0 0 1-9.931-.906 27.915 27.915 0 0 1-2.755-.73 14.127 14.127 0 0 1-5.945-3.323c-4.748-4.714-8.084-10.644-10.612-16.848a76.526 76.526 0 0 1-2.819-8.457 4.528 4.528 0 0 0 .472.508zm-8.716-30.491a3.032 3.032 0 0 0 .244.228 6.3 6.3 0 0 0 1.2.744 18.657 18.657 0 0 0 2.512.939c.031.017.064.017.1.033 0 12.491 1.456 25.112 5.9 36.939a49.435 49.435 0 0 0 10.71 17.4 13.291 13.291 0 0 0 4.421 2.949 27.782 27.782 0 0 0 4.975 1.571 48.68 48.68 0 0 0 10.256 1.022 49.554 49.554 0 0 0 10.24-1.022 26.946 26.946 0 0 0 4.973-1.571 13.424 13.424 0 0 0 4.44-2.933 49.62 49.62 0 0 0 10.708-17.416c3.936-10.53 5.524-21.677 5.831-32.825v-.031c.05-1.424.066-2.869.066-4.293a.051.051 0 0 1 .033-.017 17.75 17.75 0 0 0 2.477-.939 7.132 7.132 0 0 0 1.136-.73 2.381 2.381 0 0 0 .435-.454 180.463 180.463 0 0 1-2.655 21.6 105.4 105.4 0 0 1-6.156 21.385c-2.883 6.772-6.61 13.187-11.746 18.21-2.17 2.139-5.574 3.337-9.025 4.083a60 60 0 0 1-21.514 0c-3.451-.746-6.869-1.944-9.008-4.083-5.153-5.022-8.878-11.438-11.761-18.21a107.224 107.224 0 0 1-6.158-21.385 181.741 181.741 0 0 1-2.63-21.191zM546.85 184.1a10.125 10.125 0 0 1 8.749 3.063 9.422 9.422 0 0 1 2.139 9.232 10.767 10.767 0 0 1-6.482 6.676 11.209 11.209 0 0 1-8.716-.632c.47-2.56.842-5.12 1.134-7.68.1-.941.164-1.88.244-2.819a2.162 2.162 0 0 0 .323-.145 4.431 4.431 0 0 0 1-.891 8.139 8.139 0 0 0 1.329-2.27 6.677 6.677 0 0 0 .28-4.534zm-16.184 53.5a5.377 5.377 0 0 1 .615 3.418 120.263 120.263 0 0 1-13.139 1.944c-2.9.259-5.816.437-8.733.535a45.636 45.636 0 0 0 6.042-.924 31.255 31.255 0 0 0 5.816-1.83 16.106 16.106 0 0 0 5.364-3.6c.5-.535.987-1.086 1.474-1.637.259.13.518.244.761.39a5.163 5.163 0 0 1 1.8 1.704zm-33.115 5.849c-.39-.017-.777-.017-1.183-.033a128.368 128.368 0 0 1-19.279-2.317 5.392 5.392 0 0 1 .485-3.256 5.007 5.007 0 0 1 2.108-1.944c.371.4.728.827 1.117 1.231a15.869 15.869 0 0 0 5.379 3.613 32.194 32.194 0 0 0 5.816 1.847 47.622 47.622 0 0 0 5.557.856zM447.8 226.255a7.986 7.986 0 0 1-.713-4.583 10.275 10.275 0 0 1 1.911-4.5 26.671 26.671 0 0 1 8-6.952 65.377 65.377 0 0 1 8.587-4.26 83.225 83.225 0 0 0 3.207 11.2 59.22 59.22 0 0 0 8.44 15.795c-.224.292-.469.551-.68.877a7.569 7.569 0 0 0-1.248 3.433 6.948 6.948 0 0 0 .551 3.356c.048.1.114.176.164.276-.391-.083-.779-.132-1.167-.228-7.033-1.507-14.016-3.743-20.025-7.356-2.947-1.841-5.652-4.158-7.027-7.058zm103.02 12.362a54.071 54.071 0 0 1-14.711 7.161 87.774 87.774 0 0 1-16.105 3.5 139.737 139.737 0 0 1-33.047.017 90.732 90.732 0 0 1-16.089-3.5 54.023 54.023 0 0 1-14.727-7.178c-.406-.29-.794-.6-1.2-.906a53.609 53.609 0 0 0 8.084 3.9 89.9 89.9 0 0 0 10.822 3.37 125.481 125.481 0 0 0 22.293 3.095c14.953.6 30.134-.7 44.438-5.574a60.515 60.515 0 0 0 10.37-4.651 43.9 43.9 0 0 0 3.936-2.639 35.3 35.3 0 0 1-4.064 3.405zm9.072-19.07a8.994 8.994 0 0 1 .357 5.008 10.681 10.681 0 0 1-2.334 4.44 26.073 26.073 0 0 1-8.424 6.187 61.3 61.3 0 0 1-10.028 3.855c-2.365.68-4.763 1.248-7.176 1.766.064-.129.129-.243.193-.373a6.861 6.861 0 0 0 .4-3.563 8.088 8.088 0 0 0-1.553-3.484 10.685 10.685 0 0 0-.779-.873 59.645 59.645 0 0 0 8.084-15.359c.033-.1.066-.195.1-.276.048-.017.1-.017.129-.033a6.2 6.2 0 0 0 1.215-.371 6.81 6.81 0 0 0 2.057-1.378 8.171 8.171 0 0 0 1.362-1.8.058.058 0 0 1 .016-.033 19.887 19.887 0 0 0 11.145-.6 17.473 17.473 0 0 1 5.236 6.887zm-16.849-10.853l-1.652-.713c.373-1.538.7-3.078 1.005-4.633a9.922 9.922 0 0 0 3.466 2.139 11.336 11.336 0 0 0 11.713-2.755 11.577 11.577 0 0 0 2.983-5.59 12.177 12.177 0 0 0-3.5-11.454 11.509 11.509 0 0 0-11.243-2.672l-.6.193.16.551.033.129.049.05a5.325 5.325 0 0 1 .39 4.438 7.444 7.444 0 0 1-1.036 2.2 3.346 3.346 0 0 1-.812.844.554.554 0 0 1-.048.048 130.6 130.6 0 0 0 .388-14.678 17.545 17.545 0 0 1 15.212 3.822 17.061 17.061 0 0 1 5.882 14.323 16.559 16.559 0 0 1-7.922 12.733 16.04 16.04 0 0 1-14.468 1.025z" class="cls-4" data-name="Path 1471" transform="translate(-444.208 -165.599)"/>
        <path id="Path_1472" d="M489.753 177.469a96.607 96.607 0 0 0 12.571-1.117 52.067 52.067 0 0 0 12.248-3.306l-.048-.226a99.069 99.069 0 0 1-12.362 1.7q-6.219.51-12.457.6c-4.164.112-8.343.1-12.491-.081-3.4-.164-6.788-.423-10.159-.908-.761-.1-1.507-.211-2.253-.34l-.048.226c.487.178.987.342 1.474.5a53.692 53.692 0 0 0 10.886 2.365 94.352 94.352 0 0 0 12.639.587z" class="cls-4" data-name="Path 1472" transform="translate(-426.997 -159.551)"/>
    </g>
</svg>
