<svg xmlns="http://www.w3.org/2000/svg" width="92.256" height="92.255" viewBox="0 0 92.256 92.255">
    <defs>
        <style>
            .cls-1{opacity:.551}.cls-2,.cls-3{fill:#703c16}.cls-3{fill-rule:evenodd}
        </style>
    </defs>
    <g id="Group_3190" class="cls-1" data-name="Group 3190">
        <g id="Group_2" data-name="Group 2">
            <path id="Path_11" d="M137.221 308.548a43.223 43.223 0 1 0 79.043-24.166 10.278 10.278 0 0 1-1.164 2.167 41.035 41.035 0 1 1-18.948-15.944 11.816 11.816 0 0 1 .693-2.038 43.2 43.2 0 0 0-59.624 39.981z" class="cls-2" data-name="Path 11" transform="translate(-134.315 -262.42)"/>
            <path id="Path_12" d="M217.349 280.844a14.059 14.059 0 0 1-.329 2.082 44.568 44.568 0 1 1-19.287-15.379 9.163 9.163 0 0 1 .934-1.237 46.256 46.256 0 1 0 18.682 14.535z" class="cls-2" data-name="Path 12" transform="translate(-134.551 -262.656)"/>
        </g>
        <g id="Group_3" data-name="Group 3" transform="translate(11.046 16.399)">
            <path id="Path_13" d="M210 315.276a8.172 8.172 0 0 1-2.658 2.2 17.637 17.637 0 0 1-1.811.851 10.934 10.934 0 0 0-.876-1.8 12.086 12.086 0 0 0-2.232-2.7q-3.849-3.508-12.993-5.028 6.9-1.805 10.355-5.055a11.974 11.974 0 0 0 1.219-1.332c-.225-.076-.453-.153-.686-.234a39.816 39.816 0 0 0-9.34-1.94 8.754 8.754 0 0 1-2.306 4.612q-2.675 2.6-8.891 2.6h-6.036v-17.928a2.492 2.492 0 0 1 .922-2.236q.922-.614 4.355-.613 7.192 0 9.758 2.2a7.165 7.165 0 0 1 2.22 3.953 13.541 13.541 0 0 1 .3 2.027q-.992-.082-2.014-.14-2.591-.147-5.369-.15-4.238 0-8.166.307v3.563a52.942 52.942 0 0 1 6.667-.412q.883 0 1.752.032c.588-.02 1.183-.032 1.791-.032q1.7 0 3.321.094 1.009.057 1.989.15a41.554 41.554 0 0 1 9.71 2.035c.393.136.773.263 1.142.388.669.225 1.3.44 1.9.67a9.917 9.917 0 0 1 2.882 1.6h6.631l-.077-.612-.825-7.745h-3.089l-3.811 2.936-.579-.159q-.988-.273-1.953-.517c.03-.346.048-.7.048-1.058 0-.338-.017-.67-.043-1a11.171 11.171 0 0 0-4.294-7.939q-4.337-3.594-11.89-3.593h-.191v-5.55h-4.786v5.55h-5.721v-5.55h-4.786v5.55h-16.947v3.361h4.157a4.859 4.859 0 0 1 2.728.579 1.782 1.782 0 0 1 .814 1.518v28.236a14.085 14.085 0 0 1-2-1.591 7.76 7.76 0 0 1-2.619-5.374v-.182a7.509 7.509 0 0 1 2.627-5.425v-6.842c-.85.247-1.687.5-2.505.782q-12.92 4.373-13.083 11.666c0 .059-.005.117-.005.175v.015q0 6.686 11.348 10.967 2.058.777 4.245 1.411.983.286 2 .542a73.49 73.49 0 0 0 11.456 1.908q.984.09 2 .16c2.48.173 5.089.26 7.843.26 2.927 0 5.649-.114 8.2-.338.7-.062 1.385-.13 2.058-.208a56.116 56.116 0 0 0 11.21-2.39c.417-.138.817-.28 1.2-.424q1.045-.392 1.948-.817a13.227 13.227 0 0 0 6.359-5.528zm-18 6.149a71.31 71.31 0 0 1-5.592.21q-1.337 0-2.589-.042-.991.039-2 .04a52.416 52.416 0 0 1-6.068-.344q-1.019-.119-2-.278v-10.2h8.133q5.927 0 9.036 2.982a9.969 9.969 0 0 1 2.823 5.459 15.621 15.621 0 0 1 .246 1.98q-.976.113-1.989.193z" class="cls-2" data-name="Path 13" transform="translate(-144.701 -277.725)"/>
            <path id="Path_14" d="M192.56 323.179a8.786 8.786 0 0 1-2.248 3.635q-2.909 2.783-8.005 2.783h-6.939a2.165 2.165 0 0 1-1.772-.8 3.575 3.575 0 0 1-.651-2.313v-3.23a75.634 75.634 0 0 1-11.456-1.853v4.938a3.79 3.79 0 0 1-.867 2.494 2.386 2.386 0 0 1-1.916.758h-4.916v3.362h16.935v4.414h4.786v-4.414h5.721v4.414h4.786v-4.442a30.868 30.868 0 0 0 9.9-1.816q4.861-1.845 6.812-4.232a12 12 0 0 0 2.66-6.423c-.165.058-.334.115-.5.171a59.082 59.082 0 0 1-12.33 2.554z" class="cls-2" data-name="Path 14" transform="translate(-143.899 -273.954)"/>
        </g>
        <g id="Group_4" data-name="Group 4" transform="translate(63.678 3.009)">
            <path id="Path_15" d="M199.639 265.421c1.863.354 3.441 2.046 4.3 4.416a3.289 3.289 0 0 0-2.456.392 2.183 2.183 0 0 0-.235.139 5.826 5.826 0 0 0-.975.788c.079-.323.156-.647.227-.975.378-1.728.473-3.59-.865-4.76zm-1.007 17.427c-3.136-.141-5.616-4.043-5.566-8.807a12.06 12.06 0 0 1 1.039-4.88 8.479 8.479 0 0 1 .905-1.5 6.363 6.363 0 0 1 .483-.567c1.988-2.056 3.88-1.154 3.753 1.575a7.638 7.638 0 0 1-.125 1.042c-.614 3.278-1.709 5.877-1.769 9.414-.022 1.316.115 2.89 1.28 3.723z" class="cls-3" data-name="Path 15" transform="translate(-193.065 -265.421)"/>
            <path id="Path_16" d="M204.763 270.092c1.962.351 3.623 2.186 4.478 4.74a12.418 12.418 0 0 1 .615 3.584 11.866 11.866 0 0 1-1.583 6.379c-1.714 2.845-4.074 2.593-4.2-.735-.118-3.24.957-6.127 1.6-9.225.359-1.728.435-3.588-.914-4.744zm-.822 17.41c-3.132-.109-5.649-3.977-5.649-8.734a12.051 12.051 0 0 1 .986-4.882 8.425 8.425 0 0 1 .889-1.508 6.058 6.058 0 0 1 .476-.57c1.963-2.074 3.861-1.193 3.764 1.531a7.525 7.525 0 0 1-.115 1.043c-.578 3.279-1.643 5.885-1.667 9.417-.008 1.315.146 2.885 1.317 3.7z" class="cls-3" data-name="Path 16" transform="translate(-192.604 -265.009)"/>
        </g>
    </g>
</svg>
